G75*
%MOIN*%
%OFA0B0*%
%FSLAX25Y25*%
%IPPOS*%
%LPD*%
%AMOC8*
5,1,8,0,0,1.08239X$1,22.5*
%
%ADD10C,0.00000*%
%ADD11C,0.00800*%
%ADD12C,0.00500*%
%ADD13C,0.00400*%
%ADD14C,0.00200*%
%ADD15C,0.00600*%
%ADD16C,0.01000*%
%ADD17C,0.00900*%
%ADD18R,0.01772X0.00039*%
%ADD19R,0.02480X0.00039*%
%ADD20R,0.03031X0.00039*%
%ADD21R,0.03504X0.00039*%
%ADD22R,0.03976X0.00039*%
%ADD23R,0.04291X0.00039*%
%ADD24R,0.04685X0.00039*%
%ADD25R,0.05000X0.00039*%
%ADD26R,0.05315X0.00039*%
%ADD27R,0.05551X0.00039*%
%ADD28R,0.05866X0.00039*%
%ADD29R,0.06102X0.00039*%
%ADD30R,0.06339X0.00039*%
%ADD31R,0.06575X0.00039*%
%ADD32R,0.06811X0.00039*%
%ADD33R,0.06969X0.00039*%
%ADD34R,0.07205X0.00039*%
%ADD35R,0.07441X0.00039*%
%ADD36R,0.07598X0.00039*%
%ADD37R,0.07756X0.00039*%
%ADD38R,0.07992X0.00039*%
%ADD39R,0.08150X0.00039*%
%ADD40R,0.08307X0.00039*%
%ADD41R,0.08465X0.00039*%
%ADD42R,0.08701X0.00039*%
%ADD43R,0.08858X0.00039*%
%ADD44R,0.09016X0.00039*%
%ADD45R,0.09173X0.00039*%
%ADD46R,0.04134X0.00039*%
%ADD47R,0.03937X0.00039*%
%ADD48R,0.04094X0.00039*%
%ADD49R,0.03898X0.00039*%
%ADD50R,0.04055X0.00039*%
%ADD51R,0.03858X0.00039*%
%ADD52R,0.04016X0.00039*%
%ADD53R,0.03819X0.00039*%
%ADD54R,0.04173X0.00039*%
%ADD55R,0.04213X0.00039*%
%ADD56R,0.04252X0.00039*%
%ADD57R,0.04331X0.00039*%
%ADD58R,0.04409X0.00039*%
%ADD59R,0.04449X0.00039*%
%ADD60R,0.04488X0.00039*%
%ADD61R,0.04370X0.00039*%
%ADD62R,0.04528X0.00039*%
%ADD63R,0.04567X0.00039*%
%ADD64R,0.04606X0.00039*%
%ADD65R,0.04646X0.00039*%
%ADD66R,0.04724X0.00039*%
%ADD67R,0.04764X0.00039*%
%ADD68R,0.04803X0.00039*%
%ADD69R,0.04843X0.00039*%
%ADD70R,0.04882X0.00039*%
%ADD71R,0.04921X0.00039*%
%ADD72R,0.04961X0.00039*%
%ADD73R,0.05039X0.00039*%
%ADD74R,0.05079X0.00039*%
%ADD75R,0.05118X0.00039*%
%ADD76R,0.05157X0.00039*%
%ADD77R,0.05197X0.00039*%
%ADD78R,0.05236X0.00039*%
%ADD79R,0.05276X0.00039*%
%ADD80R,0.05354X0.00039*%
%ADD81R,0.05394X0.00039*%
%ADD82R,0.05433X0.00039*%
%ADD83R,0.05472X0.00039*%
%ADD84R,0.05512X0.00039*%
%ADD85R,0.05591X0.00039*%
%ADD86R,0.05630X0.00039*%
%ADD87R,0.05669X0.00039*%
%ADD88R,0.05709X0.00039*%
%ADD89R,0.05748X0.00039*%
%ADD90R,0.05787X0.00039*%
%ADD91R,0.05827X0.00039*%
%ADD92R,0.05906X0.00039*%
%ADD93R,0.05945X0.00039*%
%ADD94R,0.05984X0.00039*%
%ADD95R,0.06024X0.00039*%
%ADD96R,0.06063X0.00039*%
%ADD97R,0.06142X0.00039*%
%ADD98R,0.06181X0.00039*%
%ADD99R,0.06220X0.00039*%
%ADD100R,0.06260X0.00039*%
%ADD101R,0.06299X0.00039*%
%ADD102R,0.06378X0.00039*%
%ADD103R,0.06457X0.00039*%
%ADD104R,0.06496X0.00039*%
%ADD105R,0.06535X0.00039*%
%ADD106R,0.06614X0.00039*%
%ADD107R,0.06693X0.00039*%
%ADD108R,0.06732X0.00039*%
%ADD109R,0.06654X0.00039*%
%ADD110R,0.02638X0.00039*%
%ADD111R,0.00551X0.00039*%
%ADD112R,0.06850X0.00039*%
%ADD113R,0.02402X0.00039*%
%ADD114R,0.02795X0.00039*%
%ADD115R,0.06890X0.00039*%
%ADD116R,0.02244X0.00039*%
%ADD117R,0.02677X0.00039*%
%ADD118R,0.02087X0.00039*%
%ADD119R,0.02559X0.00039*%
%ADD120R,0.07008X0.00039*%
%ADD121R,0.02008X0.00039*%
%ADD122R,0.02441X0.00039*%
%ADD123R,0.07087X0.00039*%
%ADD124R,0.01850X0.00039*%
%ADD125R,0.02362X0.00039*%
%ADD126R,0.07126X0.00039*%
%ADD127R,0.01811X0.00039*%
%ADD128R,0.02323X0.00039*%
%ADD129R,0.00197X0.00039*%
%ADD130R,0.00591X0.00039*%
%ADD131R,0.02283X0.00039*%
%ADD132R,0.01693X0.00039*%
%ADD133R,0.00118X0.00039*%
%ADD134R,0.02047X0.00039*%
%ADD135R,0.01654X0.00039*%
%ADD136R,0.02205X0.00039*%
%ADD137R,0.01929X0.00039*%
%ADD138R,0.01614X0.00039*%
%ADD139R,0.02165X0.00039*%
%ADD140R,0.01535X0.00039*%
%ADD141R,0.01732X0.00039*%
%ADD142R,0.01496X0.00039*%
%ADD143R,0.00157X0.00039*%
%ADD144R,0.01417X0.00039*%
%ADD145R,0.00236X0.00039*%
%ADD146R,0.01378X0.00039*%
%ADD147R,0.00276X0.00039*%
%ADD148R,0.01575X0.00039*%
%ADD149R,0.01339X0.00039*%
%ADD150R,0.00315X0.00039*%
%ADD151R,0.01299X0.00039*%
%ADD152R,0.00394X0.00039*%
%ADD153R,0.01457X0.00039*%
%ADD154R,0.01220X0.00039*%
%ADD155R,0.00472X0.00039*%
%ADD156R,0.00512X0.00039*%
%ADD157R,0.01181X0.00039*%
%ADD158R,0.01102X0.00039*%
%ADD159R,0.00669X0.00039*%
%ADD160R,0.01260X0.00039*%
%ADD161R,0.00709X0.00039*%
%ADD162R,0.00827X0.00039*%
%ADD163R,0.01063X0.00039*%
%ADD164R,0.00945X0.00039*%
%ADD165R,0.01024X0.00039*%
%ADD166R,0.01142X0.00039*%
%ADD167R,0.00984X0.00039*%
%ADD168R,0.00906X0.00039*%
%ADD169R,0.00866X0.00039*%
%ADD170R,0.00787X0.00039*%
%ADD171R,0.00748X0.00039*%
%ADD172R,0.00630X0.00039*%
%ADD173R,0.00433X0.00039*%
%ADD174R,0.00354X0.00039*%
%ADD175R,0.00079X0.00039*%
%ADD176R,0.01890X0.00039*%
%ADD177R,0.01969X0.00039*%
%ADD178R,0.02126X0.00039*%
%ADD179R,0.02598X0.00039*%
%ADD180R,0.02520X0.00039*%
%ADD181R,0.06417X0.00039*%
%ADD182R,0.09409X0.00039*%
%ADD183R,0.09331X0.00039*%
D10*
X0016773Y0004109D02*
X0244332Y0004109D01*
X0244674Y0004113D01*
X0245017Y0004126D01*
X0245359Y0004146D01*
X0245700Y0004175D01*
X0246040Y0004212D01*
X0246380Y0004258D01*
X0246718Y0004311D01*
X0247055Y0004373D01*
X0247390Y0004443D01*
X0247724Y0004521D01*
X0248055Y0004607D01*
X0248385Y0004701D01*
X0248712Y0004803D01*
X0249036Y0004912D01*
X0249358Y0005030D01*
X0249677Y0005155D01*
X0249992Y0005288D01*
X0250305Y0005429D01*
X0250613Y0005577D01*
X0250919Y0005732D01*
X0251220Y0005895D01*
X0251517Y0006065D01*
X0251810Y0006242D01*
X0252099Y0006427D01*
X0252383Y0006618D01*
X0252663Y0006816D01*
X0252937Y0007020D01*
X0253207Y0007232D01*
X0253471Y0007449D01*
X0253730Y0007673D01*
X0253984Y0007904D01*
X0254232Y0008140D01*
X0254474Y0008382D01*
X0254710Y0008630D01*
X0254941Y0008884D01*
X0255165Y0009143D01*
X0255382Y0009407D01*
X0255594Y0009677D01*
X0255798Y0009951D01*
X0255996Y0010231D01*
X0256187Y0010515D01*
X0256372Y0010804D01*
X0256549Y0011097D01*
X0256719Y0011394D01*
X0256882Y0011695D01*
X0257037Y0012001D01*
X0257185Y0012309D01*
X0257326Y0012622D01*
X0257459Y0012937D01*
X0257584Y0013256D01*
X0257702Y0013578D01*
X0257811Y0013902D01*
X0257913Y0014229D01*
X0258007Y0014559D01*
X0258093Y0014890D01*
X0258171Y0015224D01*
X0258241Y0015559D01*
X0258303Y0015896D01*
X0258356Y0016234D01*
X0258402Y0016574D01*
X0258439Y0016914D01*
X0258468Y0017255D01*
X0258488Y0017597D01*
X0258501Y0017940D01*
X0258505Y0018282D01*
X0258506Y0018282D02*
X0258506Y0210408D01*
X0258505Y0210408D02*
X0258501Y0210750D01*
X0258488Y0211093D01*
X0258468Y0211435D01*
X0258439Y0211776D01*
X0258402Y0212116D01*
X0258356Y0212456D01*
X0258303Y0212794D01*
X0258241Y0213131D01*
X0258171Y0213466D01*
X0258093Y0213800D01*
X0258007Y0214131D01*
X0257913Y0214461D01*
X0257811Y0214788D01*
X0257702Y0215112D01*
X0257584Y0215434D01*
X0257459Y0215753D01*
X0257326Y0216068D01*
X0257185Y0216381D01*
X0257037Y0216689D01*
X0256882Y0216995D01*
X0256719Y0217296D01*
X0256549Y0217593D01*
X0256372Y0217886D01*
X0256187Y0218175D01*
X0255996Y0218459D01*
X0255798Y0218739D01*
X0255594Y0219013D01*
X0255382Y0219283D01*
X0255165Y0219547D01*
X0254941Y0219806D01*
X0254710Y0220060D01*
X0254474Y0220308D01*
X0254232Y0220550D01*
X0253984Y0220786D01*
X0253730Y0221017D01*
X0253471Y0221241D01*
X0253207Y0221458D01*
X0252937Y0221670D01*
X0252663Y0221874D01*
X0252383Y0222072D01*
X0252099Y0222263D01*
X0251810Y0222448D01*
X0251517Y0222625D01*
X0251220Y0222795D01*
X0250919Y0222958D01*
X0250613Y0223113D01*
X0250305Y0223261D01*
X0249992Y0223402D01*
X0249677Y0223535D01*
X0249358Y0223660D01*
X0249036Y0223778D01*
X0248712Y0223887D01*
X0248385Y0223989D01*
X0248055Y0224083D01*
X0247724Y0224169D01*
X0247390Y0224247D01*
X0247055Y0224317D01*
X0246718Y0224379D01*
X0246380Y0224432D01*
X0246040Y0224478D01*
X0245700Y0224515D01*
X0245359Y0224544D01*
X0245017Y0224564D01*
X0244674Y0224577D01*
X0244332Y0224581D01*
X0016773Y0224581D01*
X0016431Y0224577D01*
X0016088Y0224564D01*
X0015746Y0224544D01*
X0015405Y0224515D01*
X0015065Y0224478D01*
X0014725Y0224432D01*
X0014387Y0224379D01*
X0014050Y0224317D01*
X0013715Y0224247D01*
X0013381Y0224169D01*
X0013050Y0224083D01*
X0012720Y0223989D01*
X0012393Y0223887D01*
X0012069Y0223778D01*
X0011747Y0223660D01*
X0011428Y0223535D01*
X0011113Y0223402D01*
X0010800Y0223261D01*
X0010492Y0223113D01*
X0010186Y0222958D01*
X0009885Y0222795D01*
X0009588Y0222625D01*
X0009295Y0222448D01*
X0009006Y0222263D01*
X0008722Y0222072D01*
X0008442Y0221874D01*
X0008168Y0221670D01*
X0007898Y0221458D01*
X0007634Y0221241D01*
X0007375Y0221017D01*
X0007121Y0220786D01*
X0006873Y0220550D01*
X0006631Y0220308D01*
X0006395Y0220060D01*
X0006164Y0219806D01*
X0005940Y0219547D01*
X0005723Y0219283D01*
X0005511Y0219013D01*
X0005307Y0218739D01*
X0005109Y0218459D01*
X0004918Y0218175D01*
X0004733Y0217886D01*
X0004556Y0217593D01*
X0004386Y0217296D01*
X0004223Y0216995D01*
X0004068Y0216689D01*
X0003920Y0216381D01*
X0003779Y0216068D01*
X0003646Y0215753D01*
X0003521Y0215434D01*
X0003403Y0215112D01*
X0003294Y0214788D01*
X0003192Y0214461D01*
X0003098Y0214131D01*
X0003012Y0213800D01*
X0002934Y0213466D01*
X0002864Y0213131D01*
X0002802Y0212794D01*
X0002749Y0212456D01*
X0002703Y0212116D01*
X0002666Y0211776D01*
X0002637Y0211435D01*
X0002617Y0211093D01*
X0002604Y0210750D01*
X0002600Y0210408D01*
X0002600Y0018282D01*
X0002604Y0017940D01*
X0002617Y0017597D01*
X0002637Y0017255D01*
X0002666Y0016914D01*
X0002703Y0016574D01*
X0002749Y0016234D01*
X0002802Y0015896D01*
X0002864Y0015559D01*
X0002934Y0015224D01*
X0003012Y0014890D01*
X0003098Y0014559D01*
X0003192Y0014229D01*
X0003294Y0013902D01*
X0003403Y0013578D01*
X0003521Y0013256D01*
X0003646Y0012937D01*
X0003779Y0012622D01*
X0003920Y0012309D01*
X0004068Y0012001D01*
X0004223Y0011695D01*
X0004386Y0011394D01*
X0004556Y0011097D01*
X0004733Y0010804D01*
X0004918Y0010515D01*
X0005109Y0010231D01*
X0005307Y0009951D01*
X0005511Y0009677D01*
X0005723Y0009407D01*
X0005940Y0009143D01*
X0006164Y0008884D01*
X0006395Y0008630D01*
X0006631Y0008382D01*
X0006873Y0008140D01*
X0007121Y0007904D01*
X0007375Y0007673D01*
X0007634Y0007449D01*
X0007898Y0007232D01*
X0008168Y0007020D01*
X0008442Y0006816D01*
X0008722Y0006618D01*
X0009006Y0006427D01*
X0009295Y0006242D01*
X0009588Y0006065D01*
X0009885Y0005895D01*
X0010186Y0005732D01*
X0010492Y0005577D01*
X0010800Y0005429D01*
X0011113Y0005288D01*
X0011428Y0005155D01*
X0011747Y0005030D01*
X0012069Y0004912D01*
X0012393Y0004803D01*
X0012720Y0004701D01*
X0013050Y0004607D01*
X0013381Y0004521D01*
X0013715Y0004443D01*
X0014050Y0004373D01*
X0014387Y0004311D01*
X0014725Y0004258D01*
X0015065Y0004212D01*
X0015405Y0004175D01*
X0015746Y0004146D01*
X0016088Y0004126D01*
X0016431Y0004113D01*
X0016773Y0004109D01*
D11*
X0015777Y0001400D02*
X0015777Y0036833D01*
X0245305Y0036833D01*
X0245305Y0001794D01*
X0245305Y0001400D02*
X0015777Y0001400D01*
X0010867Y0018282D02*
X0010869Y0018435D01*
X0010875Y0018589D01*
X0010885Y0018742D01*
X0010899Y0018894D01*
X0010917Y0019047D01*
X0010939Y0019198D01*
X0010964Y0019349D01*
X0010994Y0019500D01*
X0011028Y0019650D01*
X0011065Y0019798D01*
X0011106Y0019946D01*
X0011151Y0020092D01*
X0011200Y0020238D01*
X0011253Y0020382D01*
X0011309Y0020524D01*
X0011369Y0020665D01*
X0011433Y0020805D01*
X0011500Y0020943D01*
X0011571Y0021079D01*
X0011646Y0021213D01*
X0011723Y0021345D01*
X0011805Y0021475D01*
X0011889Y0021603D01*
X0011977Y0021729D01*
X0012068Y0021852D01*
X0012162Y0021973D01*
X0012260Y0022091D01*
X0012360Y0022207D01*
X0012464Y0022320D01*
X0012570Y0022431D01*
X0012679Y0022539D01*
X0012791Y0022644D01*
X0012905Y0022745D01*
X0013023Y0022844D01*
X0013142Y0022940D01*
X0013264Y0023033D01*
X0013389Y0023122D01*
X0013516Y0023209D01*
X0013645Y0023291D01*
X0013776Y0023371D01*
X0013909Y0023447D01*
X0014044Y0023520D01*
X0014181Y0023589D01*
X0014320Y0023654D01*
X0014460Y0023716D01*
X0014602Y0023774D01*
X0014745Y0023829D01*
X0014890Y0023880D01*
X0015036Y0023927D01*
X0015183Y0023970D01*
X0015331Y0024009D01*
X0015480Y0024045D01*
X0015630Y0024076D01*
X0015781Y0024104D01*
X0015932Y0024128D01*
X0016085Y0024148D01*
X0016237Y0024164D01*
X0016390Y0024176D01*
X0016543Y0024184D01*
X0016696Y0024188D01*
X0016850Y0024188D01*
X0017003Y0024184D01*
X0017156Y0024176D01*
X0017309Y0024164D01*
X0017461Y0024148D01*
X0017614Y0024128D01*
X0017765Y0024104D01*
X0017916Y0024076D01*
X0018066Y0024045D01*
X0018215Y0024009D01*
X0018363Y0023970D01*
X0018510Y0023927D01*
X0018656Y0023880D01*
X0018801Y0023829D01*
X0018944Y0023774D01*
X0019086Y0023716D01*
X0019226Y0023654D01*
X0019365Y0023589D01*
X0019502Y0023520D01*
X0019637Y0023447D01*
X0019770Y0023371D01*
X0019901Y0023291D01*
X0020030Y0023209D01*
X0020157Y0023122D01*
X0020282Y0023033D01*
X0020404Y0022940D01*
X0020523Y0022844D01*
X0020641Y0022745D01*
X0020755Y0022644D01*
X0020867Y0022539D01*
X0020976Y0022431D01*
X0021082Y0022320D01*
X0021186Y0022207D01*
X0021286Y0022091D01*
X0021384Y0021973D01*
X0021478Y0021852D01*
X0021569Y0021729D01*
X0021657Y0021603D01*
X0021741Y0021475D01*
X0021823Y0021345D01*
X0021900Y0021213D01*
X0021975Y0021079D01*
X0022046Y0020943D01*
X0022113Y0020805D01*
X0022177Y0020665D01*
X0022237Y0020524D01*
X0022293Y0020382D01*
X0022346Y0020238D01*
X0022395Y0020092D01*
X0022440Y0019946D01*
X0022481Y0019798D01*
X0022518Y0019650D01*
X0022552Y0019500D01*
X0022582Y0019349D01*
X0022607Y0019198D01*
X0022629Y0019047D01*
X0022647Y0018894D01*
X0022661Y0018742D01*
X0022671Y0018589D01*
X0022677Y0018435D01*
X0022679Y0018282D01*
X0022677Y0018129D01*
X0022671Y0017975D01*
X0022661Y0017822D01*
X0022647Y0017670D01*
X0022629Y0017517D01*
X0022607Y0017366D01*
X0022582Y0017215D01*
X0022552Y0017064D01*
X0022518Y0016914D01*
X0022481Y0016766D01*
X0022440Y0016618D01*
X0022395Y0016472D01*
X0022346Y0016326D01*
X0022293Y0016182D01*
X0022237Y0016040D01*
X0022177Y0015899D01*
X0022113Y0015759D01*
X0022046Y0015621D01*
X0021975Y0015485D01*
X0021900Y0015351D01*
X0021823Y0015219D01*
X0021741Y0015089D01*
X0021657Y0014961D01*
X0021569Y0014835D01*
X0021478Y0014712D01*
X0021384Y0014591D01*
X0021286Y0014473D01*
X0021186Y0014357D01*
X0021082Y0014244D01*
X0020976Y0014133D01*
X0020867Y0014025D01*
X0020755Y0013920D01*
X0020641Y0013819D01*
X0020523Y0013720D01*
X0020404Y0013624D01*
X0020282Y0013531D01*
X0020157Y0013442D01*
X0020030Y0013355D01*
X0019901Y0013273D01*
X0019770Y0013193D01*
X0019637Y0013117D01*
X0019502Y0013044D01*
X0019365Y0012975D01*
X0019226Y0012910D01*
X0019086Y0012848D01*
X0018944Y0012790D01*
X0018801Y0012735D01*
X0018656Y0012684D01*
X0018510Y0012637D01*
X0018363Y0012594D01*
X0018215Y0012555D01*
X0018066Y0012519D01*
X0017916Y0012488D01*
X0017765Y0012460D01*
X0017614Y0012436D01*
X0017461Y0012416D01*
X0017309Y0012400D01*
X0017156Y0012388D01*
X0017003Y0012380D01*
X0016850Y0012376D01*
X0016696Y0012376D01*
X0016543Y0012380D01*
X0016390Y0012388D01*
X0016237Y0012400D01*
X0016085Y0012416D01*
X0015932Y0012436D01*
X0015781Y0012460D01*
X0015630Y0012488D01*
X0015480Y0012519D01*
X0015331Y0012555D01*
X0015183Y0012594D01*
X0015036Y0012637D01*
X0014890Y0012684D01*
X0014745Y0012735D01*
X0014602Y0012790D01*
X0014460Y0012848D01*
X0014320Y0012910D01*
X0014181Y0012975D01*
X0014044Y0013044D01*
X0013909Y0013117D01*
X0013776Y0013193D01*
X0013645Y0013273D01*
X0013516Y0013355D01*
X0013389Y0013442D01*
X0013264Y0013531D01*
X0013142Y0013624D01*
X0013023Y0013720D01*
X0012905Y0013819D01*
X0012791Y0013920D01*
X0012679Y0014025D01*
X0012570Y0014133D01*
X0012464Y0014244D01*
X0012360Y0014357D01*
X0012260Y0014473D01*
X0012162Y0014591D01*
X0012068Y0014712D01*
X0011977Y0014835D01*
X0011889Y0014961D01*
X0011805Y0015089D01*
X0011723Y0015219D01*
X0011646Y0015351D01*
X0011571Y0015485D01*
X0011500Y0015621D01*
X0011433Y0015759D01*
X0011369Y0015899D01*
X0011309Y0016040D01*
X0011253Y0016182D01*
X0011200Y0016326D01*
X0011151Y0016472D01*
X0011106Y0016618D01*
X0011065Y0016766D01*
X0011028Y0016914D01*
X0010994Y0017064D01*
X0010964Y0017215D01*
X0010939Y0017366D01*
X0010917Y0017517D01*
X0010899Y0017670D01*
X0010885Y0017822D01*
X0010875Y0017975D01*
X0010869Y0018129D01*
X0010867Y0018282D01*
X0121880Y0030928D02*
X0139202Y0030928D01*
X0139202Y0036833D01*
X0121880Y0036833D02*
X0121880Y0030928D01*
X0223041Y0030042D02*
X0228041Y0030042D01*
X0238426Y0018282D02*
X0238428Y0018435D01*
X0238434Y0018589D01*
X0238444Y0018742D01*
X0238458Y0018894D01*
X0238476Y0019047D01*
X0238498Y0019198D01*
X0238523Y0019349D01*
X0238553Y0019500D01*
X0238587Y0019650D01*
X0238624Y0019798D01*
X0238665Y0019946D01*
X0238710Y0020092D01*
X0238759Y0020238D01*
X0238812Y0020382D01*
X0238868Y0020524D01*
X0238928Y0020665D01*
X0238992Y0020805D01*
X0239059Y0020943D01*
X0239130Y0021079D01*
X0239205Y0021213D01*
X0239282Y0021345D01*
X0239364Y0021475D01*
X0239448Y0021603D01*
X0239536Y0021729D01*
X0239627Y0021852D01*
X0239721Y0021973D01*
X0239819Y0022091D01*
X0239919Y0022207D01*
X0240023Y0022320D01*
X0240129Y0022431D01*
X0240238Y0022539D01*
X0240350Y0022644D01*
X0240464Y0022745D01*
X0240582Y0022844D01*
X0240701Y0022940D01*
X0240823Y0023033D01*
X0240948Y0023122D01*
X0241075Y0023209D01*
X0241204Y0023291D01*
X0241335Y0023371D01*
X0241468Y0023447D01*
X0241603Y0023520D01*
X0241740Y0023589D01*
X0241879Y0023654D01*
X0242019Y0023716D01*
X0242161Y0023774D01*
X0242304Y0023829D01*
X0242449Y0023880D01*
X0242595Y0023927D01*
X0242742Y0023970D01*
X0242890Y0024009D01*
X0243039Y0024045D01*
X0243189Y0024076D01*
X0243340Y0024104D01*
X0243491Y0024128D01*
X0243644Y0024148D01*
X0243796Y0024164D01*
X0243949Y0024176D01*
X0244102Y0024184D01*
X0244255Y0024188D01*
X0244409Y0024188D01*
X0244562Y0024184D01*
X0244715Y0024176D01*
X0244868Y0024164D01*
X0245020Y0024148D01*
X0245173Y0024128D01*
X0245324Y0024104D01*
X0245475Y0024076D01*
X0245625Y0024045D01*
X0245774Y0024009D01*
X0245922Y0023970D01*
X0246069Y0023927D01*
X0246215Y0023880D01*
X0246360Y0023829D01*
X0246503Y0023774D01*
X0246645Y0023716D01*
X0246785Y0023654D01*
X0246924Y0023589D01*
X0247061Y0023520D01*
X0247196Y0023447D01*
X0247329Y0023371D01*
X0247460Y0023291D01*
X0247589Y0023209D01*
X0247716Y0023122D01*
X0247841Y0023033D01*
X0247963Y0022940D01*
X0248082Y0022844D01*
X0248200Y0022745D01*
X0248314Y0022644D01*
X0248426Y0022539D01*
X0248535Y0022431D01*
X0248641Y0022320D01*
X0248745Y0022207D01*
X0248845Y0022091D01*
X0248943Y0021973D01*
X0249037Y0021852D01*
X0249128Y0021729D01*
X0249216Y0021603D01*
X0249300Y0021475D01*
X0249382Y0021345D01*
X0249459Y0021213D01*
X0249534Y0021079D01*
X0249605Y0020943D01*
X0249672Y0020805D01*
X0249736Y0020665D01*
X0249796Y0020524D01*
X0249852Y0020382D01*
X0249905Y0020238D01*
X0249954Y0020092D01*
X0249999Y0019946D01*
X0250040Y0019798D01*
X0250077Y0019650D01*
X0250111Y0019500D01*
X0250141Y0019349D01*
X0250166Y0019198D01*
X0250188Y0019047D01*
X0250206Y0018894D01*
X0250220Y0018742D01*
X0250230Y0018589D01*
X0250236Y0018435D01*
X0250238Y0018282D01*
X0250236Y0018129D01*
X0250230Y0017975D01*
X0250220Y0017822D01*
X0250206Y0017670D01*
X0250188Y0017517D01*
X0250166Y0017366D01*
X0250141Y0017215D01*
X0250111Y0017064D01*
X0250077Y0016914D01*
X0250040Y0016766D01*
X0249999Y0016618D01*
X0249954Y0016472D01*
X0249905Y0016326D01*
X0249852Y0016182D01*
X0249796Y0016040D01*
X0249736Y0015899D01*
X0249672Y0015759D01*
X0249605Y0015621D01*
X0249534Y0015485D01*
X0249459Y0015351D01*
X0249382Y0015219D01*
X0249300Y0015089D01*
X0249216Y0014961D01*
X0249128Y0014835D01*
X0249037Y0014712D01*
X0248943Y0014591D01*
X0248845Y0014473D01*
X0248745Y0014357D01*
X0248641Y0014244D01*
X0248535Y0014133D01*
X0248426Y0014025D01*
X0248314Y0013920D01*
X0248200Y0013819D01*
X0248082Y0013720D01*
X0247963Y0013624D01*
X0247841Y0013531D01*
X0247716Y0013442D01*
X0247589Y0013355D01*
X0247460Y0013273D01*
X0247329Y0013193D01*
X0247196Y0013117D01*
X0247061Y0013044D01*
X0246924Y0012975D01*
X0246785Y0012910D01*
X0246645Y0012848D01*
X0246503Y0012790D01*
X0246360Y0012735D01*
X0246215Y0012684D01*
X0246069Y0012637D01*
X0245922Y0012594D01*
X0245774Y0012555D01*
X0245625Y0012519D01*
X0245475Y0012488D01*
X0245324Y0012460D01*
X0245173Y0012436D01*
X0245020Y0012416D01*
X0244868Y0012400D01*
X0244715Y0012388D01*
X0244562Y0012380D01*
X0244409Y0012376D01*
X0244255Y0012376D01*
X0244102Y0012380D01*
X0243949Y0012388D01*
X0243796Y0012400D01*
X0243644Y0012416D01*
X0243491Y0012436D01*
X0243340Y0012460D01*
X0243189Y0012488D01*
X0243039Y0012519D01*
X0242890Y0012555D01*
X0242742Y0012594D01*
X0242595Y0012637D01*
X0242449Y0012684D01*
X0242304Y0012735D01*
X0242161Y0012790D01*
X0242019Y0012848D01*
X0241879Y0012910D01*
X0241740Y0012975D01*
X0241603Y0013044D01*
X0241468Y0013117D01*
X0241335Y0013193D01*
X0241204Y0013273D01*
X0241075Y0013355D01*
X0240948Y0013442D01*
X0240823Y0013531D01*
X0240701Y0013624D01*
X0240582Y0013720D01*
X0240464Y0013819D01*
X0240350Y0013920D01*
X0240238Y0014025D01*
X0240129Y0014133D01*
X0240023Y0014244D01*
X0239919Y0014357D01*
X0239819Y0014473D01*
X0239721Y0014591D01*
X0239627Y0014712D01*
X0239536Y0014835D01*
X0239448Y0014961D01*
X0239364Y0015089D01*
X0239282Y0015219D01*
X0239205Y0015351D01*
X0239130Y0015485D01*
X0239059Y0015621D01*
X0238992Y0015759D01*
X0238928Y0015899D01*
X0238868Y0016040D01*
X0238812Y0016182D01*
X0238759Y0016326D01*
X0238710Y0016472D01*
X0238665Y0016618D01*
X0238624Y0016766D01*
X0238587Y0016914D01*
X0238553Y0017064D01*
X0238523Y0017215D01*
X0238498Y0017366D01*
X0238476Y0017517D01*
X0238458Y0017670D01*
X0238444Y0017822D01*
X0238434Y0017975D01*
X0238428Y0018129D01*
X0238426Y0018282D01*
X0127521Y0138144D02*
X0114135Y0138144D01*
X0114135Y0142278D01*
X0116104Y0150349D02*
X0116197Y0150506D01*
X0116294Y0150661D01*
X0116394Y0150814D01*
X0116499Y0150964D01*
X0116607Y0151111D01*
X0116718Y0151256D01*
X0116833Y0151398D01*
X0116952Y0151537D01*
X0117074Y0151674D01*
X0117199Y0151807D01*
X0117327Y0151937D01*
X0117459Y0152064D01*
X0117593Y0152188D01*
X0117731Y0152308D01*
X0117871Y0152425D01*
X0118014Y0152539D01*
X0118160Y0152649D01*
X0118309Y0152755D01*
X0118460Y0152858D01*
X0118613Y0152957D01*
X0118769Y0153052D01*
X0118928Y0153144D01*
X0119088Y0153231D01*
X0119250Y0153315D01*
X0119415Y0153395D01*
X0119581Y0153470D01*
X0119749Y0153542D01*
X0119919Y0153609D01*
X0120091Y0153673D01*
X0120264Y0153732D01*
X0120438Y0153786D01*
X0120614Y0153837D01*
X0120790Y0153883D01*
X0120968Y0153925D01*
X0121147Y0153963D01*
X0121327Y0153996D01*
X0121507Y0154025D01*
X0121688Y0154049D01*
X0121870Y0154069D01*
X0122052Y0154085D01*
X0122235Y0154096D01*
X0122417Y0154103D01*
X0122600Y0154105D01*
X0122783Y0154103D01*
X0122965Y0154096D01*
X0123148Y0154085D01*
X0123330Y0154069D01*
X0123512Y0154049D01*
X0123693Y0154025D01*
X0123873Y0153996D01*
X0124053Y0153963D01*
X0124232Y0153925D01*
X0124410Y0153883D01*
X0124586Y0153837D01*
X0124762Y0153786D01*
X0124936Y0153732D01*
X0125109Y0153673D01*
X0125281Y0153609D01*
X0125451Y0153542D01*
X0125619Y0153470D01*
X0125785Y0153395D01*
X0125950Y0153315D01*
X0126112Y0153231D01*
X0126272Y0153144D01*
X0126431Y0153052D01*
X0126587Y0152957D01*
X0126740Y0152858D01*
X0126891Y0152755D01*
X0127040Y0152649D01*
X0127186Y0152539D01*
X0127329Y0152425D01*
X0127469Y0152308D01*
X0127607Y0152188D01*
X0127741Y0152064D01*
X0127873Y0151937D01*
X0128001Y0151807D01*
X0128126Y0151674D01*
X0128248Y0151537D01*
X0128367Y0151398D01*
X0128482Y0151256D01*
X0128593Y0151111D01*
X0128701Y0150964D01*
X0128806Y0150814D01*
X0128906Y0150661D01*
X0129003Y0150506D01*
X0129096Y0150349D01*
X0131065Y0150939D02*
X0131065Y0151530D01*
X0127521Y0155073D01*
X0114135Y0155073D01*
X0114135Y0150939D01*
X0114135Y0158144D02*
X0114135Y0162278D01*
X0114135Y0158144D02*
X0127521Y0158144D01*
X0131065Y0161687D01*
X0131065Y0162475D01*
X0131065Y0170939D02*
X0131065Y0171530D01*
X0127521Y0175073D01*
X0114135Y0175073D01*
X0114135Y0170939D01*
X0116104Y0162869D02*
X0116197Y0162712D01*
X0116294Y0162557D01*
X0116394Y0162404D01*
X0116499Y0162254D01*
X0116607Y0162107D01*
X0116718Y0161962D01*
X0116833Y0161820D01*
X0116952Y0161681D01*
X0117074Y0161544D01*
X0117199Y0161411D01*
X0117327Y0161281D01*
X0117459Y0161154D01*
X0117593Y0161030D01*
X0117731Y0160910D01*
X0117871Y0160793D01*
X0118014Y0160679D01*
X0118160Y0160569D01*
X0118309Y0160463D01*
X0118460Y0160360D01*
X0118613Y0160261D01*
X0118769Y0160166D01*
X0118928Y0160074D01*
X0119088Y0159987D01*
X0119250Y0159903D01*
X0119415Y0159823D01*
X0119581Y0159748D01*
X0119749Y0159676D01*
X0119919Y0159609D01*
X0120091Y0159545D01*
X0120264Y0159486D01*
X0120438Y0159432D01*
X0120614Y0159381D01*
X0120790Y0159335D01*
X0120968Y0159293D01*
X0121147Y0159255D01*
X0121327Y0159222D01*
X0121507Y0159193D01*
X0121688Y0159169D01*
X0121870Y0159149D01*
X0122052Y0159133D01*
X0122235Y0159122D01*
X0122417Y0159115D01*
X0122600Y0159113D01*
X0122783Y0159115D01*
X0122965Y0159122D01*
X0123148Y0159133D01*
X0123330Y0159149D01*
X0123512Y0159169D01*
X0123693Y0159193D01*
X0123873Y0159222D01*
X0124053Y0159255D01*
X0124232Y0159293D01*
X0124410Y0159335D01*
X0124586Y0159381D01*
X0124762Y0159432D01*
X0124936Y0159486D01*
X0125109Y0159545D01*
X0125281Y0159609D01*
X0125451Y0159676D01*
X0125619Y0159748D01*
X0125785Y0159823D01*
X0125950Y0159903D01*
X0126112Y0159987D01*
X0126272Y0160074D01*
X0126431Y0160166D01*
X0126587Y0160261D01*
X0126740Y0160360D01*
X0126891Y0160463D01*
X0127040Y0160569D01*
X0127186Y0160679D01*
X0127329Y0160793D01*
X0127469Y0160910D01*
X0127607Y0161030D01*
X0127741Y0161154D01*
X0127873Y0161281D01*
X0128001Y0161411D01*
X0128126Y0161544D01*
X0128248Y0161681D01*
X0128367Y0161820D01*
X0128482Y0161962D01*
X0128593Y0162107D01*
X0128701Y0162254D01*
X0128806Y0162404D01*
X0128906Y0162557D01*
X0129003Y0162712D01*
X0129096Y0162869D01*
X0129096Y0170349D02*
X0129003Y0170506D01*
X0128906Y0170661D01*
X0128806Y0170814D01*
X0128701Y0170964D01*
X0128593Y0171111D01*
X0128482Y0171256D01*
X0128367Y0171398D01*
X0128248Y0171537D01*
X0128126Y0171674D01*
X0128001Y0171807D01*
X0127873Y0171937D01*
X0127741Y0172064D01*
X0127607Y0172188D01*
X0127469Y0172308D01*
X0127329Y0172425D01*
X0127186Y0172539D01*
X0127040Y0172649D01*
X0126891Y0172755D01*
X0126740Y0172858D01*
X0126587Y0172957D01*
X0126431Y0173052D01*
X0126272Y0173144D01*
X0126112Y0173231D01*
X0125950Y0173315D01*
X0125785Y0173395D01*
X0125619Y0173470D01*
X0125451Y0173542D01*
X0125281Y0173609D01*
X0125109Y0173673D01*
X0124936Y0173732D01*
X0124762Y0173786D01*
X0124586Y0173837D01*
X0124410Y0173883D01*
X0124232Y0173925D01*
X0124053Y0173963D01*
X0123873Y0173996D01*
X0123693Y0174025D01*
X0123512Y0174049D01*
X0123330Y0174069D01*
X0123148Y0174085D01*
X0122965Y0174096D01*
X0122783Y0174103D01*
X0122600Y0174105D01*
X0122417Y0174103D01*
X0122235Y0174096D01*
X0122052Y0174085D01*
X0121870Y0174069D01*
X0121688Y0174049D01*
X0121507Y0174025D01*
X0121327Y0173996D01*
X0121147Y0173963D01*
X0120968Y0173925D01*
X0120790Y0173883D01*
X0120614Y0173837D01*
X0120438Y0173786D01*
X0120264Y0173732D01*
X0120091Y0173673D01*
X0119919Y0173609D01*
X0119749Y0173542D01*
X0119581Y0173470D01*
X0119415Y0173395D01*
X0119250Y0173315D01*
X0119088Y0173231D01*
X0118928Y0173144D01*
X0118769Y0173052D01*
X0118613Y0172957D01*
X0118460Y0172858D01*
X0118309Y0172755D01*
X0118160Y0172649D01*
X0118014Y0172539D01*
X0117871Y0172425D01*
X0117731Y0172308D01*
X0117593Y0172188D01*
X0117459Y0172064D01*
X0117327Y0171937D01*
X0117199Y0171807D01*
X0117074Y0171674D01*
X0116952Y0171537D01*
X0116833Y0171398D01*
X0116718Y0171256D01*
X0116607Y0171111D01*
X0116499Y0170964D01*
X0116394Y0170814D01*
X0116294Y0170661D01*
X0116197Y0170506D01*
X0116104Y0170349D01*
X0116104Y0142869D02*
X0116197Y0142712D01*
X0116294Y0142557D01*
X0116394Y0142404D01*
X0116499Y0142254D01*
X0116607Y0142107D01*
X0116718Y0141962D01*
X0116833Y0141820D01*
X0116952Y0141681D01*
X0117074Y0141544D01*
X0117199Y0141411D01*
X0117327Y0141281D01*
X0117459Y0141154D01*
X0117593Y0141030D01*
X0117731Y0140910D01*
X0117871Y0140793D01*
X0118014Y0140679D01*
X0118160Y0140569D01*
X0118309Y0140463D01*
X0118460Y0140360D01*
X0118613Y0140261D01*
X0118769Y0140166D01*
X0118928Y0140074D01*
X0119088Y0139987D01*
X0119250Y0139903D01*
X0119415Y0139823D01*
X0119581Y0139748D01*
X0119749Y0139676D01*
X0119919Y0139609D01*
X0120091Y0139545D01*
X0120264Y0139486D01*
X0120438Y0139432D01*
X0120614Y0139381D01*
X0120790Y0139335D01*
X0120968Y0139293D01*
X0121147Y0139255D01*
X0121327Y0139222D01*
X0121507Y0139193D01*
X0121688Y0139169D01*
X0121870Y0139149D01*
X0122052Y0139133D01*
X0122235Y0139122D01*
X0122417Y0139115D01*
X0122600Y0139113D01*
X0122783Y0139115D01*
X0122965Y0139122D01*
X0123148Y0139133D01*
X0123330Y0139149D01*
X0123512Y0139169D01*
X0123693Y0139193D01*
X0123873Y0139222D01*
X0124053Y0139255D01*
X0124232Y0139293D01*
X0124410Y0139335D01*
X0124586Y0139381D01*
X0124762Y0139432D01*
X0124936Y0139486D01*
X0125109Y0139545D01*
X0125281Y0139609D01*
X0125451Y0139676D01*
X0125619Y0139748D01*
X0125785Y0139823D01*
X0125950Y0139903D01*
X0126112Y0139987D01*
X0126272Y0140074D01*
X0126431Y0140166D01*
X0126587Y0140261D01*
X0126740Y0140360D01*
X0126891Y0140463D01*
X0127040Y0140569D01*
X0127186Y0140679D01*
X0127329Y0140793D01*
X0127469Y0140910D01*
X0127607Y0141030D01*
X0127741Y0141154D01*
X0127873Y0141281D01*
X0128001Y0141411D01*
X0128126Y0141544D01*
X0128248Y0141681D01*
X0128367Y0141820D01*
X0128482Y0141962D01*
X0128593Y0142107D01*
X0128701Y0142254D01*
X0128806Y0142404D01*
X0128906Y0142557D01*
X0129003Y0142712D01*
X0129096Y0142869D01*
X0131065Y0142475D02*
X0131065Y0141687D01*
X0127521Y0138144D01*
X0100931Y0194509D02*
X0100931Y0203717D01*
X0094792Y0203717D02*
X0094792Y0194509D01*
X0097861Y0197578D01*
X0100931Y0194509D01*
X0091723Y0194509D02*
X0085584Y0194509D01*
X0085584Y0203717D01*
X0082515Y0202182D02*
X0082515Y0200647D01*
X0080980Y0199113D01*
X0076376Y0199113D01*
X0073307Y0199113D02*
X0073307Y0194509D01*
X0076376Y0194509D02*
X0080980Y0194509D01*
X0082515Y0196043D01*
X0082515Y0197578D01*
X0080980Y0199113D01*
X0082515Y0202182D02*
X0080980Y0203717D01*
X0076376Y0203717D01*
X0076376Y0194509D01*
X0073307Y0199113D02*
X0071772Y0200647D01*
X0067169Y0200647D01*
X0067169Y0194509D01*
X0064099Y0197578D02*
X0057961Y0197578D01*
X0057961Y0196043D02*
X0057961Y0199113D01*
X0059495Y0200647D01*
X0062565Y0200647D01*
X0064099Y0199113D01*
X0064099Y0197578D01*
X0062565Y0194509D02*
X0059495Y0194509D01*
X0057961Y0196043D01*
X0054891Y0196043D02*
X0053357Y0194509D01*
X0048753Y0194509D01*
X0048753Y0191439D02*
X0048753Y0200647D01*
X0053357Y0200647D01*
X0054891Y0199113D01*
X0054891Y0196043D01*
X0045683Y0196043D02*
X0045683Y0202182D01*
X0044149Y0203717D01*
X0041080Y0203717D01*
X0039545Y0202182D01*
X0039545Y0196043D01*
X0041080Y0194509D01*
X0044149Y0194509D01*
X0045683Y0196043D01*
X0010867Y0210408D02*
X0010869Y0210561D01*
X0010875Y0210715D01*
X0010885Y0210868D01*
X0010899Y0211020D01*
X0010917Y0211173D01*
X0010939Y0211324D01*
X0010964Y0211475D01*
X0010994Y0211626D01*
X0011028Y0211776D01*
X0011065Y0211924D01*
X0011106Y0212072D01*
X0011151Y0212218D01*
X0011200Y0212364D01*
X0011253Y0212508D01*
X0011309Y0212650D01*
X0011369Y0212791D01*
X0011433Y0212931D01*
X0011500Y0213069D01*
X0011571Y0213205D01*
X0011646Y0213339D01*
X0011723Y0213471D01*
X0011805Y0213601D01*
X0011889Y0213729D01*
X0011977Y0213855D01*
X0012068Y0213978D01*
X0012162Y0214099D01*
X0012260Y0214217D01*
X0012360Y0214333D01*
X0012464Y0214446D01*
X0012570Y0214557D01*
X0012679Y0214665D01*
X0012791Y0214770D01*
X0012905Y0214871D01*
X0013023Y0214970D01*
X0013142Y0215066D01*
X0013264Y0215159D01*
X0013389Y0215248D01*
X0013516Y0215335D01*
X0013645Y0215417D01*
X0013776Y0215497D01*
X0013909Y0215573D01*
X0014044Y0215646D01*
X0014181Y0215715D01*
X0014320Y0215780D01*
X0014460Y0215842D01*
X0014602Y0215900D01*
X0014745Y0215955D01*
X0014890Y0216006D01*
X0015036Y0216053D01*
X0015183Y0216096D01*
X0015331Y0216135D01*
X0015480Y0216171D01*
X0015630Y0216202D01*
X0015781Y0216230D01*
X0015932Y0216254D01*
X0016085Y0216274D01*
X0016237Y0216290D01*
X0016390Y0216302D01*
X0016543Y0216310D01*
X0016696Y0216314D01*
X0016850Y0216314D01*
X0017003Y0216310D01*
X0017156Y0216302D01*
X0017309Y0216290D01*
X0017461Y0216274D01*
X0017614Y0216254D01*
X0017765Y0216230D01*
X0017916Y0216202D01*
X0018066Y0216171D01*
X0018215Y0216135D01*
X0018363Y0216096D01*
X0018510Y0216053D01*
X0018656Y0216006D01*
X0018801Y0215955D01*
X0018944Y0215900D01*
X0019086Y0215842D01*
X0019226Y0215780D01*
X0019365Y0215715D01*
X0019502Y0215646D01*
X0019637Y0215573D01*
X0019770Y0215497D01*
X0019901Y0215417D01*
X0020030Y0215335D01*
X0020157Y0215248D01*
X0020282Y0215159D01*
X0020404Y0215066D01*
X0020523Y0214970D01*
X0020641Y0214871D01*
X0020755Y0214770D01*
X0020867Y0214665D01*
X0020976Y0214557D01*
X0021082Y0214446D01*
X0021186Y0214333D01*
X0021286Y0214217D01*
X0021384Y0214099D01*
X0021478Y0213978D01*
X0021569Y0213855D01*
X0021657Y0213729D01*
X0021741Y0213601D01*
X0021823Y0213471D01*
X0021900Y0213339D01*
X0021975Y0213205D01*
X0022046Y0213069D01*
X0022113Y0212931D01*
X0022177Y0212791D01*
X0022237Y0212650D01*
X0022293Y0212508D01*
X0022346Y0212364D01*
X0022395Y0212218D01*
X0022440Y0212072D01*
X0022481Y0211924D01*
X0022518Y0211776D01*
X0022552Y0211626D01*
X0022582Y0211475D01*
X0022607Y0211324D01*
X0022629Y0211173D01*
X0022647Y0211020D01*
X0022661Y0210868D01*
X0022671Y0210715D01*
X0022677Y0210561D01*
X0022679Y0210408D01*
X0022677Y0210255D01*
X0022671Y0210101D01*
X0022661Y0209948D01*
X0022647Y0209796D01*
X0022629Y0209643D01*
X0022607Y0209492D01*
X0022582Y0209341D01*
X0022552Y0209190D01*
X0022518Y0209040D01*
X0022481Y0208892D01*
X0022440Y0208744D01*
X0022395Y0208598D01*
X0022346Y0208452D01*
X0022293Y0208308D01*
X0022237Y0208166D01*
X0022177Y0208025D01*
X0022113Y0207885D01*
X0022046Y0207747D01*
X0021975Y0207611D01*
X0021900Y0207477D01*
X0021823Y0207345D01*
X0021741Y0207215D01*
X0021657Y0207087D01*
X0021569Y0206961D01*
X0021478Y0206838D01*
X0021384Y0206717D01*
X0021286Y0206599D01*
X0021186Y0206483D01*
X0021082Y0206370D01*
X0020976Y0206259D01*
X0020867Y0206151D01*
X0020755Y0206046D01*
X0020641Y0205945D01*
X0020523Y0205846D01*
X0020404Y0205750D01*
X0020282Y0205657D01*
X0020157Y0205568D01*
X0020030Y0205481D01*
X0019901Y0205399D01*
X0019770Y0205319D01*
X0019637Y0205243D01*
X0019502Y0205170D01*
X0019365Y0205101D01*
X0019226Y0205036D01*
X0019086Y0204974D01*
X0018944Y0204916D01*
X0018801Y0204861D01*
X0018656Y0204810D01*
X0018510Y0204763D01*
X0018363Y0204720D01*
X0018215Y0204681D01*
X0018066Y0204645D01*
X0017916Y0204614D01*
X0017765Y0204586D01*
X0017614Y0204562D01*
X0017461Y0204542D01*
X0017309Y0204526D01*
X0017156Y0204514D01*
X0017003Y0204506D01*
X0016850Y0204502D01*
X0016696Y0204502D01*
X0016543Y0204506D01*
X0016390Y0204514D01*
X0016237Y0204526D01*
X0016085Y0204542D01*
X0015932Y0204562D01*
X0015781Y0204586D01*
X0015630Y0204614D01*
X0015480Y0204645D01*
X0015331Y0204681D01*
X0015183Y0204720D01*
X0015036Y0204763D01*
X0014890Y0204810D01*
X0014745Y0204861D01*
X0014602Y0204916D01*
X0014460Y0204974D01*
X0014320Y0205036D01*
X0014181Y0205101D01*
X0014044Y0205170D01*
X0013909Y0205243D01*
X0013776Y0205319D01*
X0013645Y0205399D01*
X0013516Y0205481D01*
X0013389Y0205568D01*
X0013264Y0205657D01*
X0013142Y0205750D01*
X0013023Y0205846D01*
X0012905Y0205945D01*
X0012791Y0206046D01*
X0012679Y0206151D01*
X0012570Y0206259D01*
X0012464Y0206370D01*
X0012360Y0206483D01*
X0012260Y0206599D01*
X0012162Y0206717D01*
X0012068Y0206838D01*
X0011977Y0206961D01*
X0011889Y0207087D01*
X0011805Y0207215D01*
X0011723Y0207345D01*
X0011646Y0207477D01*
X0011571Y0207611D01*
X0011500Y0207747D01*
X0011433Y0207885D01*
X0011369Y0208025D01*
X0011309Y0208166D01*
X0011253Y0208308D01*
X0011200Y0208452D01*
X0011151Y0208598D01*
X0011106Y0208744D01*
X0011065Y0208892D01*
X0011028Y0209040D01*
X0010994Y0209190D01*
X0010964Y0209341D01*
X0010939Y0209492D01*
X0010917Y0209643D01*
X0010899Y0209796D01*
X0010885Y0209948D01*
X0010875Y0210101D01*
X0010869Y0210255D01*
X0010867Y0210408D01*
X0188850Y0201609D02*
X0188850Y0224109D01*
X0188850Y0189109D02*
X0188850Y0184109D01*
X0201350Y0184109D01*
X0213850Y0184109D02*
X0226350Y0184109D01*
X0226350Y0224109D01*
X0238426Y0210408D02*
X0238428Y0210561D01*
X0238434Y0210715D01*
X0238444Y0210868D01*
X0238458Y0211020D01*
X0238476Y0211173D01*
X0238498Y0211324D01*
X0238523Y0211475D01*
X0238553Y0211626D01*
X0238587Y0211776D01*
X0238624Y0211924D01*
X0238665Y0212072D01*
X0238710Y0212218D01*
X0238759Y0212364D01*
X0238812Y0212508D01*
X0238868Y0212650D01*
X0238928Y0212791D01*
X0238992Y0212931D01*
X0239059Y0213069D01*
X0239130Y0213205D01*
X0239205Y0213339D01*
X0239282Y0213471D01*
X0239364Y0213601D01*
X0239448Y0213729D01*
X0239536Y0213855D01*
X0239627Y0213978D01*
X0239721Y0214099D01*
X0239819Y0214217D01*
X0239919Y0214333D01*
X0240023Y0214446D01*
X0240129Y0214557D01*
X0240238Y0214665D01*
X0240350Y0214770D01*
X0240464Y0214871D01*
X0240582Y0214970D01*
X0240701Y0215066D01*
X0240823Y0215159D01*
X0240948Y0215248D01*
X0241075Y0215335D01*
X0241204Y0215417D01*
X0241335Y0215497D01*
X0241468Y0215573D01*
X0241603Y0215646D01*
X0241740Y0215715D01*
X0241879Y0215780D01*
X0242019Y0215842D01*
X0242161Y0215900D01*
X0242304Y0215955D01*
X0242449Y0216006D01*
X0242595Y0216053D01*
X0242742Y0216096D01*
X0242890Y0216135D01*
X0243039Y0216171D01*
X0243189Y0216202D01*
X0243340Y0216230D01*
X0243491Y0216254D01*
X0243644Y0216274D01*
X0243796Y0216290D01*
X0243949Y0216302D01*
X0244102Y0216310D01*
X0244255Y0216314D01*
X0244409Y0216314D01*
X0244562Y0216310D01*
X0244715Y0216302D01*
X0244868Y0216290D01*
X0245020Y0216274D01*
X0245173Y0216254D01*
X0245324Y0216230D01*
X0245475Y0216202D01*
X0245625Y0216171D01*
X0245774Y0216135D01*
X0245922Y0216096D01*
X0246069Y0216053D01*
X0246215Y0216006D01*
X0246360Y0215955D01*
X0246503Y0215900D01*
X0246645Y0215842D01*
X0246785Y0215780D01*
X0246924Y0215715D01*
X0247061Y0215646D01*
X0247196Y0215573D01*
X0247329Y0215497D01*
X0247460Y0215417D01*
X0247589Y0215335D01*
X0247716Y0215248D01*
X0247841Y0215159D01*
X0247963Y0215066D01*
X0248082Y0214970D01*
X0248200Y0214871D01*
X0248314Y0214770D01*
X0248426Y0214665D01*
X0248535Y0214557D01*
X0248641Y0214446D01*
X0248745Y0214333D01*
X0248845Y0214217D01*
X0248943Y0214099D01*
X0249037Y0213978D01*
X0249128Y0213855D01*
X0249216Y0213729D01*
X0249300Y0213601D01*
X0249382Y0213471D01*
X0249459Y0213339D01*
X0249534Y0213205D01*
X0249605Y0213069D01*
X0249672Y0212931D01*
X0249736Y0212791D01*
X0249796Y0212650D01*
X0249852Y0212508D01*
X0249905Y0212364D01*
X0249954Y0212218D01*
X0249999Y0212072D01*
X0250040Y0211924D01*
X0250077Y0211776D01*
X0250111Y0211626D01*
X0250141Y0211475D01*
X0250166Y0211324D01*
X0250188Y0211173D01*
X0250206Y0211020D01*
X0250220Y0210868D01*
X0250230Y0210715D01*
X0250236Y0210561D01*
X0250238Y0210408D01*
X0250236Y0210255D01*
X0250230Y0210101D01*
X0250220Y0209948D01*
X0250206Y0209796D01*
X0250188Y0209643D01*
X0250166Y0209492D01*
X0250141Y0209341D01*
X0250111Y0209190D01*
X0250077Y0209040D01*
X0250040Y0208892D01*
X0249999Y0208744D01*
X0249954Y0208598D01*
X0249905Y0208452D01*
X0249852Y0208308D01*
X0249796Y0208166D01*
X0249736Y0208025D01*
X0249672Y0207885D01*
X0249605Y0207747D01*
X0249534Y0207611D01*
X0249459Y0207477D01*
X0249382Y0207345D01*
X0249300Y0207215D01*
X0249216Y0207087D01*
X0249128Y0206961D01*
X0249037Y0206838D01*
X0248943Y0206717D01*
X0248845Y0206599D01*
X0248745Y0206483D01*
X0248641Y0206370D01*
X0248535Y0206259D01*
X0248426Y0206151D01*
X0248314Y0206046D01*
X0248200Y0205945D01*
X0248082Y0205846D01*
X0247963Y0205750D01*
X0247841Y0205657D01*
X0247716Y0205568D01*
X0247589Y0205481D01*
X0247460Y0205399D01*
X0247329Y0205319D01*
X0247196Y0205243D01*
X0247061Y0205170D01*
X0246924Y0205101D01*
X0246785Y0205036D01*
X0246645Y0204974D01*
X0246503Y0204916D01*
X0246360Y0204861D01*
X0246215Y0204810D01*
X0246069Y0204763D01*
X0245922Y0204720D01*
X0245774Y0204681D01*
X0245625Y0204645D01*
X0245475Y0204614D01*
X0245324Y0204586D01*
X0245173Y0204562D01*
X0245020Y0204542D01*
X0244868Y0204526D01*
X0244715Y0204514D01*
X0244562Y0204506D01*
X0244409Y0204502D01*
X0244255Y0204502D01*
X0244102Y0204506D01*
X0243949Y0204514D01*
X0243796Y0204526D01*
X0243644Y0204542D01*
X0243491Y0204562D01*
X0243340Y0204586D01*
X0243189Y0204614D01*
X0243039Y0204645D01*
X0242890Y0204681D01*
X0242742Y0204720D01*
X0242595Y0204763D01*
X0242449Y0204810D01*
X0242304Y0204861D01*
X0242161Y0204916D01*
X0242019Y0204974D01*
X0241879Y0205036D01*
X0241740Y0205101D01*
X0241603Y0205170D01*
X0241468Y0205243D01*
X0241335Y0205319D01*
X0241204Y0205399D01*
X0241075Y0205481D01*
X0240948Y0205568D01*
X0240823Y0205657D01*
X0240701Y0205750D01*
X0240582Y0205846D01*
X0240464Y0205945D01*
X0240350Y0206046D01*
X0240238Y0206151D01*
X0240129Y0206259D01*
X0240023Y0206370D01*
X0239919Y0206483D01*
X0239819Y0206599D01*
X0239721Y0206717D01*
X0239627Y0206838D01*
X0239536Y0206961D01*
X0239448Y0207087D01*
X0239364Y0207215D01*
X0239282Y0207345D01*
X0239205Y0207477D01*
X0239130Y0207611D01*
X0239059Y0207747D01*
X0238992Y0207885D01*
X0238928Y0208025D01*
X0238868Y0208166D01*
X0238812Y0208308D01*
X0238759Y0208452D01*
X0238710Y0208598D01*
X0238665Y0208744D01*
X0238624Y0208892D01*
X0238587Y0209040D01*
X0238553Y0209190D01*
X0238523Y0209341D01*
X0238498Y0209492D01*
X0238476Y0209643D01*
X0238458Y0209796D01*
X0238444Y0209948D01*
X0238434Y0210101D01*
X0238428Y0210255D01*
X0238426Y0210408D01*
D12*
X0152026Y0176359D02*
X0149023Y0176359D01*
X0150524Y0176359D02*
X0150524Y0180862D01*
X0149023Y0179361D01*
X0147422Y0180112D02*
X0146671Y0180862D01*
X0145170Y0180862D01*
X0144419Y0180112D01*
X0144419Y0177109D01*
X0145170Y0176359D01*
X0146671Y0176359D01*
X0147422Y0177109D01*
X0142851Y0176359D02*
X0141350Y0176359D01*
X0142101Y0176359D02*
X0142101Y0180862D01*
X0142851Y0180862D02*
X0141350Y0180862D01*
X0106679Y0180859D02*
X0103627Y0180859D01*
X0102609Y0181876D01*
X0102609Y0183911D01*
X0103627Y0184929D01*
X0106679Y0184929D01*
X0106679Y0186964D02*
X0106679Y0180859D01*
X0100597Y0184929D02*
X0099580Y0184929D01*
X0097545Y0182894D01*
X0095538Y0182894D02*
X0092485Y0182894D01*
X0091467Y0181876D01*
X0092485Y0180859D01*
X0095538Y0180859D01*
X0095538Y0183911D01*
X0094520Y0184929D01*
X0092485Y0184929D01*
X0089460Y0183911D02*
X0088443Y0184929D01*
X0086408Y0184929D01*
X0085390Y0183911D01*
X0085390Y0181876D01*
X0086408Y0180859D01*
X0088443Y0180859D01*
X0089460Y0181876D01*
X0089460Y0183911D01*
X0083383Y0182894D02*
X0083383Y0181876D01*
X0082366Y0180859D01*
X0079313Y0180859D01*
X0079313Y0186964D01*
X0082366Y0186964D01*
X0083383Y0185946D01*
X0083383Y0184929D01*
X0082366Y0183911D01*
X0079313Y0183911D01*
X0082366Y0183911D02*
X0083383Y0182894D01*
X0071220Y0184929D02*
X0069184Y0184929D01*
X0070202Y0185946D02*
X0070202Y0181876D01*
X0071220Y0180859D01*
X0067177Y0180859D02*
X0067177Y0183911D01*
X0066160Y0184929D01*
X0063107Y0184929D01*
X0063107Y0180859D01*
X0061100Y0182894D02*
X0057030Y0182894D01*
X0057030Y0183911D02*
X0058048Y0184929D01*
X0060083Y0184929D01*
X0061100Y0183911D01*
X0061100Y0182894D01*
X0060083Y0180859D02*
X0058048Y0180859D01*
X0057030Y0181876D01*
X0057030Y0183911D01*
X0053996Y0184929D02*
X0053996Y0180859D01*
X0052979Y0180859D02*
X0055014Y0180859D01*
X0050962Y0180859D02*
X0048927Y0180859D01*
X0049945Y0180859D02*
X0049945Y0186964D01*
X0048927Y0186964D01*
X0046920Y0185946D02*
X0045903Y0186964D01*
X0043868Y0186964D01*
X0042850Y0185946D01*
X0042850Y0181876D01*
X0043868Y0180859D01*
X0045903Y0180859D01*
X0046920Y0181876D01*
X0052979Y0184929D02*
X0053996Y0184929D01*
X0053996Y0186964D02*
X0053996Y0187981D01*
X0097545Y0184929D02*
X0097545Y0180859D01*
X0182598Y0081965D02*
X0182598Y0078963D01*
X0180346Y0081215D01*
X0184850Y0081215D01*
X0184099Y0077361D02*
X0180346Y0077361D01*
X0180346Y0074359D02*
X0184099Y0074359D01*
X0184850Y0075109D01*
X0184850Y0076611D01*
X0184099Y0077361D01*
X0208072Y0069857D02*
X0247443Y0069857D01*
X0247443Y0037967D01*
X0208072Y0037967D01*
X0208072Y0069857D01*
D13*
X0210241Y0068755D02*
X0213310Y0068755D01*
X0214845Y0068755D02*
X0217147Y0068755D01*
X0217914Y0067988D01*
X0217914Y0066453D01*
X0217147Y0065686D01*
X0214845Y0065686D01*
X0216380Y0065686D02*
X0217914Y0064151D01*
X0219449Y0064918D02*
X0220216Y0064151D01*
X0221751Y0064151D01*
X0222518Y0064918D01*
X0222518Y0067988D01*
X0221751Y0068755D01*
X0220216Y0068755D01*
X0219449Y0067988D01*
X0219449Y0064918D01*
X0224053Y0064151D02*
X0224053Y0068755D01*
X0227122Y0064151D01*
X0227122Y0068755D01*
X0228657Y0068755D02*
X0231726Y0068755D01*
X0230191Y0068755D02*
X0230191Y0064151D01*
X0229900Y0070497D02*
X0225296Y0070497D01*
X0225296Y0073566D01*
X0225296Y0075101D02*
X0225296Y0077403D01*
X0226063Y0078170D01*
X0226831Y0078170D01*
X0227598Y0077403D01*
X0227598Y0075101D01*
X0227598Y0077403D02*
X0228365Y0078170D01*
X0229133Y0078170D01*
X0229900Y0077403D01*
X0229900Y0075101D01*
X0225296Y0075101D01*
X0227598Y0072031D02*
X0227598Y0070497D01*
X0226831Y0079705D02*
X0225296Y0081239D01*
X0229900Y0081239D01*
X0229900Y0079705D02*
X0229900Y0082774D01*
X0214845Y0068755D02*
X0214845Y0064151D01*
X0211776Y0066453D02*
X0210241Y0066453D01*
X0210241Y0064151D02*
X0210241Y0068755D01*
X0202400Y0070497D02*
X0197796Y0070497D01*
X0197796Y0073566D01*
X0197796Y0075101D02*
X0197796Y0077403D01*
X0198563Y0078170D01*
X0199331Y0078170D01*
X0200098Y0077403D01*
X0200098Y0075101D01*
X0200098Y0077403D02*
X0200865Y0078170D01*
X0201633Y0078170D01*
X0202400Y0077403D01*
X0202400Y0075101D01*
X0197796Y0075101D01*
X0200098Y0072031D02*
X0200098Y0070497D01*
X0198563Y0079705D02*
X0197796Y0080472D01*
X0197796Y0082007D01*
X0198563Y0082774D01*
X0199331Y0082774D01*
X0202400Y0079705D01*
X0202400Y0082774D01*
X0184133Y0108922D02*
X0181063Y0108922D01*
X0180296Y0109689D01*
X0180296Y0111224D01*
X0181063Y0111991D01*
X0181831Y0113526D02*
X0180296Y0115061D01*
X0184900Y0115061D01*
X0184900Y0116595D02*
X0184900Y0113526D01*
X0184133Y0111991D02*
X0184900Y0111224D01*
X0184900Y0109689D01*
X0184133Y0108922D01*
X0184133Y0118130D02*
X0182598Y0118130D01*
X0182598Y0120432D01*
X0183365Y0121199D01*
X0184133Y0121199D01*
X0184900Y0120432D01*
X0184900Y0118897D01*
X0184133Y0118130D01*
X0182598Y0118130D02*
X0181063Y0119665D01*
X0180296Y0121199D01*
X0183592Y0141809D02*
X0183592Y0146413D01*
X0186661Y0146413D01*
X0188196Y0144878D02*
X0189731Y0146413D01*
X0189731Y0141809D01*
X0191265Y0141809D02*
X0188196Y0141809D01*
X0185127Y0144111D02*
X0183592Y0144111D01*
X0227796Y0160628D02*
X0227796Y0162930D01*
X0228563Y0163697D01*
X0230098Y0163697D01*
X0230865Y0162930D01*
X0230865Y0160628D01*
X0230865Y0162162D02*
X0232400Y0163697D01*
X0232400Y0165231D02*
X0232400Y0168301D01*
X0232400Y0166766D02*
X0227796Y0166766D01*
X0229331Y0165231D01*
X0229331Y0169835D02*
X0228563Y0169835D01*
X0227796Y0170603D01*
X0227796Y0172137D01*
X0228563Y0172905D01*
X0229331Y0172905D01*
X0230098Y0172137D01*
X0230098Y0170603D01*
X0229331Y0169835D01*
X0230098Y0170603D02*
X0230865Y0169835D01*
X0231633Y0169835D01*
X0232400Y0170603D01*
X0232400Y0172137D01*
X0231633Y0172905D01*
X0230865Y0172905D01*
X0230098Y0172137D01*
X0232400Y0160628D02*
X0227796Y0160628D01*
X0242796Y0175607D02*
X0243563Y0174840D01*
X0246633Y0174840D01*
X0247400Y0175607D01*
X0247400Y0177142D01*
X0246633Y0177909D01*
X0247400Y0179444D02*
X0247400Y0182513D01*
X0247400Y0180979D02*
X0242796Y0180979D01*
X0244331Y0179444D01*
X0243563Y0177909D02*
X0242796Y0177142D01*
X0242796Y0175607D01*
X0242796Y0184048D02*
X0242796Y0187117D01*
X0243563Y0187117D01*
X0246633Y0184048D01*
X0247400Y0184048D01*
X0126258Y0176572D02*
X0123189Y0176572D01*
X0124724Y0176572D02*
X0124724Y0181176D01*
X0123189Y0179642D01*
X0120120Y0181176D02*
X0120120Y0176572D01*
X0121654Y0176572D02*
X0118585Y0176572D01*
X0117050Y0177340D02*
X0116283Y0176572D01*
X0114748Y0176572D01*
X0113981Y0177340D01*
X0113981Y0180409D01*
X0114748Y0181176D01*
X0116283Y0181176D01*
X0117050Y0180409D01*
X0118585Y0179642D02*
X0120120Y0181176D01*
X0120120Y0136176D02*
X0118585Y0134642D01*
X0117050Y0135409D02*
X0116283Y0136176D01*
X0114748Y0136176D01*
X0113981Y0135409D01*
X0113981Y0132340D01*
X0114748Y0131572D01*
X0116283Y0131572D01*
X0117050Y0132340D01*
X0118585Y0131572D02*
X0121654Y0131572D01*
X0120120Y0131572D02*
X0120120Y0136176D01*
X0123189Y0136176D02*
X0123189Y0133874D01*
X0124724Y0134642D01*
X0125491Y0134642D01*
X0126258Y0133874D01*
X0126258Y0132340D01*
X0125491Y0131572D01*
X0123956Y0131572D01*
X0123189Y0132340D01*
X0123189Y0136176D02*
X0126258Y0136176D01*
X0072052Y0170809D02*
X0068582Y0170809D01*
X0066871Y0170809D02*
X0066004Y0170809D01*
X0066004Y0171676D01*
X0066871Y0171676D01*
X0066871Y0170809D01*
X0064317Y0171676D02*
X0063450Y0170809D01*
X0061715Y0170809D01*
X0060847Y0171676D01*
X0064317Y0175146D01*
X0064317Y0171676D01*
X0060847Y0171676D02*
X0060847Y0175146D01*
X0061715Y0176013D01*
X0063450Y0176013D01*
X0064317Y0175146D01*
X0068582Y0174278D02*
X0070317Y0176013D01*
X0070317Y0170809D01*
X0059137Y0170809D02*
X0058269Y0170809D01*
X0058269Y0171676D01*
X0059137Y0171676D01*
X0059137Y0170809D01*
X0054848Y0170809D02*
X0056582Y0174278D01*
X0053113Y0174278D02*
X0054848Y0170809D01*
X0051426Y0172543D02*
X0047956Y0172543D01*
X0047956Y0171676D02*
X0047956Y0173411D01*
X0048824Y0174278D01*
X0050559Y0174278D01*
X0051426Y0173411D01*
X0051426Y0172543D01*
X0050559Y0170809D02*
X0048824Y0170809D01*
X0047956Y0171676D01*
X0046270Y0170809D02*
X0044535Y0172543D01*
X0045402Y0172543D02*
X0042800Y0172543D01*
X0042800Y0170809D02*
X0042800Y0176013D01*
X0045402Y0176013D01*
X0046270Y0175146D01*
X0046270Y0173411D01*
X0045402Y0172543D01*
X0248196Y0057224D02*
X0248196Y0055489D01*
X0249063Y0054621D01*
X0252533Y0054621D01*
X0253400Y0055489D01*
X0253400Y0057224D01*
X0252533Y0058091D01*
X0249063Y0058091D02*
X0248196Y0057224D01*
X0249063Y0052935D02*
X0248196Y0052067D01*
X0248196Y0050332D01*
X0249063Y0049465D01*
X0252533Y0049465D01*
X0253400Y0050332D01*
X0253400Y0052067D01*
X0252533Y0052935D01*
X0251665Y0047778D02*
X0248196Y0047778D01*
X0251665Y0047778D02*
X0253400Y0046043D01*
X0251665Y0044309D01*
X0248196Y0044309D01*
D14*
X0244332Y0029782D02*
X0244332Y0028782D01*
X0244332Y0007782D02*
X0244332Y0006782D01*
X0244332Y0198908D02*
X0244332Y0199908D01*
X0244332Y0220908D02*
X0244332Y0221908D01*
X0016773Y0221908D02*
X0016773Y0220908D01*
X0016773Y0199908D02*
X0016773Y0198908D01*
X0016773Y0029782D02*
X0016773Y0028782D01*
X0016773Y0007782D02*
X0016773Y0006782D01*
D15*
X0005273Y0018282D02*
X0005276Y0018564D01*
X0005287Y0018846D01*
X0005304Y0019128D01*
X0005328Y0019409D01*
X0005359Y0019690D01*
X0005397Y0019969D01*
X0005442Y0020248D01*
X0005494Y0020526D01*
X0005552Y0020802D01*
X0005618Y0021076D01*
X0005690Y0021349D01*
X0005768Y0021620D01*
X0005853Y0021889D01*
X0005945Y0022156D01*
X0006044Y0022421D01*
X0006148Y0022683D01*
X0006260Y0022942D01*
X0006377Y0023199D01*
X0006501Y0023453D01*
X0006631Y0023703D01*
X0006767Y0023950D01*
X0006909Y0024194D01*
X0007057Y0024434D01*
X0007211Y0024671D01*
X0007371Y0024904D01*
X0007536Y0025133D01*
X0007707Y0025357D01*
X0007883Y0025578D01*
X0008065Y0025793D01*
X0008252Y0026005D01*
X0008444Y0026212D01*
X0008641Y0026414D01*
X0008843Y0026611D01*
X0009050Y0026803D01*
X0009262Y0026990D01*
X0009477Y0027172D01*
X0009698Y0027348D01*
X0009922Y0027519D01*
X0010151Y0027684D01*
X0010384Y0027844D01*
X0010621Y0027998D01*
X0010861Y0028146D01*
X0011105Y0028288D01*
X0011352Y0028424D01*
X0011602Y0028554D01*
X0011856Y0028678D01*
X0012113Y0028795D01*
X0012372Y0028907D01*
X0012634Y0029011D01*
X0012899Y0029110D01*
X0013166Y0029202D01*
X0013435Y0029287D01*
X0013706Y0029365D01*
X0013979Y0029437D01*
X0014253Y0029503D01*
X0014529Y0029561D01*
X0014807Y0029613D01*
X0015086Y0029658D01*
X0015365Y0029696D01*
X0015646Y0029727D01*
X0015927Y0029751D01*
X0016209Y0029768D01*
X0016491Y0029779D01*
X0016773Y0029782D01*
X0017055Y0029779D01*
X0017337Y0029768D01*
X0017619Y0029751D01*
X0017900Y0029727D01*
X0018181Y0029696D01*
X0018460Y0029658D01*
X0018739Y0029613D01*
X0019017Y0029561D01*
X0019293Y0029503D01*
X0019567Y0029437D01*
X0019840Y0029365D01*
X0020111Y0029287D01*
X0020380Y0029202D01*
X0020647Y0029110D01*
X0020912Y0029011D01*
X0021174Y0028907D01*
X0021433Y0028795D01*
X0021690Y0028678D01*
X0021944Y0028554D01*
X0022194Y0028424D01*
X0022441Y0028288D01*
X0022685Y0028146D01*
X0022925Y0027998D01*
X0023162Y0027844D01*
X0023395Y0027684D01*
X0023624Y0027519D01*
X0023848Y0027348D01*
X0024069Y0027172D01*
X0024284Y0026990D01*
X0024496Y0026803D01*
X0024703Y0026611D01*
X0024905Y0026414D01*
X0025102Y0026212D01*
X0025294Y0026005D01*
X0025481Y0025793D01*
X0025663Y0025578D01*
X0025839Y0025357D01*
X0026010Y0025133D01*
X0026175Y0024904D01*
X0026335Y0024671D01*
X0026489Y0024434D01*
X0026637Y0024194D01*
X0026779Y0023950D01*
X0026915Y0023703D01*
X0027045Y0023453D01*
X0027169Y0023199D01*
X0027286Y0022942D01*
X0027398Y0022683D01*
X0027502Y0022421D01*
X0027601Y0022156D01*
X0027693Y0021889D01*
X0027778Y0021620D01*
X0027856Y0021349D01*
X0027928Y0021076D01*
X0027994Y0020802D01*
X0028052Y0020526D01*
X0028104Y0020248D01*
X0028149Y0019969D01*
X0028187Y0019690D01*
X0028218Y0019409D01*
X0028242Y0019128D01*
X0028259Y0018846D01*
X0028270Y0018564D01*
X0028273Y0018282D01*
X0028270Y0018000D01*
X0028259Y0017718D01*
X0028242Y0017436D01*
X0028218Y0017155D01*
X0028187Y0016874D01*
X0028149Y0016595D01*
X0028104Y0016316D01*
X0028052Y0016038D01*
X0027994Y0015762D01*
X0027928Y0015488D01*
X0027856Y0015215D01*
X0027778Y0014944D01*
X0027693Y0014675D01*
X0027601Y0014408D01*
X0027502Y0014143D01*
X0027398Y0013881D01*
X0027286Y0013622D01*
X0027169Y0013365D01*
X0027045Y0013111D01*
X0026915Y0012861D01*
X0026779Y0012614D01*
X0026637Y0012370D01*
X0026489Y0012130D01*
X0026335Y0011893D01*
X0026175Y0011660D01*
X0026010Y0011431D01*
X0025839Y0011207D01*
X0025663Y0010986D01*
X0025481Y0010771D01*
X0025294Y0010559D01*
X0025102Y0010352D01*
X0024905Y0010150D01*
X0024703Y0009953D01*
X0024496Y0009761D01*
X0024284Y0009574D01*
X0024069Y0009392D01*
X0023848Y0009216D01*
X0023624Y0009045D01*
X0023395Y0008880D01*
X0023162Y0008720D01*
X0022925Y0008566D01*
X0022685Y0008418D01*
X0022441Y0008276D01*
X0022194Y0008140D01*
X0021944Y0008010D01*
X0021690Y0007886D01*
X0021433Y0007769D01*
X0021174Y0007657D01*
X0020912Y0007553D01*
X0020647Y0007454D01*
X0020380Y0007362D01*
X0020111Y0007277D01*
X0019840Y0007199D01*
X0019567Y0007127D01*
X0019293Y0007061D01*
X0019017Y0007003D01*
X0018739Y0006951D01*
X0018460Y0006906D01*
X0018181Y0006868D01*
X0017900Y0006837D01*
X0017619Y0006813D01*
X0017337Y0006796D01*
X0017055Y0006785D01*
X0016773Y0006782D01*
X0016491Y0006785D01*
X0016209Y0006796D01*
X0015927Y0006813D01*
X0015646Y0006837D01*
X0015365Y0006868D01*
X0015086Y0006906D01*
X0014807Y0006951D01*
X0014529Y0007003D01*
X0014253Y0007061D01*
X0013979Y0007127D01*
X0013706Y0007199D01*
X0013435Y0007277D01*
X0013166Y0007362D01*
X0012899Y0007454D01*
X0012634Y0007553D01*
X0012372Y0007657D01*
X0012113Y0007769D01*
X0011856Y0007886D01*
X0011602Y0008010D01*
X0011352Y0008140D01*
X0011105Y0008276D01*
X0010861Y0008418D01*
X0010621Y0008566D01*
X0010384Y0008720D01*
X0010151Y0008880D01*
X0009922Y0009045D01*
X0009698Y0009216D01*
X0009477Y0009392D01*
X0009262Y0009574D01*
X0009050Y0009761D01*
X0008843Y0009953D01*
X0008641Y0010150D01*
X0008444Y0010352D01*
X0008252Y0010559D01*
X0008065Y0010771D01*
X0007883Y0010986D01*
X0007707Y0011207D01*
X0007536Y0011431D01*
X0007371Y0011660D01*
X0007211Y0011893D01*
X0007057Y0012130D01*
X0006909Y0012370D01*
X0006767Y0012614D01*
X0006631Y0012861D01*
X0006501Y0013111D01*
X0006377Y0013365D01*
X0006260Y0013622D01*
X0006148Y0013881D01*
X0006044Y0014143D01*
X0005945Y0014408D01*
X0005853Y0014675D01*
X0005768Y0014944D01*
X0005690Y0015215D01*
X0005618Y0015488D01*
X0005552Y0015762D01*
X0005494Y0016038D01*
X0005442Y0016316D01*
X0005397Y0016595D01*
X0005359Y0016874D01*
X0005328Y0017155D01*
X0005304Y0017436D01*
X0005287Y0017718D01*
X0005276Y0018000D01*
X0005273Y0018282D01*
X0060100Y0119109D02*
X0057600Y0121609D01*
X0057600Y0136609D01*
X0060100Y0139109D01*
X0065100Y0139109D01*
X0067600Y0136609D01*
X0067600Y0121609D01*
X0065100Y0119109D01*
X0060100Y0119109D01*
X0067600Y0121609D02*
X0070100Y0119109D01*
X0075100Y0119109D01*
X0077600Y0121609D01*
X0077600Y0136609D01*
X0075100Y0139109D01*
X0070100Y0139109D01*
X0067600Y0136609D01*
X0077600Y0136609D02*
X0080100Y0139109D01*
X0085100Y0139109D01*
X0087600Y0136609D01*
X0087600Y0121609D01*
X0085100Y0119109D01*
X0080100Y0119109D01*
X0077600Y0121609D01*
X0005273Y0210408D02*
X0005276Y0210690D01*
X0005287Y0210972D01*
X0005304Y0211254D01*
X0005328Y0211535D01*
X0005359Y0211816D01*
X0005397Y0212095D01*
X0005442Y0212374D01*
X0005494Y0212652D01*
X0005552Y0212928D01*
X0005618Y0213202D01*
X0005690Y0213475D01*
X0005768Y0213746D01*
X0005853Y0214015D01*
X0005945Y0214282D01*
X0006044Y0214547D01*
X0006148Y0214809D01*
X0006260Y0215068D01*
X0006377Y0215325D01*
X0006501Y0215579D01*
X0006631Y0215829D01*
X0006767Y0216076D01*
X0006909Y0216320D01*
X0007057Y0216560D01*
X0007211Y0216797D01*
X0007371Y0217030D01*
X0007536Y0217259D01*
X0007707Y0217483D01*
X0007883Y0217704D01*
X0008065Y0217919D01*
X0008252Y0218131D01*
X0008444Y0218338D01*
X0008641Y0218540D01*
X0008843Y0218737D01*
X0009050Y0218929D01*
X0009262Y0219116D01*
X0009477Y0219298D01*
X0009698Y0219474D01*
X0009922Y0219645D01*
X0010151Y0219810D01*
X0010384Y0219970D01*
X0010621Y0220124D01*
X0010861Y0220272D01*
X0011105Y0220414D01*
X0011352Y0220550D01*
X0011602Y0220680D01*
X0011856Y0220804D01*
X0012113Y0220921D01*
X0012372Y0221033D01*
X0012634Y0221137D01*
X0012899Y0221236D01*
X0013166Y0221328D01*
X0013435Y0221413D01*
X0013706Y0221491D01*
X0013979Y0221563D01*
X0014253Y0221629D01*
X0014529Y0221687D01*
X0014807Y0221739D01*
X0015086Y0221784D01*
X0015365Y0221822D01*
X0015646Y0221853D01*
X0015927Y0221877D01*
X0016209Y0221894D01*
X0016491Y0221905D01*
X0016773Y0221908D01*
X0017055Y0221905D01*
X0017337Y0221894D01*
X0017619Y0221877D01*
X0017900Y0221853D01*
X0018181Y0221822D01*
X0018460Y0221784D01*
X0018739Y0221739D01*
X0019017Y0221687D01*
X0019293Y0221629D01*
X0019567Y0221563D01*
X0019840Y0221491D01*
X0020111Y0221413D01*
X0020380Y0221328D01*
X0020647Y0221236D01*
X0020912Y0221137D01*
X0021174Y0221033D01*
X0021433Y0220921D01*
X0021690Y0220804D01*
X0021944Y0220680D01*
X0022194Y0220550D01*
X0022441Y0220414D01*
X0022685Y0220272D01*
X0022925Y0220124D01*
X0023162Y0219970D01*
X0023395Y0219810D01*
X0023624Y0219645D01*
X0023848Y0219474D01*
X0024069Y0219298D01*
X0024284Y0219116D01*
X0024496Y0218929D01*
X0024703Y0218737D01*
X0024905Y0218540D01*
X0025102Y0218338D01*
X0025294Y0218131D01*
X0025481Y0217919D01*
X0025663Y0217704D01*
X0025839Y0217483D01*
X0026010Y0217259D01*
X0026175Y0217030D01*
X0026335Y0216797D01*
X0026489Y0216560D01*
X0026637Y0216320D01*
X0026779Y0216076D01*
X0026915Y0215829D01*
X0027045Y0215579D01*
X0027169Y0215325D01*
X0027286Y0215068D01*
X0027398Y0214809D01*
X0027502Y0214547D01*
X0027601Y0214282D01*
X0027693Y0214015D01*
X0027778Y0213746D01*
X0027856Y0213475D01*
X0027928Y0213202D01*
X0027994Y0212928D01*
X0028052Y0212652D01*
X0028104Y0212374D01*
X0028149Y0212095D01*
X0028187Y0211816D01*
X0028218Y0211535D01*
X0028242Y0211254D01*
X0028259Y0210972D01*
X0028270Y0210690D01*
X0028273Y0210408D01*
X0028270Y0210126D01*
X0028259Y0209844D01*
X0028242Y0209562D01*
X0028218Y0209281D01*
X0028187Y0209000D01*
X0028149Y0208721D01*
X0028104Y0208442D01*
X0028052Y0208164D01*
X0027994Y0207888D01*
X0027928Y0207614D01*
X0027856Y0207341D01*
X0027778Y0207070D01*
X0027693Y0206801D01*
X0027601Y0206534D01*
X0027502Y0206269D01*
X0027398Y0206007D01*
X0027286Y0205748D01*
X0027169Y0205491D01*
X0027045Y0205237D01*
X0026915Y0204987D01*
X0026779Y0204740D01*
X0026637Y0204496D01*
X0026489Y0204256D01*
X0026335Y0204019D01*
X0026175Y0203786D01*
X0026010Y0203557D01*
X0025839Y0203333D01*
X0025663Y0203112D01*
X0025481Y0202897D01*
X0025294Y0202685D01*
X0025102Y0202478D01*
X0024905Y0202276D01*
X0024703Y0202079D01*
X0024496Y0201887D01*
X0024284Y0201700D01*
X0024069Y0201518D01*
X0023848Y0201342D01*
X0023624Y0201171D01*
X0023395Y0201006D01*
X0023162Y0200846D01*
X0022925Y0200692D01*
X0022685Y0200544D01*
X0022441Y0200402D01*
X0022194Y0200266D01*
X0021944Y0200136D01*
X0021690Y0200012D01*
X0021433Y0199895D01*
X0021174Y0199783D01*
X0020912Y0199679D01*
X0020647Y0199580D01*
X0020380Y0199488D01*
X0020111Y0199403D01*
X0019840Y0199325D01*
X0019567Y0199253D01*
X0019293Y0199187D01*
X0019017Y0199129D01*
X0018739Y0199077D01*
X0018460Y0199032D01*
X0018181Y0198994D01*
X0017900Y0198963D01*
X0017619Y0198939D01*
X0017337Y0198922D01*
X0017055Y0198911D01*
X0016773Y0198908D01*
X0016491Y0198911D01*
X0016209Y0198922D01*
X0015927Y0198939D01*
X0015646Y0198963D01*
X0015365Y0198994D01*
X0015086Y0199032D01*
X0014807Y0199077D01*
X0014529Y0199129D01*
X0014253Y0199187D01*
X0013979Y0199253D01*
X0013706Y0199325D01*
X0013435Y0199403D01*
X0013166Y0199488D01*
X0012899Y0199580D01*
X0012634Y0199679D01*
X0012372Y0199783D01*
X0012113Y0199895D01*
X0011856Y0200012D01*
X0011602Y0200136D01*
X0011352Y0200266D01*
X0011105Y0200402D01*
X0010861Y0200544D01*
X0010621Y0200692D01*
X0010384Y0200846D01*
X0010151Y0201006D01*
X0009922Y0201171D01*
X0009698Y0201342D01*
X0009477Y0201518D01*
X0009262Y0201700D01*
X0009050Y0201887D01*
X0008843Y0202079D01*
X0008641Y0202276D01*
X0008444Y0202478D01*
X0008252Y0202685D01*
X0008065Y0202897D01*
X0007883Y0203112D01*
X0007707Y0203333D01*
X0007536Y0203557D01*
X0007371Y0203786D01*
X0007211Y0204019D01*
X0007057Y0204256D01*
X0006909Y0204496D01*
X0006767Y0204740D01*
X0006631Y0204987D01*
X0006501Y0205237D01*
X0006377Y0205491D01*
X0006260Y0205748D01*
X0006148Y0206007D01*
X0006044Y0206269D01*
X0005945Y0206534D01*
X0005853Y0206801D01*
X0005768Y0207070D01*
X0005690Y0207341D01*
X0005618Y0207614D01*
X0005552Y0207888D01*
X0005494Y0208164D01*
X0005442Y0208442D01*
X0005397Y0208721D01*
X0005359Y0209000D01*
X0005328Y0209281D01*
X0005304Y0209562D01*
X0005287Y0209844D01*
X0005276Y0210126D01*
X0005273Y0210408D01*
X0177600Y0066609D02*
X0177600Y0061609D01*
X0180100Y0059109D01*
X0195100Y0059109D01*
X0197600Y0061609D01*
X0197600Y0066609D01*
X0195100Y0069109D01*
X0180100Y0069109D01*
X0177600Y0066609D01*
X0180100Y0059109D02*
X0177600Y0056609D01*
X0177600Y0051609D01*
X0180100Y0049109D01*
X0195100Y0049109D01*
X0197600Y0051609D01*
X0197600Y0056609D01*
X0195100Y0059109D01*
X0195100Y0049109D02*
X0197600Y0046609D01*
X0197600Y0041609D01*
X0195100Y0039109D01*
X0180100Y0039109D01*
X0177600Y0041609D01*
X0177600Y0046609D01*
X0180100Y0049109D01*
X0232832Y0018282D02*
X0232835Y0018564D01*
X0232846Y0018846D01*
X0232863Y0019128D01*
X0232887Y0019409D01*
X0232918Y0019690D01*
X0232956Y0019969D01*
X0233001Y0020248D01*
X0233053Y0020526D01*
X0233111Y0020802D01*
X0233177Y0021076D01*
X0233249Y0021349D01*
X0233327Y0021620D01*
X0233412Y0021889D01*
X0233504Y0022156D01*
X0233603Y0022421D01*
X0233707Y0022683D01*
X0233819Y0022942D01*
X0233936Y0023199D01*
X0234060Y0023453D01*
X0234190Y0023703D01*
X0234326Y0023950D01*
X0234468Y0024194D01*
X0234616Y0024434D01*
X0234770Y0024671D01*
X0234930Y0024904D01*
X0235095Y0025133D01*
X0235266Y0025357D01*
X0235442Y0025578D01*
X0235624Y0025793D01*
X0235811Y0026005D01*
X0236003Y0026212D01*
X0236200Y0026414D01*
X0236402Y0026611D01*
X0236609Y0026803D01*
X0236821Y0026990D01*
X0237036Y0027172D01*
X0237257Y0027348D01*
X0237481Y0027519D01*
X0237710Y0027684D01*
X0237943Y0027844D01*
X0238180Y0027998D01*
X0238420Y0028146D01*
X0238664Y0028288D01*
X0238911Y0028424D01*
X0239161Y0028554D01*
X0239415Y0028678D01*
X0239672Y0028795D01*
X0239931Y0028907D01*
X0240193Y0029011D01*
X0240458Y0029110D01*
X0240725Y0029202D01*
X0240994Y0029287D01*
X0241265Y0029365D01*
X0241538Y0029437D01*
X0241812Y0029503D01*
X0242088Y0029561D01*
X0242366Y0029613D01*
X0242645Y0029658D01*
X0242924Y0029696D01*
X0243205Y0029727D01*
X0243486Y0029751D01*
X0243768Y0029768D01*
X0244050Y0029779D01*
X0244332Y0029782D01*
X0244614Y0029779D01*
X0244896Y0029768D01*
X0245178Y0029751D01*
X0245459Y0029727D01*
X0245740Y0029696D01*
X0246019Y0029658D01*
X0246298Y0029613D01*
X0246576Y0029561D01*
X0246852Y0029503D01*
X0247126Y0029437D01*
X0247399Y0029365D01*
X0247670Y0029287D01*
X0247939Y0029202D01*
X0248206Y0029110D01*
X0248471Y0029011D01*
X0248733Y0028907D01*
X0248992Y0028795D01*
X0249249Y0028678D01*
X0249503Y0028554D01*
X0249753Y0028424D01*
X0250000Y0028288D01*
X0250244Y0028146D01*
X0250484Y0027998D01*
X0250721Y0027844D01*
X0250954Y0027684D01*
X0251183Y0027519D01*
X0251407Y0027348D01*
X0251628Y0027172D01*
X0251843Y0026990D01*
X0252055Y0026803D01*
X0252262Y0026611D01*
X0252464Y0026414D01*
X0252661Y0026212D01*
X0252853Y0026005D01*
X0253040Y0025793D01*
X0253222Y0025578D01*
X0253398Y0025357D01*
X0253569Y0025133D01*
X0253734Y0024904D01*
X0253894Y0024671D01*
X0254048Y0024434D01*
X0254196Y0024194D01*
X0254338Y0023950D01*
X0254474Y0023703D01*
X0254604Y0023453D01*
X0254728Y0023199D01*
X0254845Y0022942D01*
X0254957Y0022683D01*
X0255061Y0022421D01*
X0255160Y0022156D01*
X0255252Y0021889D01*
X0255337Y0021620D01*
X0255415Y0021349D01*
X0255487Y0021076D01*
X0255553Y0020802D01*
X0255611Y0020526D01*
X0255663Y0020248D01*
X0255708Y0019969D01*
X0255746Y0019690D01*
X0255777Y0019409D01*
X0255801Y0019128D01*
X0255818Y0018846D01*
X0255829Y0018564D01*
X0255832Y0018282D01*
X0255829Y0018000D01*
X0255818Y0017718D01*
X0255801Y0017436D01*
X0255777Y0017155D01*
X0255746Y0016874D01*
X0255708Y0016595D01*
X0255663Y0016316D01*
X0255611Y0016038D01*
X0255553Y0015762D01*
X0255487Y0015488D01*
X0255415Y0015215D01*
X0255337Y0014944D01*
X0255252Y0014675D01*
X0255160Y0014408D01*
X0255061Y0014143D01*
X0254957Y0013881D01*
X0254845Y0013622D01*
X0254728Y0013365D01*
X0254604Y0013111D01*
X0254474Y0012861D01*
X0254338Y0012614D01*
X0254196Y0012370D01*
X0254048Y0012130D01*
X0253894Y0011893D01*
X0253734Y0011660D01*
X0253569Y0011431D01*
X0253398Y0011207D01*
X0253222Y0010986D01*
X0253040Y0010771D01*
X0252853Y0010559D01*
X0252661Y0010352D01*
X0252464Y0010150D01*
X0252262Y0009953D01*
X0252055Y0009761D01*
X0251843Y0009574D01*
X0251628Y0009392D01*
X0251407Y0009216D01*
X0251183Y0009045D01*
X0250954Y0008880D01*
X0250721Y0008720D01*
X0250484Y0008566D01*
X0250244Y0008418D01*
X0250000Y0008276D01*
X0249753Y0008140D01*
X0249503Y0008010D01*
X0249249Y0007886D01*
X0248992Y0007769D01*
X0248733Y0007657D01*
X0248471Y0007553D01*
X0248206Y0007454D01*
X0247939Y0007362D01*
X0247670Y0007277D01*
X0247399Y0007199D01*
X0247126Y0007127D01*
X0246852Y0007061D01*
X0246576Y0007003D01*
X0246298Y0006951D01*
X0246019Y0006906D01*
X0245740Y0006868D01*
X0245459Y0006837D01*
X0245178Y0006813D01*
X0244896Y0006796D01*
X0244614Y0006785D01*
X0244332Y0006782D01*
X0244050Y0006785D01*
X0243768Y0006796D01*
X0243486Y0006813D01*
X0243205Y0006837D01*
X0242924Y0006868D01*
X0242645Y0006906D01*
X0242366Y0006951D01*
X0242088Y0007003D01*
X0241812Y0007061D01*
X0241538Y0007127D01*
X0241265Y0007199D01*
X0240994Y0007277D01*
X0240725Y0007362D01*
X0240458Y0007454D01*
X0240193Y0007553D01*
X0239931Y0007657D01*
X0239672Y0007769D01*
X0239415Y0007886D01*
X0239161Y0008010D01*
X0238911Y0008140D01*
X0238664Y0008276D01*
X0238420Y0008418D01*
X0238180Y0008566D01*
X0237943Y0008720D01*
X0237710Y0008880D01*
X0237481Y0009045D01*
X0237257Y0009216D01*
X0237036Y0009392D01*
X0236821Y0009574D01*
X0236609Y0009761D01*
X0236402Y0009953D01*
X0236200Y0010150D01*
X0236003Y0010352D01*
X0235811Y0010559D01*
X0235624Y0010771D01*
X0235442Y0010986D01*
X0235266Y0011207D01*
X0235095Y0011431D01*
X0234930Y0011660D01*
X0234770Y0011893D01*
X0234616Y0012130D01*
X0234468Y0012370D01*
X0234326Y0012614D01*
X0234190Y0012861D01*
X0234060Y0013111D01*
X0233936Y0013365D01*
X0233819Y0013622D01*
X0233707Y0013881D01*
X0233603Y0014143D01*
X0233504Y0014408D01*
X0233412Y0014675D01*
X0233327Y0014944D01*
X0233249Y0015215D01*
X0233177Y0015488D01*
X0233111Y0015762D01*
X0233053Y0016038D01*
X0233001Y0016316D01*
X0232956Y0016595D01*
X0232918Y0016874D01*
X0232887Y0017155D01*
X0232863Y0017436D01*
X0232846Y0017718D01*
X0232835Y0018000D01*
X0232832Y0018282D01*
X0232832Y0210408D02*
X0232835Y0210690D01*
X0232846Y0210972D01*
X0232863Y0211254D01*
X0232887Y0211535D01*
X0232918Y0211816D01*
X0232956Y0212095D01*
X0233001Y0212374D01*
X0233053Y0212652D01*
X0233111Y0212928D01*
X0233177Y0213202D01*
X0233249Y0213475D01*
X0233327Y0213746D01*
X0233412Y0214015D01*
X0233504Y0214282D01*
X0233603Y0214547D01*
X0233707Y0214809D01*
X0233819Y0215068D01*
X0233936Y0215325D01*
X0234060Y0215579D01*
X0234190Y0215829D01*
X0234326Y0216076D01*
X0234468Y0216320D01*
X0234616Y0216560D01*
X0234770Y0216797D01*
X0234930Y0217030D01*
X0235095Y0217259D01*
X0235266Y0217483D01*
X0235442Y0217704D01*
X0235624Y0217919D01*
X0235811Y0218131D01*
X0236003Y0218338D01*
X0236200Y0218540D01*
X0236402Y0218737D01*
X0236609Y0218929D01*
X0236821Y0219116D01*
X0237036Y0219298D01*
X0237257Y0219474D01*
X0237481Y0219645D01*
X0237710Y0219810D01*
X0237943Y0219970D01*
X0238180Y0220124D01*
X0238420Y0220272D01*
X0238664Y0220414D01*
X0238911Y0220550D01*
X0239161Y0220680D01*
X0239415Y0220804D01*
X0239672Y0220921D01*
X0239931Y0221033D01*
X0240193Y0221137D01*
X0240458Y0221236D01*
X0240725Y0221328D01*
X0240994Y0221413D01*
X0241265Y0221491D01*
X0241538Y0221563D01*
X0241812Y0221629D01*
X0242088Y0221687D01*
X0242366Y0221739D01*
X0242645Y0221784D01*
X0242924Y0221822D01*
X0243205Y0221853D01*
X0243486Y0221877D01*
X0243768Y0221894D01*
X0244050Y0221905D01*
X0244332Y0221908D01*
X0244614Y0221905D01*
X0244896Y0221894D01*
X0245178Y0221877D01*
X0245459Y0221853D01*
X0245740Y0221822D01*
X0246019Y0221784D01*
X0246298Y0221739D01*
X0246576Y0221687D01*
X0246852Y0221629D01*
X0247126Y0221563D01*
X0247399Y0221491D01*
X0247670Y0221413D01*
X0247939Y0221328D01*
X0248206Y0221236D01*
X0248471Y0221137D01*
X0248733Y0221033D01*
X0248992Y0220921D01*
X0249249Y0220804D01*
X0249503Y0220680D01*
X0249753Y0220550D01*
X0250000Y0220414D01*
X0250244Y0220272D01*
X0250484Y0220124D01*
X0250721Y0219970D01*
X0250954Y0219810D01*
X0251183Y0219645D01*
X0251407Y0219474D01*
X0251628Y0219298D01*
X0251843Y0219116D01*
X0252055Y0218929D01*
X0252262Y0218737D01*
X0252464Y0218540D01*
X0252661Y0218338D01*
X0252853Y0218131D01*
X0253040Y0217919D01*
X0253222Y0217704D01*
X0253398Y0217483D01*
X0253569Y0217259D01*
X0253734Y0217030D01*
X0253894Y0216797D01*
X0254048Y0216560D01*
X0254196Y0216320D01*
X0254338Y0216076D01*
X0254474Y0215829D01*
X0254604Y0215579D01*
X0254728Y0215325D01*
X0254845Y0215068D01*
X0254957Y0214809D01*
X0255061Y0214547D01*
X0255160Y0214282D01*
X0255252Y0214015D01*
X0255337Y0213746D01*
X0255415Y0213475D01*
X0255487Y0213202D01*
X0255553Y0212928D01*
X0255611Y0212652D01*
X0255663Y0212374D01*
X0255708Y0212095D01*
X0255746Y0211816D01*
X0255777Y0211535D01*
X0255801Y0211254D01*
X0255818Y0210972D01*
X0255829Y0210690D01*
X0255832Y0210408D01*
X0255829Y0210126D01*
X0255818Y0209844D01*
X0255801Y0209562D01*
X0255777Y0209281D01*
X0255746Y0209000D01*
X0255708Y0208721D01*
X0255663Y0208442D01*
X0255611Y0208164D01*
X0255553Y0207888D01*
X0255487Y0207614D01*
X0255415Y0207341D01*
X0255337Y0207070D01*
X0255252Y0206801D01*
X0255160Y0206534D01*
X0255061Y0206269D01*
X0254957Y0206007D01*
X0254845Y0205748D01*
X0254728Y0205491D01*
X0254604Y0205237D01*
X0254474Y0204987D01*
X0254338Y0204740D01*
X0254196Y0204496D01*
X0254048Y0204256D01*
X0253894Y0204019D01*
X0253734Y0203786D01*
X0253569Y0203557D01*
X0253398Y0203333D01*
X0253222Y0203112D01*
X0253040Y0202897D01*
X0252853Y0202685D01*
X0252661Y0202478D01*
X0252464Y0202276D01*
X0252262Y0202079D01*
X0252055Y0201887D01*
X0251843Y0201700D01*
X0251628Y0201518D01*
X0251407Y0201342D01*
X0251183Y0201171D01*
X0250954Y0201006D01*
X0250721Y0200846D01*
X0250484Y0200692D01*
X0250244Y0200544D01*
X0250000Y0200402D01*
X0249753Y0200266D01*
X0249503Y0200136D01*
X0249249Y0200012D01*
X0248992Y0199895D01*
X0248733Y0199783D01*
X0248471Y0199679D01*
X0248206Y0199580D01*
X0247939Y0199488D01*
X0247670Y0199403D01*
X0247399Y0199325D01*
X0247126Y0199253D01*
X0246852Y0199187D01*
X0246576Y0199129D01*
X0246298Y0199077D01*
X0246019Y0199032D01*
X0245740Y0198994D01*
X0245459Y0198963D01*
X0245178Y0198939D01*
X0244896Y0198922D01*
X0244614Y0198911D01*
X0244332Y0198908D01*
X0244050Y0198911D01*
X0243768Y0198922D01*
X0243486Y0198939D01*
X0243205Y0198963D01*
X0242924Y0198994D01*
X0242645Y0199032D01*
X0242366Y0199077D01*
X0242088Y0199129D01*
X0241812Y0199187D01*
X0241538Y0199253D01*
X0241265Y0199325D01*
X0240994Y0199403D01*
X0240725Y0199488D01*
X0240458Y0199580D01*
X0240193Y0199679D01*
X0239931Y0199783D01*
X0239672Y0199895D01*
X0239415Y0200012D01*
X0239161Y0200136D01*
X0238911Y0200266D01*
X0238664Y0200402D01*
X0238420Y0200544D01*
X0238180Y0200692D01*
X0237943Y0200846D01*
X0237710Y0201006D01*
X0237481Y0201171D01*
X0237257Y0201342D01*
X0237036Y0201518D01*
X0236821Y0201700D01*
X0236609Y0201887D01*
X0236402Y0202079D01*
X0236200Y0202276D01*
X0236003Y0202478D01*
X0235811Y0202685D01*
X0235624Y0202897D01*
X0235442Y0203112D01*
X0235266Y0203333D01*
X0235095Y0203557D01*
X0234930Y0203786D01*
X0234770Y0204019D01*
X0234616Y0204256D01*
X0234468Y0204496D01*
X0234326Y0204740D01*
X0234190Y0204987D01*
X0234060Y0205237D01*
X0233936Y0205491D01*
X0233819Y0205748D01*
X0233707Y0206007D01*
X0233603Y0206269D01*
X0233504Y0206534D01*
X0233412Y0206801D01*
X0233327Y0207070D01*
X0233249Y0207341D01*
X0233177Y0207614D01*
X0233111Y0207888D01*
X0233053Y0208164D01*
X0233001Y0208442D01*
X0232956Y0208721D01*
X0232918Y0209000D01*
X0232887Y0209281D01*
X0232863Y0209562D01*
X0232846Y0209844D01*
X0232835Y0210126D01*
X0232832Y0210408D01*
D16*
X0245769Y0158715D02*
X0204431Y0158715D01*
X0204307Y0158713D01*
X0204184Y0158707D01*
X0204060Y0158698D01*
X0203938Y0158684D01*
X0203815Y0158667D01*
X0203693Y0158645D01*
X0203572Y0158620D01*
X0203452Y0158591D01*
X0203333Y0158559D01*
X0203214Y0158522D01*
X0203097Y0158482D01*
X0202982Y0158439D01*
X0202867Y0158391D01*
X0202755Y0158340D01*
X0202644Y0158286D01*
X0202534Y0158228D01*
X0202427Y0158167D01*
X0202321Y0158102D01*
X0202218Y0158034D01*
X0202117Y0157963D01*
X0202018Y0157889D01*
X0201921Y0157812D01*
X0201827Y0157731D01*
X0201736Y0157648D01*
X0201647Y0157562D01*
X0201561Y0157473D01*
X0201478Y0157382D01*
X0201397Y0157288D01*
X0201320Y0157191D01*
X0201246Y0157092D01*
X0201175Y0156991D01*
X0201107Y0156888D01*
X0201042Y0156782D01*
X0200981Y0156675D01*
X0200923Y0156565D01*
X0200869Y0156454D01*
X0200818Y0156342D01*
X0200770Y0156227D01*
X0200727Y0156112D01*
X0200687Y0155995D01*
X0200650Y0155876D01*
X0200618Y0155757D01*
X0200589Y0155637D01*
X0200564Y0155516D01*
X0200542Y0155394D01*
X0200525Y0155271D01*
X0200511Y0155149D01*
X0200502Y0155025D01*
X0200496Y0154902D01*
X0200494Y0154778D01*
X0200494Y0148872D01*
X0200494Y0119345D02*
X0200494Y0113439D01*
X0200496Y0113315D01*
X0200502Y0113192D01*
X0200511Y0113068D01*
X0200525Y0112946D01*
X0200542Y0112823D01*
X0200564Y0112701D01*
X0200589Y0112580D01*
X0200618Y0112460D01*
X0200650Y0112341D01*
X0200687Y0112222D01*
X0200727Y0112105D01*
X0200770Y0111990D01*
X0200818Y0111875D01*
X0200869Y0111763D01*
X0200923Y0111652D01*
X0200981Y0111542D01*
X0201042Y0111435D01*
X0201107Y0111329D01*
X0201175Y0111226D01*
X0201246Y0111125D01*
X0201320Y0111026D01*
X0201397Y0110929D01*
X0201478Y0110835D01*
X0201561Y0110744D01*
X0201647Y0110655D01*
X0201736Y0110569D01*
X0201827Y0110486D01*
X0201921Y0110405D01*
X0202018Y0110328D01*
X0202117Y0110254D01*
X0202218Y0110183D01*
X0202321Y0110115D01*
X0202427Y0110050D01*
X0202534Y0109989D01*
X0202644Y0109931D01*
X0202755Y0109877D01*
X0202867Y0109826D01*
X0202982Y0109778D01*
X0203097Y0109735D01*
X0203214Y0109695D01*
X0203333Y0109658D01*
X0203452Y0109626D01*
X0203572Y0109597D01*
X0203693Y0109572D01*
X0203815Y0109550D01*
X0203938Y0109533D01*
X0204060Y0109519D01*
X0204184Y0109510D01*
X0204307Y0109504D01*
X0204431Y0109502D01*
X0245769Y0109502D01*
X0245893Y0109504D01*
X0246016Y0109510D01*
X0246140Y0109519D01*
X0246262Y0109533D01*
X0246385Y0109550D01*
X0246507Y0109572D01*
X0246628Y0109597D01*
X0246748Y0109626D01*
X0246867Y0109658D01*
X0246986Y0109695D01*
X0247103Y0109735D01*
X0247218Y0109778D01*
X0247333Y0109826D01*
X0247445Y0109877D01*
X0247556Y0109931D01*
X0247666Y0109989D01*
X0247773Y0110050D01*
X0247879Y0110115D01*
X0247982Y0110183D01*
X0248083Y0110254D01*
X0248182Y0110328D01*
X0248279Y0110405D01*
X0248373Y0110486D01*
X0248464Y0110569D01*
X0248553Y0110655D01*
X0248639Y0110744D01*
X0248722Y0110835D01*
X0248803Y0110929D01*
X0248880Y0111026D01*
X0248954Y0111125D01*
X0249025Y0111226D01*
X0249093Y0111329D01*
X0249158Y0111435D01*
X0249219Y0111542D01*
X0249277Y0111652D01*
X0249331Y0111763D01*
X0249382Y0111875D01*
X0249430Y0111990D01*
X0249473Y0112105D01*
X0249513Y0112222D01*
X0249550Y0112341D01*
X0249582Y0112460D01*
X0249611Y0112580D01*
X0249636Y0112701D01*
X0249658Y0112823D01*
X0249675Y0112946D01*
X0249689Y0113068D01*
X0249698Y0113192D01*
X0249704Y0113315D01*
X0249706Y0113439D01*
X0249706Y0119345D01*
X0249706Y0148872D02*
X0249706Y0154778D01*
X0249704Y0154902D01*
X0249698Y0155025D01*
X0249689Y0155149D01*
X0249675Y0155271D01*
X0249658Y0155394D01*
X0249636Y0155516D01*
X0249611Y0155637D01*
X0249582Y0155757D01*
X0249550Y0155876D01*
X0249513Y0155995D01*
X0249473Y0156112D01*
X0249430Y0156227D01*
X0249382Y0156342D01*
X0249331Y0156454D01*
X0249277Y0156565D01*
X0249219Y0156675D01*
X0249158Y0156782D01*
X0249093Y0156888D01*
X0249025Y0156991D01*
X0248954Y0157092D01*
X0248880Y0157191D01*
X0248803Y0157288D01*
X0248722Y0157382D01*
X0248639Y0157473D01*
X0248553Y0157562D01*
X0248464Y0157648D01*
X0248373Y0157731D01*
X0248279Y0157812D01*
X0248182Y0157889D01*
X0248083Y0157963D01*
X0247982Y0158034D01*
X0247879Y0158102D01*
X0247773Y0158167D01*
X0247666Y0158228D01*
X0247556Y0158286D01*
X0247445Y0158340D01*
X0247333Y0158391D01*
X0247218Y0158439D01*
X0247103Y0158482D01*
X0246986Y0158522D01*
X0246867Y0158559D01*
X0246748Y0158591D01*
X0246628Y0158620D01*
X0246507Y0158645D01*
X0246385Y0158667D01*
X0246262Y0158684D01*
X0246140Y0158698D01*
X0246016Y0158707D01*
X0245893Y0158713D01*
X0245769Y0158715D01*
D17*
X0200390Y0175809D02*
X0197654Y0175809D01*
X0200390Y0178544D01*
X0200390Y0179228D01*
X0199706Y0179912D01*
X0198338Y0179912D01*
X0197654Y0179228D01*
X0195786Y0179912D02*
X0194418Y0179912D01*
X0195102Y0179912D02*
X0195102Y0176493D01*
X0194418Y0175809D01*
X0193734Y0175809D01*
X0193050Y0176493D01*
X0192716Y0134398D02*
X0193400Y0133714D01*
X0193400Y0132346D01*
X0192716Y0131663D01*
X0191348Y0133030D02*
X0191348Y0133714D01*
X0192032Y0134398D01*
X0192716Y0134398D01*
X0191348Y0133714D02*
X0190664Y0134398D01*
X0189980Y0134398D01*
X0189296Y0133714D01*
X0189296Y0132346D01*
X0189980Y0131663D01*
X0193400Y0129794D02*
X0193400Y0127059D01*
X0189296Y0127059D01*
D18*
X0102828Y0169439D03*
X0095939Y0162353D03*
X0094561Y0155306D03*
X0086332Y0169479D03*
X0094561Y0175306D03*
D19*
X0094561Y0175266D03*
X0102356Y0169676D03*
X0094561Y0155345D03*
D20*
X0094561Y0155384D03*
X0091017Y0160306D03*
X0094561Y0175227D03*
D21*
X0094561Y0175187D03*
X0094561Y0155424D03*
D22*
X0094561Y0155463D03*
X0091844Y0156447D03*
X0090781Y0157077D03*
X0090742Y0157117D03*
X0090702Y0157156D03*
X0097631Y0156644D03*
X0097828Y0156762D03*
X0091096Y0173731D03*
X0091214Y0173809D03*
X0091293Y0173849D03*
X0094561Y0175148D03*
D23*
X0094561Y0175109D03*
X0091923Y0174124D03*
X0090112Y0157746D03*
X0090151Y0157707D03*
X0094561Y0155502D03*
X0097080Y0156408D03*
X0098655Y0157431D03*
X0098694Y0157471D03*
D24*
X0099128Y0158022D03*
X0099167Y0158061D03*
X0094561Y0155542D03*
X0089757Y0158258D03*
X0094482Y0161802D03*
X0089757Y0172353D03*
X0094561Y0175069D03*
X0099206Y0172510D03*
D25*
X0099482Y0172077D03*
X0099521Y0172038D03*
X0094561Y0175030D03*
X0089482Y0171880D03*
X0089561Y0158652D03*
X0089561Y0158613D03*
X0094561Y0155581D03*
X0099403Y0158455D03*
D26*
X0099561Y0158809D03*
X0094561Y0155620D03*
X0089403Y0159006D03*
X0089285Y0171447D03*
X0094561Y0174991D03*
X0099757Y0171565D03*
D27*
X0099876Y0171250D03*
X0094561Y0174951D03*
X0089167Y0171132D03*
X0089324Y0159282D03*
X0094561Y0155660D03*
X0099679Y0159085D03*
X0099679Y0159124D03*
D28*
X0094561Y0155699D03*
X0089246Y0159597D03*
X0089009Y0170660D03*
X0089009Y0170699D03*
X0094561Y0174912D03*
X0100033Y0170817D03*
X0100033Y0170778D03*
D29*
X0094561Y0174872D03*
X0088931Y0170345D03*
X0089206Y0159833D03*
X0094561Y0155739D03*
X0099836Y0159676D03*
D30*
X0094561Y0155778D03*
X0089206Y0160030D03*
X0088891Y0170030D03*
X0088891Y0170069D03*
X0094561Y0174833D03*
X0100191Y0170148D03*
X0100191Y0170109D03*
D31*
X0100269Y0169794D03*
X0094561Y0174794D03*
X0089206Y0160227D03*
X0094561Y0155817D03*
D32*
X0094561Y0155857D03*
X0099836Y0160266D03*
X0094561Y0174754D03*
D33*
X0094561Y0174715D03*
X0099836Y0160384D03*
X0094561Y0155896D03*
D34*
X0094561Y0155935D03*
X0094561Y0174676D03*
D35*
X0094561Y0174636D03*
X0094561Y0155975D03*
D36*
X0094561Y0156014D03*
X0094561Y0174597D03*
D37*
X0094561Y0174557D03*
X0094561Y0156054D03*
D38*
X0094561Y0156093D03*
X0094561Y0174518D03*
D39*
X0094561Y0174479D03*
X0094561Y0156132D03*
D40*
X0094561Y0156172D03*
X0094561Y0174439D03*
D41*
X0094561Y0174400D03*
X0094561Y0156211D03*
D42*
X0094561Y0156250D03*
X0094561Y0174361D03*
D43*
X0094561Y0174321D03*
X0094561Y0156290D03*
D44*
X0094561Y0156329D03*
X0094561Y0174282D03*
D45*
X0094561Y0174243D03*
X0094561Y0156369D03*
D46*
X0091962Y0156408D03*
X0090387Y0157431D03*
X0090348Y0157471D03*
X0097198Y0156447D03*
X0098261Y0157077D03*
X0098301Y0157117D03*
X0098340Y0157156D03*
X0098340Y0173455D03*
X0098301Y0173494D03*
X0098261Y0173534D03*
X0098183Y0173573D03*
X0098143Y0173613D03*
X0097513Y0174006D03*
X0091687Y0174046D03*
X0090624Y0173337D03*
D47*
X0090840Y0157038D03*
X0090880Y0156998D03*
X0091746Y0156487D03*
D48*
X0090446Y0157392D03*
X0097297Y0156487D03*
X0098163Y0156998D03*
X0098202Y0157038D03*
X0098084Y0173652D03*
X0098045Y0173691D03*
X0097927Y0173770D03*
X0097730Y0173888D03*
X0097572Y0173967D03*
X0091588Y0174006D03*
X0090683Y0173416D03*
X0090643Y0173376D03*
D49*
X0090939Y0156959D03*
X0090978Y0156920D03*
X0091647Y0156526D03*
D50*
X0090506Y0157313D03*
X0090466Y0157353D03*
X0097395Y0156526D03*
X0097946Y0156841D03*
X0098065Y0156920D03*
X0098104Y0156959D03*
X0097986Y0173731D03*
X0097868Y0173809D03*
X0097789Y0173849D03*
X0097671Y0173928D03*
X0090939Y0173613D03*
X0090820Y0173534D03*
X0090781Y0173494D03*
X0090742Y0173455D03*
D51*
X0091037Y0156880D03*
X0091076Y0156841D03*
X0091155Y0156802D03*
X0091273Y0156723D03*
X0091352Y0156683D03*
X0091470Y0156605D03*
X0091549Y0156565D03*
D52*
X0090643Y0157195D03*
X0090604Y0157235D03*
X0090565Y0157274D03*
X0097494Y0156565D03*
X0097572Y0156605D03*
X0097691Y0156683D03*
X0097769Y0156723D03*
X0097887Y0156802D03*
X0098006Y0156880D03*
X0090880Y0173573D03*
X0090998Y0173652D03*
X0091037Y0173691D03*
X0091155Y0173770D03*
X0091352Y0173888D03*
X0091431Y0173928D03*
X0091509Y0173967D03*
D53*
X0091214Y0156762D03*
X0091411Y0156644D03*
D54*
X0090328Y0157510D03*
X0090289Y0157550D03*
X0098399Y0157195D03*
X0098439Y0157235D03*
X0098478Y0157274D03*
X0097415Y0174046D03*
X0091785Y0174085D03*
X0090565Y0173298D03*
X0090525Y0173258D03*
X0090486Y0173219D03*
D55*
X0090427Y0173180D03*
X0097317Y0174085D03*
X0098380Y0173416D03*
X0098419Y0173376D03*
X0098458Y0173337D03*
X0098537Y0157313D03*
D56*
X0098557Y0157353D03*
X0098596Y0157392D03*
X0090250Y0157589D03*
X0090210Y0157628D03*
X0090171Y0157668D03*
X0090328Y0173061D03*
X0090368Y0173101D03*
X0090407Y0173140D03*
X0098517Y0173298D03*
X0098557Y0173258D03*
X0098596Y0173219D03*
D57*
X0098635Y0173180D03*
X0098675Y0173140D03*
X0098714Y0173101D03*
X0098754Y0173061D03*
X0097179Y0174124D03*
X0090289Y0173022D03*
X0090250Y0172983D03*
X0090210Y0172943D03*
X0090092Y0157786D03*
X0098714Y0157510D03*
X0098754Y0157550D03*
D58*
X0098793Y0157589D03*
X0098832Y0157628D03*
X0098872Y0157668D03*
X0094620Y0162195D03*
X0094620Y0162235D03*
X0090013Y0157865D03*
X0098832Y0172983D03*
X0098793Y0173022D03*
D59*
X0098852Y0172943D03*
X0098891Y0172904D03*
X0098931Y0172865D03*
X0090072Y0172786D03*
X0090033Y0172746D03*
X0094600Y0162156D03*
X0094600Y0162117D03*
X0098931Y0157746D03*
X0098891Y0157707D03*
X0089994Y0157904D03*
X0089954Y0157943D03*
D60*
X0089935Y0157983D03*
X0094580Y0162077D03*
X0098950Y0157786D03*
X0098950Y0172825D03*
X0090013Y0172707D03*
X0089974Y0172668D03*
D61*
X0090112Y0172825D03*
X0090151Y0172865D03*
X0090191Y0172904D03*
X0090033Y0157825D03*
D62*
X0089915Y0158022D03*
X0089876Y0158061D03*
X0094561Y0161998D03*
X0094561Y0162038D03*
X0099009Y0157825D03*
X0099009Y0172786D03*
X0089954Y0172628D03*
X0089915Y0172589D03*
D63*
X0089895Y0172550D03*
X0099029Y0172746D03*
X0099069Y0172707D03*
X0094541Y0161959D03*
X0089856Y0158101D03*
X0099029Y0157865D03*
D64*
X0099049Y0157904D03*
X0099088Y0157943D03*
X0094521Y0161920D03*
X0089836Y0158140D03*
X0089797Y0158180D03*
X0089836Y0172471D03*
X0089876Y0172510D03*
X0099088Y0172668D03*
X0099128Y0172628D03*
D65*
X0099147Y0172589D03*
X0099187Y0172550D03*
X0089817Y0172431D03*
X0089777Y0172392D03*
X0094502Y0161880D03*
X0094502Y0161841D03*
X0099108Y0157983D03*
X0089777Y0158219D03*
D66*
X0089738Y0158298D03*
X0094423Y0161683D03*
X0094423Y0161723D03*
X0094462Y0161762D03*
X0099187Y0158101D03*
X0099265Y0172431D03*
X0099226Y0172471D03*
X0089738Y0172313D03*
X0089698Y0172274D03*
D67*
X0089679Y0172235D03*
X0099285Y0172392D03*
X0094403Y0161644D03*
X0094009Y0161250D03*
X0099206Y0158140D03*
X0099246Y0158180D03*
X0089718Y0158337D03*
X0089679Y0158376D03*
D68*
X0089659Y0158416D03*
X0094383Y0161605D03*
X0099265Y0158219D03*
X0089620Y0172156D03*
X0089659Y0172195D03*
X0099305Y0172353D03*
X0099344Y0172313D03*
D69*
X0099364Y0172274D03*
X0089600Y0172117D03*
X0094364Y0161565D03*
X0094088Y0161290D03*
X0089639Y0158455D03*
X0099285Y0158258D03*
D70*
X0099305Y0158298D03*
X0094344Y0161526D03*
X0094305Y0161487D03*
X0089620Y0158494D03*
X0089580Y0172077D03*
X0099383Y0172235D03*
X0099423Y0172195D03*
D71*
X0099443Y0172156D03*
X0089561Y0172038D03*
X0089521Y0171998D03*
X0089521Y0171959D03*
X0094285Y0161447D03*
X0094246Y0161408D03*
X0094206Y0161369D03*
X0094167Y0161329D03*
X0089600Y0158534D03*
X0099324Y0158337D03*
X0099364Y0158376D03*
D72*
X0099383Y0158416D03*
X0089580Y0158573D03*
X0089502Y0171920D03*
X0099462Y0172117D03*
D73*
X0099541Y0171998D03*
X0099541Y0171959D03*
X0089462Y0171841D03*
X0089541Y0158691D03*
X0099423Y0158494D03*
D74*
X0099443Y0158534D03*
X0089521Y0158731D03*
X0089403Y0171762D03*
X0089443Y0171802D03*
X0099561Y0171920D03*
X0099600Y0171880D03*
D75*
X0099620Y0171841D03*
X0089383Y0171723D03*
X0089383Y0171683D03*
X0089502Y0158770D03*
X0099462Y0158573D03*
D76*
X0099482Y0158613D03*
X0099482Y0158652D03*
X0089482Y0158809D03*
X0089364Y0171644D03*
X0099639Y0171802D03*
D77*
X0099659Y0171762D03*
X0089344Y0171605D03*
X0089462Y0158849D03*
X0099502Y0158691D03*
D78*
X0099521Y0158731D03*
X0089443Y0158888D03*
X0089443Y0158928D03*
X0089324Y0171565D03*
X0099679Y0171683D03*
X0099679Y0171723D03*
X0099718Y0171644D03*
D79*
X0099738Y0171605D03*
X0089305Y0171526D03*
X0089305Y0171487D03*
X0089423Y0158967D03*
X0099541Y0158770D03*
D80*
X0099580Y0158849D03*
X0089383Y0159046D03*
X0089265Y0171408D03*
X0099777Y0171487D03*
X0099777Y0171526D03*
D81*
X0099797Y0171447D03*
X0089246Y0171369D03*
X0089246Y0171329D03*
X0089364Y0159124D03*
X0089364Y0159085D03*
X0099600Y0158928D03*
X0099600Y0158888D03*
D82*
X0099620Y0158967D03*
X0089344Y0159164D03*
X0089226Y0171290D03*
X0099817Y0171408D03*
D83*
X0099836Y0171369D03*
X0099836Y0171329D03*
X0089206Y0171250D03*
X0089324Y0159203D03*
X0099639Y0159006D03*
D84*
X0099659Y0159046D03*
X0089305Y0159243D03*
X0089187Y0171172D03*
X0089187Y0171211D03*
X0099856Y0171290D03*
D85*
X0099895Y0171211D03*
X0099895Y0171172D03*
X0089147Y0171093D03*
X0089305Y0159321D03*
X0099698Y0159164D03*
D86*
X0099718Y0159203D03*
X0089285Y0159361D03*
X0089128Y0171014D03*
X0089128Y0171054D03*
X0099915Y0171132D03*
D87*
X0099935Y0171093D03*
X0089108Y0170975D03*
X0089265Y0159439D03*
X0089265Y0159400D03*
X0099738Y0159243D03*
D88*
X0099718Y0159282D03*
X0099954Y0171014D03*
X0099954Y0171054D03*
X0089088Y0170935D03*
X0089088Y0170896D03*
D89*
X0089069Y0170857D03*
X0099974Y0170975D03*
X0099738Y0159321D03*
X0089265Y0159479D03*
D90*
X0089246Y0159518D03*
X0099757Y0159361D03*
X0099994Y0170896D03*
X0099994Y0170935D03*
X0089049Y0170817D03*
X0089049Y0170778D03*
D91*
X0089029Y0170739D03*
X0100013Y0170857D03*
X0099777Y0159439D03*
X0099777Y0159400D03*
X0089226Y0159557D03*
D92*
X0089226Y0159636D03*
X0099777Y0159479D03*
X0100053Y0170739D03*
X0088990Y0170620D03*
X0088990Y0170581D03*
D93*
X0100072Y0170660D03*
X0100072Y0170699D03*
X0099797Y0159518D03*
X0089206Y0159676D03*
D94*
X0089226Y0159715D03*
X0099817Y0159557D03*
X0100092Y0170581D03*
X0100092Y0170620D03*
X0088990Y0170542D03*
D95*
X0088970Y0170502D03*
X0088970Y0170463D03*
X0100112Y0170542D03*
X0099797Y0159597D03*
X0089206Y0159754D03*
D96*
X0089187Y0159794D03*
X0099817Y0159636D03*
X0100131Y0170463D03*
X0100131Y0170502D03*
X0088950Y0170424D03*
X0088950Y0170384D03*
D97*
X0088911Y0170306D03*
X0100131Y0170384D03*
X0100131Y0170424D03*
X0099817Y0159715D03*
X0089187Y0159872D03*
D98*
X0099836Y0159754D03*
X0100151Y0170345D03*
X0088931Y0170266D03*
D99*
X0088911Y0170227D03*
X0088911Y0170187D03*
X0100171Y0170266D03*
X0100171Y0170306D03*
X0099856Y0159794D03*
X0089187Y0159912D03*
X0089187Y0159951D03*
D100*
X0099836Y0159833D03*
X0100191Y0170187D03*
X0100191Y0170227D03*
X0088891Y0170148D03*
X0088891Y0170109D03*
D101*
X0089187Y0159991D03*
X0099856Y0159872D03*
D102*
X0099856Y0159912D03*
X0099856Y0159951D03*
X0089187Y0160069D03*
X0088872Y0169991D03*
X0100210Y0170030D03*
X0100210Y0170069D03*
D103*
X0088872Y0169912D03*
X0089187Y0160148D03*
X0089187Y0160109D03*
X0099856Y0159991D03*
D104*
X0099836Y0160030D03*
X0088852Y0169872D03*
X0100230Y0169912D03*
X0100230Y0169951D03*
D105*
X0100250Y0169872D03*
X0100250Y0169833D03*
X0099856Y0160069D03*
X0089187Y0160187D03*
D106*
X0099856Y0160148D03*
X0099856Y0160109D03*
X0100250Y0169754D03*
D107*
X0099856Y0160187D03*
D108*
X0099836Y0160227D03*
D109*
X0100269Y0169715D03*
X0089206Y0160266D03*
D110*
X0087159Y0160306D03*
D111*
X0088990Y0160306D03*
X0088990Y0160345D03*
X0088990Y0160384D03*
X0088990Y0160424D03*
X0088990Y0160463D03*
X0088990Y0160502D03*
X0088990Y0160542D03*
X0088990Y0160581D03*
X0088990Y0160620D03*
X0088990Y0160660D03*
X0088990Y0160699D03*
X0088990Y0160739D03*
X0088990Y0160778D03*
X0088990Y0160817D03*
X0088990Y0160857D03*
X0088990Y0160896D03*
X0088990Y0160935D03*
X0088990Y0160975D03*
X0088990Y0161014D03*
X0088990Y0161054D03*
X0093360Y0164872D03*
X0093360Y0164912D03*
X0093360Y0164951D03*
X0093360Y0164991D03*
X0096549Y0167431D03*
X0096549Y0167471D03*
X0096549Y0167510D03*
X0096549Y0167550D03*
X0092257Y0168534D03*
X0092218Y0168573D03*
X0088990Y0169085D03*
X0088990Y0169124D03*
X0088990Y0169164D03*
X0088990Y0169203D03*
X0088990Y0169243D03*
X0088990Y0169282D03*
X0088990Y0169321D03*
X0088990Y0169361D03*
X0088990Y0169400D03*
X0088990Y0169439D03*
X0088990Y0169479D03*
X0088990Y0169518D03*
X0088990Y0169557D03*
X0088990Y0169597D03*
X0088990Y0169636D03*
X0088990Y0169676D03*
X0088990Y0169715D03*
X0088990Y0169754D03*
X0088990Y0169794D03*
X0088990Y0169833D03*
X0085053Y0167471D03*
X0085013Y0167392D03*
X0085013Y0167353D03*
X0085013Y0167313D03*
X0084974Y0167274D03*
X0084974Y0167235D03*
X0085250Y0162274D03*
X0085289Y0162235D03*
X0085289Y0162195D03*
X0085328Y0162117D03*
X0103872Y0162353D03*
X0103911Y0162392D03*
X0103911Y0162431D03*
X0104069Y0167550D03*
X0104069Y0167589D03*
X0104069Y0167628D03*
X0104029Y0167668D03*
X0104029Y0167707D03*
D112*
X0099856Y0160306D03*
D113*
X0087041Y0160345D03*
X0086765Y0169754D03*
D114*
X0087002Y0169833D03*
X0091175Y0160345D03*
D115*
X0099836Y0160345D03*
D116*
X0092592Y0161132D03*
X0091687Y0160581D03*
X0086923Y0160384D03*
D117*
X0091273Y0160384D03*
D118*
X0091883Y0160699D03*
X0091923Y0160739D03*
X0092002Y0160778D03*
X0092435Y0161054D03*
X0086844Y0160424D03*
X0086529Y0169636D03*
D119*
X0091372Y0160424D03*
D120*
X0099817Y0160424D03*
D121*
X0092120Y0160857D03*
X0086765Y0160463D03*
X0102631Y0169557D03*
D122*
X0092809Y0161211D03*
X0091470Y0160463D03*
D123*
X0099817Y0160463D03*
D124*
X0102553Y0160660D03*
X0095899Y0162313D03*
X0093380Y0162274D03*
X0086687Y0160502D03*
X0086372Y0169518D03*
X0091214Y0169676D03*
D125*
X0091549Y0160502D03*
D126*
X0099797Y0160502D03*
D127*
X0102769Y0169479D03*
X0088990Y0168180D03*
X0088990Y0168140D03*
X0088990Y0168101D03*
X0088990Y0168061D03*
X0088990Y0168022D03*
X0088990Y0167983D03*
X0088990Y0167943D03*
X0088990Y0167904D03*
X0088990Y0167865D03*
X0088990Y0167825D03*
X0088990Y0167786D03*
X0088990Y0167746D03*
X0088990Y0167707D03*
X0088990Y0167668D03*
X0088990Y0167628D03*
X0088990Y0167589D03*
X0088990Y0167550D03*
X0088990Y0167510D03*
X0088990Y0167471D03*
X0088990Y0167431D03*
X0088990Y0167392D03*
X0088990Y0167353D03*
X0088990Y0167313D03*
X0088990Y0167274D03*
X0088990Y0167235D03*
X0088990Y0167195D03*
X0088990Y0167156D03*
X0088990Y0167117D03*
X0088990Y0167077D03*
X0088990Y0167038D03*
X0088990Y0166998D03*
X0088990Y0166959D03*
X0088990Y0166920D03*
X0088990Y0166880D03*
X0088990Y0166841D03*
X0088990Y0166802D03*
X0088990Y0166762D03*
X0088990Y0166723D03*
X0088990Y0166683D03*
X0088990Y0166644D03*
X0088990Y0166605D03*
X0088990Y0166565D03*
X0088990Y0166526D03*
X0088990Y0166487D03*
X0088990Y0166447D03*
X0088990Y0166408D03*
X0088990Y0166369D03*
X0088990Y0166329D03*
X0088990Y0166290D03*
X0088990Y0166250D03*
X0088990Y0166211D03*
X0088990Y0166172D03*
X0088990Y0166132D03*
X0088990Y0166093D03*
X0088990Y0166054D03*
X0088990Y0166014D03*
X0088990Y0165975D03*
X0088990Y0165935D03*
X0088990Y0165896D03*
X0088990Y0165857D03*
X0088990Y0165817D03*
X0088990Y0165778D03*
X0088990Y0165739D03*
X0088990Y0165699D03*
X0088990Y0165660D03*
X0088990Y0165620D03*
X0088990Y0165581D03*
X0088990Y0165542D03*
X0088990Y0165502D03*
X0088990Y0165463D03*
X0088990Y0165424D03*
X0088990Y0165384D03*
X0088990Y0165345D03*
X0088990Y0165306D03*
X0088990Y0165266D03*
X0088990Y0165227D03*
X0088990Y0165187D03*
X0088990Y0165148D03*
X0088990Y0165109D03*
X0088990Y0165069D03*
X0088990Y0165030D03*
X0088990Y0164991D03*
X0088990Y0164951D03*
X0088990Y0164912D03*
X0088990Y0164872D03*
X0088990Y0164833D03*
X0088990Y0164794D03*
X0088990Y0164754D03*
X0088990Y0164715D03*
X0088990Y0164676D03*
X0088990Y0164636D03*
X0088990Y0164597D03*
X0088990Y0164557D03*
X0088990Y0164518D03*
X0088990Y0164479D03*
X0088990Y0164439D03*
X0088990Y0164400D03*
X0088990Y0164361D03*
X0088990Y0164321D03*
X0088990Y0164282D03*
X0088990Y0164243D03*
X0088990Y0164203D03*
X0088990Y0164164D03*
X0088990Y0164124D03*
X0088990Y0164085D03*
X0088990Y0164046D03*
X0088990Y0164006D03*
X0088990Y0163967D03*
X0088990Y0163928D03*
X0088990Y0163888D03*
X0088990Y0163849D03*
X0088990Y0163809D03*
X0088990Y0163770D03*
X0088990Y0163731D03*
X0088990Y0163691D03*
X0088990Y0163652D03*
X0088990Y0163613D03*
X0088990Y0163573D03*
X0088990Y0163534D03*
X0088990Y0163494D03*
X0088990Y0163455D03*
X0088990Y0163416D03*
X0088990Y0163376D03*
X0088990Y0163337D03*
X0088990Y0163298D03*
X0088990Y0163258D03*
X0088990Y0163219D03*
X0088990Y0163180D03*
X0088990Y0163140D03*
X0088990Y0163101D03*
X0088990Y0163061D03*
X0088990Y0163022D03*
X0088990Y0162983D03*
X0088990Y0162943D03*
X0088990Y0162904D03*
X0088990Y0162865D03*
X0088990Y0162825D03*
X0088990Y0162786D03*
X0088990Y0162746D03*
X0088990Y0162707D03*
X0088990Y0162668D03*
X0088990Y0162628D03*
X0088990Y0162589D03*
X0088990Y0162550D03*
X0088990Y0162510D03*
X0088990Y0162471D03*
X0088990Y0162431D03*
X0088990Y0162392D03*
X0088990Y0162353D03*
X0088990Y0162313D03*
X0088990Y0162274D03*
X0088990Y0162235D03*
X0088990Y0162195D03*
X0086628Y0160542D03*
D128*
X0091608Y0160542D03*
D129*
X0096293Y0160542D03*
X0093025Y0166723D03*
X0092986Y0166841D03*
X0092946Y0166959D03*
X0092907Y0167077D03*
X0092868Y0167195D03*
X0092828Y0167313D03*
X0096687Y0168494D03*
X0096687Y0168534D03*
D130*
X0096529Y0167392D03*
X0096529Y0167353D03*
X0096529Y0167313D03*
X0093380Y0164833D03*
X0093380Y0164794D03*
X0093380Y0164754D03*
X0093380Y0164715D03*
X0095860Y0161014D03*
X0100112Y0161014D03*
X0100112Y0160975D03*
X0100112Y0160935D03*
X0100112Y0160896D03*
X0100112Y0160857D03*
X0100112Y0160817D03*
X0100112Y0160778D03*
X0100112Y0160739D03*
X0100112Y0160699D03*
X0100112Y0160660D03*
X0100112Y0160620D03*
X0100112Y0160581D03*
X0100112Y0160542D03*
X0100112Y0161054D03*
X0100112Y0161093D03*
X0100112Y0161132D03*
X0100112Y0161172D03*
X0100112Y0161211D03*
X0100112Y0161250D03*
X0103813Y0162195D03*
X0103813Y0162235D03*
X0103852Y0162274D03*
X0103852Y0162313D03*
X0104009Y0167746D03*
X0103970Y0167825D03*
X0100112Y0168928D03*
X0100112Y0168967D03*
X0100112Y0169006D03*
X0100112Y0169046D03*
X0100112Y0169085D03*
X0100112Y0169124D03*
X0100112Y0169164D03*
X0100112Y0169203D03*
X0100112Y0169243D03*
X0100112Y0169282D03*
X0100112Y0169321D03*
X0100112Y0169361D03*
X0100112Y0169400D03*
X0100112Y0169439D03*
X0100112Y0169479D03*
X0100112Y0169518D03*
X0100112Y0169557D03*
X0100112Y0169597D03*
X0100112Y0169636D03*
X0100112Y0169676D03*
X0092198Y0168613D03*
X0085072Y0167550D03*
X0085072Y0167510D03*
X0085033Y0167431D03*
X0085309Y0162156D03*
X0085348Y0162077D03*
X0085387Y0161998D03*
D131*
X0092691Y0161172D03*
X0090958Y0169794D03*
X0086667Y0169715D03*
X0102494Y0169636D03*
X0102257Y0160542D03*
D132*
X0102671Y0160739D03*
X0095978Y0162431D03*
X0088970Y0161723D03*
X0088970Y0161683D03*
X0086569Y0160581D03*
X0088970Y0168534D03*
X0102868Y0169400D03*
D133*
X0096726Y0168731D03*
X0096726Y0168691D03*
X0096096Y0160699D03*
X0096135Y0160660D03*
X0096175Y0160620D03*
X0096214Y0160581D03*
D134*
X0092376Y0161014D03*
X0092297Y0160975D03*
X0092257Y0160935D03*
X0092179Y0160896D03*
X0092061Y0160817D03*
X0102376Y0160581D03*
D135*
X0095998Y0162471D03*
X0093320Y0162353D03*
X0088990Y0161644D03*
X0088990Y0161605D03*
X0086509Y0160620D03*
X0088990Y0168573D03*
X0088990Y0168613D03*
X0091352Y0169597D03*
X0086234Y0169400D03*
X0102927Y0169361D03*
D136*
X0091746Y0160620D03*
D137*
X0095860Y0162274D03*
X0102474Y0160620D03*
X0102710Y0169518D03*
D138*
X0102710Y0160778D03*
X0096017Y0162510D03*
X0096017Y0162550D03*
X0088970Y0161565D03*
X0086450Y0160660D03*
X0088970Y0168652D03*
X0086175Y0169361D03*
D139*
X0086608Y0169676D03*
X0091805Y0160660D03*
X0092513Y0161093D03*
D140*
X0093301Y0162431D03*
X0096057Y0162668D03*
X0096057Y0162707D03*
X0096057Y0162746D03*
X0096057Y0162786D03*
X0088970Y0161447D03*
X0086411Y0160699D03*
X0088970Y0168731D03*
X0086135Y0169321D03*
X0086096Y0169282D03*
D141*
X0086273Y0169439D03*
X0088990Y0168494D03*
X0088990Y0168455D03*
X0088990Y0168416D03*
X0088990Y0168376D03*
X0088990Y0168337D03*
X0088990Y0168298D03*
X0088990Y0168258D03*
X0088990Y0168219D03*
X0091273Y0169636D03*
X0093360Y0162313D03*
X0095958Y0162392D03*
X0088990Y0162156D03*
X0088990Y0162117D03*
X0088990Y0162077D03*
X0088990Y0162038D03*
X0088990Y0161998D03*
X0088990Y0161959D03*
X0088990Y0161920D03*
X0088990Y0161880D03*
X0088990Y0161841D03*
X0088990Y0161802D03*
X0088990Y0161762D03*
X0102612Y0160699D03*
D142*
X0102809Y0160857D03*
X0096076Y0162825D03*
X0096076Y0162865D03*
X0096076Y0162904D03*
X0096076Y0162943D03*
X0096076Y0162983D03*
X0096076Y0163022D03*
X0096076Y0163061D03*
X0093320Y0162471D03*
X0088990Y0161408D03*
X0086352Y0160739D03*
X0088990Y0168770D03*
X0091431Y0169518D03*
X0103045Y0169243D03*
D143*
X0096706Y0168652D03*
X0096706Y0168613D03*
X0096706Y0168573D03*
X0096076Y0160739D03*
D144*
X0096116Y0163652D03*
X0096116Y0163691D03*
X0096116Y0163731D03*
X0096116Y0163770D03*
X0096116Y0163809D03*
X0096116Y0163849D03*
X0096116Y0163888D03*
X0096116Y0163928D03*
X0096116Y0163967D03*
X0096116Y0164006D03*
X0093320Y0162550D03*
X0088990Y0161329D03*
X0086313Y0160778D03*
X0085998Y0169164D03*
X0086037Y0169203D03*
X0088990Y0168809D03*
X0091509Y0169479D03*
X0103084Y0169203D03*
X0103124Y0169164D03*
D145*
X0096706Y0168455D03*
X0096706Y0168416D03*
X0092887Y0167156D03*
X0092887Y0167117D03*
X0092927Y0167038D03*
X0092927Y0166998D03*
X0092966Y0166920D03*
X0092966Y0166880D03*
X0093006Y0166802D03*
X0093006Y0166762D03*
X0093045Y0166683D03*
X0093045Y0166644D03*
X0093045Y0166605D03*
X0093045Y0166565D03*
X0093084Y0166526D03*
X0093084Y0166487D03*
X0093084Y0166447D03*
X0093124Y0166369D03*
X0093124Y0166329D03*
X0092848Y0167235D03*
X0092848Y0167274D03*
X0092809Y0167353D03*
X0092809Y0167392D03*
X0092769Y0167431D03*
X0092769Y0167471D03*
X0092730Y0167550D03*
X0092691Y0167668D03*
X0096037Y0160778D03*
D146*
X0095624Y0161211D03*
X0093301Y0162589D03*
X0096135Y0164046D03*
X0096135Y0164085D03*
X0096135Y0164124D03*
X0096135Y0164164D03*
X0096135Y0164203D03*
X0096135Y0164243D03*
X0096135Y0164282D03*
X0100506Y0164282D03*
X0100506Y0164321D03*
X0100506Y0164361D03*
X0100506Y0164400D03*
X0100506Y0164439D03*
X0100506Y0164479D03*
X0100506Y0164518D03*
X0100506Y0164557D03*
X0100506Y0164597D03*
X0100506Y0164636D03*
X0100506Y0164676D03*
X0100506Y0164715D03*
X0100506Y0164754D03*
X0100506Y0164794D03*
X0100506Y0164833D03*
X0100506Y0164872D03*
X0100506Y0164912D03*
X0100506Y0164951D03*
X0100506Y0164991D03*
X0100506Y0165030D03*
X0100506Y0165069D03*
X0100506Y0165109D03*
X0100506Y0165148D03*
X0100506Y0165187D03*
X0100506Y0165227D03*
X0100506Y0165266D03*
X0100506Y0165306D03*
X0100506Y0165345D03*
X0100506Y0165384D03*
X0100506Y0165424D03*
X0100506Y0165463D03*
X0100506Y0165502D03*
X0100506Y0165542D03*
X0100506Y0165581D03*
X0100506Y0165620D03*
X0100506Y0165660D03*
X0100506Y0165699D03*
X0100506Y0165739D03*
X0100506Y0165778D03*
X0100506Y0165817D03*
X0100506Y0165857D03*
X0100506Y0165896D03*
X0100506Y0165935D03*
X0100506Y0165975D03*
X0100506Y0166014D03*
X0100506Y0166054D03*
X0100506Y0166093D03*
X0100506Y0166132D03*
X0100506Y0166172D03*
X0100506Y0166211D03*
X0100506Y0166250D03*
X0100506Y0166290D03*
X0100506Y0166329D03*
X0100506Y0166369D03*
X0100506Y0166408D03*
X0100506Y0166447D03*
X0100506Y0166487D03*
X0100506Y0166526D03*
X0100506Y0166565D03*
X0100506Y0166605D03*
X0100506Y0166644D03*
X0100506Y0166683D03*
X0100506Y0166723D03*
X0100506Y0166762D03*
X0100506Y0166802D03*
X0100506Y0166841D03*
X0100506Y0166880D03*
X0100506Y0166920D03*
X0100506Y0166959D03*
X0100506Y0166998D03*
X0100506Y0167038D03*
X0100506Y0167077D03*
X0100506Y0167117D03*
X0100506Y0167156D03*
X0100506Y0167195D03*
X0100506Y0167235D03*
X0100506Y0167274D03*
X0100506Y0167313D03*
X0100506Y0167353D03*
X0100506Y0167392D03*
X0100506Y0167431D03*
X0100506Y0167471D03*
X0100506Y0167510D03*
X0100506Y0167550D03*
X0100506Y0167589D03*
X0100506Y0167628D03*
X0100506Y0167668D03*
X0100506Y0167707D03*
X0100506Y0167746D03*
X0100506Y0164243D03*
X0100506Y0164203D03*
X0100506Y0164164D03*
X0100506Y0164124D03*
X0100506Y0164085D03*
X0100506Y0164046D03*
X0100506Y0164006D03*
X0100506Y0163967D03*
X0100506Y0163928D03*
X0100506Y0163888D03*
X0100506Y0163849D03*
X0100506Y0163809D03*
X0100506Y0163770D03*
X0100506Y0163731D03*
X0100506Y0163691D03*
X0100506Y0163652D03*
X0100506Y0163613D03*
X0100506Y0163573D03*
X0100506Y0163534D03*
X0100506Y0163494D03*
X0100506Y0163455D03*
X0100506Y0163416D03*
X0100506Y0163376D03*
X0100506Y0163337D03*
X0100506Y0163298D03*
X0100506Y0163258D03*
X0100506Y0163219D03*
X0100506Y0163180D03*
X0100506Y0163140D03*
X0100506Y0163101D03*
X0100506Y0163061D03*
X0100506Y0163022D03*
X0100506Y0162983D03*
X0100506Y0162943D03*
X0100506Y0162904D03*
X0100506Y0162865D03*
X0100506Y0162825D03*
X0100506Y0162786D03*
X0100506Y0162746D03*
X0100506Y0162707D03*
X0100506Y0162668D03*
X0100506Y0162628D03*
X0100506Y0162589D03*
X0100506Y0162550D03*
X0100506Y0162510D03*
X0100506Y0162471D03*
X0100506Y0162431D03*
X0102907Y0160935D03*
X0102946Y0160975D03*
X0091529Y0169439D03*
X0086254Y0160817D03*
D147*
X0093183Y0166054D03*
X0093183Y0166093D03*
X0093183Y0166132D03*
X0093143Y0166172D03*
X0093143Y0166211D03*
X0093143Y0166250D03*
X0093143Y0166290D03*
X0093104Y0166408D03*
X0092750Y0167510D03*
X0092710Y0167589D03*
X0092710Y0167628D03*
X0092671Y0167707D03*
X0092631Y0167786D03*
X0092592Y0167865D03*
X0096687Y0168298D03*
X0096687Y0168337D03*
X0096687Y0168376D03*
X0096017Y0160817D03*
D148*
X0096037Y0162589D03*
X0096037Y0162628D03*
X0093320Y0162392D03*
X0088990Y0161526D03*
X0088990Y0161487D03*
X0088990Y0168691D03*
X0091391Y0169557D03*
X0102966Y0169321D03*
X0103006Y0169282D03*
X0102769Y0160817D03*
D149*
X0100486Y0161920D03*
X0100486Y0161959D03*
X0100486Y0161998D03*
X0100486Y0162038D03*
X0100486Y0162077D03*
X0100486Y0162117D03*
X0100486Y0162156D03*
X0100486Y0162195D03*
X0100486Y0162235D03*
X0100486Y0162274D03*
X0100486Y0162313D03*
X0100486Y0162353D03*
X0100486Y0162392D03*
X0096155Y0164321D03*
X0096155Y0164361D03*
X0096155Y0164400D03*
X0096155Y0164439D03*
X0096155Y0164479D03*
X0096155Y0164518D03*
X0093320Y0162628D03*
X0088990Y0161290D03*
X0086234Y0160857D03*
X0085919Y0169085D03*
X0085958Y0169124D03*
X0088990Y0168849D03*
X0100486Y0168180D03*
X0100486Y0168140D03*
X0100486Y0168101D03*
X0100486Y0168061D03*
X0100486Y0168022D03*
X0100486Y0167983D03*
X0100486Y0167943D03*
X0100486Y0167904D03*
X0100486Y0167865D03*
X0100486Y0167825D03*
X0100486Y0167786D03*
X0103163Y0169124D03*
X0103202Y0169085D03*
D150*
X0104423Y0165857D03*
X0104423Y0165817D03*
X0104423Y0165778D03*
X0104423Y0165739D03*
X0104423Y0165699D03*
X0104423Y0165660D03*
X0104423Y0165620D03*
X0104423Y0165581D03*
X0104423Y0165542D03*
X0104423Y0165502D03*
X0104423Y0165463D03*
X0104423Y0165424D03*
X0104423Y0165384D03*
X0104423Y0165345D03*
X0104423Y0165306D03*
X0104423Y0165266D03*
X0104423Y0165227D03*
X0104423Y0165187D03*
X0104423Y0165148D03*
X0104423Y0165109D03*
X0104423Y0165069D03*
X0104423Y0165030D03*
X0104423Y0164991D03*
X0104423Y0164951D03*
X0104423Y0164912D03*
X0104423Y0164872D03*
X0104423Y0164833D03*
X0104423Y0164794D03*
X0104423Y0164754D03*
X0104423Y0164715D03*
X0104423Y0164676D03*
X0104423Y0164636D03*
X0104423Y0164597D03*
X0104423Y0164557D03*
X0104423Y0164518D03*
X0104423Y0164479D03*
X0104423Y0164439D03*
X0104383Y0164400D03*
X0104383Y0164361D03*
X0104383Y0164321D03*
X0104383Y0164282D03*
X0104383Y0164243D03*
X0104383Y0164203D03*
X0104383Y0164164D03*
X0104383Y0164124D03*
X0104344Y0164046D03*
X0104344Y0164006D03*
X0104344Y0163967D03*
X0104344Y0163928D03*
X0104344Y0163888D03*
X0104305Y0163770D03*
X0104305Y0163731D03*
X0096667Y0168180D03*
X0096667Y0168219D03*
X0096667Y0168258D03*
X0092651Y0167746D03*
X0092612Y0167825D03*
X0092572Y0167904D03*
X0092572Y0167943D03*
X0092533Y0167983D03*
X0093202Y0166014D03*
X0093202Y0165975D03*
X0093202Y0165935D03*
X0093242Y0165817D03*
X0093242Y0165778D03*
X0095998Y0160857D03*
X0084817Y0163770D03*
X0084777Y0164006D03*
X0084777Y0164046D03*
X0084738Y0164282D03*
X0084738Y0164321D03*
X0084738Y0164361D03*
X0084738Y0164400D03*
D151*
X0086175Y0160896D03*
X0093301Y0162668D03*
X0093301Y0162707D03*
X0096175Y0164557D03*
X0096175Y0164597D03*
X0096175Y0164636D03*
X0096175Y0164676D03*
X0096175Y0164715D03*
X0096175Y0164754D03*
X0100466Y0161880D03*
X0100466Y0161841D03*
X0100466Y0161802D03*
X0102986Y0161014D03*
X0100466Y0168219D03*
X0100466Y0168258D03*
X0100466Y0168298D03*
X0100466Y0168337D03*
X0091569Y0169400D03*
X0085899Y0169046D03*
D152*
X0084777Y0166329D03*
X0084777Y0166290D03*
X0084777Y0166250D03*
X0084777Y0166211D03*
X0084738Y0166093D03*
X0084738Y0166054D03*
X0084738Y0166014D03*
X0084738Y0165975D03*
X0084738Y0165935D03*
X0084738Y0165896D03*
X0084738Y0165857D03*
X0084895Y0163376D03*
X0084895Y0163337D03*
X0084935Y0163219D03*
X0084935Y0163180D03*
X0084974Y0163101D03*
X0084974Y0163061D03*
X0084974Y0163022D03*
X0085013Y0162943D03*
X0085013Y0162904D03*
X0093281Y0165502D03*
X0093281Y0165542D03*
X0093281Y0165581D03*
X0092454Y0168140D03*
X0092454Y0168180D03*
X0092415Y0168219D03*
X0096628Y0168022D03*
X0096628Y0167983D03*
X0096628Y0167943D03*
X0104265Y0166880D03*
X0104265Y0166841D03*
X0104305Y0166723D03*
X0104305Y0166683D03*
X0104305Y0166644D03*
X0104305Y0166605D03*
X0104344Y0166526D03*
X0104344Y0166487D03*
X0104344Y0166447D03*
X0104344Y0166408D03*
X0104226Y0163376D03*
X0104226Y0163337D03*
X0104187Y0163258D03*
X0104187Y0163219D03*
X0104187Y0163180D03*
X0104147Y0163140D03*
X0104147Y0163101D03*
X0104147Y0163061D03*
X0095958Y0160896D03*
D153*
X0096096Y0163101D03*
X0096096Y0163140D03*
X0096096Y0163180D03*
X0096096Y0163219D03*
X0096096Y0163258D03*
X0096096Y0163298D03*
X0096096Y0163337D03*
X0096096Y0163376D03*
X0096096Y0163416D03*
X0096096Y0163455D03*
X0096096Y0163494D03*
X0096096Y0163534D03*
X0096096Y0163573D03*
X0096096Y0163613D03*
X0093301Y0162510D03*
X0088970Y0161369D03*
X0086057Y0169243D03*
X0102868Y0160896D03*
D154*
X0103065Y0161093D03*
X0100427Y0161644D03*
X0100427Y0161683D03*
X0096214Y0164991D03*
X0096214Y0165030D03*
X0096214Y0165069D03*
X0096214Y0165109D03*
X0096214Y0165148D03*
X0093340Y0162825D03*
X0086135Y0160935D03*
X0086096Y0160975D03*
X0085820Y0168967D03*
X0100427Y0168534D03*
X0100427Y0168494D03*
X0103301Y0168967D03*
D155*
X0104147Y0167353D03*
X0104147Y0167313D03*
X0104187Y0167235D03*
X0104187Y0167195D03*
X0104187Y0167156D03*
X0104226Y0167038D03*
X0104069Y0162825D03*
X0104029Y0162746D03*
X0104029Y0162707D03*
X0103990Y0162628D03*
X0095919Y0160935D03*
X0093320Y0165187D03*
X0093320Y0165227D03*
X0093320Y0165266D03*
X0093320Y0165306D03*
X0092336Y0168376D03*
X0092297Y0168455D03*
X0096588Y0167786D03*
X0096588Y0167746D03*
X0096588Y0167707D03*
X0084935Y0167077D03*
X0084895Y0166959D03*
X0084895Y0166920D03*
X0084895Y0166880D03*
X0084856Y0166802D03*
X0084856Y0166762D03*
X0084856Y0166723D03*
X0085092Y0162707D03*
X0085092Y0162668D03*
X0085131Y0162589D03*
X0085131Y0162550D03*
X0085171Y0162510D03*
X0085171Y0162471D03*
D156*
X0085191Y0162431D03*
X0085191Y0162392D03*
X0085230Y0162353D03*
X0085230Y0162313D03*
X0084915Y0166998D03*
X0084915Y0167038D03*
X0084954Y0167117D03*
X0084954Y0167156D03*
X0084954Y0167195D03*
X0092277Y0168494D03*
X0092317Y0168416D03*
X0093340Y0165148D03*
X0093340Y0165109D03*
X0093340Y0165069D03*
X0093340Y0165030D03*
X0095899Y0160975D03*
X0096569Y0167589D03*
X0096569Y0167628D03*
X0096569Y0167668D03*
X0104088Y0167510D03*
X0104088Y0167471D03*
X0104128Y0167431D03*
X0104128Y0167392D03*
X0104167Y0167274D03*
X0104009Y0162668D03*
X0103970Y0162589D03*
X0103970Y0162550D03*
X0103931Y0162510D03*
X0103931Y0162471D03*
D157*
X0103084Y0161132D03*
X0100407Y0161565D03*
X0100407Y0161605D03*
X0096234Y0165187D03*
X0096234Y0165227D03*
X0096234Y0165266D03*
X0096234Y0165306D03*
X0093320Y0162865D03*
X0088990Y0161211D03*
X0086076Y0161014D03*
X0085761Y0168888D03*
X0085801Y0168928D03*
X0088990Y0168928D03*
X0091667Y0169321D03*
X0100407Y0168573D03*
D158*
X0100368Y0168691D03*
X0103399Y0168849D03*
X0103202Y0161250D03*
X0103163Y0161211D03*
X0100368Y0161487D03*
X0095683Y0161172D03*
X0093360Y0163022D03*
X0093360Y0163061D03*
X0093360Y0163101D03*
X0096273Y0165542D03*
X0096273Y0165581D03*
X0096273Y0165620D03*
X0096273Y0165660D03*
X0091746Y0169243D03*
X0088990Y0168967D03*
X0085722Y0168809D03*
X0085683Y0168770D03*
X0085998Y0161093D03*
X0086037Y0161054D03*
X0088990Y0161172D03*
D159*
X0093419Y0164321D03*
X0093419Y0164361D03*
X0093419Y0164400D03*
X0093419Y0164439D03*
X0093419Y0164479D03*
X0096490Y0167077D03*
X0096490Y0167117D03*
X0096490Y0167156D03*
X0092120Y0168731D03*
X0092080Y0168770D03*
X0085191Y0167865D03*
X0085191Y0167825D03*
X0085151Y0167786D03*
X0085151Y0167746D03*
X0085427Y0161920D03*
X0085466Y0161880D03*
X0085466Y0161841D03*
X0085506Y0161802D03*
X0095820Y0161054D03*
X0100151Y0161290D03*
X0103694Y0161959D03*
X0103694Y0161998D03*
X0103734Y0162038D03*
X0103931Y0167943D03*
X0103891Y0168022D03*
X0103852Y0168101D03*
D160*
X0103281Y0169006D03*
X0103242Y0169046D03*
X0100446Y0168455D03*
X0100446Y0168416D03*
X0100446Y0168376D03*
X0096194Y0164951D03*
X0096194Y0164912D03*
X0096194Y0164872D03*
X0096194Y0164833D03*
X0096194Y0164794D03*
X0093320Y0162786D03*
X0093320Y0162746D03*
X0088990Y0161250D03*
X0088990Y0168888D03*
X0091628Y0169361D03*
X0085840Y0169006D03*
X0100446Y0161762D03*
X0100446Y0161723D03*
X0103006Y0161054D03*
D161*
X0103635Y0161880D03*
X0103675Y0161920D03*
X0103872Y0168061D03*
X0103832Y0168140D03*
X0096470Y0167038D03*
X0096470Y0166998D03*
X0096470Y0166959D03*
X0092061Y0168809D03*
X0085250Y0167983D03*
X0085210Y0167943D03*
X0085210Y0167904D03*
X0085525Y0161762D03*
X0085565Y0161683D03*
X0088990Y0161093D03*
D162*
X0093419Y0163770D03*
X0093419Y0163809D03*
X0093419Y0163849D03*
X0093419Y0163888D03*
X0093419Y0163928D03*
X0093419Y0163967D03*
X0095781Y0161093D03*
X0100230Y0161329D03*
X0103498Y0161644D03*
X0103734Y0168337D03*
X0103694Y0168416D03*
X0096411Y0166644D03*
X0096411Y0166605D03*
X0096411Y0166565D03*
X0091962Y0168967D03*
X0091923Y0169006D03*
X0085387Y0168298D03*
X0085387Y0168258D03*
X0085348Y0168219D03*
X0085663Y0161526D03*
X0085702Y0161487D03*
D163*
X0085978Y0161132D03*
X0085624Y0168691D03*
X0085663Y0168731D03*
X0091765Y0169203D03*
X0096293Y0165817D03*
X0096293Y0165778D03*
X0096293Y0165739D03*
X0096293Y0165699D03*
X0093380Y0163219D03*
X0093380Y0163180D03*
X0093380Y0163140D03*
X0100348Y0161447D03*
X0103222Y0161290D03*
X0103458Y0168770D03*
X0103419Y0168809D03*
X0100348Y0168731D03*
D164*
X0100289Y0168809D03*
X0103557Y0168613D03*
X0103596Y0168573D03*
X0103360Y0161447D03*
X0103320Y0161408D03*
X0095722Y0161132D03*
X0093399Y0163416D03*
X0093399Y0163455D03*
X0093399Y0163494D03*
X0093399Y0163534D03*
X0096352Y0166132D03*
X0096352Y0166172D03*
X0096352Y0166211D03*
X0096352Y0166250D03*
X0091864Y0169085D03*
X0088990Y0169006D03*
X0085525Y0168534D03*
X0085486Y0168455D03*
X0085801Y0161329D03*
X0085840Y0161290D03*
X0088990Y0161132D03*
D165*
X0093399Y0163258D03*
X0096313Y0165857D03*
X0096313Y0165896D03*
X0096313Y0165935D03*
X0100328Y0168770D03*
X0103478Y0168731D03*
X0103517Y0168691D03*
X0103281Y0161329D03*
X0085919Y0161172D03*
X0085604Y0168652D03*
D166*
X0085742Y0168849D03*
X0091687Y0169282D03*
X0096254Y0165502D03*
X0096254Y0165463D03*
X0096254Y0165424D03*
X0096254Y0165384D03*
X0096254Y0165345D03*
X0093340Y0162983D03*
X0093340Y0162943D03*
X0093340Y0162904D03*
X0100387Y0161526D03*
X0103143Y0161172D03*
X0103380Y0168888D03*
X0103340Y0168928D03*
X0100387Y0168652D03*
X0100387Y0168613D03*
D167*
X0103537Y0168652D03*
X0103301Y0161369D03*
X0100309Y0161408D03*
X0096332Y0165975D03*
X0096332Y0166014D03*
X0096332Y0166054D03*
X0096332Y0166093D03*
X0093380Y0163376D03*
X0093380Y0163337D03*
X0093380Y0163298D03*
X0091844Y0169124D03*
X0091805Y0169164D03*
X0085584Y0168613D03*
X0085545Y0168573D03*
X0085860Y0161250D03*
X0085899Y0161211D03*
D168*
X0085781Y0161369D03*
X0085466Y0168416D03*
X0085506Y0168494D03*
X0091883Y0169046D03*
X0096372Y0166369D03*
X0096372Y0166329D03*
X0096372Y0166290D03*
X0093419Y0163652D03*
X0093419Y0163613D03*
X0093419Y0163573D03*
X0100269Y0161369D03*
X0103380Y0161487D03*
X0103419Y0161526D03*
X0103616Y0168534D03*
D169*
X0103635Y0168494D03*
X0103675Y0168455D03*
X0100250Y0168849D03*
X0096391Y0166526D03*
X0096391Y0166487D03*
X0096391Y0166447D03*
X0096391Y0166408D03*
X0093399Y0163731D03*
X0093399Y0163691D03*
X0085761Y0161408D03*
X0085722Y0161447D03*
X0085407Y0168337D03*
X0085446Y0168376D03*
X0103439Y0161565D03*
X0103478Y0161605D03*
D170*
X0103517Y0161683D03*
X0103557Y0161723D03*
X0103754Y0168298D03*
X0103714Y0168376D03*
X0096431Y0166762D03*
X0096431Y0166723D03*
X0096431Y0166683D03*
X0093439Y0164006D03*
X0091982Y0168928D03*
X0088990Y0169046D03*
X0085328Y0168180D03*
X0085328Y0168140D03*
X0085604Y0161605D03*
X0085643Y0161565D03*
D171*
X0085584Y0161644D03*
X0085545Y0161723D03*
X0085269Y0168022D03*
X0085269Y0168061D03*
X0085309Y0168101D03*
X0092002Y0168888D03*
X0092041Y0168849D03*
X0096450Y0166920D03*
X0096450Y0166880D03*
X0096450Y0166841D03*
X0096450Y0166802D03*
X0093419Y0164282D03*
X0093419Y0164243D03*
X0093419Y0164203D03*
X0093419Y0164164D03*
X0093419Y0164124D03*
X0093419Y0164085D03*
X0093419Y0164046D03*
X0100191Y0168888D03*
X0103773Y0168258D03*
X0103813Y0168219D03*
X0103813Y0168180D03*
X0103616Y0161841D03*
X0103576Y0161802D03*
X0103576Y0161762D03*
D172*
X0103754Y0162077D03*
X0103754Y0162117D03*
X0103793Y0162156D03*
X0103990Y0167786D03*
X0103950Y0167865D03*
X0103950Y0167904D03*
X0103911Y0167983D03*
X0096509Y0167274D03*
X0096509Y0167235D03*
X0096509Y0167195D03*
X0093399Y0164676D03*
X0093399Y0164636D03*
X0093399Y0164597D03*
X0093399Y0164557D03*
X0093399Y0164518D03*
X0092179Y0168652D03*
X0092139Y0168691D03*
X0085131Y0167707D03*
X0085131Y0167668D03*
X0085092Y0167628D03*
X0085092Y0167589D03*
X0085368Y0162038D03*
X0085407Y0161959D03*
D173*
X0085112Y0162628D03*
X0085072Y0162746D03*
X0085072Y0162786D03*
X0085033Y0162825D03*
X0085033Y0162865D03*
X0084994Y0162983D03*
X0084757Y0166132D03*
X0084757Y0166172D03*
X0084797Y0166369D03*
X0084797Y0166408D03*
X0084797Y0166447D03*
X0084797Y0166487D03*
X0084797Y0166526D03*
X0084836Y0166565D03*
X0084836Y0166605D03*
X0084836Y0166644D03*
X0084836Y0166683D03*
X0084876Y0166841D03*
X0092356Y0168337D03*
X0092395Y0168298D03*
X0092395Y0168258D03*
X0093301Y0165463D03*
X0093301Y0165424D03*
X0093301Y0165384D03*
X0093301Y0165345D03*
X0096608Y0167825D03*
X0096608Y0167865D03*
X0096608Y0167904D03*
X0104206Y0167117D03*
X0104206Y0167077D03*
X0104246Y0166998D03*
X0104246Y0166959D03*
X0104246Y0166920D03*
X0104285Y0166802D03*
X0104285Y0166762D03*
X0104128Y0163022D03*
X0104128Y0162983D03*
X0104088Y0162943D03*
X0104088Y0162904D03*
X0104088Y0162865D03*
X0104049Y0162786D03*
D174*
X0104206Y0163298D03*
X0104246Y0163416D03*
X0104246Y0163455D03*
X0104246Y0163494D03*
X0104246Y0163534D03*
X0104285Y0163573D03*
X0104285Y0163613D03*
X0104285Y0163652D03*
X0104285Y0163691D03*
X0104324Y0163809D03*
X0104324Y0163849D03*
X0104364Y0164085D03*
X0104403Y0165896D03*
X0104403Y0165935D03*
X0104403Y0165975D03*
X0104403Y0166014D03*
X0104403Y0166054D03*
X0104403Y0166093D03*
X0104403Y0166132D03*
X0104403Y0166172D03*
X0104364Y0166211D03*
X0104364Y0166250D03*
X0104364Y0166290D03*
X0104364Y0166329D03*
X0104364Y0166369D03*
X0104324Y0166565D03*
X0096647Y0168061D03*
X0096647Y0168101D03*
X0096647Y0168140D03*
X0093222Y0165896D03*
X0093222Y0165857D03*
X0093261Y0165739D03*
X0093261Y0165699D03*
X0093261Y0165660D03*
X0093261Y0165620D03*
X0092513Y0168022D03*
X0092513Y0168061D03*
X0092474Y0168101D03*
X0084718Y0165817D03*
X0084718Y0165778D03*
X0084718Y0165739D03*
X0084718Y0165699D03*
X0084718Y0165660D03*
X0084718Y0165620D03*
X0084718Y0165581D03*
X0084718Y0165542D03*
X0084718Y0165502D03*
X0084718Y0165463D03*
X0084718Y0165424D03*
X0084718Y0165384D03*
X0084718Y0165345D03*
X0084718Y0165306D03*
X0084718Y0165266D03*
X0084718Y0165227D03*
X0084718Y0165187D03*
X0084718Y0165148D03*
X0084718Y0165109D03*
X0084718Y0165069D03*
X0084718Y0165030D03*
X0084718Y0164991D03*
X0084718Y0164951D03*
X0084718Y0164912D03*
X0084718Y0164872D03*
X0084718Y0164833D03*
X0084718Y0164794D03*
X0084718Y0164754D03*
X0084718Y0164715D03*
X0084718Y0164676D03*
X0084718Y0164636D03*
X0084718Y0164597D03*
X0084718Y0164557D03*
X0084718Y0164518D03*
X0084718Y0164479D03*
X0084718Y0164439D03*
X0084757Y0164243D03*
X0084757Y0164203D03*
X0084757Y0164164D03*
X0084757Y0164124D03*
X0084757Y0164085D03*
X0084797Y0163967D03*
X0084797Y0163928D03*
X0084797Y0163888D03*
X0084797Y0163849D03*
X0084797Y0163809D03*
X0084836Y0163731D03*
X0084836Y0163691D03*
X0084836Y0163652D03*
X0084836Y0163613D03*
X0084836Y0163573D03*
X0084876Y0163534D03*
X0084876Y0163494D03*
X0084876Y0163455D03*
X0084876Y0163416D03*
X0084915Y0163298D03*
X0084915Y0163258D03*
X0084954Y0163140D03*
D175*
X0096706Y0168770D03*
D176*
X0086431Y0169557D03*
D177*
X0086470Y0169597D03*
X0091155Y0169715D03*
D178*
X0091076Y0169754D03*
X0102572Y0169597D03*
D179*
X0086864Y0169794D03*
D180*
X0090840Y0169833D03*
D181*
X0088852Y0169951D03*
X0100230Y0169991D03*
D182*
X0094561Y0174164D03*
D183*
X0094561Y0174203D03*
M02*
