G75*
%MOIN*%
%OFA0B0*%
%FSLAX25Y25*%
%IPPOS*%
%LPD*%
%AMOC8*
5,1,8,0,0,1.08239X$1,22.5*
%
%ADD10C,0.00000*%
%ADD11C,0.15024*%
%ADD12C,0.06000*%
%ADD13C,0.07087*%
%ADD14C,0.08400*%
%ADD15C,0.02000*%
D10*
X0016773Y0004109D02*
X0244332Y0004109D01*
X0244674Y0004113D01*
X0245017Y0004126D01*
X0245359Y0004146D01*
X0245700Y0004175D01*
X0246040Y0004212D01*
X0246380Y0004258D01*
X0246718Y0004311D01*
X0247055Y0004373D01*
X0247390Y0004443D01*
X0247724Y0004521D01*
X0248055Y0004607D01*
X0248385Y0004701D01*
X0248712Y0004803D01*
X0249036Y0004912D01*
X0249358Y0005030D01*
X0249677Y0005155D01*
X0249992Y0005288D01*
X0250305Y0005429D01*
X0250613Y0005577D01*
X0250919Y0005732D01*
X0251220Y0005895D01*
X0251517Y0006065D01*
X0251810Y0006242D01*
X0252099Y0006427D01*
X0252383Y0006618D01*
X0252663Y0006816D01*
X0252937Y0007020D01*
X0253207Y0007232D01*
X0253471Y0007449D01*
X0253730Y0007673D01*
X0253984Y0007904D01*
X0254232Y0008140D01*
X0254474Y0008382D01*
X0254710Y0008630D01*
X0254941Y0008884D01*
X0255165Y0009143D01*
X0255382Y0009407D01*
X0255594Y0009677D01*
X0255798Y0009951D01*
X0255996Y0010231D01*
X0256187Y0010515D01*
X0256372Y0010804D01*
X0256549Y0011097D01*
X0256719Y0011394D01*
X0256882Y0011695D01*
X0257037Y0012001D01*
X0257185Y0012309D01*
X0257326Y0012622D01*
X0257459Y0012937D01*
X0257584Y0013256D01*
X0257702Y0013578D01*
X0257811Y0013902D01*
X0257913Y0014229D01*
X0258007Y0014559D01*
X0258093Y0014890D01*
X0258171Y0015224D01*
X0258241Y0015559D01*
X0258303Y0015896D01*
X0258356Y0016234D01*
X0258402Y0016574D01*
X0258439Y0016914D01*
X0258468Y0017255D01*
X0258488Y0017597D01*
X0258501Y0017940D01*
X0258505Y0018282D01*
X0258506Y0018282D02*
X0258506Y0210408D01*
X0258505Y0210408D02*
X0258501Y0210750D01*
X0258488Y0211093D01*
X0258468Y0211435D01*
X0258439Y0211776D01*
X0258402Y0212116D01*
X0258356Y0212456D01*
X0258303Y0212794D01*
X0258241Y0213131D01*
X0258171Y0213466D01*
X0258093Y0213800D01*
X0258007Y0214131D01*
X0257913Y0214461D01*
X0257811Y0214788D01*
X0257702Y0215112D01*
X0257584Y0215434D01*
X0257459Y0215753D01*
X0257326Y0216068D01*
X0257185Y0216381D01*
X0257037Y0216689D01*
X0256882Y0216995D01*
X0256719Y0217296D01*
X0256549Y0217593D01*
X0256372Y0217886D01*
X0256187Y0218175D01*
X0255996Y0218459D01*
X0255798Y0218739D01*
X0255594Y0219013D01*
X0255382Y0219283D01*
X0255165Y0219547D01*
X0254941Y0219806D01*
X0254710Y0220060D01*
X0254474Y0220308D01*
X0254232Y0220550D01*
X0253984Y0220786D01*
X0253730Y0221017D01*
X0253471Y0221241D01*
X0253207Y0221458D01*
X0252937Y0221670D01*
X0252663Y0221874D01*
X0252383Y0222072D01*
X0252099Y0222263D01*
X0251810Y0222448D01*
X0251517Y0222625D01*
X0251220Y0222795D01*
X0250919Y0222958D01*
X0250613Y0223113D01*
X0250305Y0223261D01*
X0249992Y0223402D01*
X0249677Y0223535D01*
X0249358Y0223660D01*
X0249036Y0223778D01*
X0248712Y0223887D01*
X0248385Y0223989D01*
X0248055Y0224083D01*
X0247724Y0224169D01*
X0247390Y0224247D01*
X0247055Y0224317D01*
X0246718Y0224379D01*
X0246380Y0224432D01*
X0246040Y0224478D01*
X0245700Y0224515D01*
X0245359Y0224544D01*
X0245017Y0224564D01*
X0244674Y0224577D01*
X0244332Y0224581D01*
X0016773Y0224581D01*
X0016431Y0224577D01*
X0016088Y0224564D01*
X0015746Y0224544D01*
X0015405Y0224515D01*
X0015065Y0224478D01*
X0014725Y0224432D01*
X0014387Y0224379D01*
X0014050Y0224317D01*
X0013715Y0224247D01*
X0013381Y0224169D01*
X0013050Y0224083D01*
X0012720Y0223989D01*
X0012393Y0223887D01*
X0012069Y0223778D01*
X0011747Y0223660D01*
X0011428Y0223535D01*
X0011113Y0223402D01*
X0010800Y0223261D01*
X0010492Y0223113D01*
X0010186Y0222958D01*
X0009885Y0222795D01*
X0009588Y0222625D01*
X0009295Y0222448D01*
X0009006Y0222263D01*
X0008722Y0222072D01*
X0008442Y0221874D01*
X0008168Y0221670D01*
X0007898Y0221458D01*
X0007634Y0221241D01*
X0007375Y0221017D01*
X0007121Y0220786D01*
X0006873Y0220550D01*
X0006631Y0220308D01*
X0006395Y0220060D01*
X0006164Y0219806D01*
X0005940Y0219547D01*
X0005723Y0219283D01*
X0005511Y0219013D01*
X0005307Y0218739D01*
X0005109Y0218459D01*
X0004918Y0218175D01*
X0004733Y0217886D01*
X0004556Y0217593D01*
X0004386Y0217296D01*
X0004223Y0216995D01*
X0004068Y0216689D01*
X0003920Y0216381D01*
X0003779Y0216068D01*
X0003646Y0215753D01*
X0003521Y0215434D01*
X0003403Y0215112D01*
X0003294Y0214788D01*
X0003192Y0214461D01*
X0003098Y0214131D01*
X0003012Y0213800D01*
X0002934Y0213466D01*
X0002864Y0213131D01*
X0002802Y0212794D01*
X0002749Y0212456D01*
X0002703Y0212116D01*
X0002666Y0211776D01*
X0002637Y0211435D01*
X0002617Y0211093D01*
X0002604Y0210750D01*
X0002600Y0210408D01*
X0002600Y0018282D01*
X0002604Y0017940D01*
X0002617Y0017597D01*
X0002637Y0017255D01*
X0002666Y0016914D01*
X0002703Y0016574D01*
X0002749Y0016234D01*
X0002802Y0015896D01*
X0002864Y0015559D01*
X0002934Y0015224D01*
X0003012Y0014890D01*
X0003098Y0014559D01*
X0003192Y0014229D01*
X0003294Y0013902D01*
X0003403Y0013578D01*
X0003521Y0013256D01*
X0003646Y0012937D01*
X0003779Y0012622D01*
X0003920Y0012309D01*
X0004068Y0012001D01*
X0004223Y0011695D01*
X0004386Y0011394D01*
X0004556Y0011097D01*
X0004733Y0010804D01*
X0004918Y0010515D01*
X0005109Y0010231D01*
X0005307Y0009951D01*
X0005511Y0009677D01*
X0005723Y0009407D01*
X0005940Y0009143D01*
X0006164Y0008884D01*
X0006395Y0008630D01*
X0006631Y0008382D01*
X0006873Y0008140D01*
X0007121Y0007904D01*
X0007375Y0007673D01*
X0007634Y0007449D01*
X0007898Y0007232D01*
X0008168Y0007020D01*
X0008442Y0006816D01*
X0008722Y0006618D01*
X0009006Y0006427D01*
X0009295Y0006242D01*
X0009588Y0006065D01*
X0009885Y0005895D01*
X0010186Y0005732D01*
X0010492Y0005577D01*
X0010800Y0005429D01*
X0011113Y0005288D01*
X0011428Y0005155D01*
X0011747Y0005030D01*
X0012069Y0004912D01*
X0012393Y0004803D01*
X0012720Y0004701D01*
X0013050Y0004607D01*
X0013381Y0004521D01*
X0013715Y0004443D01*
X0014050Y0004373D01*
X0014387Y0004311D01*
X0014725Y0004258D01*
X0015065Y0004212D01*
X0015405Y0004175D01*
X0015746Y0004146D01*
X0016088Y0004126D01*
X0016431Y0004113D01*
X0016773Y0004109D01*
D11*
X0016773Y0018282D03*
X0016773Y0210408D03*
X0244332Y0210408D03*
X0244332Y0018282D03*
D12*
X0225541Y0014117D03*
X0215541Y0014117D03*
X0205541Y0014117D03*
X0195541Y0014117D03*
X0185541Y0014117D03*
X0175541Y0014117D03*
X0165541Y0014117D03*
X0155541Y0014117D03*
X0145541Y0014117D03*
X0135541Y0014117D03*
X0125541Y0014117D03*
X0115541Y0014117D03*
X0105541Y0014117D03*
X0095541Y0014117D03*
X0085541Y0014117D03*
X0075541Y0014117D03*
X0065541Y0014117D03*
X0055541Y0014117D03*
X0045541Y0014117D03*
X0035541Y0014117D03*
X0035541Y0024117D03*
X0045541Y0024117D03*
X0055541Y0024117D03*
X0065541Y0024117D03*
X0075541Y0024117D03*
X0085541Y0024117D03*
X0095541Y0024117D03*
X0105541Y0024117D03*
X0115541Y0024117D03*
X0125541Y0024117D03*
X0135541Y0024117D03*
X0145541Y0024117D03*
X0155541Y0024117D03*
X0165541Y0024117D03*
X0175541Y0024117D03*
X0185541Y0024117D03*
X0195541Y0024117D03*
X0205541Y0024117D03*
X0215541Y0024117D03*
X0225541Y0024117D03*
X0192600Y0044109D03*
X0192600Y0054109D03*
X0192600Y0064109D03*
X0182600Y0064109D03*
X0182600Y0054109D03*
X0182600Y0044109D03*
X0082600Y0124109D03*
X0072600Y0124109D03*
X0062600Y0124109D03*
X0062600Y0134109D03*
X0072600Y0134109D03*
X0082600Y0134109D03*
X0147600Y0146609D03*
X0147600Y0156609D03*
X0147600Y0166609D03*
D13*
X0217915Y0054109D03*
X0237600Y0054109D03*
D14*
X0207600Y0184109D03*
X0187600Y0195359D03*
X0207600Y0207859D03*
D15*
X0195100Y0201609D03*
X0177600Y0191609D03*
X0175100Y0171609D03*
X0155100Y0176609D03*
X0135100Y0176609D03*
X0130100Y0196609D03*
X0107600Y0199109D03*
X0125100Y0219109D03*
X0150100Y0219109D03*
X0152600Y0199109D03*
X0175100Y0219109D03*
X0225100Y0216609D03*
X0225100Y0191609D03*
X0225100Y0176609D03*
X0252600Y0171609D03*
X0252600Y0191609D03*
X0175100Y0134109D03*
X0162600Y0144109D03*
X0145100Y0136609D03*
X0160100Y0124109D03*
X0162600Y0106609D03*
X0177600Y0109109D03*
X0185100Y0094109D03*
X0197600Y0091609D03*
X0200100Y0106609D03*
X0220100Y0111609D03*
X0190100Y0074109D03*
X0177600Y0081609D03*
X0162600Y0089109D03*
X0140100Y0074109D03*
X0132600Y0089109D03*
X0115100Y0106609D03*
X0102600Y0086609D03*
X0120100Y0066609D03*
X0135100Y0054109D03*
X0135100Y0034109D03*
X0152600Y0034109D03*
X0165572Y0043400D03*
X0175100Y0044109D03*
X0187600Y0036609D03*
X0172600Y0031609D03*
X0155100Y0049109D03*
X0165100Y0064109D03*
X0140100Y0111609D03*
X0125100Y0129109D03*
X0100100Y0129109D03*
X0080100Y0111609D03*
X0062600Y0094109D03*
X0042600Y0089109D03*
X0025100Y0106609D03*
X0007600Y0116609D03*
X0025100Y0136609D03*
X0007600Y0149109D03*
X0027600Y0171609D03*
X0007600Y0176609D03*
X0007600Y0194109D03*
X0032600Y0194109D03*
X0047600Y0209109D03*
X0032600Y0219109D03*
X0052600Y0181609D03*
X0077600Y0199109D03*
X0077600Y0219109D03*
X0100100Y0179109D03*
X0080100Y0159109D03*
X0102600Y0154109D03*
X0050100Y0151609D03*
X0045100Y0116609D03*
X0010100Y0086609D03*
X0010100Y0064109D03*
X0010100Y0041609D03*
X0032600Y0046609D03*
X0042600Y0031609D03*
X0055100Y0041609D03*
X0060100Y0031609D03*
X0075100Y0046609D03*
X0080100Y0031609D03*
X0100100Y0031609D03*
X0110100Y0044109D03*
X0097600Y0061609D03*
X0077600Y0076609D03*
X0047600Y0066609D03*
X0030100Y0009109D03*
X0060887Y0007928D03*
X0090494Y0008321D03*
X0120887Y0007928D03*
X0150631Y0008321D03*
X0181025Y0008715D03*
X0200887Y0008321D03*
X0237856Y0033183D03*
X0255100Y0031609D03*
M02*
