G75*
%MOIN*%
%OFA0B0*%
%FSLAX25Y25*%
%IPPOS*%
%LPD*%
%AMOC8*
5,1,8,0,0,1.08239X$1,22.5*
%
%ADD10C,0.00000*%
%ADD11C,0.21000*%
%ADD12R,0.06102X0.12992*%
%ADD13C,0.06000*%
%ADD14R,0.10236X0.06299*%
%ADD15R,0.15748X0.07087*%
%ADD16R,0.11811X0.19685*%
%ADD17R,0.03543X0.02756*%
%ADD18OC8,0.06000*%
%ADD19R,0.08600X0.08600*%
%ADD20R,0.10000X0.10000*%
%ADD21OC8,0.10000*%
%ADD22OC8,0.07400*%
%ADD23C,0.03200*%
%ADD24C,0.02000*%
%ADD25C,0.04000*%
%ADD26C,0.01000*%
%ADD27C,0.01600*%
D10*
X0016773Y0004109D02*
X0244332Y0004109D01*
X0244674Y0004113D01*
X0245017Y0004126D01*
X0245359Y0004146D01*
X0245700Y0004175D01*
X0246040Y0004212D01*
X0246380Y0004258D01*
X0246718Y0004311D01*
X0247055Y0004373D01*
X0247390Y0004443D01*
X0247724Y0004521D01*
X0248055Y0004607D01*
X0248385Y0004701D01*
X0248712Y0004803D01*
X0249036Y0004912D01*
X0249358Y0005030D01*
X0249677Y0005155D01*
X0249992Y0005288D01*
X0250305Y0005429D01*
X0250613Y0005577D01*
X0250919Y0005732D01*
X0251220Y0005895D01*
X0251517Y0006065D01*
X0251810Y0006242D01*
X0252099Y0006427D01*
X0252383Y0006618D01*
X0252663Y0006816D01*
X0252937Y0007020D01*
X0253207Y0007232D01*
X0253471Y0007449D01*
X0253730Y0007673D01*
X0253984Y0007904D01*
X0254232Y0008140D01*
X0254474Y0008382D01*
X0254710Y0008630D01*
X0254941Y0008884D01*
X0255165Y0009143D01*
X0255382Y0009407D01*
X0255594Y0009677D01*
X0255798Y0009951D01*
X0255996Y0010231D01*
X0256187Y0010515D01*
X0256372Y0010804D01*
X0256549Y0011097D01*
X0256719Y0011394D01*
X0256882Y0011695D01*
X0257037Y0012001D01*
X0257185Y0012309D01*
X0257326Y0012622D01*
X0257459Y0012937D01*
X0257584Y0013256D01*
X0257702Y0013578D01*
X0257811Y0013902D01*
X0257913Y0014229D01*
X0258007Y0014559D01*
X0258093Y0014890D01*
X0258171Y0015224D01*
X0258241Y0015559D01*
X0258303Y0015896D01*
X0258356Y0016234D01*
X0258402Y0016574D01*
X0258439Y0016914D01*
X0258468Y0017255D01*
X0258488Y0017597D01*
X0258501Y0017940D01*
X0258505Y0018282D01*
X0258506Y0018282D02*
X0258506Y0210408D01*
X0258505Y0210408D02*
X0258501Y0210750D01*
X0258488Y0211093D01*
X0258468Y0211435D01*
X0258439Y0211776D01*
X0258402Y0212116D01*
X0258356Y0212456D01*
X0258303Y0212794D01*
X0258241Y0213131D01*
X0258171Y0213466D01*
X0258093Y0213800D01*
X0258007Y0214131D01*
X0257913Y0214461D01*
X0257811Y0214788D01*
X0257702Y0215112D01*
X0257584Y0215434D01*
X0257459Y0215753D01*
X0257326Y0216068D01*
X0257185Y0216381D01*
X0257037Y0216689D01*
X0256882Y0216995D01*
X0256719Y0217296D01*
X0256549Y0217593D01*
X0256372Y0217886D01*
X0256187Y0218175D01*
X0255996Y0218459D01*
X0255798Y0218739D01*
X0255594Y0219013D01*
X0255382Y0219283D01*
X0255165Y0219547D01*
X0254941Y0219806D01*
X0254710Y0220060D01*
X0254474Y0220308D01*
X0254232Y0220550D01*
X0253984Y0220786D01*
X0253730Y0221017D01*
X0253471Y0221241D01*
X0253207Y0221458D01*
X0252937Y0221670D01*
X0252663Y0221874D01*
X0252383Y0222072D01*
X0252099Y0222263D01*
X0251810Y0222448D01*
X0251517Y0222625D01*
X0251220Y0222795D01*
X0250919Y0222958D01*
X0250613Y0223113D01*
X0250305Y0223261D01*
X0249992Y0223402D01*
X0249677Y0223535D01*
X0249358Y0223660D01*
X0249036Y0223778D01*
X0248712Y0223887D01*
X0248385Y0223989D01*
X0248055Y0224083D01*
X0247724Y0224169D01*
X0247390Y0224247D01*
X0247055Y0224317D01*
X0246718Y0224379D01*
X0246380Y0224432D01*
X0246040Y0224478D01*
X0245700Y0224515D01*
X0245359Y0224544D01*
X0245017Y0224564D01*
X0244674Y0224577D01*
X0244332Y0224581D01*
X0016773Y0224581D01*
X0016431Y0224577D01*
X0016088Y0224564D01*
X0015746Y0224544D01*
X0015405Y0224515D01*
X0015065Y0224478D01*
X0014725Y0224432D01*
X0014387Y0224379D01*
X0014050Y0224317D01*
X0013715Y0224247D01*
X0013381Y0224169D01*
X0013050Y0224083D01*
X0012720Y0223989D01*
X0012393Y0223887D01*
X0012069Y0223778D01*
X0011747Y0223660D01*
X0011428Y0223535D01*
X0011113Y0223402D01*
X0010800Y0223261D01*
X0010492Y0223113D01*
X0010186Y0222958D01*
X0009885Y0222795D01*
X0009588Y0222625D01*
X0009295Y0222448D01*
X0009006Y0222263D01*
X0008722Y0222072D01*
X0008442Y0221874D01*
X0008168Y0221670D01*
X0007898Y0221458D01*
X0007634Y0221241D01*
X0007375Y0221017D01*
X0007121Y0220786D01*
X0006873Y0220550D01*
X0006631Y0220308D01*
X0006395Y0220060D01*
X0006164Y0219806D01*
X0005940Y0219547D01*
X0005723Y0219283D01*
X0005511Y0219013D01*
X0005307Y0218739D01*
X0005109Y0218459D01*
X0004918Y0218175D01*
X0004733Y0217886D01*
X0004556Y0217593D01*
X0004386Y0217296D01*
X0004223Y0216995D01*
X0004068Y0216689D01*
X0003920Y0216381D01*
X0003779Y0216068D01*
X0003646Y0215753D01*
X0003521Y0215434D01*
X0003403Y0215112D01*
X0003294Y0214788D01*
X0003192Y0214461D01*
X0003098Y0214131D01*
X0003012Y0213800D01*
X0002934Y0213466D01*
X0002864Y0213131D01*
X0002802Y0212794D01*
X0002749Y0212456D01*
X0002703Y0212116D01*
X0002666Y0211776D01*
X0002637Y0211435D01*
X0002617Y0211093D01*
X0002604Y0210750D01*
X0002600Y0210408D01*
X0002600Y0018282D01*
X0002604Y0017940D01*
X0002617Y0017597D01*
X0002637Y0017255D01*
X0002666Y0016914D01*
X0002703Y0016574D01*
X0002749Y0016234D01*
X0002802Y0015896D01*
X0002864Y0015559D01*
X0002934Y0015224D01*
X0003012Y0014890D01*
X0003098Y0014559D01*
X0003192Y0014229D01*
X0003294Y0013902D01*
X0003403Y0013578D01*
X0003521Y0013256D01*
X0003646Y0012937D01*
X0003779Y0012622D01*
X0003920Y0012309D01*
X0004068Y0012001D01*
X0004223Y0011695D01*
X0004386Y0011394D01*
X0004556Y0011097D01*
X0004733Y0010804D01*
X0004918Y0010515D01*
X0005109Y0010231D01*
X0005307Y0009951D01*
X0005511Y0009677D01*
X0005723Y0009407D01*
X0005940Y0009143D01*
X0006164Y0008884D01*
X0006395Y0008630D01*
X0006631Y0008382D01*
X0006873Y0008140D01*
X0007121Y0007904D01*
X0007375Y0007673D01*
X0007634Y0007449D01*
X0007898Y0007232D01*
X0008168Y0007020D01*
X0008442Y0006816D01*
X0008722Y0006618D01*
X0009006Y0006427D01*
X0009295Y0006242D01*
X0009588Y0006065D01*
X0009885Y0005895D01*
X0010186Y0005732D01*
X0010492Y0005577D01*
X0010800Y0005429D01*
X0011113Y0005288D01*
X0011428Y0005155D01*
X0011747Y0005030D01*
X0012069Y0004912D01*
X0012393Y0004803D01*
X0012720Y0004701D01*
X0013050Y0004607D01*
X0013381Y0004521D01*
X0013715Y0004443D01*
X0014050Y0004373D01*
X0014387Y0004311D01*
X0014725Y0004258D01*
X0015065Y0004212D01*
X0015405Y0004175D01*
X0015746Y0004146D01*
X0016088Y0004126D01*
X0016431Y0004113D01*
X0016773Y0004109D01*
D11*
X0016773Y0018282D03*
X0016773Y0210408D03*
X0244332Y0210408D03*
X0244332Y0018282D03*
D12*
X0188702Y0156609D03*
X0171498Y0156609D03*
D13*
X0150600Y0156609D02*
X0144600Y0156609D01*
X0144600Y0166609D02*
X0150600Y0166609D01*
X0150600Y0146609D02*
X0144600Y0146609D01*
D14*
X0129687Y0146609D03*
X0115513Y0146609D03*
X0115513Y0166609D03*
X0129687Y0166609D03*
D15*
X0212600Y0098951D03*
X0212600Y0079266D03*
X0242600Y0079266D03*
X0242600Y0098951D03*
D16*
X0246754Y0134109D03*
X0203446Y0134109D03*
D17*
X0190100Y0120093D03*
X0190100Y0114975D03*
X0237600Y0165369D03*
X0237600Y0170487D03*
X0237600Y0174581D03*
X0237600Y0179699D03*
D18*
X0192600Y0064109D03*
X0182600Y0064109D03*
X0182600Y0054109D03*
X0192600Y0054109D03*
X0192600Y0044109D03*
X0182600Y0044109D03*
X0082600Y0124109D03*
X0072600Y0124109D03*
X0062600Y0124109D03*
X0062600Y0134109D03*
X0072600Y0134109D03*
X0082600Y0134109D03*
D19*
X0217915Y0054109D03*
X0237600Y0054109D03*
D20*
X0207600Y0184109D03*
D21*
X0187600Y0195359D03*
X0207600Y0207859D03*
D22*
X0205541Y0024117D03*
X0215541Y0024117D03*
X0225541Y0024117D03*
X0225541Y0014117D03*
X0215541Y0014117D03*
X0205541Y0014117D03*
X0195541Y0014117D03*
X0185541Y0014117D03*
X0175541Y0014117D03*
X0165541Y0014117D03*
X0155541Y0014117D03*
X0145541Y0014117D03*
X0135541Y0014117D03*
X0125541Y0014117D03*
X0115541Y0014117D03*
X0105541Y0014117D03*
X0095541Y0014117D03*
X0085541Y0014117D03*
X0075541Y0014117D03*
X0065541Y0014117D03*
X0055541Y0014117D03*
X0045541Y0014117D03*
X0035541Y0014117D03*
X0035541Y0024117D03*
X0045541Y0024117D03*
X0055541Y0024117D03*
X0065541Y0024117D03*
X0075541Y0024117D03*
X0085541Y0024117D03*
X0095541Y0024117D03*
X0105541Y0024117D03*
X0115541Y0024117D03*
X0125541Y0024117D03*
X0135541Y0024117D03*
X0145541Y0024117D03*
X0155541Y0024117D03*
X0165541Y0024117D03*
X0175541Y0024117D03*
X0185541Y0024117D03*
X0195541Y0024117D03*
D23*
X0190682Y0027885D02*
X0188150Y0030417D01*
X0185541Y0030417D01*
X0182931Y0030417D01*
X0180400Y0027885D01*
X0178068Y0030217D01*
X0173014Y0030217D01*
X0170541Y0027743D01*
X0168068Y0030217D01*
X0163014Y0030217D01*
X0160541Y0027743D01*
X0158068Y0030217D01*
X0153014Y0030217D01*
X0150541Y0027743D01*
X0148068Y0030217D01*
X0143014Y0030217D01*
X0140541Y0027743D01*
X0138068Y0030217D01*
X0133014Y0030217D01*
X0130541Y0027743D01*
X0128068Y0030217D01*
X0123014Y0030217D01*
X0120541Y0027743D01*
X0118068Y0030217D01*
X0113014Y0030217D01*
X0110682Y0027885D01*
X0108150Y0030417D01*
X0105541Y0030417D01*
X0102931Y0030417D01*
X0100400Y0027885D01*
X0098068Y0030217D01*
X0093014Y0030217D01*
X0090541Y0027743D01*
X0088068Y0030217D01*
X0083014Y0030217D01*
X0080541Y0027743D01*
X0078068Y0030217D01*
X0073014Y0030217D01*
X0070541Y0027743D01*
X0068068Y0030217D01*
X0063014Y0030217D01*
X0060541Y0027743D01*
X0058068Y0030217D01*
X0053014Y0030217D01*
X0050541Y0027743D01*
X0048068Y0030217D01*
X0043014Y0030217D01*
X0040682Y0027885D01*
X0038150Y0030417D01*
X0035541Y0030417D01*
X0032931Y0030417D01*
X0029241Y0026726D01*
X0029241Y0024117D01*
X0035541Y0024117D01*
X0035541Y0024117D01*
X0035541Y0030417D01*
X0035541Y0024117D01*
X0035541Y0024116D01*
X0029241Y0024116D01*
X0029241Y0022309D01*
X0029122Y0022700D01*
X0028630Y0023890D01*
X0028023Y0025025D01*
X0027308Y0026095D01*
X0026491Y0027090D01*
X0025581Y0028000D01*
X0024586Y0028817D01*
X0023516Y0029532D01*
X0022381Y0030138D01*
X0021192Y0030631D01*
X0019960Y0031005D01*
X0018698Y0031256D01*
X0017929Y0031331D01*
X0017929Y0019438D01*
X0015617Y0019438D01*
X0015617Y0031331D01*
X0014849Y0031256D01*
X0013586Y0031005D01*
X0012355Y0030631D01*
X0011165Y0030138D01*
X0010030Y0029532D01*
X0008960Y0028817D01*
X0007965Y0028000D01*
X0007055Y0027090D01*
X0006239Y0026095D01*
X0005523Y0025025D01*
X0005200Y0024420D01*
X0005200Y0204270D01*
X0005523Y0203665D01*
X0006239Y0202595D01*
X0007055Y0201600D01*
X0007965Y0200690D01*
X0008960Y0199873D01*
X0010030Y0199158D01*
X0011165Y0198551D01*
X0012355Y0198059D01*
X0013586Y0197685D01*
X0014849Y0197434D01*
X0015617Y0197358D01*
X0015617Y0209252D01*
X0017929Y0209252D01*
X0017929Y0197358D01*
X0018698Y0197434D01*
X0019960Y0197685D01*
X0021192Y0198059D01*
X0022381Y0198551D01*
X0023516Y0199158D01*
X0024586Y0199873D01*
X0025581Y0200690D01*
X0026491Y0201600D01*
X0027308Y0202595D01*
X0028023Y0203665D01*
X0028630Y0204800D01*
X0029122Y0205989D01*
X0029496Y0207221D01*
X0029747Y0208483D01*
X0029823Y0209252D01*
X0017929Y0209252D01*
X0017929Y0211564D01*
X0029823Y0211564D01*
X0029747Y0212332D01*
X0029496Y0213595D01*
X0029122Y0214826D01*
X0028630Y0216016D01*
X0028023Y0217151D01*
X0027308Y0218221D01*
X0026491Y0219216D01*
X0025581Y0220126D01*
X0024586Y0220943D01*
X0023516Y0221658D01*
X0022911Y0221981D01*
X0238195Y0221981D01*
X0237589Y0221658D01*
X0236519Y0220943D01*
X0235524Y0220126D01*
X0234614Y0219216D01*
X0233798Y0218221D01*
X0233082Y0217151D01*
X0232476Y0216016D01*
X0231983Y0214826D01*
X0231610Y0213595D01*
X0231358Y0212332D01*
X0231283Y0211564D01*
X0243176Y0211564D01*
X0243176Y0209252D01*
X0231283Y0209252D01*
X0231358Y0208483D01*
X0231610Y0207221D01*
X0231983Y0205989D01*
X0232476Y0204800D01*
X0233082Y0203665D01*
X0233798Y0202595D01*
X0234614Y0201600D01*
X0235524Y0200690D01*
X0236519Y0199873D01*
X0237589Y0199158D01*
X0238725Y0198551D01*
X0239914Y0198059D01*
X0241145Y0197685D01*
X0242408Y0197434D01*
X0243176Y0197358D01*
X0243176Y0209252D01*
X0245488Y0209252D01*
X0245488Y0197358D01*
X0246257Y0197434D01*
X0247519Y0197685D01*
X0248751Y0198059D01*
X0249940Y0198551D01*
X0251075Y0199158D01*
X0252145Y0199873D01*
X0253140Y0200690D01*
X0254050Y0201600D01*
X0254867Y0202595D01*
X0255582Y0203665D01*
X0255906Y0204270D01*
X0255906Y0170283D01*
X0241772Y0170283D01*
X0241772Y0172342D01*
X0241692Y0172534D01*
X0241772Y0172726D01*
X0241772Y0176436D01*
X0241568Y0176928D01*
X0241676Y0177090D01*
X0241872Y0177563D01*
X0241972Y0178065D01*
X0241972Y0179699D01*
X0237600Y0179699D01*
X0237600Y0179699D01*
X0233228Y0179699D01*
X0233228Y0178065D01*
X0233328Y0177563D01*
X0233524Y0177090D01*
X0233632Y0176928D01*
X0233428Y0176436D01*
X0233428Y0172726D01*
X0233508Y0172534D01*
X0233428Y0172342D01*
X0233428Y0170283D01*
X0226869Y0170283D01*
X0225518Y0169724D01*
X0224485Y0168690D01*
X0223925Y0167340D01*
X0223925Y0090677D01*
X0197791Y0090677D01*
X0196295Y0090058D01*
X0195151Y0088913D01*
X0194531Y0087418D01*
X0194531Y0070677D01*
X0189879Y0070677D01*
X0187600Y0068398D01*
X0185321Y0070677D01*
X0179879Y0070677D01*
X0176031Y0066829D01*
X0176031Y0061388D01*
X0179137Y0058282D01*
X0177200Y0056345D01*
X0177200Y0051872D01*
X0179137Y0049935D01*
X0176031Y0046829D01*
X0176031Y0041388D01*
X0179879Y0037540D01*
X0185321Y0037540D01*
X0187600Y0039819D01*
X0189879Y0037540D01*
X0194531Y0037540D01*
X0194531Y0035799D01*
X0195151Y0034304D01*
X0196295Y0033160D01*
X0197791Y0032540D01*
X0225909Y0032540D01*
X0226850Y0032930D01*
X0227791Y0032540D01*
X0255906Y0032540D01*
X0255906Y0024420D01*
X0255582Y0025025D01*
X0254867Y0026095D01*
X0254050Y0027090D01*
X0253140Y0028000D01*
X0252145Y0028817D01*
X0251075Y0029532D01*
X0249940Y0030138D01*
X0248751Y0030631D01*
X0247519Y0031005D01*
X0246257Y0031256D01*
X0245488Y0031331D01*
X0245488Y0019438D01*
X0243176Y0019438D01*
X0243176Y0017126D01*
X0231283Y0017126D01*
X0231296Y0016988D01*
X0229168Y0019117D01*
X0231641Y0021590D01*
X0231641Y0026643D01*
X0228068Y0030217D01*
X0223014Y0030217D01*
X0220541Y0027743D01*
X0218068Y0030217D01*
X0213014Y0030217D01*
X0210541Y0027743D01*
X0208068Y0030217D01*
X0203014Y0030217D01*
X0200541Y0027743D01*
X0198068Y0030217D01*
X0193014Y0030217D01*
X0190682Y0027885D01*
X0188870Y0029697D02*
X0192494Y0029697D01*
X0196933Y0032895D02*
X0005200Y0032895D01*
X0005200Y0029697D02*
X0010339Y0029697D01*
X0006569Y0026498D02*
X0005200Y0026498D01*
X0005200Y0036094D02*
X0194531Y0036094D01*
X0188127Y0039292D02*
X0187073Y0039292D01*
X0178127Y0039292D02*
X0005200Y0039292D01*
X0005200Y0042491D02*
X0176031Y0042491D01*
X0176031Y0045689D02*
X0005200Y0045689D01*
X0005200Y0048888D02*
X0178090Y0048888D01*
X0177200Y0052086D02*
X0005200Y0052086D01*
X0005200Y0055285D02*
X0177200Y0055285D01*
X0178936Y0058483D02*
X0005200Y0058483D01*
X0005200Y0061682D02*
X0176031Y0061682D01*
X0176031Y0064880D02*
X0005200Y0064880D01*
X0005200Y0068079D02*
X0177281Y0068079D01*
X0194531Y0071277D02*
X0005200Y0071277D01*
X0005200Y0074476D02*
X0194531Y0074476D01*
X0194531Y0077674D02*
X0005200Y0077674D01*
X0005200Y0080873D02*
X0194531Y0080873D01*
X0194531Y0084071D02*
X0005200Y0084071D01*
X0005200Y0087270D02*
X0194531Y0087270D01*
X0197287Y0090468D02*
X0005200Y0090468D01*
X0005200Y0093667D02*
X0202790Y0093667D01*
X0202706Y0093750D02*
X0203069Y0093388D01*
X0203494Y0093104D01*
X0203968Y0092908D01*
X0204470Y0092808D01*
X0212428Y0092808D01*
X0212428Y0098779D01*
X0212772Y0098779D01*
X0212772Y0092808D01*
X0220730Y0092808D01*
X0221232Y0092908D01*
X0221706Y0093104D01*
X0222131Y0093388D01*
X0222494Y0093750D01*
X0222778Y0094176D01*
X0222974Y0094649D01*
X0223074Y0095152D01*
X0223074Y0098780D01*
X0212772Y0098780D01*
X0212772Y0099123D01*
X0223074Y0099123D01*
X0223074Y0102751D01*
X0222974Y0103253D01*
X0222778Y0103726D01*
X0222494Y0104152D01*
X0222131Y0104514D01*
X0221706Y0104799D01*
X0221232Y0104995D01*
X0220730Y0105094D01*
X0212772Y0105094D01*
X0212772Y0099123D01*
X0212428Y0099123D01*
X0212428Y0098780D01*
X0202126Y0098780D01*
X0202126Y0095152D01*
X0202226Y0094649D01*
X0202422Y0094176D01*
X0202706Y0093750D01*
X0202126Y0096865D02*
X0005200Y0096865D01*
X0005200Y0100064D02*
X0202126Y0100064D01*
X0202126Y0099123D02*
X0212428Y0099123D01*
X0212428Y0105094D01*
X0204470Y0105094D01*
X0203968Y0104995D01*
X0203494Y0104799D01*
X0203069Y0104514D01*
X0202706Y0104152D01*
X0202422Y0103726D01*
X0202226Y0103253D01*
X0202126Y0102751D01*
X0202126Y0099123D01*
X0202230Y0103263D02*
X0005200Y0103263D01*
X0005200Y0106461D02*
X0223925Y0106461D01*
X0223925Y0103263D02*
X0222970Y0103263D01*
X0223074Y0100064D02*
X0223925Y0100064D01*
X0223925Y0096865D02*
X0223074Y0096865D01*
X0222410Y0093667D02*
X0223925Y0093667D01*
X0231850Y0098859D02*
X0254850Y0098859D01*
X0242600Y0093359D02*
X0242600Y0106359D01*
X0247149Y0117977D02*
X0247149Y0148477D01*
X0254850Y0134109D02*
X0231850Y0134109D01*
X0223925Y0135248D02*
X0221275Y0135248D01*
X0221275Y0138446D02*
X0223925Y0138446D01*
X0223925Y0141645D02*
X0221275Y0141645D01*
X0221275Y0144843D02*
X0223925Y0144843D01*
X0223925Y0148042D02*
X0221275Y0148042D01*
X0221275Y0151240D02*
X0223925Y0151240D01*
X0223925Y0154439D02*
X0221275Y0154439D01*
X0221275Y0157637D02*
X0223925Y0157637D01*
X0223925Y0160836D02*
X0221275Y0160836D01*
X0221275Y0164034D02*
X0223925Y0164034D01*
X0223925Y0167233D02*
X0221275Y0167233D01*
X0221275Y0170431D02*
X0233428Y0170431D01*
X0233428Y0173630D02*
X0221275Y0173630D01*
X0221275Y0176828D02*
X0233591Y0176828D01*
X0233228Y0179699D02*
X0237600Y0179699D01*
X0237600Y0179699D01*
X0241972Y0179699D01*
X0241972Y0181333D01*
X0241872Y0181836D01*
X0241676Y0182309D01*
X0241391Y0182735D01*
X0241029Y0183097D01*
X0240603Y0183381D01*
X0240130Y0183577D01*
X0239628Y0183677D01*
X0237600Y0183677D01*
X0237600Y0179699D01*
X0237600Y0183677D01*
X0235572Y0183677D01*
X0235070Y0183577D01*
X0234597Y0183381D01*
X0234171Y0183097D01*
X0233809Y0182735D01*
X0233524Y0182309D01*
X0233328Y0181836D01*
X0233228Y0181333D01*
X0233228Y0179699D01*
X0233228Y0180027D02*
X0221275Y0180027D01*
X0221275Y0183225D02*
X0234363Y0183225D01*
X0237600Y0183225D02*
X0237600Y0183225D01*
X0237600Y0180027D02*
X0237600Y0180027D01*
X0237600Y0179699D02*
X0237600Y0179699D01*
X0241972Y0180027D02*
X0255906Y0180027D01*
X0255906Y0183225D02*
X0240837Y0183225D01*
X0241609Y0176828D02*
X0255906Y0176828D01*
X0255906Y0173630D02*
X0241772Y0173630D01*
X0241772Y0170431D02*
X0255906Y0170431D01*
X0255906Y0186424D02*
X0221275Y0186424D01*
X0221275Y0189622D02*
X0255906Y0189622D01*
X0255906Y0192821D02*
X0221075Y0192821D01*
X0221275Y0192340D02*
X0220715Y0193690D01*
X0219682Y0194724D01*
X0218331Y0195283D01*
X0199369Y0195283D01*
X0198018Y0194724D01*
X0179485Y0176190D01*
X0178925Y0174840D01*
X0178925Y0118378D01*
X0179485Y0117027D01*
X0180518Y0115993D01*
X0181869Y0115434D01*
X0185728Y0115434D01*
X0185728Y0114975D01*
X0190100Y0114975D01*
X0194472Y0114975D01*
X0194472Y0115434D01*
X0218331Y0115434D01*
X0219682Y0115993D01*
X0220715Y0117027D01*
X0221275Y0118378D01*
X0221275Y0192340D01*
X0216350Y0183859D02*
X0197350Y0183859D01*
X0190748Y0187759D02*
X0195200Y0192211D01*
X0195200Y0195359D01*
X0195200Y0198507D01*
X0190748Y0202959D01*
X0187600Y0202959D01*
X0184452Y0202959D01*
X0180000Y0198507D01*
X0180000Y0195359D01*
X0187600Y0195359D01*
X0187600Y0202959D01*
X0187600Y0195359D01*
X0187600Y0195359D01*
X0187600Y0195359D01*
X0195200Y0195359D01*
X0187600Y0195359D01*
X0187600Y0195359D01*
X0180000Y0195359D01*
X0180000Y0192211D01*
X0184452Y0187759D01*
X0187600Y0187759D01*
X0190748Y0187759D01*
X0189718Y0186424D02*
X0005200Y0186424D01*
X0005200Y0183225D02*
X0186520Y0183225D01*
X0183321Y0180027D02*
X0005200Y0180027D01*
X0005200Y0176828D02*
X0180123Y0176828D01*
X0178925Y0173630D02*
X0005200Y0173630D01*
X0005200Y0170431D02*
X0107878Y0170431D01*
X0107895Y0170517D02*
X0107795Y0170014D01*
X0107795Y0166609D01*
X0115513Y0166609D01*
X0115513Y0172358D01*
X0110139Y0172358D01*
X0109637Y0172258D01*
X0109164Y0172062D01*
X0108738Y0171778D01*
X0108376Y0171416D01*
X0108091Y0170990D01*
X0107895Y0170517D01*
X0107795Y0167233D02*
X0005200Y0167233D01*
X0005200Y0164034D02*
X0107795Y0164034D01*
X0107795Y0163203D02*
X0107895Y0162701D01*
X0108091Y0162227D01*
X0108376Y0161802D01*
X0108738Y0161440D01*
X0109164Y0161155D01*
X0109637Y0160959D01*
X0110139Y0160859D01*
X0115513Y0160859D01*
X0115513Y0166609D01*
X0115513Y0166609D01*
X0115513Y0166609D01*
X0107795Y0166609D01*
X0107795Y0163203D01*
X0115513Y0164034D02*
X0115513Y0164034D01*
X0115513Y0166609D02*
X0115513Y0160859D01*
X0120888Y0160859D01*
X0121390Y0160959D01*
X0121863Y0161155D01*
X0122289Y0161440D01*
X0122651Y0161802D01*
X0122723Y0161910D01*
X0123209Y0161424D01*
X0124091Y0161059D01*
X0135282Y0161059D01*
X0136164Y0161424D01*
X0136839Y0162100D01*
X0136885Y0162209D01*
X0141363Y0162209D01*
X0141541Y0162031D01*
X0142294Y0161719D01*
X0141665Y0161398D01*
X0140952Y0160880D01*
X0140329Y0160257D01*
X0139810Y0159544D01*
X0139410Y0158758D01*
X0139138Y0157920D01*
X0139000Y0157049D01*
X0139000Y0156609D01*
X0147600Y0156609D01*
X0147600Y0156609D01*
X0156200Y0156609D01*
X0156200Y0157049D01*
X0156062Y0157920D01*
X0155790Y0158758D01*
X0155390Y0159544D01*
X0154871Y0160257D01*
X0154248Y0160880D01*
X0153535Y0161398D01*
X0152906Y0161719D01*
X0153659Y0162031D01*
X0153837Y0162209D01*
X0159675Y0162209D01*
X0166046Y0155837D01*
X0166046Y0149635D01*
X0166412Y0148753D01*
X0167087Y0148078D01*
X0167969Y0147713D01*
X0175026Y0147713D01*
X0175908Y0148078D01*
X0176583Y0148753D01*
X0176949Y0149635D01*
X0176949Y0163582D01*
X0176583Y0164464D01*
X0175908Y0165139D01*
X0175026Y0165505D01*
X0168824Y0165505D01*
X0165228Y0169101D01*
X0163990Y0170339D01*
X0162373Y0171009D01*
X0153837Y0171009D01*
X0153659Y0171187D01*
X0151674Y0172009D01*
X0143526Y0172009D01*
X0141541Y0171187D01*
X0141363Y0171009D01*
X0136885Y0171009D01*
X0136839Y0171118D01*
X0136164Y0171793D01*
X0135282Y0172158D01*
X0124091Y0172158D01*
X0123209Y0171793D01*
X0122723Y0171307D01*
X0122651Y0171416D01*
X0122289Y0171778D01*
X0121863Y0172062D01*
X0121390Y0172258D01*
X0120888Y0172358D01*
X0115513Y0172358D01*
X0115513Y0166609D01*
X0115513Y0166609D01*
X0115513Y0167233D02*
X0115513Y0167233D01*
X0115513Y0170431D02*
X0115513Y0170431D01*
X0115513Y0152358D02*
X0110139Y0152358D01*
X0109637Y0152258D01*
X0109164Y0152062D01*
X0108738Y0151778D01*
X0108376Y0151416D01*
X0108091Y0150990D01*
X0107895Y0150517D01*
X0107795Y0150014D01*
X0107795Y0146609D01*
X0115513Y0146609D01*
X0115513Y0152358D01*
X0115513Y0146609D01*
X0115513Y0146609D01*
X0115513Y0146609D01*
X0107795Y0146609D01*
X0107795Y0143203D01*
X0107895Y0142701D01*
X0108091Y0142227D01*
X0108376Y0141802D01*
X0108738Y0141440D01*
X0109164Y0141155D01*
X0109637Y0140959D01*
X0110139Y0140859D01*
X0115513Y0140859D01*
X0115513Y0146609D01*
X0115513Y0146609D01*
X0115513Y0140859D01*
X0120888Y0140859D01*
X0121390Y0140959D01*
X0121863Y0141155D01*
X0122289Y0141440D01*
X0122651Y0141802D01*
X0122723Y0141910D01*
X0123209Y0141424D01*
X0124091Y0141059D01*
X0135282Y0141059D01*
X0136164Y0141424D01*
X0136839Y0142100D01*
X0136885Y0142209D01*
X0141363Y0142209D01*
X0141541Y0142031D01*
X0143526Y0141209D01*
X0151674Y0141209D01*
X0153659Y0142031D01*
X0155178Y0143550D01*
X0156000Y0145535D01*
X0156000Y0147683D01*
X0155178Y0149668D01*
X0153659Y0151187D01*
X0152906Y0151498D01*
X0153535Y0151819D01*
X0154248Y0152337D01*
X0154871Y0152961D01*
X0155390Y0153674D01*
X0155790Y0154459D01*
X0156062Y0155297D01*
X0156200Y0156168D01*
X0156200Y0156609D01*
X0147600Y0156609D01*
X0147600Y0156609D01*
X0139000Y0156609D01*
X0139000Y0156168D01*
X0139138Y0155297D01*
X0139410Y0154459D01*
X0139810Y0153674D01*
X0140329Y0152961D01*
X0140952Y0152337D01*
X0141665Y0151819D01*
X0142294Y0151498D01*
X0141541Y0151187D01*
X0141363Y0151009D01*
X0136885Y0151009D01*
X0136839Y0151118D01*
X0136164Y0151793D01*
X0135282Y0152158D01*
X0124091Y0152158D01*
X0123209Y0151793D01*
X0122723Y0151307D01*
X0122651Y0151416D01*
X0122289Y0151778D01*
X0121863Y0152062D01*
X0121390Y0152258D01*
X0120888Y0152358D01*
X0115513Y0152358D01*
X0115513Y0151240D02*
X0115513Y0151240D01*
X0115513Y0148042D02*
X0115513Y0148042D01*
X0115513Y0144843D02*
X0115513Y0144843D01*
X0115513Y0141645D02*
X0115513Y0141645D01*
X0122494Y0141645D02*
X0122989Y0141645D01*
X0136384Y0141645D02*
X0142473Y0141645D01*
X0141671Y0151240D02*
X0136717Y0151240D01*
X0139421Y0154439D02*
X0005200Y0154439D01*
X0005200Y0157637D02*
X0139093Y0157637D01*
X0140907Y0160836D02*
X0005200Y0160836D01*
X0005200Y0151240D02*
X0108258Y0151240D01*
X0107795Y0148042D02*
X0005200Y0148042D01*
X0005200Y0144843D02*
X0107795Y0144843D01*
X0108533Y0141645D02*
X0005200Y0141645D01*
X0005200Y0138446D02*
X0059301Y0138446D01*
X0060363Y0139509D02*
X0057200Y0136345D01*
X0057200Y0131872D01*
X0059822Y0129250D01*
X0057000Y0126428D01*
X0057000Y0124109D01*
X0062600Y0124109D01*
X0062600Y0124109D01*
X0057000Y0124109D01*
X0057000Y0121789D01*
X0060280Y0118509D01*
X0062600Y0118509D01*
X0064920Y0118509D01*
X0067741Y0121330D01*
X0070363Y0118709D01*
X0074837Y0118709D01*
X0077600Y0121472D01*
X0080363Y0118709D01*
X0084837Y0118709D01*
X0088000Y0121872D01*
X0088000Y0126345D01*
X0085237Y0129109D01*
X0088000Y0131872D01*
X0088000Y0136345D01*
X0084837Y0139509D01*
X0080363Y0139509D01*
X0077600Y0136745D01*
X0074837Y0139509D01*
X0070363Y0139509D01*
X0067600Y0136745D01*
X0064837Y0139509D01*
X0060363Y0139509D01*
X0057200Y0135248D02*
X0005200Y0135248D01*
X0005200Y0132049D02*
X0057200Y0132049D01*
X0059422Y0128851D02*
X0005200Y0128851D01*
X0005200Y0125652D02*
X0057000Y0125652D01*
X0057000Y0122454D02*
X0005200Y0122454D01*
X0005200Y0119255D02*
X0059534Y0119255D01*
X0062600Y0119255D02*
X0062600Y0119255D01*
X0062600Y0118509D02*
X0062600Y0124109D01*
X0062600Y0124109D01*
X0062600Y0118509D01*
X0065666Y0119255D02*
X0069817Y0119255D01*
X0075383Y0119255D02*
X0079817Y0119255D01*
X0085383Y0119255D02*
X0178925Y0119255D01*
X0180455Y0116057D02*
X0005200Y0116057D01*
X0005200Y0112858D02*
X0185824Y0112858D01*
X0185828Y0112838D02*
X0186024Y0112365D01*
X0186309Y0111939D01*
X0186671Y0111577D01*
X0187097Y0111293D01*
X0187570Y0111097D01*
X0188072Y0110997D01*
X0190100Y0110997D01*
X0192128Y0110997D01*
X0192630Y0111097D01*
X0193103Y0111293D01*
X0193529Y0111577D01*
X0193891Y0111939D01*
X0194176Y0112365D01*
X0194372Y0112838D01*
X0194472Y0113341D01*
X0194472Y0114975D01*
X0190100Y0114975D01*
X0190100Y0114975D01*
X0190100Y0114975D01*
X0185728Y0114975D01*
X0185728Y0113341D01*
X0185828Y0112838D01*
X0190100Y0112858D02*
X0190100Y0112858D01*
X0190100Y0110997D02*
X0190100Y0114975D01*
X0190100Y0114975D01*
X0190100Y0110997D01*
X0194376Y0112858D02*
X0223925Y0112858D01*
X0223925Y0116057D02*
X0219745Y0116057D01*
X0221275Y0119255D02*
X0223925Y0119255D01*
X0223925Y0122454D02*
X0221275Y0122454D01*
X0221275Y0125652D02*
X0223925Y0125652D01*
X0223925Y0128851D02*
X0221275Y0128851D01*
X0221275Y0132049D02*
X0223925Y0132049D01*
X0213850Y0133859D02*
X0192350Y0133859D01*
X0202600Y0134109D02*
X0203446Y0134109D01*
X0203600Y0120609D02*
X0203600Y0149609D01*
X0178925Y0148042D02*
X0175821Y0148042D01*
X0178925Y0144843D02*
X0155714Y0144843D01*
X0155851Y0148042D02*
X0167175Y0148042D01*
X0166046Y0151240D02*
X0153529Y0151240D01*
X0155779Y0154439D02*
X0166046Y0154439D01*
X0164247Y0157637D02*
X0156107Y0157637D01*
X0154293Y0160836D02*
X0161048Y0160836D01*
X0167096Y0167233D02*
X0178925Y0167233D01*
X0178925Y0164034D02*
X0176762Y0164034D01*
X0176949Y0160836D02*
X0178925Y0160836D01*
X0178925Y0157637D02*
X0176949Y0157637D01*
X0176949Y0154439D02*
X0178925Y0154439D01*
X0178925Y0151240D02*
X0176949Y0151240D01*
X0178925Y0141645D02*
X0152727Y0141645D01*
X0178925Y0138446D02*
X0085899Y0138446D01*
X0088000Y0135248D02*
X0178925Y0135248D01*
X0178925Y0132049D02*
X0088000Y0132049D01*
X0085495Y0128851D02*
X0178925Y0128851D01*
X0178925Y0125652D02*
X0088000Y0125652D01*
X0088000Y0122454D02*
X0178925Y0122454D01*
X0212428Y0103263D02*
X0212772Y0103263D01*
X0212772Y0100064D02*
X0212428Y0100064D01*
X0212428Y0096865D02*
X0212772Y0096865D01*
X0212772Y0093667D02*
X0212428Y0093667D01*
X0223925Y0109660D02*
X0005200Y0109660D01*
X0062600Y0122454D02*
X0062600Y0122454D01*
X0065899Y0138446D02*
X0069301Y0138446D01*
X0075899Y0138446D02*
X0079301Y0138446D01*
X0023606Y0199218D02*
X0180711Y0199218D01*
X0183910Y0202416D02*
X0027161Y0202416D01*
X0028967Y0205615D02*
X0200000Y0205615D01*
X0200000Y0204711D02*
X0204452Y0200259D01*
X0207600Y0200259D01*
X0210748Y0200259D01*
X0215200Y0204711D01*
X0215200Y0207859D01*
X0215200Y0211007D01*
X0210748Y0215459D01*
X0207600Y0215459D01*
X0204452Y0215459D01*
X0200000Y0211007D01*
X0200000Y0207859D01*
X0207600Y0207859D01*
X0207600Y0215459D01*
X0207600Y0207859D01*
X0207600Y0207859D01*
X0207600Y0207859D01*
X0215200Y0207859D01*
X0207600Y0207859D01*
X0207600Y0207859D01*
X0200000Y0207859D01*
X0200000Y0204711D01*
X0202294Y0202416D02*
X0191290Y0202416D01*
X0194489Y0199218D02*
X0237500Y0199218D01*
X0233944Y0202416D02*
X0212906Y0202416D01*
X0215200Y0205615D02*
X0232138Y0205615D01*
X0231326Y0208813D02*
X0215200Y0208813D01*
X0214195Y0212012D02*
X0231327Y0212012D01*
X0232142Y0215210D02*
X0210996Y0215210D01*
X0207600Y0215210D02*
X0207600Y0215210D01*
X0207600Y0212012D02*
X0207600Y0212012D01*
X0207600Y0208813D02*
X0207600Y0208813D01*
X0207600Y0207859D02*
X0207600Y0200259D01*
X0207600Y0207859D01*
X0207600Y0207859D01*
X0207600Y0205615D02*
X0207600Y0205615D01*
X0207600Y0202416D02*
X0207600Y0202416D01*
X0200000Y0208813D02*
X0029780Y0208813D01*
X0029779Y0212012D02*
X0201005Y0212012D01*
X0204204Y0215210D02*
X0028963Y0215210D01*
X0027154Y0218409D02*
X0233952Y0218409D01*
X0237514Y0221607D02*
X0023591Y0221607D01*
X0017929Y0208813D02*
X0015617Y0208813D01*
X0015617Y0205615D02*
X0017929Y0205615D01*
X0017929Y0202416D02*
X0015617Y0202416D01*
X0015617Y0199218D02*
X0017929Y0199218D01*
X0009941Y0199218D02*
X0005200Y0199218D01*
X0005200Y0202416D02*
X0006385Y0202416D01*
X0005200Y0196019D02*
X0180000Y0196019D01*
X0180000Y0192821D02*
X0005200Y0192821D01*
X0005200Y0189622D02*
X0182588Y0189622D01*
X0187600Y0189622D02*
X0187600Y0189622D01*
X0187600Y0187759D02*
X0187600Y0195359D01*
X0187600Y0195359D01*
X0187600Y0187759D01*
X0187600Y0192821D02*
X0187600Y0192821D01*
X0187600Y0196019D02*
X0187600Y0196019D01*
X0187600Y0199218D02*
X0187600Y0199218D01*
X0187600Y0202416D02*
X0187600Y0202416D01*
X0195200Y0196019D02*
X0255906Y0196019D01*
X0255906Y0199218D02*
X0251165Y0199218D01*
X0254721Y0202416D02*
X0255906Y0202416D01*
X0245488Y0202416D02*
X0243176Y0202416D01*
X0243176Y0199218D02*
X0245488Y0199218D01*
X0245488Y0205615D02*
X0243176Y0205615D01*
X0243176Y0208813D02*
X0245488Y0208813D01*
X0207600Y0190290D02*
X0207600Y0175109D01*
X0192917Y0189622D02*
X0192612Y0189622D01*
X0195200Y0192821D02*
X0196115Y0192821D01*
X0178925Y0170431D02*
X0163767Y0170431D01*
X0165228Y0169101D02*
X0165228Y0169101D01*
X0226767Y0032895D02*
X0226933Y0032895D01*
X0228587Y0029697D02*
X0237898Y0029697D01*
X0237589Y0029532D02*
X0238725Y0030138D01*
X0239914Y0030631D01*
X0241145Y0031005D01*
X0242408Y0031256D01*
X0243176Y0031331D01*
X0243176Y0019438D01*
X0231283Y0019438D01*
X0231358Y0020206D01*
X0231610Y0021469D01*
X0231983Y0022700D01*
X0232476Y0023890D01*
X0233082Y0025025D01*
X0233798Y0026095D01*
X0234614Y0027090D01*
X0235524Y0028000D01*
X0236519Y0028817D01*
X0237589Y0029532D01*
X0234129Y0026498D02*
X0231641Y0026498D01*
X0231641Y0023300D02*
X0232231Y0023300D01*
X0231348Y0020101D02*
X0230152Y0020101D01*
X0231641Y0014992D02*
X0231983Y0013863D01*
X0232476Y0012674D01*
X0233082Y0011539D01*
X0233798Y0010469D01*
X0234614Y0009474D01*
X0235524Y0008564D01*
X0236519Y0007747D01*
X0237589Y0007032D01*
X0238195Y0006709D01*
X0022911Y0006709D01*
X0023516Y0007032D01*
X0024586Y0007747D01*
X0025581Y0008564D01*
X0026491Y0009474D01*
X0027308Y0010469D01*
X0028023Y0011539D01*
X0028630Y0012674D01*
X0029122Y0013863D01*
X0029441Y0014914D01*
X0029441Y0011590D01*
X0033014Y0008017D01*
X0038068Y0008017D01*
X0040541Y0010490D01*
X0043014Y0008017D01*
X0048068Y0008017D01*
X0050541Y0010490D01*
X0053014Y0008017D01*
X0058068Y0008017D01*
X0060400Y0010348D01*
X0062931Y0007817D01*
X0065541Y0007817D01*
X0068150Y0007817D01*
X0070682Y0010348D01*
X0073014Y0008017D01*
X0078068Y0008017D01*
X0080400Y0010348D01*
X0082931Y0007817D01*
X0085541Y0007817D01*
X0088150Y0007817D01*
X0090682Y0010348D01*
X0093014Y0008017D01*
X0098068Y0008017D01*
X0100541Y0010490D01*
X0103014Y0008017D01*
X0108068Y0008017D01*
X0110541Y0010490D01*
X0113014Y0008017D01*
X0118068Y0008017D01*
X0120541Y0010490D01*
X0123014Y0008017D01*
X0128068Y0008017D01*
X0130400Y0010348D01*
X0132931Y0007817D01*
X0135541Y0007817D01*
X0138150Y0007817D01*
X0140682Y0010348D01*
X0143014Y0008017D01*
X0148068Y0008017D01*
X0150541Y0010490D01*
X0153014Y0008017D01*
X0158068Y0008017D01*
X0160400Y0010348D01*
X0162931Y0007817D01*
X0165541Y0007817D01*
X0168150Y0007817D01*
X0170682Y0010348D01*
X0173014Y0008017D01*
X0178068Y0008017D01*
X0180541Y0010490D01*
X0183014Y0008017D01*
X0188068Y0008017D01*
X0190541Y0010490D01*
X0193014Y0008017D01*
X0198068Y0008017D01*
X0200400Y0010348D01*
X0202931Y0007817D01*
X0205541Y0007817D01*
X0208150Y0007817D01*
X0210682Y0010348D01*
X0213014Y0008017D01*
X0218068Y0008017D01*
X0220541Y0010490D01*
X0223014Y0008017D01*
X0228068Y0008017D01*
X0231641Y0011590D01*
X0231641Y0014992D01*
X0231641Y0013704D02*
X0232049Y0013704D01*
X0230557Y0010506D02*
X0233773Y0010506D01*
X0237178Y0007307D02*
X0023928Y0007307D01*
X0027333Y0010506D02*
X0030525Y0010506D01*
X0029441Y0013704D02*
X0029056Y0013704D01*
X0029812Y0017014D02*
X0029823Y0017126D01*
X0017929Y0017126D01*
X0017929Y0019438D01*
X0029823Y0019438D01*
X0029747Y0020206D01*
X0029550Y0021198D01*
X0031773Y0018975D01*
X0029812Y0017014D01*
X0029757Y0020101D02*
X0030647Y0020101D01*
X0029241Y0023300D02*
X0028874Y0023300D01*
X0029241Y0026498D02*
X0026977Y0026498D01*
X0023207Y0029697D02*
X0032212Y0029697D01*
X0035541Y0029697D02*
X0035541Y0029697D01*
X0035541Y0026498D02*
X0035541Y0026498D01*
X0038870Y0029697D02*
X0042494Y0029697D01*
X0048587Y0029697D02*
X0052494Y0029697D01*
X0058587Y0029697D02*
X0062494Y0029697D01*
X0068587Y0029697D02*
X0072494Y0029697D01*
X0078587Y0029697D02*
X0082494Y0029697D01*
X0088587Y0029697D02*
X0092494Y0029697D01*
X0098587Y0029697D02*
X0102212Y0029697D01*
X0105541Y0029697D02*
X0105541Y0029697D01*
X0105541Y0030417D02*
X0105541Y0024117D01*
X0105541Y0024117D01*
X0105541Y0030417D01*
X0108870Y0029697D02*
X0112494Y0029697D01*
X0118587Y0029697D02*
X0122494Y0029697D01*
X0128587Y0029697D02*
X0132494Y0029697D01*
X0138587Y0029697D02*
X0142494Y0029697D01*
X0148587Y0029697D02*
X0152494Y0029697D01*
X0158587Y0029697D02*
X0162494Y0029697D01*
X0168587Y0029697D02*
X0172494Y0029697D01*
X0178587Y0029697D02*
X0182212Y0029697D01*
X0185541Y0029697D02*
X0185541Y0029697D01*
X0185541Y0030417D02*
X0185541Y0024117D01*
X0185541Y0024117D01*
X0185541Y0030417D01*
X0185541Y0026498D02*
X0185541Y0026498D01*
X0198587Y0029697D02*
X0202494Y0029697D01*
X0208587Y0029697D02*
X0212494Y0029697D01*
X0218587Y0029697D02*
X0222494Y0029697D01*
X0205541Y0014116D02*
X0205541Y0007817D01*
X0205541Y0014116D01*
X0205541Y0014116D01*
X0205541Y0013704D02*
X0205541Y0013704D01*
X0205541Y0010506D02*
X0205541Y0010506D01*
X0243176Y0020101D02*
X0245488Y0020101D01*
X0245488Y0023300D02*
X0243176Y0023300D01*
X0243176Y0026498D02*
X0245488Y0026498D01*
X0245488Y0029697D02*
X0243176Y0029697D01*
X0250766Y0029697D02*
X0255906Y0029697D01*
X0255906Y0026498D02*
X0254536Y0026498D01*
X0165541Y0014116D02*
X0165541Y0007817D01*
X0165541Y0014116D01*
X0165541Y0014116D01*
X0165541Y0013704D02*
X0165541Y0013704D01*
X0165541Y0010506D02*
X0165541Y0010506D01*
X0135541Y0010506D02*
X0135541Y0010506D01*
X0135541Y0007817D02*
X0135541Y0014116D01*
X0135541Y0014116D01*
X0135541Y0007817D01*
X0135541Y0013704D02*
X0135541Y0013704D01*
X0105541Y0026498D02*
X0105541Y0026498D01*
X0085541Y0014116D02*
X0085541Y0007817D01*
X0085541Y0014116D01*
X0085541Y0014116D01*
X0085541Y0013704D02*
X0085541Y0013704D01*
X0085541Y0010506D02*
X0085541Y0010506D01*
X0065541Y0010506D02*
X0065541Y0010506D01*
X0065541Y0007817D02*
X0065541Y0014116D01*
X0065541Y0014116D01*
X0065541Y0007817D01*
X0065541Y0013704D02*
X0065541Y0013704D01*
X0017929Y0020101D02*
X0015617Y0020101D01*
X0015617Y0023300D02*
X0017929Y0023300D01*
X0017929Y0026498D02*
X0015617Y0026498D01*
X0015617Y0029697D02*
X0017929Y0029697D01*
D24*
X0010100Y0041609D03*
X0010100Y0064109D03*
X0032600Y0046609D03*
X0042600Y0031609D03*
X0055100Y0041609D03*
X0060100Y0031609D03*
X0075100Y0046609D03*
X0080100Y0031609D03*
X0100100Y0031609D03*
X0110100Y0044109D03*
X0097600Y0061609D03*
X0120100Y0066609D03*
X0135100Y0054109D03*
X0135100Y0034109D03*
X0152600Y0034109D03*
X0165572Y0043400D03*
X0175100Y0044109D03*
X0187600Y0036609D03*
X0172600Y0031609D03*
X0155100Y0049109D03*
X0165100Y0064109D03*
X0177600Y0081609D03*
X0190100Y0074109D03*
X0197600Y0091609D03*
X0185100Y0094109D03*
X0177600Y0109109D03*
X0162600Y0106609D03*
X0162600Y0089109D03*
X0140100Y0074109D03*
X0132600Y0089109D03*
X0115100Y0106609D03*
X0102600Y0086609D03*
X0077600Y0076609D03*
X0062600Y0094109D03*
X0042600Y0089109D03*
X0025100Y0106609D03*
X0007600Y0116609D03*
X0025100Y0136609D03*
X0007600Y0149109D03*
X0027600Y0171609D03*
X0007600Y0176609D03*
X0007600Y0194109D03*
X0032600Y0194109D03*
X0047600Y0209109D03*
X0032600Y0219109D03*
X0052600Y0181609D03*
X0077600Y0199109D03*
X0077600Y0219109D03*
X0107600Y0199109D03*
X0130100Y0196609D03*
X0135100Y0176609D03*
X0155100Y0176609D03*
X0175100Y0171609D03*
X0177600Y0191609D03*
X0195100Y0201609D03*
X0175100Y0219109D03*
X0152600Y0199109D03*
X0150100Y0219109D03*
X0125100Y0219109D03*
X0100100Y0179109D03*
X0080100Y0159109D03*
X0102600Y0154109D03*
X0100100Y0129109D03*
X0080100Y0111609D03*
X0045100Y0116609D03*
X0010100Y0086609D03*
X0047600Y0066609D03*
X0030100Y0009109D03*
X0060887Y0007928D03*
X0090494Y0008321D03*
X0120887Y0007928D03*
X0150631Y0008321D03*
X0181025Y0008715D03*
X0200887Y0008321D03*
X0237856Y0033183D03*
X0255100Y0031609D03*
X0200100Y0106609D03*
X0220100Y0111609D03*
X0175100Y0134109D03*
X0162600Y0144109D03*
X0145100Y0136609D03*
X0160100Y0124109D03*
X0140100Y0111609D03*
X0125100Y0129109D03*
X0050100Y0151609D03*
X0225100Y0176609D03*
X0225100Y0191609D03*
X0225100Y0216609D03*
X0252600Y0191609D03*
X0252600Y0171609D03*
D25*
X0171498Y0156609D02*
X0161498Y0166609D01*
X0147600Y0166609D01*
X0129687Y0166609D01*
X0129687Y0146609D02*
X0147600Y0146609D01*
D26*
X0182600Y0146896D02*
X0217600Y0146896D01*
X0217600Y0147894D02*
X0182600Y0147894D01*
X0182600Y0148893D02*
X0184764Y0148893D01*
X0184730Y0148912D02*
X0185072Y0148715D01*
X0185454Y0148613D01*
X0188202Y0148613D01*
X0188202Y0156109D01*
X0184151Y0156109D01*
X0184151Y0149915D01*
X0184253Y0149534D01*
X0184451Y0149192D01*
X0184730Y0148912D01*
X0184158Y0149891D02*
X0182600Y0149891D01*
X0182600Y0150890D02*
X0184151Y0150890D01*
X0184151Y0151888D02*
X0182600Y0151888D01*
X0182600Y0152887D02*
X0184151Y0152887D01*
X0184151Y0153885D02*
X0182600Y0153885D01*
X0182600Y0154884D02*
X0184151Y0154884D01*
X0184151Y0155882D02*
X0182600Y0155882D01*
X0182600Y0156881D02*
X0188202Y0156881D01*
X0188202Y0157109D02*
X0188202Y0156109D01*
X0189202Y0156109D01*
X0189202Y0157109D01*
X0188202Y0157109D01*
X0184151Y0157109D01*
X0184151Y0163302D01*
X0184253Y0163684D01*
X0184451Y0164026D01*
X0184730Y0164305D01*
X0185072Y0164502D01*
X0185454Y0164605D01*
X0188202Y0164605D01*
X0188202Y0157109D01*
X0188202Y0157879D02*
X0189202Y0157879D01*
X0189202Y0157109D02*
X0189202Y0164605D01*
X0191951Y0164605D01*
X0192333Y0164502D01*
X0192675Y0164305D01*
X0192954Y0164026D01*
X0193151Y0163684D01*
X0193254Y0163302D01*
X0193254Y0157109D01*
X0189202Y0157109D01*
X0189202Y0156881D02*
X0217600Y0156881D01*
X0217600Y0157879D02*
X0193254Y0157879D01*
X0193254Y0158878D02*
X0217600Y0158878D01*
X0217600Y0159876D02*
X0193254Y0159876D01*
X0193254Y0160875D02*
X0217600Y0160875D01*
X0217600Y0161873D02*
X0193254Y0161873D01*
X0193254Y0162872D02*
X0217600Y0162872D01*
X0217600Y0163870D02*
X0193043Y0163870D01*
X0189202Y0163870D02*
X0188202Y0163870D01*
X0188202Y0162872D02*
X0189202Y0162872D01*
X0189202Y0161873D02*
X0188202Y0161873D01*
X0188202Y0160875D02*
X0189202Y0160875D01*
X0189202Y0159876D02*
X0188202Y0159876D01*
X0188202Y0158878D02*
X0189202Y0158878D01*
X0189202Y0156109D02*
X0193254Y0156109D01*
X0193254Y0149915D01*
X0193151Y0149534D01*
X0192954Y0149192D01*
X0192675Y0148912D01*
X0192333Y0148715D01*
X0191951Y0148613D01*
X0189202Y0148613D01*
X0189202Y0156109D01*
X0189202Y0155882D02*
X0188202Y0155882D01*
X0188202Y0154884D02*
X0189202Y0154884D01*
X0189202Y0153885D02*
X0188202Y0153885D01*
X0188202Y0152887D02*
X0189202Y0152887D01*
X0189202Y0151888D02*
X0188202Y0151888D01*
X0188202Y0150890D02*
X0189202Y0150890D01*
X0189202Y0149891D02*
X0188202Y0149891D01*
X0188202Y0148893D02*
X0189202Y0148893D01*
X0192641Y0148893D02*
X0217600Y0148893D01*
X0217600Y0149891D02*
X0193247Y0149891D01*
X0193254Y0150890D02*
X0217600Y0150890D01*
X0217600Y0151888D02*
X0193254Y0151888D01*
X0193254Y0152887D02*
X0217600Y0152887D01*
X0217600Y0153885D02*
X0193254Y0153885D01*
X0193254Y0154884D02*
X0217600Y0154884D01*
X0217600Y0155882D02*
X0193254Y0155882D01*
X0184151Y0157879D02*
X0182600Y0157879D01*
X0182600Y0158878D02*
X0184151Y0158878D01*
X0184151Y0159876D02*
X0182600Y0159876D01*
X0182600Y0160875D02*
X0184151Y0160875D01*
X0184151Y0161873D02*
X0182600Y0161873D01*
X0182600Y0162872D02*
X0184151Y0162872D01*
X0184361Y0163870D02*
X0182600Y0163870D01*
X0182600Y0164869D02*
X0217600Y0164869D01*
X0217600Y0165867D02*
X0182600Y0165867D01*
X0182600Y0166866D02*
X0217600Y0166866D01*
X0217600Y0167865D02*
X0182600Y0167865D01*
X0182600Y0168863D02*
X0217600Y0168863D01*
X0217600Y0169862D02*
X0182600Y0169862D01*
X0182600Y0170860D02*
X0217600Y0170860D01*
X0217600Y0171859D02*
X0182600Y0171859D01*
X0182600Y0172857D02*
X0217600Y0172857D01*
X0217600Y0173856D02*
X0182600Y0173856D01*
X0182600Y0174109D02*
X0200100Y0191609D01*
X0217600Y0191609D01*
X0217600Y0119109D01*
X0193372Y0119109D01*
X0193372Y0119904D01*
X0190289Y0119904D01*
X0190289Y0120282D01*
X0189911Y0120282D01*
X0189911Y0122971D01*
X0188131Y0122971D01*
X0187749Y0122869D01*
X0187407Y0122671D01*
X0187128Y0122392D01*
X0186931Y0122050D01*
X0186828Y0121668D01*
X0186828Y0120282D01*
X0189911Y0120282D01*
X0189911Y0119904D01*
X0186828Y0119904D01*
X0186828Y0119109D01*
X0182600Y0119109D01*
X0182600Y0174109D01*
X0183345Y0174854D02*
X0217600Y0174854D01*
X0217600Y0175853D02*
X0184344Y0175853D01*
X0185342Y0176851D02*
X0217600Y0176851D01*
X0217600Y0177850D02*
X0213419Y0177850D01*
X0213521Y0177908D02*
X0213800Y0178188D01*
X0213998Y0178530D01*
X0214100Y0178911D01*
X0214100Y0183609D01*
X0208100Y0183609D01*
X0208100Y0184609D01*
X0207100Y0184609D01*
X0207100Y0190609D01*
X0202403Y0190609D01*
X0202021Y0190506D01*
X0201679Y0190309D01*
X0201400Y0190030D01*
X0201202Y0189688D01*
X0201100Y0189306D01*
X0201100Y0184609D01*
X0207100Y0184609D01*
X0207100Y0183609D01*
X0201100Y0183609D01*
X0201100Y0178911D01*
X0201202Y0178530D01*
X0201400Y0178188D01*
X0201679Y0177908D01*
X0202021Y0177711D01*
X0202403Y0177609D01*
X0207100Y0177609D01*
X0207100Y0183609D01*
X0208100Y0183609D01*
X0208100Y0177609D01*
X0212797Y0177609D01*
X0213179Y0177711D01*
X0213521Y0177908D01*
X0214083Y0178848D02*
X0217600Y0178848D01*
X0217600Y0179847D02*
X0214100Y0179847D01*
X0214100Y0180845D02*
X0217600Y0180845D01*
X0217600Y0181844D02*
X0214100Y0181844D01*
X0214100Y0182842D02*
X0217600Y0182842D01*
X0217600Y0183841D02*
X0208100Y0183841D01*
X0208100Y0184609D02*
X0214100Y0184609D01*
X0214100Y0189306D01*
X0213998Y0189688D01*
X0213800Y0190030D01*
X0213521Y0190309D01*
X0213179Y0190506D01*
X0212797Y0190609D01*
X0208100Y0190609D01*
X0208100Y0184609D01*
X0208100Y0184839D02*
X0207100Y0184839D01*
X0207100Y0183841D02*
X0192332Y0183841D01*
X0193331Y0184839D02*
X0201100Y0184839D01*
X0201100Y0185838D02*
X0194329Y0185838D01*
X0195328Y0186836D02*
X0201100Y0186836D01*
X0201100Y0187835D02*
X0196326Y0187835D01*
X0197325Y0188833D02*
X0201100Y0188833D01*
X0201285Y0189832D02*
X0198323Y0189832D01*
X0199322Y0190830D02*
X0217600Y0190830D01*
X0217600Y0189832D02*
X0213915Y0189832D01*
X0214100Y0188833D02*
X0217600Y0188833D01*
X0217600Y0187835D02*
X0214100Y0187835D01*
X0214100Y0186836D02*
X0217600Y0186836D01*
X0217600Y0185838D02*
X0214100Y0185838D01*
X0214100Y0184839D02*
X0217600Y0184839D01*
X0208100Y0185838D02*
X0207100Y0185838D01*
X0207100Y0186836D02*
X0208100Y0186836D01*
X0208100Y0187835D02*
X0207100Y0187835D01*
X0207100Y0188833D02*
X0208100Y0188833D01*
X0208100Y0189832D02*
X0207100Y0189832D01*
X0207100Y0182842D02*
X0208100Y0182842D01*
X0208100Y0181844D02*
X0207100Y0181844D01*
X0207100Y0180845D02*
X0208100Y0180845D01*
X0208100Y0179847D02*
X0207100Y0179847D01*
X0207100Y0178848D02*
X0208100Y0178848D01*
X0208100Y0177850D02*
X0207100Y0177850D01*
X0201781Y0177850D02*
X0186341Y0177850D01*
X0187339Y0178848D02*
X0201117Y0178848D01*
X0201100Y0179847D02*
X0188338Y0179847D01*
X0189337Y0180845D02*
X0201100Y0180845D01*
X0201100Y0181844D02*
X0190335Y0181844D01*
X0191334Y0182842D02*
X0201100Y0182842D01*
X0227600Y0166609D02*
X0234328Y0166609D01*
X0234328Y0165557D01*
X0237411Y0165557D01*
X0237411Y0165180D01*
X0234328Y0165180D01*
X0234328Y0163793D01*
X0234431Y0163412D01*
X0234628Y0163070D01*
X0234907Y0162790D01*
X0235249Y0162593D01*
X0235631Y0162491D01*
X0237411Y0162491D01*
X0237411Y0165179D01*
X0237789Y0165179D01*
X0237789Y0162491D01*
X0239569Y0162491D01*
X0239951Y0162593D01*
X0240293Y0162790D01*
X0240572Y0163070D01*
X0240769Y0163412D01*
X0240872Y0163793D01*
X0240872Y0165180D01*
X0237789Y0165180D01*
X0237789Y0165557D01*
X0240872Y0165557D01*
X0240872Y0166609D01*
X0257006Y0166609D01*
X0257006Y0089109D01*
X0227600Y0089109D01*
X0227600Y0166609D01*
X0227600Y0165867D02*
X0234328Y0165867D01*
X0234328Y0164869D02*
X0227600Y0164869D01*
X0227600Y0163870D02*
X0234328Y0163870D01*
X0234826Y0162872D02*
X0227600Y0162872D01*
X0227600Y0161873D02*
X0257006Y0161873D01*
X0257006Y0160875D02*
X0227600Y0160875D01*
X0227600Y0159876D02*
X0257006Y0159876D01*
X0257006Y0158878D02*
X0227600Y0158878D01*
X0227600Y0157879D02*
X0257006Y0157879D01*
X0257006Y0156881D02*
X0227600Y0156881D01*
X0227600Y0155882D02*
X0257006Y0155882D01*
X0257006Y0154884D02*
X0227600Y0154884D01*
X0227600Y0153885D02*
X0257006Y0153885D01*
X0257006Y0152887D02*
X0227600Y0152887D01*
X0227600Y0151888D02*
X0257006Y0151888D01*
X0257006Y0150890D02*
X0227600Y0150890D01*
X0227600Y0149891D02*
X0257006Y0149891D01*
X0257006Y0148893D02*
X0227600Y0148893D01*
X0227600Y0147894D02*
X0257006Y0147894D01*
X0257006Y0146896D02*
X0227600Y0146896D01*
X0227600Y0145897D02*
X0257006Y0145897D01*
X0257006Y0144899D02*
X0253833Y0144899D01*
X0253859Y0144872D02*
X0253580Y0145151D01*
X0253238Y0145349D01*
X0252857Y0145451D01*
X0247254Y0145451D01*
X0247254Y0134609D01*
X0254159Y0134609D01*
X0254159Y0144149D01*
X0254057Y0144530D01*
X0253859Y0144872D01*
X0254159Y0143900D02*
X0257006Y0143900D01*
X0257006Y0142902D02*
X0254159Y0142902D01*
X0254159Y0141903D02*
X0257006Y0141903D01*
X0257006Y0140905D02*
X0254159Y0140905D01*
X0254159Y0139906D02*
X0257006Y0139906D01*
X0257006Y0138908D02*
X0254159Y0138908D01*
X0254159Y0137909D02*
X0257006Y0137909D01*
X0257006Y0136911D02*
X0254159Y0136911D01*
X0254159Y0135912D02*
X0257006Y0135912D01*
X0257006Y0134914D02*
X0254159Y0134914D01*
X0254159Y0133609D02*
X0254159Y0124069D01*
X0254057Y0123687D01*
X0253859Y0123345D01*
X0253580Y0123066D01*
X0253238Y0122868D01*
X0252857Y0122766D01*
X0247254Y0122766D01*
X0247254Y0133609D01*
X0247254Y0134609D01*
X0246254Y0134609D01*
X0246254Y0145451D01*
X0240651Y0145451D01*
X0240269Y0145349D01*
X0239927Y0145151D01*
X0239648Y0144872D01*
X0239450Y0144530D01*
X0239348Y0144149D01*
X0239348Y0134609D01*
X0246253Y0134609D01*
X0246253Y0133609D01*
X0239348Y0133609D01*
X0239348Y0124069D01*
X0239450Y0123687D01*
X0239648Y0123345D01*
X0239927Y0123066D01*
X0240269Y0122868D01*
X0240651Y0122766D01*
X0246254Y0122766D01*
X0246254Y0133609D01*
X0247254Y0133609D01*
X0254159Y0133609D01*
X0254159Y0132917D02*
X0257006Y0132917D01*
X0257006Y0133915D02*
X0247254Y0133915D01*
X0247254Y0132917D02*
X0246254Y0132917D01*
X0246253Y0133915D02*
X0227600Y0133915D01*
X0227600Y0132917D02*
X0239348Y0132917D01*
X0239348Y0131918D02*
X0227600Y0131918D01*
X0227600Y0130920D02*
X0239348Y0130920D01*
X0239348Y0129921D02*
X0227600Y0129921D01*
X0227600Y0128923D02*
X0239348Y0128923D01*
X0239348Y0127924D02*
X0227600Y0127924D01*
X0227600Y0126926D02*
X0239348Y0126926D01*
X0239348Y0125927D02*
X0227600Y0125927D01*
X0227600Y0124929D02*
X0239348Y0124929D01*
X0239385Y0123930D02*
X0227600Y0123930D01*
X0227600Y0122932D02*
X0240160Y0122932D01*
X0246254Y0122932D02*
X0247254Y0122932D01*
X0247254Y0123930D02*
X0246254Y0123930D01*
X0246254Y0124929D02*
X0247254Y0124929D01*
X0247254Y0125927D02*
X0246254Y0125927D01*
X0246254Y0126926D02*
X0247254Y0126926D01*
X0247254Y0127924D02*
X0246254Y0127924D01*
X0246254Y0128923D02*
X0247254Y0128923D01*
X0247254Y0129921D02*
X0246254Y0129921D01*
X0246254Y0130920D02*
X0247254Y0130920D01*
X0247254Y0131918D02*
X0246254Y0131918D01*
X0246254Y0134914D02*
X0247254Y0134914D01*
X0247254Y0135912D02*
X0246254Y0135912D01*
X0246254Y0136911D02*
X0247254Y0136911D01*
X0247254Y0137909D02*
X0246254Y0137909D01*
X0246254Y0138908D02*
X0247254Y0138908D01*
X0247254Y0139906D02*
X0246254Y0139906D01*
X0246254Y0140905D02*
X0247254Y0140905D01*
X0247254Y0141903D02*
X0246254Y0141903D01*
X0246254Y0142902D02*
X0247254Y0142902D01*
X0247254Y0143900D02*
X0246254Y0143900D01*
X0246254Y0144899D02*
X0247254Y0144899D01*
X0239674Y0144899D02*
X0227600Y0144899D01*
X0227600Y0143900D02*
X0239348Y0143900D01*
X0239348Y0142902D02*
X0227600Y0142902D01*
X0227600Y0141903D02*
X0239348Y0141903D01*
X0239348Y0140905D02*
X0227600Y0140905D01*
X0227600Y0139906D02*
X0239348Y0139906D01*
X0239348Y0138908D02*
X0227600Y0138908D01*
X0227600Y0137909D02*
X0239348Y0137909D01*
X0239348Y0136911D02*
X0227600Y0136911D01*
X0227600Y0135912D02*
X0239348Y0135912D01*
X0239348Y0134914D02*
X0227600Y0134914D01*
X0217600Y0134914D02*
X0210852Y0134914D01*
X0210852Y0134609D02*
X0210852Y0144149D01*
X0210750Y0144530D01*
X0210552Y0144872D01*
X0210273Y0145151D01*
X0209931Y0145349D01*
X0209549Y0145451D01*
X0203946Y0145451D01*
X0203946Y0134609D01*
X0202946Y0134609D01*
X0202946Y0133609D01*
X0196041Y0133609D01*
X0196041Y0124069D01*
X0196143Y0123687D01*
X0196341Y0123345D01*
X0196620Y0123066D01*
X0196962Y0122868D01*
X0197343Y0122766D01*
X0202946Y0122766D01*
X0202946Y0133609D01*
X0203946Y0133609D01*
X0203946Y0122766D01*
X0209549Y0122766D01*
X0209931Y0122868D01*
X0210273Y0123066D01*
X0210552Y0123345D01*
X0210750Y0123687D01*
X0210852Y0124069D01*
X0210852Y0133609D01*
X0203946Y0133609D01*
X0203946Y0134609D01*
X0210852Y0134609D01*
X0210852Y0135912D02*
X0217600Y0135912D01*
X0217600Y0136911D02*
X0210852Y0136911D01*
X0210852Y0137909D02*
X0217600Y0137909D01*
X0217600Y0138908D02*
X0210852Y0138908D01*
X0210852Y0139906D02*
X0217600Y0139906D01*
X0217600Y0140905D02*
X0210852Y0140905D01*
X0210852Y0141903D02*
X0217600Y0141903D01*
X0217600Y0142902D02*
X0210852Y0142902D01*
X0210852Y0143900D02*
X0217600Y0143900D01*
X0217600Y0144899D02*
X0210526Y0144899D01*
X0203946Y0144899D02*
X0202946Y0144899D01*
X0202946Y0145451D02*
X0197343Y0145451D01*
X0196962Y0145349D01*
X0196620Y0145151D01*
X0196341Y0144872D01*
X0196143Y0144530D01*
X0196041Y0144149D01*
X0196041Y0134609D01*
X0202946Y0134609D01*
X0202946Y0145451D01*
X0202946Y0143900D02*
X0203946Y0143900D01*
X0203946Y0142902D02*
X0202946Y0142902D01*
X0202946Y0141903D02*
X0203946Y0141903D01*
X0203946Y0140905D02*
X0202946Y0140905D01*
X0202946Y0139906D02*
X0203946Y0139906D01*
X0203946Y0138908D02*
X0202946Y0138908D01*
X0202946Y0137909D02*
X0203946Y0137909D01*
X0203946Y0136911D02*
X0202946Y0136911D01*
X0202946Y0135912D02*
X0203946Y0135912D01*
X0203946Y0134914D02*
X0202946Y0134914D01*
X0202946Y0133915D02*
X0182600Y0133915D01*
X0182600Y0132917D02*
X0196041Y0132917D01*
X0196041Y0131918D02*
X0182600Y0131918D01*
X0182600Y0130920D02*
X0196041Y0130920D01*
X0196041Y0129921D02*
X0182600Y0129921D01*
X0182600Y0128923D02*
X0196041Y0128923D01*
X0196041Y0127924D02*
X0182600Y0127924D01*
X0182600Y0126926D02*
X0196041Y0126926D01*
X0196041Y0125927D02*
X0182600Y0125927D01*
X0182600Y0124929D02*
X0196041Y0124929D01*
X0196078Y0123930D02*
X0182600Y0123930D01*
X0182600Y0122932D02*
X0187984Y0122932D01*
X0186899Y0121933D02*
X0182600Y0121933D01*
X0182600Y0120934D02*
X0186828Y0120934D01*
X0189911Y0120934D02*
X0190289Y0120934D01*
X0190289Y0120282D02*
X0190289Y0122971D01*
X0192069Y0122971D01*
X0192451Y0122869D01*
X0192793Y0122671D01*
X0193072Y0122392D01*
X0193269Y0122050D01*
X0193372Y0121668D01*
X0193372Y0120282D01*
X0190289Y0120282D01*
X0190289Y0119936D02*
X0217600Y0119936D01*
X0217600Y0120934D02*
X0193372Y0120934D01*
X0193301Y0121933D02*
X0217600Y0121933D01*
X0217600Y0122932D02*
X0210040Y0122932D01*
X0210815Y0123930D02*
X0217600Y0123930D01*
X0217600Y0124929D02*
X0210852Y0124929D01*
X0210852Y0125927D02*
X0217600Y0125927D01*
X0217600Y0126926D02*
X0210852Y0126926D01*
X0210852Y0127924D02*
X0217600Y0127924D01*
X0217600Y0128923D02*
X0210852Y0128923D01*
X0210852Y0129921D02*
X0217600Y0129921D01*
X0217600Y0130920D02*
X0210852Y0130920D01*
X0210852Y0131918D02*
X0217600Y0131918D01*
X0217600Y0132917D02*
X0210852Y0132917D01*
X0217600Y0133915D02*
X0203946Y0133915D01*
X0203946Y0132917D02*
X0202946Y0132917D01*
X0202946Y0131918D02*
X0203946Y0131918D01*
X0203946Y0130920D02*
X0202946Y0130920D01*
X0202946Y0129921D02*
X0203946Y0129921D01*
X0203946Y0128923D02*
X0202946Y0128923D01*
X0202946Y0127924D02*
X0203946Y0127924D01*
X0203946Y0126926D02*
X0202946Y0126926D01*
X0202946Y0125927D02*
X0203946Y0125927D01*
X0203946Y0124929D02*
X0202946Y0124929D01*
X0202946Y0123930D02*
X0203946Y0123930D01*
X0203946Y0122932D02*
X0202946Y0122932D01*
X0196853Y0122932D02*
X0192216Y0122932D01*
X0190289Y0122932D02*
X0189911Y0122932D01*
X0189911Y0121933D02*
X0190289Y0121933D01*
X0189911Y0119936D02*
X0182600Y0119936D01*
X0182600Y0134914D02*
X0196041Y0134914D01*
X0196041Y0135912D02*
X0182600Y0135912D01*
X0182600Y0136911D02*
X0196041Y0136911D01*
X0196041Y0137909D02*
X0182600Y0137909D01*
X0182600Y0138908D02*
X0196041Y0138908D01*
X0196041Y0139906D02*
X0182600Y0139906D01*
X0182600Y0140905D02*
X0196041Y0140905D01*
X0196041Y0141903D02*
X0182600Y0141903D01*
X0182600Y0142902D02*
X0196041Y0142902D01*
X0196041Y0143900D02*
X0182600Y0143900D01*
X0182600Y0144899D02*
X0196367Y0144899D01*
X0182600Y0145897D02*
X0217600Y0145897D01*
X0237411Y0162872D02*
X0237789Y0162872D01*
X0237789Y0163870D02*
X0237411Y0163870D01*
X0237411Y0164869D02*
X0237789Y0164869D01*
X0240872Y0164869D02*
X0257006Y0164869D01*
X0257006Y0165867D02*
X0240872Y0165867D01*
X0240872Y0163870D02*
X0257006Y0163870D01*
X0257006Y0162872D02*
X0240374Y0162872D01*
X0254159Y0131918D02*
X0257006Y0131918D01*
X0257006Y0130920D02*
X0254159Y0130920D01*
X0254159Y0129921D02*
X0257006Y0129921D01*
X0257006Y0128923D02*
X0254159Y0128923D01*
X0254159Y0127924D02*
X0257006Y0127924D01*
X0257006Y0126926D02*
X0254159Y0126926D01*
X0254159Y0125927D02*
X0257006Y0125927D01*
X0257006Y0124929D02*
X0254159Y0124929D01*
X0254122Y0123930D02*
X0257006Y0123930D01*
X0257006Y0122932D02*
X0253347Y0122932D01*
X0257006Y0121933D02*
X0227600Y0121933D01*
X0227600Y0120934D02*
X0257006Y0120934D01*
X0257006Y0119936D02*
X0227600Y0119936D01*
X0227600Y0118937D02*
X0257006Y0118937D01*
X0257006Y0117939D02*
X0227600Y0117939D01*
X0227600Y0116940D02*
X0257006Y0116940D01*
X0257006Y0115942D02*
X0227600Y0115942D01*
X0227600Y0114943D02*
X0257006Y0114943D01*
X0257006Y0113945D02*
X0227600Y0113945D01*
X0227600Y0112946D02*
X0257006Y0112946D01*
X0257006Y0111948D02*
X0227600Y0111948D01*
X0227600Y0110949D02*
X0257006Y0110949D01*
X0257006Y0109951D02*
X0227600Y0109951D01*
X0227600Y0108952D02*
X0257006Y0108952D01*
X0257006Y0107954D02*
X0227600Y0107954D01*
X0227600Y0106955D02*
X0257006Y0106955D01*
X0257006Y0105957D02*
X0227600Y0105957D01*
X0227600Y0104958D02*
X0257006Y0104958D01*
X0257006Y0103960D02*
X0250801Y0103960D01*
X0250671Y0103994D02*
X0243100Y0103994D01*
X0243100Y0099451D01*
X0251974Y0099451D01*
X0251974Y0102692D01*
X0251872Y0103073D01*
X0251674Y0103416D01*
X0251395Y0103695D01*
X0251053Y0103892D01*
X0250671Y0103994D01*
X0251902Y0102961D02*
X0257006Y0102961D01*
X0257006Y0101963D02*
X0251974Y0101963D01*
X0251974Y0100964D02*
X0257006Y0100964D01*
X0257006Y0099966D02*
X0251974Y0099966D01*
X0251974Y0098451D02*
X0251974Y0095210D01*
X0251872Y0094829D01*
X0251674Y0094487D01*
X0251395Y0094208D01*
X0251053Y0094010D01*
X0250671Y0093908D01*
X0243100Y0093908D01*
X0243100Y0098451D01*
X0242100Y0098451D01*
X0242100Y0093908D01*
X0234528Y0093908D01*
X0234147Y0094010D01*
X0233805Y0094208D01*
X0233526Y0094487D01*
X0233328Y0094829D01*
X0233226Y0095210D01*
X0233226Y0098451D01*
X0242100Y0098451D01*
X0242100Y0099451D01*
X0233226Y0099451D01*
X0233226Y0102692D01*
X0233328Y0103073D01*
X0233526Y0103416D01*
X0233805Y0103695D01*
X0234147Y0103892D01*
X0234528Y0103994D01*
X0242100Y0103994D01*
X0242100Y0099451D01*
X0243100Y0099451D01*
X0243100Y0098451D01*
X0251974Y0098451D01*
X0251974Y0097969D02*
X0257006Y0097969D01*
X0257006Y0098967D02*
X0243100Y0098967D01*
X0243100Y0097969D02*
X0242100Y0097969D01*
X0242100Y0098967D02*
X0227600Y0098967D01*
X0227600Y0097969D02*
X0233226Y0097969D01*
X0233226Y0096970D02*
X0227600Y0096970D01*
X0227600Y0095972D02*
X0233226Y0095972D01*
X0233290Y0094973D02*
X0227600Y0094973D01*
X0227600Y0093975D02*
X0234279Y0093975D01*
X0233226Y0099966D02*
X0227600Y0099966D01*
X0227600Y0100964D02*
X0233226Y0100964D01*
X0233226Y0101963D02*
X0227600Y0101963D01*
X0227600Y0102961D02*
X0233298Y0102961D01*
X0234399Y0103960D02*
X0227600Y0103960D01*
X0227600Y0092976D02*
X0257006Y0092976D01*
X0257006Y0091978D02*
X0227600Y0091978D01*
X0227600Y0090979D02*
X0257006Y0090979D01*
X0257006Y0089981D02*
X0227600Y0089981D01*
X0228600Y0086609D02*
X0257006Y0086609D01*
X0257006Y0036609D01*
X0238650Y0036609D01*
X0238546Y0036652D01*
X0237166Y0036652D01*
X0237061Y0036609D01*
X0228600Y0036609D01*
X0228600Y0086609D01*
X0228600Y0085987D02*
X0257006Y0085987D01*
X0257006Y0084988D02*
X0228600Y0084988D01*
X0228600Y0083990D02*
X0233785Y0083990D01*
X0233805Y0084010D02*
X0233526Y0083730D01*
X0233328Y0083388D01*
X0233226Y0083007D01*
X0233226Y0079766D01*
X0242100Y0079766D01*
X0242100Y0078766D01*
X0243100Y0078766D01*
X0243100Y0074223D01*
X0250671Y0074223D01*
X0251053Y0074325D01*
X0251395Y0074523D01*
X0251674Y0074802D01*
X0251872Y0075144D01*
X0251974Y0075525D01*
X0251974Y0078766D01*
X0243100Y0078766D01*
X0243100Y0079766D01*
X0251974Y0079766D01*
X0251974Y0083007D01*
X0251872Y0083388D01*
X0251674Y0083730D01*
X0251395Y0084010D01*
X0251053Y0084207D01*
X0250671Y0084309D01*
X0243100Y0084309D01*
X0243100Y0079766D01*
X0242100Y0079766D01*
X0242100Y0084309D01*
X0234528Y0084309D01*
X0234147Y0084207D01*
X0233805Y0084010D01*
X0233226Y0082991D02*
X0228600Y0082991D01*
X0228600Y0081993D02*
X0233226Y0081993D01*
X0233226Y0080994D02*
X0228600Y0080994D01*
X0228600Y0079996D02*
X0233226Y0079996D01*
X0233226Y0078766D02*
X0233226Y0075525D01*
X0233328Y0075144D01*
X0233526Y0074802D01*
X0233805Y0074523D01*
X0234147Y0074325D01*
X0234528Y0074223D01*
X0242100Y0074223D01*
X0242100Y0078766D01*
X0233226Y0078766D01*
X0233226Y0077998D02*
X0228600Y0077998D01*
X0228600Y0077000D02*
X0233226Y0077000D01*
X0233226Y0076001D02*
X0228600Y0076001D01*
X0228600Y0075003D02*
X0233410Y0075003D01*
X0228600Y0074004D02*
X0257006Y0074004D01*
X0257006Y0073006D02*
X0228600Y0073006D01*
X0228600Y0072007D02*
X0257006Y0072007D01*
X0257006Y0071009D02*
X0228600Y0071009D01*
X0228600Y0070010D02*
X0257006Y0070010D01*
X0257006Y0069012D02*
X0228600Y0069012D01*
X0228600Y0068013D02*
X0257006Y0068013D01*
X0257006Y0067015D02*
X0228600Y0067015D01*
X0228600Y0066016D02*
X0257006Y0066016D01*
X0257006Y0065018D02*
X0228600Y0065018D01*
X0228600Y0064019D02*
X0257006Y0064019D01*
X0257006Y0063021D02*
X0228600Y0063021D01*
X0228600Y0062022D02*
X0257006Y0062022D01*
X0257006Y0061024D02*
X0228600Y0061024D01*
X0228600Y0060025D02*
X0257006Y0060025D01*
X0257006Y0059027D02*
X0243275Y0059027D01*
X0243298Y0058988D02*
X0243100Y0059330D01*
X0242821Y0059609D01*
X0242479Y0059806D01*
X0242097Y0059909D01*
X0238100Y0059909D01*
X0238100Y0054609D01*
X0237100Y0054609D01*
X0237100Y0059909D01*
X0233103Y0059909D01*
X0232721Y0059806D01*
X0232379Y0059609D01*
X0232100Y0059330D01*
X0231902Y0058988D01*
X0231800Y0058606D01*
X0231800Y0054609D01*
X0237100Y0054609D01*
X0237100Y0053609D01*
X0231800Y0053609D01*
X0231800Y0049611D01*
X0231902Y0049230D01*
X0232100Y0048888D01*
X0232379Y0048608D01*
X0232721Y0048411D01*
X0233103Y0048309D01*
X0237100Y0048309D01*
X0237100Y0053609D01*
X0238100Y0053609D01*
X0238100Y0054609D01*
X0243400Y0054609D01*
X0243400Y0058606D01*
X0243298Y0058988D01*
X0243400Y0058028D02*
X0257006Y0058028D01*
X0257006Y0057030D02*
X0243400Y0057030D01*
X0243400Y0056031D02*
X0257006Y0056031D01*
X0257006Y0055033D02*
X0243400Y0055033D01*
X0243400Y0053609D02*
X0238100Y0053609D01*
X0238100Y0048309D01*
X0242097Y0048309D01*
X0242479Y0048411D01*
X0242821Y0048608D01*
X0243100Y0048888D01*
X0243298Y0049230D01*
X0243400Y0049611D01*
X0243400Y0053609D01*
X0243400Y0053036D02*
X0257006Y0053036D01*
X0257006Y0054034D02*
X0238100Y0054034D01*
X0238100Y0053036D02*
X0237100Y0053036D01*
X0237100Y0054034D02*
X0228600Y0054034D01*
X0228600Y0053036D02*
X0231800Y0053036D01*
X0231800Y0052037D02*
X0228600Y0052037D01*
X0228600Y0051039D02*
X0231800Y0051039D01*
X0231800Y0050040D02*
X0228600Y0050040D01*
X0228600Y0049042D02*
X0232011Y0049042D01*
X0228600Y0048043D02*
X0257006Y0048043D01*
X0257006Y0047045D02*
X0228600Y0047045D01*
X0228600Y0046046D02*
X0257006Y0046046D01*
X0257006Y0045048D02*
X0228600Y0045048D01*
X0228600Y0044049D02*
X0257006Y0044049D01*
X0257006Y0043051D02*
X0228600Y0043051D01*
X0228600Y0042052D02*
X0257006Y0042052D01*
X0257006Y0041054D02*
X0228600Y0041054D01*
X0228600Y0040055D02*
X0257006Y0040055D01*
X0257006Y0039057D02*
X0228600Y0039057D01*
X0228600Y0038058D02*
X0257006Y0038058D01*
X0257006Y0037060D02*
X0228600Y0037060D01*
X0225100Y0037060D02*
X0198600Y0037060D01*
X0198600Y0036609D02*
X0198600Y0086609D01*
X0225100Y0086609D01*
X0225100Y0036609D01*
X0198600Y0036609D01*
X0198600Y0038058D02*
X0225100Y0038058D01*
X0225100Y0039057D02*
X0198600Y0039057D01*
X0198600Y0040055D02*
X0225100Y0040055D01*
X0225100Y0041054D02*
X0198600Y0041054D01*
X0198600Y0042052D02*
X0225100Y0042052D01*
X0225100Y0043051D02*
X0198600Y0043051D01*
X0198600Y0044049D02*
X0225100Y0044049D01*
X0225100Y0045048D02*
X0198600Y0045048D01*
X0198600Y0046046D02*
X0225100Y0046046D01*
X0225100Y0047045D02*
X0198600Y0047045D01*
X0198600Y0048043D02*
X0225100Y0048043D01*
X0225100Y0049042D02*
X0223504Y0049042D01*
X0223415Y0048888D02*
X0223613Y0049230D01*
X0223715Y0049611D01*
X0223715Y0053609D01*
X0218415Y0053609D01*
X0218415Y0054609D01*
X0217415Y0054609D01*
X0217415Y0059909D01*
X0213417Y0059909D01*
X0213036Y0059806D01*
X0212694Y0059609D01*
X0212415Y0059330D01*
X0212217Y0058988D01*
X0212115Y0058606D01*
X0212115Y0054609D01*
X0217415Y0054609D01*
X0217415Y0053609D01*
X0212115Y0053609D01*
X0212115Y0049611D01*
X0212217Y0049230D01*
X0212415Y0048888D01*
X0212694Y0048608D01*
X0213036Y0048411D01*
X0213417Y0048309D01*
X0217415Y0048309D01*
X0217415Y0053609D01*
X0218415Y0053609D01*
X0218415Y0048309D01*
X0222412Y0048309D01*
X0222794Y0048411D01*
X0223136Y0048608D01*
X0223415Y0048888D01*
X0223715Y0050040D02*
X0225100Y0050040D01*
X0225100Y0051039D02*
X0223715Y0051039D01*
X0223715Y0052037D02*
X0225100Y0052037D01*
X0225100Y0053036D02*
X0223715Y0053036D01*
X0223715Y0054609D02*
X0223715Y0058606D01*
X0223613Y0058988D01*
X0223415Y0059330D01*
X0223136Y0059609D01*
X0222794Y0059806D01*
X0222412Y0059909D01*
X0218415Y0059909D01*
X0218415Y0054609D01*
X0223715Y0054609D01*
X0223715Y0055033D02*
X0225100Y0055033D01*
X0225100Y0056031D02*
X0223715Y0056031D01*
X0223715Y0057030D02*
X0225100Y0057030D01*
X0225100Y0058028D02*
X0223715Y0058028D01*
X0223590Y0059027D02*
X0225100Y0059027D01*
X0225100Y0060025D02*
X0198600Y0060025D01*
X0198600Y0059027D02*
X0212240Y0059027D01*
X0212115Y0058028D02*
X0198600Y0058028D01*
X0198600Y0057030D02*
X0212115Y0057030D01*
X0212115Y0056031D02*
X0198600Y0056031D01*
X0198600Y0055033D02*
X0212115Y0055033D01*
X0212115Y0053036D02*
X0198600Y0053036D01*
X0198600Y0054034D02*
X0217415Y0054034D01*
X0217415Y0053036D02*
X0218415Y0053036D01*
X0218415Y0054034D02*
X0225100Y0054034D01*
X0228600Y0055033D02*
X0231800Y0055033D01*
X0231800Y0056031D02*
X0228600Y0056031D01*
X0228600Y0057030D02*
X0231800Y0057030D01*
X0231800Y0058028D02*
X0228600Y0058028D01*
X0228600Y0059027D02*
X0231925Y0059027D01*
X0237100Y0059027D02*
X0238100Y0059027D01*
X0238100Y0058028D02*
X0237100Y0058028D01*
X0237100Y0057030D02*
X0238100Y0057030D01*
X0238100Y0056031D02*
X0237100Y0056031D01*
X0237100Y0055033D02*
X0238100Y0055033D01*
X0238100Y0052037D02*
X0237100Y0052037D01*
X0237100Y0051039D02*
X0238100Y0051039D01*
X0238100Y0050040D02*
X0237100Y0050040D01*
X0237100Y0049042D02*
X0238100Y0049042D01*
X0243189Y0049042D02*
X0257006Y0049042D01*
X0257006Y0050040D02*
X0243400Y0050040D01*
X0243400Y0051039D02*
X0257006Y0051039D01*
X0257006Y0052037D02*
X0243400Y0052037D01*
X0225100Y0061024D02*
X0198600Y0061024D01*
X0198600Y0062022D02*
X0225100Y0062022D01*
X0225100Y0063021D02*
X0198600Y0063021D01*
X0198600Y0064019D02*
X0225100Y0064019D01*
X0225100Y0065018D02*
X0198600Y0065018D01*
X0198600Y0066016D02*
X0225100Y0066016D01*
X0225100Y0067015D02*
X0198600Y0067015D01*
X0198600Y0068013D02*
X0225100Y0068013D01*
X0225100Y0069012D02*
X0198600Y0069012D01*
X0198600Y0070010D02*
X0225100Y0070010D01*
X0225100Y0071009D02*
X0198600Y0071009D01*
X0198600Y0072007D02*
X0225100Y0072007D01*
X0225100Y0073006D02*
X0198600Y0073006D01*
X0198600Y0074004D02*
X0225100Y0074004D01*
X0225100Y0075003D02*
X0221790Y0075003D01*
X0221872Y0075144D02*
X0221974Y0075525D01*
X0221974Y0078766D01*
X0213100Y0078766D01*
X0213100Y0074223D01*
X0220671Y0074223D01*
X0221053Y0074325D01*
X0221395Y0074523D01*
X0221674Y0074802D01*
X0221872Y0075144D01*
X0221974Y0076001D02*
X0225100Y0076001D01*
X0225100Y0077000D02*
X0221974Y0077000D01*
X0221974Y0077998D02*
X0225100Y0077998D01*
X0225100Y0078997D02*
X0213100Y0078997D01*
X0213100Y0078766D02*
X0213100Y0079766D01*
X0221974Y0079766D01*
X0221974Y0083007D01*
X0221872Y0083388D01*
X0221674Y0083730D01*
X0221395Y0084010D01*
X0221053Y0084207D01*
X0220671Y0084309D01*
X0213100Y0084309D01*
X0213100Y0079766D01*
X0212100Y0079766D01*
X0212100Y0078766D01*
X0213100Y0078766D01*
X0213100Y0077998D02*
X0212100Y0077998D01*
X0212100Y0078766D02*
X0212100Y0074223D01*
X0204528Y0074223D01*
X0204147Y0074325D01*
X0203805Y0074523D01*
X0203526Y0074802D01*
X0203328Y0075144D01*
X0203226Y0075525D01*
X0203226Y0078766D01*
X0212100Y0078766D01*
X0212100Y0078997D02*
X0198600Y0078997D01*
X0198600Y0077998D02*
X0203226Y0077998D01*
X0203226Y0077000D02*
X0198600Y0077000D01*
X0198600Y0076001D02*
X0203226Y0076001D01*
X0203410Y0075003D02*
X0198600Y0075003D01*
X0198600Y0079996D02*
X0203226Y0079996D01*
X0203226Y0079766D02*
X0212100Y0079766D01*
X0212100Y0084309D01*
X0204528Y0084309D01*
X0204147Y0084207D01*
X0203805Y0084010D01*
X0203526Y0083730D01*
X0203328Y0083388D01*
X0203226Y0083007D01*
X0203226Y0079766D01*
X0203226Y0080994D02*
X0198600Y0080994D01*
X0198600Y0081993D02*
X0203226Y0081993D01*
X0203226Y0082991D02*
X0198600Y0082991D01*
X0198600Y0083990D02*
X0203785Y0083990D01*
X0198600Y0084988D02*
X0225100Y0084988D01*
X0225100Y0083990D02*
X0221415Y0083990D01*
X0221974Y0082991D02*
X0225100Y0082991D01*
X0225100Y0081993D02*
X0221974Y0081993D01*
X0221974Y0080994D02*
X0225100Y0080994D01*
X0225100Y0079996D02*
X0221974Y0079996D01*
X0228600Y0078997D02*
X0242100Y0078997D01*
X0242100Y0077998D02*
X0243100Y0077998D01*
X0243100Y0077000D02*
X0242100Y0077000D01*
X0242100Y0076001D02*
X0243100Y0076001D01*
X0243100Y0075003D02*
X0242100Y0075003D01*
X0243100Y0078997D02*
X0257006Y0078997D01*
X0257006Y0077998D02*
X0251974Y0077998D01*
X0251974Y0077000D02*
X0257006Y0077000D01*
X0257006Y0076001D02*
X0251974Y0076001D01*
X0251790Y0075003D02*
X0257006Y0075003D01*
X0257006Y0079996D02*
X0251974Y0079996D01*
X0251974Y0080994D02*
X0257006Y0080994D01*
X0257006Y0081993D02*
X0251974Y0081993D01*
X0251974Y0082991D02*
X0257006Y0082991D01*
X0257006Y0083990D02*
X0251415Y0083990D01*
X0243100Y0083990D02*
X0242100Y0083990D01*
X0242100Y0082991D02*
X0243100Y0082991D01*
X0243100Y0081993D02*
X0242100Y0081993D01*
X0242100Y0080994D02*
X0243100Y0080994D01*
X0243100Y0079996D02*
X0242100Y0079996D01*
X0242100Y0093975D02*
X0243100Y0093975D01*
X0243100Y0094973D02*
X0242100Y0094973D01*
X0242100Y0095972D02*
X0243100Y0095972D01*
X0243100Y0096970D02*
X0242100Y0096970D01*
X0242100Y0099966D02*
X0243100Y0099966D01*
X0243100Y0100964D02*
X0242100Y0100964D01*
X0242100Y0101963D02*
X0243100Y0101963D01*
X0243100Y0102961D02*
X0242100Y0102961D01*
X0242100Y0103960D02*
X0243100Y0103960D01*
X0251974Y0096970D02*
X0257006Y0096970D01*
X0257006Y0095972D02*
X0251974Y0095972D01*
X0251910Y0094973D02*
X0257006Y0094973D01*
X0257006Y0093975D02*
X0250921Y0093975D01*
X0225100Y0085987D02*
X0198600Y0085987D01*
X0212100Y0083990D02*
X0213100Y0083990D01*
X0213100Y0082991D02*
X0212100Y0082991D01*
X0212100Y0081993D02*
X0213100Y0081993D01*
X0213100Y0080994D02*
X0212100Y0080994D01*
X0212100Y0079996D02*
X0213100Y0079996D01*
X0213100Y0077000D02*
X0212100Y0077000D01*
X0212100Y0076001D02*
X0213100Y0076001D01*
X0213100Y0075003D02*
X0212100Y0075003D01*
X0217415Y0059027D02*
X0218415Y0059027D01*
X0218415Y0058028D02*
X0217415Y0058028D01*
X0217415Y0057030D02*
X0218415Y0057030D01*
X0218415Y0056031D02*
X0217415Y0056031D01*
X0217415Y0055033D02*
X0218415Y0055033D01*
X0218415Y0052037D02*
X0217415Y0052037D01*
X0217415Y0051039D02*
X0218415Y0051039D01*
X0218415Y0050040D02*
X0217415Y0050040D01*
X0217415Y0049042D02*
X0218415Y0049042D01*
X0212326Y0049042D02*
X0198600Y0049042D01*
X0198600Y0050040D02*
X0212115Y0050040D01*
X0212115Y0051039D02*
X0198600Y0051039D01*
X0198600Y0052037D02*
X0212115Y0052037D01*
D27*
X0237600Y0170487D02*
X0237600Y0174581D01*
M02*
