%
M48
M72
T01C0.01200
T02C0.04000
T03C0.04724
T04C0.05600
T05C0.11024
%
T01
X30100Y9109
X42600Y31609
X55100Y41609
X60100Y31609
X75100Y46609
X80100Y31609
X100100Y31609
X110100Y44109
X97600Y61609
X120100Y66609
X135100Y54109
X135100Y34109
X152600Y34109
X165572Y43400
X175100Y44109
X187600Y36609
X172600Y31609
X155100Y49109
X165100Y64109
X177600Y81609
X190100Y74109
X197600Y91609
X185100Y94109
X177600Y109109
X162600Y106609
X162600Y89109
X140100Y74109
X132600Y89109
X115100Y106609
X102600Y86609
X77600Y76609
X62600Y94109
X42600Y89109
X25100Y106609
X7600Y116609
X25100Y136609
X7600Y149109
X27600Y171609
X7600Y176609
X7600Y194109
X32600Y194109
X47600Y209109
X32600Y219109
X52600Y181609
X77600Y199109
X77600Y219109
X107600Y199109
X130100Y196609
X135100Y176609
X155100Y176609
X175100Y171609
X177600Y191609
X195100Y201609
X175100Y219109
X152600Y199109
X150100Y219109
X125100Y219109
X100100Y179109
X80100Y159109
X102600Y154109
X100100Y129109
X80100Y111609
X45100Y116609
X10100Y86609
X10100Y64109
X10100Y41609
X32600Y46609
X47600Y66609
X60887Y7928
X90494Y8321
X120887Y7928
X150631Y8321
X181025Y8715
X200887Y8321
X237856Y33183
X255100Y31609
X200100Y106609
X220100Y111609
X175100Y134109
X162600Y144109
X145100Y136609
X160100Y124109
X140100Y111609
X125100Y129109
X50100Y151609
X225100Y176609
X225100Y191609
X225100Y216609
X252600Y191609
X252600Y171609
T02
X147600Y166609
X147600Y156609
X147600Y146609
X82600Y134109
X72600Y134109
X62600Y134109
X62600Y124109
X72600Y124109
X82600Y124109
X182600Y64109
X192600Y64109
X192600Y54109
X182600Y54109
X182600Y44109
X192600Y44109
X195541Y24117
X185541Y24117
X175541Y24117
X165541Y24117
X155541Y24117
X145541Y24117
X135541Y24117
X125541Y24117
X115541Y24117
X105541Y24117
X95541Y24117
X85541Y24117
X75541Y24117
X65541Y24117
X55541Y24117
X45541Y24117
X35541Y24117
X35541Y14117
X45541Y14117
X55541Y14117
X65541Y14117
X75541Y14117
X85541Y14117
X95541Y14117
X105541Y14117
X115541Y14117
X125541Y14117
X135541Y14117
X145541Y14117
X155541Y14117
X165541Y14117
X175541Y14117
X185541Y14117
X195541Y14117
X205541Y14117
X215541Y14117
X225541Y14117
X225541Y24117
X215541Y24117
X205541Y24117
T03
X217915Y54109
X237600Y54109
T04
X207600Y184109
X187600Y195359
X207600Y207859
T05
X16773Y18282
X16773Y210408
X244332Y210408
X244332Y18282
M30
