G75*
%MOIN*%
%OFA0B0*%
%FSLAX25Y25*%
%IPPOS*%
%LPD*%
%AMOC8*
5,1,8,0,0,1.08239X$1,22.5*
%
%ADD10C,0.00000*%
%ADD11C,0.21000*%
%ADD12C,0.06000*%
%ADD13OC8,0.06000*%
%ADD14R,0.08600X0.08600*%
%ADD15R,0.10000X0.10000*%
%ADD16OC8,0.10000*%
%ADD17OC8,0.07400*%
%ADD18C,0.03200*%
%ADD19C,0.02000*%
%ADD20C,0.02400*%
%ADD21C,0.01600*%
D10*
X0016773Y0004109D02*
X0244332Y0004109D01*
X0244674Y0004113D01*
X0245017Y0004126D01*
X0245359Y0004146D01*
X0245700Y0004175D01*
X0246040Y0004212D01*
X0246380Y0004258D01*
X0246718Y0004311D01*
X0247055Y0004373D01*
X0247390Y0004443D01*
X0247724Y0004521D01*
X0248055Y0004607D01*
X0248385Y0004701D01*
X0248712Y0004803D01*
X0249036Y0004912D01*
X0249358Y0005030D01*
X0249677Y0005155D01*
X0249992Y0005288D01*
X0250305Y0005429D01*
X0250613Y0005577D01*
X0250919Y0005732D01*
X0251220Y0005895D01*
X0251517Y0006065D01*
X0251810Y0006242D01*
X0252099Y0006427D01*
X0252383Y0006618D01*
X0252663Y0006816D01*
X0252937Y0007020D01*
X0253207Y0007232D01*
X0253471Y0007449D01*
X0253730Y0007673D01*
X0253984Y0007904D01*
X0254232Y0008140D01*
X0254474Y0008382D01*
X0254710Y0008630D01*
X0254941Y0008884D01*
X0255165Y0009143D01*
X0255382Y0009407D01*
X0255594Y0009677D01*
X0255798Y0009951D01*
X0255996Y0010231D01*
X0256187Y0010515D01*
X0256372Y0010804D01*
X0256549Y0011097D01*
X0256719Y0011394D01*
X0256882Y0011695D01*
X0257037Y0012001D01*
X0257185Y0012309D01*
X0257326Y0012622D01*
X0257459Y0012937D01*
X0257584Y0013256D01*
X0257702Y0013578D01*
X0257811Y0013902D01*
X0257913Y0014229D01*
X0258007Y0014559D01*
X0258093Y0014890D01*
X0258171Y0015224D01*
X0258241Y0015559D01*
X0258303Y0015896D01*
X0258356Y0016234D01*
X0258402Y0016574D01*
X0258439Y0016914D01*
X0258468Y0017255D01*
X0258488Y0017597D01*
X0258501Y0017940D01*
X0258505Y0018282D01*
X0258506Y0018282D02*
X0258506Y0210408D01*
X0258505Y0210408D02*
X0258501Y0210750D01*
X0258488Y0211093D01*
X0258468Y0211435D01*
X0258439Y0211776D01*
X0258402Y0212116D01*
X0258356Y0212456D01*
X0258303Y0212794D01*
X0258241Y0213131D01*
X0258171Y0213466D01*
X0258093Y0213800D01*
X0258007Y0214131D01*
X0257913Y0214461D01*
X0257811Y0214788D01*
X0257702Y0215112D01*
X0257584Y0215434D01*
X0257459Y0215753D01*
X0257326Y0216068D01*
X0257185Y0216381D01*
X0257037Y0216689D01*
X0256882Y0216995D01*
X0256719Y0217296D01*
X0256549Y0217593D01*
X0256372Y0217886D01*
X0256187Y0218175D01*
X0255996Y0218459D01*
X0255798Y0218739D01*
X0255594Y0219013D01*
X0255382Y0219283D01*
X0255165Y0219547D01*
X0254941Y0219806D01*
X0254710Y0220060D01*
X0254474Y0220308D01*
X0254232Y0220550D01*
X0253984Y0220786D01*
X0253730Y0221017D01*
X0253471Y0221241D01*
X0253207Y0221458D01*
X0252937Y0221670D01*
X0252663Y0221874D01*
X0252383Y0222072D01*
X0252099Y0222263D01*
X0251810Y0222448D01*
X0251517Y0222625D01*
X0251220Y0222795D01*
X0250919Y0222958D01*
X0250613Y0223113D01*
X0250305Y0223261D01*
X0249992Y0223402D01*
X0249677Y0223535D01*
X0249358Y0223660D01*
X0249036Y0223778D01*
X0248712Y0223887D01*
X0248385Y0223989D01*
X0248055Y0224083D01*
X0247724Y0224169D01*
X0247390Y0224247D01*
X0247055Y0224317D01*
X0246718Y0224379D01*
X0246380Y0224432D01*
X0246040Y0224478D01*
X0245700Y0224515D01*
X0245359Y0224544D01*
X0245017Y0224564D01*
X0244674Y0224577D01*
X0244332Y0224581D01*
X0016773Y0224581D01*
X0016431Y0224577D01*
X0016088Y0224564D01*
X0015746Y0224544D01*
X0015405Y0224515D01*
X0015065Y0224478D01*
X0014725Y0224432D01*
X0014387Y0224379D01*
X0014050Y0224317D01*
X0013715Y0224247D01*
X0013381Y0224169D01*
X0013050Y0224083D01*
X0012720Y0223989D01*
X0012393Y0223887D01*
X0012069Y0223778D01*
X0011747Y0223660D01*
X0011428Y0223535D01*
X0011113Y0223402D01*
X0010800Y0223261D01*
X0010492Y0223113D01*
X0010186Y0222958D01*
X0009885Y0222795D01*
X0009588Y0222625D01*
X0009295Y0222448D01*
X0009006Y0222263D01*
X0008722Y0222072D01*
X0008442Y0221874D01*
X0008168Y0221670D01*
X0007898Y0221458D01*
X0007634Y0221241D01*
X0007375Y0221017D01*
X0007121Y0220786D01*
X0006873Y0220550D01*
X0006631Y0220308D01*
X0006395Y0220060D01*
X0006164Y0219806D01*
X0005940Y0219547D01*
X0005723Y0219283D01*
X0005511Y0219013D01*
X0005307Y0218739D01*
X0005109Y0218459D01*
X0004918Y0218175D01*
X0004733Y0217886D01*
X0004556Y0217593D01*
X0004386Y0217296D01*
X0004223Y0216995D01*
X0004068Y0216689D01*
X0003920Y0216381D01*
X0003779Y0216068D01*
X0003646Y0215753D01*
X0003521Y0215434D01*
X0003403Y0215112D01*
X0003294Y0214788D01*
X0003192Y0214461D01*
X0003098Y0214131D01*
X0003012Y0213800D01*
X0002934Y0213466D01*
X0002864Y0213131D01*
X0002802Y0212794D01*
X0002749Y0212456D01*
X0002703Y0212116D01*
X0002666Y0211776D01*
X0002637Y0211435D01*
X0002617Y0211093D01*
X0002604Y0210750D01*
X0002600Y0210408D01*
X0002600Y0018282D01*
X0002604Y0017940D01*
X0002617Y0017597D01*
X0002637Y0017255D01*
X0002666Y0016914D01*
X0002703Y0016574D01*
X0002749Y0016234D01*
X0002802Y0015896D01*
X0002864Y0015559D01*
X0002934Y0015224D01*
X0003012Y0014890D01*
X0003098Y0014559D01*
X0003192Y0014229D01*
X0003294Y0013902D01*
X0003403Y0013578D01*
X0003521Y0013256D01*
X0003646Y0012937D01*
X0003779Y0012622D01*
X0003920Y0012309D01*
X0004068Y0012001D01*
X0004223Y0011695D01*
X0004386Y0011394D01*
X0004556Y0011097D01*
X0004733Y0010804D01*
X0004918Y0010515D01*
X0005109Y0010231D01*
X0005307Y0009951D01*
X0005511Y0009677D01*
X0005723Y0009407D01*
X0005940Y0009143D01*
X0006164Y0008884D01*
X0006395Y0008630D01*
X0006631Y0008382D01*
X0006873Y0008140D01*
X0007121Y0007904D01*
X0007375Y0007673D01*
X0007634Y0007449D01*
X0007898Y0007232D01*
X0008168Y0007020D01*
X0008442Y0006816D01*
X0008722Y0006618D01*
X0009006Y0006427D01*
X0009295Y0006242D01*
X0009588Y0006065D01*
X0009885Y0005895D01*
X0010186Y0005732D01*
X0010492Y0005577D01*
X0010800Y0005429D01*
X0011113Y0005288D01*
X0011428Y0005155D01*
X0011747Y0005030D01*
X0012069Y0004912D01*
X0012393Y0004803D01*
X0012720Y0004701D01*
X0013050Y0004607D01*
X0013381Y0004521D01*
X0013715Y0004443D01*
X0014050Y0004373D01*
X0014387Y0004311D01*
X0014725Y0004258D01*
X0015065Y0004212D01*
X0015405Y0004175D01*
X0015746Y0004146D01*
X0016088Y0004126D01*
X0016431Y0004113D01*
X0016773Y0004109D01*
D11*
X0016773Y0018282D03*
X0016773Y0210408D03*
X0244332Y0210408D03*
X0244332Y0018282D03*
D12*
X0150600Y0146609D02*
X0144600Y0146609D01*
X0144600Y0156609D02*
X0150600Y0156609D01*
X0150600Y0166609D02*
X0144600Y0166609D01*
D13*
X0082600Y0134109D03*
X0072600Y0134109D03*
X0062600Y0134109D03*
X0062600Y0124109D03*
X0072600Y0124109D03*
X0082600Y0124109D03*
X0182600Y0064109D03*
X0192600Y0064109D03*
X0192600Y0054109D03*
X0182600Y0054109D03*
X0182600Y0044109D03*
X0192600Y0044109D03*
D14*
X0217915Y0054109D03*
X0237600Y0054109D03*
D15*
X0207600Y0184109D03*
D16*
X0187600Y0195359D03*
X0207600Y0207859D03*
D17*
X0205541Y0024117D03*
X0215541Y0024117D03*
X0225541Y0024117D03*
X0225541Y0014117D03*
X0215541Y0014117D03*
X0205541Y0014117D03*
X0195541Y0014117D03*
X0185541Y0014117D03*
X0175541Y0014117D03*
X0165541Y0014117D03*
X0155541Y0014117D03*
X0145541Y0014117D03*
X0135541Y0014117D03*
X0125541Y0014117D03*
X0115541Y0014117D03*
X0105541Y0014117D03*
X0095541Y0014117D03*
X0085541Y0014117D03*
X0075541Y0014117D03*
X0065541Y0014117D03*
X0055541Y0014117D03*
X0045541Y0014117D03*
X0035541Y0014117D03*
X0035541Y0024117D03*
X0045541Y0024117D03*
X0055541Y0024117D03*
X0065541Y0024117D03*
X0075541Y0024117D03*
X0085541Y0024117D03*
X0095541Y0024117D03*
X0105541Y0024117D03*
X0115541Y0024117D03*
X0125541Y0024117D03*
X0135541Y0024117D03*
X0145541Y0024117D03*
X0155541Y0024117D03*
X0165541Y0024117D03*
X0175541Y0024117D03*
X0185541Y0024117D03*
X0195541Y0024117D03*
D18*
X0195321Y0037540D02*
X0189879Y0037540D01*
X0187679Y0039740D01*
X0187521Y0039740D01*
X0185321Y0037540D01*
X0179879Y0037540D01*
X0176031Y0041388D01*
X0176031Y0046829D01*
X0179137Y0049935D01*
X0177200Y0051872D01*
X0177200Y0056345D01*
X0179137Y0058282D01*
X0176031Y0061388D01*
X0176031Y0066829D01*
X0179879Y0070677D01*
X0185321Y0070677D01*
X0187521Y0068477D01*
X0187679Y0068477D01*
X0189879Y0070677D01*
X0195321Y0070677D01*
X0197521Y0068477D01*
X0208784Y0068477D01*
X0210390Y0067812D01*
X0216224Y0061977D01*
X0222925Y0061977D01*
X0224236Y0061434D01*
X0225240Y0060430D01*
X0225783Y0059118D01*
X0225783Y0049099D01*
X0225526Y0048477D01*
X0225790Y0048477D01*
X0229731Y0052418D01*
X0229731Y0059118D01*
X0230275Y0060430D01*
X0231279Y0061434D01*
X0232590Y0061977D01*
X0242610Y0061977D01*
X0243921Y0061434D01*
X0244925Y0060430D01*
X0245468Y0059118D01*
X0245468Y0049099D01*
X0244925Y0047787D01*
X0243921Y0046783D01*
X0242610Y0046240D01*
X0235909Y0046240D01*
X0230075Y0040405D01*
X0228469Y0039740D01*
X0197521Y0039740D01*
X0195321Y0037540D01*
X0197073Y0039292D02*
X0255906Y0039292D01*
X0255906Y0036094D02*
X0180706Y0036094D01*
X0181591Y0035209D02*
X0173700Y0043100D01*
X0173700Y0124825D01*
X0173152Y0126148D01*
X0172139Y0127161D01*
X0155345Y0143954D01*
X0156000Y0145535D01*
X0156000Y0147683D01*
X0155178Y0149668D01*
X0153659Y0151187D01*
X0152906Y0151498D01*
X0153535Y0151819D01*
X0154248Y0152337D01*
X0154871Y0152961D01*
X0155390Y0153674D01*
X0155790Y0154459D01*
X0156062Y0155297D01*
X0156200Y0156168D01*
X0156200Y0156609D01*
X0156200Y0157049D01*
X0156062Y0157920D01*
X0155790Y0158758D01*
X0155390Y0159544D01*
X0154871Y0160257D01*
X0154248Y0160880D01*
X0153535Y0161398D01*
X0152906Y0161719D01*
X0153659Y0162031D01*
X0155178Y0163550D01*
X0156000Y0165535D01*
X0156000Y0167683D01*
X0155178Y0169668D01*
X0153659Y0171187D01*
X0151674Y0172009D01*
X0143526Y0172009D01*
X0141541Y0171187D01*
X0140022Y0169668D01*
X0139200Y0167683D01*
X0139200Y0165535D01*
X0140022Y0163550D01*
X0141541Y0162031D01*
X0142294Y0161719D01*
X0141665Y0161398D01*
X0140952Y0160880D01*
X0140329Y0160257D01*
X0139810Y0159544D01*
X0139410Y0158758D01*
X0139138Y0157920D01*
X0139000Y0157049D01*
X0139000Y0156609D01*
X0147600Y0156609D01*
X0147600Y0156609D01*
X0156200Y0156609D01*
X0147600Y0156609D01*
X0147600Y0156609D01*
X0139000Y0156609D01*
X0139000Y0156168D01*
X0139138Y0155297D01*
X0139410Y0154459D01*
X0139810Y0153674D01*
X0140329Y0152961D01*
X0140952Y0152337D01*
X0141665Y0151819D01*
X0142294Y0151498D01*
X0141541Y0151187D01*
X0140022Y0149668D01*
X0139200Y0147683D01*
X0139200Y0145535D01*
X0140022Y0143550D01*
X0141541Y0142031D01*
X0143526Y0141209D01*
X0147909Y0141209D01*
X0166500Y0122617D01*
X0166500Y0040893D01*
X0167048Y0039569D01*
X0168061Y0038557D01*
X0176401Y0030217D01*
X0173014Y0030217D01*
X0170541Y0027743D01*
X0168068Y0030217D01*
X0163014Y0030217D01*
X0160541Y0027743D01*
X0158068Y0030217D01*
X0153014Y0030217D01*
X0150541Y0027743D01*
X0149141Y0029143D01*
X0149141Y0061884D01*
X0148593Y0063207D01*
X0088000Y0123800D01*
X0088000Y0126345D01*
X0086200Y0128145D01*
X0086200Y0130072D01*
X0088000Y0131872D01*
X0088000Y0136345D01*
X0084837Y0139509D01*
X0080363Y0139509D01*
X0077600Y0136745D01*
X0074837Y0139509D01*
X0070363Y0139509D01*
X0067600Y0136745D01*
X0064837Y0139509D01*
X0060363Y0139509D01*
X0057200Y0136345D01*
X0057200Y0131872D01*
X0059822Y0129250D01*
X0057000Y0126428D01*
X0057000Y0124109D01*
X0062600Y0124109D01*
X0062600Y0124109D01*
X0057000Y0124109D01*
X0057000Y0121789D01*
X0060280Y0118509D01*
X0062600Y0118509D01*
X0064920Y0118509D01*
X0067741Y0121330D01*
X0070363Y0118709D01*
X0074837Y0118709D01*
X0077600Y0121472D01*
X0080363Y0118709D01*
X0082909Y0118709D01*
X0141941Y0059677D01*
X0141941Y0029143D01*
X0140541Y0027743D01*
X0138068Y0030217D01*
X0133014Y0030217D01*
X0130541Y0027743D01*
X0128068Y0030217D01*
X0123014Y0030217D01*
X0120541Y0027743D01*
X0118068Y0030217D01*
X0113014Y0030217D01*
X0110682Y0027885D01*
X0108150Y0030417D01*
X0105541Y0030417D01*
X0102931Y0030417D01*
X0100400Y0027885D01*
X0098068Y0030217D01*
X0093014Y0030217D01*
X0090541Y0027743D01*
X0088068Y0030217D01*
X0083014Y0030217D01*
X0080541Y0027743D01*
X0078068Y0030217D01*
X0073014Y0030217D01*
X0070541Y0027743D01*
X0068068Y0030217D01*
X0063014Y0030217D01*
X0060541Y0027743D01*
X0058068Y0030217D01*
X0053014Y0030217D01*
X0050541Y0027743D01*
X0048068Y0030217D01*
X0043014Y0030217D01*
X0040682Y0027885D01*
X0038150Y0030417D01*
X0035541Y0030417D01*
X0032931Y0030417D01*
X0029241Y0026726D01*
X0029241Y0024117D01*
X0035541Y0024117D01*
X0035541Y0024117D01*
X0035541Y0030417D01*
X0035541Y0024117D01*
X0035541Y0024116D01*
X0029241Y0024116D01*
X0029241Y0022309D01*
X0029122Y0022700D01*
X0028630Y0023890D01*
X0028023Y0025025D01*
X0027308Y0026095D01*
X0026491Y0027090D01*
X0025581Y0028000D01*
X0024586Y0028817D01*
X0023516Y0029532D01*
X0022381Y0030138D01*
X0021192Y0030631D01*
X0019960Y0031005D01*
X0018698Y0031256D01*
X0017929Y0031331D01*
X0017929Y0019438D01*
X0015617Y0019438D01*
X0015617Y0031331D01*
X0014849Y0031256D01*
X0013586Y0031005D01*
X0012355Y0030631D01*
X0011165Y0030138D01*
X0010030Y0029532D01*
X0008960Y0028817D01*
X0007965Y0028000D01*
X0007055Y0027090D01*
X0006239Y0026095D01*
X0005523Y0025025D01*
X0005200Y0024420D01*
X0005200Y0204270D01*
X0005523Y0203665D01*
X0006239Y0202595D01*
X0007055Y0201600D01*
X0007965Y0200690D01*
X0008960Y0199873D01*
X0010030Y0199158D01*
X0011165Y0198551D01*
X0012355Y0198059D01*
X0013586Y0197685D01*
X0014849Y0197434D01*
X0015617Y0197358D01*
X0015617Y0209252D01*
X0017929Y0209252D01*
X0017929Y0197358D01*
X0018698Y0197434D01*
X0019960Y0197685D01*
X0021192Y0198059D01*
X0022381Y0198551D01*
X0023516Y0199158D01*
X0024586Y0199873D01*
X0025581Y0200690D01*
X0026491Y0201600D01*
X0027308Y0202595D01*
X0028023Y0203665D01*
X0028630Y0204800D01*
X0029122Y0205989D01*
X0029496Y0207221D01*
X0029747Y0208483D01*
X0029823Y0209252D01*
X0017929Y0209252D01*
X0017929Y0211564D01*
X0029823Y0211564D01*
X0029747Y0212332D01*
X0029496Y0213595D01*
X0029122Y0214826D01*
X0028630Y0216016D01*
X0028023Y0217151D01*
X0027308Y0218221D01*
X0026491Y0219216D01*
X0025581Y0220126D01*
X0024586Y0220943D01*
X0023516Y0221658D01*
X0022911Y0221981D01*
X0238195Y0221981D01*
X0237589Y0221658D01*
X0236519Y0220943D01*
X0235524Y0220126D01*
X0234614Y0219216D01*
X0233798Y0218221D01*
X0233082Y0217151D01*
X0232476Y0216016D01*
X0231983Y0214826D01*
X0231610Y0213595D01*
X0231358Y0212332D01*
X0231283Y0211564D01*
X0243176Y0211564D01*
X0243176Y0209252D01*
X0231283Y0209252D01*
X0231358Y0208483D01*
X0231610Y0207221D01*
X0231983Y0205989D01*
X0232476Y0204800D01*
X0233082Y0203665D01*
X0233798Y0202595D01*
X0234614Y0201600D01*
X0235524Y0200690D01*
X0236519Y0199873D01*
X0237589Y0199158D01*
X0238725Y0198551D01*
X0239914Y0198059D01*
X0241145Y0197685D01*
X0242408Y0197434D01*
X0243176Y0197358D01*
X0243176Y0209252D01*
X0245488Y0209252D01*
X0245488Y0197358D01*
X0246257Y0197434D01*
X0247519Y0197685D01*
X0248751Y0198059D01*
X0249940Y0198551D01*
X0251075Y0199158D01*
X0252145Y0199873D01*
X0253140Y0200690D01*
X0254050Y0201600D01*
X0254867Y0202595D01*
X0255582Y0203665D01*
X0255906Y0204270D01*
X0255906Y0024420D01*
X0255582Y0025025D01*
X0254867Y0026095D01*
X0254050Y0027090D01*
X0253140Y0028000D01*
X0252145Y0028817D01*
X0251075Y0029532D01*
X0249940Y0030138D01*
X0248751Y0030631D01*
X0247519Y0031005D01*
X0246257Y0031256D01*
X0245488Y0031331D01*
X0245488Y0019438D01*
X0243176Y0019438D01*
X0243176Y0031331D01*
X0242408Y0031256D01*
X0241145Y0031005D01*
X0239914Y0030631D01*
X0238725Y0030138D01*
X0237589Y0029532D01*
X0236519Y0028817D01*
X0235800Y0028226D01*
X0235800Y0032777D01*
X0235313Y0033953D01*
X0234413Y0034853D01*
X0233237Y0035340D01*
X0210782Y0035340D01*
X0210465Y0035209D01*
X0181591Y0035209D01*
X0178127Y0039292D02*
X0177508Y0039292D01*
X0176031Y0042491D02*
X0174309Y0042491D01*
X0173700Y0045689D02*
X0176031Y0045689D01*
X0178090Y0048888D02*
X0173700Y0048888D01*
X0173700Y0052086D02*
X0177200Y0052086D01*
X0177200Y0055285D02*
X0173700Y0055285D01*
X0173700Y0058483D02*
X0178936Y0058483D01*
X0176031Y0061682D02*
X0173700Y0061682D01*
X0173700Y0064880D02*
X0176031Y0064880D01*
X0177281Y0068079D02*
X0173700Y0068079D01*
X0173700Y0071277D02*
X0255906Y0071277D01*
X0255906Y0068079D02*
X0209745Y0068079D01*
X0213321Y0064880D02*
X0255906Y0064880D01*
X0255906Y0061682D02*
X0243323Y0061682D01*
X0245468Y0058483D02*
X0255906Y0058483D01*
X0255906Y0055285D02*
X0245468Y0055285D01*
X0245468Y0052086D02*
X0255906Y0052086D01*
X0255906Y0048888D02*
X0245381Y0048888D01*
X0235359Y0045689D02*
X0255906Y0045689D01*
X0255906Y0042491D02*
X0232160Y0042491D01*
X0226201Y0048888D02*
X0225696Y0048888D01*
X0225783Y0052086D02*
X0229400Y0052086D01*
X0229731Y0055285D02*
X0225783Y0055285D01*
X0225783Y0058483D02*
X0229731Y0058483D01*
X0231877Y0061682D02*
X0223638Y0061682D01*
X0235751Y0032895D02*
X0255906Y0032895D01*
X0255906Y0029697D02*
X0250766Y0029697D01*
X0254536Y0026498D02*
X0255906Y0026498D01*
X0245488Y0026498D02*
X0243176Y0026498D01*
X0243176Y0029697D02*
X0245488Y0029697D01*
X0245488Y0023300D02*
X0243176Y0023300D01*
X0243176Y0020101D02*
X0245488Y0020101D01*
X0237898Y0029697D02*
X0235800Y0029697D01*
X0208219Y0007885D02*
X0208219Y0006709D01*
X0022911Y0006709D01*
X0023516Y0007032D01*
X0024586Y0007747D01*
X0025581Y0008564D01*
X0026491Y0009474D01*
X0027308Y0010469D01*
X0028023Y0011539D01*
X0028630Y0012674D01*
X0029122Y0013863D01*
X0029441Y0014914D01*
X0029441Y0011590D01*
X0033014Y0008017D01*
X0038068Y0008017D01*
X0040541Y0010490D01*
X0043014Y0008017D01*
X0048068Y0008017D01*
X0050541Y0010490D01*
X0053014Y0008017D01*
X0058068Y0008017D01*
X0060400Y0010348D01*
X0062931Y0007817D01*
X0065541Y0007817D01*
X0068150Y0007817D01*
X0070682Y0010348D01*
X0073014Y0008017D01*
X0078068Y0008017D01*
X0080400Y0010348D01*
X0082931Y0007817D01*
X0085541Y0007817D01*
X0088150Y0007817D01*
X0090682Y0010348D01*
X0093014Y0008017D01*
X0098068Y0008017D01*
X0100541Y0010490D01*
X0103014Y0008017D01*
X0108068Y0008017D01*
X0110541Y0010490D01*
X0113014Y0008017D01*
X0118068Y0008017D01*
X0120541Y0010490D01*
X0123014Y0008017D01*
X0128068Y0008017D01*
X0130400Y0010348D01*
X0132931Y0007817D01*
X0135541Y0007817D01*
X0138150Y0007817D01*
X0140682Y0010348D01*
X0143014Y0008017D01*
X0148068Y0008017D01*
X0150541Y0010490D01*
X0153014Y0008017D01*
X0158068Y0008017D01*
X0160400Y0010348D01*
X0162931Y0007817D01*
X0165541Y0007817D01*
X0168150Y0007817D01*
X0170682Y0010348D01*
X0173014Y0008017D01*
X0178068Y0008017D01*
X0180541Y0010490D01*
X0183014Y0008017D01*
X0188068Y0008017D01*
X0190541Y0010490D01*
X0193014Y0008017D01*
X0198068Y0008017D01*
X0200400Y0010348D01*
X0202931Y0007817D01*
X0205541Y0007817D01*
X0208150Y0007817D01*
X0208219Y0007885D01*
X0208219Y0007307D02*
X0023928Y0007307D01*
X0027333Y0010506D02*
X0030525Y0010506D01*
X0029441Y0013704D02*
X0029056Y0013704D01*
X0029812Y0017014D02*
X0029823Y0017126D01*
X0017929Y0017126D01*
X0017929Y0019438D01*
X0029823Y0019438D01*
X0029747Y0020206D01*
X0029550Y0021198D01*
X0031773Y0018975D01*
X0029812Y0017014D01*
X0029757Y0020101D02*
X0030647Y0020101D01*
X0029241Y0023300D02*
X0028874Y0023300D01*
X0029241Y0026498D02*
X0026977Y0026498D01*
X0023207Y0029697D02*
X0032212Y0029697D01*
X0035541Y0029697D02*
X0035541Y0029697D01*
X0035541Y0026498D02*
X0035541Y0026498D01*
X0038870Y0029697D02*
X0042494Y0029697D01*
X0048587Y0029697D02*
X0052494Y0029697D01*
X0058587Y0029697D02*
X0062494Y0029697D01*
X0068587Y0029697D02*
X0072494Y0029697D01*
X0078587Y0029697D02*
X0082494Y0029697D01*
X0088587Y0029697D02*
X0092494Y0029697D01*
X0098587Y0029697D02*
X0102212Y0029697D01*
X0105541Y0029697D02*
X0105541Y0029697D01*
X0105541Y0030417D02*
X0105541Y0024117D01*
X0105541Y0024117D01*
X0105541Y0030417D01*
X0108870Y0029697D02*
X0112494Y0029697D01*
X0118587Y0029697D02*
X0122494Y0029697D01*
X0128587Y0029697D02*
X0132494Y0029697D01*
X0138587Y0029697D02*
X0141941Y0029697D01*
X0141941Y0032895D02*
X0005200Y0032895D01*
X0005200Y0029697D02*
X0010339Y0029697D01*
X0006569Y0026498D02*
X0005200Y0026498D01*
X0005200Y0036094D02*
X0141941Y0036094D01*
X0141941Y0039292D02*
X0005200Y0039292D01*
X0005200Y0042491D02*
X0141941Y0042491D01*
X0141941Y0045689D02*
X0005200Y0045689D01*
X0005200Y0048888D02*
X0141941Y0048888D01*
X0141941Y0052086D02*
X0005200Y0052086D01*
X0005200Y0055285D02*
X0141941Y0055285D01*
X0141941Y0058483D02*
X0005200Y0058483D01*
X0005200Y0061682D02*
X0139936Y0061682D01*
X0136737Y0064880D02*
X0005200Y0064880D01*
X0005200Y0068079D02*
X0133539Y0068079D01*
X0130340Y0071277D02*
X0005200Y0071277D01*
X0005200Y0074476D02*
X0127142Y0074476D01*
X0123943Y0077674D02*
X0005200Y0077674D01*
X0005200Y0080873D02*
X0120745Y0080873D01*
X0117546Y0084071D02*
X0005200Y0084071D01*
X0005200Y0087270D02*
X0114348Y0087270D01*
X0111149Y0090468D02*
X0005200Y0090468D01*
X0005200Y0093667D02*
X0107951Y0093667D01*
X0104752Y0096865D02*
X0005200Y0096865D01*
X0005200Y0100064D02*
X0101553Y0100064D01*
X0098355Y0103263D02*
X0005200Y0103263D01*
X0005200Y0106461D02*
X0095156Y0106461D01*
X0091958Y0109660D02*
X0005200Y0109660D01*
X0005200Y0112858D02*
X0088759Y0112858D01*
X0085561Y0116057D02*
X0005200Y0116057D01*
X0005200Y0119255D02*
X0059534Y0119255D01*
X0062600Y0119255D02*
X0062600Y0119255D01*
X0062600Y0118509D02*
X0062600Y0124109D01*
X0062600Y0124109D01*
X0062600Y0118509D01*
X0065666Y0119255D02*
X0069817Y0119255D01*
X0075383Y0119255D02*
X0079817Y0119255D01*
X0088000Y0125652D02*
X0163465Y0125652D01*
X0166500Y0122454D02*
X0089346Y0122454D01*
X0092545Y0119255D02*
X0166500Y0119255D01*
X0166500Y0116057D02*
X0095743Y0116057D01*
X0098942Y0112858D02*
X0166500Y0112858D01*
X0166500Y0109660D02*
X0102140Y0109660D01*
X0105339Y0106461D02*
X0166500Y0106461D01*
X0166500Y0103263D02*
X0108537Y0103263D01*
X0111736Y0100064D02*
X0166500Y0100064D01*
X0166500Y0096865D02*
X0114934Y0096865D01*
X0118133Y0093667D02*
X0166500Y0093667D01*
X0166500Y0090468D02*
X0121331Y0090468D01*
X0124530Y0087270D02*
X0166500Y0087270D01*
X0166500Y0084071D02*
X0127728Y0084071D01*
X0130927Y0080873D02*
X0166500Y0080873D01*
X0166500Y0077674D02*
X0134125Y0077674D01*
X0137324Y0074476D02*
X0166500Y0074476D01*
X0166500Y0071277D02*
X0140522Y0071277D01*
X0143721Y0068079D02*
X0166500Y0068079D01*
X0166500Y0064880D02*
X0146919Y0064880D01*
X0149141Y0061682D02*
X0166500Y0061682D01*
X0166500Y0058483D02*
X0149141Y0058483D01*
X0149141Y0055285D02*
X0166500Y0055285D01*
X0166500Y0052086D02*
X0149141Y0052086D01*
X0149141Y0048888D02*
X0166500Y0048888D01*
X0166500Y0045689D02*
X0149141Y0045689D01*
X0149141Y0042491D02*
X0166500Y0042491D01*
X0167325Y0039292D02*
X0149141Y0039292D01*
X0149141Y0036094D02*
X0170524Y0036094D01*
X0173722Y0032895D02*
X0149141Y0032895D01*
X0149141Y0029697D02*
X0152494Y0029697D01*
X0158587Y0029697D02*
X0162494Y0029697D01*
X0168587Y0029697D02*
X0172494Y0029697D01*
X0187073Y0039292D02*
X0188127Y0039292D01*
X0205541Y0014116D02*
X0205541Y0014116D01*
X0205541Y0007817D01*
X0205541Y0014116D01*
X0205541Y0013704D02*
X0205541Y0013704D01*
X0205541Y0010506D02*
X0205541Y0010506D01*
X0165541Y0010506D02*
X0165541Y0010506D01*
X0165541Y0007817D02*
X0165541Y0014116D01*
X0165541Y0014116D01*
X0165541Y0007817D01*
X0165541Y0013704D02*
X0165541Y0013704D01*
X0135541Y0013704D02*
X0135541Y0013704D01*
X0135541Y0014116D02*
X0135541Y0007817D01*
X0135541Y0014116D01*
X0135541Y0014116D01*
X0135541Y0010506D02*
X0135541Y0010506D01*
X0105541Y0026498D02*
X0105541Y0026498D01*
X0085541Y0014116D02*
X0085541Y0007817D01*
X0085541Y0014116D01*
X0085541Y0014116D01*
X0085541Y0013704D02*
X0085541Y0013704D01*
X0085541Y0010506D02*
X0085541Y0010506D01*
X0065541Y0010506D02*
X0065541Y0010506D01*
X0065541Y0007817D02*
X0065541Y0014116D01*
X0065541Y0014116D01*
X0065541Y0007817D01*
X0065541Y0013704D02*
X0065541Y0013704D01*
X0017929Y0020101D02*
X0015617Y0020101D01*
X0015617Y0023300D02*
X0017929Y0023300D01*
X0017929Y0026498D02*
X0015617Y0026498D01*
X0015617Y0029697D02*
X0017929Y0029697D01*
X0005200Y0122454D02*
X0057000Y0122454D01*
X0057000Y0125652D02*
X0005200Y0125652D01*
X0005200Y0128851D02*
X0059422Y0128851D01*
X0057200Y0132049D02*
X0005200Y0132049D01*
X0005200Y0135248D02*
X0057200Y0135248D01*
X0059301Y0138446D02*
X0005200Y0138446D01*
X0005200Y0141645D02*
X0142473Y0141645D01*
X0139486Y0144843D02*
X0005200Y0144843D01*
X0005200Y0148042D02*
X0139349Y0148042D01*
X0141671Y0151240D02*
X0005200Y0151240D01*
X0005200Y0154439D02*
X0139421Y0154439D01*
X0139093Y0157637D02*
X0005200Y0157637D01*
X0005200Y0160836D02*
X0140907Y0160836D01*
X0139821Y0164034D02*
X0005200Y0164034D01*
X0005200Y0167233D02*
X0139200Y0167233D01*
X0140786Y0170431D02*
X0005200Y0170431D01*
X0005200Y0173630D02*
X0255906Y0173630D01*
X0255906Y0176828D02*
X0214809Y0176828D01*
X0214398Y0176417D02*
X0215291Y0177310D01*
X0215775Y0178477D01*
X0215775Y0189740D01*
X0215291Y0190907D01*
X0214398Y0191800D01*
X0213232Y0192283D01*
X0201968Y0192283D01*
X0200802Y0191800D01*
X0199909Y0190907D01*
X0199425Y0189740D01*
X0199425Y0178477D01*
X0199909Y0177310D01*
X0200802Y0176417D01*
X0201968Y0175934D01*
X0213232Y0175934D01*
X0214398Y0176417D01*
X0215775Y0180027D02*
X0255906Y0180027D01*
X0255906Y0183225D02*
X0215775Y0183225D01*
X0215775Y0186424D02*
X0255906Y0186424D01*
X0255906Y0189622D02*
X0215775Y0189622D01*
X0210748Y0200259D02*
X0207600Y0200259D01*
X0207600Y0207859D01*
X0207600Y0215459D01*
X0204452Y0215459D01*
X0200000Y0211007D01*
X0200000Y0207859D01*
X0207600Y0207859D01*
X0207600Y0207859D01*
X0207600Y0215459D01*
X0210748Y0215459D01*
X0215200Y0211007D01*
X0215200Y0207859D01*
X0207600Y0207859D01*
X0207600Y0207859D01*
X0207600Y0207859D01*
X0200000Y0207859D01*
X0200000Y0204711D01*
X0204452Y0200259D01*
X0207600Y0200259D01*
X0207600Y0207859D01*
X0215200Y0207859D01*
X0215200Y0204711D01*
X0210748Y0200259D01*
X0212906Y0202416D02*
X0233944Y0202416D01*
X0232138Y0205615D02*
X0215200Y0205615D01*
X0215200Y0208813D02*
X0231326Y0208813D01*
X0231327Y0212012D02*
X0214195Y0212012D01*
X0210996Y0215210D02*
X0232142Y0215210D01*
X0233952Y0218409D02*
X0027154Y0218409D01*
X0023591Y0221607D02*
X0237514Y0221607D01*
X0243176Y0208813D02*
X0245488Y0208813D01*
X0245488Y0205615D02*
X0243176Y0205615D01*
X0243176Y0202416D02*
X0245488Y0202416D01*
X0245488Y0199218D02*
X0243176Y0199218D01*
X0237500Y0199218D02*
X0194489Y0199218D01*
X0195200Y0198507D02*
X0190748Y0202959D01*
X0187600Y0202959D01*
X0184452Y0202959D01*
X0180000Y0198507D01*
X0180000Y0195359D01*
X0187600Y0195359D01*
X0187600Y0202959D01*
X0187600Y0195359D01*
X0187600Y0195359D01*
X0187600Y0195359D01*
X0195200Y0195359D01*
X0195200Y0198507D01*
X0195200Y0196019D02*
X0255906Y0196019D01*
X0255906Y0192821D02*
X0195200Y0192821D01*
X0195200Y0192211D02*
X0195200Y0195359D01*
X0187600Y0195359D01*
X0187600Y0195359D01*
X0180000Y0195359D01*
X0180000Y0192211D01*
X0184452Y0187759D01*
X0187600Y0187759D01*
X0190748Y0187759D01*
X0195200Y0192211D01*
X0192612Y0189622D02*
X0199425Y0189622D01*
X0199425Y0186424D02*
X0005200Y0186424D01*
X0005200Y0183225D02*
X0199425Y0183225D01*
X0199425Y0180027D02*
X0005200Y0180027D01*
X0005200Y0176828D02*
X0200391Y0176828D01*
X0187600Y0187759D02*
X0187600Y0195359D01*
X0187600Y0195359D01*
X0187600Y0187759D01*
X0187600Y0189622D02*
X0187600Y0189622D01*
X0187600Y0192821D02*
X0187600Y0192821D01*
X0187600Y0196019D02*
X0187600Y0196019D01*
X0187600Y0199218D02*
X0187600Y0199218D01*
X0187600Y0202416D02*
X0187600Y0202416D01*
X0183910Y0202416D02*
X0027161Y0202416D01*
X0028967Y0205615D02*
X0200000Y0205615D01*
X0202294Y0202416D02*
X0191290Y0202416D01*
X0200000Y0208813D02*
X0029780Y0208813D01*
X0029779Y0212012D02*
X0201005Y0212012D01*
X0204204Y0215210D02*
X0028963Y0215210D01*
X0017929Y0208813D02*
X0015617Y0208813D01*
X0015617Y0205615D02*
X0017929Y0205615D01*
X0017929Y0202416D02*
X0015617Y0202416D01*
X0015617Y0199218D02*
X0017929Y0199218D01*
X0023606Y0199218D02*
X0180711Y0199218D01*
X0180000Y0196019D02*
X0005200Y0196019D01*
X0005200Y0192821D02*
X0180000Y0192821D01*
X0182588Y0189622D02*
X0005200Y0189622D01*
X0005200Y0199218D02*
X0009941Y0199218D01*
X0006385Y0202416D02*
X0005200Y0202416D01*
X0065899Y0138446D02*
X0069301Y0138446D01*
X0075899Y0138446D02*
X0079301Y0138446D01*
X0085899Y0138446D02*
X0150671Y0138446D01*
X0153870Y0135248D02*
X0088000Y0135248D01*
X0088000Y0132049D02*
X0157068Y0132049D01*
X0160267Y0128851D02*
X0086200Y0128851D01*
X0062600Y0122454D02*
X0062600Y0122454D01*
X0153529Y0151240D02*
X0255906Y0151240D01*
X0255906Y0154439D02*
X0155779Y0154439D01*
X0156107Y0157637D02*
X0255906Y0157637D01*
X0255906Y0160836D02*
X0154293Y0160836D01*
X0155379Y0164034D02*
X0255906Y0164034D01*
X0255906Y0167233D02*
X0156000Y0167233D01*
X0154414Y0170431D02*
X0255906Y0170431D01*
X0255906Y0148042D02*
X0155851Y0148042D01*
X0155714Y0144843D02*
X0255906Y0144843D01*
X0255906Y0141645D02*
X0157655Y0141645D01*
X0160854Y0138446D02*
X0255906Y0138446D01*
X0255906Y0135248D02*
X0164052Y0135248D01*
X0167251Y0132049D02*
X0255906Y0132049D01*
X0255906Y0128851D02*
X0170449Y0128851D01*
X0173357Y0125652D02*
X0255906Y0125652D01*
X0255906Y0122454D02*
X0173700Y0122454D01*
X0173700Y0119255D02*
X0255906Y0119255D01*
X0255906Y0116057D02*
X0173700Y0116057D01*
X0173700Y0112858D02*
X0255906Y0112858D01*
X0255906Y0109660D02*
X0173700Y0109660D01*
X0173700Y0106461D02*
X0255906Y0106461D01*
X0255906Y0103263D02*
X0173700Y0103263D01*
X0173700Y0100064D02*
X0255906Y0100064D01*
X0255906Y0096865D02*
X0173700Y0096865D01*
X0173700Y0093667D02*
X0255906Y0093667D01*
X0255906Y0090468D02*
X0173700Y0090468D01*
X0173700Y0087270D02*
X0255906Y0087270D01*
X0255906Y0084071D02*
X0173700Y0084071D01*
X0173700Y0080873D02*
X0255906Y0080873D01*
X0255906Y0077674D02*
X0173700Y0077674D01*
X0173700Y0074476D02*
X0255906Y0074476D01*
X0255906Y0199218D02*
X0251165Y0199218D01*
X0254721Y0202416D02*
X0255906Y0202416D01*
X0207600Y0202416D02*
X0207600Y0202416D01*
X0207600Y0205615D02*
X0207600Y0205615D01*
X0207600Y0207859D02*
X0207600Y0207859D01*
X0207600Y0208813D02*
X0207600Y0208813D01*
X0207600Y0212012D02*
X0207600Y0212012D01*
X0207600Y0215210D02*
X0207600Y0215210D01*
D19*
X0195100Y0201609D03*
X0177600Y0191609D03*
X0175100Y0171609D03*
X0155100Y0176609D03*
X0135100Y0176609D03*
X0130100Y0196609D03*
X0107600Y0199109D03*
X0125100Y0219109D03*
X0150100Y0219109D03*
X0152600Y0199109D03*
X0175100Y0219109D03*
X0225100Y0216609D03*
X0225100Y0191609D03*
X0225100Y0176609D03*
X0252600Y0171609D03*
X0252600Y0191609D03*
X0175100Y0134109D03*
X0162600Y0144109D03*
X0145100Y0136609D03*
X0160100Y0124109D03*
X0162600Y0106609D03*
X0177600Y0109109D03*
X0185100Y0094109D03*
X0197600Y0091609D03*
X0200100Y0106609D03*
X0220100Y0111609D03*
X0190100Y0074109D03*
X0177600Y0081609D03*
X0162600Y0089109D03*
X0140100Y0074109D03*
X0132600Y0089109D03*
X0115100Y0106609D03*
X0102600Y0086609D03*
X0120100Y0066609D03*
X0135100Y0054109D03*
X0135100Y0034109D03*
X0152600Y0034109D03*
X0165572Y0043400D03*
X0175100Y0044109D03*
X0187600Y0036609D03*
X0172600Y0031609D03*
X0155100Y0049109D03*
X0165100Y0064109D03*
X0140100Y0111609D03*
X0125100Y0129109D03*
X0100100Y0129109D03*
X0080100Y0111609D03*
X0062600Y0094109D03*
X0042600Y0089109D03*
X0025100Y0106609D03*
X0007600Y0116609D03*
X0025100Y0136609D03*
X0007600Y0149109D03*
X0027600Y0171609D03*
X0007600Y0176609D03*
X0007600Y0194109D03*
X0032600Y0194109D03*
X0047600Y0209109D03*
X0032600Y0219109D03*
X0052600Y0181609D03*
X0077600Y0199109D03*
X0077600Y0219109D03*
X0100100Y0179109D03*
X0080100Y0159109D03*
X0102600Y0154109D03*
X0050100Y0151609D03*
X0045100Y0116609D03*
X0010100Y0086609D03*
X0010100Y0064109D03*
X0010100Y0041609D03*
X0032600Y0046609D03*
X0042600Y0031609D03*
X0055100Y0041609D03*
X0060100Y0031609D03*
X0075100Y0046609D03*
X0080100Y0031609D03*
X0100100Y0031609D03*
X0110100Y0044109D03*
X0097600Y0061609D03*
X0077600Y0076609D03*
X0047600Y0066609D03*
X0030100Y0009109D03*
X0060887Y0007928D03*
X0090494Y0008321D03*
X0120887Y0007928D03*
X0150631Y0008321D03*
X0181025Y0008715D03*
X0200887Y0008321D03*
X0237856Y0033183D03*
X0255100Y0031609D03*
D20*
X0231340Y0028518D02*
X0230425Y0029433D01*
X0230425Y0031609D01*
X0180100Y0031609D01*
X0170100Y0041609D01*
X0170100Y0124109D01*
X0147600Y0146609D01*
X0082600Y0134109D02*
X0082600Y0124109D01*
X0145541Y0061168D01*
X0145541Y0024117D01*
X0215541Y0014117D02*
X0225541Y0014117D01*
X0230425Y0029433D02*
X0228250Y0031609D01*
D21*
X0227736Y0029417D02*
X0223346Y0029417D01*
X0220541Y0026612D01*
X0217736Y0029417D01*
X0213346Y0029417D01*
X0211419Y0027490D01*
X0211419Y0032140D01*
X0232600Y0032140D01*
X0232600Y0021247D01*
X0232232Y0019875D01*
X0232232Y0016689D01*
X0232600Y0015317D01*
X0232600Y0005909D01*
X0211419Y0005909D01*
X0211419Y0010460D01*
X0213263Y0008617D01*
X0215341Y0008617D01*
X0215341Y0013916D01*
X0215741Y0013916D01*
X0215741Y0008617D01*
X0217819Y0008617D01*
X0220541Y0011338D01*
X0223263Y0008617D01*
X0225341Y0008617D01*
X0225341Y0013916D01*
X0225741Y0013916D01*
X0225741Y0008617D01*
X0227819Y0008617D01*
X0231041Y0011838D01*
X0231041Y0013917D01*
X0225741Y0013917D01*
X0225741Y0014317D01*
X0231041Y0014317D01*
X0231041Y0016395D01*
X0228178Y0019258D01*
X0230841Y0021921D01*
X0230841Y0026312D01*
X0227736Y0029417D01*
X0229066Y0028086D02*
X0232600Y0028086D01*
X0232600Y0026488D02*
X0230665Y0026488D01*
X0230841Y0024889D02*
X0232600Y0024889D01*
X0232600Y0023291D02*
X0230841Y0023291D01*
X0230612Y0021692D02*
X0232600Y0021692D01*
X0232291Y0020094D02*
X0229013Y0020094D01*
X0228940Y0018495D02*
X0232232Y0018495D01*
X0232232Y0016897D02*
X0230539Y0016897D01*
X0231041Y0015298D02*
X0232600Y0015298D01*
X0232600Y0013700D02*
X0231041Y0013700D01*
X0231041Y0012101D02*
X0232600Y0012101D01*
X0232600Y0010503D02*
X0229705Y0010503D01*
X0228107Y0008904D02*
X0232600Y0008904D01*
X0232600Y0007306D02*
X0211419Y0007306D01*
X0211419Y0008904D02*
X0212975Y0008904D01*
X0215341Y0008904D02*
X0215741Y0008904D01*
X0215741Y0010503D02*
X0215341Y0010503D01*
X0215341Y0012101D02*
X0215741Y0012101D01*
X0215741Y0013700D02*
X0215341Y0013700D01*
X0215741Y0013917D02*
X0215741Y0014317D01*
X0220041Y0014317D01*
X0225341Y0014317D01*
X0225341Y0013917D01*
X0215741Y0013917D01*
X0219705Y0010503D02*
X0221377Y0010503D01*
X0222975Y0008904D02*
X0218107Y0008904D01*
X0225341Y0008904D02*
X0225741Y0008904D01*
X0225741Y0010503D02*
X0225341Y0010503D01*
X0225341Y0012101D02*
X0225741Y0012101D01*
X0225741Y0013700D02*
X0225341Y0013700D01*
X0222015Y0028086D02*
X0219066Y0028086D01*
X0212015Y0028086D02*
X0211419Y0028086D01*
X0211419Y0029685D02*
X0232600Y0029685D01*
X0232600Y0031283D02*
X0211419Y0031283D01*
X0227600Y0044109D02*
X0192600Y0044109D01*
X0182600Y0044109D01*
X0182600Y0064109D02*
X0192600Y0064109D01*
X0207915Y0064109D01*
X0217915Y0054109D01*
X0227600Y0044109D02*
X0237600Y0054109D01*
M02*
