G75*
%MOIN*%
%OFA0B0*%
%FSLAX25Y25*%
%IPPOS*%
%LPD*%
%AMOC8*
5,1,8,0,0,1.08239X$1,22.5*
%
%ADD10C,0.00800*%
%ADD11C,0.00600*%
%ADD12C,0.00400*%
%ADD13C,0.00300*%
%ADD14C,0.00200*%
%ADD15C,0.00500*%
%ADD16R,0.01181X0.00591*%
%ADD17R,0.01181X0.01181*%
%ADD18R,0.00886X0.00020*%
%ADD19R,0.01240X0.00020*%
%ADD20R,0.01516X0.00020*%
%ADD21R,0.01752X0.00020*%
%ADD22R,0.01988X0.00020*%
%ADD23R,0.02146X0.00020*%
%ADD24R,0.02343X0.00020*%
%ADD25R,0.02500X0.00020*%
%ADD26R,0.02657X0.00020*%
%ADD27R,0.02776X0.00020*%
%ADD28R,0.02933X0.00020*%
%ADD29R,0.03051X0.00020*%
%ADD30R,0.03169X0.00020*%
%ADD31R,0.03287X0.00020*%
%ADD32R,0.03406X0.00020*%
%ADD33R,0.03484X0.00020*%
%ADD34R,0.03602X0.00020*%
%ADD35R,0.03720X0.00020*%
%ADD36R,0.03799X0.00020*%
%ADD37R,0.03878X0.00020*%
%ADD38R,0.03996X0.00020*%
%ADD39R,0.04075X0.00020*%
%ADD40R,0.04154X0.00020*%
%ADD41R,0.04232X0.00020*%
%ADD42R,0.04350X0.00020*%
%ADD43R,0.04429X0.00020*%
%ADD44R,0.04508X0.00020*%
%ADD45R,0.04587X0.00020*%
%ADD46R,0.02067X0.00020*%
%ADD47R,0.01969X0.00020*%
%ADD48R,0.02047X0.00020*%
%ADD49R,0.01949X0.00020*%
%ADD50R,0.02028X0.00020*%
%ADD51R,0.01929X0.00020*%
%ADD52R,0.02008X0.00020*%
%ADD53R,0.01909X0.00020*%
%ADD54R,0.02087X0.00020*%
%ADD55R,0.02106X0.00020*%
%ADD56R,0.02126X0.00020*%
%ADD57R,0.02165X0.00020*%
%ADD58R,0.02205X0.00020*%
%ADD59R,0.02224X0.00020*%
%ADD60R,0.02244X0.00020*%
%ADD61R,0.02185X0.00020*%
%ADD62R,0.02264X0.00020*%
%ADD63R,0.02283X0.00020*%
%ADD64R,0.02303X0.00020*%
%ADD65R,0.02323X0.00020*%
%ADD66R,0.02362X0.00020*%
%ADD67R,0.02382X0.00020*%
%ADD68R,0.02402X0.00020*%
%ADD69R,0.02421X0.00020*%
%ADD70R,0.02441X0.00020*%
%ADD71R,0.02461X0.00020*%
%ADD72R,0.02480X0.00020*%
%ADD73R,0.02520X0.00020*%
%ADD74R,0.02539X0.00020*%
%ADD75R,0.02559X0.00020*%
%ADD76R,0.02579X0.00020*%
%ADD77R,0.02598X0.00020*%
%ADD78R,0.02618X0.00020*%
%ADD79R,0.02638X0.00020*%
%ADD80R,0.02677X0.00020*%
%ADD81R,0.02697X0.00020*%
%ADD82R,0.02717X0.00020*%
%ADD83R,0.02736X0.00020*%
%ADD84R,0.02756X0.00020*%
%ADD85R,0.02795X0.00020*%
%ADD86R,0.02815X0.00020*%
%ADD87R,0.02835X0.00020*%
%ADD88R,0.02854X0.00020*%
%ADD89R,0.02874X0.00020*%
%ADD90R,0.02894X0.00020*%
%ADD91R,0.02913X0.00020*%
%ADD92R,0.02953X0.00020*%
%ADD93R,0.02972X0.00020*%
%ADD94R,0.02992X0.00020*%
%ADD95R,0.03012X0.00020*%
%ADD96R,0.03031X0.00020*%
%ADD97R,0.03071X0.00020*%
%ADD98R,0.03091X0.00020*%
%ADD99R,0.03110X0.00020*%
%ADD100R,0.03130X0.00020*%
%ADD101R,0.03150X0.00020*%
%ADD102R,0.03189X0.00020*%
%ADD103R,0.03228X0.00020*%
%ADD104R,0.03248X0.00020*%
%ADD105R,0.03268X0.00020*%
%ADD106R,0.03307X0.00020*%
%ADD107R,0.03346X0.00020*%
%ADD108R,0.03366X0.00020*%
%ADD109R,0.03327X0.00020*%
%ADD110R,0.01319X0.00020*%
%ADD111R,0.00276X0.00020*%
%ADD112R,0.03425X0.00020*%
%ADD113R,0.01201X0.00020*%
%ADD114R,0.01398X0.00020*%
%ADD115R,0.03445X0.00020*%
%ADD116R,0.01122X0.00020*%
%ADD117R,0.01339X0.00020*%
%ADD118R,0.01043X0.00020*%
%ADD119R,0.01280X0.00020*%
%ADD120R,0.03504X0.00020*%
%ADD121R,0.01004X0.00020*%
%ADD122R,0.01220X0.00020*%
%ADD123R,0.03543X0.00020*%
%ADD124R,0.00925X0.00020*%
%ADD125R,0.01181X0.00020*%
%ADD126R,0.03563X0.00020*%
%ADD127R,0.00906X0.00020*%
%ADD128R,0.01161X0.00020*%
%ADD129R,0.00098X0.00020*%
%ADD130R,0.00295X0.00020*%
%ADD131R,0.01142X0.00020*%
%ADD132R,0.00846X0.00020*%
%ADD133R,0.00059X0.00020*%
%ADD134R,0.01024X0.00020*%
%ADD135R,0.00827X0.00020*%
%ADD136R,0.01102X0.00020*%
%ADD137R,0.00965X0.00020*%
%ADD138R,0.00807X0.00020*%
%ADD139R,0.01083X0.00020*%
%ADD140R,0.00768X0.00020*%
%ADD141R,0.00866X0.00020*%
%ADD142R,0.00748X0.00020*%
%ADD143R,0.00079X0.00020*%
%ADD144R,0.00709X0.00020*%
%ADD145R,0.00118X0.00020*%
%ADD146R,0.00689X0.00020*%
%ADD147R,0.00138X0.00020*%
%ADD148R,0.00787X0.00020*%
%ADD149R,0.00669X0.00020*%
%ADD150R,0.00157X0.00020*%
%ADD151R,0.00650X0.00020*%
%ADD152R,0.00197X0.00020*%
%ADD153R,0.00728X0.00020*%
%ADD154R,0.00610X0.00020*%
%ADD155R,0.00236X0.00020*%
%ADD156R,0.00256X0.00020*%
%ADD157R,0.00591X0.00020*%
%ADD158R,0.00551X0.00020*%
%ADD159R,0.00335X0.00020*%
%ADD160R,0.00630X0.00020*%
%ADD161R,0.00354X0.00020*%
%ADD162R,0.00413X0.00020*%
%ADD163R,0.00531X0.00020*%
%ADD164R,0.00472X0.00020*%
%ADD165R,0.00512X0.00020*%
%ADD166R,0.00571X0.00020*%
%ADD167R,0.00492X0.00020*%
%ADD168R,0.00453X0.00020*%
%ADD169R,0.00433X0.00020*%
%ADD170R,0.00394X0.00020*%
%ADD171R,0.00374X0.00020*%
%ADD172R,0.00315X0.00020*%
%ADD173R,0.00217X0.00020*%
%ADD174R,0.00177X0.00020*%
%ADD175R,0.00039X0.00020*%
%ADD176R,0.00945X0.00020*%
%ADD177R,0.00984X0.00020*%
%ADD178R,0.01063X0.00020*%
%ADD179R,0.01299X0.00020*%
%ADD180R,0.01260X0.00020*%
%ADD181R,0.03209X0.00020*%
%ADD182R,0.04705X0.00020*%
%ADD183R,0.04665X0.00020*%
D10*
X0009767Y0015673D02*
X0009769Y0015826D01*
X0009775Y0015980D01*
X0009785Y0016133D01*
X0009799Y0016285D01*
X0009817Y0016438D01*
X0009839Y0016589D01*
X0009864Y0016740D01*
X0009894Y0016891D01*
X0009928Y0017041D01*
X0009965Y0017189D01*
X0010006Y0017337D01*
X0010051Y0017483D01*
X0010100Y0017629D01*
X0010153Y0017773D01*
X0010209Y0017915D01*
X0010269Y0018056D01*
X0010333Y0018196D01*
X0010400Y0018334D01*
X0010471Y0018470D01*
X0010546Y0018604D01*
X0010623Y0018736D01*
X0010705Y0018866D01*
X0010789Y0018994D01*
X0010877Y0019120D01*
X0010968Y0019243D01*
X0011062Y0019364D01*
X0011160Y0019482D01*
X0011260Y0019598D01*
X0011364Y0019711D01*
X0011470Y0019822D01*
X0011579Y0019930D01*
X0011691Y0020035D01*
X0011805Y0020136D01*
X0011923Y0020235D01*
X0012042Y0020331D01*
X0012164Y0020424D01*
X0012289Y0020513D01*
X0012416Y0020600D01*
X0012545Y0020682D01*
X0012676Y0020762D01*
X0012809Y0020838D01*
X0012944Y0020911D01*
X0013081Y0020980D01*
X0013220Y0021045D01*
X0013360Y0021107D01*
X0013502Y0021165D01*
X0013645Y0021220D01*
X0013790Y0021271D01*
X0013936Y0021318D01*
X0014083Y0021361D01*
X0014231Y0021400D01*
X0014380Y0021436D01*
X0014530Y0021467D01*
X0014681Y0021495D01*
X0014832Y0021519D01*
X0014985Y0021539D01*
X0015137Y0021555D01*
X0015290Y0021567D01*
X0015443Y0021575D01*
X0015596Y0021579D01*
X0015750Y0021579D01*
X0015903Y0021575D01*
X0016056Y0021567D01*
X0016209Y0021555D01*
X0016361Y0021539D01*
X0016514Y0021519D01*
X0016665Y0021495D01*
X0016816Y0021467D01*
X0016966Y0021436D01*
X0017115Y0021400D01*
X0017263Y0021361D01*
X0017410Y0021318D01*
X0017556Y0021271D01*
X0017701Y0021220D01*
X0017844Y0021165D01*
X0017986Y0021107D01*
X0018126Y0021045D01*
X0018265Y0020980D01*
X0018402Y0020911D01*
X0018537Y0020838D01*
X0018670Y0020762D01*
X0018801Y0020682D01*
X0018930Y0020600D01*
X0019057Y0020513D01*
X0019182Y0020424D01*
X0019304Y0020331D01*
X0019423Y0020235D01*
X0019541Y0020136D01*
X0019655Y0020035D01*
X0019767Y0019930D01*
X0019876Y0019822D01*
X0019982Y0019711D01*
X0020086Y0019598D01*
X0020186Y0019482D01*
X0020284Y0019364D01*
X0020378Y0019243D01*
X0020469Y0019120D01*
X0020557Y0018994D01*
X0020641Y0018866D01*
X0020723Y0018736D01*
X0020800Y0018604D01*
X0020875Y0018470D01*
X0020946Y0018334D01*
X0021013Y0018196D01*
X0021077Y0018056D01*
X0021137Y0017915D01*
X0021193Y0017773D01*
X0021246Y0017629D01*
X0021295Y0017483D01*
X0021340Y0017337D01*
X0021381Y0017189D01*
X0021418Y0017041D01*
X0021452Y0016891D01*
X0021482Y0016740D01*
X0021507Y0016589D01*
X0021529Y0016438D01*
X0021547Y0016285D01*
X0021561Y0016133D01*
X0021571Y0015980D01*
X0021577Y0015826D01*
X0021579Y0015673D01*
X0021577Y0015520D01*
X0021571Y0015366D01*
X0021561Y0015213D01*
X0021547Y0015061D01*
X0021529Y0014908D01*
X0021507Y0014757D01*
X0021482Y0014606D01*
X0021452Y0014455D01*
X0021418Y0014305D01*
X0021381Y0014157D01*
X0021340Y0014009D01*
X0021295Y0013863D01*
X0021246Y0013717D01*
X0021193Y0013573D01*
X0021137Y0013431D01*
X0021077Y0013290D01*
X0021013Y0013150D01*
X0020946Y0013012D01*
X0020875Y0012876D01*
X0020800Y0012742D01*
X0020723Y0012610D01*
X0020641Y0012480D01*
X0020557Y0012352D01*
X0020469Y0012226D01*
X0020378Y0012103D01*
X0020284Y0011982D01*
X0020186Y0011864D01*
X0020086Y0011748D01*
X0019982Y0011635D01*
X0019876Y0011524D01*
X0019767Y0011416D01*
X0019655Y0011311D01*
X0019541Y0011210D01*
X0019423Y0011111D01*
X0019304Y0011015D01*
X0019182Y0010922D01*
X0019057Y0010833D01*
X0018930Y0010746D01*
X0018801Y0010664D01*
X0018670Y0010584D01*
X0018537Y0010508D01*
X0018402Y0010435D01*
X0018265Y0010366D01*
X0018126Y0010301D01*
X0017986Y0010239D01*
X0017844Y0010181D01*
X0017701Y0010126D01*
X0017556Y0010075D01*
X0017410Y0010028D01*
X0017263Y0009985D01*
X0017115Y0009946D01*
X0016966Y0009910D01*
X0016816Y0009879D01*
X0016665Y0009851D01*
X0016514Y0009827D01*
X0016361Y0009807D01*
X0016209Y0009791D01*
X0016056Y0009779D01*
X0015903Y0009771D01*
X0015750Y0009767D01*
X0015596Y0009767D01*
X0015443Y0009771D01*
X0015290Y0009779D01*
X0015137Y0009791D01*
X0014985Y0009807D01*
X0014832Y0009827D01*
X0014681Y0009851D01*
X0014530Y0009879D01*
X0014380Y0009910D01*
X0014231Y0009946D01*
X0014083Y0009985D01*
X0013936Y0010028D01*
X0013790Y0010075D01*
X0013645Y0010126D01*
X0013502Y0010181D01*
X0013360Y0010239D01*
X0013220Y0010301D01*
X0013081Y0010366D01*
X0012944Y0010435D01*
X0012809Y0010508D01*
X0012676Y0010584D01*
X0012545Y0010664D01*
X0012416Y0010746D01*
X0012289Y0010833D01*
X0012164Y0010922D01*
X0012042Y0011015D01*
X0011923Y0011111D01*
X0011805Y0011210D01*
X0011691Y0011311D01*
X0011579Y0011416D01*
X0011470Y0011524D01*
X0011364Y0011635D01*
X0011260Y0011748D01*
X0011160Y0011864D01*
X0011062Y0011982D01*
X0010968Y0012103D01*
X0010877Y0012226D01*
X0010789Y0012352D01*
X0010705Y0012480D01*
X0010623Y0012610D01*
X0010546Y0012742D01*
X0010471Y0012876D01*
X0010400Y0013012D01*
X0010333Y0013150D01*
X0010269Y0013290D01*
X0010209Y0013431D01*
X0010153Y0013573D01*
X0010100Y0013717D01*
X0010051Y0013863D01*
X0010006Y0014009D01*
X0009965Y0014157D01*
X0009928Y0014305D01*
X0009894Y0014455D01*
X0009864Y0014606D01*
X0009839Y0014757D01*
X0009817Y0014908D01*
X0009799Y0015061D01*
X0009785Y0015213D01*
X0009775Y0015366D01*
X0009769Y0015520D01*
X0009767Y0015673D01*
X0196108Y0175831D02*
X0196108Y0185039D01*
X0200712Y0185039D01*
X0202246Y0183504D01*
X0202246Y0180435D01*
X0200712Y0178900D01*
X0196108Y0178900D01*
X0193039Y0180435D02*
X0193039Y0186573D01*
X0191504Y0188108D01*
X0188435Y0188108D01*
X0186900Y0186573D01*
X0186900Y0180435D01*
X0188435Y0178900D01*
X0191504Y0178900D01*
X0193039Y0180435D01*
X0205316Y0180435D02*
X0205316Y0183504D01*
X0206850Y0185039D01*
X0209920Y0185039D01*
X0211454Y0183504D01*
X0211454Y0181969D01*
X0205316Y0181969D01*
X0205316Y0180435D02*
X0206850Y0178900D01*
X0209920Y0178900D01*
X0214524Y0178900D02*
X0214524Y0185039D01*
X0219128Y0185039D01*
X0220662Y0183504D01*
X0220662Y0178900D01*
X0223731Y0178900D02*
X0228335Y0178900D01*
X0229870Y0180435D01*
X0229870Y0181969D01*
X0228335Y0183504D01*
X0223731Y0183504D01*
X0228335Y0183504D02*
X0229870Y0185039D01*
X0229870Y0186573D01*
X0228335Y0188108D01*
X0223731Y0188108D01*
X0223731Y0178900D01*
X0232939Y0178900D02*
X0239078Y0178900D01*
X0242147Y0178900D02*
X0245216Y0181969D01*
X0248286Y0178900D01*
X0248286Y0188108D01*
X0242147Y0188108D02*
X0242147Y0178900D01*
X0232939Y0178900D02*
X0232939Y0188108D01*
X0264885Y0184177D02*
X0264887Y0184330D01*
X0264893Y0184484D01*
X0264903Y0184637D01*
X0264917Y0184789D01*
X0264935Y0184942D01*
X0264957Y0185093D01*
X0264982Y0185244D01*
X0265012Y0185395D01*
X0265046Y0185545D01*
X0265083Y0185693D01*
X0265124Y0185841D01*
X0265169Y0185987D01*
X0265218Y0186133D01*
X0265271Y0186277D01*
X0265327Y0186419D01*
X0265387Y0186560D01*
X0265451Y0186700D01*
X0265518Y0186838D01*
X0265589Y0186974D01*
X0265664Y0187108D01*
X0265741Y0187240D01*
X0265823Y0187370D01*
X0265907Y0187498D01*
X0265995Y0187624D01*
X0266086Y0187747D01*
X0266180Y0187868D01*
X0266278Y0187986D01*
X0266378Y0188102D01*
X0266482Y0188215D01*
X0266588Y0188326D01*
X0266697Y0188434D01*
X0266809Y0188539D01*
X0266923Y0188640D01*
X0267041Y0188739D01*
X0267160Y0188835D01*
X0267282Y0188928D01*
X0267407Y0189017D01*
X0267534Y0189104D01*
X0267663Y0189186D01*
X0267794Y0189266D01*
X0267927Y0189342D01*
X0268062Y0189415D01*
X0268199Y0189484D01*
X0268338Y0189549D01*
X0268478Y0189611D01*
X0268620Y0189669D01*
X0268763Y0189724D01*
X0268908Y0189775D01*
X0269054Y0189822D01*
X0269201Y0189865D01*
X0269349Y0189904D01*
X0269498Y0189940D01*
X0269648Y0189971D01*
X0269799Y0189999D01*
X0269950Y0190023D01*
X0270103Y0190043D01*
X0270255Y0190059D01*
X0270408Y0190071D01*
X0270561Y0190079D01*
X0270714Y0190083D01*
X0270868Y0190083D01*
X0271021Y0190079D01*
X0271174Y0190071D01*
X0271327Y0190059D01*
X0271479Y0190043D01*
X0271632Y0190023D01*
X0271783Y0189999D01*
X0271934Y0189971D01*
X0272084Y0189940D01*
X0272233Y0189904D01*
X0272381Y0189865D01*
X0272528Y0189822D01*
X0272674Y0189775D01*
X0272819Y0189724D01*
X0272962Y0189669D01*
X0273104Y0189611D01*
X0273244Y0189549D01*
X0273383Y0189484D01*
X0273520Y0189415D01*
X0273655Y0189342D01*
X0273788Y0189266D01*
X0273919Y0189186D01*
X0274048Y0189104D01*
X0274175Y0189017D01*
X0274300Y0188928D01*
X0274422Y0188835D01*
X0274541Y0188739D01*
X0274659Y0188640D01*
X0274773Y0188539D01*
X0274885Y0188434D01*
X0274994Y0188326D01*
X0275100Y0188215D01*
X0275204Y0188102D01*
X0275304Y0187986D01*
X0275402Y0187868D01*
X0275496Y0187747D01*
X0275587Y0187624D01*
X0275675Y0187498D01*
X0275759Y0187370D01*
X0275841Y0187240D01*
X0275918Y0187108D01*
X0275993Y0186974D01*
X0276064Y0186838D01*
X0276131Y0186700D01*
X0276195Y0186560D01*
X0276255Y0186419D01*
X0276311Y0186277D01*
X0276364Y0186133D01*
X0276413Y0185987D01*
X0276458Y0185841D01*
X0276499Y0185693D01*
X0276536Y0185545D01*
X0276570Y0185395D01*
X0276600Y0185244D01*
X0276625Y0185093D01*
X0276647Y0184942D01*
X0276665Y0184789D01*
X0276679Y0184637D01*
X0276689Y0184484D01*
X0276695Y0184330D01*
X0276697Y0184177D01*
X0276695Y0184024D01*
X0276689Y0183870D01*
X0276679Y0183717D01*
X0276665Y0183565D01*
X0276647Y0183412D01*
X0276625Y0183261D01*
X0276600Y0183110D01*
X0276570Y0182959D01*
X0276536Y0182809D01*
X0276499Y0182661D01*
X0276458Y0182513D01*
X0276413Y0182367D01*
X0276364Y0182221D01*
X0276311Y0182077D01*
X0276255Y0181935D01*
X0276195Y0181794D01*
X0276131Y0181654D01*
X0276064Y0181516D01*
X0275993Y0181380D01*
X0275918Y0181246D01*
X0275841Y0181114D01*
X0275759Y0180984D01*
X0275675Y0180856D01*
X0275587Y0180730D01*
X0275496Y0180607D01*
X0275402Y0180486D01*
X0275304Y0180368D01*
X0275204Y0180252D01*
X0275100Y0180139D01*
X0274994Y0180028D01*
X0274885Y0179920D01*
X0274773Y0179815D01*
X0274659Y0179714D01*
X0274541Y0179615D01*
X0274422Y0179519D01*
X0274300Y0179426D01*
X0274175Y0179337D01*
X0274048Y0179250D01*
X0273919Y0179168D01*
X0273788Y0179088D01*
X0273655Y0179012D01*
X0273520Y0178939D01*
X0273383Y0178870D01*
X0273244Y0178805D01*
X0273104Y0178743D01*
X0272962Y0178685D01*
X0272819Y0178630D01*
X0272674Y0178579D01*
X0272528Y0178532D01*
X0272381Y0178489D01*
X0272233Y0178450D01*
X0272084Y0178414D01*
X0271934Y0178383D01*
X0271783Y0178355D01*
X0271632Y0178331D01*
X0271479Y0178311D01*
X0271327Y0178295D01*
X0271174Y0178283D01*
X0271021Y0178275D01*
X0270868Y0178271D01*
X0270714Y0178271D01*
X0270561Y0178275D01*
X0270408Y0178283D01*
X0270255Y0178295D01*
X0270103Y0178311D01*
X0269950Y0178331D01*
X0269799Y0178355D01*
X0269648Y0178383D01*
X0269498Y0178414D01*
X0269349Y0178450D01*
X0269201Y0178489D01*
X0269054Y0178532D01*
X0268908Y0178579D01*
X0268763Y0178630D01*
X0268620Y0178685D01*
X0268478Y0178743D01*
X0268338Y0178805D01*
X0268199Y0178870D01*
X0268062Y0178939D01*
X0267927Y0179012D01*
X0267794Y0179088D01*
X0267663Y0179168D01*
X0267534Y0179250D01*
X0267407Y0179337D01*
X0267282Y0179426D01*
X0267160Y0179519D01*
X0267041Y0179615D01*
X0266923Y0179714D01*
X0266809Y0179815D01*
X0266697Y0179920D01*
X0266588Y0180028D01*
X0266482Y0180139D01*
X0266378Y0180252D01*
X0266278Y0180368D01*
X0266180Y0180486D01*
X0266086Y0180607D01*
X0265995Y0180730D01*
X0265907Y0180856D01*
X0265823Y0180984D01*
X0265741Y0181114D01*
X0265664Y0181246D01*
X0265589Y0181380D01*
X0265518Y0181516D01*
X0265451Y0181654D01*
X0265387Y0181794D01*
X0265327Y0181935D01*
X0265271Y0182077D01*
X0265218Y0182221D01*
X0265169Y0182367D01*
X0265124Y0182513D01*
X0265083Y0182661D01*
X0265046Y0182809D01*
X0265012Y0182959D01*
X0264982Y0183110D01*
X0264957Y0183261D01*
X0264935Y0183412D01*
X0264917Y0183565D01*
X0264903Y0183717D01*
X0264893Y0183870D01*
X0264887Y0184024D01*
X0264885Y0184177D01*
X0264885Y0015673D02*
X0264887Y0015826D01*
X0264893Y0015980D01*
X0264903Y0016133D01*
X0264917Y0016285D01*
X0264935Y0016438D01*
X0264957Y0016589D01*
X0264982Y0016740D01*
X0265012Y0016891D01*
X0265046Y0017041D01*
X0265083Y0017189D01*
X0265124Y0017337D01*
X0265169Y0017483D01*
X0265218Y0017629D01*
X0265271Y0017773D01*
X0265327Y0017915D01*
X0265387Y0018056D01*
X0265451Y0018196D01*
X0265518Y0018334D01*
X0265589Y0018470D01*
X0265664Y0018604D01*
X0265741Y0018736D01*
X0265823Y0018866D01*
X0265907Y0018994D01*
X0265995Y0019120D01*
X0266086Y0019243D01*
X0266180Y0019364D01*
X0266278Y0019482D01*
X0266378Y0019598D01*
X0266482Y0019711D01*
X0266588Y0019822D01*
X0266697Y0019930D01*
X0266809Y0020035D01*
X0266923Y0020136D01*
X0267041Y0020235D01*
X0267160Y0020331D01*
X0267282Y0020424D01*
X0267407Y0020513D01*
X0267534Y0020600D01*
X0267663Y0020682D01*
X0267794Y0020762D01*
X0267927Y0020838D01*
X0268062Y0020911D01*
X0268199Y0020980D01*
X0268338Y0021045D01*
X0268478Y0021107D01*
X0268620Y0021165D01*
X0268763Y0021220D01*
X0268908Y0021271D01*
X0269054Y0021318D01*
X0269201Y0021361D01*
X0269349Y0021400D01*
X0269498Y0021436D01*
X0269648Y0021467D01*
X0269799Y0021495D01*
X0269950Y0021519D01*
X0270103Y0021539D01*
X0270255Y0021555D01*
X0270408Y0021567D01*
X0270561Y0021575D01*
X0270714Y0021579D01*
X0270868Y0021579D01*
X0271021Y0021575D01*
X0271174Y0021567D01*
X0271327Y0021555D01*
X0271479Y0021539D01*
X0271632Y0021519D01*
X0271783Y0021495D01*
X0271934Y0021467D01*
X0272084Y0021436D01*
X0272233Y0021400D01*
X0272381Y0021361D01*
X0272528Y0021318D01*
X0272674Y0021271D01*
X0272819Y0021220D01*
X0272962Y0021165D01*
X0273104Y0021107D01*
X0273244Y0021045D01*
X0273383Y0020980D01*
X0273520Y0020911D01*
X0273655Y0020838D01*
X0273788Y0020762D01*
X0273919Y0020682D01*
X0274048Y0020600D01*
X0274175Y0020513D01*
X0274300Y0020424D01*
X0274422Y0020331D01*
X0274541Y0020235D01*
X0274659Y0020136D01*
X0274773Y0020035D01*
X0274885Y0019930D01*
X0274994Y0019822D01*
X0275100Y0019711D01*
X0275204Y0019598D01*
X0275304Y0019482D01*
X0275402Y0019364D01*
X0275496Y0019243D01*
X0275587Y0019120D01*
X0275675Y0018994D01*
X0275759Y0018866D01*
X0275841Y0018736D01*
X0275918Y0018604D01*
X0275993Y0018470D01*
X0276064Y0018334D01*
X0276131Y0018196D01*
X0276195Y0018056D01*
X0276255Y0017915D01*
X0276311Y0017773D01*
X0276364Y0017629D01*
X0276413Y0017483D01*
X0276458Y0017337D01*
X0276499Y0017189D01*
X0276536Y0017041D01*
X0276570Y0016891D01*
X0276600Y0016740D01*
X0276625Y0016589D01*
X0276647Y0016438D01*
X0276665Y0016285D01*
X0276679Y0016133D01*
X0276689Y0015980D01*
X0276695Y0015826D01*
X0276697Y0015673D01*
X0276695Y0015520D01*
X0276689Y0015366D01*
X0276679Y0015213D01*
X0276665Y0015061D01*
X0276647Y0014908D01*
X0276625Y0014757D01*
X0276600Y0014606D01*
X0276570Y0014455D01*
X0276536Y0014305D01*
X0276499Y0014157D01*
X0276458Y0014009D01*
X0276413Y0013863D01*
X0276364Y0013717D01*
X0276311Y0013573D01*
X0276255Y0013431D01*
X0276195Y0013290D01*
X0276131Y0013150D01*
X0276064Y0013012D01*
X0275993Y0012876D01*
X0275918Y0012742D01*
X0275841Y0012610D01*
X0275759Y0012480D01*
X0275675Y0012352D01*
X0275587Y0012226D01*
X0275496Y0012103D01*
X0275402Y0011982D01*
X0275304Y0011864D01*
X0275204Y0011748D01*
X0275100Y0011635D01*
X0274994Y0011524D01*
X0274885Y0011416D01*
X0274773Y0011311D01*
X0274659Y0011210D01*
X0274541Y0011111D01*
X0274422Y0011015D01*
X0274300Y0010922D01*
X0274175Y0010833D01*
X0274048Y0010746D01*
X0273919Y0010664D01*
X0273788Y0010584D01*
X0273655Y0010508D01*
X0273520Y0010435D01*
X0273383Y0010366D01*
X0273244Y0010301D01*
X0273104Y0010239D01*
X0272962Y0010181D01*
X0272819Y0010126D01*
X0272674Y0010075D01*
X0272528Y0010028D01*
X0272381Y0009985D01*
X0272233Y0009946D01*
X0272084Y0009910D01*
X0271934Y0009879D01*
X0271783Y0009851D01*
X0271632Y0009827D01*
X0271479Y0009807D01*
X0271327Y0009791D01*
X0271174Y0009779D01*
X0271021Y0009771D01*
X0270868Y0009767D01*
X0270714Y0009767D01*
X0270561Y0009771D01*
X0270408Y0009779D01*
X0270255Y0009791D01*
X0270103Y0009807D01*
X0269950Y0009827D01*
X0269799Y0009851D01*
X0269648Y0009879D01*
X0269498Y0009910D01*
X0269349Y0009946D01*
X0269201Y0009985D01*
X0269054Y0010028D01*
X0268908Y0010075D01*
X0268763Y0010126D01*
X0268620Y0010181D01*
X0268478Y0010239D01*
X0268338Y0010301D01*
X0268199Y0010366D01*
X0268062Y0010435D01*
X0267927Y0010508D01*
X0267794Y0010584D01*
X0267663Y0010664D01*
X0267534Y0010746D01*
X0267407Y0010833D01*
X0267282Y0010922D01*
X0267160Y0011015D01*
X0267041Y0011111D01*
X0266923Y0011210D01*
X0266809Y0011311D01*
X0266697Y0011416D01*
X0266588Y0011524D01*
X0266482Y0011635D01*
X0266378Y0011748D01*
X0266278Y0011864D01*
X0266180Y0011982D01*
X0266086Y0012103D01*
X0265995Y0012226D01*
X0265907Y0012352D01*
X0265823Y0012480D01*
X0265741Y0012610D01*
X0265664Y0012742D01*
X0265589Y0012876D01*
X0265518Y0013012D01*
X0265451Y0013150D01*
X0265387Y0013290D01*
X0265327Y0013431D01*
X0265271Y0013573D01*
X0265218Y0013717D01*
X0265169Y0013863D01*
X0265124Y0014009D01*
X0265083Y0014157D01*
X0265046Y0014305D01*
X0265012Y0014455D01*
X0264982Y0014606D01*
X0264957Y0014757D01*
X0264935Y0014908D01*
X0264917Y0015061D01*
X0264903Y0015213D01*
X0264893Y0015366D01*
X0264887Y0015520D01*
X0264885Y0015673D01*
X0009767Y0184177D02*
X0009769Y0184330D01*
X0009775Y0184484D01*
X0009785Y0184637D01*
X0009799Y0184789D01*
X0009817Y0184942D01*
X0009839Y0185093D01*
X0009864Y0185244D01*
X0009894Y0185395D01*
X0009928Y0185545D01*
X0009965Y0185693D01*
X0010006Y0185841D01*
X0010051Y0185987D01*
X0010100Y0186133D01*
X0010153Y0186277D01*
X0010209Y0186419D01*
X0010269Y0186560D01*
X0010333Y0186700D01*
X0010400Y0186838D01*
X0010471Y0186974D01*
X0010546Y0187108D01*
X0010623Y0187240D01*
X0010705Y0187370D01*
X0010789Y0187498D01*
X0010877Y0187624D01*
X0010968Y0187747D01*
X0011062Y0187868D01*
X0011160Y0187986D01*
X0011260Y0188102D01*
X0011364Y0188215D01*
X0011470Y0188326D01*
X0011579Y0188434D01*
X0011691Y0188539D01*
X0011805Y0188640D01*
X0011923Y0188739D01*
X0012042Y0188835D01*
X0012164Y0188928D01*
X0012289Y0189017D01*
X0012416Y0189104D01*
X0012545Y0189186D01*
X0012676Y0189266D01*
X0012809Y0189342D01*
X0012944Y0189415D01*
X0013081Y0189484D01*
X0013220Y0189549D01*
X0013360Y0189611D01*
X0013502Y0189669D01*
X0013645Y0189724D01*
X0013790Y0189775D01*
X0013936Y0189822D01*
X0014083Y0189865D01*
X0014231Y0189904D01*
X0014380Y0189940D01*
X0014530Y0189971D01*
X0014681Y0189999D01*
X0014832Y0190023D01*
X0014985Y0190043D01*
X0015137Y0190059D01*
X0015290Y0190071D01*
X0015443Y0190079D01*
X0015596Y0190083D01*
X0015750Y0190083D01*
X0015903Y0190079D01*
X0016056Y0190071D01*
X0016209Y0190059D01*
X0016361Y0190043D01*
X0016514Y0190023D01*
X0016665Y0189999D01*
X0016816Y0189971D01*
X0016966Y0189940D01*
X0017115Y0189904D01*
X0017263Y0189865D01*
X0017410Y0189822D01*
X0017556Y0189775D01*
X0017701Y0189724D01*
X0017844Y0189669D01*
X0017986Y0189611D01*
X0018126Y0189549D01*
X0018265Y0189484D01*
X0018402Y0189415D01*
X0018537Y0189342D01*
X0018670Y0189266D01*
X0018801Y0189186D01*
X0018930Y0189104D01*
X0019057Y0189017D01*
X0019182Y0188928D01*
X0019304Y0188835D01*
X0019423Y0188739D01*
X0019541Y0188640D01*
X0019655Y0188539D01*
X0019767Y0188434D01*
X0019876Y0188326D01*
X0019982Y0188215D01*
X0020086Y0188102D01*
X0020186Y0187986D01*
X0020284Y0187868D01*
X0020378Y0187747D01*
X0020469Y0187624D01*
X0020557Y0187498D01*
X0020641Y0187370D01*
X0020723Y0187240D01*
X0020800Y0187108D01*
X0020875Y0186974D01*
X0020946Y0186838D01*
X0021013Y0186700D01*
X0021077Y0186560D01*
X0021137Y0186419D01*
X0021193Y0186277D01*
X0021246Y0186133D01*
X0021295Y0185987D01*
X0021340Y0185841D01*
X0021381Y0185693D01*
X0021418Y0185545D01*
X0021452Y0185395D01*
X0021482Y0185244D01*
X0021507Y0185093D01*
X0021529Y0184942D01*
X0021547Y0184789D01*
X0021561Y0184637D01*
X0021571Y0184484D01*
X0021577Y0184330D01*
X0021579Y0184177D01*
X0021577Y0184024D01*
X0021571Y0183870D01*
X0021561Y0183717D01*
X0021547Y0183565D01*
X0021529Y0183412D01*
X0021507Y0183261D01*
X0021482Y0183110D01*
X0021452Y0182959D01*
X0021418Y0182809D01*
X0021381Y0182661D01*
X0021340Y0182513D01*
X0021295Y0182367D01*
X0021246Y0182221D01*
X0021193Y0182077D01*
X0021137Y0181935D01*
X0021077Y0181794D01*
X0021013Y0181654D01*
X0020946Y0181516D01*
X0020875Y0181380D01*
X0020800Y0181246D01*
X0020723Y0181114D01*
X0020641Y0180984D01*
X0020557Y0180856D01*
X0020469Y0180730D01*
X0020378Y0180607D01*
X0020284Y0180486D01*
X0020186Y0180368D01*
X0020086Y0180252D01*
X0019982Y0180139D01*
X0019876Y0180028D01*
X0019767Y0179920D01*
X0019655Y0179815D01*
X0019541Y0179714D01*
X0019423Y0179615D01*
X0019304Y0179519D01*
X0019182Y0179426D01*
X0019057Y0179337D01*
X0018930Y0179250D01*
X0018801Y0179168D01*
X0018670Y0179088D01*
X0018537Y0179012D01*
X0018402Y0178939D01*
X0018265Y0178870D01*
X0018126Y0178805D01*
X0017986Y0178743D01*
X0017844Y0178685D01*
X0017701Y0178630D01*
X0017556Y0178579D01*
X0017410Y0178532D01*
X0017263Y0178489D01*
X0017115Y0178450D01*
X0016966Y0178414D01*
X0016816Y0178383D01*
X0016665Y0178355D01*
X0016514Y0178331D01*
X0016361Y0178311D01*
X0016209Y0178295D01*
X0016056Y0178283D01*
X0015903Y0178275D01*
X0015750Y0178271D01*
X0015596Y0178271D01*
X0015443Y0178275D01*
X0015290Y0178283D01*
X0015137Y0178295D01*
X0014985Y0178311D01*
X0014832Y0178331D01*
X0014681Y0178355D01*
X0014530Y0178383D01*
X0014380Y0178414D01*
X0014231Y0178450D01*
X0014083Y0178489D01*
X0013936Y0178532D01*
X0013790Y0178579D01*
X0013645Y0178630D01*
X0013502Y0178685D01*
X0013360Y0178743D01*
X0013220Y0178805D01*
X0013081Y0178870D01*
X0012944Y0178939D01*
X0012809Y0179012D01*
X0012676Y0179088D01*
X0012545Y0179168D01*
X0012416Y0179250D01*
X0012289Y0179337D01*
X0012164Y0179426D01*
X0012042Y0179519D01*
X0011923Y0179615D01*
X0011805Y0179714D01*
X0011691Y0179815D01*
X0011579Y0179920D01*
X0011470Y0180028D01*
X0011364Y0180139D01*
X0011260Y0180252D01*
X0011160Y0180368D01*
X0011062Y0180486D01*
X0010968Y0180607D01*
X0010877Y0180730D01*
X0010789Y0180856D01*
X0010705Y0180984D01*
X0010623Y0181114D01*
X0010546Y0181246D01*
X0010471Y0181380D01*
X0010400Y0181516D01*
X0010333Y0181654D01*
X0010269Y0181794D01*
X0010209Y0181935D01*
X0010153Y0182077D01*
X0010100Y0182221D01*
X0010051Y0182367D01*
X0010006Y0182513D01*
X0009965Y0182661D01*
X0009928Y0182809D01*
X0009894Y0182959D01*
X0009864Y0183110D01*
X0009839Y0183261D01*
X0009817Y0183412D01*
X0009799Y0183565D01*
X0009785Y0183717D01*
X0009775Y0183870D01*
X0009769Y0184024D01*
X0009767Y0184177D01*
D11*
X0004173Y0184177D02*
X0004176Y0184459D01*
X0004187Y0184741D01*
X0004204Y0185023D01*
X0004228Y0185304D01*
X0004259Y0185585D01*
X0004297Y0185864D01*
X0004342Y0186143D01*
X0004394Y0186421D01*
X0004452Y0186697D01*
X0004518Y0186971D01*
X0004590Y0187244D01*
X0004668Y0187515D01*
X0004753Y0187784D01*
X0004845Y0188051D01*
X0004944Y0188316D01*
X0005048Y0188578D01*
X0005160Y0188837D01*
X0005277Y0189094D01*
X0005401Y0189348D01*
X0005531Y0189598D01*
X0005667Y0189845D01*
X0005809Y0190089D01*
X0005957Y0190329D01*
X0006111Y0190566D01*
X0006271Y0190799D01*
X0006436Y0191028D01*
X0006607Y0191252D01*
X0006783Y0191473D01*
X0006965Y0191688D01*
X0007152Y0191900D01*
X0007344Y0192107D01*
X0007541Y0192309D01*
X0007743Y0192506D01*
X0007950Y0192698D01*
X0008162Y0192885D01*
X0008377Y0193067D01*
X0008598Y0193243D01*
X0008822Y0193414D01*
X0009051Y0193579D01*
X0009284Y0193739D01*
X0009521Y0193893D01*
X0009761Y0194041D01*
X0010005Y0194183D01*
X0010252Y0194319D01*
X0010502Y0194449D01*
X0010756Y0194573D01*
X0011013Y0194690D01*
X0011272Y0194802D01*
X0011534Y0194906D01*
X0011799Y0195005D01*
X0012066Y0195097D01*
X0012335Y0195182D01*
X0012606Y0195260D01*
X0012879Y0195332D01*
X0013153Y0195398D01*
X0013429Y0195456D01*
X0013707Y0195508D01*
X0013986Y0195553D01*
X0014265Y0195591D01*
X0014546Y0195622D01*
X0014827Y0195646D01*
X0015109Y0195663D01*
X0015391Y0195674D01*
X0015673Y0195677D01*
X0015955Y0195674D01*
X0016237Y0195663D01*
X0016519Y0195646D01*
X0016800Y0195622D01*
X0017081Y0195591D01*
X0017360Y0195553D01*
X0017639Y0195508D01*
X0017917Y0195456D01*
X0018193Y0195398D01*
X0018467Y0195332D01*
X0018740Y0195260D01*
X0019011Y0195182D01*
X0019280Y0195097D01*
X0019547Y0195005D01*
X0019812Y0194906D01*
X0020074Y0194802D01*
X0020333Y0194690D01*
X0020590Y0194573D01*
X0020844Y0194449D01*
X0021094Y0194319D01*
X0021341Y0194183D01*
X0021585Y0194041D01*
X0021825Y0193893D01*
X0022062Y0193739D01*
X0022295Y0193579D01*
X0022524Y0193414D01*
X0022748Y0193243D01*
X0022969Y0193067D01*
X0023184Y0192885D01*
X0023396Y0192698D01*
X0023603Y0192506D01*
X0023805Y0192309D01*
X0024002Y0192107D01*
X0024194Y0191900D01*
X0024381Y0191688D01*
X0024563Y0191473D01*
X0024739Y0191252D01*
X0024910Y0191028D01*
X0025075Y0190799D01*
X0025235Y0190566D01*
X0025389Y0190329D01*
X0025537Y0190089D01*
X0025679Y0189845D01*
X0025815Y0189598D01*
X0025945Y0189348D01*
X0026069Y0189094D01*
X0026186Y0188837D01*
X0026298Y0188578D01*
X0026402Y0188316D01*
X0026501Y0188051D01*
X0026593Y0187784D01*
X0026678Y0187515D01*
X0026756Y0187244D01*
X0026828Y0186971D01*
X0026894Y0186697D01*
X0026952Y0186421D01*
X0027004Y0186143D01*
X0027049Y0185864D01*
X0027087Y0185585D01*
X0027118Y0185304D01*
X0027142Y0185023D01*
X0027159Y0184741D01*
X0027170Y0184459D01*
X0027173Y0184177D01*
X0027170Y0183895D01*
X0027159Y0183613D01*
X0027142Y0183331D01*
X0027118Y0183050D01*
X0027087Y0182769D01*
X0027049Y0182490D01*
X0027004Y0182211D01*
X0026952Y0181933D01*
X0026894Y0181657D01*
X0026828Y0181383D01*
X0026756Y0181110D01*
X0026678Y0180839D01*
X0026593Y0180570D01*
X0026501Y0180303D01*
X0026402Y0180038D01*
X0026298Y0179776D01*
X0026186Y0179517D01*
X0026069Y0179260D01*
X0025945Y0179006D01*
X0025815Y0178756D01*
X0025679Y0178509D01*
X0025537Y0178265D01*
X0025389Y0178025D01*
X0025235Y0177788D01*
X0025075Y0177555D01*
X0024910Y0177326D01*
X0024739Y0177102D01*
X0024563Y0176881D01*
X0024381Y0176666D01*
X0024194Y0176454D01*
X0024002Y0176247D01*
X0023805Y0176045D01*
X0023603Y0175848D01*
X0023396Y0175656D01*
X0023184Y0175469D01*
X0022969Y0175287D01*
X0022748Y0175111D01*
X0022524Y0174940D01*
X0022295Y0174775D01*
X0022062Y0174615D01*
X0021825Y0174461D01*
X0021585Y0174313D01*
X0021341Y0174171D01*
X0021094Y0174035D01*
X0020844Y0173905D01*
X0020590Y0173781D01*
X0020333Y0173664D01*
X0020074Y0173552D01*
X0019812Y0173448D01*
X0019547Y0173349D01*
X0019280Y0173257D01*
X0019011Y0173172D01*
X0018740Y0173094D01*
X0018467Y0173022D01*
X0018193Y0172956D01*
X0017917Y0172898D01*
X0017639Y0172846D01*
X0017360Y0172801D01*
X0017081Y0172763D01*
X0016800Y0172732D01*
X0016519Y0172708D01*
X0016237Y0172691D01*
X0015955Y0172680D01*
X0015673Y0172677D01*
X0015391Y0172680D01*
X0015109Y0172691D01*
X0014827Y0172708D01*
X0014546Y0172732D01*
X0014265Y0172763D01*
X0013986Y0172801D01*
X0013707Y0172846D01*
X0013429Y0172898D01*
X0013153Y0172956D01*
X0012879Y0173022D01*
X0012606Y0173094D01*
X0012335Y0173172D01*
X0012066Y0173257D01*
X0011799Y0173349D01*
X0011534Y0173448D01*
X0011272Y0173552D01*
X0011013Y0173664D01*
X0010756Y0173781D01*
X0010502Y0173905D01*
X0010252Y0174035D01*
X0010005Y0174171D01*
X0009761Y0174313D01*
X0009521Y0174461D01*
X0009284Y0174615D01*
X0009051Y0174775D01*
X0008822Y0174940D01*
X0008598Y0175111D01*
X0008377Y0175287D01*
X0008162Y0175469D01*
X0007950Y0175656D01*
X0007743Y0175848D01*
X0007541Y0176045D01*
X0007344Y0176247D01*
X0007152Y0176454D01*
X0006965Y0176666D01*
X0006783Y0176881D01*
X0006607Y0177102D01*
X0006436Y0177326D01*
X0006271Y0177555D01*
X0006111Y0177788D01*
X0005957Y0178025D01*
X0005809Y0178265D01*
X0005667Y0178509D01*
X0005531Y0178756D01*
X0005401Y0179006D01*
X0005277Y0179260D01*
X0005160Y0179517D01*
X0005048Y0179776D01*
X0004944Y0180038D01*
X0004845Y0180303D01*
X0004753Y0180570D01*
X0004668Y0180839D01*
X0004590Y0181110D01*
X0004518Y0181383D01*
X0004452Y0181657D01*
X0004394Y0181933D01*
X0004342Y0182211D01*
X0004297Y0182490D01*
X0004259Y0182769D01*
X0004228Y0183050D01*
X0004204Y0183331D01*
X0004187Y0183613D01*
X0004176Y0183895D01*
X0004173Y0184177D01*
X0009200Y0146850D02*
X0009200Y0144750D01*
X0009200Y0146850D02*
X0012600Y0146850D01*
X0014600Y0142950D02*
X0014600Y0142150D01*
X0012600Y0138250D02*
X0010700Y0138250D01*
X0009200Y0138250D01*
X0009200Y0140350D01*
X0010699Y0138250D02*
X0010702Y0138317D01*
X0010709Y0138384D01*
X0010719Y0138451D01*
X0010734Y0138517D01*
X0010752Y0138582D01*
X0010774Y0138645D01*
X0010799Y0138708D01*
X0010828Y0138768D01*
X0010861Y0138827D01*
X0010897Y0138884D01*
X0010936Y0138939D01*
X0010978Y0138992D01*
X0011023Y0139041D01*
X0011071Y0139089D01*
X0011122Y0139133D01*
X0011175Y0139174D01*
X0011230Y0139213D01*
X0011288Y0139248D01*
X0011348Y0139279D01*
X0011409Y0139307D01*
X0011471Y0139332D01*
X0011535Y0139353D01*
X0011601Y0139370D01*
X0011667Y0139383D01*
X0011733Y0139393D01*
X0011800Y0139398D01*
X0011868Y0139400D01*
X0011935Y0139398D01*
X0012002Y0139392D01*
X0012069Y0139382D01*
X0012135Y0139368D01*
X0012200Y0139351D01*
X0122500Y0127000D02*
X0122500Y0122000D01*
X0125000Y0119500D01*
X0140000Y0119500D01*
X0142500Y0117000D01*
X0142500Y0112000D01*
X0140000Y0109500D01*
X0142500Y0107000D01*
X0142500Y0102000D01*
X0140000Y0099500D01*
X0125000Y0099500D01*
X0122500Y0102000D01*
X0122500Y0107000D01*
X0125000Y0109500D01*
X0140000Y0109500D01*
X0140000Y0119500D02*
X0142500Y0122000D01*
X0142500Y0127000D01*
X0140000Y0129500D01*
X0125000Y0129500D01*
X0122500Y0127000D01*
X0125000Y0119500D02*
X0122500Y0117000D01*
X0122500Y0112000D01*
X0125000Y0109500D01*
X0196800Y0163800D02*
X0196800Y0170205D01*
X0198935Y0168070D01*
X0201070Y0170205D01*
X0201070Y0163800D01*
X0203245Y0164868D02*
X0204313Y0165935D01*
X0207516Y0165935D01*
X0207516Y0167003D02*
X0207516Y0163800D01*
X0204313Y0163800D01*
X0203245Y0164868D01*
X0204313Y0168070D02*
X0206448Y0168070D01*
X0207516Y0167003D01*
X0209691Y0168070D02*
X0210759Y0168070D01*
X0210759Y0163800D01*
X0211826Y0163800D02*
X0209691Y0163800D01*
X0213988Y0163800D02*
X0213988Y0168070D01*
X0217191Y0168070D01*
X0218258Y0167003D01*
X0218258Y0163800D01*
X0220433Y0164868D02*
X0221501Y0163800D01*
X0223636Y0163800D01*
X0224704Y0164868D01*
X0226879Y0164868D02*
X0227947Y0163800D01*
X0230082Y0163800D01*
X0231149Y0164868D01*
X0231149Y0167003D01*
X0230082Y0168070D01*
X0227947Y0168070D01*
X0226879Y0167003D01*
X0226879Y0164868D01*
X0224704Y0169138D02*
X0223636Y0170205D01*
X0221501Y0170205D01*
X0220433Y0169138D01*
X0220433Y0164868D01*
X0227800Y0159205D02*
X0231003Y0159205D01*
X0232070Y0158138D01*
X0232070Y0156003D01*
X0231003Y0154935D01*
X0227800Y0154935D01*
X0227800Y0152800D02*
X0227800Y0159205D01*
X0229935Y0154935D02*
X0232070Y0152800D01*
X0234245Y0153868D02*
X0234245Y0156003D01*
X0235313Y0157070D01*
X0237448Y0157070D01*
X0238516Y0156003D01*
X0238516Y0154935D01*
X0234245Y0154935D01*
X0234245Y0153868D02*
X0235313Y0152800D01*
X0237448Y0152800D01*
X0240691Y0157070D02*
X0242826Y0152800D01*
X0244961Y0157070D01*
X0247136Y0153868D02*
X0248204Y0153868D01*
X0248204Y0152800D01*
X0247136Y0152800D01*
X0247136Y0153868D01*
X0250359Y0153868D02*
X0254630Y0158138D01*
X0254630Y0153868D01*
X0253562Y0152800D01*
X0251427Y0152800D01*
X0250359Y0153868D01*
X0250359Y0158138D01*
X0251427Y0159205D01*
X0253562Y0159205D01*
X0254630Y0158138D01*
X0260027Y0157070D02*
X0262163Y0159205D01*
X0262163Y0152800D01*
X0264298Y0152800D02*
X0260027Y0152800D01*
X0257872Y0152800D02*
X0256805Y0152800D01*
X0256805Y0153868D01*
X0257872Y0153868D01*
X0257872Y0152800D01*
X0258019Y0163800D02*
X0255884Y0163800D01*
X0256951Y0163800D02*
X0256951Y0170205D01*
X0255884Y0170205D01*
X0253709Y0167003D02*
X0252641Y0168070D01*
X0250506Y0168070D01*
X0249438Y0167003D01*
X0249438Y0164868D01*
X0250506Y0163800D01*
X0252641Y0163800D01*
X0253709Y0164868D01*
X0253709Y0167003D01*
X0247270Y0168070D02*
X0246202Y0168070D01*
X0244067Y0165935D01*
X0244067Y0163800D02*
X0244067Y0168070D01*
X0241905Y0168070D02*
X0239770Y0168070D01*
X0240838Y0169138D02*
X0240838Y0164868D01*
X0241905Y0163800D01*
X0237595Y0163800D02*
X0237595Y0167003D01*
X0236527Y0168070D01*
X0233324Y0168070D01*
X0233324Y0163800D01*
X0210759Y0170205D02*
X0210759Y0171273D01*
X0260181Y0170205D02*
X0261248Y0170205D01*
X0261248Y0163800D01*
X0260181Y0163800D02*
X0262316Y0163800D01*
X0264478Y0164868D02*
X0264478Y0167003D01*
X0265545Y0168070D01*
X0267680Y0168070D01*
X0268748Y0167003D01*
X0268748Y0165935D01*
X0264478Y0165935D01*
X0264478Y0164868D02*
X0265545Y0163800D01*
X0267680Y0163800D01*
X0270923Y0163800D02*
X0270923Y0168070D01*
X0270923Y0165935D02*
X0273058Y0168070D01*
X0274126Y0168070D01*
X0259291Y0184177D02*
X0259294Y0184459D01*
X0259305Y0184741D01*
X0259322Y0185023D01*
X0259346Y0185304D01*
X0259377Y0185585D01*
X0259415Y0185864D01*
X0259460Y0186143D01*
X0259512Y0186421D01*
X0259570Y0186697D01*
X0259636Y0186971D01*
X0259708Y0187244D01*
X0259786Y0187515D01*
X0259871Y0187784D01*
X0259963Y0188051D01*
X0260062Y0188316D01*
X0260166Y0188578D01*
X0260278Y0188837D01*
X0260395Y0189094D01*
X0260519Y0189348D01*
X0260649Y0189598D01*
X0260785Y0189845D01*
X0260927Y0190089D01*
X0261075Y0190329D01*
X0261229Y0190566D01*
X0261389Y0190799D01*
X0261554Y0191028D01*
X0261725Y0191252D01*
X0261901Y0191473D01*
X0262083Y0191688D01*
X0262270Y0191900D01*
X0262462Y0192107D01*
X0262659Y0192309D01*
X0262861Y0192506D01*
X0263068Y0192698D01*
X0263280Y0192885D01*
X0263495Y0193067D01*
X0263716Y0193243D01*
X0263940Y0193414D01*
X0264169Y0193579D01*
X0264402Y0193739D01*
X0264639Y0193893D01*
X0264879Y0194041D01*
X0265123Y0194183D01*
X0265370Y0194319D01*
X0265620Y0194449D01*
X0265874Y0194573D01*
X0266131Y0194690D01*
X0266390Y0194802D01*
X0266652Y0194906D01*
X0266917Y0195005D01*
X0267184Y0195097D01*
X0267453Y0195182D01*
X0267724Y0195260D01*
X0267997Y0195332D01*
X0268271Y0195398D01*
X0268547Y0195456D01*
X0268825Y0195508D01*
X0269104Y0195553D01*
X0269383Y0195591D01*
X0269664Y0195622D01*
X0269945Y0195646D01*
X0270227Y0195663D01*
X0270509Y0195674D01*
X0270791Y0195677D01*
X0271073Y0195674D01*
X0271355Y0195663D01*
X0271637Y0195646D01*
X0271918Y0195622D01*
X0272199Y0195591D01*
X0272478Y0195553D01*
X0272757Y0195508D01*
X0273035Y0195456D01*
X0273311Y0195398D01*
X0273585Y0195332D01*
X0273858Y0195260D01*
X0274129Y0195182D01*
X0274398Y0195097D01*
X0274665Y0195005D01*
X0274930Y0194906D01*
X0275192Y0194802D01*
X0275451Y0194690D01*
X0275708Y0194573D01*
X0275962Y0194449D01*
X0276212Y0194319D01*
X0276459Y0194183D01*
X0276703Y0194041D01*
X0276943Y0193893D01*
X0277180Y0193739D01*
X0277413Y0193579D01*
X0277642Y0193414D01*
X0277866Y0193243D01*
X0278087Y0193067D01*
X0278302Y0192885D01*
X0278514Y0192698D01*
X0278721Y0192506D01*
X0278923Y0192309D01*
X0279120Y0192107D01*
X0279312Y0191900D01*
X0279499Y0191688D01*
X0279681Y0191473D01*
X0279857Y0191252D01*
X0280028Y0191028D01*
X0280193Y0190799D01*
X0280353Y0190566D01*
X0280507Y0190329D01*
X0280655Y0190089D01*
X0280797Y0189845D01*
X0280933Y0189598D01*
X0281063Y0189348D01*
X0281187Y0189094D01*
X0281304Y0188837D01*
X0281416Y0188578D01*
X0281520Y0188316D01*
X0281619Y0188051D01*
X0281711Y0187784D01*
X0281796Y0187515D01*
X0281874Y0187244D01*
X0281946Y0186971D01*
X0282012Y0186697D01*
X0282070Y0186421D01*
X0282122Y0186143D01*
X0282167Y0185864D01*
X0282205Y0185585D01*
X0282236Y0185304D01*
X0282260Y0185023D01*
X0282277Y0184741D01*
X0282288Y0184459D01*
X0282291Y0184177D01*
X0282288Y0183895D01*
X0282277Y0183613D01*
X0282260Y0183331D01*
X0282236Y0183050D01*
X0282205Y0182769D01*
X0282167Y0182490D01*
X0282122Y0182211D01*
X0282070Y0181933D01*
X0282012Y0181657D01*
X0281946Y0181383D01*
X0281874Y0181110D01*
X0281796Y0180839D01*
X0281711Y0180570D01*
X0281619Y0180303D01*
X0281520Y0180038D01*
X0281416Y0179776D01*
X0281304Y0179517D01*
X0281187Y0179260D01*
X0281063Y0179006D01*
X0280933Y0178756D01*
X0280797Y0178509D01*
X0280655Y0178265D01*
X0280507Y0178025D01*
X0280353Y0177788D01*
X0280193Y0177555D01*
X0280028Y0177326D01*
X0279857Y0177102D01*
X0279681Y0176881D01*
X0279499Y0176666D01*
X0279312Y0176454D01*
X0279120Y0176247D01*
X0278923Y0176045D01*
X0278721Y0175848D01*
X0278514Y0175656D01*
X0278302Y0175469D01*
X0278087Y0175287D01*
X0277866Y0175111D01*
X0277642Y0174940D01*
X0277413Y0174775D01*
X0277180Y0174615D01*
X0276943Y0174461D01*
X0276703Y0174313D01*
X0276459Y0174171D01*
X0276212Y0174035D01*
X0275962Y0173905D01*
X0275708Y0173781D01*
X0275451Y0173664D01*
X0275192Y0173552D01*
X0274930Y0173448D01*
X0274665Y0173349D01*
X0274398Y0173257D01*
X0274129Y0173172D01*
X0273858Y0173094D01*
X0273585Y0173022D01*
X0273311Y0172956D01*
X0273035Y0172898D01*
X0272757Y0172846D01*
X0272478Y0172801D01*
X0272199Y0172763D01*
X0271918Y0172732D01*
X0271637Y0172708D01*
X0271355Y0172691D01*
X0271073Y0172680D01*
X0270791Y0172677D01*
X0270509Y0172680D01*
X0270227Y0172691D01*
X0269945Y0172708D01*
X0269664Y0172732D01*
X0269383Y0172763D01*
X0269104Y0172801D01*
X0268825Y0172846D01*
X0268547Y0172898D01*
X0268271Y0172956D01*
X0267997Y0173022D01*
X0267724Y0173094D01*
X0267453Y0173172D01*
X0267184Y0173257D01*
X0266917Y0173349D01*
X0266652Y0173448D01*
X0266390Y0173552D01*
X0266131Y0173664D01*
X0265874Y0173781D01*
X0265620Y0173905D01*
X0265370Y0174035D01*
X0265123Y0174171D01*
X0264879Y0174313D01*
X0264639Y0174461D01*
X0264402Y0174615D01*
X0264169Y0174775D01*
X0263940Y0174940D01*
X0263716Y0175111D01*
X0263495Y0175287D01*
X0263280Y0175469D01*
X0263068Y0175656D01*
X0262861Y0175848D01*
X0262659Y0176045D01*
X0262462Y0176247D01*
X0262270Y0176454D01*
X0262083Y0176666D01*
X0261901Y0176881D01*
X0261725Y0177102D01*
X0261554Y0177326D01*
X0261389Y0177555D01*
X0261229Y0177788D01*
X0261075Y0178025D01*
X0260927Y0178265D01*
X0260785Y0178509D01*
X0260649Y0178756D01*
X0260519Y0179006D01*
X0260395Y0179260D01*
X0260278Y0179517D01*
X0260166Y0179776D01*
X0260062Y0180038D01*
X0259963Y0180303D01*
X0259871Y0180570D01*
X0259786Y0180839D01*
X0259708Y0181110D01*
X0259636Y0181383D01*
X0259570Y0181657D01*
X0259512Y0181933D01*
X0259460Y0182211D01*
X0259415Y0182490D01*
X0259377Y0182769D01*
X0259346Y0183050D01*
X0259322Y0183331D01*
X0259305Y0183613D01*
X0259294Y0183895D01*
X0259291Y0184177D01*
X0260000Y0049500D02*
X0255000Y0049500D01*
X0252500Y0047000D01*
X0252500Y0032000D01*
X0255000Y0029500D01*
X0260000Y0029500D01*
X0262500Y0032000D01*
X0262500Y0047000D01*
X0260000Y0049500D01*
X0252500Y0047000D02*
X0250000Y0049500D01*
X0245000Y0049500D01*
X0242500Y0047000D01*
X0242500Y0032000D01*
X0245000Y0029500D01*
X0250000Y0029500D01*
X0252500Y0032000D01*
X0242500Y0032000D02*
X0240000Y0029500D01*
X0235000Y0029500D01*
X0232500Y0032000D01*
X0232500Y0047000D01*
X0235000Y0049500D01*
X0240000Y0049500D01*
X0242500Y0047000D01*
X0235400Y0026200D02*
X0228700Y0026200D01*
X0235400Y0026200D02*
X0235400Y0004400D01*
X0149600Y0004400D01*
X0149600Y0026200D01*
X0156300Y0026200D01*
X0129900Y0026200D02*
X0129900Y0004400D01*
X0044100Y0004400D01*
X0044100Y0026200D01*
X0050800Y0026200D01*
X0004173Y0015673D02*
X0004176Y0015955D01*
X0004187Y0016237D01*
X0004204Y0016519D01*
X0004228Y0016800D01*
X0004259Y0017081D01*
X0004297Y0017360D01*
X0004342Y0017639D01*
X0004394Y0017917D01*
X0004452Y0018193D01*
X0004518Y0018467D01*
X0004590Y0018740D01*
X0004668Y0019011D01*
X0004753Y0019280D01*
X0004845Y0019547D01*
X0004944Y0019812D01*
X0005048Y0020074D01*
X0005160Y0020333D01*
X0005277Y0020590D01*
X0005401Y0020844D01*
X0005531Y0021094D01*
X0005667Y0021341D01*
X0005809Y0021585D01*
X0005957Y0021825D01*
X0006111Y0022062D01*
X0006271Y0022295D01*
X0006436Y0022524D01*
X0006607Y0022748D01*
X0006783Y0022969D01*
X0006965Y0023184D01*
X0007152Y0023396D01*
X0007344Y0023603D01*
X0007541Y0023805D01*
X0007743Y0024002D01*
X0007950Y0024194D01*
X0008162Y0024381D01*
X0008377Y0024563D01*
X0008598Y0024739D01*
X0008822Y0024910D01*
X0009051Y0025075D01*
X0009284Y0025235D01*
X0009521Y0025389D01*
X0009761Y0025537D01*
X0010005Y0025679D01*
X0010252Y0025815D01*
X0010502Y0025945D01*
X0010756Y0026069D01*
X0011013Y0026186D01*
X0011272Y0026298D01*
X0011534Y0026402D01*
X0011799Y0026501D01*
X0012066Y0026593D01*
X0012335Y0026678D01*
X0012606Y0026756D01*
X0012879Y0026828D01*
X0013153Y0026894D01*
X0013429Y0026952D01*
X0013707Y0027004D01*
X0013986Y0027049D01*
X0014265Y0027087D01*
X0014546Y0027118D01*
X0014827Y0027142D01*
X0015109Y0027159D01*
X0015391Y0027170D01*
X0015673Y0027173D01*
X0015955Y0027170D01*
X0016237Y0027159D01*
X0016519Y0027142D01*
X0016800Y0027118D01*
X0017081Y0027087D01*
X0017360Y0027049D01*
X0017639Y0027004D01*
X0017917Y0026952D01*
X0018193Y0026894D01*
X0018467Y0026828D01*
X0018740Y0026756D01*
X0019011Y0026678D01*
X0019280Y0026593D01*
X0019547Y0026501D01*
X0019812Y0026402D01*
X0020074Y0026298D01*
X0020333Y0026186D01*
X0020590Y0026069D01*
X0020844Y0025945D01*
X0021094Y0025815D01*
X0021341Y0025679D01*
X0021585Y0025537D01*
X0021825Y0025389D01*
X0022062Y0025235D01*
X0022295Y0025075D01*
X0022524Y0024910D01*
X0022748Y0024739D01*
X0022969Y0024563D01*
X0023184Y0024381D01*
X0023396Y0024194D01*
X0023603Y0024002D01*
X0023805Y0023805D01*
X0024002Y0023603D01*
X0024194Y0023396D01*
X0024381Y0023184D01*
X0024563Y0022969D01*
X0024739Y0022748D01*
X0024910Y0022524D01*
X0025075Y0022295D01*
X0025235Y0022062D01*
X0025389Y0021825D01*
X0025537Y0021585D01*
X0025679Y0021341D01*
X0025815Y0021094D01*
X0025945Y0020844D01*
X0026069Y0020590D01*
X0026186Y0020333D01*
X0026298Y0020074D01*
X0026402Y0019812D01*
X0026501Y0019547D01*
X0026593Y0019280D01*
X0026678Y0019011D01*
X0026756Y0018740D01*
X0026828Y0018467D01*
X0026894Y0018193D01*
X0026952Y0017917D01*
X0027004Y0017639D01*
X0027049Y0017360D01*
X0027087Y0017081D01*
X0027118Y0016800D01*
X0027142Y0016519D01*
X0027159Y0016237D01*
X0027170Y0015955D01*
X0027173Y0015673D01*
X0027170Y0015391D01*
X0027159Y0015109D01*
X0027142Y0014827D01*
X0027118Y0014546D01*
X0027087Y0014265D01*
X0027049Y0013986D01*
X0027004Y0013707D01*
X0026952Y0013429D01*
X0026894Y0013153D01*
X0026828Y0012879D01*
X0026756Y0012606D01*
X0026678Y0012335D01*
X0026593Y0012066D01*
X0026501Y0011799D01*
X0026402Y0011534D01*
X0026298Y0011272D01*
X0026186Y0011013D01*
X0026069Y0010756D01*
X0025945Y0010502D01*
X0025815Y0010252D01*
X0025679Y0010005D01*
X0025537Y0009761D01*
X0025389Y0009521D01*
X0025235Y0009284D01*
X0025075Y0009051D01*
X0024910Y0008822D01*
X0024739Y0008598D01*
X0024563Y0008377D01*
X0024381Y0008162D01*
X0024194Y0007950D01*
X0024002Y0007743D01*
X0023805Y0007541D01*
X0023603Y0007344D01*
X0023396Y0007152D01*
X0023184Y0006965D01*
X0022969Y0006783D01*
X0022748Y0006607D01*
X0022524Y0006436D01*
X0022295Y0006271D01*
X0022062Y0006111D01*
X0021825Y0005957D01*
X0021585Y0005809D01*
X0021341Y0005667D01*
X0021094Y0005531D01*
X0020844Y0005401D01*
X0020590Y0005277D01*
X0020333Y0005160D01*
X0020074Y0005048D01*
X0019812Y0004944D01*
X0019547Y0004845D01*
X0019280Y0004753D01*
X0019011Y0004668D01*
X0018740Y0004590D01*
X0018467Y0004518D01*
X0018193Y0004452D01*
X0017917Y0004394D01*
X0017639Y0004342D01*
X0017360Y0004297D01*
X0017081Y0004259D01*
X0016800Y0004228D01*
X0016519Y0004204D01*
X0016237Y0004187D01*
X0015955Y0004176D01*
X0015673Y0004173D01*
X0015391Y0004176D01*
X0015109Y0004187D01*
X0014827Y0004204D01*
X0014546Y0004228D01*
X0014265Y0004259D01*
X0013986Y0004297D01*
X0013707Y0004342D01*
X0013429Y0004394D01*
X0013153Y0004452D01*
X0012879Y0004518D01*
X0012606Y0004590D01*
X0012335Y0004668D01*
X0012066Y0004753D01*
X0011799Y0004845D01*
X0011534Y0004944D01*
X0011272Y0005048D01*
X0011013Y0005160D01*
X0010756Y0005277D01*
X0010502Y0005401D01*
X0010252Y0005531D01*
X0010005Y0005667D01*
X0009761Y0005809D01*
X0009521Y0005957D01*
X0009284Y0006111D01*
X0009051Y0006271D01*
X0008822Y0006436D01*
X0008598Y0006607D01*
X0008377Y0006783D01*
X0008162Y0006965D01*
X0007950Y0007152D01*
X0007743Y0007344D01*
X0007541Y0007541D01*
X0007344Y0007743D01*
X0007152Y0007950D01*
X0006965Y0008162D01*
X0006783Y0008377D01*
X0006607Y0008598D01*
X0006436Y0008822D01*
X0006271Y0009051D01*
X0006111Y0009284D01*
X0005957Y0009521D01*
X0005809Y0009761D01*
X0005667Y0010005D01*
X0005531Y0010252D01*
X0005401Y0010502D01*
X0005277Y0010756D01*
X0005160Y0011013D01*
X0005048Y0011272D01*
X0004944Y0011534D01*
X0004845Y0011799D01*
X0004753Y0012066D01*
X0004668Y0012335D01*
X0004590Y0012606D01*
X0004518Y0012879D01*
X0004452Y0013153D01*
X0004394Y0013429D01*
X0004342Y0013707D01*
X0004297Y0013986D01*
X0004259Y0014265D01*
X0004228Y0014546D01*
X0004204Y0014827D01*
X0004187Y0015109D01*
X0004176Y0015391D01*
X0004173Y0015673D01*
X0123200Y0026200D02*
X0129900Y0026200D01*
X0259291Y0015673D02*
X0259294Y0015955D01*
X0259305Y0016237D01*
X0259322Y0016519D01*
X0259346Y0016800D01*
X0259377Y0017081D01*
X0259415Y0017360D01*
X0259460Y0017639D01*
X0259512Y0017917D01*
X0259570Y0018193D01*
X0259636Y0018467D01*
X0259708Y0018740D01*
X0259786Y0019011D01*
X0259871Y0019280D01*
X0259963Y0019547D01*
X0260062Y0019812D01*
X0260166Y0020074D01*
X0260278Y0020333D01*
X0260395Y0020590D01*
X0260519Y0020844D01*
X0260649Y0021094D01*
X0260785Y0021341D01*
X0260927Y0021585D01*
X0261075Y0021825D01*
X0261229Y0022062D01*
X0261389Y0022295D01*
X0261554Y0022524D01*
X0261725Y0022748D01*
X0261901Y0022969D01*
X0262083Y0023184D01*
X0262270Y0023396D01*
X0262462Y0023603D01*
X0262659Y0023805D01*
X0262861Y0024002D01*
X0263068Y0024194D01*
X0263280Y0024381D01*
X0263495Y0024563D01*
X0263716Y0024739D01*
X0263940Y0024910D01*
X0264169Y0025075D01*
X0264402Y0025235D01*
X0264639Y0025389D01*
X0264879Y0025537D01*
X0265123Y0025679D01*
X0265370Y0025815D01*
X0265620Y0025945D01*
X0265874Y0026069D01*
X0266131Y0026186D01*
X0266390Y0026298D01*
X0266652Y0026402D01*
X0266917Y0026501D01*
X0267184Y0026593D01*
X0267453Y0026678D01*
X0267724Y0026756D01*
X0267997Y0026828D01*
X0268271Y0026894D01*
X0268547Y0026952D01*
X0268825Y0027004D01*
X0269104Y0027049D01*
X0269383Y0027087D01*
X0269664Y0027118D01*
X0269945Y0027142D01*
X0270227Y0027159D01*
X0270509Y0027170D01*
X0270791Y0027173D01*
X0271073Y0027170D01*
X0271355Y0027159D01*
X0271637Y0027142D01*
X0271918Y0027118D01*
X0272199Y0027087D01*
X0272478Y0027049D01*
X0272757Y0027004D01*
X0273035Y0026952D01*
X0273311Y0026894D01*
X0273585Y0026828D01*
X0273858Y0026756D01*
X0274129Y0026678D01*
X0274398Y0026593D01*
X0274665Y0026501D01*
X0274930Y0026402D01*
X0275192Y0026298D01*
X0275451Y0026186D01*
X0275708Y0026069D01*
X0275962Y0025945D01*
X0276212Y0025815D01*
X0276459Y0025679D01*
X0276703Y0025537D01*
X0276943Y0025389D01*
X0277180Y0025235D01*
X0277413Y0025075D01*
X0277642Y0024910D01*
X0277866Y0024739D01*
X0278087Y0024563D01*
X0278302Y0024381D01*
X0278514Y0024194D01*
X0278721Y0024002D01*
X0278923Y0023805D01*
X0279120Y0023603D01*
X0279312Y0023396D01*
X0279499Y0023184D01*
X0279681Y0022969D01*
X0279857Y0022748D01*
X0280028Y0022524D01*
X0280193Y0022295D01*
X0280353Y0022062D01*
X0280507Y0021825D01*
X0280655Y0021585D01*
X0280797Y0021341D01*
X0280933Y0021094D01*
X0281063Y0020844D01*
X0281187Y0020590D01*
X0281304Y0020333D01*
X0281416Y0020074D01*
X0281520Y0019812D01*
X0281619Y0019547D01*
X0281711Y0019280D01*
X0281796Y0019011D01*
X0281874Y0018740D01*
X0281946Y0018467D01*
X0282012Y0018193D01*
X0282070Y0017917D01*
X0282122Y0017639D01*
X0282167Y0017360D01*
X0282205Y0017081D01*
X0282236Y0016800D01*
X0282260Y0016519D01*
X0282277Y0016237D01*
X0282288Y0015955D01*
X0282291Y0015673D01*
X0282288Y0015391D01*
X0282277Y0015109D01*
X0282260Y0014827D01*
X0282236Y0014546D01*
X0282205Y0014265D01*
X0282167Y0013986D01*
X0282122Y0013707D01*
X0282070Y0013429D01*
X0282012Y0013153D01*
X0281946Y0012879D01*
X0281874Y0012606D01*
X0281796Y0012335D01*
X0281711Y0012066D01*
X0281619Y0011799D01*
X0281520Y0011534D01*
X0281416Y0011272D01*
X0281304Y0011013D01*
X0281187Y0010756D01*
X0281063Y0010502D01*
X0280933Y0010252D01*
X0280797Y0010005D01*
X0280655Y0009761D01*
X0280507Y0009521D01*
X0280353Y0009284D01*
X0280193Y0009051D01*
X0280028Y0008822D01*
X0279857Y0008598D01*
X0279681Y0008377D01*
X0279499Y0008162D01*
X0279312Y0007950D01*
X0279120Y0007743D01*
X0278923Y0007541D01*
X0278721Y0007344D01*
X0278514Y0007152D01*
X0278302Y0006965D01*
X0278087Y0006783D01*
X0277866Y0006607D01*
X0277642Y0006436D01*
X0277413Y0006271D01*
X0277180Y0006111D01*
X0276943Y0005957D01*
X0276703Y0005809D01*
X0276459Y0005667D01*
X0276212Y0005531D01*
X0275962Y0005401D01*
X0275708Y0005277D01*
X0275451Y0005160D01*
X0275192Y0005048D01*
X0274930Y0004944D01*
X0274665Y0004845D01*
X0274398Y0004753D01*
X0274129Y0004668D01*
X0273858Y0004590D01*
X0273585Y0004518D01*
X0273311Y0004452D01*
X0273035Y0004394D01*
X0272757Y0004342D01*
X0272478Y0004297D01*
X0272199Y0004259D01*
X0271918Y0004228D01*
X0271637Y0004204D01*
X0271355Y0004187D01*
X0271073Y0004176D01*
X0270791Y0004173D01*
X0270509Y0004176D01*
X0270227Y0004187D01*
X0269945Y0004204D01*
X0269664Y0004228D01*
X0269383Y0004259D01*
X0269104Y0004297D01*
X0268825Y0004342D01*
X0268547Y0004394D01*
X0268271Y0004452D01*
X0267997Y0004518D01*
X0267724Y0004590D01*
X0267453Y0004668D01*
X0267184Y0004753D01*
X0266917Y0004845D01*
X0266652Y0004944D01*
X0266390Y0005048D01*
X0266131Y0005160D01*
X0265874Y0005277D01*
X0265620Y0005401D01*
X0265370Y0005531D01*
X0265123Y0005667D01*
X0264879Y0005809D01*
X0264639Y0005957D01*
X0264402Y0006111D01*
X0264169Y0006271D01*
X0263940Y0006436D01*
X0263716Y0006607D01*
X0263495Y0006783D01*
X0263280Y0006965D01*
X0263068Y0007152D01*
X0262861Y0007344D01*
X0262659Y0007541D01*
X0262462Y0007743D01*
X0262270Y0007950D01*
X0262083Y0008162D01*
X0261901Y0008377D01*
X0261725Y0008598D01*
X0261554Y0008822D01*
X0261389Y0009051D01*
X0261229Y0009284D01*
X0261075Y0009521D01*
X0260927Y0009761D01*
X0260785Y0010005D01*
X0260649Y0010252D01*
X0260519Y0010502D01*
X0260395Y0010756D01*
X0260278Y0011013D01*
X0260166Y0011272D01*
X0260062Y0011534D01*
X0259963Y0011799D01*
X0259871Y0012066D01*
X0259786Y0012335D01*
X0259708Y0012606D01*
X0259636Y0012879D01*
X0259570Y0013153D01*
X0259512Y0013429D01*
X0259460Y0013707D01*
X0259415Y0013986D01*
X0259377Y0014265D01*
X0259346Y0014546D01*
X0259322Y0014827D01*
X0259305Y0015109D01*
X0259294Y0015391D01*
X0259291Y0015673D01*
D12*
X0265197Y0042334D02*
X0268199Y0042334D01*
X0268800Y0042934D01*
X0268800Y0044135D01*
X0268199Y0044736D01*
X0265197Y0044736D01*
X0266998Y0046017D02*
X0265197Y0047818D01*
X0268800Y0047818D01*
X0266998Y0048419D02*
X0266998Y0046017D01*
X0197884Y0012203D02*
X0197884Y0008600D01*
X0196683Y0008600D02*
X0199085Y0008600D01*
X0196683Y0011002D02*
X0197884Y0012203D01*
X0195402Y0012203D02*
X0195402Y0009201D01*
X0194802Y0008600D01*
X0193601Y0008600D01*
X0193000Y0009201D01*
X0193000Y0012203D01*
X0090585Y0011603D02*
X0089985Y0012203D01*
X0088784Y0012203D01*
X0088183Y0011603D01*
X0086902Y0012203D02*
X0086902Y0009201D01*
X0086302Y0008600D01*
X0085101Y0008600D01*
X0084500Y0009201D01*
X0084500Y0012203D01*
X0088183Y0008600D02*
X0090585Y0011002D01*
X0090585Y0011603D01*
X0090585Y0008600D02*
X0088183Y0008600D01*
X0022749Y0139700D02*
X0019747Y0139700D01*
X0022749Y0139700D02*
X0023350Y0140301D01*
X0023350Y0141502D01*
X0022749Y0142102D01*
X0019747Y0142102D01*
X0020347Y0143383D02*
X0019747Y0143984D01*
X0019747Y0145185D01*
X0020347Y0145785D01*
X0020948Y0145785D01*
X0021548Y0145185D01*
X0022149Y0145785D01*
X0022749Y0145785D01*
X0023350Y0145185D01*
X0023350Y0143984D01*
X0022749Y0143383D01*
X0021548Y0144584D02*
X0021548Y0145185D01*
X0082096Y0186002D02*
X0085165Y0186002D01*
X0111096Y0186002D02*
X0114165Y0186002D01*
X0112631Y0187537D02*
X0112631Y0184467D01*
D13*
X0097401Y0157653D02*
X0097401Y0153950D01*
X0096167Y0153950D02*
X0098636Y0153950D01*
X0096167Y0156419D02*
X0097401Y0157653D01*
X0094952Y0157653D02*
X0092484Y0157653D01*
X0092484Y0153950D01*
X0092484Y0155802D02*
X0093718Y0155802D01*
X0139213Y0136586D02*
X0139213Y0132883D01*
X0139213Y0134117D02*
X0141682Y0136586D01*
X0142896Y0135351D02*
X0144130Y0136586D01*
X0144130Y0132883D01*
X0142896Y0132883D02*
X0145365Y0132883D01*
X0141682Y0132883D02*
X0139830Y0134734D01*
X0018850Y0134680D02*
X0015714Y0137816D01*
X0015714Y0136248D02*
X0018850Y0136248D01*
X0018850Y0137816D02*
X0015714Y0134680D01*
X0017282Y0134680D02*
X0017282Y0137816D01*
D14*
X0015673Y0005173D02*
X0015673Y0004173D01*
X0015673Y0026173D02*
X0015673Y0027173D01*
X0022965Y0053970D02*
X0022598Y0054337D01*
X0022598Y0055071D01*
X0022965Y0055438D01*
X0023332Y0056180D02*
X0022598Y0056914D01*
X0024800Y0056914D01*
X0024800Y0056180D02*
X0024800Y0057648D01*
X0023699Y0058390D02*
X0022598Y0059491D01*
X0024800Y0059491D01*
X0023699Y0059858D02*
X0023699Y0058390D01*
X0024433Y0055438D02*
X0024800Y0055071D01*
X0024800Y0054337D01*
X0024433Y0053970D01*
X0022965Y0053970D01*
X0030598Y0054337D02*
X0030965Y0053970D01*
X0032433Y0053970D01*
X0032800Y0054337D01*
X0032800Y0055071D01*
X0032433Y0055438D01*
X0032800Y0056180D02*
X0032800Y0057648D01*
X0032800Y0056914D02*
X0030598Y0056914D01*
X0031332Y0056180D01*
X0030965Y0055438D02*
X0030598Y0055071D01*
X0030598Y0054337D01*
X0030965Y0058390D02*
X0030598Y0058757D01*
X0030598Y0059491D01*
X0030965Y0059858D01*
X0031332Y0059858D01*
X0031699Y0059491D01*
X0032066Y0059858D01*
X0032433Y0059858D01*
X0032800Y0059491D01*
X0032800Y0058757D01*
X0032433Y0058390D01*
X0031699Y0059124D02*
X0031699Y0059491D01*
X0038598Y0059491D02*
X0038598Y0058757D01*
X0038965Y0058390D01*
X0038598Y0059491D02*
X0038965Y0059858D01*
X0039332Y0059858D01*
X0040800Y0058390D01*
X0040800Y0059858D01*
X0040800Y0057648D02*
X0040800Y0056180D01*
X0040800Y0056914D02*
X0038598Y0056914D01*
X0039332Y0056180D01*
X0038965Y0055438D02*
X0038598Y0055071D01*
X0038598Y0054337D01*
X0038965Y0053970D01*
X0040433Y0053970D01*
X0040800Y0054337D01*
X0040800Y0055071D01*
X0040433Y0055438D01*
X0132100Y0023302D02*
X0132100Y0021100D01*
X0132100Y0021834D02*
X0133201Y0021834D01*
X0133568Y0022201D01*
X0133568Y0022935D01*
X0133201Y0023302D01*
X0132100Y0023302D01*
X0132834Y0021834D02*
X0133568Y0021100D01*
X0134310Y0021100D02*
X0135778Y0021100D01*
X0135044Y0021100D02*
X0135044Y0023302D01*
X0134310Y0022568D01*
X0136520Y0022201D02*
X0136520Y0021467D01*
X0136887Y0021100D01*
X0137621Y0021100D01*
X0137988Y0021467D01*
X0137988Y0021834D01*
X0137621Y0022201D01*
X0136520Y0022201D01*
X0137254Y0022935D01*
X0137988Y0023302D01*
X0137988Y0009302D02*
X0136520Y0009302D01*
X0137988Y0009302D02*
X0137988Y0008935D01*
X0136520Y0007467D01*
X0136520Y0007100D01*
X0135778Y0007100D02*
X0134310Y0007100D01*
X0135044Y0007100D02*
X0135044Y0009302D01*
X0134310Y0008568D01*
X0133568Y0008935D02*
X0133568Y0008201D01*
X0133201Y0007834D01*
X0132100Y0007834D01*
X0132834Y0007834D02*
X0133568Y0007100D01*
X0132100Y0007100D02*
X0132100Y0009302D01*
X0133201Y0009302D01*
X0133568Y0008935D01*
X0236500Y0009352D02*
X0236500Y0007150D01*
X0236500Y0007884D02*
X0237601Y0007884D01*
X0237968Y0008251D01*
X0237968Y0008985D01*
X0237601Y0009352D01*
X0236500Y0009352D01*
X0237234Y0007884D02*
X0237968Y0007150D01*
X0238710Y0007150D02*
X0240178Y0007150D01*
X0239444Y0007150D02*
X0239444Y0009352D01*
X0238710Y0008618D01*
X0240920Y0008985D02*
X0241287Y0009352D01*
X0242021Y0009352D01*
X0242388Y0008985D01*
X0242388Y0008618D01*
X0242021Y0008251D01*
X0242388Y0007884D01*
X0242388Y0007517D01*
X0242021Y0007150D01*
X0241287Y0007150D01*
X0240920Y0007517D01*
X0241654Y0008251D02*
X0242021Y0008251D01*
X0242021Y0021050D02*
X0242021Y0023252D01*
X0240920Y0022151D01*
X0242388Y0022151D01*
X0240178Y0021050D02*
X0238710Y0021050D01*
X0239444Y0021050D02*
X0239444Y0023252D01*
X0238710Y0022518D01*
X0237968Y0022885D02*
X0237968Y0022151D01*
X0237601Y0021784D01*
X0236500Y0021784D01*
X0237234Y0021784D02*
X0237968Y0021050D01*
X0236500Y0021050D02*
X0236500Y0023252D01*
X0237601Y0023252D01*
X0237968Y0022885D01*
X0270791Y0026173D02*
X0270791Y0027173D01*
X0270791Y0005173D02*
X0270791Y0004173D01*
X0085008Y0123200D02*
X0083540Y0123200D01*
X0084274Y0123200D02*
X0084274Y0125402D01*
X0083540Y0124668D01*
X0082798Y0123200D02*
X0081330Y0123200D01*
X0082064Y0123200D02*
X0082064Y0125402D01*
X0081330Y0124668D01*
X0080588Y0125035D02*
X0080221Y0125402D01*
X0079487Y0125402D01*
X0079120Y0125035D01*
X0079120Y0123567D01*
X0079487Y0123200D01*
X0080221Y0123200D01*
X0080588Y0123567D01*
X0108698Y0139600D02*
X0108698Y0140334D01*
X0108698Y0139967D02*
X0110900Y0139967D01*
X0110900Y0139600D02*
X0110900Y0140334D01*
X0110533Y0141073D02*
X0110900Y0141440D01*
X0110900Y0142174D01*
X0110533Y0142541D01*
X0110900Y0143283D02*
X0110900Y0144751D01*
X0110900Y0144017D02*
X0108698Y0144017D01*
X0109432Y0143283D01*
X0109065Y0142541D02*
X0108698Y0142174D01*
X0108698Y0141440D01*
X0109065Y0141073D01*
X0110533Y0141073D01*
X0086058Y0143567D02*
X0085691Y0143200D01*
X0084957Y0143200D01*
X0084590Y0143567D01*
X0084590Y0144301D02*
X0085324Y0144668D01*
X0085691Y0144668D01*
X0086058Y0144301D01*
X0086058Y0143567D01*
X0084590Y0144301D02*
X0084590Y0145402D01*
X0086058Y0145402D01*
X0083114Y0145402D02*
X0083114Y0143200D01*
X0082380Y0143200D02*
X0083848Y0143200D01*
X0082380Y0144668D02*
X0083114Y0145402D01*
X0081638Y0145035D02*
X0081271Y0145402D01*
X0080537Y0145402D01*
X0080170Y0145035D01*
X0080170Y0143567D01*
X0080537Y0143200D01*
X0081271Y0143200D01*
X0081638Y0143567D01*
X0027358Y0149067D02*
X0026991Y0148700D01*
X0026257Y0148700D01*
X0025890Y0149067D01*
X0025890Y0149801D02*
X0026624Y0150168D01*
X0026991Y0150168D01*
X0027358Y0149801D01*
X0027358Y0149067D01*
X0025890Y0149801D02*
X0025890Y0150902D01*
X0027358Y0150902D01*
X0024414Y0150902D02*
X0024414Y0148700D01*
X0023680Y0148700D02*
X0025148Y0148700D01*
X0023680Y0150168D02*
X0024414Y0150902D01*
X0022938Y0150535D02*
X0022938Y0149801D01*
X0022571Y0149434D01*
X0021470Y0149434D01*
X0021470Y0148700D02*
X0021470Y0150902D01*
X0022571Y0150902D01*
X0022938Y0150535D01*
X0022204Y0149434D02*
X0022938Y0148700D01*
X0016358Y0148700D02*
X0014890Y0148700D01*
X0016358Y0150168D01*
X0016358Y0150535D01*
X0015991Y0150902D01*
X0015257Y0150902D01*
X0014890Y0150535D01*
X0014148Y0150535D02*
X0014148Y0149067D01*
X0013781Y0148700D01*
X0012680Y0148700D01*
X0012680Y0150902D01*
X0013781Y0150902D01*
X0014148Y0150535D01*
X0011938Y0150902D02*
X0010470Y0150902D01*
X0010470Y0148700D01*
X0011938Y0148700D01*
X0011204Y0149801D02*
X0010470Y0149801D01*
X0009728Y0148700D02*
X0008260Y0148700D01*
X0008260Y0150902D01*
X0008260Y0162700D02*
X0009728Y0162700D01*
X0010470Y0162700D02*
X0011938Y0162700D01*
X0012680Y0162700D02*
X0013781Y0162700D01*
X0014148Y0163067D01*
X0014148Y0164535D01*
X0013781Y0164902D01*
X0012680Y0164902D01*
X0012680Y0162700D01*
X0011204Y0163801D02*
X0010470Y0163801D01*
X0010470Y0164902D02*
X0010470Y0162700D01*
X0010470Y0164902D02*
X0011938Y0164902D01*
X0014890Y0164168D02*
X0015624Y0164902D01*
X0015624Y0162700D01*
X0014890Y0162700D02*
X0016358Y0162700D01*
X0021680Y0162700D02*
X0021680Y0164902D01*
X0022781Y0164902D01*
X0023148Y0164535D01*
X0023148Y0163801D01*
X0022781Y0163434D01*
X0021680Y0163434D01*
X0022414Y0163434D02*
X0023148Y0162700D01*
X0023890Y0163067D02*
X0024257Y0162700D01*
X0024991Y0162700D01*
X0025358Y0163067D01*
X0025358Y0163434D01*
X0024991Y0163801D01*
X0023890Y0163801D01*
X0023890Y0163067D01*
X0023890Y0163801D02*
X0024624Y0164535D01*
X0025358Y0164902D01*
X0015673Y0172677D02*
X0015673Y0173677D01*
X0008260Y0164902D02*
X0008260Y0162700D01*
X0015673Y0194677D02*
X0015673Y0195677D01*
X0051698Y0186044D02*
X0052432Y0185310D01*
X0052065Y0184568D02*
X0051698Y0184201D01*
X0051698Y0183467D01*
X0052065Y0183100D01*
X0053533Y0183100D01*
X0053900Y0183467D01*
X0053900Y0184201D01*
X0053533Y0184568D01*
X0053900Y0185310D02*
X0053900Y0186778D01*
X0053900Y0186044D02*
X0051698Y0186044D01*
X0067698Y0185044D02*
X0069900Y0185044D01*
X0069900Y0184310D02*
X0069900Y0185778D01*
X0068432Y0184310D02*
X0067698Y0185044D01*
X0068065Y0183568D02*
X0068799Y0183568D01*
X0069166Y0183201D01*
X0069166Y0182100D01*
X0069166Y0182834D02*
X0069900Y0183568D01*
X0069900Y0182100D02*
X0067698Y0182100D01*
X0067698Y0183201D01*
X0068065Y0183568D01*
X0080576Y0188187D02*
X0080943Y0187820D01*
X0081677Y0187820D01*
X0082044Y0188187D01*
X0082786Y0187820D02*
X0082786Y0190022D01*
X0084254Y0187820D01*
X0084254Y0190022D01*
X0084996Y0189288D02*
X0085730Y0190022D01*
X0085730Y0187820D01*
X0084996Y0187820D02*
X0086464Y0187820D01*
X0082044Y0189655D02*
X0081677Y0190022D01*
X0080943Y0190022D01*
X0080576Y0189655D01*
X0080576Y0188187D01*
X0270791Y0194677D02*
X0270791Y0195677D01*
X0270791Y0173677D02*
X0270791Y0172677D01*
D15*
X0173256Y0198051D02*
X0117744Y0198051D01*
X0111311Y0196524D02*
X0111311Y0178807D01*
X0101469Y0178807D01*
X0101469Y0176839D01*
X0097531Y0176839D01*
X0097531Y0178807D01*
X0087689Y0178807D01*
X0087689Y0196524D01*
X0111311Y0196524D01*
X0117744Y0141358D02*
X0173256Y0141358D01*
D16*
X0009909Y0152024D03*
X0009909Y0154976D03*
X0009909Y0158024D03*
X0009909Y0160976D03*
D17*
X0009909Y0159500D03*
X0009909Y0153500D03*
D18*
X0266445Y0039626D03*
X0271248Y0036063D03*
X0274693Y0039606D03*
X0270559Y0042539D03*
X0270559Y0032539D03*
D19*
X0270559Y0032559D03*
X0274457Y0039724D03*
X0270559Y0042520D03*
D20*
X0270559Y0042500D03*
X0268787Y0035039D03*
X0270559Y0032579D03*
D21*
X0270559Y0032598D03*
X0270559Y0042480D03*
D22*
X0270559Y0042461D03*
X0268925Y0041811D03*
X0268886Y0041791D03*
X0268827Y0041752D03*
X0268630Y0033465D03*
X0268650Y0033445D03*
X0268669Y0033425D03*
X0269201Y0033110D03*
X0270559Y0032618D03*
X0272094Y0033209D03*
X0272193Y0033268D03*
D23*
X0271819Y0033091D03*
X0272606Y0033602D03*
X0272626Y0033622D03*
X0270559Y0032638D03*
X0268354Y0033740D03*
X0268335Y0033760D03*
X0269240Y0041949D03*
X0270559Y0042441D03*
D24*
X0270559Y0042421D03*
X0272882Y0041142D03*
X0268157Y0041063D03*
X0270520Y0035787D03*
X0268157Y0034016D03*
X0270559Y0032657D03*
X0272843Y0033898D03*
X0272862Y0033917D03*
D25*
X0272980Y0034114D03*
X0270559Y0032677D03*
X0268059Y0034193D03*
X0268059Y0034213D03*
X0268020Y0040827D03*
X0270559Y0042402D03*
X0273020Y0040925D03*
X0273039Y0040906D03*
D26*
X0273157Y0040669D03*
X0270559Y0042382D03*
X0267921Y0040610D03*
X0267980Y0034390D03*
X0270559Y0032697D03*
X0273059Y0034291D03*
D27*
X0273118Y0034429D03*
X0273118Y0034449D03*
X0270559Y0032717D03*
X0267941Y0034528D03*
X0267862Y0040453D03*
X0270559Y0042362D03*
X0273217Y0040512D03*
D28*
X0273295Y0040295D03*
X0273295Y0040276D03*
X0270559Y0042343D03*
X0267783Y0040236D03*
X0267783Y0040217D03*
X0267902Y0034685D03*
X0270559Y0032736D03*
D29*
X0270559Y0032756D03*
X0273197Y0034724D03*
X0267882Y0034803D03*
X0267744Y0040059D03*
X0270559Y0042323D03*
D30*
X0270559Y0042303D03*
X0273374Y0039961D03*
X0273374Y0039941D03*
X0267724Y0039921D03*
X0267724Y0039902D03*
X0267882Y0034902D03*
X0270559Y0032776D03*
D31*
X0270559Y0032795D03*
X0267882Y0035000D03*
X0273413Y0039783D03*
X0270559Y0042283D03*
D32*
X0270559Y0042264D03*
X0273197Y0035020D03*
X0270559Y0032815D03*
D33*
X0270559Y0032835D03*
X0273197Y0035079D03*
X0270559Y0042244D03*
D34*
X0270559Y0042224D03*
X0270559Y0032854D03*
D35*
X0270559Y0032874D03*
X0270559Y0042205D03*
D36*
X0270559Y0042185D03*
X0270559Y0032894D03*
D37*
X0270559Y0032913D03*
X0270559Y0042165D03*
D38*
X0270559Y0042146D03*
X0270559Y0032933D03*
D39*
X0270559Y0032953D03*
X0270559Y0042126D03*
D40*
X0270559Y0042106D03*
X0270559Y0032972D03*
D41*
X0270559Y0032992D03*
X0270559Y0042087D03*
D42*
X0270559Y0042067D03*
X0270559Y0033012D03*
D43*
X0270559Y0033031D03*
X0270559Y0042047D03*
D44*
X0270559Y0042028D03*
X0270559Y0033051D03*
D45*
X0270559Y0033071D03*
X0270559Y0042008D03*
D46*
X0269122Y0041909D03*
X0268591Y0041555D03*
X0272035Y0041890D03*
X0272350Y0041693D03*
X0272370Y0041673D03*
X0272409Y0041654D03*
X0272429Y0041634D03*
X0272449Y0041614D03*
X0272449Y0033465D03*
X0272429Y0033445D03*
X0272409Y0033425D03*
X0271878Y0033110D03*
X0269260Y0033091D03*
X0268472Y0033602D03*
X0268453Y0033622D03*
D47*
X0268699Y0033406D03*
X0268719Y0033386D03*
X0269152Y0033130D03*
D48*
X0268502Y0033583D03*
X0271927Y0033130D03*
X0272360Y0033386D03*
X0272380Y0033406D03*
X0272321Y0041713D03*
X0272301Y0041732D03*
X0272242Y0041772D03*
X0272144Y0041831D03*
X0272065Y0041870D03*
X0269073Y0041890D03*
X0268620Y0041594D03*
X0268600Y0041575D03*
D49*
X0268748Y0033366D03*
X0268768Y0033346D03*
X0269102Y0033150D03*
D50*
X0268531Y0033543D03*
X0268512Y0033563D03*
X0271976Y0033150D03*
X0272252Y0033307D03*
X0272311Y0033346D03*
X0272331Y0033366D03*
X0272272Y0041752D03*
X0272213Y0041791D03*
X0272173Y0041811D03*
X0272114Y0041850D03*
X0268748Y0041693D03*
X0268689Y0041654D03*
X0268669Y0041634D03*
X0268650Y0041614D03*
D51*
X0268797Y0033327D03*
X0268817Y0033307D03*
X0268856Y0033287D03*
X0268915Y0033248D03*
X0268955Y0033228D03*
X0269014Y0033189D03*
X0269053Y0033169D03*
D52*
X0268600Y0033484D03*
X0268581Y0033504D03*
X0268561Y0033524D03*
X0272026Y0033169D03*
X0272065Y0033189D03*
X0272124Y0033228D03*
X0272163Y0033248D03*
X0272222Y0033287D03*
X0272281Y0033327D03*
X0268719Y0041673D03*
X0268778Y0041713D03*
X0268797Y0041732D03*
X0268856Y0041772D03*
X0268955Y0041831D03*
X0268994Y0041850D03*
X0269033Y0041870D03*
D53*
X0268886Y0033268D03*
X0268984Y0033209D03*
D54*
X0268443Y0033642D03*
X0268423Y0033661D03*
X0272478Y0033484D03*
X0272498Y0033504D03*
X0272518Y0033524D03*
X0271986Y0041909D03*
X0269171Y0041929D03*
X0268561Y0041535D03*
X0268541Y0041516D03*
X0268522Y0041496D03*
D55*
X0268492Y0041476D03*
X0271937Y0041929D03*
X0272469Y0041594D03*
X0272488Y0041575D03*
X0272508Y0041555D03*
X0272547Y0033543D03*
D56*
X0272557Y0033563D03*
X0272577Y0033583D03*
X0268404Y0033681D03*
X0268384Y0033701D03*
X0268364Y0033720D03*
X0268443Y0041417D03*
X0268463Y0041437D03*
X0268482Y0041457D03*
X0272537Y0041535D03*
X0272557Y0041516D03*
X0272577Y0041496D03*
D57*
X0272596Y0041476D03*
X0272616Y0041457D03*
X0272636Y0041437D03*
X0272656Y0041417D03*
X0271868Y0041949D03*
X0268423Y0041398D03*
X0268404Y0041378D03*
X0268384Y0041358D03*
X0268325Y0033780D03*
X0272636Y0033642D03*
X0272656Y0033661D03*
D58*
X0272675Y0033681D03*
X0272695Y0033701D03*
X0272715Y0033720D03*
X0270589Y0035984D03*
X0270589Y0036004D03*
X0268285Y0033819D03*
X0272695Y0041378D03*
X0272675Y0041398D03*
D59*
X0272705Y0041358D03*
X0272724Y0041339D03*
X0272744Y0041319D03*
X0268315Y0041280D03*
X0268295Y0041260D03*
X0270579Y0035965D03*
X0270579Y0035945D03*
X0272744Y0033760D03*
X0272724Y0033740D03*
X0268276Y0033839D03*
X0268256Y0033858D03*
D60*
X0268246Y0033878D03*
X0270569Y0035925D03*
X0272754Y0033780D03*
X0272754Y0041299D03*
X0268285Y0041240D03*
X0268266Y0041220D03*
D61*
X0268335Y0041299D03*
X0268354Y0041319D03*
X0268374Y0041339D03*
X0268295Y0033799D03*
D62*
X0268236Y0033898D03*
X0268217Y0033917D03*
X0270559Y0035886D03*
X0270559Y0035906D03*
X0272783Y0033799D03*
X0272783Y0041280D03*
X0268256Y0041201D03*
X0268236Y0041181D03*
D63*
X0268226Y0041161D03*
X0272793Y0041260D03*
X0272813Y0041240D03*
X0270549Y0035866D03*
X0268207Y0033937D03*
X0272793Y0033819D03*
D64*
X0272803Y0033839D03*
X0272823Y0033858D03*
X0270539Y0035846D03*
X0268197Y0033957D03*
X0268177Y0033976D03*
X0268197Y0041122D03*
X0268217Y0041142D03*
X0272823Y0041220D03*
X0272843Y0041201D03*
D65*
X0272852Y0041181D03*
X0272872Y0041161D03*
X0268187Y0041102D03*
X0268167Y0041083D03*
X0270530Y0035827D03*
X0270530Y0035807D03*
X0268167Y0033996D03*
X0272833Y0033878D03*
D66*
X0272872Y0033937D03*
X0270490Y0035728D03*
X0270490Y0035748D03*
X0270510Y0035768D03*
X0268148Y0034035D03*
X0268128Y0041024D03*
X0268148Y0041043D03*
X0272892Y0041122D03*
X0272911Y0041102D03*
D67*
X0272921Y0041083D03*
X0268118Y0041004D03*
X0270480Y0035709D03*
X0270283Y0035512D03*
X0268138Y0034055D03*
X0268118Y0034075D03*
X0272882Y0033957D03*
X0272902Y0033976D03*
D68*
X0272911Y0033996D03*
X0270470Y0035689D03*
X0268108Y0034094D03*
X0268089Y0040965D03*
X0268108Y0040984D03*
X0272931Y0041063D03*
X0272951Y0041043D03*
D69*
X0272961Y0041024D03*
X0268079Y0040945D03*
X0270461Y0035669D03*
X0270323Y0035531D03*
X0268098Y0034114D03*
X0272921Y0034016D03*
D70*
X0272931Y0034035D03*
X0270451Y0035650D03*
X0270431Y0035630D03*
X0268089Y0034134D03*
X0268069Y0040925D03*
X0272970Y0041004D03*
X0272990Y0040984D03*
D71*
X0273000Y0040965D03*
X0268059Y0040906D03*
X0268039Y0040886D03*
X0268039Y0040866D03*
X0270421Y0035610D03*
X0270402Y0035591D03*
X0270382Y0035571D03*
X0270362Y0035551D03*
X0268079Y0034154D03*
X0272941Y0034055D03*
X0272961Y0034075D03*
D72*
X0272970Y0034094D03*
X0268069Y0034173D03*
X0268030Y0040846D03*
X0273010Y0040945D03*
D73*
X0273049Y0040886D03*
X0273049Y0040866D03*
X0268010Y0040807D03*
X0268049Y0034232D03*
X0272990Y0034134D03*
D74*
X0273000Y0034154D03*
X0268039Y0034252D03*
X0267980Y0040768D03*
X0268000Y0040787D03*
X0273059Y0040846D03*
X0273079Y0040827D03*
D75*
X0273089Y0040807D03*
X0267970Y0040748D03*
X0267970Y0040728D03*
X0268030Y0034272D03*
X0273010Y0034173D03*
D76*
X0273020Y0034193D03*
X0273020Y0034213D03*
X0268020Y0034291D03*
X0267961Y0040709D03*
X0273098Y0040787D03*
D77*
X0273108Y0040768D03*
X0267951Y0040689D03*
X0268010Y0034311D03*
X0273030Y0034232D03*
D78*
X0273039Y0034252D03*
X0268000Y0034331D03*
X0268000Y0034350D03*
X0267941Y0040669D03*
X0273118Y0040728D03*
X0273118Y0040748D03*
X0273138Y0040709D03*
D79*
X0273148Y0040689D03*
X0267931Y0040650D03*
X0267931Y0040630D03*
X0267990Y0034370D03*
X0273049Y0034272D03*
D80*
X0273069Y0034311D03*
X0267970Y0034409D03*
X0267911Y0040591D03*
X0273167Y0040630D03*
X0273167Y0040650D03*
D81*
X0273177Y0040610D03*
X0267902Y0040571D03*
X0267902Y0040551D03*
X0267961Y0034449D03*
X0267961Y0034429D03*
X0273079Y0034350D03*
X0273079Y0034331D03*
D82*
X0273089Y0034370D03*
X0267951Y0034469D03*
X0267892Y0040531D03*
X0273187Y0040591D03*
D83*
X0273197Y0040571D03*
X0273197Y0040551D03*
X0267882Y0040512D03*
X0267941Y0034488D03*
X0273098Y0034390D03*
D84*
X0273108Y0034409D03*
X0267931Y0034508D03*
X0267872Y0040472D03*
X0267872Y0040492D03*
X0273207Y0040531D03*
D85*
X0273226Y0040492D03*
X0273226Y0040472D03*
X0267852Y0040433D03*
X0267931Y0034547D03*
X0273128Y0034469D03*
D86*
X0273138Y0034488D03*
X0267921Y0034567D03*
X0267843Y0040394D03*
X0267843Y0040413D03*
X0273236Y0040453D03*
D87*
X0273246Y0040433D03*
X0267833Y0040374D03*
X0267911Y0034606D03*
X0267911Y0034587D03*
X0273148Y0034508D03*
D88*
X0273138Y0034528D03*
X0273256Y0040394D03*
X0273256Y0040413D03*
X0267823Y0040354D03*
X0267823Y0040335D03*
D89*
X0267813Y0040315D03*
X0273266Y0040374D03*
X0273148Y0034547D03*
X0267911Y0034626D03*
D90*
X0267902Y0034646D03*
X0273157Y0034567D03*
X0273276Y0040335D03*
X0273276Y0040354D03*
X0267803Y0040295D03*
X0267803Y0040276D03*
D91*
X0267793Y0040256D03*
X0273285Y0040315D03*
X0273167Y0034606D03*
X0273167Y0034587D03*
X0267892Y0034665D03*
D92*
X0267892Y0034705D03*
X0273167Y0034626D03*
X0273305Y0040256D03*
X0267774Y0040197D03*
X0267774Y0040177D03*
D93*
X0273315Y0040217D03*
X0273315Y0040236D03*
X0273177Y0034646D03*
X0267882Y0034724D03*
D94*
X0267892Y0034744D03*
X0273187Y0034665D03*
X0273325Y0040177D03*
X0273325Y0040197D03*
X0267774Y0040157D03*
D95*
X0267764Y0040138D03*
X0267764Y0040118D03*
X0273335Y0040157D03*
X0273177Y0034685D03*
X0267882Y0034764D03*
D96*
X0267872Y0034783D03*
X0273187Y0034705D03*
X0273344Y0040118D03*
X0273344Y0040138D03*
X0267754Y0040098D03*
X0267754Y0040079D03*
D97*
X0267734Y0040039D03*
X0273344Y0040079D03*
X0273344Y0040098D03*
X0273187Y0034744D03*
X0267872Y0034823D03*
D98*
X0273197Y0034764D03*
X0273354Y0040059D03*
X0267744Y0040020D03*
D99*
X0267734Y0040000D03*
X0267734Y0039980D03*
X0273364Y0040020D03*
X0273364Y0040039D03*
X0273207Y0034783D03*
X0267872Y0034843D03*
X0267872Y0034862D03*
D100*
X0267724Y0039941D03*
X0267724Y0039961D03*
X0273374Y0039980D03*
X0273374Y0040000D03*
X0273197Y0034803D03*
D101*
X0273207Y0034823D03*
X0267872Y0034882D03*
D102*
X0267872Y0034921D03*
X0267715Y0039882D03*
X0273384Y0039902D03*
X0273384Y0039921D03*
X0273207Y0034862D03*
X0273207Y0034843D03*
D103*
X0273207Y0034882D03*
X0267872Y0034941D03*
X0267872Y0034961D03*
X0267715Y0039843D03*
D104*
X0267705Y0039823D03*
X0273394Y0039843D03*
X0273394Y0039862D03*
X0273197Y0034902D03*
D105*
X0273207Y0034921D03*
X0273404Y0039803D03*
X0273404Y0039823D03*
X0267872Y0034980D03*
D106*
X0273207Y0034961D03*
X0273207Y0034941D03*
X0273404Y0039764D03*
D107*
X0273207Y0034980D03*
D108*
X0273197Y0035000D03*
D109*
X0273413Y0039744D03*
X0267882Y0035020D03*
D110*
X0266858Y0035039D03*
D111*
X0267774Y0035039D03*
X0267774Y0035059D03*
X0267774Y0035079D03*
X0267774Y0035098D03*
X0267774Y0035118D03*
X0267774Y0035138D03*
X0267774Y0035157D03*
X0267774Y0035177D03*
X0267774Y0035197D03*
X0267774Y0035217D03*
X0267774Y0035236D03*
X0267774Y0035256D03*
X0267774Y0035276D03*
X0267774Y0035295D03*
X0267774Y0035315D03*
X0267774Y0035335D03*
X0267774Y0035354D03*
X0267774Y0035374D03*
X0267774Y0035394D03*
X0267774Y0035413D03*
X0265943Y0035945D03*
X0265923Y0035984D03*
X0265923Y0036004D03*
X0265904Y0036024D03*
X0265766Y0038504D03*
X0265766Y0038524D03*
X0265785Y0038543D03*
X0265785Y0038563D03*
X0265785Y0038583D03*
X0265805Y0038622D03*
X0267774Y0039429D03*
X0267774Y0039449D03*
X0267774Y0039469D03*
X0267774Y0039488D03*
X0267774Y0039508D03*
X0267774Y0039528D03*
X0267774Y0039547D03*
X0267774Y0039567D03*
X0267774Y0039587D03*
X0267774Y0039606D03*
X0267774Y0039626D03*
X0267774Y0039646D03*
X0267774Y0039665D03*
X0267774Y0039685D03*
X0267774Y0039705D03*
X0267774Y0039724D03*
X0267774Y0039744D03*
X0267774Y0039764D03*
X0267774Y0039783D03*
X0267774Y0039803D03*
X0269388Y0039173D03*
X0269407Y0039154D03*
X0269959Y0037382D03*
X0269959Y0037362D03*
X0269959Y0037343D03*
X0269959Y0037323D03*
X0271553Y0038602D03*
X0271553Y0038622D03*
X0271553Y0038642D03*
X0271553Y0038661D03*
X0275293Y0038720D03*
X0275293Y0038740D03*
X0275313Y0038701D03*
X0275313Y0038681D03*
X0275313Y0038661D03*
X0275234Y0036102D03*
X0275234Y0036083D03*
X0275215Y0036063D03*
D112*
X0273207Y0035039D03*
D113*
X0266799Y0035059D03*
X0266661Y0039764D03*
D114*
X0266780Y0039803D03*
X0268866Y0035059D03*
D115*
X0273197Y0035059D03*
D116*
X0269575Y0035453D03*
X0269122Y0035177D03*
X0266740Y0035079D03*
D117*
X0268915Y0035079D03*
D118*
X0269220Y0035236D03*
X0269240Y0035256D03*
X0269280Y0035276D03*
X0269496Y0035413D03*
X0266701Y0035098D03*
X0266543Y0039705D03*
D119*
X0268965Y0035098D03*
D120*
X0273187Y0035098D03*
D121*
X0269339Y0035315D03*
X0266661Y0035118D03*
X0274594Y0039665D03*
D122*
X0269683Y0035492D03*
X0269014Y0035118D03*
D123*
X0273187Y0035118D03*
D124*
X0274555Y0035217D03*
X0271228Y0036043D03*
X0269969Y0036024D03*
X0266622Y0035138D03*
X0266465Y0039646D03*
X0268886Y0039724D03*
D125*
X0269053Y0035138D03*
D126*
X0273177Y0035138D03*
D127*
X0274663Y0039626D03*
X0267774Y0038976D03*
X0267774Y0038957D03*
X0267774Y0038937D03*
X0267774Y0038917D03*
X0267774Y0038898D03*
X0267774Y0038878D03*
X0267774Y0038858D03*
X0267774Y0038839D03*
X0267774Y0038819D03*
X0267774Y0038799D03*
X0267774Y0038780D03*
X0267774Y0038760D03*
X0267774Y0038740D03*
X0267774Y0038720D03*
X0267774Y0038701D03*
X0267774Y0038681D03*
X0267774Y0038661D03*
X0267774Y0038642D03*
X0267774Y0038622D03*
X0267774Y0038602D03*
X0267774Y0038583D03*
X0267774Y0038563D03*
X0267774Y0038543D03*
X0267774Y0038524D03*
X0267774Y0038504D03*
X0267774Y0038484D03*
X0267774Y0038465D03*
X0267774Y0038445D03*
X0267774Y0038425D03*
X0267774Y0038406D03*
X0267774Y0038386D03*
X0267774Y0038366D03*
X0267774Y0038346D03*
X0267774Y0038327D03*
X0267774Y0038307D03*
X0267774Y0038287D03*
X0267774Y0038268D03*
X0267774Y0038248D03*
X0267774Y0038228D03*
X0267774Y0038209D03*
X0267774Y0038189D03*
X0267774Y0038169D03*
X0267774Y0038150D03*
X0267774Y0038130D03*
X0267774Y0038110D03*
X0267774Y0038091D03*
X0267774Y0038071D03*
X0267774Y0038051D03*
X0267774Y0038031D03*
X0267774Y0038012D03*
X0267774Y0037992D03*
X0267774Y0037972D03*
X0267774Y0037953D03*
X0267774Y0037933D03*
X0267774Y0037913D03*
X0267774Y0037894D03*
X0267774Y0037874D03*
X0267774Y0037854D03*
X0267774Y0037835D03*
X0267774Y0037815D03*
X0267774Y0037795D03*
X0267774Y0037776D03*
X0267774Y0037756D03*
X0267774Y0037736D03*
X0267774Y0037717D03*
X0267774Y0037697D03*
X0267774Y0037677D03*
X0267774Y0037657D03*
X0267774Y0037638D03*
X0267774Y0037618D03*
X0267774Y0037598D03*
X0267774Y0037579D03*
X0267774Y0037559D03*
X0267774Y0037539D03*
X0267774Y0037520D03*
X0267774Y0037500D03*
X0267774Y0037480D03*
X0267774Y0037461D03*
X0267774Y0037441D03*
X0267774Y0037421D03*
X0267774Y0037402D03*
X0267774Y0037382D03*
X0267774Y0037362D03*
X0267774Y0037343D03*
X0267774Y0037323D03*
X0267774Y0037303D03*
X0267774Y0037283D03*
X0267774Y0037264D03*
X0267774Y0037244D03*
X0267774Y0037224D03*
X0267774Y0037205D03*
X0267774Y0037185D03*
X0267774Y0037165D03*
X0267774Y0037146D03*
X0267774Y0037126D03*
X0267774Y0037106D03*
X0267774Y0037087D03*
X0267774Y0037067D03*
X0267774Y0037047D03*
X0267774Y0037028D03*
X0267774Y0037008D03*
X0267774Y0036988D03*
X0267774Y0036969D03*
X0267774Y0036949D03*
X0267774Y0036929D03*
X0267774Y0036909D03*
X0267774Y0036890D03*
X0267774Y0036870D03*
X0267774Y0036850D03*
X0267774Y0036831D03*
X0267774Y0036811D03*
X0267774Y0036791D03*
X0267774Y0036772D03*
X0267774Y0036752D03*
X0267774Y0036732D03*
X0267774Y0036713D03*
X0267774Y0036693D03*
X0267774Y0036673D03*
X0267774Y0036654D03*
X0267774Y0036634D03*
X0267774Y0036614D03*
X0267774Y0036594D03*
X0267774Y0036575D03*
X0267774Y0036555D03*
X0267774Y0036535D03*
X0267774Y0036516D03*
X0267774Y0036496D03*
X0267774Y0036476D03*
X0267774Y0036457D03*
X0267774Y0036437D03*
X0267774Y0036417D03*
X0267774Y0036398D03*
X0267774Y0036378D03*
X0267774Y0036358D03*
X0267774Y0036339D03*
X0267774Y0036319D03*
X0267774Y0036299D03*
X0267774Y0036280D03*
X0267774Y0036260D03*
X0267774Y0036240D03*
X0267774Y0036220D03*
X0267774Y0036201D03*
X0267774Y0036181D03*
X0267774Y0036161D03*
X0267774Y0036142D03*
X0267774Y0036122D03*
X0267774Y0036102D03*
X0267774Y0036083D03*
X0267774Y0036063D03*
X0267774Y0036043D03*
X0267774Y0036024D03*
X0267774Y0036004D03*
X0267774Y0035984D03*
X0266593Y0035157D03*
D128*
X0269083Y0035157D03*
D129*
X0271425Y0035157D03*
X0269791Y0038248D03*
X0269772Y0038307D03*
X0269752Y0038366D03*
X0269732Y0038425D03*
X0269713Y0038484D03*
X0269693Y0038543D03*
X0271622Y0039134D03*
X0271622Y0039154D03*
D130*
X0271543Y0038583D03*
X0271543Y0038563D03*
X0271543Y0038543D03*
X0273335Y0039350D03*
X0273335Y0039370D03*
X0273335Y0039390D03*
X0273335Y0039409D03*
X0273335Y0039429D03*
X0273335Y0039449D03*
X0273335Y0039469D03*
X0273335Y0039488D03*
X0273335Y0039508D03*
X0273335Y0039528D03*
X0273335Y0039547D03*
X0273335Y0039567D03*
X0273335Y0039587D03*
X0273335Y0039606D03*
X0273335Y0039626D03*
X0273335Y0039646D03*
X0273335Y0039665D03*
X0273335Y0039685D03*
X0273335Y0039705D03*
X0273335Y0039724D03*
X0275264Y0038799D03*
X0275283Y0038760D03*
X0275205Y0036043D03*
X0275205Y0036024D03*
X0275185Y0036004D03*
X0275185Y0035984D03*
X0273335Y0035512D03*
X0273335Y0035492D03*
X0273335Y0035472D03*
X0273335Y0035453D03*
X0273335Y0035433D03*
X0273335Y0035413D03*
X0273335Y0035394D03*
X0273335Y0035374D03*
X0273335Y0035354D03*
X0273335Y0035335D03*
X0273335Y0035315D03*
X0273335Y0035295D03*
X0273335Y0035276D03*
X0273335Y0035256D03*
X0273335Y0035236D03*
X0273335Y0035217D03*
X0273335Y0035197D03*
X0273335Y0035177D03*
X0273335Y0035157D03*
X0271209Y0035394D03*
X0269969Y0037244D03*
X0269969Y0037264D03*
X0269969Y0037283D03*
X0269969Y0037303D03*
X0269378Y0039193D03*
X0265815Y0038661D03*
X0265815Y0038642D03*
X0265795Y0038602D03*
X0265933Y0035965D03*
X0265953Y0035925D03*
X0265972Y0035886D03*
D131*
X0269624Y0035472D03*
X0274407Y0035157D03*
X0274526Y0039705D03*
X0268758Y0039783D03*
X0266612Y0039744D03*
D132*
X0267764Y0039154D03*
X0271268Y0036102D03*
X0274614Y0035256D03*
X0274713Y0039587D03*
X0267764Y0035748D03*
X0267764Y0035728D03*
X0266563Y0035177D03*
D133*
X0271327Y0035236D03*
X0271346Y0035217D03*
X0271366Y0035197D03*
X0271386Y0035177D03*
X0271642Y0039232D03*
X0271642Y0039252D03*
D134*
X0269467Y0035394D03*
X0269427Y0035374D03*
X0269407Y0035354D03*
X0269368Y0035335D03*
X0269309Y0035295D03*
X0274467Y0035177D03*
D135*
X0271278Y0036122D03*
X0269939Y0036063D03*
X0267774Y0035709D03*
X0267774Y0035689D03*
X0266533Y0035197D03*
X0267774Y0039173D03*
X0267774Y0039193D03*
X0268955Y0039685D03*
X0266396Y0039587D03*
X0274742Y0039567D03*
D136*
X0269152Y0035197D03*
D137*
X0271209Y0036024D03*
X0274516Y0035197D03*
X0274634Y0039646D03*
D138*
X0271287Y0036161D03*
X0271287Y0036142D03*
X0274634Y0035276D03*
X0267764Y0035669D03*
X0266504Y0035217D03*
X0267764Y0039213D03*
X0266366Y0039567D03*
D139*
X0266583Y0039724D03*
X0269181Y0035217D03*
X0269535Y0035433D03*
D140*
X0269929Y0036102D03*
X0271307Y0036220D03*
X0271307Y0036240D03*
X0271307Y0036260D03*
X0271307Y0036280D03*
X0267764Y0035610D03*
X0266484Y0035236D03*
X0267764Y0039252D03*
X0266346Y0039547D03*
X0266327Y0039528D03*
D141*
X0266415Y0039606D03*
X0267774Y0039134D03*
X0267774Y0039114D03*
X0267774Y0039094D03*
X0267774Y0039075D03*
X0267774Y0039055D03*
X0267774Y0039035D03*
X0267774Y0039016D03*
X0267774Y0038996D03*
X0268915Y0039705D03*
X0269959Y0036043D03*
X0271258Y0036083D03*
X0274585Y0035236D03*
X0267774Y0035768D03*
X0267774Y0035787D03*
X0267774Y0035807D03*
X0267774Y0035827D03*
X0267774Y0035846D03*
X0267774Y0035866D03*
X0267774Y0035886D03*
X0267774Y0035906D03*
X0267774Y0035925D03*
X0267774Y0035945D03*
X0267774Y0035965D03*
D142*
X0267774Y0035591D03*
X0266455Y0035256D03*
X0269939Y0036122D03*
X0271317Y0036299D03*
X0271317Y0036319D03*
X0271317Y0036339D03*
X0271317Y0036358D03*
X0271317Y0036378D03*
X0271317Y0036398D03*
X0271317Y0036417D03*
X0274683Y0035315D03*
X0274801Y0039508D03*
X0268994Y0039646D03*
X0267774Y0039272D03*
D143*
X0271632Y0039213D03*
X0271632Y0039193D03*
X0271632Y0039173D03*
X0271317Y0035256D03*
D144*
X0271337Y0036713D03*
X0271337Y0036732D03*
X0271337Y0036752D03*
X0271337Y0036772D03*
X0271337Y0036791D03*
X0271337Y0036811D03*
X0271337Y0036831D03*
X0271337Y0036850D03*
X0271337Y0036870D03*
X0271337Y0036890D03*
X0269939Y0036161D03*
X0267774Y0035551D03*
X0266435Y0035276D03*
X0266278Y0039469D03*
X0266297Y0039488D03*
X0267774Y0039291D03*
X0269033Y0039626D03*
X0274821Y0039488D03*
X0274841Y0039469D03*
D145*
X0271632Y0039114D03*
X0271632Y0039094D03*
X0269722Y0038465D03*
X0269722Y0038445D03*
X0269742Y0038406D03*
X0269742Y0038386D03*
X0269762Y0038346D03*
X0269762Y0038327D03*
X0269781Y0038287D03*
X0269781Y0038268D03*
X0269801Y0038228D03*
X0269801Y0038209D03*
X0269801Y0038189D03*
X0269801Y0038169D03*
X0269821Y0038150D03*
X0269821Y0038130D03*
X0269821Y0038110D03*
X0269841Y0038071D03*
X0269841Y0038051D03*
X0269703Y0038504D03*
X0269703Y0038524D03*
X0269683Y0038563D03*
X0269683Y0038583D03*
X0269663Y0038602D03*
X0269663Y0038622D03*
X0269644Y0038661D03*
X0269624Y0038720D03*
X0271297Y0035276D03*
D146*
X0271091Y0035492D03*
X0269929Y0036181D03*
X0271346Y0036909D03*
X0271346Y0036929D03*
X0271346Y0036949D03*
X0271346Y0036969D03*
X0271346Y0036988D03*
X0271346Y0037008D03*
X0271346Y0037028D03*
X0273531Y0037028D03*
X0273531Y0037047D03*
X0273531Y0037067D03*
X0273531Y0037087D03*
X0273531Y0037106D03*
X0273531Y0037126D03*
X0273531Y0037146D03*
X0273531Y0037165D03*
X0273531Y0037185D03*
X0273531Y0037205D03*
X0273531Y0037224D03*
X0273531Y0037244D03*
X0273531Y0037264D03*
X0273531Y0037283D03*
X0273531Y0037303D03*
X0273531Y0037323D03*
X0273531Y0037343D03*
X0273531Y0037362D03*
X0273531Y0037382D03*
X0273531Y0037402D03*
X0273531Y0037421D03*
X0273531Y0037441D03*
X0273531Y0037461D03*
X0273531Y0037480D03*
X0273531Y0037500D03*
X0273531Y0037520D03*
X0273531Y0037539D03*
X0273531Y0037559D03*
X0273531Y0037579D03*
X0273531Y0037598D03*
X0273531Y0037618D03*
X0273531Y0037638D03*
X0273531Y0037657D03*
X0273531Y0037677D03*
X0273531Y0037697D03*
X0273531Y0037717D03*
X0273531Y0037736D03*
X0273531Y0037756D03*
X0273531Y0037776D03*
X0273531Y0037795D03*
X0273531Y0037815D03*
X0273531Y0037835D03*
X0273531Y0037854D03*
X0273531Y0037874D03*
X0273531Y0037894D03*
X0273531Y0037913D03*
X0273531Y0037933D03*
X0273531Y0037953D03*
X0273531Y0037972D03*
X0273531Y0037992D03*
X0273531Y0038012D03*
X0273531Y0038031D03*
X0273531Y0038051D03*
X0273531Y0038071D03*
X0273531Y0038091D03*
X0273531Y0038110D03*
X0273531Y0038130D03*
X0273531Y0038150D03*
X0273531Y0038169D03*
X0273531Y0038189D03*
X0273531Y0038209D03*
X0273531Y0038228D03*
X0273531Y0038248D03*
X0273531Y0038268D03*
X0273531Y0038287D03*
X0273531Y0038307D03*
X0273531Y0038327D03*
X0273531Y0038346D03*
X0273531Y0038366D03*
X0273531Y0038386D03*
X0273531Y0038406D03*
X0273531Y0038425D03*
X0273531Y0038445D03*
X0273531Y0038465D03*
X0273531Y0038484D03*
X0273531Y0038504D03*
X0273531Y0038524D03*
X0273531Y0038543D03*
X0273531Y0038563D03*
X0273531Y0038583D03*
X0273531Y0038602D03*
X0273531Y0038622D03*
X0273531Y0038642D03*
X0273531Y0038661D03*
X0273531Y0038681D03*
X0273531Y0038701D03*
X0273531Y0038720D03*
X0273531Y0038740D03*
X0273531Y0038760D03*
X0273531Y0037008D03*
X0273531Y0036988D03*
X0273531Y0036969D03*
X0273531Y0036949D03*
X0273531Y0036929D03*
X0273531Y0036909D03*
X0273531Y0036890D03*
X0273531Y0036870D03*
X0273531Y0036850D03*
X0273531Y0036831D03*
X0273531Y0036811D03*
X0273531Y0036791D03*
X0273531Y0036772D03*
X0273531Y0036752D03*
X0273531Y0036732D03*
X0273531Y0036713D03*
X0273531Y0036693D03*
X0273531Y0036673D03*
X0273531Y0036654D03*
X0273531Y0036634D03*
X0273531Y0036614D03*
X0273531Y0036594D03*
X0273531Y0036575D03*
X0273531Y0036555D03*
X0273531Y0036535D03*
X0273531Y0036516D03*
X0273531Y0036496D03*
X0273531Y0036476D03*
X0273531Y0036457D03*
X0273531Y0036437D03*
X0273531Y0036417D03*
X0273531Y0036398D03*
X0273531Y0036378D03*
X0273531Y0036358D03*
X0273531Y0036339D03*
X0273531Y0036319D03*
X0273531Y0036299D03*
X0273531Y0036280D03*
X0273531Y0036260D03*
X0273531Y0036240D03*
X0273531Y0036220D03*
X0273531Y0036201D03*
X0273531Y0036181D03*
X0273531Y0036161D03*
X0273531Y0036142D03*
X0273531Y0036122D03*
X0273531Y0036102D03*
X0274732Y0035354D03*
X0274752Y0035374D03*
X0269043Y0039606D03*
X0266406Y0035295D03*
D147*
X0269870Y0037913D03*
X0269870Y0037933D03*
X0269870Y0037953D03*
X0269850Y0037972D03*
X0269850Y0037992D03*
X0269850Y0038012D03*
X0269850Y0038031D03*
X0269831Y0038091D03*
X0269654Y0038642D03*
X0269634Y0038681D03*
X0269634Y0038701D03*
X0269614Y0038740D03*
X0269594Y0038780D03*
X0269575Y0038819D03*
X0271622Y0039035D03*
X0271622Y0039055D03*
X0271622Y0039075D03*
X0271287Y0035295D03*
D148*
X0271297Y0036181D03*
X0271297Y0036201D03*
X0269939Y0036083D03*
X0267774Y0035650D03*
X0267774Y0035630D03*
X0267774Y0039232D03*
X0268974Y0039665D03*
X0274762Y0039547D03*
X0274781Y0039528D03*
X0274663Y0035295D03*
D149*
X0273522Y0035846D03*
X0273522Y0035866D03*
X0273522Y0035886D03*
X0273522Y0035906D03*
X0273522Y0035925D03*
X0273522Y0035945D03*
X0273522Y0035965D03*
X0273522Y0035984D03*
X0273522Y0036004D03*
X0273522Y0036024D03*
X0273522Y0036043D03*
X0273522Y0036063D03*
X0273522Y0036083D03*
X0271356Y0037047D03*
X0271356Y0037067D03*
X0271356Y0037087D03*
X0271356Y0037106D03*
X0271356Y0037126D03*
X0271356Y0037146D03*
X0269939Y0036201D03*
X0267774Y0035531D03*
X0266396Y0035315D03*
X0266238Y0039429D03*
X0266258Y0039449D03*
X0267774Y0039311D03*
X0273522Y0038976D03*
X0273522Y0038957D03*
X0273522Y0038937D03*
X0273522Y0038917D03*
X0273522Y0038898D03*
X0273522Y0038878D03*
X0273522Y0038858D03*
X0273522Y0038839D03*
X0273522Y0038819D03*
X0273522Y0038799D03*
X0273522Y0038780D03*
X0274860Y0039449D03*
X0274880Y0039429D03*
D150*
X0275490Y0037815D03*
X0275490Y0037795D03*
X0275490Y0037776D03*
X0275490Y0037756D03*
X0275490Y0037736D03*
X0275490Y0037717D03*
X0275490Y0037697D03*
X0275490Y0037677D03*
X0275490Y0037657D03*
X0275490Y0037638D03*
X0275490Y0037618D03*
X0275490Y0037598D03*
X0275490Y0037579D03*
X0275490Y0037559D03*
X0275490Y0037539D03*
X0275490Y0037520D03*
X0275490Y0037500D03*
X0275490Y0037480D03*
X0275490Y0037461D03*
X0275490Y0037441D03*
X0275490Y0037421D03*
X0275490Y0037402D03*
X0275490Y0037382D03*
X0275490Y0037362D03*
X0275490Y0037343D03*
X0275490Y0037323D03*
X0275490Y0037303D03*
X0275490Y0037283D03*
X0275490Y0037264D03*
X0275490Y0037244D03*
X0275490Y0037224D03*
X0275490Y0037205D03*
X0275490Y0037185D03*
X0275490Y0037165D03*
X0275490Y0037146D03*
X0275490Y0037126D03*
X0275490Y0037106D03*
X0275470Y0037087D03*
X0275470Y0037067D03*
X0275470Y0037047D03*
X0275470Y0037028D03*
X0275470Y0037008D03*
X0275470Y0036988D03*
X0275470Y0036969D03*
X0275470Y0036949D03*
X0275451Y0036909D03*
X0275451Y0036890D03*
X0275451Y0036870D03*
X0275451Y0036850D03*
X0275451Y0036831D03*
X0275431Y0036772D03*
X0275431Y0036752D03*
X0271278Y0035315D03*
X0269900Y0037776D03*
X0269900Y0037795D03*
X0269880Y0037854D03*
X0269880Y0037874D03*
X0269880Y0037894D03*
X0269604Y0038760D03*
X0269585Y0038799D03*
X0269565Y0038839D03*
X0269565Y0038858D03*
X0269545Y0038878D03*
X0271612Y0038976D03*
X0271612Y0038996D03*
X0271612Y0039016D03*
X0265648Y0037087D03*
X0265648Y0037067D03*
X0265648Y0037047D03*
X0265648Y0037028D03*
X0265667Y0036909D03*
X0265667Y0036890D03*
X0265687Y0036772D03*
D151*
X0266366Y0035335D03*
X0269929Y0036220D03*
X0269929Y0036240D03*
X0271366Y0037165D03*
X0271366Y0037185D03*
X0271366Y0037205D03*
X0271366Y0037224D03*
X0271366Y0037244D03*
X0271366Y0037264D03*
X0273512Y0035827D03*
X0273512Y0035807D03*
X0273512Y0035787D03*
X0274772Y0035394D03*
X0273512Y0038996D03*
X0273512Y0039016D03*
X0273512Y0039035D03*
X0273512Y0039055D03*
X0269063Y0039587D03*
X0266228Y0039409D03*
D152*
X0265667Y0038051D03*
X0265667Y0038031D03*
X0265667Y0038012D03*
X0265667Y0037992D03*
X0265648Y0037933D03*
X0265648Y0037913D03*
X0265648Y0037894D03*
X0265648Y0037874D03*
X0265648Y0037854D03*
X0265648Y0037835D03*
X0265648Y0037815D03*
X0265726Y0036575D03*
X0265726Y0036555D03*
X0265746Y0036496D03*
X0265746Y0036476D03*
X0265766Y0036437D03*
X0265766Y0036417D03*
X0265766Y0036398D03*
X0265785Y0036358D03*
X0265785Y0036339D03*
X0269919Y0037638D03*
X0269919Y0037657D03*
X0269919Y0037677D03*
X0269506Y0038957D03*
X0269506Y0038976D03*
X0269486Y0038996D03*
X0271593Y0038898D03*
X0271593Y0038878D03*
X0271593Y0038858D03*
X0271258Y0035335D03*
X0275352Y0036417D03*
X0275352Y0036437D03*
X0275352Y0036457D03*
X0275372Y0036476D03*
X0275372Y0036496D03*
X0275372Y0036516D03*
X0275392Y0036555D03*
X0275392Y0036575D03*
X0275451Y0038091D03*
X0275451Y0038110D03*
X0275451Y0038130D03*
X0275451Y0038150D03*
X0275431Y0038189D03*
X0275431Y0038209D03*
X0275431Y0038228D03*
X0275431Y0038248D03*
X0275411Y0038307D03*
X0275411Y0038327D03*
D153*
X0274713Y0035335D03*
X0271327Y0036437D03*
X0271327Y0036457D03*
X0271327Y0036476D03*
X0271327Y0036496D03*
X0271327Y0036516D03*
X0271327Y0036535D03*
X0271327Y0036555D03*
X0271327Y0036575D03*
X0271327Y0036594D03*
X0271327Y0036614D03*
X0271327Y0036634D03*
X0271327Y0036654D03*
X0271327Y0036673D03*
X0271327Y0036693D03*
X0269929Y0036142D03*
X0267764Y0035571D03*
X0266307Y0039508D03*
D154*
X0266189Y0039370D03*
X0266327Y0035374D03*
X0266346Y0035354D03*
X0269949Y0036299D03*
X0271386Y0037382D03*
X0271386Y0037402D03*
X0271386Y0037421D03*
X0271386Y0037441D03*
X0271386Y0037461D03*
X0273492Y0039134D03*
X0273492Y0039154D03*
X0274929Y0039370D03*
X0273492Y0035728D03*
X0273492Y0035709D03*
X0274811Y0035433D03*
D155*
X0275274Y0036201D03*
X0275293Y0036240D03*
X0275293Y0036260D03*
X0275313Y0036299D03*
X0275392Y0038406D03*
X0275372Y0038465D03*
X0275372Y0038484D03*
X0275372Y0038504D03*
X0275352Y0038543D03*
X0275352Y0038563D03*
X0271573Y0038740D03*
X0271573Y0038760D03*
X0271573Y0038780D03*
X0269939Y0037539D03*
X0269939Y0037520D03*
X0269939Y0037500D03*
X0269939Y0037480D03*
X0269447Y0039075D03*
X0269427Y0039114D03*
X0265746Y0038425D03*
X0265726Y0038366D03*
X0265726Y0038346D03*
X0265726Y0038327D03*
X0265707Y0038287D03*
X0265707Y0038268D03*
X0265707Y0038248D03*
X0265825Y0036240D03*
X0265825Y0036220D03*
X0265844Y0036181D03*
X0265844Y0036161D03*
X0265864Y0036142D03*
X0265864Y0036122D03*
X0271238Y0035354D03*
D156*
X0271228Y0035374D03*
X0269949Y0037402D03*
X0269949Y0037421D03*
X0269949Y0037441D03*
X0269949Y0037461D03*
X0269437Y0039094D03*
X0269417Y0039134D03*
X0271563Y0038720D03*
X0271563Y0038701D03*
X0271563Y0038681D03*
X0275323Y0038642D03*
X0275323Y0038622D03*
X0275343Y0038602D03*
X0275343Y0038583D03*
X0275362Y0038524D03*
X0275283Y0036220D03*
X0275264Y0036181D03*
X0275264Y0036161D03*
X0275244Y0036142D03*
X0275244Y0036122D03*
X0265894Y0036063D03*
X0265894Y0036043D03*
X0265874Y0036083D03*
X0265874Y0036102D03*
X0265736Y0038386D03*
X0265736Y0038406D03*
X0265756Y0038445D03*
X0265756Y0038465D03*
X0265756Y0038484D03*
D157*
X0266159Y0039331D03*
X0266179Y0039350D03*
X0267774Y0039350D03*
X0269112Y0039547D03*
X0271396Y0037539D03*
X0271396Y0037520D03*
X0271396Y0037500D03*
X0271396Y0037480D03*
X0269939Y0036319D03*
X0267774Y0035492D03*
X0266317Y0035394D03*
X0273482Y0035669D03*
X0273482Y0035689D03*
X0274821Y0035453D03*
X0273482Y0039173D03*
D158*
X0273463Y0039232D03*
X0274978Y0039311D03*
X0271415Y0037717D03*
X0271415Y0037697D03*
X0271415Y0037677D03*
X0271415Y0037657D03*
X0269959Y0036437D03*
X0269959Y0036417D03*
X0269959Y0036398D03*
X0271120Y0035472D03*
X0273463Y0035630D03*
X0274860Y0035492D03*
X0274880Y0035512D03*
X0269152Y0039508D03*
X0267774Y0039370D03*
X0266140Y0039291D03*
X0266120Y0039272D03*
X0266278Y0035433D03*
X0266297Y0035413D03*
X0267774Y0035472D03*
D159*
X0266031Y0035787D03*
X0266012Y0035807D03*
X0266012Y0035827D03*
X0265992Y0035846D03*
X0265854Y0038760D03*
X0265854Y0038780D03*
X0265874Y0038799D03*
X0265874Y0038819D03*
X0269319Y0039272D03*
X0269339Y0039252D03*
X0269988Y0037126D03*
X0269988Y0037106D03*
X0269988Y0037087D03*
X0269988Y0037067D03*
X0269988Y0037047D03*
X0271189Y0035413D03*
X0273354Y0035531D03*
X0275126Y0035866D03*
X0275126Y0035886D03*
X0275146Y0035906D03*
X0275244Y0038858D03*
X0275224Y0038898D03*
X0275205Y0038937D03*
X0271524Y0038465D03*
X0271524Y0038445D03*
X0271524Y0038425D03*
D160*
X0271376Y0037362D03*
X0271376Y0037343D03*
X0271376Y0037323D03*
X0271376Y0037303D03*
X0271376Y0037283D03*
X0269939Y0036280D03*
X0269939Y0036260D03*
X0267774Y0035512D03*
X0267774Y0039331D03*
X0269093Y0039567D03*
X0266199Y0039390D03*
X0273502Y0039114D03*
X0273502Y0039094D03*
X0273502Y0039075D03*
X0274900Y0039409D03*
X0274919Y0039390D03*
X0273502Y0035768D03*
X0273502Y0035748D03*
X0274781Y0035413D03*
D161*
X0275096Y0035827D03*
X0275116Y0035846D03*
X0275215Y0038917D03*
X0275195Y0038957D03*
X0271514Y0038406D03*
X0271514Y0038386D03*
X0271514Y0038366D03*
X0269309Y0039291D03*
X0265904Y0038878D03*
X0265884Y0038858D03*
X0265884Y0038839D03*
X0266041Y0035768D03*
X0266061Y0035728D03*
X0267774Y0035433D03*
D162*
X0266130Y0035630D03*
X0266110Y0035650D03*
X0265953Y0038996D03*
X0265972Y0039016D03*
X0265972Y0039035D03*
X0269240Y0039390D03*
X0269260Y0039370D03*
X0271484Y0038209D03*
X0271484Y0038189D03*
X0271484Y0038169D03*
X0269988Y0036870D03*
X0269988Y0036850D03*
X0269988Y0036831D03*
X0269988Y0036811D03*
X0269988Y0036791D03*
X0269988Y0036772D03*
X0271169Y0035433D03*
X0273394Y0035551D03*
X0275028Y0035709D03*
X0275146Y0039055D03*
X0275126Y0039094D03*
D163*
X0275008Y0039272D03*
X0274988Y0039291D03*
X0273453Y0039252D03*
X0271425Y0037795D03*
X0271425Y0037776D03*
X0271425Y0037756D03*
X0271425Y0037736D03*
X0269969Y0036496D03*
X0269969Y0036476D03*
X0269969Y0036457D03*
X0269161Y0039488D03*
X0266110Y0039252D03*
X0266091Y0039232D03*
X0266268Y0035453D03*
X0273453Y0035610D03*
X0274890Y0035531D03*
D164*
X0274939Y0035591D03*
X0274959Y0035610D03*
X0271140Y0035453D03*
X0269978Y0036594D03*
X0269978Y0036614D03*
X0269978Y0036634D03*
X0269978Y0036654D03*
X0271455Y0037953D03*
X0271455Y0037972D03*
X0271455Y0037992D03*
X0271455Y0038012D03*
X0273423Y0039291D03*
X0275057Y0039193D03*
X0275077Y0039173D03*
X0269211Y0039429D03*
X0267774Y0039390D03*
X0266041Y0039154D03*
X0266022Y0039114D03*
X0266179Y0035551D03*
X0266199Y0035531D03*
X0267774Y0035453D03*
D165*
X0266238Y0035472D03*
X0266081Y0039213D03*
X0269978Y0036516D03*
X0271435Y0037815D03*
X0271435Y0037835D03*
X0271435Y0037854D03*
X0273443Y0039272D03*
X0275018Y0039252D03*
X0275037Y0039232D03*
X0274919Y0035551D03*
D166*
X0274850Y0035472D03*
X0273472Y0035650D03*
X0271406Y0037559D03*
X0271406Y0037579D03*
X0271406Y0037598D03*
X0271406Y0037618D03*
X0271406Y0037638D03*
X0269949Y0036378D03*
X0269949Y0036358D03*
X0269949Y0036339D03*
X0269122Y0039528D03*
X0266150Y0039311D03*
X0273472Y0039213D03*
X0273472Y0039193D03*
X0274949Y0039350D03*
X0274969Y0039331D03*
D167*
X0275047Y0039213D03*
X0274929Y0035571D03*
X0273433Y0035591D03*
X0271445Y0037874D03*
X0271445Y0037894D03*
X0271445Y0037913D03*
X0271445Y0037933D03*
X0269969Y0036575D03*
X0269969Y0036555D03*
X0269969Y0036535D03*
X0269201Y0039449D03*
X0269181Y0039469D03*
X0266071Y0039193D03*
X0266051Y0039173D03*
X0266209Y0035512D03*
X0266228Y0035492D03*
D168*
X0266169Y0035571D03*
X0266012Y0039094D03*
X0266031Y0039134D03*
X0269220Y0039409D03*
X0271465Y0038071D03*
X0271465Y0038051D03*
X0271465Y0038031D03*
X0269988Y0036713D03*
X0269988Y0036693D03*
X0269988Y0036673D03*
X0273413Y0035571D03*
X0274969Y0035630D03*
X0274988Y0035650D03*
X0275087Y0039154D03*
D169*
X0275096Y0039134D03*
X0275116Y0039114D03*
X0273404Y0039311D03*
X0271474Y0038150D03*
X0271474Y0038130D03*
X0271474Y0038110D03*
X0271474Y0038091D03*
X0269978Y0036752D03*
X0269978Y0036732D03*
X0274998Y0035669D03*
X0275018Y0035689D03*
X0266159Y0035591D03*
X0266140Y0035610D03*
X0265982Y0039055D03*
X0266002Y0039075D03*
D170*
X0265943Y0038976D03*
X0265943Y0038957D03*
X0267774Y0039409D03*
X0269270Y0039350D03*
X0271494Y0038268D03*
X0271494Y0038248D03*
X0271494Y0038228D03*
X0269998Y0036890D03*
X0275037Y0035728D03*
X0275057Y0035748D03*
X0275156Y0039035D03*
X0275136Y0039075D03*
X0266100Y0035669D03*
X0266081Y0035689D03*
D171*
X0266071Y0035709D03*
X0266051Y0035748D03*
X0265913Y0038898D03*
X0265913Y0038917D03*
X0265933Y0038937D03*
X0269280Y0039331D03*
X0269299Y0039311D03*
X0269988Y0037028D03*
X0269988Y0037008D03*
X0269988Y0036988D03*
X0269988Y0036969D03*
X0269988Y0036949D03*
X0269988Y0036929D03*
X0269988Y0036909D03*
X0271504Y0038287D03*
X0271504Y0038307D03*
X0271504Y0038327D03*
X0271504Y0038346D03*
X0273374Y0039331D03*
X0275165Y0039016D03*
X0275185Y0038996D03*
X0275185Y0038976D03*
X0275087Y0035807D03*
X0275067Y0035787D03*
X0275067Y0035768D03*
D172*
X0275156Y0035925D03*
X0275156Y0035945D03*
X0275175Y0035965D03*
X0275274Y0038780D03*
X0275254Y0038819D03*
X0275254Y0038839D03*
X0275234Y0038878D03*
X0271533Y0038524D03*
X0271533Y0038504D03*
X0271533Y0038484D03*
X0269978Y0037224D03*
X0269978Y0037205D03*
X0269978Y0037185D03*
X0269978Y0037165D03*
X0269978Y0037146D03*
X0269368Y0039213D03*
X0269348Y0039232D03*
X0265844Y0038740D03*
X0265844Y0038720D03*
X0265825Y0038701D03*
X0265825Y0038681D03*
X0265963Y0035906D03*
X0265982Y0035866D03*
D173*
X0265835Y0036201D03*
X0265815Y0036260D03*
X0265815Y0036280D03*
X0265795Y0036299D03*
X0265795Y0036319D03*
X0265776Y0036378D03*
X0265657Y0037953D03*
X0265657Y0037972D03*
X0265677Y0038071D03*
X0265677Y0038091D03*
X0265677Y0038110D03*
X0265677Y0038130D03*
X0265677Y0038150D03*
X0265697Y0038169D03*
X0265697Y0038189D03*
X0265697Y0038209D03*
X0265697Y0038228D03*
X0265717Y0038307D03*
X0269457Y0039055D03*
X0269476Y0039035D03*
X0269476Y0039016D03*
X0269929Y0037618D03*
X0269929Y0037598D03*
X0269929Y0037579D03*
X0269929Y0037559D03*
X0271583Y0038799D03*
X0271583Y0038819D03*
X0271583Y0038839D03*
X0275382Y0038445D03*
X0275382Y0038425D03*
X0275402Y0038386D03*
X0275402Y0038366D03*
X0275402Y0038346D03*
X0275421Y0038287D03*
X0275421Y0038268D03*
X0275343Y0036398D03*
X0275343Y0036378D03*
X0275323Y0036358D03*
X0275323Y0036339D03*
X0275323Y0036319D03*
X0275303Y0036280D03*
D174*
X0275382Y0036535D03*
X0275402Y0036594D03*
X0275402Y0036614D03*
X0275402Y0036634D03*
X0275402Y0036654D03*
X0275421Y0036673D03*
X0275421Y0036693D03*
X0275421Y0036713D03*
X0275421Y0036732D03*
X0275441Y0036791D03*
X0275441Y0036811D03*
X0275461Y0036929D03*
X0275480Y0037835D03*
X0275480Y0037854D03*
X0275480Y0037874D03*
X0275480Y0037894D03*
X0275480Y0037913D03*
X0275480Y0037933D03*
X0275480Y0037953D03*
X0275480Y0037972D03*
X0275461Y0037992D03*
X0275461Y0038012D03*
X0275461Y0038031D03*
X0275461Y0038051D03*
X0275461Y0038071D03*
X0275441Y0038169D03*
X0271602Y0038917D03*
X0271602Y0038937D03*
X0271602Y0038957D03*
X0269890Y0037835D03*
X0269890Y0037815D03*
X0269909Y0037756D03*
X0269909Y0037736D03*
X0269909Y0037717D03*
X0269909Y0037697D03*
X0269535Y0038898D03*
X0269535Y0038917D03*
X0269516Y0038937D03*
X0265638Y0037795D03*
X0265638Y0037776D03*
X0265638Y0037756D03*
X0265638Y0037736D03*
X0265638Y0037717D03*
X0265638Y0037697D03*
X0265638Y0037677D03*
X0265638Y0037657D03*
X0265638Y0037638D03*
X0265638Y0037618D03*
X0265638Y0037598D03*
X0265638Y0037579D03*
X0265638Y0037559D03*
X0265638Y0037539D03*
X0265638Y0037520D03*
X0265638Y0037500D03*
X0265638Y0037480D03*
X0265638Y0037461D03*
X0265638Y0037441D03*
X0265638Y0037421D03*
X0265638Y0037402D03*
X0265638Y0037382D03*
X0265638Y0037362D03*
X0265638Y0037343D03*
X0265638Y0037323D03*
X0265638Y0037303D03*
X0265638Y0037283D03*
X0265638Y0037264D03*
X0265638Y0037244D03*
X0265638Y0037224D03*
X0265638Y0037205D03*
X0265638Y0037185D03*
X0265638Y0037165D03*
X0265638Y0037146D03*
X0265638Y0037126D03*
X0265638Y0037106D03*
X0265657Y0037008D03*
X0265657Y0036988D03*
X0265657Y0036969D03*
X0265657Y0036949D03*
X0265657Y0036929D03*
X0265677Y0036870D03*
X0265677Y0036850D03*
X0265677Y0036831D03*
X0265677Y0036811D03*
X0265677Y0036791D03*
X0265697Y0036752D03*
X0265697Y0036732D03*
X0265697Y0036713D03*
X0265697Y0036693D03*
X0265697Y0036673D03*
X0265717Y0036654D03*
X0265717Y0036634D03*
X0265717Y0036614D03*
X0265717Y0036594D03*
X0265736Y0036535D03*
X0265736Y0036516D03*
X0265756Y0036457D03*
D175*
X0271632Y0039272D03*
D176*
X0266494Y0039665D03*
D177*
X0266514Y0039685D03*
X0268856Y0039744D03*
D178*
X0268817Y0039764D03*
X0274565Y0039685D03*
D179*
X0266711Y0039783D03*
D180*
X0268699Y0039803D03*
D181*
X0267705Y0039862D03*
X0273394Y0039882D03*
D182*
X0270559Y0041969D03*
D183*
X0270559Y0041988D03*
M02*
