G75*
%MOIN*%
%OFA0B0*%
%FSLAX25Y25*%
%IPPOS*%
%LPD*%
%AMOC8*
5,1,8,0,0,1.08239X$1,22.5*
%
%ADD10R,0.02400X0.07900*%
%ADD11R,0.02800X0.16500*%
%ADD12R,0.06102X0.12992*%
%ADD13C,0.06000*%
%ADD14C,0.05600*%
%ADD15R,0.03543X0.02756*%
%ADD16R,0.02756X0.03543*%
%ADD17R,0.03150X0.03150*%
%ADD18R,0.06299X0.07087*%
%ADD19R,0.07087X0.06299*%
%ADD20R,0.04400X0.01800*%
%ADD21C,0.21000*%
%ADD22OC8,0.06000*%
%ADD23C,0.12992*%
%ADD24C,0.05433*%
%ADD25C,0.02756*%
%ADD26C,0.01600*%
%ADD27C,0.03200*%
%ADD28C,0.01000*%
%ADD29C,0.02362*%
%ADD30C,0.04000*%
D10*
X0059500Y0026200D03*
X0063400Y0026200D03*
X0067300Y0026200D03*
X0071300Y0026200D03*
X0075200Y0026200D03*
X0079200Y0026200D03*
X0083100Y0026200D03*
X0087000Y0026200D03*
X0091000Y0026200D03*
X0094900Y0026200D03*
X0098800Y0026200D03*
X0102800Y0026200D03*
X0106700Y0026200D03*
X0110700Y0026200D03*
X0114600Y0026200D03*
X0165000Y0026200D03*
X0168900Y0026200D03*
X0172800Y0026200D03*
X0176800Y0026200D03*
X0180700Y0026200D03*
X0184700Y0026200D03*
X0188600Y0026200D03*
X0192500Y0026200D03*
X0196500Y0026200D03*
X0200400Y0026200D03*
X0204300Y0026200D03*
X0208300Y0026200D03*
X0212200Y0026200D03*
X0216200Y0026200D03*
X0220100Y0026200D03*
D11*
X0224000Y0017800D03*
X0161100Y0017800D03*
X0118500Y0017800D03*
X0055600Y0017800D03*
D12*
X0087598Y0167800D03*
X0104802Y0167800D03*
D13*
X0102500Y0151500D02*
X0096500Y0151500D01*
X0096500Y0141500D02*
X0102500Y0141500D01*
X0102500Y0131500D02*
X0096500Y0131500D01*
X0096500Y0118500D02*
X0096500Y0112500D01*
X0086500Y0112500D02*
X0086500Y0118500D01*
X0076500Y0118500D02*
X0076500Y0112500D01*
X0106500Y0112500D02*
X0106500Y0118500D01*
D14*
X0103437Y0185500D03*
X0095563Y0185500D03*
D15*
X0064500Y0182059D03*
X0058500Y0181941D03*
X0058500Y0187059D03*
X0064500Y0176941D03*
D16*
X0027059Y0159500D03*
X0021941Y0159500D03*
X0021941Y0153500D03*
X0027059Y0153500D03*
X0135941Y0017500D03*
X0135941Y0012500D03*
X0141059Y0012500D03*
X0141059Y0017500D03*
X0240941Y0017500D03*
X0246059Y0017500D03*
X0246059Y0012500D03*
X0240941Y0012500D03*
D17*
X0013453Y0153500D03*
X0007547Y0153500D03*
X0007547Y0159500D03*
X0013453Y0159500D03*
D18*
X0078188Y0151500D03*
X0089212Y0151500D03*
X0089162Y0131500D03*
X0078138Y0131500D03*
D19*
X0040500Y0077012D03*
X0032500Y0077012D03*
X0024500Y0077012D03*
X0024500Y0065988D03*
X0032500Y0065988D03*
X0040500Y0065988D03*
D20*
X0015700Y0139950D03*
X0015700Y0145150D03*
X0008100Y0142550D03*
D21*
X0015673Y0184177D03*
X0015673Y0015673D03*
X0270791Y0015673D03*
X0270791Y0184177D03*
D22*
X0137500Y0124500D03*
X0127500Y0124500D03*
X0127500Y0114500D03*
X0137500Y0114500D03*
X0137500Y0104500D03*
X0127500Y0104500D03*
X0237500Y0044500D03*
X0247500Y0044500D03*
X0257500Y0044500D03*
X0257500Y0034500D03*
X0247500Y0034500D03*
X0237500Y0034500D03*
D23*
X0171366Y0157500D03*
X0119634Y0157500D03*
D24*
X0131720Y0146870D03*
X0141563Y0146870D03*
X0149437Y0146870D03*
X0159280Y0146870D03*
D25*
X0072500Y0151500D03*
X0048500Y0169500D03*
X0033500Y0163500D03*
X0033500Y0155500D03*
X0031500Y0133500D03*
X0061500Y0122500D03*
X0070500Y0130500D03*
X0071500Y0172500D03*
X0068500Y0178500D03*
X0016500Y0086500D03*
X0027780Y0084500D03*
X0037228Y0084500D03*
X0110500Y0017500D03*
X0106500Y0012500D03*
X0127500Y0012500D03*
X0127500Y0017500D03*
X0139500Y0007500D03*
X0212500Y0012500D03*
X0216500Y0017500D03*
X0232500Y0017500D03*
X0232500Y0012500D03*
X0244500Y0007500D03*
D26*
X0246059Y0009059D01*
X0246059Y0012500D01*
X0246059Y0017500D01*
X0246059Y0025941D01*
X0242500Y0029500D01*
X0237500Y0029500D01*
X0237500Y0034500D01*
X0237500Y0044500D01*
X0237500Y0029500D02*
X0220500Y0029500D01*
X0141059Y0025941D02*
X0141059Y0017500D01*
X0141059Y0012500D01*
X0141100Y0012459D01*
X0141100Y0009100D01*
X0139500Y0007500D01*
X0141059Y0025941D02*
X0137500Y0029500D01*
X0115500Y0029500D01*
X0040500Y0077012D02*
X0040512Y0077262D01*
X0040528Y0081228D01*
X0037228Y0084500D01*
X0032500Y0082500D02*
X0030500Y0084500D01*
X0027780Y0084500D01*
X0027780Y0084012D01*
X0032500Y0082500D02*
X0032500Y0077012D01*
X0024500Y0077012D02*
X0016500Y0082012D01*
X0016500Y0086500D01*
X0008100Y0142550D02*
X0007700Y0143500D01*
X0007700Y0152500D01*
X0007547Y0153500D01*
X0013453Y0153500D02*
X0021941Y0153500D01*
X0027059Y0153500D02*
X0029059Y0155500D01*
X0033500Y0155500D01*
X0027059Y0153500D02*
X0027059Y0159500D01*
X0021941Y0159500D02*
X0013453Y0159500D01*
X0064500Y0176941D02*
X0066941Y0176941D01*
X0068500Y0178500D01*
D27*
X0089212Y0151500D02*
X0099500Y0151500D01*
X0099500Y0131500D02*
X0089162Y0131500D01*
D28*
X0019000Y0004124D02*
X0018319Y0003968D01*
X0268146Y0003968D01*
X0267464Y0004124D01*
X0266192Y0004569D01*
X0264978Y0005154D01*
X0263836Y0005871D01*
X0262783Y0006711D01*
X0261830Y0007664D01*
X0260989Y0008718D01*
X0260272Y0009859D01*
X0259687Y0011074D01*
X0259242Y0012346D01*
X0258942Y0013660D01*
X0258791Y0014999D01*
X0258791Y0015173D01*
X0270291Y0015173D01*
X0270291Y0016173D01*
X0258791Y0016173D01*
X0258791Y0016347D01*
X0258942Y0017686D01*
X0259242Y0019000D01*
X0259687Y0020273D01*
X0260272Y0021487D01*
X0260989Y0022628D01*
X0261830Y0023682D01*
X0262783Y0024635D01*
X0263836Y0025475D01*
X0264978Y0026192D01*
X0266192Y0026777D01*
X0267464Y0027222D01*
X0268778Y0027522D01*
X0270117Y0027673D01*
X0270291Y0027673D01*
X0270291Y0016173D01*
X0271291Y0016173D01*
X0271291Y0027673D01*
X0271465Y0027673D01*
X0272805Y0027522D01*
X0274119Y0027222D01*
X0275391Y0026777D01*
X0276605Y0026192D01*
X0277746Y0025475D01*
X0278800Y0024635D01*
X0279753Y0023682D01*
X0280593Y0022628D01*
X0281311Y0021487D01*
X0281895Y0020273D01*
X0282341Y0019000D01*
X0282496Y0018319D01*
X0282496Y0181531D01*
X0282341Y0180850D01*
X0281895Y0179578D01*
X0281311Y0178363D01*
X0280593Y0177222D01*
X0279753Y0176168D01*
X0278800Y0175215D01*
X0277746Y0174375D01*
X0276605Y0173658D01*
X0275391Y0173073D01*
X0274119Y0172628D01*
X0272805Y0172328D01*
X0271465Y0172177D01*
X0271291Y0172177D01*
X0271291Y0183677D01*
X0270291Y0183677D01*
X0258791Y0183677D01*
X0258791Y0183503D01*
X0258942Y0182164D01*
X0259242Y0180850D01*
X0259687Y0179578D01*
X0260272Y0178363D01*
X0260989Y0177222D01*
X0261830Y0176168D01*
X0262783Y0175215D01*
X0263836Y0174375D01*
X0264978Y0173658D01*
X0266192Y0173073D01*
X0267464Y0172628D01*
X0268778Y0172328D01*
X0270117Y0172177D01*
X0270291Y0172177D01*
X0270291Y0183677D01*
X0270291Y0184677D01*
X0258791Y0184677D01*
X0258791Y0184851D01*
X0258942Y0186190D01*
X0259242Y0187504D01*
X0259687Y0188777D01*
X0260272Y0189991D01*
X0260989Y0191132D01*
X0261830Y0192186D01*
X0262783Y0193139D01*
X0263836Y0193979D01*
X0264978Y0194696D01*
X0266192Y0195281D01*
X0267464Y0195726D01*
X0268146Y0195882D01*
X0018319Y0195882D01*
X0019000Y0195726D01*
X0020273Y0195281D01*
X0021487Y0194696D01*
X0022628Y0193979D01*
X0023682Y0193139D01*
X0024635Y0192186D01*
X0025475Y0191132D01*
X0026192Y0189991D01*
X0026777Y0188777D01*
X0027222Y0187504D01*
X0027522Y0186190D01*
X0027673Y0184851D01*
X0027673Y0184677D01*
X0016173Y0184677D01*
X0016173Y0183677D01*
X0016173Y0172177D01*
X0016347Y0172177D01*
X0017686Y0172328D01*
X0019000Y0172628D01*
X0020273Y0173073D01*
X0021487Y0173658D01*
X0022628Y0174375D01*
X0023682Y0175215D01*
X0024635Y0176168D01*
X0025475Y0177222D01*
X0026192Y0178363D01*
X0026777Y0179578D01*
X0027222Y0180850D01*
X0027522Y0182164D01*
X0027673Y0183503D01*
X0027673Y0183677D01*
X0016173Y0183677D01*
X0015173Y0183677D01*
X0015173Y0172177D01*
X0014999Y0172177D01*
X0013660Y0172328D01*
X0012346Y0172628D01*
X0011074Y0173073D01*
X0009859Y0173658D01*
X0008718Y0174375D01*
X0007664Y0175215D01*
X0006711Y0176168D01*
X0005871Y0177222D01*
X0005154Y0178363D01*
X0004569Y0179578D01*
X0004124Y0180850D01*
X0003968Y0181532D01*
X0003968Y0018319D01*
X0004124Y0019000D01*
X0004569Y0020273D01*
X0005154Y0021487D01*
X0005871Y0022628D01*
X0006711Y0023682D01*
X0007664Y0024635D01*
X0008718Y0025475D01*
X0009859Y0026192D01*
X0011074Y0026777D01*
X0012346Y0027222D01*
X0013660Y0027522D01*
X0014999Y0027673D01*
X0015173Y0027673D01*
X0015173Y0016173D01*
X0016173Y0016173D01*
X0016173Y0027673D01*
X0016347Y0027673D01*
X0017686Y0027522D01*
X0019000Y0027222D01*
X0020273Y0026777D01*
X0021487Y0026192D01*
X0022628Y0025475D01*
X0023682Y0024635D01*
X0024635Y0023682D01*
X0025475Y0022628D01*
X0026192Y0021487D01*
X0026777Y0020273D01*
X0027222Y0019000D01*
X0027522Y0017686D01*
X0027673Y0016347D01*
X0027673Y0016173D01*
X0016173Y0016173D01*
X0016173Y0015173D01*
X0027673Y0015173D01*
X0027673Y0014999D01*
X0027522Y0013660D01*
X0027222Y0012346D01*
X0026777Y0011074D01*
X0026192Y0009859D01*
X0025475Y0008718D01*
X0024635Y0007664D01*
X0023682Y0006711D01*
X0022628Y0005871D01*
X0021487Y0005154D01*
X0020273Y0004569D01*
X0019000Y0004124D01*
X0020062Y0004496D02*
X0266402Y0004496D01*
X0264436Y0005494D02*
X0245985Y0005494D01*
X0245898Y0005407D02*
X0246593Y0006102D01*
X0246968Y0007009D01*
X0246968Y0007295D01*
X0247950Y0008276D01*
X0247950Y0009699D01*
X0248528Y0010277D01*
X0248528Y0014723D01*
X0248251Y0015000D01*
X0248528Y0015277D01*
X0248528Y0019723D01*
X0247950Y0020301D01*
X0247950Y0026724D01*
X0244391Y0030283D01*
X0243283Y0031391D01*
X0240175Y0031391D01*
X0241591Y0032806D01*
X0241591Y0036194D01*
X0239391Y0038394D01*
X0239391Y0040606D01*
X0241591Y0042806D01*
X0241591Y0046194D01*
X0239194Y0048591D01*
X0235806Y0048591D01*
X0233409Y0046194D01*
X0233409Y0042806D01*
X0235609Y0040606D01*
X0235609Y0038394D01*
X0233409Y0036194D01*
X0233409Y0032806D01*
X0234825Y0031391D01*
X0219717Y0031391D01*
X0219567Y0031241D01*
X0218448Y0031241D01*
X0218150Y0030942D01*
X0217852Y0031241D01*
X0217791Y0031241D01*
X0217791Y0043178D01*
X0218472Y0043859D01*
X0218472Y0045741D01*
X0217141Y0047072D01*
X0215259Y0047072D01*
X0214200Y0046013D01*
X0213141Y0047072D01*
X0211259Y0047072D01*
X0210250Y0046063D01*
X0209241Y0047072D01*
X0207359Y0047072D01*
X0206300Y0046013D01*
X0205241Y0047072D01*
X0203359Y0047072D01*
X0202028Y0045741D01*
X0202028Y0043859D01*
X0202709Y0043178D01*
X0202709Y0031241D01*
X0202648Y0031241D01*
X0202640Y0031232D01*
X0202521Y0031350D01*
X0202179Y0031548D01*
X0201797Y0031650D01*
X0200500Y0031650D01*
X0200500Y0026300D01*
X0200300Y0026300D01*
X0200300Y0031650D01*
X0199691Y0031650D01*
X0199468Y0031872D01*
X0199468Y0032083D01*
X0199017Y0033174D01*
X0198461Y0033730D01*
X0198461Y0041501D01*
X0198009Y0042592D01*
X0185428Y0055174D01*
X0184592Y0056009D01*
X0183501Y0056461D01*
X0113641Y0056461D01*
X0110961Y0059141D01*
X0110961Y0066626D01*
X0111767Y0067433D01*
X0112323Y0068774D01*
X0112323Y0070226D01*
X0111767Y0071567D01*
X0110741Y0072594D01*
X0109399Y0073150D01*
X0107947Y0073150D01*
X0107000Y0072757D01*
X0106053Y0073150D01*
X0104601Y0073150D01*
X0103500Y0072694D01*
X0102399Y0073150D01*
X0100947Y0073150D01*
X0100000Y0072757D01*
X0099053Y0073150D01*
X0097601Y0073150D01*
X0097252Y0073005D01*
X0097009Y0073592D01*
X0096174Y0074428D01*
X0094601Y0076000D01*
X0096259Y0077657D01*
X0096711Y0078749D01*
X0096711Y0084626D01*
X0097517Y0085433D01*
X0098073Y0086774D01*
X0098073Y0088226D01*
X0097517Y0089567D01*
X0096491Y0090594D01*
X0095149Y0091150D01*
X0093697Y0091150D01*
X0092750Y0090757D01*
X0091803Y0091150D01*
X0090351Y0091150D01*
X0089009Y0090594D01*
X0087983Y0089567D01*
X0087427Y0088226D01*
X0087427Y0086774D01*
X0087983Y0085433D01*
X0088789Y0084626D01*
X0088789Y0081391D01*
X0087826Y0080428D01*
X0086991Y0079592D01*
X0086539Y0078501D01*
X0086539Y0073499D01*
X0086991Y0072407D01*
X0089399Y0070000D01*
X0086991Y0067592D01*
X0086539Y0066501D01*
X0086539Y0061499D01*
X0086991Y0060407D01*
X0089399Y0058000D01*
X0087826Y0056428D01*
X0086991Y0055592D01*
X0086539Y0054501D01*
X0086539Y0049499D01*
X0086991Y0048407D01*
X0098407Y0036991D01*
X0099499Y0036539D01*
X0101859Y0036539D01*
X0102572Y0035826D01*
X0102827Y0035572D01*
X0101859Y0035572D01*
X0100800Y0034513D01*
X0099741Y0035572D01*
X0097859Y0035572D01*
X0096528Y0034241D01*
X0096528Y0032359D01*
X0097209Y0031678D01*
X0097209Y0031241D01*
X0097148Y0031241D01*
X0097140Y0031232D01*
X0097021Y0031350D01*
X0096679Y0031548D01*
X0096297Y0031650D01*
X0095000Y0031650D01*
X0095000Y0026300D01*
X0094800Y0026300D01*
X0094800Y0031650D01*
X0094191Y0031650D01*
X0093968Y0031872D01*
X0093968Y0031883D01*
X0093961Y0031901D01*
X0094323Y0032774D01*
X0094323Y0034226D01*
X0093767Y0035567D01*
X0092741Y0036594D01*
X0091399Y0037150D01*
X0089947Y0037150D01*
X0089000Y0036757D01*
X0088053Y0037150D01*
X0086601Y0037150D01*
X0085259Y0036594D01*
X0084233Y0035567D01*
X0083677Y0034226D01*
X0083677Y0032774D01*
X0084039Y0031901D01*
X0084031Y0031883D01*
X0084031Y0031872D01*
X0083809Y0031650D01*
X0083200Y0031650D01*
X0083200Y0026300D01*
X0083000Y0026300D01*
X0083000Y0031650D01*
X0082391Y0031650D01*
X0082168Y0031872D01*
X0082168Y0031919D01*
X0082523Y0032774D01*
X0082523Y0034226D01*
X0081967Y0035567D01*
X0080941Y0036594D01*
X0079599Y0037150D01*
X0078147Y0037150D01*
X0077200Y0036757D01*
X0076253Y0037150D01*
X0074801Y0037150D01*
X0073459Y0036594D01*
X0072433Y0035567D01*
X0071877Y0034226D01*
X0071877Y0032774D01*
X0072231Y0031919D01*
X0072231Y0031872D01*
X0072009Y0031650D01*
X0071400Y0031650D01*
X0071400Y0026300D01*
X0071200Y0026300D01*
X0071200Y0031650D01*
X0070491Y0031650D01*
X0070326Y0031815D01*
X0070723Y0032774D01*
X0070723Y0034226D01*
X0070167Y0035567D01*
X0069141Y0036594D01*
X0067799Y0037150D01*
X0066347Y0037150D01*
X0065400Y0036757D01*
X0064453Y0037150D01*
X0063001Y0037150D01*
X0061659Y0036594D01*
X0060633Y0035567D01*
X0060077Y0034226D01*
X0060077Y0032774D01*
X0060445Y0031886D01*
X0060209Y0031650D01*
X0059600Y0031650D01*
X0059600Y0026300D01*
X0059400Y0026300D01*
X0059400Y0031650D01*
X0058103Y0031650D01*
X0057721Y0031548D01*
X0057379Y0031350D01*
X0057100Y0031071D01*
X0056902Y0030729D01*
X0056800Y0030347D01*
X0056800Y0027141D01*
X0053748Y0027141D01*
X0053109Y0026502D01*
X0053109Y0009098D01*
X0053748Y0008459D01*
X0057452Y0008459D01*
X0058091Y0009098D01*
X0058091Y0020753D01*
X0058103Y0020750D01*
X0059400Y0020750D01*
X0059400Y0026100D01*
X0059600Y0026100D01*
X0059600Y0020750D01*
X0060209Y0020750D01*
X0060802Y0020157D01*
X0061709Y0019781D01*
X0065091Y0019781D01*
X0065350Y0019889D01*
X0065609Y0019781D01*
X0068991Y0019781D01*
X0069898Y0020157D01*
X0070491Y0020750D01*
X0071200Y0020750D01*
X0071200Y0026100D01*
X0071400Y0026100D01*
X0071400Y0020750D01*
X0072009Y0020750D01*
X0072602Y0020157D01*
X0073509Y0019781D01*
X0076891Y0019781D01*
X0077200Y0019909D01*
X0077509Y0019781D01*
X0080891Y0019781D01*
X0081798Y0020157D01*
X0082391Y0020750D01*
X0083000Y0020750D01*
X0083000Y0026100D01*
X0083200Y0026100D01*
X0083200Y0020750D01*
X0083809Y0020750D01*
X0084402Y0020157D01*
X0085309Y0019781D01*
X0088691Y0019781D01*
X0089000Y0019909D01*
X0089309Y0019781D01*
X0092691Y0019781D01*
X0093598Y0020157D01*
X0094191Y0020750D01*
X0094800Y0020750D01*
X0094800Y0026100D01*
X0095000Y0026100D01*
X0095000Y0020750D01*
X0096297Y0020750D01*
X0096679Y0020852D01*
X0097021Y0021050D01*
X0097140Y0021168D01*
X0097148Y0021159D01*
X0100452Y0021159D01*
X0100800Y0021508D01*
X0101148Y0021159D01*
X0104452Y0021159D01*
X0104750Y0021458D01*
X0105048Y0021159D01*
X0105109Y0021159D01*
X0105109Y0014596D01*
X0105102Y0014593D01*
X0104407Y0013898D01*
X0104031Y0012991D01*
X0104031Y0012009D01*
X0104407Y0011102D01*
X0105102Y0010407D01*
X0106009Y0010031D01*
X0106389Y0010031D01*
X0106447Y0009997D01*
X0106584Y0010031D01*
X0106991Y0010031D01*
X0107179Y0010109D01*
X0107359Y0010109D01*
X0107486Y0010236D01*
X0107611Y0010288D01*
X0107725Y0010317D01*
X0107740Y0010342D01*
X0107898Y0010407D01*
X0108593Y0011102D01*
X0108968Y0012009D01*
X0108968Y0012991D01*
X0108593Y0013898D01*
X0108291Y0014200D01*
X0108291Y0016384D01*
X0108407Y0016102D01*
X0109102Y0015407D01*
X0110009Y0015031D01*
X0110991Y0015031D01*
X0111898Y0015407D01*
X0112593Y0016102D01*
X0112968Y0017009D01*
X0112968Y0017991D01*
X0112593Y0018898D01*
X0112091Y0019400D01*
X0112091Y0021159D01*
X0112352Y0021159D01*
X0112650Y0021458D01*
X0112948Y0021159D01*
X0116009Y0021159D01*
X0116009Y0009098D01*
X0116648Y0008459D01*
X0120352Y0008459D01*
X0120991Y0009098D01*
X0120991Y0026502D01*
X0120352Y0027141D01*
X0116891Y0027141D01*
X0116891Y0027609D01*
X0136717Y0027609D01*
X0139169Y0025158D01*
X0139169Y0020301D01*
X0138591Y0019723D01*
X0138591Y0015277D01*
X0138867Y0015000D01*
X0138591Y0014723D01*
X0138591Y0010277D01*
X0138931Y0009936D01*
X0138102Y0009593D01*
X0137407Y0008898D01*
X0137031Y0007991D01*
X0137031Y0007009D01*
X0137407Y0006102D01*
X0138102Y0005407D01*
X0139009Y0005031D01*
X0139991Y0005031D01*
X0140898Y0005407D01*
X0141593Y0006102D01*
X0141968Y0007009D01*
X0141968Y0007295D01*
X0142991Y0008317D01*
X0142991Y0009740D01*
X0143528Y0010277D01*
X0143528Y0014723D01*
X0143251Y0015000D01*
X0143528Y0015277D01*
X0143528Y0019723D01*
X0142950Y0020301D01*
X0142950Y0026724D01*
X0139391Y0030283D01*
X0138283Y0031391D01*
X0114717Y0031391D01*
X0114567Y0031241D01*
X0112948Y0031241D01*
X0112650Y0030942D01*
X0112352Y0031241D01*
X0112291Y0031241D01*
X0112291Y0031678D01*
X0112972Y0032359D01*
X0112972Y0034241D01*
X0111907Y0035306D01*
X0113000Y0036399D01*
X0113572Y0035826D01*
X0114407Y0034991D01*
X0115499Y0034539D01*
X0120501Y0034539D01*
X0121592Y0034991D01*
X0123000Y0036399D01*
X0123572Y0035826D01*
X0124407Y0034991D01*
X0125499Y0034539D01*
X0131501Y0034539D01*
X0132592Y0034991D01*
X0134000Y0036399D01*
X0134572Y0035826D01*
X0135407Y0034991D01*
X0136499Y0034539D01*
X0142501Y0034539D01*
X0143592Y0034991D01*
X0145000Y0036399D01*
X0145572Y0035826D01*
X0146407Y0034991D01*
X0147499Y0034539D01*
X0152501Y0034539D01*
X0153592Y0034991D01*
X0155000Y0036399D01*
X0155572Y0035826D01*
X0156407Y0034991D01*
X0157499Y0034539D01*
X0162501Y0034539D01*
X0163592Y0034991D01*
X0165141Y0036539D01*
X0165259Y0036539D01*
X0166939Y0034859D01*
X0166939Y0033430D01*
X0166383Y0032874D01*
X0165995Y0031936D01*
X0165709Y0031650D01*
X0165100Y0031650D01*
X0165100Y0026300D01*
X0164900Y0026300D01*
X0164900Y0031650D01*
X0163603Y0031650D01*
X0163221Y0031548D01*
X0162879Y0031350D01*
X0162600Y0031071D01*
X0162402Y0030729D01*
X0162300Y0030347D01*
X0162300Y0027141D01*
X0159248Y0027141D01*
X0158609Y0026502D01*
X0158609Y0009098D01*
X0159248Y0008459D01*
X0162952Y0008459D01*
X0163591Y0009098D01*
X0163591Y0020753D01*
X0163603Y0020750D01*
X0164900Y0020750D01*
X0164900Y0026100D01*
X0165100Y0026100D01*
X0165100Y0020750D01*
X0165709Y0020750D01*
X0166302Y0020157D01*
X0167209Y0019781D01*
X0170591Y0019781D01*
X0170850Y0019889D01*
X0171109Y0019781D01*
X0174491Y0019781D01*
X0175398Y0020157D01*
X0175991Y0020750D01*
X0176700Y0020750D01*
X0176700Y0026100D01*
X0176900Y0026100D01*
X0176900Y0020750D01*
X0177509Y0020750D01*
X0178102Y0020157D01*
X0179009Y0019781D01*
X0182391Y0019781D01*
X0182700Y0019909D01*
X0183009Y0019781D01*
X0186391Y0019781D01*
X0187298Y0020157D01*
X0187891Y0020750D01*
X0188500Y0020750D01*
X0188500Y0026100D01*
X0188700Y0026100D01*
X0188700Y0020750D01*
X0189309Y0020750D01*
X0189902Y0020157D01*
X0190809Y0019781D01*
X0194191Y0019781D01*
X0194500Y0019909D01*
X0194809Y0019781D01*
X0198191Y0019781D01*
X0199098Y0020157D01*
X0199691Y0020750D01*
X0200300Y0020750D01*
X0200300Y0026100D01*
X0200500Y0026100D01*
X0200500Y0020750D01*
X0201797Y0020750D01*
X0202179Y0020852D01*
X0202521Y0021050D01*
X0202640Y0021168D01*
X0202648Y0021159D01*
X0205952Y0021159D01*
X0206300Y0021508D01*
X0206648Y0021159D01*
X0209952Y0021159D01*
X0210250Y0021458D01*
X0210548Y0021159D01*
X0210609Y0021159D01*
X0210609Y0014100D01*
X0210407Y0013898D01*
X0210031Y0012991D01*
X0210031Y0012009D01*
X0210407Y0011102D01*
X0211102Y0010407D01*
X0212009Y0010031D01*
X0212991Y0010031D01*
X0213898Y0010407D01*
X0214593Y0011102D01*
X0214968Y0012009D01*
X0214968Y0012991D01*
X0214593Y0013898D01*
X0213898Y0014593D01*
X0213791Y0014637D01*
X0213791Y0021159D01*
X0213852Y0021159D01*
X0214200Y0021508D01*
X0214548Y0021159D01*
X0214609Y0021159D01*
X0214609Y0019100D01*
X0214407Y0018898D01*
X0214031Y0017991D01*
X0214031Y0017009D01*
X0214407Y0016102D01*
X0215102Y0015407D01*
X0216009Y0015031D01*
X0216991Y0015031D01*
X0217898Y0015407D01*
X0218593Y0016102D01*
X0218968Y0017009D01*
X0218968Y0017991D01*
X0218593Y0018898D01*
X0217898Y0019593D01*
X0217791Y0019637D01*
X0217791Y0021159D01*
X0217852Y0021159D01*
X0218150Y0021458D01*
X0218448Y0021159D01*
X0221509Y0021159D01*
X0221509Y0009098D01*
X0222148Y0008459D01*
X0225852Y0008459D01*
X0226491Y0009098D01*
X0226491Y0026502D01*
X0225852Y0027141D01*
X0222391Y0027141D01*
X0222391Y0027609D01*
X0241717Y0027609D01*
X0244169Y0025158D01*
X0244169Y0020301D01*
X0243591Y0019723D01*
X0243591Y0015277D01*
X0243867Y0015000D01*
X0243591Y0014723D01*
X0243591Y0010277D01*
X0243931Y0009936D01*
X0243102Y0009593D01*
X0242407Y0008898D01*
X0242031Y0007991D01*
X0242031Y0007009D01*
X0242407Y0006102D01*
X0243102Y0005407D01*
X0244009Y0005031D01*
X0244991Y0005031D01*
X0245898Y0005407D01*
X0246755Y0006493D02*
X0263057Y0006493D01*
X0262003Y0007491D02*
X0247165Y0007491D01*
X0247950Y0008490D02*
X0261172Y0008490D01*
X0260505Y0009488D02*
X0247950Y0009488D01*
X0248528Y0010487D02*
X0259970Y0010487D01*
X0259543Y0011485D02*
X0248528Y0011485D01*
X0248528Y0012484D02*
X0259211Y0012484D01*
X0258983Y0013482D02*
X0248528Y0013482D01*
X0248528Y0014481D02*
X0258850Y0014481D01*
X0258806Y0016478D02*
X0248528Y0016478D01*
X0248528Y0017476D02*
X0258919Y0017476D01*
X0259122Y0018475D02*
X0248528Y0018475D01*
X0248528Y0019473D02*
X0259408Y0019473D01*
X0259783Y0020472D02*
X0247950Y0020472D01*
X0247950Y0021470D02*
X0260264Y0021470D01*
X0260889Y0022469D02*
X0247950Y0022469D01*
X0247950Y0023467D02*
X0261658Y0023467D01*
X0262613Y0024466D02*
X0247950Y0024466D01*
X0247950Y0025464D02*
X0263822Y0025464D01*
X0265539Y0026463D02*
X0247950Y0026463D01*
X0247212Y0027461D02*
X0268511Y0027461D01*
X0270291Y0027461D02*
X0271291Y0027461D01*
X0271291Y0026463D02*
X0270291Y0026463D01*
X0270291Y0025464D02*
X0271291Y0025464D01*
X0271291Y0024466D02*
X0270291Y0024466D01*
X0270291Y0023467D02*
X0271291Y0023467D01*
X0271291Y0022469D02*
X0270291Y0022469D01*
X0270291Y0021470D02*
X0271291Y0021470D01*
X0271291Y0020472D02*
X0270291Y0020472D01*
X0270291Y0019473D02*
X0271291Y0019473D01*
X0271291Y0018475D02*
X0270291Y0018475D01*
X0270291Y0017476D02*
X0271291Y0017476D01*
X0271291Y0016478D02*
X0270291Y0016478D01*
X0270291Y0015479D02*
X0248528Y0015479D01*
X0243591Y0015479D02*
X0243409Y0015479D01*
X0243409Y0015277D02*
X0243409Y0019723D01*
X0242771Y0020362D01*
X0239111Y0020362D01*
X0238472Y0019723D01*
X0238472Y0019091D01*
X0234400Y0019091D01*
X0233898Y0019593D01*
X0232991Y0019968D01*
X0232009Y0019968D01*
X0231102Y0019593D01*
X0230407Y0018898D01*
X0230031Y0017991D01*
X0230031Y0017009D01*
X0230407Y0016102D01*
X0231102Y0015407D01*
X0232009Y0015031D01*
X0232991Y0015031D01*
X0233898Y0015407D01*
X0234400Y0015909D01*
X0238472Y0015909D01*
X0238472Y0015277D01*
X0238749Y0015000D01*
X0238472Y0014723D01*
X0238472Y0014091D01*
X0234400Y0014091D01*
X0233898Y0014593D01*
X0232991Y0014968D01*
X0232009Y0014968D01*
X0231102Y0014593D01*
X0230407Y0013898D01*
X0230031Y0012991D01*
X0230031Y0012009D01*
X0230407Y0011102D01*
X0231102Y0010407D01*
X0232009Y0010031D01*
X0232991Y0010031D01*
X0233898Y0010407D01*
X0234400Y0010909D01*
X0238472Y0010909D01*
X0238472Y0010277D01*
X0239111Y0009638D01*
X0242771Y0009638D01*
X0243409Y0010277D01*
X0243409Y0014723D01*
X0243133Y0015000D01*
X0243409Y0015277D01*
X0243409Y0014481D02*
X0243591Y0014481D01*
X0243591Y0013482D02*
X0243409Y0013482D01*
X0243409Y0012484D02*
X0243591Y0012484D01*
X0243591Y0011485D02*
X0243409Y0011485D01*
X0243409Y0010487D02*
X0243591Y0010487D01*
X0242997Y0009488D02*
X0226491Y0009488D01*
X0226491Y0010487D02*
X0231022Y0010487D01*
X0230248Y0011485D02*
X0226491Y0011485D01*
X0226491Y0012484D02*
X0230031Y0012484D01*
X0230235Y0013482D02*
X0226491Y0013482D01*
X0226491Y0014481D02*
X0230990Y0014481D01*
X0231030Y0015479D02*
X0226491Y0015479D01*
X0226491Y0016478D02*
X0230252Y0016478D01*
X0230031Y0017476D02*
X0226491Y0017476D01*
X0226491Y0018475D02*
X0230232Y0018475D01*
X0230982Y0019473D02*
X0226491Y0019473D01*
X0226491Y0020472D02*
X0244169Y0020472D01*
X0244169Y0021470D02*
X0226491Y0021470D01*
X0226491Y0022469D02*
X0244169Y0022469D01*
X0244169Y0023467D02*
X0226491Y0023467D01*
X0226491Y0024466D02*
X0244169Y0024466D01*
X0243862Y0025464D02*
X0226491Y0025464D01*
X0226491Y0026463D02*
X0242864Y0026463D01*
X0241865Y0027461D02*
X0222391Y0027461D01*
X0220100Y0026200D02*
X0220100Y0029100D01*
X0220500Y0029500D01*
X0217791Y0031455D02*
X0234760Y0031455D01*
X0233761Y0032454D02*
X0217791Y0032454D01*
X0217791Y0033452D02*
X0233409Y0033452D01*
X0233409Y0034451D02*
X0217791Y0034451D01*
X0217791Y0035449D02*
X0233409Y0035449D01*
X0233663Y0036448D02*
X0217791Y0036448D01*
X0217791Y0037446D02*
X0234662Y0037446D01*
X0235609Y0038445D02*
X0217791Y0038445D01*
X0217791Y0039443D02*
X0235609Y0039443D01*
X0235609Y0040442D02*
X0217791Y0040442D01*
X0217791Y0041440D02*
X0234775Y0041440D01*
X0233776Y0042439D02*
X0217791Y0042439D01*
X0218050Y0043437D02*
X0233409Y0043437D01*
X0233409Y0044436D02*
X0218472Y0044436D01*
X0218472Y0045434D02*
X0233409Y0045434D01*
X0233648Y0046433D02*
X0217780Y0046433D01*
X0216200Y0044800D02*
X0216200Y0026200D01*
X0216200Y0017800D01*
X0216500Y0017500D01*
X0218968Y0017476D02*
X0221509Y0017476D01*
X0221509Y0016478D02*
X0218748Y0016478D01*
X0217970Y0015479D02*
X0221509Y0015479D01*
X0221509Y0014481D02*
X0214010Y0014481D01*
X0213791Y0015479D02*
X0215030Y0015479D01*
X0214252Y0016478D02*
X0213791Y0016478D01*
X0213791Y0017476D02*
X0214031Y0017476D01*
X0214232Y0018475D02*
X0213791Y0018475D01*
X0213791Y0019473D02*
X0214609Y0019473D01*
X0214609Y0020472D02*
X0213791Y0020472D01*
X0214162Y0021470D02*
X0214237Y0021470D01*
X0210609Y0020472D02*
X0199413Y0020472D01*
X0200300Y0021470D02*
X0200500Y0021470D01*
X0200500Y0022469D02*
X0200300Y0022469D01*
X0200300Y0023467D02*
X0200500Y0023467D01*
X0200500Y0024466D02*
X0200300Y0024466D01*
X0200300Y0025464D02*
X0200500Y0025464D01*
X0200500Y0026463D02*
X0200300Y0026463D01*
X0200300Y0027461D02*
X0200500Y0027461D01*
X0200500Y0028460D02*
X0200300Y0028460D01*
X0200300Y0029458D02*
X0200500Y0029458D01*
X0200500Y0030457D02*
X0200300Y0030457D01*
X0200300Y0031455D02*
X0200500Y0031455D01*
X0199315Y0032454D02*
X0202709Y0032454D01*
X0202709Y0033452D02*
X0198738Y0033452D01*
X0198461Y0034451D02*
X0202709Y0034451D01*
X0202709Y0035449D02*
X0198461Y0035449D01*
X0198461Y0036448D02*
X0202709Y0036448D01*
X0202709Y0037446D02*
X0198461Y0037446D01*
X0198461Y0038445D02*
X0202709Y0038445D01*
X0202709Y0039443D02*
X0198461Y0039443D01*
X0198461Y0040442D02*
X0202709Y0040442D01*
X0202709Y0041440D02*
X0198461Y0041440D01*
X0198072Y0042439D02*
X0202709Y0042439D01*
X0202450Y0043437D02*
X0197164Y0043437D01*
X0196165Y0044436D02*
X0202028Y0044436D01*
X0202028Y0045434D02*
X0195167Y0045434D01*
X0194168Y0046433D02*
X0202720Y0046433D01*
X0204300Y0044800D02*
X0204300Y0026200D01*
X0208300Y0026200D02*
X0208300Y0044800D01*
X0209880Y0046433D02*
X0210620Y0046433D01*
X0212200Y0044800D02*
X0212200Y0026200D01*
X0212200Y0012800D01*
X0212500Y0012500D01*
X0214968Y0012484D02*
X0221509Y0012484D01*
X0221509Y0013482D02*
X0214765Y0013482D01*
X0214752Y0011485D02*
X0221509Y0011485D01*
X0221509Y0010487D02*
X0213978Y0010487D01*
X0211022Y0010487D02*
X0163591Y0010487D01*
X0163591Y0011485D02*
X0210248Y0011485D01*
X0210031Y0012484D02*
X0163591Y0012484D01*
X0163591Y0013482D02*
X0210235Y0013482D01*
X0210609Y0014481D02*
X0163591Y0014481D01*
X0163591Y0015479D02*
X0210609Y0015479D01*
X0210609Y0016478D02*
X0163591Y0016478D01*
X0163591Y0017476D02*
X0210609Y0017476D01*
X0210609Y0018475D02*
X0163591Y0018475D01*
X0163591Y0019473D02*
X0210609Y0019473D01*
X0206337Y0021470D02*
X0206262Y0021470D01*
X0196500Y0026200D02*
X0196500Y0031492D01*
X0195492Y0032500D01*
X0195492Y0040911D01*
X0182911Y0053492D01*
X0112411Y0053492D01*
X0107992Y0057911D01*
X0107992Y0069500D01*
X0108673Y0069500D01*
X0106008Y0069500D02*
X0105327Y0069500D01*
X0106008Y0069500D02*
X0106008Y0057089D01*
X0111589Y0051508D01*
X0182089Y0051508D01*
X0193508Y0040089D01*
X0193508Y0032500D01*
X0192500Y0031492D01*
X0192500Y0026200D01*
X0188700Y0026300D02*
X0188700Y0031650D01*
X0189309Y0031650D01*
X0189531Y0031872D01*
X0189531Y0032083D01*
X0189983Y0033174D01*
X0190539Y0033730D01*
X0190539Y0038859D01*
X0180859Y0048539D01*
X0177062Y0048539D01*
X0186209Y0039392D01*
X0186661Y0038301D01*
X0186661Y0033730D01*
X0187217Y0033174D01*
X0187668Y0032083D01*
X0187668Y0031872D01*
X0187891Y0031650D01*
X0188500Y0031650D01*
X0188500Y0026300D01*
X0188700Y0026300D01*
X0188700Y0026463D02*
X0188500Y0026463D01*
X0188500Y0027461D02*
X0188700Y0027461D01*
X0188700Y0028460D02*
X0188500Y0028460D01*
X0188500Y0029458D02*
X0188700Y0029458D01*
X0188700Y0030457D02*
X0188500Y0030457D01*
X0188500Y0031455D02*
X0188700Y0031455D01*
X0189685Y0032454D02*
X0187515Y0032454D01*
X0186938Y0033452D02*
X0190262Y0033452D01*
X0190539Y0034451D02*
X0186661Y0034451D01*
X0186661Y0035449D02*
X0190539Y0035449D01*
X0190539Y0036448D02*
X0186661Y0036448D01*
X0186661Y0037446D02*
X0190539Y0037446D01*
X0190539Y0038445D02*
X0186601Y0038445D01*
X0186158Y0039443D02*
X0189955Y0039443D01*
X0188957Y0040442D02*
X0185159Y0040442D01*
X0184161Y0041440D02*
X0187958Y0041440D01*
X0186960Y0042439D02*
X0183162Y0042439D01*
X0182164Y0043437D02*
X0185961Y0043437D01*
X0184963Y0044436D02*
X0181165Y0044436D01*
X0180167Y0045434D02*
X0183964Y0045434D01*
X0182966Y0046433D02*
X0179168Y0046433D01*
X0178170Y0047432D02*
X0181967Y0047432D01*
X0180969Y0048430D02*
X0177171Y0048430D01*
X0173911Y0047492D02*
X0106411Y0047492D01*
X0100992Y0052911D01*
X0100992Y0069500D01*
X0101673Y0069500D01*
X0099008Y0069500D02*
X0098327Y0069500D01*
X0099008Y0069500D02*
X0099008Y0052089D01*
X0105589Y0045508D01*
X0173089Y0045508D01*
X0181708Y0036889D01*
X0181708Y0032500D01*
X0180700Y0031492D01*
X0180700Y0026200D01*
X0184700Y0026200D02*
X0184700Y0031492D01*
X0183692Y0032500D01*
X0183692Y0037711D01*
X0173911Y0047492D01*
X0171859Y0042539D02*
X0178739Y0035659D01*
X0178739Y0033730D01*
X0178183Y0033174D01*
X0177731Y0032083D01*
X0177731Y0031872D01*
X0177509Y0031650D01*
X0176900Y0031650D01*
X0176900Y0026300D01*
X0176700Y0026300D01*
X0176700Y0031650D01*
X0175991Y0031650D01*
X0175768Y0031872D01*
X0175768Y0031883D01*
X0175317Y0032974D01*
X0174861Y0033430D01*
X0174861Y0037501D01*
X0174409Y0038592D01*
X0170462Y0042539D01*
X0171859Y0042539D01*
X0171960Y0042439D02*
X0170562Y0042439D01*
X0171561Y0041440D02*
X0172958Y0041440D01*
X0172559Y0040442D02*
X0173957Y0040442D01*
X0173558Y0039443D02*
X0174955Y0039443D01*
X0174470Y0038445D02*
X0175954Y0038445D01*
X0176952Y0037446D02*
X0174861Y0037446D01*
X0174861Y0036448D02*
X0177951Y0036448D01*
X0178739Y0035449D02*
X0174861Y0035449D01*
X0174861Y0034451D02*
X0178739Y0034451D01*
X0178462Y0033452D02*
X0174861Y0033452D01*
X0175532Y0032454D02*
X0177885Y0032454D01*
X0176900Y0031455D02*
X0176700Y0031455D01*
X0176700Y0030457D02*
X0176900Y0030457D01*
X0176900Y0029458D02*
X0176700Y0029458D01*
X0176700Y0028460D02*
X0176900Y0028460D01*
X0176900Y0027461D02*
X0176700Y0027461D01*
X0176700Y0026463D02*
X0176900Y0026463D01*
X0176900Y0025464D02*
X0176700Y0025464D01*
X0176700Y0024466D02*
X0176900Y0024466D01*
X0176900Y0023467D02*
X0176700Y0023467D01*
X0176700Y0022469D02*
X0176900Y0022469D01*
X0176900Y0021470D02*
X0176700Y0021470D01*
X0175713Y0020472D02*
X0177787Y0020472D01*
X0172800Y0026200D02*
X0172800Y0031292D01*
X0171892Y0032200D01*
X0171892Y0036911D01*
X0167311Y0041492D01*
X0163089Y0041492D01*
X0161089Y0039492D01*
X0158911Y0039492D01*
X0156911Y0041492D01*
X0153089Y0041492D01*
X0151089Y0039492D01*
X0148911Y0039492D01*
X0146911Y0041492D01*
X0143089Y0041492D01*
X0141089Y0039492D01*
X0137911Y0039492D01*
X0135911Y0041492D01*
X0132089Y0041492D01*
X0130089Y0039492D01*
X0126911Y0039492D01*
X0124911Y0041492D01*
X0121089Y0041492D01*
X0119089Y0039492D01*
X0116911Y0039492D01*
X0114911Y0041492D01*
X0111089Y0041492D01*
X0109089Y0039492D01*
X0105911Y0039492D01*
X0103911Y0041492D01*
X0100911Y0041492D01*
X0091492Y0050911D01*
X0091492Y0053089D01*
X0094492Y0056089D01*
X0094492Y0059911D01*
X0091492Y0062911D01*
X0091492Y0065089D01*
X0094492Y0068089D01*
X0094492Y0071911D01*
X0091492Y0074911D01*
X0091492Y0077089D01*
X0093742Y0079339D01*
X0093742Y0087500D01*
X0094423Y0087500D01*
X0091758Y0087500D02*
X0091758Y0080161D01*
X0089508Y0077911D01*
X0089508Y0074089D01*
X0092508Y0071089D01*
X0092508Y0068911D01*
X0089508Y0065911D01*
X0089508Y0062089D01*
X0092508Y0059089D01*
X0092508Y0056911D01*
X0089508Y0053911D01*
X0089508Y0050089D01*
X0100089Y0039508D01*
X0103089Y0039508D01*
X0105089Y0037508D01*
X0109911Y0037508D01*
X0111911Y0039508D01*
X0114089Y0039508D01*
X0116089Y0037508D01*
X0119911Y0037508D01*
X0121911Y0039508D01*
X0124089Y0039508D01*
X0126089Y0037508D01*
X0130911Y0037508D01*
X0132911Y0039508D01*
X0135089Y0039508D01*
X0137089Y0037508D01*
X0141911Y0037508D01*
X0143911Y0039508D01*
X0146089Y0039508D01*
X0148089Y0037508D01*
X0151911Y0037508D01*
X0153911Y0039508D01*
X0156089Y0039508D01*
X0158089Y0037508D01*
X0161911Y0037508D01*
X0163911Y0039508D01*
X0166489Y0039508D01*
X0169908Y0036089D01*
X0169908Y0032200D01*
X0168900Y0031192D01*
X0168900Y0026200D01*
X0165100Y0026463D02*
X0164900Y0026463D01*
X0164900Y0027461D02*
X0165100Y0027461D01*
X0165100Y0028460D02*
X0164900Y0028460D01*
X0164900Y0029458D02*
X0165100Y0029458D01*
X0165100Y0030457D02*
X0164900Y0030457D01*
X0164900Y0031455D02*
X0165100Y0031455D01*
X0166210Y0032454D02*
X0112972Y0032454D01*
X0112972Y0033452D02*
X0166939Y0033452D01*
X0166939Y0034451D02*
X0112762Y0034451D01*
X0112051Y0035449D02*
X0113949Y0035449D01*
X0110700Y0033300D02*
X0110700Y0026200D01*
X0110500Y0026000D01*
X0110500Y0017500D01*
X0112968Y0017476D02*
X0116009Y0017476D01*
X0116009Y0016478D02*
X0112748Y0016478D01*
X0111970Y0015479D02*
X0116009Y0015479D01*
X0116009Y0014481D02*
X0108291Y0014481D01*
X0108291Y0015479D02*
X0109030Y0015479D01*
X0108765Y0013482D02*
X0116009Y0013482D01*
X0116009Y0012484D02*
X0108968Y0012484D01*
X0108752Y0011485D02*
X0116009Y0011485D01*
X0116009Y0010487D02*
X0107978Y0010487D01*
X0106700Y0011700D02*
X0106700Y0026200D01*
X0106700Y0033300D01*
X0102800Y0033300D02*
X0102800Y0026200D01*
X0098800Y0026200D02*
X0098800Y0033300D01*
X0096528Y0033452D02*
X0094323Y0033452D01*
X0094230Y0034451D02*
X0096738Y0034451D01*
X0097737Y0035449D02*
X0093816Y0035449D01*
X0092887Y0036448D02*
X0101951Y0036448D01*
X0102572Y0035826D02*
X0102572Y0035826D01*
X0101737Y0035449D02*
X0099863Y0035449D01*
X0097952Y0037446D02*
X0003968Y0037446D01*
X0003968Y0036448D02*
X0061513Y0036448D01*
X0060584Y0035449D02*
X0003968Y0035449D01*
X0003968Y0034451D02*
X0060170Y0034451D01*
X0060077Y0033452D02*
X0003968Y0033452D01*
X0003968Y0032454D02*
X0060210Y0032454D01*
X0059600Y0031455D02*
X0059400Y0031455D01*
X0059400Y0030457D02*
X0059600Y0030457D01*
X0059600Y0029458D02*
X0059400Y0029458D01*
X0059400Y0028460D02*
X0059600Y0028460D01*
X0059600Y0027461D02*
X0059400Y0027461D01*
X0059400Y0026463D02*
X0059600Y0026463D01*
X0059600Y0025464D02*
X0059400Y0025464D01*
X0059400Y0024466D02*
X0059600Y0024466D01*
X0059600Y0023467D02*
X0059400Y0023467D01*
X0059400Y0022469D02*
X0059600Y0022469D01*
X0059600Y0021470D02*
X0059400Y0021470D01*
X0060487Y0020472D02*
X0058091Y0020472D01*
X0058091Y0019473D02*
X0105109Y0019473D01*
X0105109Y0018475D02*
X0058091Y0018475D01*
X0058091Y0017476D02*
X0105109Y0017476D01*
X0105109Y0016478D02*
X0058091Y0016478D01*
X0058091Y0015479D02*
X0105109Y0015479D01*
X0104990Y0014481D02*
X0058091Y0014481D01*
X0058091Y0013482D02*
X0104235Y0013482D01*
X0104031Y0012484D02*
X0058091Y0012484D01*
X0058091Y0011485D02*
X0104248Y0011485D01*
X0105022Y0010487D02*
X0058091Y0010487D01*
X0058091Y0009488D02*
X0116009Y0009488D01*
X0116618Y0008490D02*
X0057482Y0008490D01*
X0053718Y0008490D02*
X0025293Y0008490D01*
X0025959Y0009488D02*
X0053109Y0009488D01*
X0053109Y0010487D02*
X0026494Y0010487D01*
X0026921Y0011485D02*
X0053109Y0011485D01*
X0053109Y0012484D02*
X0027254Y0012484D01*
X0027482Y0013482D02*
X0053109Y0013482D01*
X0053109Y0014481D02*
X0027615Y0014481D01*
X0027659Y0016478D02*
X0053109Y0016478D01*
X0053109Y0017476D02*
X0027546Y0017476D01*
X0027342Y0018475D02*
X0053109Y0018475D01*
X0053109Y0019473D02*
X0027057Y0019473D01*
X0026681Y0020472D02*
X0053109Y0020472D01*
X0053109Y0021470D02*
X0026201Y0021470D01*
X0025576Y0022469D02*
X0053109Y0022469D01*
X0053109Y0023467D02*
X0024806Y0023467D01*
X0023851Y0024466D02*
X0053109Y0024466D01*
X0053109Y0025464D02*
X0022642Y0025464D01*
X0020926Y0026463D02*
X0053109Y0026463D01*
X0056800Y0027461D02*
X0017954Y0027461D01*
X0016173Y0027461D02*
X0015173Y0027461D01*
X0015173Y0026463D02*
X0016173Y0026463D01*
X0016173Y0025464D02*
X0015173Y0025464D01*
X0015173Y0024466D02*
X0016173Y0024466D01*
X0016173Y0023467D02*
X0015173Y0023467D01*
X0015173Y0022469D02*
X0016173Y0022469D01*
X0016173Y0021470D02*
X0015173Y0021470D01*
X0015173Y0020472D02*
X0016173Y0020472D01*
X0016173Y0019473D02*
X0015173Y0019473D01*
X0015173Y0018475D02*
X0016173Y0018475D01*
X0016173Y0017476D02*
X0015173Y0017476D01*
X0015173Y0016478D02*
X0016173Y0016478D01*
X0016173Y0015479D02*
X0053109Y0015479D01*
X0063400Y0026200D02*
X0063400Y0031092D01*
X0064408Y0032100D01*
X0064408Y0033500D01*
X0063727Y0033500D01*
X0066392Y0033500D02*
X0067073Y0033500D01*
X0066392Y0033500D02*
X0066392Y0032100D01*
X0067300Y0031192D01*
X0067300Y0026200D01*
X0071200Y0026463D02*
X0071400Y0026463D01*
X0071400Y0027461D02*
X0071200Y0027461D01*
X0071200Y0028460D02*
X0071400Y0028460D01*
X0071400Y0029458D02*
X0071200Y0029458D01*
X0071200Y0030457D02*
X0071400Y0030457D01*
X0071400Y0031455D02*
X0071200Y0031455D01*
X0070590Y0032454D02*
X0072010Y0032454D01*
X0071877Y0033452D02*
X0070723Y0033452D01*
X0070630Y0034451D02*
X0071970Y0034451D01*
X0072384Y0035449D02*
X0070216Y0035449D01*
X0069287Y0036448D02*
X0073313Y0036448D01*
X0075527Y0033500D02*
X0076208Y0033500D01*
X0076208Y0032400D01*
X0075200Y0031392D01*
X0075200Y0026200D01*
X0079200Y0026200D02*
X0079200Y0031392D01*
X0078192Y0032400D01*
X0078192Y0033500D01*
X0078873Y0033500D01*
X0082523Y0033452D02*
X0083677Y0033452D01*
X0083770Y0034451D02*
X0082430Y0034451D01*
X0082016Y0035449D02*
X0084184Y0035449D01*
X0085113Y0036448D02*
X0081087Y0036448D01*
X0082390Y0032454D02*
X0083810Y0032454D01*
X0083200Y0031455D02*
X0083000Y0031455D01*
X0083000Y0030457D02*
X0083200Y0030457D01*
X0083200Y0029458D02*
X0083000Y0029458D01*
X0083000Y0028460D02*
X0083200Y0028460D01*
X0083200Y0027461D02*
X0083000Y0027461D01*
X0083000Y0026463D02*
X0083200Y0026463D01*
X0083200Y0025464D02*
X0083000Y0025464D01*
X0083000Y0024466D02*
X0083200Y0024466D01*
X0083200Y0023467D02*
X0083000Y0023467D01*
X0083000Y0022469D02*
X0083200Y0022469D01*
X0083200Y0021470D02*
X0083000Y0021470D01*
X0082113Y0020472D02*
X0084087Y0020472D01*
X0087000Y0026200D02*
X0087000Y0031292D01*
X0088008Y0032300D01*
X0088008Y0033500D01*
X0087327Y0033500D01*
X0089992Y0033500D02*
X0090673Y0033500D01*
X0089992Y0033500D02*
X0089992Y0032300D01*
X0091000Y0031292D01*
X0091000Y0026200D01*
X0094800Y0026463D02*
X0095000Y0026463D01*
X0095000Y0027461D02*
X0094800Y0027461D01*
X0094800Y0028460D02*
X0095000Y0028460D01*
X0095000Y0029458D02*
X0094800Y0029458D01*
X0094800Y0030457D02*
X0095000Y0030457D01*
X0095000Y0031455D02*
X0094800Y0031455D01*
X0094190Y0032454D02*
X0096528Y0032454D01*
X0096839Y0031455D02*
X0097209Y0031455D01*
X0098500Y0026500D02*
X0098800Y0026200D01*
X0095000Y0025464D02*
X0094800Y0025464D01*
X0094800Y0024466D02*
X0095000Y0024466D01*
X0095000Y0023467D02*
X0094800Y0023467D01*
X0094800Y0022469D02*
X0095000Y0022469D01*
X0095000Y0021470D02*
X0094800Y0021470D01*
X0093913Y0020472D02*
X0105109Y0020472D01*
X0100837Y0021470D02*
X0100762Y0021470D01*
X0106500Y0026400D02*
X0106700Y0026200D01*
X0110500Y0026400D02*
X0110700Y0026200D01*
X0114600Y0026200D02*
X0114600Y0028600D01*
X0115500Y0029500D01*
X0116891Y0027461D02*
X0136865Y0027461D01*
X0137864Y0026463D02*
X0120991Y0026463D01*
X0120991Y0025464D02*
X0138862Y0025464D01*
X0139169Y0024466D02*
X0120991Y0024466D01*
X0120991Y0023467D02*
X0139169Y0023467D01*
X0139169Y0022469D02*
X0120991Y0022469D01*
X0120991Y0021470D02*
X0139169Y0021470D01*
X0139169Y0020472D02*
X0120991Y0020472D01*
X0120991Y0019473D02*
X0125982Y0019473D01*
X0126102Y0019593D02*
X0125407Y0018898D01*
X0125031Y0017991D01*
X0125031Y0017009D01*
X0125407Y0016102D01*
X0126102Y0015407D01*
X0127009Y0015031D01*
X0127991Y0015031D01*
X0128898Y0015407D01*
X0129400Y0015909D01*
X0133472Y0015909D01*
X0133472Y0015277D01*
X0133749Y0015000D01*
X0133472Y0014723D01*
X0133472Y0014091D01*
X0129400Y0014091D01*
X0128898Y0014593D01*
X0127991Y0014968D01*
X0127009Y0014968D01*
X0126102Y0014593D01*
X0125407Y0013898D01*
X0125031Y0012991D01*
X0125031Y0012009D01*
X0125407Y0011102D01*
X0126102Y0010407D01*
X0127009Y0010031D01*
X0127991Y0010031D01*
X0128898Y0010407D01*
X0129400Y0010909D01*
X0133472Y0010909D01*
X0133472Y0010277D01*
X0134111Y0009638D01*
X0137771Y0009638D01*
X0138409Y0010277D01*
X0138409Y0014723D01*
X0138133Y0015000D01*
X0138409Y0015277D01*
X0138409Y0019723D01*
X0137771Y0020362D01*
X0134111Y0020362D01*
X0133472Y0019723D01*
X0133472Y0019091D01*
X0129400Y0019091D01*
X0128898Y0019593D01*
X0127991Y0019968D01*
X0127009Y0019968D01*
X0126102Y0019593D01*
X0125232Y0018475D02*
X0120991Y0018475D01*
X0120991Y0017476D02*
X0125031Y0017476D01*
X0125252Y0016478D02*
X0120991Y0016478D01*
X0120991Y0015479D02*
X0126030Y0015479D01*
X0125990Y0014481D02*
X0120991Y0014481D01*
X0120991Y0013482D02*
X0125235Y0013482D01*
X0125031Y0012484D02*
X0120991Y0012484D01*
X0120991Y0011485D02*
X0125248Y0011485D01*
X0126022Y0010487D02*
X0120991Y0010487D01*
X0120991Y0009488D02*
X0137997Y0009488D01*
X0138409Y0010487D02*
X0138591Y0010487D01*
X0138591Y0011485D02*
X0138409Y0011485D01*
X0138409Y0012484D02*
X0138591Y0012484D01*
X0138591Y0013482D02*
X0138409Y0013482D01*
X0138409Y0014481D02*
X0138591Y0014481D01*
X0138591Y0015479D02*
X0138409Y0015479D01*
X0138409Y0016478D02*
X0138591Y0016478D01*
X0138591Y0017476D02*
X0138409Y0017476D01*
X0138409Y0018475D02*
X0138591Y0018475D01*
X0138591Y0019473D02*
X0138409Y0019473D01*
X0135941Y0017500D02*
X0127500Y0017500D01*
X0129018Y0019473D02*
X0133472Y0019473D01*
X0133472Y0015479D02*
X0128970Y0015479D01*
X0129010Y0014481D02*
X0133472Y0014481D01*
X0135941Y0012500D02*
X0127500Y0012500D01*
X0128978Y0010487D02*
X0133472Y0010487D01*
X0137238Y0008490D02*
X0120382Y0008490D01*
X0116009Y0018475D02*
X0112768Y0018475D01*
X0112091Y0019473D02*
X0116009Y0019473D01*
X0116009Y0020472D02*
X0112091Y0020472D01*
X0106500Y0012500D02*
X0106700Y0011700D01*
X0112291Y0031455D02*
X0163061Y0031455D01*
X0162329Y0030457D02*
X0139217Y0030457D01*
X0140215Y0029458D02*
X0162300Y0029458D01*
X0162300Y0028460D02*
X0141214Y0028460D01*
X0142212Y0027461D02*
X0162300Y0027461D01*
X0164900Y0025464D02*
X0165100Y0025464D01*
X0165100Y0024466D02*
X0164900Y0024466D01*
X0164900Y0023467D02*
X0165100Y0023467D01*
X0165100Y0022469D02*
X0164900Y0022469D01*
X0164900Y0021470D02*
X0165100Y0021470D01*
X0165987Y0020472D02*
X0163591Y0020472D01*
X0158609Y0020472D02*
X0142950Y0020472D01*
X0142950Y0021470D02*
X0158609Y0021470D01*
X0158609Y0022469D02*
X0142950Y0022469D01*
X0142950Y0023467D02*
X0158609Y0023467D01*
X0158609Y0024466D02*
X0142950Y0024466D01*
X0142950Y0025464D02*
X0158609Y0025464D01*
X0158609Y0026463D02*
X0142950Y0026463D01*
X0143528Y0019473D02*
X0158609Y0019473D01*
X0158609Y0018475D02*
X0143528Y0018475D01*
X0143528Y0017476D02*
X0158609Y0017476D01*
X0158609Y0016478D02*
X0143528Y0016478D01*
X0143528Y0015479D02*
X0158609Y0015479D01*
X0158609Y0014481D02*
X0143528Y0014481D01*
X0143528Y0013482D02*
X0158609Y0013482D01*
X0158609Y0012484D02*
X0143528Y0012484D01*
X0143528Y0011485D02*
X0158609Y0011485D01*
X0158609Y0010487D02*
X0143528Y0010487D01*
X0142991Y0009488D02*
X0158609Y0009488D01*
X0159218Y0008490D02*
X0142991Y0008490D01*
X0142165Y0007491D02*
X0242031Y0007491D01*
X0242238Y0008490D02*
X0225882Y0008490D01*
X0222118Y0008490D02*
X0162982Y0008490D01*
X0163591Y0009488D02*
X0221509Y0009488D01*
X0232500Y0012500D02*
X0240941Y0012500D01*
X0238472Y0014481D02*
X0234010Y0014481D01*
X0233970Y0015479D02*
X0238472Y0015479D01*
X0240941Y0017500D02*
X0232500Y0017500D01*
X0234018Y0019473D02*
X0238472Y0019473D01*
X0243409Y0019473D02*
X0243591Y0019473D01*
X0243591Y0018475D02*
X0243409Y0018475D01*
X0243409Y0017476D02*
X0243591Y0017476D01*
X0243591Y0016478D02*
X0243409Y0016478D01*
X0238472Y0010487D02*
X0233978Y0010487D01*
X0242245Y0006493D02*
X0141755Y0006493D01*
X0140985Y0005494D02*
X0243015Y0005494D01*
X0221509Y0018475D02*
X0218768Y0018475D01*
X0218018Y0019473D02*
X0221509Y0019473D01*
X0221509Y0020472D02*
X0217791Y0020472D01*
X0202709Y0031455D02*
X0202339Y0031455D01*
X0188700Y0025464D02*
X0188500Y0025464D01*
X0188500Y0024466D02*
X0188700Y0024466D01*
X0188700Y0023467D02*
X0188500Y0023467D01*
X0188500Y0022469D02*
X0188700Y0022469D01*
X0188700Y0021470D02*
X0188500Y0021470D01*
X0187613Y0020472D02*
X0189587Y0020472D01*
X0166349Y0035449D02*
X0164051Y0035449D01*
X0165049Y0036448D02*
X0165351Y0036448D01*
X0155949Y0035449D02*
X0154051Y0035449D01*
X0145949Y0035449D02*
X0144051Y0035449D01*
X0134949Y0035449D02*
X0133051Y0035449D01*
X0123949Y0035449D02*
X0122051Y0035449D01*
X0096954Y0038445D02*
X0003968Y0038445D01*
X0003968Y0039443D02*
X0095955Y0039443D01*
X0094957Y0040442D02*
X0003968Y0040442D01*
X0003968Y0041440D02*
X0093958Y0041440D01*
X0092960Y0042439D02*
X0003968Y0042439D01*
X0003968Y0043437D02*
X0091961Y0043437D01*
X0090963Y0044436D02*
X0003968Y0044436D01*
X0003968Y0045434D02*
X0089964Y0045434D01*
X0088966Y0046433D02*
X0003968Y0046433D01*
X0003968Y0047432D02*
X0087967Y0047432D01*
X0086982Y0048430D02*
X0003968Y0048430D01*
X0003968Y0049429D02*
X0086568Y0049429D01*
X0086539Y0050427D02*
X0003968Y0050427D01*
X0003968Y0051426D02*
X0086539Y0051426D01*
X0086539Y0052424D02*
X0003968Y0052424D01*
X0003968Y0053423D02*
X0086539Y0053423D01*
X0086539Y0054421D02*
X0003968Y0054421D01*
X0003968Y0055420D02*
X0086920Y0055420D01*
X0087817Y0056418D02*
X0003968Y0056418D01*
X0003968Y0057417D02*
X0088815Y0057417D01*
X0088984Y0058415D02*
X0003968Y0058415D01*
X0003968Y0059414D02*
X0087985Y0059414D01*
X0086989Y0060412D02*
X0003968Y0060412D01*
X0003968Y0061411D02*
X0020490Y0061411D01*
X0020378Y0061441D02*
X0020759Y0061339D01*
X0024000Y0061339D01*
X0024000Y0065488D01*
X0025000Y0065488D01*
X0025000Y0061339D01*
X0028241Y0061339D01*
X0028500Y0061408D01*
X0028759Y0061339D01*
X0032000Y0061339D01*
X0032000Y0065488D01*
X0033000Y0065488D01*
X0033000Y0061339D01*
X0036241Y0061339D01*
X0036500Y0061408D01*
X0036759Y0061339D01*
X0040000Y0061339D01*
X0040000Y0065488D01*
X0041000Y0065488D01*
X0041000Y0061339D01*
X0044241Y0061339D01*
X0044622Y0061441D01*
X0044964Y0061638D01*
X0045244Y0061918D01*
X0045441Y0062260D01*
X0045543Y0062641D01*
X0045543Y0065488D01*
X0041000Y0065488D01*
X0041000Y0066488D01*
X0045543Y0066488D01*
X0045543Y0069335D01*
X0045441Y0069717D01*
X0045244Y0070059D01*
X0044964Y0070338D01*
X0044622Y0070536D01*
X0044241Y0070638D01*
X0041000Y0070638D01*
X0041000Y0066488D01*
X0040000Y0066488D01*
X0040000Y0065488D01*
X0033000Y0065488D01*
X0033000Y0066488D01*
X0037543Y0066488D01*
X0040000Y0066488D01*
X0040000Y0070638D01*
X0036759Y0070638D01*
X0036500Y0070568D01*
X0036241Y0070638D01*
X0033000Y0070638D01*
X0033000Y0066488D01*
X0032000Y0066488D01*
X0032000Y0065488D01*
X0025000Y0065488D01*
X0025000Y0066488D01*
X0029543Y0066488D01*
X0032000Y0066488D01*
X0032000Y0070638D01*
X0028759Y0070638D01*
X0028500Y0070568D01*
X0028241Y0070638D01*
X0025000Y0070638D01*
X0025000Y0066488D01*
X0024000Y0066488D01*
X0024000Y0065488D01*
X0019457Y0065488D01*
X0019457Y0062641D01*
X0019559Y0062260D01*
X0019756Y0061918D01*
X0020036Y0061638D01*
X0020378Y0061441D01*
X0019519Y0062409D02*
X0003968Y0062409D01*
X0003968Y0063408D02*
X0019457Y0063408D01*
X0019457Y0064406D02*
X0003968Y0064406D01*
X0003968Y0065405D02*
X0019457Y0065405D01*
X0019457Y0066488D02*
X0024000Y0066488D01*
X0024000Y0070638D01*
X0020759Y0070638D01*
X0020378Y0070536D01*
X0020036Y0070338D01*
X0019756Y0070059D01*
X0019559Y0069717D01*
X0019457Y0069335D01*
X0019457Y0066488D01*
X0019457Y0067402D02*
X0003968Y0067402D01*
X0003968Y0068400D02*
X0019457Y0068400D01*
X0019474Y0069399D02*
X0003968Y0069399D01*
X0003968Y0070397D02*
X0020138Y0070397D01*
X0020505Y0072772D02*
X0019866Y0073410D01*
X0019866Y0077679D01*
X0015958Y0080121D01*
X0015717Y0080121D01*
X0015315Y0080523D01*
X0014834Y0080824D01*
X0014780Y0081058D01*
X0014609Y0081229D01*
X0014609Y0081796D01*
X0014482Y0082350D01*
X0014609Y0082554D01*
X0014609Y0084900D01*
X0014407Y0085102D01*
X0014031Y0086009D01*
X0014031Y0086991D01*
X0014407Y0087898D01*
X0015102Y0088593D01*
X0016009Y0088968D01*
X0016991Y0088968D01*
X0017898Y0088593D01*
X0018593Y0087898D01*
X0018968Y0086991D01*
X0018968Y0086009D01*
X0018593Y0085102D01*
X0018391Y0084900D01*
X0018391Y0083060D01*
X0021283Y0081252D01*
X0028495Y0081252D01*
X0028500Y0081247D01*
X0028505Y0081252D01*
X0030609Y0081252D01*
X0030609Y0081717D01*
X0029717Y0082609D01*
X0029380Y0082609D01*
X0029178Y0082407D01*
X0028616Y0082175D01*
X0028563Y0082121D01*
X0028487Y0082121D01*
X0028271Y0082031D01*
X0027288Y0082031D01*
X0027072Y0082121D01*
X0026996Y0082121D01*
X0026943Y0082175D01*
X0026381Y0082407D01*
X0025687Y0083102D01*
X0025311Y0084009D01*
X0025311Y0084991D01*
X0025687Y0085898D01*
X0026381Y0086593D01*
X0027288Y0086968D01*
X0028271Y0086968D01*
X0029178Y0086593D01*
X0029380Y0086391D01*
X0031283Y0086391D01*
X0032391Y0085283D01*
X0034391Y0083283D01*
X0034391Y0081252D01*
X0036495Y0081252D01*
X0036500Y0081247D01*
X0036505Y0081252D01*
X0037819Y0081252D01*
X0037033Y0082031D01*
X0036737Y0082031D01*
X0035830Y0082407D01*
X0035136Y0083102D01*
X0034760Y0084009D01*
X0034760Y0084991D01*
X0035136Y0085898D01*
X0035830Y0086593D01*
X0036737Y0086968D01*
X0037719Y0086968D01*
X0038627Y0086593D01*
X0039321Y0085898D01*
X0039697Y0084991D01*
X0039697Y0084715D01*
X0041310Y0083116D01*
X0041319Y0083116D01*
X0041864Y0082566D01*
X0042415Y0082020D01*
X0042416Y0082010D01*
X0042422Y0082004D01*
X0042419Y0081252D01*
X0044495Y0081252D01*
X0045134Y0080613D01*
X0045134Y0073410D01*
X0044495Y0072772D01*
X0036505Y0072772D01*
X0036500Y0072777D01*
X0036495Y0072772D01*
X0028505Y0072772D01*
X0028500Y0072777D01*
X0028495Y0072772D01*
X0020505Y0072772D01*
X0019884Y0073393D02*
X0003968Y0073393D01*
X0003968Y0074391D02*
X0019866Y0074391D01*
X0019866Y0075390D02*
X0013469Y0075390D01*
X0013508Y0075406D02*
X0014535Y0076433D01*
X0015091Y0077774D01*
X0015091Y0079226D01*
X0014535Y0080567D01*
X0013508Y0081594D01*
X0012167Y0082150D01*
X0010715Y0082150D01*
X0009374Y0081594D01*
X0008347Y0080567D01*
X0007791Y0079226D01*
X0007791Y0077774D01*
X0008347Y0076433D01*
X0009374Y0075406D01*
X0010715Y0074850D01*
X0012167Y0074850D01*
X0013508Y0075406D01*
X0014491Y0076388D02*
X0019866Y0076388D01*
X0019866Y0077387D02*
X0014930Y0077387D01*
X0015091Y0078385D02*
X0018735Y0078385D01*
X0017138Y0079384D02*
X0015025Y0079384D01*
X0014612Y0080382D02*
X0015456Y0080382D01*
X0014609Y0081381D02*
X0013721Y0081381D01*
X0014500Y0082379D02*
X0003968Y0082379D01*
X0003968Y0081381D02*
X0009161Y0081381D01*
X0008270Y0080382D02*
X0003968Y0080382D01*
X0003968Y0079384D02*
X0007857Y0079384D01*
X0007791Y0078385D02*
X0003968Y0078385D01*
X0003968Y0077387D02*
X0007952Y0077387D01*
X0008391Y0076388D02*
X0003968Y0076388D01*
X0003968Y0075390D02*
X0009413Y0075390D01*
X0003968Y0072394D02*
X0087004Y0072394D01*
X0086583Y0073393D02*
X0045116Y0073393D01*
X0045134Y0074391D02*
X0086539Y0074391D01*
X0086539Y0075390D02*
X0045134Y0075390D01*
X0045134Y0076388D02*
X0086539Y0076388D01*
X0086539Y0077387D02*
X0045134Y0077387D01*
X0045134Y0078385D02*
X0086539Y0078385D01*
X0086905Y0079384D02*
X0045134Y0079384D01*
X0045134Y0080382D02*
X0087781Y0080382D01*
X0088780Y0081381D02*
X0062083Y0081381D01*
X0062144Y0081406D02*
X0063170Y0082433D01*
X0063726Y0083774D01*
X0063726Y0085226D01*
X0063381Y0086058D01*
X0076059Y0098736D01*
X0095941Y0098736D01*
X0118654Y0076023D01*
X0119489Y0075188D01*
X0120580Y0074736D01*
X0163646Y0074736D01*
X0165765Y0075614D01*
X0167386Y0077235D01*
X0167386Y0077235D01*
X0168264Y0079354D01*
X0168264Y0138646D01*
X0167386Y0140765D01*
X0165765Y0142386D01*
X0163646Y0143264D01*
X0160521Y0143264D01*
X0161436Y0143643D01*
X0162507Y0144714D01*
X0163087Y0146113D01*
X0163087Y0147627D01*
X0162507Y0149027D01*
X0161436Y0150098D01*
X0160037Y0150677D01*
X0158522Y0150677D01*
X0157330Y0150183D01*
X0156917Y0151182D01*
X0154917Y0153182D01*
X0154082Y0154017D01*
X0152990Y0154468D01*
X0143910Y0154468D01*
X0142818Y0154017D01*
X0140857Y0152055D01*
X0140532Y0152055D01*
X0138626Y0151266D01*
X0137167Y0149807D01*
X0136378Y0147901D01*
X0136378Y0145839D01*
X0137167Y0143933D01*
X0138626Y0142474D01*
X0140532Y0141685D01*
X0142594Y0141685D01*
X0144500Y0142474D01*
X0145500Y0143474D01*
X0146469Y0142506D01*
X0146469Y0141973D01*
X0146920Y0140881D01*
X0151614Y0136188D01*
X0152705Y0135736D01*
X0160736Y0135736D01*
X0160736Y0130499D01*
X0160683Y0130499D01*
X0158731Y0129371D01*
X0157604Y0127419D01*
X0157604Y0124528D01*
X0158566Y0122860D01*
X0157604Y0121193D01*
X0157604Y0118302D01*
X0158566Y0116634D01*
X0157604Y0114967D01*
X0157604Y0112075D01*
X0158566Y0110408D01*
X0157604Y0108740D01*
X0157604Y0105849D01*
X0158731Y0103897D01*
X0160683Y0102770D01*
X0160736Y0102770D01*
X0160736Y0082264D01*
X0123059Y0082264D01*
X0099511Y0105812D01*
X0099275Y0105909D01*
X0099841Y0105909D01*
X0101909Y0103841D01*
X0102841Y0102909D01*
X0108841Y0102909D01*
X0125228Y0086522D01*
X0125228Y0085559D01*
X0126559Y0084228D01*
X0128441Y0084228D01*
X0129500Y0085287D01*
X0130559Y0084228D01*
X0132441Y0084228D01*
X0133772Y0085559D01*
X0133772Y0087441D01*
X0132441Y0088772D01*
X0131478Y0088772D01*
X0111159Y0109091D01*
X0108875Y0109091D01*
X0109968Y0110183D01*
X0110591Y0111686D01*
X0110591Y0119314D01*
X0109968Y0120817D01*
X0108817Y0121968D01*
X0107314Y0122591D01*
X0105686Y0122591D01*
X0104183Y0121968D01*
X0103032Y0120817D01*
X0102409Y0119314D01*
X0102409Y0111840D01*
X0100591Y0113659D01*
X0100591Y0119314D01*
X0099968Y0120817D01*
X0098817Y0121968D01*
X0097314Y0122591D01*
X0095686Y0122591D01*
X0094183Y0121968D01*
X0093032Y0120817D01*
X0092409Y0119314D01*
X0092409Y0111840D01*
X0090591Y0113659D01*
X0090591Y0119314D01*
X0089968Y0120817D01*
X0088817Y0121968D01*
X0087314Y0122591D01*
X0085686Y0122591D01*
X0084183Y0121968D01*
X0083032Y0120817D01*
X0082409Y0119314D01*
X0082409Y0111686D01*
X0083032Y0110183D01*
X0084183Y0109032D01*
X0085686Y0108409D01*
X0087314Y0108409D01*
X0088817Y0109032D01*
X0089768Y0109983D01*
X0092909Y0106841D01*
X0093487Y0106264D01*
X0073580Y0106264D01*
X0072489Y0105812D01*
X0071654Y0104977D01*
X0055188Y0088511D01*
X0054774Y0087512D01*
X0053830Y0086567D01*
X0053274Y0085226D01*
X0053274Y0083774D01*
X0053830Y0082433D01*
X0054856Y0081406D01*
X0056198Y0080850D01*
X0057650Y0080850D01*
X0058500Y0081203D01*
X0059350Y0080850D01*
X0060802Y0080850D01*
X0062144Y0081406D01*
X0063117Y0082379D02*
X0088789Y0082379D01*
X0088789Y0083378D02*
X0063562Y0083378D01*
X0063726Y0084376D02*
X0088789Y0084376D01*
X0088041Y0085375D02*
X0063664Y0085375D01*
X0063696Y0086373D02*
X0087593Y0086373D01*
X0087427Y0087372D02*
X0064695Y0087372D01*
X0065693Y0088370D02*
X0087487Y0088370D01*
X0087901Y0089369D02*
X0066692Y0089369D01*
X0067690Y0090368D02*
X0088783Y0090368D01*
X0091077Y0087500D02*
X0091758Y0087500D01*
X0096711Y0084376D02*
X0110301Y0084376D01*
X0111299Y0083378D02*
X0096711Y0083378D01*
X0096711Y0082379D02*
X0112298Y0082379D01*
X0113296Y0081381D02*
X0096711Y0081381D01*
X0096711Y0080382D02*
X0114295Y0080382D01*
X0115293Y0079384D02*
X0096711Y0079384D01*
X0096560Y0078385D02*
X0116292Y0078385D01*
X0117290Y0077387D02*
X0095988Y0077387D01*
X0094990Y0076388D02*
X0118289Y0076388D01*
X0119287Y0075390D02*
X0095211Y0075390D01*
X0096210Y0074391D02*
X0272243Y0074391D01*
X0271808Y0074572D02*
X0273511Y0073866D01*
X0275355Y0073866D01*
X0277058Y0074572D01*
X0278361Y0075875D01*
X0279067Y0077578D01*
X0279067Y0079422D01*
X0278361Y0081125D01*
X0277058Y0082428D01*
X0275355Y0083134D01*
X0273511Y0083134D01*
X0271808Y0082428D01*
X0270505Y0081125D01*
X0269799Y0079422D01*
X0269799Y0077578D01*
X0270505Y0075875D01*
X0271808Y0074572D01*
X0270990Y0075390D02*
X0165224Y0075390D01*
X0165765Y0075614D02*
X0165765Y0075614D01*
X0166540Y0076388D02*
X0270292Y0076388D01*
X0269878Y0077387D02*
X0167449Y0077387D01*
X0167863Y0078385D02*
X0269799Y0078385D01*
X0269799Y0079384D02*
X0168264Y0079384D01*
X0168264Y0080382D02*
X0270197Y0080382D01*
X0270761Y0081381D02*
X0168264Y0081381D01*
X0168264Y0082379D02*
X0271759Y0082379D01*
X0277107Y0082379D02*
X0282496Y0082379D01*
X0282496Y0081381D02*
X0278105Y0081381D01*
X0278669Y0080382D02*
X0282496Y0080382D01*
X0282496Y0079384D02*
X0279067Y0079384D01*
X0279067Y0078385D02*
X0282496Y0078385D01*
X0282496Y0077387D02*
X0278988Y0077387D01*
X0278574Y0076388D02*
X0282496Y0076388D01*
X0282496Y0075390D02*
X0277876Y0075390D01*
X0276623Y0074391D02*
X0282496Y0074391D01*
X0282496Y0073393D02*
X0097091Y0073393D01*
X0089002Y0070397D02*
X0044862Y0070397D01*
X0045526Y0069399D02*
X0088798Y0069399D01*
X0087799Y0068400D02*
X0045543Y0068400D01*
X0045543Y0067402D02*
X0086912Y0067402D01*
X0086539Y0066403D02*
X0041000Y0066403D01*
X0041000Y0065405D02*
X0040000Y0065405D01*
X0040000Y0066403D02*
X0033000Y0066403D01*
X0033000Y0065405D02*
X0032000Y0065405D01*
X0032000Y0066403D02*
X0025000Y0066403D01*
X0025000Y0065405D02*
X0024000Y0065405D01*
X0024000Y0066403D02*
X0003968Y0066403D01*
X0003968Y0071396D02*
X0088003Y0071396D01*
X0086539Y0065405D02*
X0045543Y0065405D01*
X0045543Y0064406D02*
X0086539Y0064406D01*
X0086539Y0063408D02*
X0045543Y0063408D01*
X0045481Y0062409D02*
X0086539Y0062409D01*
X0086576Y0061411D02*
X0044510Y0061411D01*
X0041000Y0061411D02*
X0040000Y0061411D01*
X0040000Y0062409D02*
X0041000Y0062409D01*
X0041000Y0063408D02*
X0040000Y0063408D01*
X0040000Y0064406D02*
X0041000Y0064406D01*
X0041000Y0067402D02*
X0040000Y0067402D01*
X0040000Y0068400D02*
X0041000Y0068400D01*
X0041000Y0069399D02*
X0040000Y0069399D01*
X0040000Y0070397D02*
X0041000Y0070397D01*
X0033000Y0070397D02*
X0032000Y0070397D01*
X0032000Y0069399D02*
X0033000Y0069399D01*
X0033000Y0068400D02*
X0032000Y0068400D01*
X0032000Y0067402D02*
X0033000Y0067402D01*
X0033000Y0064406D02*
X0032000Y0064406D01*
X0032000Y0063408D02*
X0033000Y0063408D01*
X0033000Y0062409D02*
X0032000Y0062409D01*
X0032000Y0061411D02*
X0033000Y0061411D01*
X0025000Y0061411D02*
X0024000Y0061411D01*
X0024000Y0062409D02*
X0025000Y0062409D01*
X0025000Y0063408D02*
X0024000Y0063408D01*
X0024000Y0064406D02*
X0025000Y0064406D01*
X0025000Y0067402D02*
X0024000Y0067402D01*
X0024000Y0068400D02*
X0025000Y0068400D01*
X0025000Y0069399D02*
X0024000Y0069399D01*
X0024000Y0070397D02*
X0025000Y0070397D01*
X0021077Y0081381D02*
X0030609Y0081381D01*
X0029947Y0082379D02*
X0029111Y0082379D01*
X0026449Y0082379D02*
X0019479Y0082379D01*
X0018391Y0083378D02*
X0025572Y0083378D01*
X0025311Y0084376D02*
X0018391Y0084376D01*
X0018706Y0085375D02*
X0025470Y0085375D01*
X0026162Y0086373D02*
X0018968Y0086373D01*
X0018811Y0087372D02*
X0054634Y0087372D01*
X0055130Y0088370D02*
X0018120Y0088370D01*
X0014879Y0088370D02*
X0003968Y0088370D01*
X0003968Y0087372D02*
X0014189Y0087372D01*
X0014031Y0086373D02*
X0003968Y0086373D01*
X0003968Y0085375D02*
X0014294Y0085375D01*
X0014609Y0084376D02*
X0003968Y0084376D01*
X0003968Y0083378D02*
X0014609Y0083378D01*
X0003968Y0089369D02*
X0056046Y0089369D01*
X0057045Y0090368D02*
X0003968Y0090368D01*
X0003968Y0091366D02*
X0058043Y0091366D01*
X0059042Y0092365D02*
X0003968Y0092365D01*
X0003968Y0093363D02*
X0060040Y0093363D01*
X0061039Y0094362D02*
X0003968Y0094362D01*
X0003968Y0095360D02*
X0062037Y0095360D01*
X0063036Y0096359D02*
X0003968Y0096359D01*
X0003968Y0097357D02*
X0064034Y0097357D01*
X0065033Y0098356D02*
X0003968Y0098356D01*
X0003968Y0099354D02*
X0066031Y0099354D01*
X0067030Y0100353D02*
X0003968Y0100353D01*
X0003968Y0101351D02*
X0068028Y0101351D01*
X0069027Y0102350D02*
X0003968Y0102350D01*
X0003968Y0103348D02*
X0070025Y0103348D01*
X0071024Y0104347D02*
X0003968Y0104347D01*
X0003968Y0105345D02*
X0072022Y0105345D01*
X0074171Y0103295D02*
X0097829Y0103295D01*
X0121829Y0079295D01*
X0162500Y0079295D01*
X0162500Y0077705D02*
X0162605Y0077707D01*
X0162709Y0077713D01*
X0162813Y0077723D01*
X0162917Y0077736D01*
X0163020Y0077754D01*
X0163122Y0077775D01*
X0163223Y0077800D01*
X0163324Y0077829D01*
X0163423Y0077862D01*
X0163521Y0077898D01*
X0163618Y0077938D01*
X0163713Y0077982D01*
X0163806Y0078029D01*
X0163898Y0078079D01*
X0163987Y0078133D01*
X0164074Y0078191D01*
X0164160Y0078251D01*
X0164243Y0078315D01*
X0164323Y0078381D01*
X0164401Y0078451D01*
X0164476Y0078524D01*
X0164549Y0078599D01*
X0164619Y0078677D01*
X0164685Y0078757D01*
X0164749Y0078840D01*
X0164809Y0078926D01*
X0164867Y0079013D01*
X0164921Y0079102D01*
X0164971Y0079194D01*
X0165018Y0079287D01*
X0165062Y0079382D01*
X0165102Y0079479D01*
X0165138Y0079577D01*
X0165171Y0079676D01*
X0165200Y0079777D01*
X0165225Y0079878D01*
X0165246Y0079980D01*
X0165264Y0080083D01*
X0165277Y0080187D01*
X0165287Y0080291D01*
X0165293Y0080395D01*
X0165295Y0080500D01*
X0165295Y0137500D01*
X0163705Y0137500D02*
X0163705Y0128768D01*
X0163703Y0128699D01*
X0163697Y0128629D01*
X0163688Y0128561D01*
X0163674Y0128493D01*
X0163657Y0128425D01*
X0163636Y0128359D01*
X0163611Y0128294D01*
X0163582Y0128231D01*
X0163551Y0128169D01*
X0163515Y0128109D01*
X0163477Y0128052D01*
X0163435Y0127996D01*
X0163390Y0127943D01*
X0163342Y0127893D01*
X0163292Y0127845D01*
X0163239Y0127800D01*
X0163183Y0127758D01*
X0163126Y0127720D01*
X0163066Y0127684D01*
X0163004Y0127653D01*
X0162941Y0127624D01*
X0162876Y0127599D01*
X0162810Y0127578D01*
X0162742Y0127561D01*
X0162674Y0127547D01*
X0162606Y0127538D01*
X0162536Y0127532D01*
X0162467Y0127530D01*
X0161810Y0127530D01*
X0161741Y0127528D01*
X0161671Y0127522D01*
X0161603Y0127513D01*
X0161535Y0127499D01*
X0161467Y0127482D01*
X0161401Y0127461D01*
X0161336Y0127436D01*
X0161273Y0127407D01*
X0161211Y0127376D01*
X0161151Y0127340D01*
X0161094Y0127302D01*
X0161038Y0127260D01*
X0160985Y0127215D01*
X0160935Y0127167D01*
X0160887Y0127117D01*
X0160842Y0127064D01*
X0160800Y0127008D01*
X0160762Y0126951D01*
X0160726Y0126891D01*
X0160695Y0126829D01*
X0160666Y0126766D01*
X0160641Y0126701D01*
X0160620Y0126635D01*
X0160603Y0126567D01*
X0160589Y0126499D01*
X0160580Y0126431D01*
X0160574Y0126361D01*
X0160572Y0126292D01*
X0160572Y0125655D01*
X0160574Y0125586D01*
X0160580Y0125516D01*
X0160589Y0125448D01*
X0160603Y0125380D01*
X0160620Y0125312D01*
X0160641Y0125246D01*
X0160666Y0125181D01*
X0160695Y0125118D01*
X0160726Y0125056D01*
X0160762Y0124996D01*
X0160800Y0124939D01*
X0160842Y0124883D01*
X0160887Y0124830D01*
X0160935Y0124780D01*
X0160985Y0124732D01*
X0161038Y0124687D01*
X0161094Y0124645D01*
X0161151Y0124607D01*
X0161211Y0124571D01*
X0161273Y0124540D01*
X0161336Y0124511D01*
X0161401Y0124486D01*
X0161467Y0124465D01*
X0161535Y0124448D01*
X0161603Y0124434D01*
X0161671Y0124425D01*
X0161741Y0124419D01*
X0161810Y0124417D01*
X0162467Y0124417D01*
X0162536Y0124415D01*
X0162606Y0124409D01*
X0162674Y0124400D01*
X0162742Y0124386D01*
X0162810Y0124369D01*
X0162876Y0124348D01*
X0162941Y0124323D01*
X0163004Y0124294D01*
X0163066Y0124263D01*
X0163126Y0124227D01*
X0163183Y0124189D01*
X0163239Y0124147D01*
X0163292Y0124102D01*
X0163342Y0124054D01*
X0163390Y0124004D01*
X0163435Y0123951D01*
X0163477Y0123895D01*
X0163515Y0123838D01*
X0163551Y0123778D01*
X0163582Y0123716D01*
X0163611Y0123653D01*
X0163636Y0123588D01*
X0163657Y0123522D01*
X0163674Y0123454D01*
X0163688Y0123386D01*
X0163697Y0123318D01*
X0163703Y0123248D01*
X0163705Y0123179D01*
X0163705Y0122542D01*
X0163703Y0122473D01*
X0163697Y0122403D01*
X0163688Y0122335D01*
X0163674Y0122267D01*
X0163657Y0122199D01*
X0163636Y0122133D01*
X0163611Y0122068D01*
X0163582Y0122005D01*
X0163551Y0121943D01*
X0163515Y0121883D01*
X0163477Y0121826D01*
X0163435Y0121770D01*
X0163390Y0121717D01*
X0163342Y0121667D01*
X0163292Y0121619D01*
X0163239Y0121574D01*
X0163183Y0121532D01*
X0163126Y0121494D01*
X0163066Y0121458D01*
X0163004Y0121427D01*
X0162941Y0121398D01*
X0162876Y0121373D01*
X0162810Y0121352D01*
X0162742Y0121335D01*
X0162674Y0121321D01*
X0162606Y0121312D01*
X0162536Y0121306D01*
X0162467Y0121304D01*
X0161810Y0121304D01*
X0161741Y0121302D01*
X0161671Y0121296D01*
X0161603Y0121287D01*
X0161535Y0121273D01*
X0161467Y0121256D01*
X0161401Y0121235D01*
X0161336Y0121210D01*
X0161273Y0121181D01*
X0161211Y0121150D01*
X0161151Y0121114D01*
X0161094Y0121076D01*
X0161038Y0121034D01*
X0160985Y0120989D01*
X0160935Y0120941D01*
X0160887Y0120891D01*
X0160842Y0120838D01*
X0160800Y0120782D01*
X0160762Y0120725D01*
X0160726Y0120665D01*
X0160695Y0120603D01*
X0160666Y0120540D01*
X0160641Y0120475D01*
X0160620Y0120409D01*
X0160603Y0120341D01*
X0160589Y0120273D01*
X0160580Y0120205D01*
X0160574Y0120135D01*
X0160572Y0120066D01*
X0160572Y0119429D01*
X0160574Y0119360D01*
X0160580Y0119290D01*
X0160589Y0119222D01*
X0160603Y0119154D01*
X0160620Y0119086D01*
X0160641Y0119020D01*
X0160666Y0118955D01*
X0160695Y0118892D01*
X0160726Y0118830D01*
X0160762Y0118770D01*
X0160800Y0118713D01*
X0160842Y0118657D01*
X0160887Y0118604D01*
X0160935Y0118554D01*
X0160985Y0118506D01*
X0161038Y0118461D01*
X0161094Y0118419D01*
X0161151Y0118381D01*
X0161211Y0118345D01*
X0161273Y0118314D01*
X0161336Y0118285D01*
X0161401Y0118260D01*
X0161467Y0118239D01*
X0161535Y0118222D01*
X0161603Y0118208D01*
X0161671Y0118199D01*
X0161741Y0118193D01*
X0161810Y0118191D01*
X0162467Y0118191D01*
X0162536Y0118189D01*
X0162606Y0118183D01*
X0162674Y0118174D01*
X0162742Y0118160D01*
X0162810Y0118143D01*
X0162876Y0118122D01*
X0162941Y0118097D01*
X0163004Y0118068D01*
X0163066Y0118037D01*
X0163126Y0118001D01*
X0163183Y0117963D01*
X0163239Y0117921D01*
X0163292Y0117876D01*
X0163342Y0117828D01*
X0163390Y0117778D01*
X0163435Y0117725D01*
X0163477Y0117669D01*
X0163515Y0117612D01*
X0163551Y0117552D01*
X0163582Y0117490D01*
X0163611Y0117427D01*
X0163636Y0117362D01*
X0163657Y0117296D01*
X0163674Y0117228D01*
X0163688Y0117160D01*
X0163697Y0117092D01*
X0163703Y0117022D01*
X0163705Y0116953D01*
X0163705Y0116316D01*
X0163703Y0116247D01*
X0163697Y0116177D01*
X0163688Y0116109D01*
X0163674Y0116041D01*
X0163657Y0115973D01*
X0163636Y0115907D01*
X0163611Y0115842D01*
X0163582Y0115779D01*
X0163551Y0115717D01*
X0163515Y0115657D01*
X0163477Y0115600D01*
X0163435Y0115544D01*
X0163390Y0115491D01*
X0163342Y0115441D01*
X0163292Y0115393D01*
X0163239Y0115348D01*
X0163183Y0115306D01*
X0163126Y0115268D01*
X0163066Y0115232D01*
X0163004Y0115201D01*
X0162941Y0115172D01*
X0162876Y0115147D01*
X0162810Y0115126D01*
X0162742Y0115109D01*
X0162674Y0115095D01*
X0162606Y0115086D01*
X0162536Y0115080D01*
X0162467Y0115078D01*
X0161810Y0115078D01*
X0161810Y0115077D02*
X0161741Y0115075D01*
X0161671Y0115069D01*
X0161603Y0115060D01*
X0161535Y0115046D01*
X0161467Y0115029D01*
X0161401Y0115008D01*
X0161336Y0114983D01*
X0161273Y0114954D01*
X0161211Y0114923D01*
X0161151Y0114887D01*
X0161094Y0114849D01*
X0161038Y0114807D01*
X0160985Y0114762D01*
X0160935Y0114714D01*
X0160887Y0114664D01*
X0160842Y0114611D01*
X0160800Y0114555D01*
X0160762Y0114498D01*
X0160726Y0114438D01*
X0160695Y0114376D01*
X0160666Y0114313D01*
X0160641Y0114248D01*
X0160620Y0114182D01*
X0160603Y0114114D01*
X0160589Y0114046D01*
X0160580Y0113978D01*
X0160574Y0113908D01*
X0160572Y0113839D01*
X0160572Y0113203D01*
X0160574Y0113134D01*
X0160580Y0113064D01*
X0160589Y0112996D01*
X0160603Y0112928D01*
X0160620Y0112860D01*
X0160641Y0112794D01*
X0160666Y0112729D01*
X0160695Y0112666D01*
X0160726Y0112604D01*
X0160762Y0112544D01*
X0160800Y0112487D01*
X0160842Y0112431D01*
X0160887Y0112378D01*
X0160935Y0112328D01*
X0160985Y0112280D01*
X0161038Y0112235D01*
X0161094Y0112193D01*
X0161151Y0112155D01*
X0161211Y0112119D01*
X0161273Y0112088D01*
X0161336Y0112059D01*
X0161401Y0112034D01*
X0161467Y0112013D01*
X0161535Y0111996D01*
X0161603Y0111982D01*
X0161671Y0111973D01*
X0161741Y0111967D01*
X0161810Y0111965D01*
X0161810Y0111964D02*
X0162467Y0111964D01*
X0162536Y0111962D01*
X0162606Y0111956D01*
X0162674Y0111947D01*
X0162742Y0111933D01*
X0162810Y0111916D01*
X0162876Y0111895D01*
X0162941Y0111870D01*
X0163004Y0111841D01*
X0163066Y0111810D01*
X0163126Y0111774D01*
X0163183Y0111736D01*
X0163239Y0111694D01*
X0163292Y0111649D01*
X0163342Y0111601D01*
X0163390Y0111551D01*
X0163435Y0111498D01*
X0163477Y0111442D01*
X0163515Y0111385D01*
X0163551Y0111325D01*
X0163582Y0111263D01*
X0163611Y0111200D01*
X0163636Y0111135D01*
X0163657Y0111069D01*
X0163674Y0111001D01*
X0163688Y0110933D01*
X0163697Y0110865D01*
X0163703Y0110795D01*
X0163705Y0110726D01*
X0163705Y0110090D01*
X0163703Y0110021D01*
X0163697Y0109951D01*
X0163688Y0109883D01*
X0163674Y0109815D01*
X0163657Y0109747D01*
X0163636Y0109681D01*
X0163611Y0109616D01*
X0163582Y0109553D01*
X0163551Y0109491D01*
X0163515Y0109431D01*
X0163477Y0109374D01*
X0163435Y0109318D01*
X0163390Y0109265D01*
X0163342Y0109215D01*
X0163292Y0109167D01*
X0163239Y0109122D01*
X0163183Y0109080D01*
X0163126Y0109042D01*
X0163066Y0109006D01*
X0163004Y0108975D01*
X0162941Y0108946D01*
X0162876Y0108921D01*
X0162810Y0108900D01*
X0162742Y0108883D01*
X0162674Y0108869D01*
X0162606Y0108860D01*
X0162536Y0108854D01*
X0162467Y0108852D01*
X0162467Y0108851D02*
X0161810Y0108851D01*
X0161741Y0108849D01*
X0161671Y0108843D01*
X0161603Y0108834D01*
X0161535Y0108820D01*
X0161467Y0108803D01*
X0161401Y0108782D01*
X0161336Y0108757D01*
X0161273Y0108728D01*
X0161211Y0108697D01*
X0161151Y0108661D01*
X0161094Y0108623D01*
X0161038Y0108581D01*
X0160985Y0108536D01*
X0160935Y0108488D01*
X0160887Y0108438D01*
X0160842Y0108385D01*
X0160800Y0108329D01*
X0160762Y0108272D01*
X0160726Y0108212D01*
X0160695Y0108150D01*
X0160666Y0108087D01*
X0160641Y0108022D01*
X0160620Y0107956D01*
X0160603Y0107888D01*
X0160589Y0107820D01*
X0160580Y0107752D01*
X0160574Y0107682D01*
X0160572Y0107613D01*
X0160572Y0106976D01*
X0160574Y0106907D01*
X0160580Y0106837D01*
X0160589Y0106769D01*
X0160603Y0106701D01*
X0160620Y0106633D01*
X0160641Y0106567D01*
X0160666Y0106502D01*
X0160695Y0106439D01*
X0160726Y0106377D01*
X0160762Y0106317D01*
X0160800Y0106260D01*
X0160842Y0106204D01*
X0160887Y0106151D01*
X0160935Y0106101D01*
X0160985Y0106053D01*
X0161038Y0106008D01*
X0161094Y0105966D01*
X0161151Y0105928D01*
X0161211Y0105892D01*
X0161273Y0105861D01*
X0161336Y0105832D01*
X0161401Y0105807D01*
X0161467Y0105786D01*
X0161535Y0105769D01*
X0161603Y0105755D01*
X0161671Y0105746D01*
X0161741Y0105740D01*
X0161810Y0105738D01*
X0162467Y0105738D01*
X0162536Y0105736D01*
X0162606Y0105730D01*
X0162674Y0105721D01*
X0162742Y0105707D01*
X0162810Y0105690D01*
X0162876Y0105669D01*
X0162941Y0105644D01*
X0163004Y0105615D01*
X0163066Y0105584D01*
X0163126Y0105548D01*
X0163183Y0105510D01*
X0163239Y0105468D01*
X0163292Y0105423D01*
X0163342Y0105375D01*
X0163390Y0105325D01*
X0163435Y0105272D01*
X0163477Y0105216D01*
X0163515Y0105159D01*
X0163551Y0105099D01*
X0163582Y0105037D01*
X0163611Y0104974D01*
X0163636Y0104909D01*
X0163657Y0104843D01*
X0163674Y0104775D01*
X0163688Y0104707D01*
X0163697Y0104639D01*
X0163703Y0104569D01*
X0163705Y0104500D01*
X0163705Y0080500D01*
X0163703Y0080432D01*
X0163697Y0080365D01*
X0163688Y0080298D01*
X0163675Y0080232D01*
X0163658Y0080166D01*
X0163637Y0080102D01*
X0163613Y0080039D01*
X0163586Y0079977D01*
X0163555Y0079917D01*
X0163520Y0079859D01*
X0163483Y0079803D01*
X0163442Y0079749D01*
X0163398Y0079697D01*
X0163352Y0079648D01*
X0163303Y0079602D01*
X0163251Y0079558D01*
X0163197Y0079517D01*
X0163141Y0079480D01*
X0163083Y0079445D01*
X0163023Y0079414D01*
X0162961Y0079387D01*
X0162898Y0079363D01*
X0162834Y0079342D01*
X0162768Y0079325D01*
X0162702Y0079312D01*
X0162635Y0079303D01*
X0162568Y0079297D01*
X0162500Y0079295D01*
X0162500Y0077705D02*
X0121171Y0077705D01*
X0097171Y0101705D01*
X0074829Y0101705D01*
X0059295Y0086171D01*
X0059295Y0084500D01*
X0060076Y0084500D01*
X0057705Y0084500D02*
X0057705Y0086829D01*
X0074171Y0103295D01*
X0075678Y0098356D02*
X0096322Y0098356D01*
X0097320Y0097357D02*
X0074680Y0097357D01*
X0073681Y0096359D02*
X0098319Y0096359D01*
X0099317Y0095360D02*
X0072683Y0095360D01*
X0071684Y0094362D02*
X0100316Y0094362D01*
X0101314Y0093363D02*
X0070686Y0093363D01*
X0069687Y0092365D02*
X0102313Y0092365D01*
X0103311Y0091366D02*
X0068689Y0091366D01*
X0057705Y0084500D02*
X0056924Y0084500D01*
X0053274Y0084376D02*
X0040038Y0084376D01*
X0039538Y0085375D02*
X0053336Y0085375D01*
X0053749Y0086373D02*
X0038846Y0086373D01*
X0035611Y0086373D02*
X0031300Y0086373D01*
X0032299Y0085375D02*
X0034919Y0085375D01*
X0034760Y0084376D02*
X0033297Y0084376D01*
X0034296Y0083378D02*
X0035021Y0083378D01*
X0034391Y0082379D02*
X0035897Y0082379D01*
X0034391Y0081381D02*
X0037689Y0081381D01*
X0041045Y0083378D02*
X0053438Y0083378D01*
X0053883Y0082379D02*
X0042053Y0082379D01*
X0042420Y0081381D02*
X0054917Y0081381D01*
X0092408Y0107342D02*
X0003968Y0107342D01*
X0003968Y0106344D02*
X0093407Y0106344D01*
X0094500Y0107500D02*
X0100500Y0107500D01*
X0103500Y0104500D01*
X0109500Y0104500D01*
X0127500Y0086500D01*
X0125228Y0086373D02*
X0118949Y0086373D01*
X0119948Y0085375D02*
X0125412Y0085375D01*
X0126411Y0084376D02*
X0120946Y0084376D01*
X0121945Y0083378D02*
X0160736Y0083378D01*
X0160736Y0084376D02*
X0132589Y0084376D01*
X0133588Y0085375D02*
X0147112Y0085375D01*
X0147259Y0085228D02*
X0149141Y0085228D01*
X0150472Y0086559D01*
X0150472Y0088441D01*
X0149141Y0089772D01*
X0147259Y0089772D01*
X0146578Y0089091D01*
X0137159Y0089091D01*
X0127218Y0099031D01*
X0129765Y0099031D01*
X0132265Y0101531D01*
X0132735Y0101531D01*
X0135235Y0099031D01*
X0139765Y0099031D01*
X0142968Y0102235D01*
X0142968Y0105776D01*
X0144589Y0107399D01*
X0145009Y0107818D01*
X0145009Y0107820D01*
X0145010Y0107820D01*
X0145236Y0108367D01*
X0145461Y0108910D01*
X0145461Y0108911D01*
X0145461Y0108912D01*
X0145461Y0109502D01*
X0145461Y0132501D01*
X0145009Y0133592D01*
X0141428Y0137174D01*
X0140592Y0138009D01*
X0139501Y0138461D01*
X0119141Y0138461D01*
X0113461Y0144141D01*
X0113461Y0152944D01*
X0115336Y0151068D01*
X0118125Y0149913D01*
X0121143Y0149913D01*
X0123931Y0151068D01*
X0126065Y0153203D01*
X0127220Y0155991D01*
X0127220Y0159009D01*
X0126065Y0161797D01*
X0123931Y0163932D01*
X0121143Y0165087D01*
X0118125Y0165087D01*
X0115336Y0163932D01*
X0113468Y0162064D01*
X0113468Y0187090D01*
X0113017Y0188182D01*
X0109017Y0192182D01*
X0108182Y0193017D01*
X0107090Y0193468D01*
X0097910Y0193468D01*
X0096818Y0193017D01*
X0093818Y0190017D01*
X0092983Y0189182D01*
X0092841Y0188837D01*
X0092762Y0188780D01*
X0092283Y0188301D01*
X0091885Y0187754D01*
X0091578Y0187151D01*
X0091369Y0186507D01*
X0091263Y0185838D01*
X0091263Y0185787D01*
X0092531Y0185787D01*
X0092531Y0185213D01*
X0091263Y0185213D01*
X0091263Y0185162D01*
X0091369Y0184493D01*
X0091578Y0183849D01*
X0091885Y0183246D01*
X0092283Y0182699D01*
X0092762Y0182220D01*
X0093309Y0181822D01*
X0093912Y0181515D01*
X0094556Y0181306D01*
X0095225Y0181200D01*
X0095276Y0181200D01*
X0095276Y0182531D01*
X0095850Y0182531D01*
X0095850Y0181200D01*
X0095901Y0181200D01*
X0096570Y0181306D01*
X0097214Y0181515D01*
X0097817Y0181822D01*
X0098364Y0182220D01*
X0098843Y0182699D01*
X0099241Y0183246D01*
X0099548Y0183849D01*
X0099707Y0184339D01*
X0100139Y0183296D01*
X0101233Y0182202D01*
X0101666Y0182022D01*
X0101687Y0175387D01*
X0101299Y0175387D01*
X0100661Y0174748D01*
X0100661Y0161468D01*
X0098300Y0161468D01*
X0091739Y0168029D01*
X0091739Y0174748D01*
X0091101Y0175387D01*
X0084095Y0175387D01*
X0083456Y0174748D01*
X0083456Y0160852D01*
X0084095Y0160213D01*
X0090814Y0160213D01*
X0095510Y0155517D01*
X0094183Y0154968D01*
X0093452Y0154237D01*
X0093452Y0155495D01*
X0092813Y0156134D01*
X0085610Y0156134D01*
X0084972Y0155495D01*
X0084972Y0147505D01*
X0085610Y0146866D01*
X0092813Y0146866D01*
X0093452Y0147505D01*
X0093452Y0148763D01*
X0094183Y0148032D01*
X0095686Y0147409D01*
X0103314Y0147409D01*
X0104817Y0148032D01*
X0105539Y0148754D01*
X0105539Y0144825D01*
X0105432Y0144932D01*
X0104859Y0145349D01*
X0104227Y0145670D01*
X0103554Y0145889D01*
X0102854Y0146000D01*
X0100000Y0146000D01*
X0100000Y0142000D01*
X0099000Y0142000D01*
X0099000Y0146000D01*
X0096146Y0146000D01*
X0095446Y0145889D01*
X0094773Y0145670D01*
X0094141Y0145349D01*
X0093568Y0144932D01*
X0093068Y0144432D01*
X0092651Y0143859D01*
X0092330Y0143227D01*
X0092111Y0142554D01*
X0092023Y0142000D01*
X0099000Y0142000D01*
X0099000Y0141000D01*
X0100000Y0141000D01*
X0100000Y0137000D01*
X0102854Y0137000D01*
X0103554Y0137111D01*
X0104227Y0137330D01*
X0104859Y0137651D01*
X0105432Y0138068D01*
X0105932Y0138568D01*
X0106349Y0139141D01*
X0106655Y0139743D01*
X0115407Y0130991D01*
X0116499Y0130539D01*
X0136859Y0130539D01*
X0137430Y0129968D01*
X0135235Y0129968D01*
X0132735Y0127468D01*
X0132265Y0127468D01*
X0129765Y0129968D01*
X0125235Y0129968D01*
X0122031Y0126765D01*
X0122031Y0122235D01*
X0125235Y0119031D01*
X0129765Y0119031D01*
X0132265Y0121531D01*
X0132735Y0121531D01*
X0135235Y0119031D01*
X0139524Y0119031D01*
X0139524Y0118261D01*
X0139194Y0118591D01*
X0135806Y0118591D01*
X0133409Y0116194D01*
X0133409Y0112806D01*
X0135806Y0110409D01*
X0139194Y0110409D01*
X0139524Y0110739D01*
X0139524Y0110728D01*
X0138765Y0109968D01*
X0135235Y0109968D01*
X0132735Y0107468D01*
X0132265Y0107468D01*
X0129765Y0109968D01*
X0125235Y0109968D01*
X0122031Y0106765D01*
X0122031Y0104218D01*
X0117091Y0109159D01*
X0117091Y0121159D01*
X0116159Y0122091D01*
X0112091Y0126159D01*
X0111159Y0127091D01*
X0092988Y0127091D01*
X0093402Y0127505D01*
X0093402Y0128809D01*
X0093406Y0128809D01*
X0094183Y0128032D01*
X0095686Y0127409D01*
X0103314Y0127409D01*
X0104817Y0128032D01*
X0105968Y0129183D01*
X0106591Y0130686D01*
X0106591Y0132314D01*
X0105968Y0133817D01*
X0104817Y0134968D01*
X0103314Y0135591D01*
X0095686Y0135591D01*
X0094183Y0134968D01*
X0093406Y0134191D01*
X0093402Y0134191D01*
X0093402Y0135495D01*
X0092763Y0136134D01*
X0085560Y0136134D01*
X0084922Y0135495D01*
X0084922Y0127505D01*
X0085336Y0127091D01*
X0082520Y0127091D01*
X0082686Y0127378D01*
X0082788Y0127759D01*
X0082788Y0131000D01*
X0078638Y0131000D01*
X0078638Y0132000D01*
X0077638Y0132000D01*
X0077638Y0131000D01*
X0073489Y0131000D01*
X0073489Y0127759D01*
X0073591Y0127378D01*
X0073757Y0127091D01*
X0055159Y0127091D01*
X0041226Y0141024D01*
X0040762Y0141489D01*
X0040760Y0141489D01*
X0040759Y0141491D01*
X0040102Y0141491D01*
X0018758Y0141534D01*
X0018352Y0141941D01*
X0013048Y0141941D01*
X0012409Y0141302D01*
X0012409Y0138598D01*
X0013048Y0137959D01*
X0018352Y0137959D01*
X0018745Y0138353D01*
X0039440Y0138311D01*
X0053841Y0123909D01*
X0059418Y0123909D01*
X0059407Y0123898D01*
X0059031Y0122991D01*
X0059031Y0122009D01*
X0059407Y0121102D01*
X0060102Y0120407D01*
X0061009Y0120031D01*
X0061991Y0120031D01*
X0062898Y0120407D01*
X0063593Y0121102D01*
X0063968Y0122009D01*
X0063968Y0122991D01*
X0063593Y0123898D01*
X0063582Y0123909D01*
X0109841Y0123909D01*
X0113909Y0119841D01*
X0113909Y0107841D01*
X0134909Y0086841D01*
X0135841Y0085909D01*
X0146578Y0085909D01*
X0147259Y0085228D01*
X0149288Y0085375D02*
X0160736Y0085375D01*
X0160736Y0086373D02*
X0150286Y0086373D01*
X0150472Y0087372D02*
X0160736Y0087372D01*
X0160736Y0088370D02*
X0150472Y0088370D01*
X0149544Y0089369D02*
X0160736Y0089369D01*
X0160736Y0090368D02*
X0135882Y0090368D01*
X0134883Y0091366D02*
X0160736Y0091366D01*
X0160736Y0092365D02*
X0133885Y0092365D01*
X0132886Y0093363D02*
X0160736Y0093363D01*
X0160736Y0094362D02*
X0131888Y0094362D01*
X0130889Y0095360D02*
X0160736Y0095360D01*
X0160736Y0096359D02*
X0129891Y0096359D01*
X0128892Y0097357D02*
X0160736Y0097357D01*
X0160736Y0098356D02*
X0127894Y0098356D01*
X0130088Y0099354D02*
X0134912Y0099354D01*
X0133914Y0100353D02*
X0131086Y0100353D01*
X0132085Y0101351D02*
X0132915Y0101351D01*
X0137500Y0104500D02*
X0127500Y0104500D01*
X0131393Y0108341D02*
X0133607Y0108341D01*
X0134606Y0109339D02*
X0130394Y0109339D01*
X0129194Y0110409D02*
X0131591Y0112806D01*
X0131591Y0116194D01*
X0129194Y0118591D01*
X0125806Y0118591D01*
X0123409Y0116194D01*
X0123409Y0112806D01*
X0125806Y0110409D01*
X0129194Y0110409D01*
X0130121Y0111336D02*
X0134879Y0111336D01*
X0133880Y0112335D02*
X0131120Y0112335D01*
X0131591Y0113333D02*
X0133409Y0113333D01*
X0133409Y0114332D02*
X0131591Y0114332D01*
X0131591Y0115330D02*
X0133409Y0115330D01*
X0133544Y0116329D02*
X0131456Y0116329D01*
X0130458Y0117327D02*
X0134542Y0117327D01*
X0135541Y0118326D02*
X0129459Y0118326D01*
X0130058Y0119324D02*
X0134942Y0119324D01*
X0133944Y0120323D02*
X0131056Y0120323D01*
X0132055Y0121321D02*
X0132945Y0121321D01*
X0137500Y0124500D02*
X0127500Y0124500D01*
X0123577Y0128311D02*
X0105096Y0128311D01*
X0106020Y0129309D02*
X0124576Y0129309D01*
X0122579Y0127312D02*
X0093209Y0127312D01*
X0093402Y0128311D02*
X0093904Y0128311D01*
X0093517Y0134302D02*
X0093402Y0134302D01*
X0093402Y0135301D02*
X0094986Y0135301D01*
X0095446Y0137111D02*
X0096146Y0137000D01*
X0099000Y0137000D01*
X0099000Y0141000D01*
X0092023Y0141000D01*
X0092111Y0140446D01*
X0092330Y0139773D01*
X0092651Y0139141D01*
X0093068Y0138568D01*
X0093568Y0138068D01*
X0094141Y0137651D01*
X0094773Y0137330D01*
X0095446Y0137111D01*
X0094872Y0137298D02*
X0044952Y0137298D01*
X0043953Y0138296D02*
X0093340Y0138296D01*
X0092573Y0139295D02*
X0042955Y0139295D01*
X0041956Y0140293D02*
X0092161Y0140293D01*
X0092069Y0142290D02*
X0011391Y0142290D01*
X0011391Y0141292D02*
X0012409Y0141292D01*
X0012409Y0140293D02*
X0003968Y0140293D01*
X0003968Y0139295D02*
X0012409Y0139295D01*
X0012712Y0138296D02*
X0003968Y0138296D01*
X0003968Y0137298D02*
X0040453Y0137298D01*
X0039455Y0138296D02*
X0018688Y0138296D01*
X0015700Y0139950D02*
X0040100Y0139900D01*
X0054500Y0125500D01*
X0110500Y0125500D01*
X0115500Y0120500D01*
X0115500Y0108500D01*
X0136500Y0087500D01*
X0148200Y0087500D01*
X0146856Y0089369D02*
X0136880Y0089369D01*
X0134379Y0087372D02*
X0133772Y0087372D01*
X0133772Y0086373D02*
X0135377Y0086373D01*
X0133380Y0088370D02*
X0132842Y0088370D01*
X0132382Y0089369D02*
X0130880Y0089369D01*
X0131383Y0090368D02*
X0129882Y0090368D01*
X0130385Y0091366D02*
X0128883Y0091366D01*
X0129386Y0092365D02*
X0127885Y0092365D01*
X0128388Y0093363D02*
X0126886Y0093363D01*
X0127389Y0094362D02*
X0125888Y0094362D01*
X0126391Y0095360D02*
X0124889Y0095360D01*
X0125392Y0096359D02*
X0123891Y0096359D01*
X0124394Y0097357D02*
X0122892Y0097357D01*
X0123395Y0098356D02*
X0121894Y0098356D01*
X0122397Y0099354D02*
X0120895Y0099354D01*
X0121398Y0100353D02*
X0119897Y0100353D01*
X0120399Y0101351D02*
X0118898Y0101351D01*
X0119401Y0102350D02*
X0117900Y0102350D01*
X0118402Y0103348D02*
X0116901Y0103348D01*
X0117404Y0104347D02*
X0115903Y0104347D01*
X0116405Y0105345D02*
X0114904Y0105345D01*
X0115407Y0106344D02*
X0113906Y0106344D01*
X0114408Y0107342D02*
X0112907Y0107342D01*
X0111909Y0108341D02*
X0113909Y0108341D01*
X0113909Y0109339D02*
X0109124Y0109339D01*
X0110032Y0110338D02*
X0113909Y0110338D01*
X0113909Y0111336D02*
X0110446Y0111336D01*
X0110591Y0112335D02*
X0113909Y0112335D01*
X0113909Y0113333D02*
X0110591Y0113333D01*
X0110591Y0114332D02*
X0113909Y0114332D01*
X0113909Y0115330D02*
X0110591Y0115330D01*
X0110591Y0116329D02*
X0113909Y0116329D01*
X0113909Y0117327D02*
X0110591Y0117327D01*
X0110591Y0118326D02*
X0113909Y0118326D01*
X0113909Y0119324D02*
X0110586Y0119324D01*
X0110173Y0120323D02*
X0113428Y0120323D01*
X0112429Y0121321D02*
X0109464Y0121321D01*
X0107967Y0122320D02*
X0111431Y0122320D01*
X0110432Y0123318D02*
X0063833Y0123318D01*
X0063968Y0122320D02*
X0074102Y0122320D01*
X0074141Y0122349D02*
X0073568Y0121932D01*
X0073068Y0121432D01*
X0072651Y0120859D01*
X0072330Y0120227D01*
X0072111Y0119554D01*
X0072000Y0118854D01*
X0072000Y0116000D01*
X0076000Y0116000D01*
X0076000Y0122977D01*
X0075446Y0122889D01*
X0074773Y0122670D01*
X0074141Y0122349D01*
X0072988Y0121321D02*
X0063684Y0121321D01*
X0062694Y0120323D02*
X0072378Y0120323D01*
X0072074Y0119324D02*
X0003968Y0119324D01*
X0003968Y0118326D02*
X0072000Y0118326D01*
X0072000Y0117327D02*
X0003968Y0117327D01*
X0003968Y0116329D02*
X0072000Y0116329D01*
X0072000Y0115000D02*
X0072000Y0112146D01*
X0072111Y0111446D01*
X0072330Y0110773D01*
X0072651Y0110141D01*
X0073068Y0109568D01*
X0073568Y0109068D01*
X0074141Y0108651D01*
X0074773Y0108330D01*
X0075446Y0108111D01*
X0076000Y0108023D01*
X0076000Y0115000D01*
X0077000Y0115000D01*
X0077000Y0116000D01*
X0081000Y0116000D01*
X0081000Y0118854D01*
X0080889Y0119554D01*
X0080670Y0120227D01*
X0080349Y0120859D01*
X0079932Y0121432D01*
X0079432Y0121932D01*
X0078859Y0122349D01*
X0078227Y0122670D01*
X0077554Y0122889D01*
X0077000Y0122977D01*
X0077000Y0116000D01*
X0076000Y0116000D01*
X0076000Y0115000D01*
X0072000Y0115000D01*
X0072000Y0114332D02*
X0003968Y0114332D01*
X0003968Y0115330D02*
X0076000Y0115330D01*
X0076000Y0114332D02*
X0077000Y0114332D01*
X0077000Y0115000D02*
X0077000Y0108023D01*
X0077554Y0108111D01*
X0078227Y0108330D01*
X0078859Y0108651D01*
X0079432Y0109068D01*
X0079932Y0109568D01*
X0080349Y0110141D01*
X0080670Y0110773D01*
X0080889Y0111446D01*
X0081000Y0112146D01*
X0081000Y0115000D01*
X0077000Y0115000D01*
X0077000Y0115330D02*
X0082409Y0115330D01*
X0082409Y0114332D02*
X0081000Y0114332D01*
X0081000Y0113333D02*
X0082409Y0113333D01*
X0082409Y0112335D02*
X0081000Y0112335D01*
X0080853Y0111336D02*
X0082554Y0111336D01*
X0082968Y0110338D02*
X0080449Y0110338D01*
X0079703Y0109339D02*
X0083876Y0109339D01*
X0089124Y0109339D02*
X0090411Y0109339D01*
X0091410Y0108341D02*
X0078249Y0108341D01*
X0077000Y0108341D02*
X0076000Y0108341D01*
X0076000Y0109339D02*
X0077000Y0109339D01*
X0077000Y0110338D02*
X0076000Y0110338D01*
X0076000Y0111336D02*
X0077000Y0111336D01*
X0077000Y0112335D02*
X0076000Y0112335D01*
X0076000Y0113333D02*
X0077000Y0113333D01*
X0072000Y0113333D02*
X0003968Y0113333D01*
X0003968Y0112335D02*
X0072000Y0112335D01*
X0072147Y0111336D02*
X0003968Y0111336D01*
X0003968Y0110338D02*
X0072551Y0110338D01*
X0073297Y0109339D02*
X0003968Y0109339D01*
X0003968Y0108341D02*
X0074751Y0108341D01*
X0076000Y0116329D02*
X0077000Y0116329D01*
X0077000Y0117327D02*
X0076000Y0117327D01*
X0076000Y0118326D02*
X0077000Y0118326D01*
X0077000Y0119324D02*
X0076000Y0119324D01*
X0076000Y0120323D02*
X0077000Y0120323D01*
X0077000Y0121321D02*
X0076000Y0121321D01*
X0076000Y0122320D02*
X0077000Y0122320D01*
X0078898Y0122320D02*
X0085033Y0122320D01*
X0083536Y0121321D02*
X0080012Y0121321D01*
X0080622Y0120323D02*
X0082827Y0120323D01*
X0082414Y0119324D02*
X0080926Y0119324D01*
X0081000Y0118326D02*
X0082409Y0118326D01*
X0082409Y0117327D02*
X0081000Y0117327D01*
X0081000Y0116329D02*
X0082409Y0116329D01*
X0086500Y0115500D02*
X0094500Y0107500D01*
X0099978Y0105345D02*
X0100405Y0105345D01*
X0100976Y0104347D02*
X0101404Y0104347D01*
X0101975Y0103348D02*
X0102402Y0103348D01*
X0102973Y0102350D02*
X0109401Y0102350D01*
X0110399Y0101351D02*
X0103972Y0101351D01*
X0104970Y0100353D02*
X0111398Y0100353D01*
X0112397Y0099354D02*
X0105969Y0099354D01*
X0106967Y0098356D02*
X0113395Y0098356D01*
X0114394Y0097357D02*
X0107966Y0097357D01*
X0108964Y0096359D02*
X0115392Y0096359D01*
X0116391Y0095360D02*
X0109963Y0095360D01*
X0110961Y0094362D02*
X0117389Y0094362D01*
X0118388Y0093363D02*
X0111960Y0093363D01*
X0112958Y0092365D02*
X0119386Y0092365D01*
X0120385Y0091366D02*
X0113957Y0091366D01*
X0114955Y0090368D02*
X0121383Y0090368D01*
X0122382Y0089369D02*
X0115954Y0089369D01*
X0116952Y0088370D02*
X0123380Y0088370D01*
X0124379Y0087372D02*
X0117951Y0087372D01*
X0122943Y0082379D02*
X0160736Y0082379D01*
X0168264Y0083378D02*
X0282496Y0083378D01*
X0282496Y0084376D02*
X0168264Y0084376D01*
X0168264Y0085375D02*
X0282496Y0085375D01*
X0282496Y0086373D02*
X0168264Y0086373D01*
X0168264Y0087372D02*
X0282496Y0087372D01*
X0282496Y0088370D02*
X0168264Y0088370D01*
X0168264Y0089369D02*
X0282496Y0089369D01*
X0282496Y0090368D02*
X0168264Y0090368D01*
X0168264Y0091366D02*
X0282496Y0091366D01*
X0282496Y0092365D02*
X0168264Y0092365D01*
X0168264Y0093363D02*
X0282496Y0093363D01*
X0282496Y0094362D02*
X0168264Y0094362D01*
X0168264Y0095360D02*
X0282496Y0095360D01*
X0282496Y0096359D02*
X0168264Y0096359D01*
X0168264Y0097357D02*
X0282496Y0097357D01*
X0282496Y0098356D02*
X0168264Y0098356D01*
X0168264Y0099354D02*
X0282496Y0099354D01*
X0282496Y0100353D02*
X0168264Y0100353D01*
X0168264Y0101351D02*
X0282496Y0101351D01*
X0282496Y0102350D02*
X0168264Y0102350D01*
X0168264Y0103348D02*
X0282496Y0103348D01*
X0282496Y0104347D02*
X0168264Y0104347D01*
X0168264Y0105345D02*
X0282496Y0105345D01*
X0282496Y0106344D02*
X0168264Y0106344D01*
X0168264Y0107342D02*
X0282496Y0107342D01*
X0282496Y0108341D02*
X0168264Y0108341D01*
X0168264Y0109339D02*
X0282496Y0109339D01*
X0282496Y0110338D02*
X0168264Y0110338D01*
X0168264Y0111336D02*
X0282496Y0111336D01*
X0282496Y0112335D02*
X0168264Y0112335D01*
X0168264Y0113333D02*
X0282496Y0113333D01*
X0282496Y0114332D02*
X0168264Y0114332D01*
X0168264Y0115330D02*
X0282496Y0115330D01*
X0282496Y0116329D02*
X0168264Y0116329D01*
X0168264Y0117327D02*
X0282496Y0117327D01*
X0282496Y0118326D02*
X0168264Y0118326D01*
X0168264Y0119324D02*
X0282496Y0119324D01*
X0282496Y0120323D02*
X0168264Y0120323D01*
X0168264Y0121321D02*
X0282496Y0121321D01*
X0282496Y0122320D02*
X0168264Y0122320D01*
X0168264Y0123318D02*
X0282496Y0123318D01*
X0282496Y0124317D02*
X0168264Y0124317D01*
X0168264Y0125315D02*
X0282496Y0125315D01*
X0282496Y0126314D02*
X0168264Y0126314D01*
X0168264Y0127312D02*
X0282496Y0127312D01*
X0282496Y0128311D02*
X0168264Y0128311D01*
X0168264Y0129309D02*
X0282496Y0129309D01*
X0282496Y0130308D02*
X0168264Y0130308D01*
X0168264Y0131306D02*
X0282496Y0131306D01*
X0282496Y0132305D02*
X0168264Y0132305D01*
X0168264Y0133303D02*
X0282496Y0133303D01*
X0282496Y0134302D02*
X0168264Y0134302D01*
X0168264Y0135301D02*
X0282496Y0135301D01*
X0282496Y0136299D02*
X0168264Y0136299D01*
X0168264Y0137298D02*
X0282496Y0137298D01*
X0282496Y0138296D02*
X0168264Y0138296D01*
X0167995Y0139295D02*
X0282496Y0139295D01*
X0282496Y0140293D02*
X0167582Y0140293D01*
X0167386Y0140765D02*
X0167386Y0140765D01*
X0166860Y0141292D02*
X0282496Y0141292D01*
X0282496Y0142290D02*
X0165861Y0142290D01*
X0165765Y0142386D02*
X0165765Y0142386D01*
X0162500Y0140295D02*
X0155605Y0140295D01*
X0154400Y0141500D01*
X0154400Y0149500D01*
X0152400Y0151500D01*
X0144500Y0151500D01*
X0141563Y0148563D01*
X0141563Y0146870D01*
X0145314Y0143289D02*
X0145686Y0143289D01*
X0146469Y0142290D02*
X0144055Y0142290D01*
X0146751Y0141292D02*
X0116310Y0141292D01*
X0115311Y0142290D02*
X0139071Y0142290D01*
X0137812Y0143289D02*
X0133965Y0143289D01*
X0133930Y0143264D02*
X0134467Y0143654D01*
X0134937Y0144123D01*
X0135327Y0144660D01*
X0135628Y0145251D01*
X0135833Y0145883D01*
X0135925Y0146465D01*
X0132126Y0146465D01*
X0132126Y0147276D01*
X0131315Y0147276D01*
X0131315Y0151075D01*
X0130733Y0150983D01*
X0130102Y0150778D01*
X0129511Y0150476D01*
X0128974Y0150086D01*
X0128504Y0149617D01*
X0128114Y0149080D01*
X0127813Y0148489D01*
X0127608Y0147857D01*
X0127516Y0147276D01*
X0131315Y0147276D01*
X0131315Y0146465D01*
X0127516Y0146465D01*
X0127608Y0145883D01*
X0127813Y0145251D01*
X0128114Y0144660D01*
X0128504Y0144123D01*
X0128974Y0143654D01*
X0129511Y0143264D01*
X0130102Y0142962D01*
X0130733Y0142757D01*
X0131315Y0142665D01*
X0131315Y0146464D01*
X0132126Y0146464D01*
X0132126Y0142665D01*
X0132708Y0142757D01*
X0133339Y0142962D01*
X0133930Y0143264D01*
X0135056Y0144287D02*
X0137021Y0144287D01*
X0136607Y0145286D02*
X0135639Y0145286D01*
X0135897Y0146284D02*
X0136378Y0146284D01*
X0136378Y0147283D02*
X0135924Y0147283D01*
X0135925Y0147276D02*
X0135833Y0147857D01*
X0135628Y0148489D01*
X0135327Y0149080D01*
X0134937Y0149617D01*
X0134467Y0150086D01*
X0133930Y0150476D01*
X0133339Y0150778D01*
X0132708Y0150983D01*
X0132126Y0151075D01*
X0132126Y0147276D01*
X0135925Y0147276D01*
X0135695Y0148281D02*
X0136535Y0148281D01*
X0136949Y0149280D02*
X0135182Y0149280D01*
X0134203Y0150278D02*
X0137638Y0150278D01*
X0138652Y0151277D02*
X0124140Y0151277D01*
X0125138Y0152275D02*
X0141077Y0152275D01*
X0142076Y0153274D02*
X0126095Y0153274D01*
X0126509Y0154272D02*
X0143436Y0154272D01*
X0153464Y0154272D02*
X0164491Y0154272D01*
X0164905Y0153274D02*
X0154824Y0153274D01*
X0155823Y0152275D02*
X0165862Y0152275D01*
X0164935Y0153203D02*
X0167069Y0151068D01*
X0169857Y0149913D01*
X0172875Y0149913D01*
X0175664Y0151068D01*
X0177798Y0153203D01*
X0178953Y0155991D01*
X0178953Y0159009D01*
X0177798Y0161797D01*
X0175664Y0163932D01*
X0172875Y0165087D01*
X0169857Y0165087D01*
X0167069Y0163932D01*
X0164935Y0161797D01*
X0163780Y0159009D01*
X0163780Y0155991D01*
X0164935Y0153203D01*
X0164078Y0155271D02*
X0126922Y0155271D01*
X0127220Y0156269D02*
X0163780Y0156269D01*
X0163780Y0157268D02*
X0127220Y0157268D01*
X0127220Y0158266D02*
X0163780Y0158266D01*
X0163885Y0159265D02*
X0127115Y0159265D01*
X0126701Y0160263D02*
X0164299Y0160263D01*
X0164713Y0161262D02*
X0126287Y0161262D01*
X0125603Y0162260D02*
X0165397Y0162260D01*
X0166396Y0163259D02*
X0124604Y0163259D01*
X0123145Y0164257D02*
X0167855Y0164257D01*
X0174877Y0164257D02*
X0282496Y0164257D01*
X0282496Y0163259D02*
X0176336Y0163259D01*
X0177335Y0162260D02*
X0282496Y0162260D01*
X0282496Y0161262D02*
X0178020Y0161262D01*
X0178433Y0160263D02*
X0282496Y0160263D01*
X0282496Y0159265D02*
X0178847Y0159265D01*
X0178953Y0158266D02*
X0282496Y0158266D01*
X0282496Y0157268D02*
X0178953Y0157268D01*
X0178953Y0156269D02*
X0282496Y0156269D01*
X0282496Y0155271D02*
X0178654Y0155271D01*
X0178241Y0154272D02*
X0282496Y0154272D01*
X0282496Y0153274D02*
X0177827Y0153274D01*
X0176870Y0152275D02*
X0282496Y0152275D01*
X0282496Y0151277D02*
X0175872Y0151277D01*
X0173756Y0150278D02*
X0282496Y0150278D01*
X0282496Y0149280D02*
X0162254Y0149280D01*
X0162816Y0148281D02*
X0282496Y0148281D01*
X0282496Y0147283D02*
X0163087Y0147283D01*
X0163087Y0146284D02*
X0282496Y0146284D01*
X0282496Y0145286D02*
X0162744Y0145286D01*
X0162081Y0144287D02*
X0282496Y0144287D01*
X0282496Y0143289D02*
X0160581Y0143289D01*
X0162500Y0138705D02*
X0153295Y0138705D01*
X0149437Y0142563D01*
X0149437Y0146870D01*
X0157291Y0150278D02*
X0157559Y0150278D01*
X0156821Y0151277D02*
X0166860Y0151277D01*
X0168976Y0150278D02*
X0161000Y0150278D01*
X0147509Y0140293D02*
X0117308Y0140293D01*
X0118307Y0139295D02*
X0148507Y0139295D01*
X0149506Y0138296D02*
X0139899Y0138296D01*
X0141304Y0137298D02*
X0150504Y0137298D01*
X0151503Y0136299D02*
X0142302Y0136299D01*
X0143301Y0135301D02*
X0160736Y0135301D01*
X0160736Y0134302D02*
X0144299Y0134302D01*
X0145128Y0133303D02*
X0160736Y0133303D01*
X0160736Y0132305D02*
X0145461Y0132305D01*
X0145461Y0131306D02*
X0160736Y0131306D01*
X0160353Y0130308D02*
X0145461Y0130308D01*
X0145461Y0129309D02*
X0158695Y0129309D01*
X0158731Y0129371D02*
X0158731Y0129371D01*
X0158731Y0129371D01*
X0158119Y0128311D02*
X0145461Y0128311D01*
X0145461Y0127312D02*
X0157604Y0127312D01*
X0157604Y0126314D02*
X0145461Y0126314D01*
X0145461Y0125315D02*
X0157604Y0125315D01*
X0157726Y0124317D02*
X0145461Y0124317D01*
X0145461Y0123318D02*
X0158302Y0123318D01*
X0158254Y0122320D02*
X0145461Y0122320D01*
X0145461Y0121321D02*
X0157678Y0121321D01*
X0157604Y0120323D02*
X0145461Y0120323D01*
X0145461Y0119324D02*
X0157604Y0119324D01*
X0157604Y0118326D02*
X0145461Y0118326D01*
X0145461Y0117327D02*
X0158166Y0117327D01*
X0158390Y0116329D02*
X0145461Y0116329D01*
X0145461Y0115330D02*
X0157814Y0115330D01*
X0157604Y0114332D02*
X0145461Y0114332D01*
X0145461Y0113333D02*
X0157604Y0113333D01*
X0157604Y0112335D02*
X0145461Y0112335D01*
X0145461Y0111336D02*
X0158030Y0111336D01*
X0158526Y0110338D02*
X0145461Y0110338D01*
X0145461Y0109339D02*
X0157949Y0109339D01*
X0157604Y0108341D02*
X0145225Y0108341D01*
X0144532Y0107342D02*
X0157604Y0107342D01*
X0157604Y0106344D02*
X0143536Y0106344D01*
X0142968Y0105345D02*
X0157895Y0105345D01*
X0158471Y0104347D02*
X0142968Y0104347D01*
X0142968Y0103348D02*
X0159681Y0103348D01*
X0158731Y0103897D02*
X0158731Y0103897D01*
X0158731Y0103897D01*
X0160736Y0102350D02*
X0142968Y0102350D01*
X0142085Y0101351D02*
X0160736Y0101351D01*
X0160736Y0100353D02*
X0141086Y0100353D01*
X0140088Y0099354D02*
X0160736Y0099354D01*
X0142492Y0109500D02*
X0142492Y0131911D01*
X0138911Y0135492D01*
X0117911Y0135492D01*
X0110492Y0142911D01*
X0110492Y0157500D01*
X0110500Y0157508D01*
X0110500Y0186500D01*
X0106500Y0190500D01*
X0098500Y0190500D01*
X0095500Y0187500D01*
X0095500Y0185500D01*
X0092531Y0185226D02*
X0061703Y0185226D01*
X0061669Y0185102D02*
X0061772Y0185484D01*
X0061772Y0186870D01*
X0058689Y0186870D01*
X0058689Y0187248D01*
X0061772Y0187248D01*
X0061772Y0188634D01*
X0061669Y0189016D01*
X0061472Y0189358D01*
X0061193Y0189637D01*
X0060851Y0189835D01*
X0060469Y0189937D01*
X0058689Y0189937D01*
X0058689Y0187248D01*
X0058311Y0187248D01*
X0058311Y0186870D01*
X0055228Y0186870D01*
X0055228Y0185484D01*
X0055331Y0185102D01*
X0055528Y0184760D01*
X0055807Y0184481D01*
X0056149Y0184283D01*
X0056150Y0184283D01*
X0055638Y0183771D01*
X0055638Y0180111D01*
X0056277Y0179472D01*
X0060723Y0179472D01*
X0061362Y0180111D01*
X0061362Y0180469D01*
X0061638Y0180469D01*
X0061638Y0180229D01*
X0062277Y0179591D01*
X0066280Y0179591D01*
X0066205Y0179409D01*
X0062277Y0179409D01*
X0061638Y0178771D01*
X0061638Y0175111D01*
X0062277Y0174472D01*
X0066723Y0174472D01*
X0067301Y0175050D01*
X0067724Y0175050D01*
X0068705Y0176031D01*
X0068991Y0176031D01*
X0069898Y0176407D01*
X0069909Y0176418D01*
X0069909Y0174400D01*
X0069407Y0173898D01*
X0069031Y0172991D01*
X0069031Y0172009D01*
X0069407Y0171102D01*
X0070102Y0170407D01*
X0071009Y0170031D01*
X0071991Y0170031D01*
X0072898Y0170407D01*
X0073593Y0171102D01*
X0073968Y0172009D01*
X0073968Y0172991D01*
X0073593Y0173898D01*
X0073091Y0174400D01*
X0073091Y0180159D01*
X0071091Y0182159D01*
X0070159Y0183091D01*
X0067362Y0183091D01*
X0067362Y0183889D01*
X0066723Y0184528D01*
X0062277Y0184528D01*
X0061638Y0183889D01*
X0061638Y0183650D01*
X0061362Y0183650D01*
X0061362Y0183771D01*
X0060850Y0184283D01*
X0060851Y0184283D01*
X0061193Y0184481D01*
X0061472Y0184760D01*
X0061669Y0185102D01*
X0061977Y0184228D02*
X0060905Y0184228D01*
X0061772Y0186225D02*
X0091324Y0186225D01*
X0091615Y0187223D02*
X0058689Y0187223D01*
X0058311Y0187223D02*
X0027287Y0187223D01*
X0027515Y0186225D02*
X0055228Y0186225D01*
X0055297Y0185226D02*
X0027631Y0185226D01*
X0027642Y0183229D02*
X0055638Y0183229D01*
X0055638Y0182231D02*
X0027530Y0182231D01*
X0027310Y0181232D02*
X0055638Y0181232D01*
X0055638Y0180234D02*
X0027007Y0180234D01*
X0026612Y0179235D02*
X0062102Y0179235D01*
X0061638Y0178237D02*
X0026113Y0178237D01*
X0025485Y0177238D02*
X0061638Y0177238D01*
X0061638Y0176239D02*
X0024692Y0176239D01*
X0023708Y0175241D02*
X0061638Y0175241D01*
X0067915Y0175241D02*
X0069909Y0175241D01*
X0069909Y0176239D02*
X0069493Y0176239D01*
X0069751Y0174242D02*
X0022417Y0174242D01*
X0020627Y0173244D02*
X0069136Y0173244D01*
X0069031Y0172245D02*
X0016953Y0172245D01*
X0016173Y0172245D02*
X0015173Y0172245D01*
X0014393Y0172245D02*
X0003968Y0172245D01*
X0003968Y0171247D02*
X0046756Y0171247D01*
X0047102Y0171593D02*
X0046407Y0170898D01*
X0046031Y0169991D01*
X0046031Y0169009D01*
X0046407Y0168102D01*
X0047102Y0167407D01*
X0048009Y0167031D01*
X0048991Y0167031D01*
X0049898Y0167407D01*
X0050593Y0168102D01*
X0050968Y0169009D01*
X0050968Y0169991D01*
X0050593Y0170898D01*
X0049898Y0171593D01*
X0048991Y0171968D01*
X0048009Y0171968D01*
X0047102Y0171593D01*
X0046138Y0170248D02*
X0003968Y0170248D01*
X0003968Y0169250D02*
X0046031Y0169250D01*
X0046345Y0168251D02*
X0003968Y0168251D01*
X0003968Y0167253D02*
X0047474Y0167253D01*
X0049525Y0167253D02*
X0083456Y0167253D01*
X0083456Y0168251D02*
X0050655Y0168251D01*
X0050968Y0169250D02*
X0083456Y0169250D01*
X0083456Y0170248D02*
X0072515Y0170248D01*
X0073653Y0171247D02*
X0083456Y0171247D01*
X0083456Y0172245D02*
X0073968Y0172245D01*
X0073864Y0173244D02*
X0083456Y0173244D01*
X0083456Y0174242D02*
X0073249Y0174242D01*
X0073091Y0175241D02*
X0083949Y0175241D01*
X0091246Y0175241D02*
X0101154Y0175241D01*
X0100661Y0174242D02*
X0091739Y0174242D01*
X0091739Y0173244D02*
X0100661Y0173244D01*
X0100661Y0172245D02*
X0091739Y0172245D01*
X0091739Y0171247D02*
X0100661Y0171247D01*
X0100661Y0170248D02*
X0091739Y0170248D01*
X0091739Y0169250D02*
X0100661Y0169250D01*
X0100661Y0168251D02*
X0091739Y0168251D01*
X0092515Y0167253D02*
X0100661Y0167253D01*
X0100661Y0166254D02*
X0093514Y0166254D01*
X0094512Y0165256D02*
X0100661Y0165256D01*
X0100661Y0164257D02*
X0095511Y0164257D01*
X0096509Y0163259D02*
X0100661Y0163259D01*
X0100661Y0162260D02*
X0097508Y0162260D01*
X0097500Y0158500D02*
X0106508Y0158500D01*
X0108508Y0156500D01*
X0108508Y0142089D01*
X0117089Y0133508D01*
X0138089Y0133508D01*
X0140508Y0131089D01*
X0140508Y0127500D01*
X0137500Y0124500D01*
X0133577Y0128311D02*
X0131423Y0128311D01*
X0130424Y0129309D02*
X0134576Y0129309D01*
X0137091Y0130308D02*
X0106434Y0130308D01*
X0106591Y0131306D02*
X0115092Y0131306D01*
X0114094Y0132305D02*
X0106591Y0132305D01*
X0106181Y0133303D02*
X0113095Y0133303D01*
X0112097Y0134302D02*
X0105483Y0134302D01*
X0104014Y0135301D02*
X0111098Y0135301D01*
X0110100Y0136299D02*
X0082113Y0136299D01*
X0082209Y0136244D02*
X0081867Y0136441D01*
X0081485Y0136543D01*
X0078638Y0136543D01*
X0078638Y0132000D01*
X0082788Y0132000D01*
X0082788Y0135241D01*
X0082686Y0135622D01*
X0082488Y0135964D01*
X0082209Y0136244D01*
X0082772Y0135301D02*
X0084922Y0135301D01*
X0084922Y0134302D02*
X0082788Y0134302D01*
X0082788Y0133303D02*
X0084922Y0133303D01*
X0084922Y0132305D02*
X0082788Y0132305D01*
X0082788Y0130308D02*
X0084922Y0130308D01*
X0084922Y0131306D02*
X0078638Y0131306D01*
X0078638Y0132305D02*
X0077638Y0132305D01*
X0077638Y0132000D02*
X0077638Y0136543D01*
X0074791Y0136543D01*
X0074410Y0136441D01*
X0074068Y0136244D01*
X0073788Y0135964D01*
X0073591Y0135622D01*
X0073489Y0135241D01*
X0073489Y0132000D01*
X0077638Y0132000D01*
X0077638Y0131306D02*
X0072838Y0131306D01*
X0072968Y0130991D02*
X0072593Y0131898D01*
X0071898Y0132593D01*
X0070991Y0132968D01*
X0070009Y0132968D01*
X0069102Y0132593D01*
X0068407Y0131898D01*
X0068031Y0130991D01*
X0068031Y0130009D01*
X0068407Y0129102D01*
X0069102Y0128407D01*
X0070009Y0128031D01*
X0070991Y0128031D01*
X0071898Y0128407D01*
X0072593Y0129102D01*
X0072968Y0130009D01*
X0072968Y0130991D01*
X0072968Y0130308D02*
X0073489Y0130308D01*
X0073489Y0129309D02*
X0072679Y0129309D01*
X0073489Y0128311D02*
X0071666Y0128311D01*
X0073628Y0127312D02*
X0054937Y0127312D01*
X0053938Y0128311D02*
X0069334Y0128311D01*
X0068321Y0129309D02*
X0052940Y0129309D01*
X0051941Y0130308D02*
X0068031Y0130308D01*
X0068162Y0131306D02*
X0050943Y0131306D01*
X0049944Y0132305D02*
X0068814Y0132305D01*
X0072186Y0132305D02*
X0073489Y0132305D01*
X0073489Y0133303D02*
X0048946Y0133303D01*
X0047947Y0134302D02*
X0073489Y0134302D01*
X0073505Y0135301D02*
X0046949Y0135301D01*
X0045950Y0136299D02*
X0074164Y0136299D01*
X0077638Y0136299D02*
X0078638Y0136299D01*
X0078638Y0135301D02*
X0077638Y0135301D01*
X0077638Y0134302D02*
X0078638Y0134302D01*
X0078638Y0133303D02*
X0077638Y0133303D01*
X0082788Y0129309D02*
X0084922Y0129309D01*
X0084922Y0128311D02*
X0082788Y0128311D01*
X0082648Y0127312D02*
X0085114Y0127312D01*
X0087967Y0122320D02*
X0095033Y0122320D01*
X0093536Y0121321D02*
X0089464Y0121321D01*
X0090173Y0120323D02*
X0092827Y0120323D01*
X0092414Y0119324D02*
X0090586Y0119324D01*
X0090591Y0118326D02*
X0092409Y0118326D01*
X0092409Y0117327D02*
X0090591Y0117327D01*
X0090591Y0116329D02*
X0092409Y0116329D01*
X0092409Y0115330D02*
X0090591Y0115330D01*
X0090591Y0114332D02*
X0092409Y0114332D01*
X0092409Y0113333D02*
X0090916Y0113333D01*
X0091915Y0112335D02*
X0092409Y0112335D01*
X0096500Y0115500D02*
X0104500Y0107500D01*
X0110500Y0107500D01*
X0131500Y0086500D01*
X0130411Y0084376D02*
X0128589Y0084376D01*
X0109302Y0085375D02*
X0097459Y0085375D01*
X0097907Y0086373D02*
X0108304Y0086373D01*
X0107305Y0087372D02*
X0098073Y0087372D01*
X0098013Y0088370D02*
X0106307Y0088370D01*
X0105308Y0089369D02*
X0097599Y0089369D01*
X0096717Y0090368D02*
X0104310Y0090368D01*
X0120904Y0105345D02*
X0122031Y0105345D01*
X0122031Y0104347D02*
X0121903Y0104347D01*
X0122031Y0106344D02*
X0119906Y0106344D01*
X0118907Y0107342D02*
X0122609Y0107342D01*
X0123607Y0108341D02*
X0117909Y0108341D01*
X0117091Y0109339D02*
X0124606Y0109339D01*
X0124879Y0111336D02*
X0117091Y0111336D01*
X0117091Y0110338D02*
X0139134Y0110338D01*
X0142492Y0109500D02*
X0137500Y0104500D01*
X0123880Y0112335D02*
X0117091Y0112335D01*
X0117091Y0113333D02*
X0123409Y0113333D01*
X0123409Y0114332D02*
X0117091Y0114332D01*
X0117091Y0115330D02*
X0123409Y0115330D01*
X0123544Y0116329D02*
X0117091Y0116329D01*
X0117091Y0117327D02*
X0124542Y0117327D01*
X0125541Y0118326D02*
X0117091Y0118326D01*
X0117091Y0119324D02*
X0124942Y0119324D01*
X0123944Y0120323D02*
X0117091Y0120323D01*
X0116928Y0121321D02*
X0122945Y0121321D01*
X0122031Y0122320D02*
X0115929Y0122320D01*
X0114931Y0123318D02*
X0122031Y0123318D01*
X0122031Y0124317D02*
X0113932Y0124317D01*
X0112934Y0125315D02*
X0122031Y0125315D01*
X0122031Y0126314D02*
X0111935Y0126314D01*
X0105033Y0122320D02*
X0097967Y0122320D01*
X0099464Y0121321D02*
X0103536Y0121321D01*
X0102827Y0120323D02*
X0100173Y0120323D01*
X0100586Y0119324D02*
X0102414Y0119324D01*
X0102409Y0118326D02*
X0100591Y0118326D01*
X0100591Y0117327D02*
X0102409Y0117327D01*
X0102409Y0116329D02*
X0100591Y0116329D01*
X0100591Y0115330D02*
X0102409Y0115330D01*
X0102409Y0114332D02*
X0100591Y0114332D01*
X0100916Y0113333D02*
X0102409Y0113333D01*
X0102409Y0112335D02*
X0101915Y0112335D01*
X0100000Y0137298D02*
X0099000Y0137298D01*
X0099000Y0138296D02*
X0100000Y0138296D01*
X0100000Y0139295D02*
X0099000Y0139295D01*
X0099000Y0140293D02*
X0100000Y0140293D01*
X0099000Y0141292D02*
X0040959Y0141292D01*
X0041452Y0136299D02*
X0003968Y0136299D01*
X0003968Y0135301D02*
X0029810Y0135301D01*
X0030102Y0135593D02*
X0029407Y0134898D01*
X0029031Y0133991D01*
X0029031Y0133009D01*
X0029407Y0132102D01*
X0030102Y0131407D01*
X0031009Y0131031D01*
X0031991Y0131031D01*
X0032898Y0131407D01*
X0033593Y0132102D01*
X0033968Y0133009D01*
X0033968Y0133991D01*
X0033593Y0134898D01*
X0032898Y0135593D01*
X0031991Y0135968D01*
X0031009Y0135968D01*
X0030102Y0135593D01*
X0029160Y0134302D02*
X0003968Y0134302D01*
X0003968Y0133303D02*
X0029031Y0133303D01*
X0029323Y0132305D02*
X0003968Y0132305D01*
X0003968Y0131306D02*
X0030345Y0131306D01*
X0032655Y0131306D02*
X0046444Y0131306D01*
X0047443Y0130308D02*
X0003968Y0130308D01*
X0003968Y0129309D02*
X0048441Y0129309D01*
X0049440Y0128311D02*
X0003968Y0128311D01*
X0003968Y0127312D02*
X0050438Y0127312D01*
X0051437Y0126314D02*
X0003968Y0126314D01*
X0003968Y0125315D02*
X0052435Y0125315D01*
X0053434Y0124317D02*
X0003968Y0124317D01*
X0003968Y0123318D02*
X0059167Y0123318D01*
X0059031Y0122320D02*
X0003968Y0122320D01*
X0003968Y0121321D02*
X0059316Y0121321D01*
X0060306Y0120323D02*
X0003968Y0120323D01*
X0005448Y0140559D02*
X0007975Y0140559D01*
X0008112Y0140504D01*
X0008244Y0140559D01*
X0010752Y0140559D01*
X0011391Y0141198D01*
X0011391Y0143902D01*
X0010752Y0144541D01*
X0009591Y0144541D01*
X0009591Y0150851D01*
X0010213Y0151473D01*
X0010213Y0155527D01*
X0009574Y0156165D01*
X0005521Y0156165D01*
X0004882Y0155527D01*
X0004882Y0151473D01*
X0005521Y0150835D01*
X0005809Y0150835D01*
X0005809Y0144541D01*
X0005448Y0144541D01*
X0004809Y0143902D01*
X0004809Y0141198D01*
X0005448Y0140559D01*
X0004809Y0141292D02*
X0003968Y0141292D01*
X0003968Y0142290D02*
X0004809Y0142290D01*
X0004809Y0143289D02*
X0003968Y0143289D01*
X0003968Y0144287D02*
X0005195Y0144287D01*
X0005809Y0145286D02*
X0003968Y0145286D01*
X0003968Y0146284D02*
X0005809Y0146284D01*
X0005809Y0147283D02*
X0003968Y0147283D01*
X0003968Y0148281D02*
X0005809Y0148281D01*
X0005809Y0149280D02*
X0003968Y0149280D01*
X0003968Y0150278D02*
X0005809Y0150278D01*
X0005079Y0151277D02*
X0003968Y0151277D01*
X0003968Y0152275D02*
X0004882Y0152275D01*
X0004882Y0153274D02*
X0003968Y0153274D01*
X0003968Y0154272D02*
X0004882Y0154272D01*
X0004882Y0155271D02*
X0003968Y0155271D01*
X0003968Y0156269D02*
X0020018Y0156269D01*
X0020111Y0156362D02*
X0019472Y0155723D01*
X0019472Y0155391D01*
X0016118Y0155391D01*
X0016118Y0155527D01*
X0015479Y0156165D01*
X0011426Y0156165D01*
X0010787Y0155527D01*
X0010787Y0151473D01*
X0011426Y0150835D01*
X0015479Y0150835D01*
X0016118Y0151473D01*
X0016118Y0151609D01*
X0019472Y0151609D01*
X0019472Y0151277D01*
X0015921Y0151277D01*
X0019472Y0151277D02*
X0020111Y0150638D01*
X0023771Y0150638D01*
X0024409Y0151277D01*
X0024591Y0151277D01*
X0025229Y0150638D01*
X0028889Y0150638D01*
X0029528Y0151277D01*
X0070031Y0151277D01*
X0070031Y0151009D02*
X0070407Y0150102D01*
X0071102Y0149407D01*
X0072009Y0149031D01*
X0072991Y0149031D01*
X0073539Y0149258D01*
X0073539Y0147759D01*
X0073641Y0147378D01*
X0073838Y0147036D01*
X0074118Y0146756D01*
X0074460Y0146559D01*
X0074841Y0146457D01*
X0077688Y0146457D01*
X0077688Y0151000D01*
X0078688Y0151000D01*
X0078688Y0146457D01*
X0081535Y0146457D01*
X0081917Y0146559D01*
X0082259Y0146756D01*
X0082538Y0147036D01*
X0082736Y0147378D01*
X0082838Y0147759D01*
X0082838Y0151000D01*
X0078688Y0151000D01*
X0078688Y0152000D01*
X0077688Y0152000D01*
X0077688Y0156543D01*
X0074841Y0156543D01*
X0074460Y0156441D01*
X0074118Y0156244D01*
X0073838Y0155964D01*
X0073641Y0155622D01*
X0073539Y0155241D01*
X0073539Y0153742D01*
X0072991Y0153968D01*
X0072009Y0153968D01*
X0071102Y0153593D01*
X0070407Y0152898D01*
X0070031Y0151991D01*
X0070031Y0151009D01*
X0070334Y0150278D02*
X0009591Y0150278D01*
X0009591Y0149280D02*
X0071410Y0149280D01*
X0073539Y0148281D02*
X0009591Y0148281D01*
X0009591Y0147283D02*
X0012635Y0147283D01*
X0012579Y0147250D02*
X0012300Y0146971D01*
X0012102Y0146629D01*
X0012000Y0146247D01*
X0012000Y0145150D01*
X0015700Y0145150D01*
X0015700Y0145150D01*
X0015700Y0147550D01*
X0018097Y0147550D01*
X0018479Y0147448D01*
X0018821Y0147250D01*
X0019100Y0146971D01*
X0019298Y0146629D01*
X0019400Y0146247D01*
X0019400Y0145150D01*
X0015700Y0145150D01*
X0015700Y0145150D01*
X0015700Y0145150D01*
X0015700Y0147550D01*
X0013303Y0147550D01*
X0012921Y0147448D01*
X0012579Y0147250D01*
X0012010Y0146284D02*
X0009591Y0146284D01*
X0009591Y0145286D02*
X0012000Y0145286D01*
X0012000Y0145150D02*
X0012000Y0144053D01*
X0012102Y0143671D01*
X0012300Y0143329D01*
X0012579Y0143050D01*
X0012921Y0142852D01*
X0013303Y0142750D01*
X0015700Y0142750D01*
X0018097Y0142750D01*
X0018479Y0142852D01*
X0018821Y0143050D01*
X0019100Y0143329D01*
X0019298Y0143671D01*
X0019400Y0144053D01*
X0019400Y0145150D01*
X0015700Y0145150D01*
X0015700Y0142750D01*
X0015700Y0145150D01*
X0015700Y0145150D01*
X0012000Y0145150D01*
X0012000Y0144287D02*
X0011005Y0144287D01*
X0011391Y0143289D02*
X0012340Y0143289D01*
X0015700Y0143289D02*
X0015700Y0143289D01*
X0015700Y0144287D02*
X0015700Y0144287D01*
X0015700Y0145286D02*
X0015700Y0145286D01*
X0015700Y0146284D02*
X0015700Y0146284D01*
X0015700Y0147283D02*
X0015700Y0147283D01*
X0018765Y0147283D02*
X0073696Y0147283D01*
X0077688Y0147283D02*
X0078688Y0147283D01*
X0078688Y0148281D02*
X0077688Y0148281D01*
X0077688Y0149280D02*
X0078688Y0149280D01*
X0078688Y0150278D02*
X0077688Y0150278D01*
X0078688Y0151277D02*
X0084972Y0151277D01*
X0084972Y0152275D02*
X0082838Y0152275D01*
X0082838Y0152000D02*
X0082838Y0155241D01*
X0082736Y0155622D01*
X0082538Y0155964D01*
X0082259Y0156244D01*
X0081917Y0156441D01*
X0081535Y0156543D01*
X0078688Y0156543D01*
X0078688Y0152000D01*
X0082838Y0152000D01*
X0082838Y0153274D02*
X0084972Y0153274D01*
X0084972Y0154272D02*
X0082838Y0154272D01*
X0082830Y0155271D02*
X0084972Y0155271D01*
X0082214Y0156269D02*
X0094758Y0156269D01*
X0094914Y0155271D02*
X0093452Y0155271D01*
X0093452Y0154272D02*
X0093487Y0154272D01*
X0093759Y0157268D02*
X0035223Y0157268D01*
X0034898Y0157593D02*
X0033991Y0157968D01*
X0033009Y0157968D01*
X0032102Y0157593D01*
X0031900Y0157391D01*
X0029528Y0157391D01*
X0029528Y0161723D01*
X0028889Y0162362D01*
X0025229Y0162362D01*
X0024591Y0161723D01*
X0024591Y0157277D01*
X0025169Y0156699D01*
X0025169Y0156301D01*
X0024591Y0155723D01*
X0024591Y0151277D01*
X0024409Y0151277D02*
X0024409Y0155723D01*
X0023771Y0156362D01*
X0020111Y0156362D01*
X0020111Y0156638D02*
X0023771Y0156638D01*
X0024409Y0157277D01*
X0024409Y0161723D01*
X0023771Y0162362D01*
X0020111Y0162362D01*
X0019472Y0161723D01*
X0019472Y0161391D01*
X0016118Y0161391D01*
X0016118Y0161527D01*
X0015479Y0162165D01*
X0011426Y0162165D01*
X0010787Y0161527D01*
X0010787Y0157473D01*
X0011426Y0156835D01*
X0015479Y0156835D01*
X0016118Y0157473D01*
X0016118Y0157609D01*
X0019472Y0157609D01*
X0019472Y0157277D01*
X0020111Y0156638D01*
X0019481Y0157268D02*
X0015912Y0157268D01*
X0010993Y0157268D02*
X0010475Y0157268D01*
X0010520Y0157346D02*
X0010622Y0157728D01*
X0010622Y0159213D01*
X0007835Y0159213D01*
X0007835Y0159787D01*
X0010622Y0159787D01*
X0010622Y0161272D01*
X0010520Y0161654D01*
X0010322Y0161996D01*
X0010043Y0162275D01*
X0009701Y0162473D01*
X0009320Y0162575D01*
X0007835Y0162575D01*
X0007835Y0159787D01*
X0007260Y0159787D01*
X0007260Y0159213D01*
X0004472Y0159213D01*
X0004472Y0157728D01*
X0004575Y0157346D01*
X0004772Y0157004D01*
X0005051Y0156725D01*
X0005393Y0156527D01*
X0005775Y0156425D01*
X0007260Y0156425D01*
X0007260Y0159213D01*
X0007835Y0159213D01*
X0007835Y0156425D01*
X0009320Y0156425D01*
X0009701Y0156527D01*
X0010043Y0156725D01*
X0010322Y0157004D01*
X0010520Y0157346D01*
X0010622Y0158266D02*
X0010787Y0158266D01*
X0010787Y0159265D02*
X0007835Y0159265D01*
X0007260Y0159265D02*
X0003968Y0159265D01*
X0004472Y0159787D02*
X0004472Y0161272D01*
X0004575Y0161654D01*
X0004772Y0161996D01*
X0005051Y0162275D01*
X0005393Y0162473D01*
X0005775Y0162575D01*
X0007260Y0162575D01*
X0007260Y0159787D01*
X0004472Y0159787D01*
X0004472Y0160263D02*
X0003968Y0160263D01*
X0003968Y0161262D02*
X0004472Y0161262D01*
X0003968Y0162260D02*
X0005037Y0162260D01*
X0003968Y0163259D02*
X0031031Y0163259D01*
X0031031Y0163009D02*
X0031407Y0162102D01*
X0032102Y0161407D01*
X0033009Y0161031D01*
X0033991Y0161031D01*
X0034898Y0161407D01*
X0035593Y0162102D01*
X0035968Y0163009D01*
X0035968Y0163991D01*
X0035593Y0164898D01*
X0034898Y0165593D01*
X0033991Y0165968D01*
X0033009Y0165968D01*
X0032102Y0165593D01*
X0031407Y0164898D01*
X0031031Y0163991D01*
X0031031Y0163009D01*
X0031342Y0162260D02*
X0028991Y0162260D01*
X0029528Y0161262D02*
X0032453Y0161262D01*
X0034547Y0161262D02*
X0083456Y0161262D01*
X0083456Y0162260D02*
X0035658Y0162260D01*
X0035968Y0163259D02*
X0083456Y0163259D01*
X0083456Y0164257D02*
X0035858Y0164257D01*
X0035235Y0165256D02*
X0083456Y0165256D01*
X0083456Y0166254D02*
X0003968Y0166254D01*
X0003968Y0165256D02*
X0031765Y0165256D01*
X0031142Y0164257D02*
X0003968Y0164257D01*
X0007260Y0162260D02*
X0007835Y0162260D01*
X0007835Y0161262D02*
X0007260Y0161262D01*
X0007260Y0160263D02*
X0007835Y0160263D01*
X0007835Y0158266D02*
X0007260Y0158266D01*
X0007260Y0157268D02*
X0007835Y0157268D01*
X0010213Y0155271D02*
X0010787Y0155271D01*
X0010787Y0154272D02*
X0010213Y0154272D01*
X0010213Y0153274D02*
X0010787Y0153274D01*
X0010787Y0152275D02*
X0010213Y0152275D01*
X0010016Y0151277D02*
X0010984Y0151277D01*
X0004620Y0157268D02*
X0003968Y0157268D01*
X0003968Y0158266D02*
X0004472Y0158266D01*
X0010622Y0160263D02*
X0010787Y0160263D01*
X0010787Y0161262D02*
X0010622Y0161262D01*
X0010058Y0162260D02*
X0020009Y0162260D01*
X0023872Y0162260D02*
X0025128Y0162260D01*
X0024591Y0161262D02*
X0024409Y0161262D01*
X0024409Y0160263D02*
X0024591Y0160263D01*
X0024591Y0159265D02*
X0024409Y0159265D01*
X0024409Y0158266D02*
X0024591Y0158266D01*
X0024599Y0157268D02*
X0024401Y0157268D01*
X0023864Y0156269D02*
X0025136Y0156269D01*
X0024591Y0155271D02*
X0024409Y0155271D01*
X0024409Y0154272D02*
X0024591Y0154272D01*
X0024591Y0153274D02*
X0024409Y0153274D01*
X0024409Y0152275D02*
X0024591Y0152275D01*
X0029528Y0152275D02*
X0070149Y0152275D01*
X0070783Y0153274D02*
X0034576Y0153274D01*
X0034898Y0153407D02*
X0035593Y0154102D01*
X0035968Y0155009D01*
X0035968Y0155991D01*
X0035593Y0156898D01*
X0034898Y0157593D01*
X0035853Y0156269D02*
X0074162Y0156269D01*
X0073547Y0155271D02*
X0035968Y0155271D01*
X0035663Y0154272D02*
X0073539Y0154272D01*
X0077688Y0154272D02*
X0078688Y0154272D01*
X0078688Y0153274D02*
X0077688Y0153274D01*
X0077688Y0152275D02*
X0078688Y0152275D01*
X0078688Y0155271D02*
X0077688Y0155271D01*
X0077688Y0156269D02*
X0078688Y0156269D01*
X0084045Y0160263D02*
X0029528Y0160263D01*
X0029528Y0159265D02*
X0091762Y0159265D01*
X0092761Y0158266D02*
X0029528Y0158266D01*
X0029842Y0153609D02*
X0031900Y0153609D01*
X0032102Y0153407D01*
X0033009Y0153031D01*
X0033991Y0153031D01*
X0034898Y0153407D01*
X0032424Y0153274D02*
X0029528Y0153274D01*
X0029528Y0153295D02*
X0029842Y0153609D01*
X0029528Y0153295D02*
X0029528Y0151277D01*
X0019390Y0146284D02*
X0105539Y0146284D01*
X0105539Y0145286D02*
X0104945Y0145286D01*
X0105539Y0147283D02*
X0093230Y0147283D01*
X0093452Y0148281D02*
X0093934Y0148281D01*
X0094055Y0145286D02*
X0019400Y0145286D01*
X0019400Y0144287D02*
X0092963Y0144287D01*
X0092361Y0143289D02*
X0019060Y0143289D01*
X0033190Y0135301D02*
X0042450Y0135301D01*
X0043449Y0134302D02*
X0033840Y0134302D01*
X0033968Y0133303D02*
X0044447Y0133303D01*
X0045446Y0132305D02*
X0033677Y0132305D01*
X0082681Y0147283D02*
X0085194Y0147283D01*
X0084972Y0148281D02*
X0082838Y0148281D01*
X0082838Y0149280D02*
X0084972Y0149280D01*
X0084972Y0150278D02*
X0082838Y0150278D01*
X0099000Y0145286D02*
X0100000Y0145286D01*
X0100000Y0144287D02*
X0099000Y0144287D01*
X0099000Y0143289D02*
X0100000Y0143289D01*
X0100000Y0142290D02*
X0099000Y0142290D01*
X0105660Y0138296D02*
X0108103Y0138296D01*
X0109101Y0137298D02*
X0104128Y0137298D01*
X0106427Y0139295D02*
X0107104Y0139295D01*
X0114313Y0143289D02*
X0129476Y0143289D01*
X0128385Y0144287D02*
X0113461Y0144287D01*
X0113461Y0145286D02*
X0127802Y0145286D01*
X0127544Y0146284D02*
X0113461Y0146284D01*
X0113461Y0147283D02*
X0127517Y0147283D01*
X0127745Y0148281D02*
X0113461Y0148281D01*
X0113461Y0149280D02*
X0128259Y0149280D01*
X0129238Y0150278D02*
X0122024Y0150278D01*
X0117244Y0150278D02*
X0113461Y0150278D01*
X0113461Y0151277D02*
X0115128Y0151277D01*
X0114130Y0152275D02*
X0113461Y0152275D01*
X0105539Y0148281D02*
X0105066Y0148281D01*
X0113468Y0162260D02*
X0113665Y0162260D01*
X0113468Y0163259D02*
X0114664Y0163259D01*
X0113468Y0164257D02*
X0116123Y0164257D01*
X0113468Y0165256D02*
X0282496Y0165256D01*
X0282496Y0166254D02*
X0113468Y0166254D01*
X0113468Y0167253D02*
X0282496Y0167253D01*
X0282496Y0168251D02*
X0113468Y0168251D01*
X0113468Y0169250D02*
X0282496Y0169250D01*
X0282496Y0170248D02*
X0113468Y0170248D01*
X0113468Y0171247D02*
X0282496Y0171247D01*
X0282496Y0172245D02*
X0272071Y0172245D01*
X0271291Y0172245D02*
X0270291Y0172245D01*
X0269512Y0172245D02*
X0113468Y0172245D01*
X0113468Y0173244D02*
X0265837Y0173244D01*
X0264047Y0174242D02*
X0113468Y0174242D01*
X0113468Y0175241D02*
X0262757Y0175241D01*
X0261773Y0176239D02*
X0113468Y0176239D01*
X0113468Y0177238D02*
X0260979Y0177238D01*
X0260352Y0178237D02*
X0113468Y0178237D01*
X0113468Y0179235D02*
X0259852Y0179235D01*
X0259458Y0180234D02*
X0113468Y0180234D01*
X0113468Y0181232D02*
X0259155Y0181232D01*
X0258935Y0182231D02*
X0113468Y0182231D01*
X0113468Y0183229D02*
X0258822Y0183229D01*
X0258834Y0185226D02*
X0113468Y0185226D01*
X0113468Y0184228D02*
X0270291Y0184228D01*
X0270291Y0183229D02*
X0271291Y0183229D01*
X0271291Y0182231D02*
X0270291Y0182231D01*
X0270291Y0181232D02*
X0271291Y0181232D01*
X0271291Y0180234D02*
X0270291Y0180234D01*
X0270291Y0179235D02*
X0271291Y0179235D01*
X0271291Y0178237D02*
X0270291Y0178237D01*
X0270291Y0177238D02*
X0271291Y0177238D01*
X0271291Y0176239D02*
X0270291Y0176239D01*
X0270291Y0175241D02*
X0271291Y0175241D01*
X0271291Y0174242D02*
X0270291Y0174242D01*
X0270291Y0173244D02*
X0271291Y0173244D01*
X0275745Y0173244D02*
X0282496Y0173244D01*
X0282496Y0174242D02*
X0277535Y0174242D01*
X0278826Y0175241D02*
X0282496Y0175241D01*
X0282496Y0176239D02*
X0279810Y0176239D01*
X0280603Y0177238D02*
X0282496Y0177238D01*
X0282496Y0178237D02*
X0281231Y0178237D01*
X0281730Y0179235D02*
X0282496Y0179235D01*
X0282496Y0180234D02*
X0282125Y0180234D01*
X0282428Y0181232D02*
X0282496Y0181232D01*
X0266047Y0195211D02*
X0020418Y0195211D01*
X0022257Y0194213D02*
X0264208Y0194213D01*
X0262877Y0193214D02*
X0107704Y0193214D01*
X0108982Y0192216D02*
X0261859Y0192216D01*
X0261057Y0191217D02*
X0109981Y0191217D01*
X0110979Y0190219D02*
X0260415Y0190219D01*
X0259901Y0189220D02*
X0111978Y0189220D01*
X0112976Y0188222D02*
X0259493Y0188222D01*
X0259178Y0187223D02*
X0113414Y0187223D01*
X0113468Y0186225D02*
X0258950Y0186225D01*
X0165295Y0137500D02*
X0165293Y0137605D01*
X0165287Y0137709D01*
X0165277Y0137813D01*
X0165264Y0137917D01*
X0165246Y0138020D01*
X0165225Y0138122D01*
X0165200Y0138223D01*
X0165171Y0138324D01*
X0165138Y0138423D01*
X0165102Y0138521D01*
X0165062Y0138618D01*
X0165018Y0138713D01*
X0164971Y0138806D01*
X0164921Y0138898D01*
X0164867Y0138987D01*
X0164809Y0139074D01*
X0164749Y0139160D01*
X0164685Y0139243D01*
X0164619Y0139323D01*
X0164549Y0139401D01*
X0164476Y0139476D01*
X0164401Y0139549D01*
X0164323Y0139619D01*
X0164243Y0139685D01*
X0164160Y0139749D01*
X0164074Y0139809D01*
X0163987Y0139867D01*
X0163898Y0139921D01*
X0163806Y0139971D01*
X0163713Y0140018D01*
X0163618Y0140062D01*
X0163521Y0140102D01*
X0163423Y0140138D01*
X0163324Y0140171D01*
X0163223Y0140200D01*
X0163122Y0140225D01*
X0163020Y0140246D01*
X0162917Y0140264D01*
X0162813Y0140277D01*
X0162709Y0140287D01*
X0162605Y0140293D01*
X0162500Y0140295D01*
X0162500Y0138705D02*
X0162568Y0138703D01*
X0162635Y0138697D01*
X0162702Y0138688D01*
X0162768Y0138675D01*
X0162834Y0138658D01*
X0162898Y0138637D01*
X0162961Y0138613D01*
X0163023Y0138586D01*
X0163083Y0138555D01*
X0163141Y0138520D01*
X0163197Y0138483D01*
X0163251Y0138442D01*
X0163303Y0138398D01*
X0163352Y0138352D01*
X0163398Y0138303D01*
X0163442Y0138251D01*
X0163483Y0138197D01*
X0163520Y0138141D01*
X0163555Y0138083D01*
X0163586Y0138023D01*
X0163613Y0137961D01*
X0163637Y0137898D01*
X0163658Y0137834D01*
X0163675Y0137768D01*
X0163688Y0137702D01*
X0163697Y0137635D01*
X0163703Y0137568D01*
X0163705Y0137500D01*
X0139524Y0118326D02*
X0139459Y0118326D01*
X0132126Y0143289D02*
X0131315Y0143289D01*
X0131315Y0144287D02*
X0132126Y0144287D01*
X0132126Y0145286D02*
X0131315Y0145286D01*
X0131315Y0146284D02*
X0132126Y0146284D01*
X0132126Y0147283D02*
X0131315Y0147283D01*
X0131315Y0148281D02*
X0132126Y0148281D01*
X0132126Y0149280D02*
X0131315Y0149280D01*
X0131315Y0150278D02*
X0132126Y0150278D01*
X0101685Y0176239D02*
X0073091Y0176239D01*
X0073091Y0177238D02*
X0101682Y0177238D01*
X0101678Y0178237D02*
X0073091Y0178237D01*
X0073091Y0179235D02*
X0101675Y0179235D01*
X0101672Y0180234D02*
X0073016Y0180234D01*
X0072017Y0181232D02*
X0095022Y0181232D01*
X0095276Y0181232D02*
X0095850Y0181232D01*
X0096104Y0181232D02*
X0101669Y0181232D01*
X0101204Y0182231D02*
X0098375Y0182231D01*
X0099228Y0183229D02*
X0100206Y0183229D01*
X0099753Y0184228D02*
X0099671Y0184228D01*
X0095850Y0182231D02*
X0095276Y0182231D01*
X0092751Y0182231D02*
X0071019Y0182231D01*
X0069500Y0181500D02*
X0064059Y0181500D01*
X0064500Y0182059D01*
X0057382Y0182059D01*
X0058500Y0181941D01*
X0056095Y0184228D02*
X0016173Y0184228D01*
X0016173Y0183229D02*
X0015173Y0183229D01*
X0015173Y0182231D02*
X0016173Y0182231D01*
X0016173Y0181232D02*
X0015173Y0181232D01*
X0015173Y0180234D02*
X0016173Y0180234D01*
X0016173Y0179235D02*
X0015173Y0179235D01*
X0015173Y0178237D02*
X0016173Y0178237D01*
X0016173Y0177238D02*
X0015173Y0177238D01*
X0015173Y0176239D02*
X0016173Y0176239D01*
X0016173Y0175241D02*
X0015173Y0175241D01*
X0015173Y0174242D02*
X0016173Y0174242D01*
X0016173Y0173244D02*
X0015173Y0173244D01*
X0010719Y0173244D02*
X0003968Y0173244D01*
X0003968Y0174242D02*
X0008929Y0174242D01*
X0007639Y0175241D02*
X0003968Y0175241D01*
X0003968Y0176239D02*
X0006655Y0176239D01*
X0005861Y0177238D02*
X0003968Y0177238D01*
X0003968Y0178237D02*
X0005234Y0178237D01*
X0004734Y0179235D02*
X0003968Y0179235D01*
X0003968Y0180234D02*
X0004340Y0180234D01*
X0004037Y0181232D02*
X0003968Y0181232D01*
X0023588Y0193214D02*
X0097296Y0193214D01*
X0096018Y0192216D02*
X0024605Y0192216D01*
X0025408Y0191217D02*
X0095019Y0191217D01*
X0094021Y0190219D02*
X0026049Y0190219D01*
X0026564Y0189220D02*
X0055448Y0189220D01*
X0055528Y0189358D02*
X0055331Y0189016D01*
X0055228Y0188634D01*
X0055228Y0187248D01*
X0058311Y0187248D01*
X0058311Y0189937D01*
X0056531Y0189937D01*
X0056149Y0189835D01*
X0055807Y0189637D01*
X0055528Y0189358D01*
X0055228Y0188222D02*
X0026971Y0188222D01*
X0050244Y0171247D02*
X0069347Y0171247D01*
X0070485Y0170248D02*
X0050862Y0170248D01*
X0061362Y0180234D02*
X0061638Y0180234D01*
X0067362Y0183229D02*
X0091898Y0183229D01*
X0091455Y0184228D02*
X0067023Y0184228D01*
X0069500Y0181500D02*
X0071500Y0179500D01*
X0071500Y0172500D01*
X0061772Y0188222D02*
X0092225Y0188222D01*
X0093022Y0189220D02*
X0061552Y0189220D01*
X0058689Y0189220D02*
X0058311Y0189220D01*
X0058311Y0188222D02*
X0058689Y0188222D01*
X0110940Y0072394D02*
X0282496Y0072394D01*
X0282496Y0071396D02*
X0111838Y0071396D01*
X0112252Y0070397D02*
X0282496Y0070397D01*
X0282496Y0069399D02*
X0112323Y0069399D01*
X0112168Y0068400D02*
X0282496Y0068400D01*
X0282496Y0067402D02*
X0111736Y0067402D01*
X0110961Y0066403D02*
X0282496Y0066403D01*
X0282496Y0065405D02*
X0110961Y0065405D01*
X0110961Y0064406D02*
X0282496Y0064406D01*
X0282496Y0063408D02*
X0110961Y0063408D01*
X0110961Y0062409D02*
X0282496Y0062409D01*
X0282496Y0061411D02*
X0110961Y0061411D01*
X0110961Y0060412D02*
X0282496Y0060412D01*
X0282496Y0059414D02*
X0110961Y0059414D01*
X0111686Y0058415D02*
X0282496Y0058415D01*
X0282496Y0057417D02*
X0112685Y0057417D01*
X0071400Y0025464D02*
X0071200Y0025464D01*
X0071200Y0024466D02*
X0071400Y0024466D01*
X0071400Y0023467D02*
X0071200Y0023467D01*
X0071200Y0022469D02*
X0071400Y0022469D01*
X0071400Y0021470D02*
X0071200Y0021470D01*
X0070213Y0020472D02*
X0072287Y0020472D01*
X0057561Y0031455D02*
X0003968Y0031455D01*
X0003968Y0030457D02*
X0056829Y0030457D01*
X0056800Y0029458D02*
X0003968Y0029458D01*
X0003968Y0028460D02*
X0056800Y0028460D01*
X0024462Y0007491D02*
X0137031Y0007491D01*
X0137245Y0006493D02*
X0023408Y0006493D01*
X0022028Y0005494D02*
X0138015Y0005494D01*
X0193170Y0047432D02*
X0234647Y0047432D01*
X0235645Y0048430D02*
X0192171Y0048430D01*
X0191173Y0049429D02*
X0282496Y0049429D01*
X0282496Y0050427D02*
X0190174Y0050427D01*
X0189176Y0051426D02*
X0282496Y0051426D01*
X0282496Y0052424D02*
X0188177Y0052424D01*
X0187179Y0053423D02*
X0282496Y0053423D01*
X0282496Y0054421D02*
X0186180Y0054421D01*
X0185182Y0055420D02*
X0282496Y0055420D01*
X0282496Y0056418D02*
X0183604Y0056418D01*
X0205880Y0046433D02*
X0206720Y0046433D01*
X0213780Y0046433D02*
X0214620Y0046433D01*
X0239355Y0048430D02*
X0245645Y0048430D01*
X0245806Y0048591D02*
X0243409Y0046194D01*
X0243409Y0042806D01*
X0245806Y0040409D01*
X0249194Y0040409D01*
X0251591Y0042806D01*
X0251591Y0046194D01*
X0249194Y0048591D01*
X0245806Y0048591D01*
X0244647Y0047432D02*
X0240353Y0047432D01*
X0241352Y0046433D02*
X0243648Y0046433D01*
X0243409Y0045434D02*
X0241591Y0045434D01*
X0241591Y0044436D02*
X0243409Y0044436D01*
X0243409Y0043437D02*
X0241591Y0043437D01*
X0241224Y0042439D02*
X0243776Y0042439D01*
X0244775Y0041440D02*
X0240225Y0041440D01*
X0239391Y0040442D02*
X0245773Y0040442D01*
X0245806Y0038591D02*
X0243409Y0036194D01*
X0243409Y0032806D01*
X0245806Y0030409D01*
X0249194Y0030409D01*
X0251591Y0032806D01*
X0251591Y0036194D01*
X0249194Y0038591D01*
X0245806Y0038591D01*
X0245660Y0038445D02*
X0239391Y0038445D01*
X0239391Y0039443D02*
X0282496Y0039443D01*
X0282496Y0038445D02*
X0259340Y0038445D01*
X0259194Y0038591D02*
X0255806Y0038591D01*
X0253409Y0036194D01*
X0253409Y0032806D01*
X0255806Y0030409D01*
X0259194Y0030409D01*
X0261591Y0032806D01*
X0261591Y0036194D01*
X0259194Y0038591D01*
X0259364Y0040000D02*
X0262000Y0042636D01*
X0262000Y0044000D01*
X0258000Y0044000D01*
X0258000Y0045000D01*
X0262000Y0045000D01*
X0262000Y0046364D01*
X0259364Y0049000D01*
X0258000Y0049000D01*
X0258000Y0045000D01*
X0257000Y0045000D01*
X0257000Y0049000D01*
X0255636Y0049000D01*
X0253000Y0046364D01*
X0253000Y0045000D01*
X0257000Y0045000D01*
X0257000Y0044000D01*
X0258000Y0044000D01*
X0258000Y0040000D01*
X0259364Y0040000D01*
X0259806Y0040442D02*
X0282496Y0040442D01*
X0282496Y0041440D02*
X0260804Y0041440D01*
X0261803Y0042439D02*
X0282496Y0042439D01*
X0282496Y0043437D02*
X0262000Y0043437D01*
X0262000Y0045434D02*
X0282496Y0045434D01*
X0282496Y0044436D02*
X0258000Y0044436D01*
X0258000Y0045434D02*
X0257000Y0045434D01*
X0257000Y0044436D02*
X0251591Y0044436D01*
X0251591Y0045434D02*
X0253000Y0045434D01*
X0253069Y0046433D02*
X0251352Y0046433D01*
X0250353Y0047432D02*
X0254068Y0047432D01*
X0255066Y0048430D02*
X0249355Y0048430D01*
X0253000Y0044000D02*
X0253000Y0042636D01*
X0255636Y0040000D01*
X0257000Y0040000D01*
X0257000Y0044000D01*
X0253000Y0044000D01*
X0253000Y0043437D02*
X0251591Y0043437D01*
X0251224Y0042439D02*
X0253197Y0042439D01*
X0254196Y0041440D02*
X0250225Y0041440D01*
X0249227Y0040442D02*
X0255194Y0040442D01*
X0257000Y0040442D02*
X0258000Y0040442D01*
X0258000Y0041440D02*
X0257000Y0041440D01*
X0257000Y0042439D02*
X0258000Y0042439D01*
X0258000Y0043437D02*
X0257000Y0043437D01*
X0257000Y0046433D02*
X0258000Y0046433D01*
X0258000Y0047432D02*
X0257000Y0047432D01*
X0257000Y0048430D02*
X0258000Y0048430D01*
X0259934Y0048430D02*
X0282496Y0048430D01*
X0282496Y0047432D02*
X0260932Y0047432D01*
X0261931Y0046433D02*
X0282496Y0046433D01*
X0282496Y0037446D02*
X0260338Y0037446D01*
X0261337Y0036448D02*
X0282496Y0036448D01*
X0282496Y0035449D02*
X0261591Y0035449D01*
X0261591Y0034451D02*
X0282496Y0034451D01*
X0282496Y0033452D02*
X0261591Y0033452D01*
X0261239Y0032454D02*
X0282496Y0032454D01*
X0282496Y0031455D02*
X0260240Y0031455D01*
X0259242Y0030457D02*
X0282496Y0030457D01*
X0282496Y0029458D02*
X0245215Y0029458D01*
X0245758Y0030457D02*
X0244217Y0030457D01*
X0244760Y0031455D02*
X0240240Y0031455D01*
X0241239Y0032454D02*
X0243761Y0032454D01*
X0243409Y0033452D02*
X0241591Y0033452D01*
X0241591Y0034451D02*
X0243409Y0034451D01*
X0243409Y0035449D02*
X0241591Y0035449D01*
X0241337Y0036448D02*
X0243663Y0036448D01*
X0244662Y0037446D02*
X0240338Y0037446D01*
X0249242Y0030457D02*
X0255758Y0030457D01*
X0254760Y0031455D02*
X0250240Y0031455D01*
X0251239Y0032454D02*
X0253761Y0032454D01*
X0253409Y0033452D02*
X0251591Y0033452D01*
X0251591Y0034451D02*
X0253409Y0034451D01*
X0253409Y0035449D02*
X0251591Y0035449D01*
X0251337Y0036448D02*
X0253663Y0036448D01*
X0254662Y0037446D02*
X0250338Y0037446D01*
X0249340Y0038445D02*
X0255660Y0038445D01*
X0246214Y0028460D02*
X0282496Y0028460D01*
X0282496Y0027461D02*
X0273072Y0027461D01*
X0276044Y0026463D02*
X0282496Y0026463D01*
X0282496Y0025464D02*
X0277760Y0025464D01*
X0278969Y0024466D02*
X0282496Y0024466D01*
X0282496Y0023467D02*
X0279924Y0023467D01*
X0280694Y0022469D02*
X0282496Y0022469D01*
X0282496Y0021470D02*
X0281319Y0021470D01*
X0281799Y0020472D02*
X0282496Y0020472D01*
X0282496Y0019473D02*
X0282175Y0019473D01*
X0282461Y0018475D02*
X0282496Y0018475D01*
X0013393Y0027461D02*
X0003968Y0027461D01*
X0003968Y0026463D02*
X0010421Y0026463D01*
X0008704Y0025464D02*
X0003968Y0025464D01*
X0003968Y0024466D02*
X0007495Y0024466D01*
X0006540Y0023467D02*
X0003968Y0023467D01*
X0003968Y0022469D02*
X0005771Y0022469D01*
X0005146Y0021470D02*
X0003968Y0021470D01*
X0003968Y0020472D02*
X0004665Y0020472D01*
X0004289Y0019473D02*
X0003968Y0019473D01*
X0003968Y0018475D02*
X0004004Y0018475D01*
D29*
X0006850Y0027750D03*
X0006850Y0035750D03*
X0013850Y0041750D03*
X0024850Y0029750D03*
X0030850Y0023750D03*
X0041850Y0029750D03*
X0053850Y0030750D03*
X0063727Y0033500D03*
X0067073Y0033500D03*
X0075527Y0033500D03*
X0078873Y0033500D03*
X0087327Y0033500D03*
X0090673Y0033500D03*
X0094850Y0037750D03*
X0098800Y0033300D03*
X0102800Y0033300D03*
X0106700Y0033300D03*
X0110700Y0033300D03*
X0115850Y0032750D03*
X0102850Y0018750D03*
X0100850Y0011750D03*
X0086850Y0014750D03*
X0073850Y0014750D03*
X0059850Y0011750D03*
X0050850Y0011750D03*
X0042850Y0018750D03*
X0037850Y0006750D03*
X0027850Y0006750D03*
X0059850Y0018750D03*
X0032850Y0040750D03*
X0048850Y0042750D03*
X0057850Y0053750D03*
X0043850Y0054750D03*
X0027850Y0054750D03*
X0012850Y0058750D03*
X0017450Y0069400D03*
X0011450Y0073400D03*
X0016450Y0077400D03*
X0011450Y0084400D03*
X0013450Y0092400D03*
X0016450Y0101400D03*
X0011450Y0113400D03*
X0021450Y0113400D03*
X0033450Y0101400D03*
X0043450Y0109400D03*
X0056450Y0105400D03*
X0065450Y0102400D03*
X0066450Y0086400D03*
X0073450Y0086400D03*
X0060076Y0084500D03*
X0056924Y0084500D03*
X0052450Y0087400D03*
X0047450Y0078400D03*
X0053450Y0071400D03*
X0047450Y0069400D03*
X0064450Y0070400D03*
X0072450Y0075400D03*
X0086450Y0069400D03*
X0098327Y0069500D03*
X0101673Y0069500D03*
X0105327Y0069500D03*
X0108673Y0069500D03*
X0115450Y0070400D03*
X0111450Y0080400D03*
X0100450Y0086400D03*
X0094423Y0087500D03*
X0091077Y0087500D03*
X0106850Y0101750D03*
X0112450Y0111400D03*
X0119500Y0110500D03*
X0112450Y0118400D03*
X0119500Y0121500D03*
X0101450Y0122400D03*
X0106450Y0135400D03*
X0092450Y0145400D03*
X0090500Y0157500D03*
X0097500Y0171500D03*
X0091500Y0180500D03*
X0083500Y0180500D03*
X0082450Y0171400D03*
X0076450Y0171400D03*
X0068500Y0185500D03*
X0061500Y0192500D03*
X0045500Y0192500D03*
X0027500Y0193500D03*
X0045500Y0174500D03*
X0034500Y0169500D03*
X0025500Y0173500D03*
X0016500Y0165500D03*
X0010500Y0165500D03*
X0006500Y0172500D03*
X0037500Y0151500D03*
X0029500Y0145500D03*
X0047500Y0151500D03*
X0050450Y0143400D03*
X0041450Y0131400D03*
X0026450Y0129400D03*
X0056450Y0129400D03*
X0056450Y0122400D03*
X0067450Y0122400D03*
X0089450Y0107400D03*
X0120850Y0086750D03*
X0127500Y0086500D03*
X0131500Y0086500D03*
X0138850Y0083750D03*
X0148200Y0087500D03*
X0156850Y0085750D03*
X0169850Y0087750D03*
X0169850Y0077750D03*
X0157850Y0068750D03*
X0133450Y0073400D03*
X0149500Y0102500D03*
X0154500Y0116500D03*
X0171850Y0122750D03*
X0158500Y0133500D03*
X0149500Y0131500D03*
X0144500Y0140500D03*
X0127500Y0139500D03*
X0117500Y0147500D03*
X0130500Y0159500D03*
X0115500Y0167500D03*
X0145850Y0174750D03*
X0127850Y0189750D03*
X0112500Y0191500D03*
X0093500Y0192500D03*
X0159500Y0159500D03*
X0171850Y0145750D03*
X0195850Y0130750D03*
X0216850Y0139750D03*
X0233850Y0124750D03*
X0258850Y0113750D03*
X0244850Y0104750D03*
X0221850Y0104750D03*
X0198850Y0104750D03*
X0216850Y0087750D03*
X0239850Y0086750D03*
X0247850Y0076750D03*
X0265850Y0086750D03*
X0278850Y0087750D03*
X0278850Y0070750D03*
X0266850Y0070750D03*
X0279850Y0050750D03*
X0265850Y0047750D03*
X0279850Y0028750D03*
X0259850Y0027750D03*
X0250850Y0026750D03*
X0228850Y0034750D03*
X0216200Y0044800D03*
X0212200Y0044800D03*
X0208300Y0044800D03*
X0204300Y0044800D03*
X0197850Y0045750D03*
X0203850Y0054750D03*
X0219850Y0055750D03*
X0230850Y0046750D03*
X0222850Y0069750D03*
X0197850Y0070750D03*
X0184850Y0068800D03*
X0188850Y0054750D03*
X0180850Y0046750D03*
X0160850Y0031750D03*
X0150850Y0024750D03*
X0140850Y0031750D03*
X0165850Y0017750D03*
X0165850Y0011750D03*
X0155850Y0011750D03*
X0145850Y0011750D03*
X0179850Y0014750D03*
X0192850Y0014750D03*
X0206850Y0011750D03*
X0207850Y0018750D03*
X0249850Y0006750D03*
X0257850Y0006750D03*
X0191850Y0083750D03*
X0171850Y0103750D03*
X0247850Y0149750D03*
X0258850Y0137750D03*
X0277850Y0139750D03*
X0277850Y0163750D03*
X0258850Y0169750D03*
X0232850Y0166750D03*
X0206850Y0164750D03*
X0182850Y0164750D03*
X0164850Y0189750D03*
X0188850Y0190750D03*
X0220850Y0190750D03*
X0249850Y0190750D03*
X0275850Y0104750D03*
X0084850Y0053750D03*
X0041450Y0087400D03*
X0024450Y0087400D03*
X0074450Y0141400D03*
D30*
X0099500Y0151500D02*
X0099500Y0155898D01*
X0087598Y0167800D01*
X0104802Y0167800D02*
X0104750Y0184137D01*
X0103437Y0185500D01*
M02*
