%
M48
M72
T01C0.01181
T02C0.01200
T03C0.01575
T04C0.01969
T05C0.02362
T06C0.03543
T07C0.03622
T08C0.04000
T09C0.04331
T10C0.04724
T11C0.06693
T12C0.09055
T13C0.11024
T14C0.12598
%
T01
X204300Y44800
X208300Y44800
X212200Y44800
X216200Y44800
T02
X195000Y55500
X191500Y55500
X206800Y67700
X220850Y67650
X219500Y96000
X207000Y96000
X172350Y75000
X169012Y75012
X148500Y86500
X120555Y76445
X118445Y78555
X117173Y69500
X113827Y69500
X110173Y69500
X106827Y69500
X70400Y85500
X67600Y85500
X65900Y102500
X63100Y102500
X47500Y115000
X56000Y117000
X56010Y121510
X57990Y123490
X62000Y124000
X65500Y124500
X73433Y125540
X73483Y139000
X73483Y146990
X77500Y154500
X73500Y159500
X62350Y170000
X55500Y166500
X58900Y165000
X47500Y170000
X37500Y170000
X30500Y163000
X24500Y153000
X28000Y151000
X24500Y146000
X30500Y134500
X27000Y130000
X33500Y127500
X38000Y121000
X11000Y109500
X20693Y88000
X28961Y78500
X32500Y83000
X38409Y69000
X5600Y73000
X5600Y83500
X69727Y33500
X73073Y33500
X81527Y33500
X84873Y33500
X93327Y33500
X96673Y33500
X104800Y33300
X108800Y33300
X112700Y33300
X116700Y33300
X116000Y17000
X111000Y17000
X120000Y7500
X211000Y18000
X215500Y18500
X219500Y7500
X93000Y160500
X80000Y177000
X74000Y186000
X55500Y191500
X55500Y196500
X64500Y218000
X15000Y199000
X159500Y218000
T03
X64500Y206000
X46500Y181000
X27000Y122000
X27000Y117000
T04
X27000Y175000
T05
X41000Y155500
X48000Y155500
X48000Y148500
X41000Y148500
X41000Y141500
X48000Y141500
X48000Y134500
X41000Y134500
X55000Y134500
X62000Y134500
X62000Y141500
X55000Y141500
X55000Y148500
X62000Y148500
X62000Y155500
X55000Y155500
X86000Y218000
X11441Y78500
T06
X177520Y144000
X187520Y144000
X197520Y144000
X207520Y144000
X212520Y154000
X202520Y154000
X192520Y154000
X182520Y154000
T07
X144780Y170870
X134937Y170870
X127063Y170870
X117220Y170870
T08
X145000Y125000
X145000Y115000
X145000Y105000
X127500Y112500
X117500Y112500
X117500Y122500
X127500Y122500
X107500Y122500
X107500Y112500
X48500Y50000
X38500Y50000
X28500Y50000
X18500Y50000
X18500Y40000
X28500Y40000
X38500Y40000
X48500Y40000
X18000Y181000
X8000Y181000
X227500Y52500
X237500Y52500
X237500Y42500
X227500Y42500
X227500Y32500
X237500Y32500
T09
X274433Y78500
X221102Y198291
X211102Y198291
X178898Y198291
X168898Y198291
T10
X255500Y177500
X275185Y177500
X274000Y46000
X254315Y46000
T11
X225512Y166992
X164488Y166992
T12
X156866Y181500
X105134Y181500
T13
X29453Y15673
X257012Y15673
X257012Y207799
X29453Y207799
T14
X172500Y179000
X217500Y179000
M30
