G75*
%MOIN*%
%OFA0B0*%
%FSLAX25Y25*%
%IPPOS*%
%LPD*%
%AMOC8*
5,1,8,0,0,1.08239X$1,22.5*
%
%ADD10C,0.00000*%
%ADD11C,0.00800*%
%ADD12C,0.00600*%
%ADD13C,0.00400*%
%ADD14C,0.00500*%
%ADD15C,0.00300*%
%ADD16C,0.00200*%
D10*
X0015673Y0001500D02*
X0270791Y0001500D01*
X0271133Y0001504D01*
X0271476Y0001517D01*
X0271818Y0001537D01*
X0272159Y0001566D01*
X0272499Y0001603D01*
X0272839Y0001649D01*
X0273177Y0001702D01*
X0273514Y0001764D01*
X0273849Y0001834D01*
X0274183Y0001912D01*
X0274514Y0001998D01*
X0274844Y0002092D01*
X0275171Y0002194D01*
X0275495Y0002303D01*
X0275817Y0002421D01*
X0276136Y0002546D01*
X0276451Y0002679D01*
X0276764Y0002820D01*
X0277072Y0002968D01*
X0277378Y0003123D01*
X0277679Y0003286D01*
X0277976Y0003456D01*
X0278269Y0003633D01*
X0278558Y0003818D01*
X0278842Y0004009D01*
X0279122Y0004207D01*
X0279396Y0004411D01*
X0279666Y0004623D01*
X0279930Y0004840D01*
X0280189Y0005064D01*
X0280443Y0005295D01*
X0280691Y0005531D01*
X0280933Y0005773D01*
X0281169Y0006021D01*
X0281400Y0006275D01*
X0281624Y0006534D01*
X0281841Y0006798D01*
X0282053Y0007068D01*
X0282257Y0007342D01*
X0282455Y0007622D01*
X0282646Y0007906D01*
X0282831Y0008195D01*
X0283008Y0008488D01*
X0283178Y0008785D01*
X0283341Y0009086D01*
X0283496Y0009392D01*
X0283644Y0009700D01*
X0283785Y0010013D01*
X0283918Y0010328D01*
X0284043Y0010647D01*
X0284161Y0010969D01*
X0284270Y0011293D01*
X0284372Y0011620D01*
X0284466Y0011950D01*
X0284552Y0012281D01*
X0284630Y0012615D01*
X0284700Y0012950D01*
X0284762Y0013287D01*
X0284815Y0013625D01*
X0284861Y0013965D01*
X0284898Y0014305D01*
X0284927Y0014646D01*
X0284947Y0014988D01*
X0284960Y0015331D01*
X0284964Y0015673D01*
X0284965Y0015673D02*
X0284965Y0184177D01*
X0284964Y0184177D02*
X0284960Y0184519D01*
X0284947Y0184862D01*
X0284927Y0185204D01*
X0284898Y0185545D01*
X0284861Y0185885D01*
X0284815Y0186225D01*
X0284762Y0186563D01*
X0284700Y0186900D01*
X0284630Y0187235D01*
X0284552Y0187569D01*
X0284466Y0187900D01*
X0284372Y0188230D01*
X0284270Y0188557D01*
X0284161Y0188881D01*
X0284043Y0189203D01*
X0283918Y0189522D01*
X0283785Y0189837D01*
X0283644Y0190150D01*
X0283496Y0190458D01*
X0283341Y0190764D01*
X0283178Y0191065D01*
X0283008Y0191362D01*
X0282831Y0191655D01*
X0282646Y0191944D01*
X0282455Y0192228D01*
X0282257Y0192508D01*
X0282053Y0192782D01*
X0281841Y0193052D01*
X0281624Y0193316D01*
X0281400Y0193575D01*
X0281169Y0193829D01*
X0280933Y0194077D01*
X0280691Y0194319D01*
X0280443Y0194555D01*
X0280189Y0194786D01*
X0279930Y0195010D01*
X0279666Y0195227D01*
X0279396Y0195439D01*
X0279122Y0195643D01*
X0278842Y0195841D01*
X0278558Y0196032D01*
X0278269Y0196217D01*
X0277976Y0196394D01*
X0277679Y0196564D01*
X0277378Y0196727D01*
X0277072Y0196882D01*
X0276764Y0197030D01*
X0276451Y0197171D01*
X0276136Y0197304D01*
X0275817Y0197429D01*
X0275495Y0197547D01*
X0275171Y0197656D01*
X0274844Y0197758D01*
X0274514Y0197852D01*
X0274183Y0197938D01*
X0273849Y0198016D01*
X0273514Y0198086D01*
X0273177Y0198148D01*
X0272839Y0198201D01*
X0272499Y0198247D01*
X0272159Y0198284D01*
X0271818Y0198313D01*
X0271476Y0198333D01*
X0271133Y0198346D01*
X0270791Y0198350D01*
X0015673Y0198350D01*
X0015331Y0198346D01*
X0014988Y0198333D01*
X0014646Y0198313D01*
X0014305Y0198284D01*
X0013965Y0198247D01*
X0013625Y0198201D01*
X0013287Y0198148D01*
X0012950Y0198086D01*
X0012615Y0198016D01*
X0012281Y0197938D01*
X0011950Y0197852D01*
X0011620Y0197758D01*
X0011293Y0197656D01*
X0010969Y0197547D01*
X0010647Y0197429D01*
X0010328Y0197304D01*
X0010013Y0197171D01*
X0009700Y0197030D01*
X0009392Y0196882D01*
X0009086Y0196727D01*
X0008785Y0196564D01*
X0008488Y0196394D01*
X0008195Y0196217D01*
X0007906Y0196032D01*
X0007622Y0195841D01*
X0007342Y0195643D01*
X0007068Y0195439D01*
X0006798Y0195227D01*
X0006534Y0195010D01*
X0006275Y0194786D01*
X0006021Y0194555D01*
X0005773Y0194319D01*
X0005531Y0194077D01*
X0005295Y0193829D01*
X0005064Y0193575D01*
X0004840Y0193316D01*
X0004623Y0193052D01*
X0004411Y0192782D01*
X0004207Y0192508D01*
X0004009Y0192228D01*
X0003818Y0191944D01*
X0003633Y0191655D01*
X0003456Y0191362D01*
X0003286Y0191065D01*
X0003123Y0190764D01*
X0002968Y0190458D01*
X0002820Y0190150D01*
X0002679Y0189837D01*
X0002546Y0189522D01*
X0002421Y0189203D01*
X0002303Y0188881D01*
X0002194Y0188557D01*
X0002092Y0188230D01*
X0001998Y0187900D01*
X0001912Y0187569D01*
X0001834Y0187235D01*
X0001764Y0186900D01*
X0001702Y0186563D01*
X0001649Y0186225D01*
X0001603Y0185885D01*
X0001566Y0185545D01*
X0001537Y0185204D01*
X0001517Y0184862D01*
X0001504Y0184519D01*
X0001500Y0184177D01*
X0001500Y0015673D01*
X0001504Y0015331D01*
X0001517Y0014988D01*
X0001537Y0014646D01*
X0001566Y0014305D01*
X0001603Y0013965D01*
X0001649Y0013625D01*
X0001702Y0013287D01*
X0001764Y0012950D01*
X0001834Y0012615D01*
X0001912Y0012281D01*
X0001998Y0011950D01*
X0002092Y0011620D01*
X0002194Y0011293D01*
X0002303Y0010969D01*
X0002421Y0010647D01*
X0002546Y0010328D01*
X0002679Y0010013D01*
X0002820Y0009700D01*
X0002968Y0009392D01*
X0003123Y0009086D01*
X0003286Y0008785D01*
X0003456Y0008488D01*
X0003633Y0008195D01*
X0003818Y0007906D01*
X0004009Y0007622D01*
X0004207Y0007342D01*
X0004411Y0007068D01*
X0004623Y0006798D01*
X0004840Y0006534D01*
X0005064Y0006275D01*
X0005295Y0006021D01*
X0005531Y0005773D01*
X0005773Y0005531D01*
X0006021Y0005295D01*
X0006275Y0005064D01*
X0006534Y0004840D01*
X0006798Y0004623D01*
X0007068Y0004411D01*
X0007342Y0004207D01*
X0007622Y0004009D01*
X0007906Y0003818D01*
X0008195Y0003633D01*
X0008488Y0003456D01*
X0008785Y0003286D01*
X0009086Y0003123D01*
X0009392Y0002968D01*
X0009700Y0002820D01*
X0010013Y0002679D01*
X0010328Y0002546D01*
X0010647Y0002421D01*
X0010969Y0002303D01*
X0011293Y0002194D01*
X0011620Y0002092D01*
X0011950Y0001998D01*
X0012281Y0001912D01*
X0012615Y0001834D01*
X0012950Y0001764D01*
X0013287Y0001702D01*
X0013625Y0001649D01*
X0013965Y0001603D01*
X0014305Y0001566D01*
X0014646Y0001537D01*
X0014988Y0001517D01*
X0015331Y0001504D01*
X0015673Y0001500D01*
X0010260Y0078500D02*
X0010262Y0078569D01*
X0010268Y0078637D01*
X0010278Y0078705D01*
X0010292Y0078772D01*
X0010310Y0078839D01*
X0010331Y0078904D01*
X0010357Y0078968D01*
X0010386Y0079030D01*
X0010418Y0079090D01*
X0010454Y0079149D01*
X0010494Y0079205D01*
X0010536Y0079259D01*
X0010582Y0079310D01*
X0010631Y0079359D01*
X0010682Y0079405D01*
X0010736Y0079447D01*
X0010792Y0079487D01*
X0010850Y0079523D01*
X0010911Y0079555D01*
X0010973Y0079584D01*
X0011037Y0079610D01*
X0011102Y0079631D01*
X0011169Y0079649D01*
X0011236Y0079663D01*
X0011304Y0079673D01*
X0011372Y0079679D01*
X0011441Y0079681D01*
X0011510Y0079679D01*
X0011578Y0079673D01*
X0011646Y0079663D01*
X0011713Y0079649D01*
X0011780Y0079631D01*
X0011845Y0079610D01*
X0011909Y0079584D01*
X0011971Y0079555D01*
X0012031Y0079523D01*
X0012090Y0079487D01*
X0012146Y0079447D01*
X0012200Y0079405D01*
X0012251Y0079359D01*
X0012300Y0079310D01*
X0012346Y0079259D01*
X0012388Y0079205D01*
X0012428Y0079149D01*
X0012464Y0079090D01*
X0012496Y0079030D01*
X0012525Y0078968D01*
X0012551Y0078904D01*
X0012572Y0078839D01*
X0012590Y0078772D01*
X0012604Y0078705D01*
X0012614Y0078637D01*
X0012620Y0078569D01*
X0012622Y0078500D01*
X0012620Y0078431D01*
X0012614Y0078363D01*
X0012604Y0078295D01*
X0012590Y0078228D01*
X0012572Y0078161D01*
X0012551Y0078096D01*
X0012525Y0078032D01*
X0012496Y0077970D01*
X0012464Y0077909D01*
X0012428Y0077851D01*
X0012388Y0077795D01*
X0012346Y0077741D01*
X0012300Y0077690D01*
X0012251Y0077641D01*
X0012200Y0077595D01*
X0012146Y0077553D01*
X0012090Y0077513D01*
X0012032Y0077477D01*
X0011971Y0077445D01*
X0011909Y0077416D01*
X0011845Y0077390D01*
X0011780Y0077369D01*
X0011713Y0077351D01*
X0011646Y0077337D01*
X0011578Y0077327D01*
X0011510Y0077321D01*
X0011441Y0077319D01*
X0011372Y0077321D01*
X0011304Y0077327D01*
X0011236Y0077337D01*
X0011169Y0077351D01*
X0011102Y0077369D01*
X0011037Y0077390D01*
X0010973Y0077416D01*
X0010911Y0077445D01*
X0010850Y0077477D01*
X0010792Y0077513D01*
X0010736Y0077553D01*
X0010682Y0077595D01*
X0010631Y0077641D01*
X0010582Y0077690D01*
X0010536Y0077741D01*
X0010494Y0077795D01*
X0010454Y0077851D01*
X0010418Y0077909D01*
X0010386Y0077970D01*
X0010357Y0078032D01*
X0010331Y0078096D01*
X0010310Y0078161D01*
X0010292Y0078228D01*
X0010278Y0078295D01*
X0010268Y0078363D01*
X0010262Y0078431D01*
X0010260Y0078500D01*
X0272268Y0078500D02*
X0272270Y0078593D01*
X0272276Y0078685D01*
X0272286Y0078777D01*
X0272300Y0078868D01*
X0272317Y0078959D01*
X0272339Y0079049D01*
X0272364Y0079138D01*
X0272393Y0079226D01*
X0272426Y0079312D01*
X0272463Y0079397D01*
X0272503Y0079481D01*
X0272547Y0079562D01*
X0272594Y0079642D01*
X0272644Y0079720D01*
X0272698Y0079795D01*
X0272755Y0079868D01*
X0272815Y0079938D01*
X0272878Y0080006D01*
X0272944Y0080071D01*
X0273012Y0080133D01*
X0273083Y0080193D01*
X0273157Y0080249D01*
X0273233Y0080302D01*
X0273311Y0080351D01*
X0273391Y0080398D01*
X0273473Y0080440D01*
X0273557Y0080480D01*
X0273642Y0080515D01*
X0273729Y0080547D01*
X0273817Y0080576D01*
X0273906Y0080600D01*
X0273996Y0080621D01*
X0274087Y0080637D01*
X0274179Y0080650D01*
X0274271Y0080659D01*
X0274364Y0080664D01*
X0274456Y0080665D01*
X0274549Y0080662D01*
X0274641Y0080655D01*
X0274733Y0080644D01*
X0274824Y0080629D01*
X0274915Y0080611D01*
X0275005Y0080588D01*
X0275093Y0080562D01*
X0275181Y0080532D01*
X0275267Y0080498D01*
X0275351Y0080461D01*
X0275434Y0080419D01*
X0275515Y0080375D01*
X0275595Y0080327D01*
X0275672Y0080276D01*
X0275746Y0080221D01*
X0275819Y0080163D01*
X0275889Y0080103D01*
X0275956Y0080039D01*
X0276020Y0079973D01*
X0276082Y0079903D01*
X0276140Y0079832D01*
X0276195Y0079758D01*
X0276247Y0079681D01*
X0276296Y0079602D01*
X0276342Y0079522D01*
X0276384Y0079439D01*
X0276422Y0079355D01*
X0276457Y0079269D01*
X0276488Y0079182D01*
X0276515Y0079094D01*
X0276538Y0079004D01*
X0276558Y0078914D01*
X0276574Y0078823D01*
X0276586Y0078731D01*
X0276594Y0078639D01*
X0276598Y0078546D01*
X0276598Y0078454D01*
X0276594Y0078361D01*
X0276586Y0078269D01*
X0276574Y0078177D01*
X0276558Y0078086D01*
X0276538Y0077996D01*
X0276515Y0077906D01*
X0276488Y0077818D01*
X0276457Y0077731D01*
X0276422Y0077645D01*
X0276384Y0077561D01*
X0276342Y0077478D01*
X0276296Y0077398D01*
X0276247Y0077319D01*
X0276195Y0077242D01*
X0276140Y0077168D01*
X0276082Y0077097D01*
X0276020Y0077027D01*
X0275956Y0076961D01*
X0275889Y0076897D01*
X0275819Y0076837D01*
X0275746Y0076779D01*
X0275672Y0076724D01*
X0275595Y0076673D01*
X0275516Y0076625D01*
X0275434Y0076581D01*
X0275351Y0076539D01*
X0275267Y0076502D01*
X0275181Y0076468D01*
X0275093Y0076438D01*
X0275005Y0076412D01*
X0274915Y0076389D01*
X0274824Y0076371D01*
X0274733Y0076356D01*
X0274641Y0076345D01*
X0274549Y0076338D01*
X0274456Y0076335D01*
X0274364Y0076336D01*
X0274271Y0076341D01*
X0274179Y0076350D01*
X0274087Y0076363D01*
X0273996Y0076379D01*
X0273906Y0076400D01*
X0273817Y0076424D01*
X0273729Y0076453D01*
X0273642Y0076485D01*
X0273557Y0076520D01*
X0273473Y0076560D01*
X0273391Y0076602D01*
X0273311Y0076649D01*
X0273233Y0076698D01*
X0273157Y0076751D01*
X0273083Y0076807D01*
X0273012Y0076867D01*
X0272944Y0076929D01*
X0272878Y0076994D01*
X0272815Y0077062D01*
X0272755Y0077132D01*
X0272698Y0077205D01*
X0272644Y0077280D01*
X0272594Y0077358D01*
X0272547Y0077438D01*
X0272503Y0077519D01*
X0272463Y0077603D01*
X0272426Y0077688D01*
X0272393Y0077774D01*
X0272364Y0077862D01*
X0272339Y0077951D01*
X0272317Y0078041D01*
X0272300Y0078132D01*
X0272286Y0078223D01*
X0272276Y0078315D01*
X0272270Y0078407D01*
X0272268Y0078500D01*
D11*
X0278764Y0085783D02*
X0278764Y0112161D01*
X0283291Y0117476D01*
X0283291Y0142870D01*
X0216953Y0093657D02*
X0216953Y0085783D01*
X0214197Y0085783D02*
X0214197Y0093657D01*
X0214198Y0093657D02*
X0214205Y0093731D01*
X0214216Y0093804D01*
X0214231Y0093876D01*
X0214250Y0093948D01*
X0214273Y0094018D01*
X0214299Y0094087D01*
X0214329Y0094155D01*
X0214363Y0094221D01*
X0214400Y0094285D01*
X0214441Y0094347D01*
X0214484Y0094406D01*
X0214531Y0094463D01*
X0214581Y0094518D01*
X0214634Y0094570D01*
X0214689Y0094619D01*
X0214747Y0094665D01*
X0214808Y0094707D01*
X0214870Y0094747D01*
X0214935Y0094783D01*
X0215001Y0094815D01*
X0215069Y0094844D01*
X0215139Y0094869D01*
X0215210Y0094891D01*
X0215281Y0094908D01*
X0215354Y0094922D01*
X0215427Y0094932D01*
X0215501Y0094938D01*
X0215575Y0094940D01*
X0215649Y0094938D01*
X0215723Y0094932D01*
X0215796Y0094922D01*
X0215869Y0094908D01*
X0215940Y0094891D01*
X0216011Y0094869D01*
X0216081Y0094844D01*
X0216149Y0094815D01*
X0216215Y0094783D01*
X0216280Y0094747D01*
X0216342Y0094707D01*
X0216403Y0094665D01*
X0216461Y0094619D01*
X0216516Y0094570D01*
X0216569Y0094518D01*
X0216619Y0094463D01*
X0216666Y0094406D01*
X0216709Y0094347D01*
X0216750Y0094285D01*
X0216787Y0094221D01*
X0216821Y0094155D01*
X0216851Y0094087D01*
X0216877Y0094018D01*
X0216900Y0093948D01*
X0216919Y0093876D01*
X0216934Y0093804D01*
X0216945Y0093731D01*
X0216952Y0093657D01*
X0271480Y0063539D02*
X0271480Y0059209D01*
X0282504Y0059209D01*
X0282504Y0085390D01*
X0003370Y0085390D01*
X0003370Y0059209D01*
X0014394Y0059209D01*
X0014394Y0063539D01*
X0007110Y0085783D02*
X0007110Y0112161D01*
X0002583Y0117476D01*
X0002583Y0142870D01*
D12*
X0020800Y0151900D02*
X0020800Y0153100D01*
X0022600Y0156800D02*
X0024400Y0156800D01*
X0023800Y0155700D02*
X0023741Y0155685D01*
X0023682Y0155673D01*
X0023621Y0155664D01*
X0023561Y0155659D01*
X0023500Y0155657D01*
X0023439Y0155659D01*
X0023379Y0155664D01*
X0023318Y0155673D01*
X0023259Y0155685D01*
X0023200Y0155700D01*
X0022600Y0148200D02*
X0024400Y0148200D01*
X0069500Y0122000D02*
X0069500Y0107000D01*
X0072000Y0104500D01*
X0077000Y0104500D01*
X0079500Y0107000D01*
X0079500Y0122000D01*
X0077000Y0124500D01*
X0072000Y0124500D01*
X0069500Y0122000D01*
X0079500Y0122000D02*
X0082000Y0124500D01*
X0087000Y0124500D01*
X0089500Y0122000D01*
X0089500Y0107000D01*
X0087000Y0104500D01*
X0082000Y0104500D01*
X0079500Y0107000D01*
X0089500Y0107000D02*
X0092000Y0104500D01*
X0097000Y0104500D01*
X0099500Y0107000D01*
X0099500Y0122000D01*
X0097000Y0124500D01*
X0092000Y0124500D01*
X0089500Y0122000D01*
X0099500Y0122000D02*
X0102000Y0124500D01*
X0107000Y0124500D01*
X0109500Y0122000D01*
X0109500Y0107000D01*
X0107000Y0104500D01*
X0102000Y0104500D01*
X0099500Y0107000D01*
X0220217Y0081185D02*
X0220217Y0076915D01*
X0221284Y0075847D01*
X0224487Y0075847D01*
X0224487Y0082253D01*
X0221284Y0082253D01*
X0220217Y0081185D01*
X0226662Y0082253D02*
X0230933Y0082253D01*
X0228797Y0082253D02*
X0228797Y0075847D01*
X0233108Y0076915D02*
X0233108Y0077982D01*
X0234175Y0079050D01*
X0236310Y0079050D01*
X0237378Y0080118D01*
X0237378Y0081185D01*
X0236310Y0082253D01*
X0234175Y0082253D01*
X0233108Y0081185D01*
X0233108Y0076915D02*
X0234175Y0075847D01*
X0236310Y0075847D01*
X0237378Y0076915D01*
X0245999Y0075847D02*
X0250269Y0075847D01*
X0245999Y0080118D01*
X0245999Y0081185D01*
X0247066Y0082253D01*
X0249201Y0082253D01*
X0250269Y0081185D01*
X0252444Y0081185D02*
X0252444Y0079050D01*
X0253512Y0077982D01*
X0256715Y0077982D01*
X0254579Y0077982D02*
X0252444Y0075847D01*
X0256715Y0075847D02*
X0256715Y0082253D01*
X0253512Y0082253D01*
X0252444Y0081185D01*
X0258890Y0081185D02*
X0258890Y0076915D01*
X0259957Y0075847D01*
X0263160Y0075847D01*
X0263160Y0082253D01*
X0259957Y0082253D01*
X0258890Y0081185D01*
X0265335Y0081185D02*
X0265335Y0076915D01*
X0266403Y0075847D01*
X0269606Y0075847D01*
X0269606Y0082253D01*
X0266403Y0082253D01*
X0265335Y0081185D01*
D13*
X0268232Y0069445D02*
X0269709Y0066492D01*
X0271185Y0069445D01*
X0268232Y0069445D01*
X0268331Y0069247D02*
X0271086Y0069247D01*
X0270887Y0068848D02*
X0268531Y0068848D01*
X0268730Y0068450D02*
X0270688Y0068450D01*
X0270488Y0068051D02*
X0268929Y0068051D01*
X0269128Y0067653D02*
X0270289Y0067653D01*
X0270090Y0067254D02*
X0269328Y0067254D01*
X0269527Y0066856D02*
X0269891Y0066856D01*
X0055591Y0159779D02*
X0053923Y0159779D01*
X0053590Y0160112D01*
X0053590Y0160780D01*
X0053923Y0161113D01*
X0055591Y0161113D01*
X0055591Y0161989D02*
X0054591Y0161989D01*
X0054924Y0162656D01*
X0054924Y0162989D01*
X0054591Y0163323D01*
X0053923Y0163323D01*
X0053590Y0162989D01*
X0053590Y0162322D01*
X0053923Y0161989D01*
X0055591Y0161989D02*
X0055591Y0163323D01*
D14*
X0049437Y0173626D02*
X0041563Y0173626D01*
X0037626Y0177563D01*
X0037626Y0185437D01*
X0041563Y0189374D01*
X0049437Y0189374D01*
X0053374Y0185437D01*
X0053374Y0177563D01*
X0049437Y0173626D01*
X0070563Y0149374D02*
X0066626Y0145437D01*
X0066626Y0137563D01*
X0070563Y0133626D01*
X0078437Y0133626D01*
X0082374Y0137563D01*
X0082374Y0145437D01*
X0078437Y0149374D01*
X0070563Y0149374D01*
X0009000Y0163500D02*
X0009000Y0198500D01*
X0276500Y0198500D01*
X0276500Y0163500D01*
X0284000Y0163500D01*
X0284000Y0056000D01*
X0001500Y0056000D01*
X0001500Y0163500D01*
X0009000Y0163500D01*
D15*
X0027314Y0159970D02*
X0030450Y0156834D01*
X0028882Y0156834D02*
X0028882Y0159970D01*
X0030450Y0159970D02*
X0027314Y0156834D01*
X0027314Y0158402D02*
X0030450Y0158402D01*
D16*
X0031967Y0152178D02*
X0032334Y0152178D01*
X0032701Y0151811D01*
X0032701Y0150710D01*
X0031967Y0150710D01*
X0031600Y0151077D01*
X0031600Y0151811D01*
X0031967Y0152178D01*
X0033435Y0151444D02*
X0033802Y0152178D01*
X0033435Y0151444D02*
X0032701Y0150710D01*
X0031967Y0149968D02*
X0033802Y0149968D01*
X0033802Y0148500D02*
X0031967Y0148500D01*
X0031600Y0148867D01*
X0031600Y0149601D01*
X0031967Y0149968D01*
X0022953Y0140902D02*
X0022219Y0140902D01*
X0021852Y0140535D01*
X0021110Y0140535D02*
X0021110Y0140168D01*
X0020743Y0139801D01*
X0019642Y0139801D01*
X0019642Y0139067D02*
X0019642Y0140535D01*
X0020009Y0140902D01*
X0020743Y0140902D01*
X0021110Y0140535D01*
X0021110Y0139067D02*
X0020743Y0138700D01*
X0020009Y0138700D01*
X0019642Y0139067D01*
X0021852Y0139067D02*
X0022219Y0138700D01*
X0022953Y0138700D01*
X0023320Y0139067D01*
X0023320Y0140535D01*
X0022953Y0140902D01*
X0037435Y0122778D02*
X0035967Y0121310D01*
X0035600Y0121310D01*
X0035600Y0120568D02*
X0036334Y0119834D01*
X0036334Y0120201D02*
X0036334Y0119100D01*
X0035600Y0119100D02*
X0037802Y0119100D01*
X0037802Y0120201D01*
X0037435Y0120568D01*
X0036701Y0120568D01*
X0036334Y0120201D01*
X0037802Y0121310D02*
X0037802Y0122778D01*
X0037435Y0122778D01*
X0045600Y0122411D02*
X0045600Y0121677D01*
X0045967Y0121310D01*
X0046334Y0121310D01*
X0046701Y0121677D01*
X0046701Y0122411D01*
X0046334Y0122778D01*
X0045967Y0122778D01*
X0045600Y0122411D01*
X0046701Y0122411D02*
X0047068Y0122778D01*
X0047435Y0122778D01*
X0047802Y0122411D01*
X0047802Y0121677D01*
X0047435Y0121310D01*
X0047068Y0121310D01*
X0046701Y0121677D01*
X0046701Y0120568D02*
X0046334Y0120201D01*
X0046334Y0119100D01*
X0046334Y0119834D02*
X0045600Y0120568D01*
X0046701Y0120568D02*
X0047435Y0120568D01*
X0047802Y0120201D01*
X0047802Y0119100D01*
X0045600Y0119100D01*
X0055600Y0115621D02*
X0055600Y0114887D01*
X0055967Y0114520D01*
X0057435Y0115988D01*
X0055967Y0115988D01*
X0055600Y0115621D01*
X0055967Y0114520D02*
X0057435Y0114520D01*
X0057802Y0114887D01*
X0057802Y0115621D01*
X0057435Y0115988D01*
X0055600Y0113778D02*
X0055600Y0112310D01*
X0055600Y0113044D02*
X0057802Y0113044D01*
X0057068Y0112310D01*
X0057435Y0111568D02*
X0056701Y0111568D01*
X0056334Y0111201D01*
X0056334Y0110100D01*
X0056334Y0110834D02*
X0055600Y0111568D01*
X0055600Y0110100D02*
X0057802Y0110100D01*
X0057802Y0111201D01*
X0057435Y0111568D01*
X0065600Y0111100D02*
X0067802Y0111100D01*
X0067802Y0112201D01*
X0067435Y0112568D01*
X0066701Y0112568D01*
X0066334Y0112201D01*
X0066334Y0111100D01*
X0066334Y0111834D02*
X0065600Y0112568D01*
X0065967Y0113310D02*
X0065600Y0113677D01*
X0065600Y0114411D01*
X0065967Y0114778D01*
X0067435Y0114778D01*
X0067802Y0114411D01*
X0067802Y0113677D01*
X0067435Y0113310D01*
X0067068Y0113310D01*
X0066701Y0113677D01*
X0066701Y0114778D01*
X0052900Y0136100D02*
X0052900Y0138302D01*
X0051799Y0138302D01*
X0051432Y0137935D01*
X0051432Y0137201D01*
X0051799Y0136834D01*
X0052900Y0136834D01*
X0052166Y0136834D02*
X0051432Y0136100D01*
X0050690Y0136467D02*
X0050323Y0136100D01*
X0049589Y0136100D01*
X0049222Y0136467D01*
X0049222Y0137201D01*
X0049589Y0137568D01*
X0049956Y0137568D01*
X0050690Y0137201D01*
X0050690Y0138302D01*
X0049222Y0138302D01*
X0050009Y0140700D02*
X0050009Y0142902D01*
X0051110Y0141801D01*
X0049642Y0141801D01*
X0051852Y0142535D02*
X0052219Y0142902D01*
X0052953Y0142902D01*
X0053320Y0142535D01*
X0053320Y0141067D01*
X0052953Y0140700D01*
X0052219Y0140700D01*
X0051852Y0141067D01*
X0051852Y0145700D02*
X0052586Y0146434D01*
X0052219Y0146434D02*
X0053320Y0146434D01*
X0053320Y0145700D02*
X0053320Y0147902D01*
X0052219Y0147902D01*
X0051852Y0147535D01*
X0051852Y0146801D01*
X0052219Y0146434D01*
X0051110Y0145700D02*
X0049642Y0147168D01*
X0049642Y0147535D01*
X0050009Y0147902D01*
X0050743Y0147902D01*
X0051110Y0147535D01*
X0051110Y0145700D02*
X0049642Y0145700D01*
X0074600Y0150967D02*
X0074600Y0151701D01*
X0074967Y0152068D01*
X0074967Y0152810D02*
X0074600Y0153177D01*
X0074600Y0153911D01*
X0074967Y0154278D01*
X0075334Y0154278D01*
X0075701Y0153911D01*
X0075701Y0153544D01*
X0075701Y0153911D02*
X0076068Y0154278D01*
X0076435Y0154278D01*
X0076802Y0153911D01*
X0076802Y0153177D01*
X0076435Y0152810D01*
X0076435Y0152068D02*
X0076802Y0151701D01*
X0076802Y0150967D01*
X0076435Y0150600D01*
X0074967Y0150600D01*
X0074600Y0150967D01*
X0081600Y0150967D02*
X0081600Y0151701D01*
X0081967Y0152068D01*
X0081967Y0152810D02*
X0081600Y0152810D01*
X0081967Y0152810D02*
X0083435Y0154278D01*
X0083802Y0154278D01*
X0083802Y0152810D01*
X0083435Y0152068D02*
X0083802Y0151701D01*
X0083802Y0150967D01*
X0083435Y0150600D01*
X0081967Y0150600D01*
X0081600Y0150967D01*
X0070900Y0174100D02*
X0070900Y0176302D01*
X0069799Y0176302D01*
X0069432Y0175935D01*
X0069432Y0175201D01*
X0069799Y0174834D01*
X0070900Y0174834D01*
X0070166Y0174834D02*
X0069432Y0174100D01*
X0068690Y0174467D02*
X0068323Y0174100D01*
X0067589Y0174100D01*
X0067222Y0174467D01*
X0067222Y0174834D01*
X0067589Y0175201D01*
X0067956Y0175201D01*
X0067589Y0175201D02*
X0067222Y0175568D01*
X0067222Y0175935D01*
X0067589Y0176302D01*
X0068323Y0176302D01*
X0068690Y0175935D01*
X0068323Y0181100D02*
X0068690Y0181467D01*
X0068323Y0181100D02*
X0067589Y0181100D01*
X0067222Y0181467D01*
X0067222Y0182201D01*
X0067589Y0182568D01*
X0067956Y0182568D01*
X0068690Y0182201D01*
X0068690Y0183302D01*
X0067222Y0183302D01*
X0069432Y0182935D02*
X0069799Y0183302D01*
X0070533Y0183302D01*
X0070900Y0182935D01*
X0070900Y0181467D01*
X0070533Y0181100D01*
X0069799Y0181100D01*
X0069432Y0181467D01*
X0069852Y0186700D02*
X0070586Y0187434D01*
X0070219Y0187434D02*
X0071320Y0187434D01*
X0071320Y0186700D02*
X0071320Y0188902D01*
X0070219Y0188902D01*
X0069852Y0188535D01*
X0069852Y0187801D01*
X0070219Y0187434D01*
X0069110Y0187801D02*
X0067642Y0187801D01*
X0068009Y0186700D02*
X0068009Y0188902D01*
X0069110Y0187801D01*
X0046402Y0170491D02*
X0046402Y0169757D01*
X0046035Y0169390D01*
X0046035Y0168648D02*
X0046402Y0168281D01*
X0046402Y0167547D01*
X0046035Y0167180D01*
X0044567Y0167180D01*
X0044200Y0167547D01*
X0044200Y0168281D01*
X0044567Y0168648D01*
X0044200Y0169390D02*
X0045668Y0170858D01*
X0046035Y0170858D01*
X0046402Y0170491D01*
X0044200Y0170858D02*
X0044200Y0169390D01*
X0039402Y0168281D02*
X0039402Y0167547D01*
X0039035Y0167180D01*
X0037567Y0167180D01*
X0037200Y0167547D01*
X0037200Y0168281D01*
X0037567Y0168648D01*
X0037567Y0169390D02*
X0037200Y0169757D01*
X0037200Y0170491D01*
X0037567Y0170858D01*
X0037934Y0170858D01*
X0038301Y0170491D01*
X0038301Y0169390D01*
X0037567Y0169390D01*
X0038301Y0169390D02*
X0039035Y0170124D01*
X0039402Y0170858D01*
X0039035Y0168648D02*
X0039402Y0168281D01*
X0024900Y0167935D02*
X0024900Y0166467D01*
X0024533Y0166100D01*
X0023799Y0166100D01*
X0023432Y0166467D01*
X0022690Y0166467D02*
X0022690Y0166834D01*
X0022323Y0167201D01*
X0021589Y0167201D01*
X0021222Y0166834D01*
X0021222Y0166467D01*
X0021589Y0166100D01*
X0022323Y0166100D01*
X0022690Y0166467D01*
X0022323Y0167201D02*
X0022690Y0167568D01*
X0022690Y0167935D01*
X0022323Y0168302D01*
X0021589Y0168302D01*
X0021222Y0167935D01*
X0021222Y0167568D01*
X0021589Y0167201D01*
X0023432Y0167935D02*
X0023799Y0168302D01*
X0024533Y0168302D01*
X0024900Y0167935D01*
X0013302Y0167887D02*
X0012935Y0167520D01*
X0011467Y0167520D01*
X0012935Y0168988D01*
X0011467Y0168988D01*
X0011100Y0168621D01*
X0011100Y0167887D01*
X0011467Y0167520D01*
X0011100Y0166778D02*
X0011100Y0165310D01*
X0011100Y0166044D02*
X0013302Y0166044D01*
X0012568Y0165310D01*
X0012935Y0164568D02*
X0013302Y0164201D01*
X0013302Y0163467D01*
X0012935Y0163100D01*
X0011467Y0163100D01*
X0011100Y0163467D01*
X0011100Y0164201D01*
X0011467Y0164568D01*
X0013302Y0167887D02*
X0013302Y0168621D01*
X0012935Y0168988D01*
X0104546Y0124002D02*
X0104546Y0121800D01*
X0105280Y0121800D02*
X0103812Y0121800D01*
X0105280Y0123268D02*
X0104546Y0124002D01*
X0106022Y0123635D02*
X0106022Y0122901D01*
X0106389Y0122534D01*
X0107490Y0122534D01*
X0107490Y0121800D02*
X0107490Y0124002D01*
X0106389Y0124002D01*
X0106022Y0123635D01*
X0108232Y0124002D02*
X0108966Y0124002D01*
X0108599Y0124002D02*
X0108599Y0122167D01*
X0108966Y0121800D01*
X0109333Y0121800D01*
X0109700Y0122167D01*
X0148800Y0111988D02*
X0148800Y0110520D01*
X0148800Y0111254D02*
X0151002Y0111254D01*
X0150268Y0110520D01*
X0148800Y0109778D02*
X0148800Y0108310D01*
X0148800Y0109044D02*
X0151002Y0109044D01*
X0150268Y0108310D01*
X0150635Y0107568D02*
X0149901Y0107568D01*
X0149534Y0107201D01*
X0149534Y0106100D01*
X0149534Y0106834D02*
X0148800Y0107568D01*
X0148800Y0106100D02*
X0151002Y0106100D01*
X0151002Y0107201D01*
X0150635Y0107568D01*
X0162400Y0107568D02*
X0163134Y0106834D01*
X0163134Y0107201D02*
X0163134Y0106100D01*
X0162400Y0106100D02*
X0164602Y0106100D01*
X0164602Y0107201D01*
X0164235Y0107568D01*
X0163501Y0107568D01*
X0163134Y0107201D01*
X0163868Y0108310D02*
X0164602Y0109044D01*
X0162400Y0109044D01*
X0162400Y0108310D02*
X0162400Y0109778D01*
X0162400Y0110520D02*
X0163868Y0111988D01*
X0164235Y0111988D01*
X0164602Y0111621D01*
X0164602Y0110887D01*
X0164235Y0110520D01*
X0162400Y0110520D02*
X0162400Y0111988D01*
M02*
