G75*
%MOIN*%
%OFA0B0*%
%FSLAX25Y25*%
%IPPOS*%
%LPD*%
%AMOC8*
5,1,8,0,0,1.08239X$1,22.5*
%
%ADD10C,0.00000*%
%ADD11C,0.12992*%
%ADD12C,0.10630*%
%ADD13C,0.21000*%
%ADD14C,0.06000*%
%ADD15R,0.08600X0.08600*%
%ADD16C,0.03200*%
%ADD17C,0.01981*%
%ADD18C,0.04000*%
%ADD19C,0.01600*%
%ADD20C,0.03543*%
D10*
X0016773Y0003000D02*
X0244332Y0003000D01*
X0244674Y0003004D01*
X0245017Y0003017D01*
X0245359Y0003037D01*
X0245700Y0003066D01*
X0246040Y0003103D01*
X0246380Y0003149D01*
X0246718Y0003202D01*
X0247055Y0003264D01*
X0247390Y0003334D01*
X0247724Y0003412D01*
X0248055Y0003498D01*
X0248385Y0003592D01*
X0248712Y0003694D01*
X0249036Y0003803D01*
X0249358Y0003921D01*
X0249677Y0004046D01*
X0249992Y0004179D01*
X0250305Y0004320D01*
X0250613Y0004468D01*
X0250919Y0004623D01*
X0251220Y0004786D01*
X0251517Y0004956D01*
X0251810Y0005133D01*
X0252099Y0005318D01*
X0252383Y0005509D01*
X0252663Y0005707D01*
X0252937Y0005911D01*
X0253207Y0006123D01*
X0253471Y0006340D01*
X0253730Y0006564D01*
X0253984Y0006795D01*
X0254232Y0007031D01*
X0254474Y0007273D01*
X0254710Y0007521D01*
X0254941Y0007775D01*
X0255165Y0008034D01*
X0255382Y0008298D01*
X0255594Y0008568D01*
X0255798Y0008842D01*
X0255996Y0009122D01*
X0256187Y0009406D01*
X0256372Y0009695D01*
X0256549Y0009988D01*
X0256719Y0010285D01*
X0256882Y0010586D01*
X0257037Y0010892D01*
X0257185Y0011200D01*
X0257326Y0011513D01*
X0257459Y0011828D01*
X0257584Y0012147D01*
X0257702Y0012469D01*
X0257811Y0012793D01*
X0257913Y0013120D01*
X0258007Y0013450D01*
X0258093Y0013781D01*
X0258171Y0014115D01*
X0258241Y0014450D01*
X0258303Y0014787D01*
X0258356Y0015125D01*
X0258402Y0015465D01*
X0258439Y0015805D01*
X0258468Y0016146D01*
X0258488Y0016488D01*
X0258501Y0016831D01*
X0258505Y0017173D01*
X0258506Y0017173D02*
X0258506Y0209299D01*
X0258505Y0209299D02*
X0258501Y0209641D01*
X0258488Y0209984D01*
X0258468Y0210326D01*
X0258439Y0210667D01*
X0258402Y0211007D01*
X0258356Y0211347D01*
X0258303Y0211685D01*
X0258241Y0212022D01*
X0258171Y0212357D01*
X0258093Y0212691D01*
X0258007Y0213022D01*
X0257913Y0213352D01*
X0257811Y0213679D01*
X0257702Y0214003D01*
X0257584Y0214325D01*
X0257459Y0214644D01*
X0257326Y0214959D01*
X0257185Y0215272D01*
X0257037Y0215580D01*
X0256882Y0215886D01*
X0256719Y0216187D01*
X0256549Y0216484D01*
X0256372Y0216777D01*
X0256187Y0217066D01*
X0255996Y0217350D01*
X0255798Y0217630D01*
X0255594Y0217904D01*
X0255382Y0218174D01*
X0255165Y0218438D01*
X0254941Y0218697D01*
X0254710Y0218951D01*
X0254474Y0219199D01*
X0254232Y0219441D01*
X0253984Y0219677D01*
X0253730Y0219908D01*
X0253471Y0220132D01*
X0253207Y0220349D01*
X0252937Y0220561D01*
X0252663Y0220765D01*
X0252383Y0220963D01*
X0252099Y0221154D01*
X0251810Y0221339D01*
X0251517Y0221516D01*
X0251220Y0221686D01*
X0250919Y0221849D01*
X0250613Y0222004D01*
X0250305Y0222152D01*
X0249992Y0222293D01*
X0249677Y0222426D01*
X0249358Y0222551D01*
X0249036Y0222669D01*
X0248712Y0222778D01*
X0248385Y0222880D01*
X0248055Y0222974D01*
X0247724Y0223060D01*
X0247390Y0223138D01*
X0247055Y0223208D01*
X0246718Y0223270D01*
X0246380Y0223323D01*
X0246040Y0223369D01*
X0245700Y0223406D01*
X0245359Y0223435D01*
X0245017Y0223455D01*
X0244674Y0223468D01*
X0244332Y0223472D01*
X0016773Y0223472D01*
X0016431Y0223468D01*
X0016088Y0223455D01*
X0015746Y0223435D01*
X0015405Y0223406D01*
X0015065Y0223369D01*
X0014725Y0223323D01*
X0014387Y0223270D01*
X0014050Y0223208D01*
X0013715Y0223138D01*
X0013381Y0223060D01*
X0013050Y0222974D01*
X0012720Y0222880D01*
X0012393Y0222778D01*
X0012069Y0222669D01*
X0011747Y0222551D01*
X0011428Y0222426D01*
X0011113Y0222293D01*
X0010800Y0222152D01*
X0010492Y0222004D01*
X0010186Y0221849D01*
X0009885Y0221686D01*
X0009588Y0221516D01*
X0009295Y0221339D01*
X0009006Y0221154D01*
X0008722Y0220963D01*
X0008442Y0220765D01*
X0008168Y0220561D01*
X0007898Y0220349D01*
X0007634Y0220132D01*
X0007375Y0219908D01*
X0007121Y0219677D01*
X0006873Y0219441D01*
X0006631Y0219199D01*
X0006395Y0218951D01*
X0006164Y0218697D01*
X0005940Y0218438D01*
X0005723Y0218174D01*
X0005511Y0217904D01*
X0005307Y0217630D01*
X0005109Y0217350D01*
X0004918Y0217066D01*
X0004733Y0216777D01*
X0004556Y0216484D01*
X0004386Y0216187D01*
X0004223Y0215886D01*
X0004068Y0215580D01*
X0003920Y0215272D01*
X0003779Y0214959D01*
X0003646Y0214644D01*
X0003521Y0214325D01*
X0003403Y0214003D01*
X0003294Y0213679D01*
X0003192Y0213352D01*
X0003098Y0213022D01*
X0003012Y0212691D01*
X0002934Y0212357D01*
X0002864Y0212022D01*
X0002802Y0211685D01*
X0002749Y0211347D01*
X0002703Y0211007D01*
X0002666Y0210667D01*
X0002637Y0210326D01*
X0002617Y0209984D01*
X0002604Y0209641D01*
X0002600Y0209299D01*
X0002600Y0017173D01*
X0002604Y0016831D01*
X0002617Y0016488D01*
X0002637Y0016146D01*
X0002666Y0015805D01*
X0002703Y0015465D01*
X0002749Y0015125D01*
X0002802Y0014787D01*
X0002864Y0014450D01*
X0002934Y0014115D01*
X0003012Y0013781D01*
X0003098Y0013450D01*
X0003192Y0013120D01*
X0003294Y0012793D01*
X0003403Y0012469D01*
X0003521Y0012147D01*
X0003646Y0011828D01*
X0003779Y0011513D01*
X0003920Y0011200D01*
X0004068Y0010892D01*
X0004223Y0010586D01*
X0004386Y0010285D01*
X0004556Y0009988D01*
X0004733Y0009695D01*
X0004918Y0009406D01*
X0005109Y0009122D01*
X0005307Y0008842D01*
X0005511Y0008568D01*
X0005723Y0008298D01*
X0005940Y0008034D01*
X0006164Y0007775D01*
X0006395Y0007521D01*
X0006631Y0007273D01*
X0006873Y0007031D01*
X0007121Y0006795D01*
X0007375Y0006564D01*
X0007634Y0006340D01*
X0007898Y0006123D01*
X0008168Y0005911D01*
X0008442Y0005707D01*
X0008722Y0005509D01*
X0009006Y0005318D01*
X0009295Y0005133D01*
X0009588Y0004956D01*
X0009885Y0004786D01*
X0010186Y0004623D01*
X0010492Y0004468D01*
X0010800Y0004320D01*
X0011113Y0004179D01*
X0011428Y0004046D01*
X0011747Y0003921D01*
X0012069Y0003803D01*
X0012393Y0003694D01*
X0012720Y0003592D01*
X0013050Y0003498D01*
X0013381Y0003412D01*
X0013715Y0003334D01*
X0014050Y0003264D01*
X0014387Y0003202D01*
X0014725Y0003149D01*
X0015065Y0003103D01*
X0015405Y0003066D01*
X0015746Y0003037D01*
X0016088Y0003017D01*
X0016431Y0003004D01*
X0016773Y0003000D01*
X0088033Y0066031D02*
X0088033Y0088433D01*
X0088035Y0088499D01*
X0088040Y0088565D01*
X0088050Y0088631D01*
X0088063Y0088696D01*
X0088079Y0088760D01*
X0088099Y0088823D01*
X0088123Y0088885D01*
X0088150Y0088945D01*
X0088180Y0089004D01*
X0088214Y0089061D01*
X0088251Y0089116D01*
X0088291Y0089169D01*
X0088333Y0089220D01*
X0088379Y0089268D01*
X0088427Y0089314D01*
X0088478Y0089356D01*
X0088531Y0089396D01*
X0088586Y0089433D01*
X0088643Y0089467D01*
X0088702Y0089497D01*
X0088762Y0089524D01*
X0088824Y0089548D01*
X0088887Y0089568D01*
X0088951Y0089584D01*
X0089016Y0089597D01*
X0089082Y0089607D01*
X0089148Y0089612D01*
X0089214Y0089614D01*
X0145513Y0089614D01*
X0145579Y0089612D01*
X0145645Y0089607D01*
X0145711Y0089597D01*
X0145776Y0089584D01*
X0145840Y0089568D01*
X0145903Y0089548D01*
X0145965Y0089524D01*
X0146025Y0089497D01*
X0146084Y0089467D01*
X0146141Y0089433D01*
X0146196Y0089396D01*
X0146249Y0089356D01*
X0146300Y0089314D01*
X0146348Y0089268D01*
X0146394Y0089220D01*
X0146436Y0089169D01*
X0146476Y0089116D01*
X0146513Y0089061D01*
X0146547Y0089004D01*
X0146577Y0088945D01*
X0146604Y0088885D01*
X0146628Y0088823D01*
X0146648Y0088760D01*
X0146664Y0088696D01*
X0146677Y0088631D01*
X0146687Y0088565D01*
X0146692Y0088499D01*
X0146694Y0088433D01*
X0146694Y0065992D01*
X0146692Y0065926D01*
X0146687Y0065860D01*
X0146677Y0065794D01*
X0146664Y0065729D01*
X0146648Y0065665D01*
X0146628Y0065602D01*
X0146604Y0065540D01*
X0146577Y0065480D01*
X0146547Y0065421D01*
X0146513Y0065364D01*
X0146476Y0065309D01*
X0146436Y0065256D01*
X0146394Y0065205D01*
X0146348Y0065157D01*
X0146300Y0065111D01*
X0146249Y0065069D01*
X0146196Y0065029D01*
X0146141Y0064992D01*
X0146084Y0064958D01*
X0146025Y0064928D01*
X0145965Y0064901D01*
X0145903Y0064877D01*
X0145840Y0064857D01*
X0145776Y0064841D01*
X0145711Y0064828D01*
X0145645Y0064818D01*
X0145579Y0064813D01*
X0145513Y0064811D01*
X0089214Y0064811D01*
X0089148Y0064813D01*
X0089082Y0064818D01*
X0089016Y0064828D01*
X0088951Y0064841D01*
X0088887Y0064857D01*
X0088824Y0064877D01*
X0088762Y0064901D01*
X0088702Y0064928D01*
X0088643Y0064958D01*
X0088586Y0064992D01*
X0088531Y0065029D01*
X0088478Y0065069D01*
X0088427Y0065111D01*
X0088379Y0065157D01*
X0088333Y0065205D01*
X0088291Y0065256D01*
X0088251Y0065309D01*
X0088214Y0065364D01*
X0088180Y0065421D01*
X0088150Y0065480D01*
X0088123Y0065540D01*
X0088099Y0065602D01*
X0088079Y0065665D01*
X0088063Y0065729D01*
X0088050Y0065794D01*
X0088040Y0065860D01*
X0088035Y0065926D01*
X0088033Y0065992D01*
X0114411Y0097094D02*
X0146694Y0097094D01*
X0146694Y0129378D01*
X0114411Y0129378D01*
X0114411Y0097094D01*
X0088033Y0115205D02*
X0088035Y0115274D01*
X0088041Y0115342D01*
X0088051Y0115410D01*
X0088065Y0115477D01*
X0088083Y0115544D01*
X0088104Y0115609D01*
X0088130Y0115673D01*
X0088159Y0115735D01*
X0088191Y0115795D01*
X0088227Y0115854D01*
X0088267Y0115910D01*
X0088309Y0115964D01*
X0088355Y0116015D01*
X0088404Y0116064D01*
X0088455Y0116110D01*
X0088509Y0116152D01*
X0088565Y0116192D01*
X0088623Y0116228D01*
X0088684Y0116260D01*
X0088746Y0116289D01*
X0088810Y0116315D01*
X0088875Y0116336D01*
X0088942Y0116354D01*
X0089009Y0116368D01*
X0089077Y0116378D01*
X0089145Y0116384D01*
X0089214Y0116386D01*
X0089283Y0116384D01*
X0089351Y0116378D01*
X0089419Y0116368D01*
X0089486Y0116354D01*
X0089553Y0116336D01*
X0089618Y0116315D01*
X0089682Y0116289D01*
X0089744Y0116260D01*
X0089804Y0116228D01*
X0089863Y0116192D01*
X0089919Y0116152D01*
X0089973Y0116110D01*
X0090024Y0116064D01*
X0090073Y0116015D01*
X0090119Y0115964D01*
X0090161Y0115910D01*
X0090201Y0115854D01*
X0090237Y0115795D01*
X0090269Y0115735D01*
X0090298Y0115673D01*
X0090324Y0115609D01*
X0090345Y0115544D01*
X0090363Y0115477D01*
X0090377Y0115410D01*
X0090387Y0115342D01*
X0090393Y0115274D01*
X0090395Y0115205D01*
X0090393Y0115136D01*
X0090387Y0115068D01*
X0090377Y0115000D01*
X0090363Y0114933D01*
X0090345Y0114866D01*
X0090324Y0114801D01*
X0090298Y0114737D01*
X0090269Y0114675D01*
X0090237Y0114614D01*
X0090201Y0114556D01*
X0090161Y0114500D01*
X0090119Y0114446D01*
X0090073Y0114395D01*
X0090024Y0114346D01*
X0089973Y0114300D01*
X0089919Y0114258D01*
X0089863Y0114218D01*
X0089805Y0114182D01*
X0089744Y0114150D01*
X0089682Y0114121D01*
X0089618Y0114095D01*
X0089553Y0114074D01*
X0089486Y0114056D01*
X0089419Y0114042D01*
X0089351Y0114032D01*
X0089283Y0114026D01*
X0089214Y0114024D01*
X0089145Y0114026D01*
X0089077Y0114032D01*
X0089009Y0114042D01*
X0088942Y0114056D01*
X0088875Y0114074D01*
X0088810Y0114095D01*
X0088746Y0114121D01*
X0088684Y0114150D01*
X0088623Y0114182D01*
X0088565Y0114218D01*
X0088509Y0114258D01*
X0088455Y0114300D01*
X0088404Y0114346D01*
X0088355Y0114395D01*
X0088309Y0114446D01*
X0088267Y0114500D01*
X0088227Y0114556D01*
X0088191Y0114614D01*
X0088159Y0114675D01*
X0088130Y0114737D01*
X0088104Y0114801D01*
X0088083Y0114866D01*
X0088065Y0114933D01*
X0088051Y0115000D01*
X0088041Y0115068D01*
X0088035Y0115136D01*
X0088033Y0115205D01*
X0170710Y0115205D02*
X0170712Y0115274D01*
X0170718Y0115342D01*
X0170728Y0115410D01*
X0170742Y0115477D01*
X0170760Y0115544D01*
X0170781Y0115609D01*
X0170807Y0115673D01*
X0170836Y0115735D01*
X0170868Y0115795D01*
X0170904Y0115854D01*
X0170944Y0115910D01*
X0170986Y0115964D01*
X0171032Y0116015D01*
X0171081Y0116064D01*
X0171132Y0116110D01*
X0171186Y0116152D01*
X0171242Y0116192D01*
X0171300Y0116228D01*
X0171361Y0116260D01*
X0171423Y0116289D01*
X0171487Y0116315D01*
X0171552Y0116336D01*
X0171619Y0116354D01*
X0171686Y0116368D01*
X0171754Y0116378D01*
X0171822Y0116384D01*
X0171891Y0116386D01*
X0171960Y0116384D01*
X0172028Y0116378D01*
X0172096Y0116368D01*
X0172163Y0116354D01*
X0172230Y0116336D01*
X0172295Y0116315D01*
X0172359Y0116289D01*
X0172421Y0116260D01*
X0172481Y0116228D01*
X0172540Y0116192D01*
X0172596Y0116152D01*
X0172650Y0116110D01*
X0172701Y0116064D01*
X0172750Y0116015D01*
X0172796Y0115964D01*
X0172838Y0115910D01*
X0172878Y0115854D01*
X0172914Y0115795D01*
X0172946Y0115735D01*
X0172975Y0115673D01*
X0173001Y0115609D01*
X0173022Y0115544D01*
X0173040Y0115477D01*
X0173054Y0115410D01*
X0173064Y0115342D01*
X0173070Y0115274D01*
X0173072Y0115205D01*
X0173070Y0115136D01*
X0173064Y0115068D01*
X0173054Y0115000D01*
X0173040Y0114933D01*
X0173022Y0114866D01*
X0173001Y0114801D01*
X0172975Y0114737D01*
X0172946Y0114675D01*
X0172914Y0114614D01*
X0172878Y0114556D01*
X0172838Y0114500D01*
X0172796Y0114446D01*
X0172750Y0114395D01*
X0172701Y0114346D01*
X0172650Y0114300D01*
X0172596Y0114258D01*
X0172540Y0114218D01*
X0172482Y0114182D01*
X0172421Y0114150D01*
X0172359Y0114121D01*
X0172295Y0114095D01*
X0172230Y0114074D01*
X0172163Y0114056D01*
X0172096Y0114042D01*
X0172028Y0114032D01*
X0171960Y0114026D01*
X0171891Y0114024D01*
X0171822Y0114026D01*
X0171754Y0114032D01*
X0171686Y0114042D01*
X0171619Y0114056D01*
X0171552Y0114074D01*
X0171487Y0114095D01*
X0171423Y0114121D01*
X0171361Y0114150D01*
X0171300Y0114182D01*
X0171242Y0114218D01*
X0171186Y0114258D01*
X0171132Y0114300D01*
X0171081Y0114346D01*
X0171032Y0114395D01*
X0170986Y0114446D01*
X0170944Y0114500D01*
X0170904Y0114556D01*
X0170868Y0114614D01*
X0170836Y0114675D01*
X0170807Y0114737D01*
X0170781Y0114801D01*
X0170760Y0114866D01*
X0170742Y0114933D01*
X0170728Y0115000D01*
X0170718Y0115068D01*
X0170712Y0115136D01*
X0170710Y0115205D01*
X0170710Y0065992D02*
X0170712Y0066061D01*
X0170718Y0066129D01*
X0170728Y0066197D01*
X0170742Y0066264D01*
X0170760Y0066331D01*
X0170781Y0066396D01*
X0170807Y0066460D01*
X0170836Y0066522D01*
X0170868Y0066582D01*
X0170904Y0066641D01*
X0170944Y0066697D01*
X0170986Y0066751D01*
X0171032Y0066802D01*
X0171081Y0066851D01*
X0171132Y0066897D01*
X0171186Y0066939D01*
X0171242Y0066979D01*
X0171300Y0067015D01*
X0171361Y0067047D01*
X0171423Y0067076D01*
X0171487Y0067102D01*
X0171552Y0067123D01*
X0171619Y0067141D01*
X0171686Y0067155D01*
X0171754Y0067165D01*
X0171822Y0067171D01*
X0171891Y0067173D01*
X0171960Y0067171D01*
X0172028Y0067165D01*
X0172096Y0067155D01*
X0172163Y0067141D01*
X0172230Y0067123D01*
X0172295Y0067102D01*
X0172359Y0067076D01*
X0172421Y0067047D01*
X0172481Y0067015D01*
X0172540Y0066979D01*
X0172596Y0066939D01*
X0172650Y0066897D01*
X0172701Y0066851D01*
X0172750Y0066802D01*
X0172796Y0066751D01*
X0172838Y0066697D01*
X0172878Y0066641D01*
X0172914Y0066582D01*
X0172946Y0066522D01*
X0172975Y0066460D01*
X0173001Y0066396D01*
X0173022Y0066331D01*
X0173040Y0066264D01*
X0173054Y0066197D01*
X0173064Y0066129D01*
X0173070Y0066061D01*
X0173072Y0065992D01*
X0173070Y0065923D01*
X0173064Y0065855D01*
X0173054Y0065787D01*
X0173040Y0065720D01*
X0173022Y0065653D01*
X0173001Y0065588D01*
X0172975Y0065524D01*
X0172946Y0065462D01*
X0172914Y0065401D01*
X0172878Y0065343D01*
X0172838Y0065287D01*
X0172796Y0065233D01*
X0172750Y0065182D01*
X0172701Y0065133D01*
X0172650Y0065087D01*
X0172596Y0065045D01*
X0172540Y0065005D01*
X0172482Y0064969D01*
X0172421Y0064937D01*
X0172359Y0064908D01*
X0172295Y0064882D01*
X0172230Y0064861D01*
X0172163Y0064843D01*
X0172096Y0064829D01*
X0172028Y0064819D01*
X0171960Y0064813D01*
X0171891Y0064811D01*
X0171822Y0064813D01*
X0171754Y0064819D01*
X0171686Y0064829D01*
X0171619Y0064843D01*
X0171552Y0064861D01*
X0171487Y0064882D01*
X0171423Y0064908D01*
X0171361Y0064937D01*
X0171300Y0064969D01*
X0171242Y0065005D01*
X0171186Y0065045D01*
X0171132Y0065087D01*
X0171081Y0065133D01*
X0171032Y0065182D01*
X0170986Y0065233D01*
X0170944Y0065287D01*
X0170904Y0065343D01*
X0170868Y0065401D01*
X0170836Y0065462D01*
X0170807Y0065524D01*
X0170781Y0065588D01*
X0170760Y0065653D01*
X0170742Y0065720D01*
X0170728Y0065787D01*
X0170718Y0065855D01*
X0170712Y0065923D01*
X0170710Y0065992D01*
D11*
X0171891Y0039102D02*
X0171891Y0026110D01*
X0089214Y0026110D02*
X0089214Y0039102D01*
X0089214Y0187370D02*
X0089214Y0200362D01*
X0171891Y0200362D02*
X0171891Y0187370D01*
D12*
X0162049Y0198551D02*
X0162049Y0209181D01*
X0099057Y0209181D02*
X0099057Y0198551D01*
X0099057Y0027921D02*
X0099057Y0017291D01*
X0162049Y0017291D02*
X0162049Y0027921D01*
D13*
X0244332Y0017173D03*
X0244332Y0209299D03*
X0016773Y0209299D03*
X0016773Y0017173D03*
D14*
X0190100Y0015000D02*
X0190100Y0021000D01*
X0200100Y0021000D02*
X0200100Y0015000D01*
X0210100Y0015000D02*
X0210100Y0021000D01*
X0220100Y0021000D02*
X0220100Y0015000D01*
D15*
X0067600Y0208000D03*
X0047915Y0208000D03*
D16*
X0060413Y0207705D02*
X0060700Y0207705D01*
X0060700Y0208000D02*
X0060700Y0203444D01*
X0060800Y0202942D01*
X0060996Y0202468D01*
X0061280Y0202043D01*
X0061643Y0201680D01*
X0062068Y0201396D01*
X0062542Y0201200D01*
X0063044Y0201100D01*
X0067600Y0201100D01*
X0072156Y0201100D01*
X0072658Y0201200D01*
X0073132Y0201396D01*
X0073557Y0201680D01*
X0073920Y0202043D01*
X0074204Y0202468D01*
X0074400Y0202942D01*
X0074500Y0203444D01*
X0074500Y0208000D01*
X0074500Y0212556D01*
X0074400Y0213058D01*
X0074204Y0213532D01*
X0073920Y0213957D01*
X0073557Y0214320D01*
X0073132Y0214604D01*
X0072658Y0214800D01*
X0072156Y0214900D01*
X0067600Y0214900D01*
X0067600Y0208000D01*
X0074500Y0208000D01*
X0067600Y0208000D01*
X0067600Y0208000D01*
X0067600Y0208000D01*
X0067600Y0201100D01*
X0067600Y0208000D01*
X0067600Y0208000D01*
X0067600Y0208000D01*
X0060700Y0208000D01*
X0060700Y0212556D01*
X0060800Y0213058D01*
X0060996Y0213532D01*
X0061280Y0213957D01*
X0061643Y0214320D01*
X0062068Y0214604D01*
X0062542Y0214800D01*
X0063044Y0214900D01*
X0067600Y0214900D01*
X0067600Y0208000D01*
X0060700Y0208000D01*
X0060700Y0210903D02*
X0060413Y0210903D01*
X0060413Y0214102D02*
X0061425Y0214102D01*
X0060413Y0217300D02*
X0147425Y0217300D01*
X0147425Y0220499D02*
X0060413Y0220499D01*
X0060413Y0220872D02*
X0147425Y0220872D01*
X0147425Y0183175D01*
X0097295Y0183175D01*
X0097390Y0183338D01*
X0097846Y0184440D01*
X0098155Y0185592D01*
X0098310Y0186774D01*
X0098310Y0190666D01*
X0098538Y0190636D01*
X0099057Y0190636D01*
X0099575Y0190636D01*
X0100604Y0190772D01*
X0101606Y0191040D01*
X0102565Y0191437D01*
X0103463Y0191956D01*
X0104287Y0192588D01*
X0105020Y0193321D01*
X0105652Y0194144D01*
X0106171Y0195043D01*
X0106568Y0196002D01*
X0106836Y0197004D01*
X0106972Y0198032D01*
X0106972Y0203866D01*
X0099057Y0203866D01*
X0099057Y0203866D01*
X0106972Y0203866D01*
X0106972Y0209700D01*
X0106836Y0210729D01*
X0106568Y0211731D01*
X0106171Y0212689D01*
X0105652Y0213588D01*
X0105020Y0214411D01*
X0104287Y0215145D01*
X0103463Y0215776D01*
X0102565Y0216295D01*
X0101606Y0216692D01*
X0100604Y0216961D01*
X0099575Y0217096D01*
X0099057Y0217096D01*
X0099057Y0203866D01*
X0099057Y0190636D01*
X0099057Y0203866D01*
X0099057Y0203866D01*
X0099057Y0203866D01*
X0099057Y0217096D01*
X0098538Y0217096D01*
X0097509Y0216961D01*
X0096507Y0216692D01*
X0095548Y0216295D01*
X0094650Y0215776D01*
X0093827Y0215145D01*
X0093093Y0214411D01*
X0092462Y0213588D01*
X0091943Y0212689D01*
X0091546Y0211731D01*
X0091277Y0210729D01*
X0091142Y0209700D01*
X0091142Y0209263D01*
X0090993Y0209303D01*
X0089810Y0209458D01*
X0089780Y0209458D01*
X0089780Y0194432D01*
X0088649Y0194432D01*
X0088649Y0209458D01*
X0088618Y0209458D01*
X0087436Y0209303D01*
X0086284Y0208994D01*
X0085182Y0208538D01*
X0084150Y0207942D01*
X0083204Y0207216D01*
X0082361Y0206373D01*
X0081635Y0205427D01*
X0081039Y0204394D01*
X0080582Y0203292D01*
X0080274Y0202141D01*
X0080118Y0200958D01*
X0080118Y0194431D01*
X0088649Y0194431D01*
X0088649Y0193301D01*
X0080118Y0193301D01*
X0080118Y0186774D01*
X0080274Y0185592D01*
X0080582Y0184440D01*
X0081039Y0183338D01*
X0081133Y0183175D01*
X0060413Y0183175D01*
X0060413Y0220872D01*
X0067600Y0214102D02*
X0067600Y0214102D01*
X0067600Y0210903D02*
X0067600Y0210903D01*
X0067600Y0207705D02*
X0067600Y0207705D01*
X0067600Y0204506D02*
X0067600Y0204506D01*
X0067600Y0201308D02*
X0067600Y0201308D01*
X0072919Y0201308D02*
X0080164Y0201308D01*
X0081103Y0204506D02*
X0074500Y0204506D01*
X0074500Y0207705D02*
X0083841Y0207705D01*
X0088649Y0207705D02*
X0089780Y0207705D01*
X0089780Y0204506D02*
X0088649Y0204506D01*
X0088649Y0201308D02*
X0089780Y0201308D01*
X0089780Y0198109D02*
X0088649Y0198109D01*
X0088649Y0194911D02*
X0089780Y0194911D01*
X0099057Y0194911D02*
X0099057Y0194911D01*
X0099057Y0198109D02*
X0099057Y0198109D01*
X0099057Y0201308D02*
X0099057Y0201308D01*
X0099057Y0204506D02*
X0099057Y0204506D01*
X0099057Y0207705D02*
X0099057Y0207705D01*
X0099057Y0210903D02*
X0099057Y0210903D01*
X0099057Y0214102D02*
X0099057Y0214102D01*
X0092856Y0214102D02*
X0073775Y0214102D01*
X0074500Y0210903D02*
X0091324Y0210903D01*
X0105258Y0214102D02*
X0147425Y0214102D01*
X0147425Y0210903D02*
X0106789Y0210903D01*
X0106972Y0207705D02*
X0147425Y0207705D01*
X0147425Y0204506D02*
X0106972Y0204506D01*
X0106972Y0201308D02*
X0147425Y0201308D01*
X0147425Y0198109D02*
X0106972Y0198109D01*
X0106094Y0194911D02*
X0147425Y0194911D01*
X0147425Y0191712D02*
X0103041Y0191712D01*
X0099057Y0191712D02*
X0099057Y0191712D01*
X0098310Y0188514D02*
X0147425Y0188514D01*
X0147425Y0185315D02*
X0098080Y0185315D01*
X0080348Y0185315D02*
X0060413Y0185315D01*
X0060413Y0188514D02*
X0080118Y0188514D01*
X0080118Y0191712D02*
X0060413Y0191712D01*
X0060413Y0194911D02*
X0080118Y0194911D01*
X0080118Y0198109D02*
X0060413Y0198109D01*
X0060413Y0201308D02*
X0062281Y0201308D01*
X0060700Y0204506D02*
X0060413Y0204506D01*
X0027425Y0201662D02*
X0027425Y0064471D01*
X0028213Y0062569D01*
X0047425Y0043357D01*
X0047425Y0005600D01*
X0022911Y0005600D01*
X0023516Y0005923D01*
X0024586Y0006639D01*
X0025581Y0007455D01*
X0026491Y0008365D01*
X0027308Y0009360D01*
X0028023Y0010430D01*
X0028630Y0011565D01*
X0029122Y0012755D01*
X0029496Y0013986D01*
X0029747Y0015249D01*
X0029823Y0016017D01*
X0017929Y0016017D01*
X0017929Y0018329D01*
X0015617Y0018329D01*
X0015617Y0030223D01*
X0014849Y0030147D01*
X0013586Y0029896D01*
X0012355Y0029522D01*
X0011165Y0029030D01*
X0010030Y0028423D01*
X0008960Y0027708D01*
X0007965Y0026891D01*
X0007055Y0025981D01*
X0006239Y0024986D01*
X0005523Y0023916D01*
X0005200Y0023311D01*
X0005200Y0203161D01*
X0005523Y0202556D01*
X0006239Y0201486D01*
X0007055Y0200491D01*
X0007965Y0199581D01*
X0008960Y0198765D01*
X0010030Y0198049D01*
X0011165Y0197443D01*
X0012355Y0196950D01*
X0013586Y0196576D01*
X0014849Y0196325D01*
X0015617Y0196250D01*
X0015617Y0208143D01*
X0017929Y0208143D01*
X0017929Y0196250D01*
X0018698Y0196325D01*
X0019960Y0196576D01*
X0021192Y0196950D01*
X0022381Y0197443D01*
X0023516Y0198049D01*
X0024586Y0198765D01*
X0025581Y0199581D01*
X0026491Y0200491D01*
X0027308Y0201486D01*
X0027425Y0201662D01*
X0027425Y0201308D02*
X0027161Y0201308D01*
X0027425Y0198109D02*
X0023606Y0198109D01*
X0027425Y0194911D02*
X0005200Y0194911D01*
X0005200Y0198109D02*
X0009941Y0198109D01*
X0006385Y0201308D02*
X0005200Y0201308D01*
X0015617Y0201308D02*
X0017929Y0201308D01*
X0017929Y0204506D02*
X0015617Y0204506D01*
X0015617Y0207705D02*
X0017929Y0207705D01*
X0017929Y0198109D02*
X0015617Y0198109D01*
X0005200Y0191712D02*
X0027425Y0191712D01*
X0027425Y0188514D02*
X0005200Y0188514D01*
X0005200Y0185315D02*
X0027425Y0185315D01*
X0027425Y0182117D02*
X0005200Y0182117D01*
X0005200Y0178918D02*
X0027425Y0178918D01*
X0027425Y0175720D02*
X0005200Y0175720D01*
X0005200Y0172521D02*
X0027425Y0172521D01*
X0027425Y0169323D02*
X0005200Y0169323D01*
X0005200Y0166124D02*
X0027425Y0166124D01*
X0027425Y0162926D02*
X0005200Y0162926D01*
X0005200Y0159727D02*
X0027425Y0159727D01*
X0027425Y0156529D02*
X0005200Y0156529D01*
X0005200Y0153330D02*
X0027425Y0153330D01*
X0027425Y0150132D02*
X0005200Y0150132D01*
X0005200Y0146933D02*
X0027425Y0146933D01*
X0027425Y0143734D02*
X0005200Y0143734D01*
X0005200Y0140536D02*
X0027425Y0140536D01*
X0027425Y0137337D02*
X0005200Y0137337D01*
X0005200Y0134139D02*
X0027425Y0134139D01*
X0027425Y0130940D02*
X0005200Y0130940D01*
X0005200Y0127742D02*
X0027425Y0127742D01*
X0027425Y0124543D02*
X0005200Y0124543D01*
X0005200Y0121345D02*
X0027425Y0121345D01*
X0027425Y0118146D02*
X0005200Y0118146D01*
X0005200Y0114948D02*
X0027425Y0114948D01*
X0027425Y0111749D02*
X0005200Y0111749D01*
X0005200Y0108551D02*
X0027425Y0108551D01*
X0027425Y0105352D02*
X0005200Y0105352D01*
X0005200Y0102154D02*
X0027425Y0102154D01*
X0027425Y0098955D02*
X0005200Y0098955D01*
X0005200Y0095757D02*
X0027425Y0095757D01*
X0027425Y0092558D02*
X0005200Y0092558D01*
X0005200Y0089360D02*
X0027425Y0089360D01*
X0027425Y0086161D02*
X0005200Y0086161D01*
X0005200Y0082963D02*
X0027425Y0082963D01*
X0027425Y0079764D02*
X0005200Y0079764D01*
X0005200Y0076566D02*
X0027425Y0076566D01*
X0027425Y0073367D02*
X0005200Y0073367D01*
X0005200Y0070169D02*
X0027425Y0070169D01*
X0027425Y0066970D02*
X0005200Y0066970D01*
X0005200Y0063772D02*
X0027715Y0063772D01*
X0030209Y0060573D02*
X0005200Y0060573D01*
X0005200Y0057375D02*
X0033407Y0057375D01*
X0036606Y0054176D02*
X0005200Y0054176D01*
X0005200Y0050978D02*
X0039804Y0050978D01*
X0043003Y0047779D02*
X0005200Y0047779D01*
X0005200Y0044581D02*
X0046201Y0044581D01*
X0047425Y0041382D02*
X0005200Y0041382D01*
X0005200Y0038184D02*
X0047425Y0038184D01*
X0047425Y0034985D02*
X0005200Y0034985D01*
X0005200Y0031787D02*
X0047425Y0031787D01*
X0047425Y0028588D02*
X0023207Y0028588D01*
X0023516Y0028423D02*
X0022381Y0029030D01*
X0021192Y0029522D01*
X0019960Y0029896D01*
X0018698Y0030147D01*
X0017929Y0030223D01*
X0017929Y0018329D01*
X0029823Y0018329D01*
X0029747Y0019098D01*
X0029496Y0020360D01*
X0029122Y0021592D01*
X0028630Y0022781D01*
X0028023Y0023916D01*
X0027308Y0024986D01*
X0026491Y0025981D01*
X0025581Y0026891D01*
X0024586Y0027708D01*
X0023516Y0028423D01*
X0026977Y0025390D02*
X0047425Y0025390D01*
X0047425Y0022191D02*
X0028874Y0022191D01*
X0029757Y0018993D02*
X0047425Y0018993D01*
X0047425Y0015794D02*
X0029801Y0015794D01*
X0029056Y0012596D02*
X0047425Y0012596D01*
X0047425Y0009397D02*
X0027333Y0009397D01*
X0023928Y0006199D02*
X0047425Y0006199D01*
X0017929Y0018993D02*
X0015617Y0018993D01*
X0015617Y0022191D02*
X0017929Y0022191D01*
X0017929Y0025390D02*
X0015617Y0025390D01*
X0015617Y0028588D02*
X0017929Y0028588D01*
X0010339Y0028588D02*
X0005200Y0028588D01*
X0005200Y0025390D02*
X0006569Y0025390D01*
X0065760Y0079764D02*
X0085433Y0079764D01*
X0085433Y0082963D02*
X0062576Y0082963D01*
X0060413Y0085136D02*
X0060413Y0148586D01*
X0206558Y0147831D01*
X0206571Y0147825D01*
X0207586Y0147825D01*
X0208603Y0147820D01*
X0208615Y0147825D01*
X0208629Y0147825D01*
X0209567Y0148214D01*
X0210509Y0148598D01*
X0210518Y0148608D01*
X0210531Y0148613D01*
X0211250Y0149331D01*
X0211972Y0150046D01*
X0211977Y0150059D01*
X0211987Y0150069D01*
X0212376Y0151008D01*
X0212769Y0151944D01*
X0212769Y0151958D01*
X0212775Y0151971D01*
X0212775Y0152986D01*
X0212780Y0154003D01*
X0212775Y0154015D01*
X0212775Y0220872D01*
X0238195Y0220872D01*
X0237589Y0220549D01*
X0236519Y0219834D01*
X0235524Y0219017D01*
X0234614Y0218107D01*
X0233798Y0217112D01*
X0233082Y0216042D01*
X0232476Y0214907D01*
X0231983Y0213718D01*
X0231610Y0212486D01*
X0231358Y0211224D01*
X0231283Y0210455D01*
X0243176Y0210455D01*
X0243176Y0208143D01*
X0231283Y0208143D01*
X0231358Y0207375D01*
X0231610Y0206112D01*
X0231983Y0204881D01*
X0232476Y0203691D01*
X0233082Y0202556D01*
X0233798Y0201486D01*
X0234614Y0200491D01*
X0235524Y0199581D01*
X0236519Y0198765D01*
X0237589Y0198049D01*
X0238725Y0197443D01*
X0239914Y0196950D01*
X0241145Y0196576D01*
X0242408Y0196325D01*
X0243176Y0196250D01*
X0243176Y0208143D01*
X0245488Y0208143D01*
X0245488Y0196250D01*
X0246257Y0196325D01*
X0247519Y0196576D01*
X0248751Y0196950D01*
X0249940Y0197443D01*
X0251075Y0198049D01*
X0252145Y0198765D01*
X0253140Y0199581D01*
X0254050Y0200491D01*
X0254867Y0201486D01*
X0255582Y0202556D01*
X0255906Y0203161D01*
X0255906Y0023311D01*
X0255582Y0023916D01*
X0254867Y0024986D01*
X0254050Y0025981D01*
X0253140Y0026891D01*
X0252145Y0027708D01*
X0251075Y0028423D01*
X0249940Y0029030D01*
X0248751Y0029522D01*
X0247519Y0029896D01*
X0246257Y0030147D01*
X0245488Y0030223D01*
X0245488Y0018329D01*
X0243176Y0018329D01*
X0243176Y0016017D01*
X0231283Y0016017D01*
X0231358Y0015249D01*
X0231610Y0013986D01*
X0231983Y0012755D01*
X0232476Y0011565D01*
X0233082Y0010430D01*
X0233798Y0009360D01*
X0234614Y0008365D01*
X0235524Y0007455D01*
X0236519Y0006639D01*
X0237589Y0005923D01*
X0238195Y0005600D01*
X0120275Y0005600D01*
X0120275Y0054029D01*
X0119487Y0055931D01*
X0118031Y0057387D01*
X0116129Y0058175D01*
X0087250Y0058175D01*
X0060413Y0085136D01*
X0060413Y0086161D02*
X0085433Y0086161D01*
X0085433Y0089360D02*
X0060413Y0089360D01*
X0060413Y0092558D02*
X0255906Y0092558D01*
X0255906Y0089360D02*
X0149294Y0089360D01*
X0149294Y0089446D02*
X0148281Y0091201D01*
X0146527Y0092214D01*
X0088201Y0092214D01*
X0086446Y0091201D01*
X0085433Y0089446D01*
X0085433Y0066509D01*
X0085433Y0064979D01*
X0086446Y0063224D01*
X0086446Y0063224D01*
X0086446Y0063224D01*
X0088201Y0062211D01*
X0146527Y0062211D01*
X0148281Y0063224D01*
X0148281Y0063224D01*
X0148281Y0063224D01*
X0149294Y0064979D01*
X0149294Y0089446D01*
X0148281Y0091201D02*
X0148281Y0091201D01*
X0148281Y0091201D01*
X0147212Y0094494D02*
X0148167Y0094890D01*
X0148899Y0095622D01*
X0149294Y0096577D01*
X0149294Y0129895D01*
X0148899Y0130851D01*
X0148167Y0131582D01*
X0147212Y0131978D01*
X0113894Y0131978D01*
X0112938Y0131582D01*
X0112207Y0130851D01*
X0111811Y0129895D01*
X0111811Y0128861D01*
X0111811Y0097612D01*
X0111811Y0096577D01*
X0112207Y0095622D01*
X0112938Y0094890D01*
X0113894Y0094494D01*
X0147212Y0094494D01*
X0148955Y0095757D02*
X0255906Y0095757D01*
X0255906Y0098955D02*
X0149294Y0098955D01*
X0149294Y0102154D02*
X0255906Y0102154D01*
X0255906Y0105352D02*
X0149294Y0105352D01*
X0149294Y0108551D02*
X0255906Y0108551D01*
X0255906Y0111749D02*
X0173430Y0111749D01*
X0174033Y0111999D02*
X0175097Y0113063D01*
X0175672Y0114453D01*
X0175672Y0115957D01*
X0175097Y0117347D01*
X0174033Y0118410D01*
X0172643Y0118986D01*
X0171139Y0118986D01*
X0169750Y0118410D01*
X0168686Y0117347D01*
X0168110Y0115957D01*
X0168110Y0114453D01*
X0168686Y0113063D01*
X0169750Y0111999D01*
X0171139Y0111424D01*
X0172643Y0111424D01*
X0174033Y0111999D01*
X0175672Y0114948D02*
X0255906Y0114948D01*
X0255906Y0118146D02*
X0174297Y0118146D01*
X0169486Y0118146D02*
X0149294Y0118146D01*
X0149294Y0121345D02*
X0255906Y0121345D01*
X0255906Y0124543D02*
X0149294Y0124543D01*
X0149294Y0127742D02*
X0255906Y0127742D01*
X0255906Y0130940D02*
X0148809Y0130940D01*
X0149294Y0114948D02*
X0168110Y0114948D01*
X0170353Y0111749D02*
X0149294Y0111749D01*
X0149294Y0086161D02*
X0255906Y0086161D01*
X0255906Y0082963D02*
X0149294Y0082963D01*
X0149294Y0079764D02*
X0255906Y0079764D01*
X0255906Y0076566D02*
X0149294Y0076566D01*
X0149294Y0073367D02*
X0255906Y0073367D01*
X0255906Y0070169D02*
X0149294Y0070169D01*
X0149294Y0066970D02*
X0168204Y0066970D01*
X0168110Y0066744D02*
X0168110Y0065240D01*
X0168686Y0063850D01*
X0169750Y0062787D01*
X0171139Y0062211D01*
X0172643Y0062211D01*
X0174033Y0062787D01*
X0175097Y0063850D01*
X0175672Y0065240D01*
X0175672Y0066744D01*
X0175097Y0068134D01*
X0174033Y0069198D01*
X0172643Y0069773D01*
X0171139Y0069773D01*
X0169750Y0069198D01*
X0168686Y0068134D01*
X0168110Y0066744D01*
X0168764Y0063772D02*
X0148597Y0063772D01*
X0165881Y0045956D02*
X0165038Y0045113D01*
X0164312Y0044167D01*
X0163716Y0043134D01*
X0163260Y0042032D01*
X0162951Y0040881D01*
X0162795Y0039699D01*
X0162795Y0035806D01*
X0162568Y0035836D01*
X0162049Y0035836D01*
X0162049Y0022606D01*
X0162049Y0009376D01*
X0162568Y0009376D01*
X0163596Y0009512D01*
X0164598Y0009780D01*
X0165557Y0010177D01*
X0166456Y0010696D01*
X0167279Y0011328D01*
X0168012Y0012061D01*
X0168644Y0012885D01*
X0169163Y0013783D01*
X0169560Y0014742D01*
X0169828Y0015744D01*
X0169964Y0016773D01*
X0169964Y0017210D01*
X0170113Y0017170D01*
X0171295Y0017014D01*
X0171326Y0017014D01*
X0171326Y0032041D01*
X0172457Y0032041D01*
X0172457Y0033172D01*
X0171326Y0033172D01*
X0171326Y0048198D01*
X0171295Y0048198D01*
X0170113Y0048043D01*
X0168961Y0047734D01*
X0167860Y0047278D01*
X0166827Y0046682D01*
X0165881Y0045956D01*
X0164630Y0044581D02*
X0120275Y0044581D01*
X0120275Y0041382D02*
X0163085Y0041382D01*
X0162795Y0038184D02*
X0120275Y0038184D01*
X0120275Y0034985D02*
X0158454Y0034985D01*
X0158541Y0035035D02*
X0157642Y0034516D01*
X0156819Y0033885D01*
X0156085Y0033151D01*
X0155454Y0032328D01*
X0154935Y0031429D01*
X0154538Y0030471D01*
X0154269Y0029469D01*
X0154134Y0028440D01*
X0154134Y0022606D01*
X0154134Y0016773D01*
X0154269Y0015744D01*
X0154538Y0014742D01*
X0154935Y0013783D01*
X0155454Y0012885D01*
X0156085Y0012061D01*
X0156819Y0011328D01*
X0157642Y0010696D01*
X0158541Y0010177D01*
X0159499Y0009780D01*
X0160501Y0009512D01*
X0161530Y0009376D01*
X0162049Y0009376D01*
X0162049Y0022606D01*
X0162049Y0022606D01*
X0154134Y0022606D01*
X0162049Y0022606D01*
X0162049Y0022606D01*
X0162049Y0022606D01*
X0162049Y0035836D01*
X0161530Y0035836D01*
X0160501Y0035701D01*
X0159499Y0035432D01*
X0158541Y0035035D01*
X0155141Y0031787D02*
X0120275Y0031787D01*
X0120275Y0028588D02*
X0154153Y0028588D01*
X0154134Y0025390D02*
X0120275Y0025390D01*
X0120275Y0022191D02*
X0154134Y0022191D01*
X0154134Y0018993D02*
X0120275Y0018993D01*
X0120275Y0015794D02*
X0154263Y0015794D01*
X0155675Y0012596D02*
X0120275Y0012596D01*
X0120275Y0009397D02*
X0161373Y0009397D01*
X0162049Y0009397D02*
X0162049Y0009397D01*
X0162724Y0009397D02*
X0233773Y0009397D01*
X0232049Y0012596D02*
X0224949Y0012596D01*
X0224678Y0011941D02*
X0225500Y0013926D01*
X0225500Y0022074D01*
X0224678Y0024059D01*
X0223159Y0025578D01*
X0221174Y0026400D01*
X0219026Y0026400D01*
X0217041Y0025578D01*
X0215522Y0024059D01*
X0215100Y0023040D01*
X0214678Y0024059D01*
X0213159Y0025578D01*
X0211174Y0026400D01*
X0209026Y0026400D01*
X0207041Y0025578D01*
X0205522Y0024059D01*
X0205100Y0023040D01*
X0204678Y0024059D01*
X0203159Y0025578D01*
X0201174Y0026400D01*
X0199026Y0026400D01*
X0197041Y0025578D01*
X0195522Y0024059D01*
X0195100Y0023040D01*
X0194678Y0024059D01*
X0193159Y0025578D01*
X0191174Y0026400D01*
X0189026Y0026400D01*
X0187041Y0025578D01*
X0185522Y0024059D01*
X0184700Y0022074D01*
X0184700Y0013926D01*
X0185522Y0011941D01*
X0187041Y0010422D01*
X0189026Y0009600D01*
X0191174Y0009600D01*
X0193159Y0010422D01*
X0194678Y0011941D01*
X0195100Y0012960D01*
X0195522Y0011941D01*
X0197041Y0010422D01*
X0199026Y0009600D01*
X0201174Y0009600D01*
X0203159Y0010422D01*
X0204678Y0011941D01*
X0205100Y0012960D01*
X0205522Y0011941D01*
X0207041Y0010422D01*
X0209026Y0009600D01*
X0211174Y0009600D01*
X0213159Y0010422D01*
X0214678Y0011941D01*
X0215100Y0012960D01*
X0215522Y0011941D01*
X0217041Y0010422D01*
X0219026Y0009600D01*
X0221174Y0009600D01*
X0223159Y0010422D01*
X0224678Y0011941D01*
X0225500Y0015794D02*
X0231305Y0015794D01*
X0231283Y0018329D02*
X0243176Y0018329D01*
X0243176Y0030223D01*
X0242408Y0030147D01*
X0241145Y0029896D01*
X0239914Y0029522D01*
X0238725Y0029030D01*
X0237589Y0028423D01*
X0236519Y0027708D01*
X0235524Y0026891D01*
X0234614Y0025981D01*
X0233798Y0024986D01*
X0233082Y0023916D01*
X0232476Y0022781D01*
X0231983Y0021592D01*
X0231610Y0020360D01*
X0231358Y0019098D01*
X0231283Y0018329D01*
X0231348Y0018993D02*
X0225500Y0018993D01*
X0225452Y0022191D02*
X0232231Y0022191D01*
X0234129Y0025390D02*
X0223347Y0025390D01*
X0216853Y0025390D02*
X0213347Y0025390D01*
X0206853Y0025390D02*
X0203347Y0025390D01*
X0196853Y0025390D02*
X0193347Y0025390D01*
X0186853Y0025390D02*
X0180971Y0025390D01*
X0180987Y0025514D02*
X0180987Y0032041D01*
X0172457Y0032041D01*
X0172457Y0017014D01*
X0172488Y0017014D01*
X0173670Y0017170D01*
X0174821Y0017478D01*
X0175923Y0017935D01*
X0176956Y0018531D01*
X0177902Y0019257D01*
X0178745Y0020100D01*
X0179471Y0021046D01*
X0180067Y0022079D01*
X0180523Y0023180D01*
X0180832Y0024332D01*
X0180987Y0025514D01*
X0180987Y0028588D02*
X0237898Y0028588D01*
X0243176Y0028588D02*
X0245488Y0028588D01*
X0245488Y0025390D02*
X0243176Y0025390D01*
X0243176Y0022191D02*
X0245488Y0022191D01*
X0245488Y0018993D02*
X0243176Y0018993D01*
X0250766Y0028588D02*
X0255906Y0028588D01*
X0255906Y0025390D02*
X0254536Y0025390D01*
X0255906Y0031787D02*
X0180987Y0031787D01*
X0180987Y0033172D02*
X0180987Y0039699D01*
X0180832Y0040881D01*
X0180523Y0042032D01*
X0180067Y0043134D01*
X0179471Y0044167D01*
X0178745Y0045113D01*
X0177902Y0045956D01*
X0176956Y0046682D01*
X0175923Y0047278D01*
X0174821Y0047734D01*
X0173670Y0048043D01*
X0172488Y0048198D01*
X0172457Y0048198D01*
X0172457Y0033172D01*
X0180987Y0033172D01*
X0180987Y0034985D02*
X0255906Y0034985D01*
X0255906Y0038184D02*
X0180987Y0038184D01*
X0180697Y0041382D02*
X0255906Y0041382D01*
X0255906Y0044581D02*
X0179153Y0044581D01*
X0174654Y0047779D02*
X0255906Y0047779D01*
X0255906Y0050978D02*
X0120275Y0050978D01*
X0120214Y0054176D02*
X0255906Y0054176D01*
X0255906Y0057375D02*
X0118044Y0057375D01*
X0120275Y0047779D02*
X0169129Y0047779D01*
X0171326Y0047779D02*
X0172457Y0047779D01*
X0172457Y0044581D02*
X0171326Y0044581D01*
X0171326Y0041382D02*
X0172457Y0041382D01*
X0172457Y0038184D02*
X0171326Y0038184D01*
X0171326Y0034985D02*
X0172457Y0034985D01*
X0172457Y0031787D02*
X0171326Y0031787D01*
X0171326Y0028588D02*
X0172457Y0028588D01*
X0172457Y0025390D02*
X0171326Y0025390D01*
X0171326Y0022191D02*
X0172457Y0022191D01*
X0172457Y0018993D02*
X0171326Y0018993D01*
X0169835Y0015794D02*
X0184700Y0015794D01*
X0185251Y0012596D02*
X0168422Y0012596D01*
X0162049Y0012596D02*
X0162049Y0012596D01*
X0162049Y0015794D02*
X0162049Y0015794D01*
X0162049Y0018993D02*
X0162049Y0018993D01*
X0162049Y0022191D02*
X0162049Y0022191D01*
X0162049Y0025390D02*
X0162049Y0025390D01*
X0162049Y0028588D02*
X0162049Y0028588D01*
X0162049Y0031787D02*
X0162049Y0031787D01*
X0162049Y0034985D02*
X0162049Y0034985D01*
X0180113Y0022191D02*
X0184748Y0022191D01*
X0184700Y0018993D02*
X0177557Y0018993D01*
X0194949Y0012596D02*
X0195251Y0012596D01*
X0204949Y0012596D02*
X0205251Y0012596D01*
X0214949Y0012596D02*
X0215251Y0012596D01*
X0237178Y0006199D02*
X0120275Y0006199D01*
X0084863Y0060573D02*
X0255906Y0060573D01*
X0255906Y0063772D02*
X0175018Y0063772D01*
X0175579Y0066970D02*
X0255906Y0066970D01*
X0255906Y0134139D02*
X0060413Y0134139D01*
X0060413Y0137337D02*
X0255906Y0137337D01*
X0255906Y0140536D02*
X0060413Y0140536D01*
X0060413Y0143734D02*
X0255906Y0143734D01*
X0255906Y0146933D02*
X0060413Y0146933D01*
X0060413Y0130940D02*
X0112297Y0130940D01*
X0111811Y0127742D02*
X0060413Y0127742D01*
X0060413Y0124543D02*
X0111811Y0124543D01*
X0111811Y0121345D02*
X0060413Y0121345D01*
X0060413Y0118146D02*
X0086809Y0118146D01*
X0087072Y0118410D02*
X0086009Y0117347D01*
X0085433Y0115957D01*
X0085433Y0114453D01*
X0086009Y0113063D01*
X0087072Y0111999D01*
X0088462Y0111424D01*
X0089966Y0111424D01*
X0091356Y0111999D01*
X0092420Y0113063D01*
X0092995Y0114453D01*
X0092995Y0115957D01*
X0092420Y0117347D01*
X0091356Y0118410D01*
X0089966Y0118986D01*
X0088462Y0118986D01*
X0087072Y0118410D01*
X0085433Y0114948D02*
X0060413Y0114948D01*
X0060413Y0111749D02*
X0087676Y0111749D01*
X0090753Y0111749D02*
X0111811Y0111749D01*
X0111811Y0108551D02*
X0060413Y0108551D01*
X0060413Y0105352D02*
X0111811Y0105352D01*
X0111811Y0102154D02*
X0060413Y0102154D01*
X0060413Y0098955D02*
X0111811Y0098955D01*
X0112151Y0095757D02*
X0060413Y0095757D01*
X0068944Y0076566D02*
X0085433Y0076566D01*
X0085433Y0073367D02*
X0072128Y0073367D01*
X0075312Y0070169D02*
X0085433Y0070169D01*
X0085433Y0066970D02*
X0078495Y0066970D01*
X0081679Y0063772D02*
X0086130Y0063772D01*
X0086446Y0091201D02*
X0086446Y0091201D01*
X0086446Y0091201D01*
X0092995Y0114948D02*
X0111811Y0114948D01*
X0111811Y0118146D02*
X0091620Y0118146D01*
X0212013Y0150132D02*
X0255906Y0150132D01*
X0255906Y0153330D02*
X0212777Y0153330D01*
X0212775Y0156529D02*
X0255906Y0156529D01*
X0255906Y0159727D02*
X0212775Y0159727D01*
X0212775Y0162926D02*
X0255906Y0162926D01*
X0255906Y0166124D02*
X0212775Y0166124D01*
X0212775Y0169323D02*
X0255906Y0169323D01*
X0255906Y0172521D02*
X0212775Y0172521D01*
X0212775Y0175720D02*
X0255906Y0175720D01*
X0255906Y0178918D02*
X0212775Y0178918D01*
X0212775Y0182117D02*
X0255906Y0182117D01*
X0255906Y0185315D02*
X0212775Y0185315D01*
X0212775Y0188514D02*
X0255906Y0188514D01*
X0255906Y0191712D02*
X0212775Y0191712D01*
X0212775Y0194911D02*
X0255906Y0194911D01*
X0255906Y0198109D02*
X0251165Y0198109D01*
X0254721Y0201308D02*
X0255906Y0201308D01*
X0245488Y0201308D02*
X0243176Y0201308D01*
X0243176Y0204506D02*
X0245488Y0204506D01*
X0245488Y0207705D02*
X0243176Y0207705D01*
X0243176Y0198109D02*
X0245488Y0198109D01*
X0237500Y0198109D02*
X0212775Y0198109D01*
X0212775Y0201308D02*
X0233944Y0201308D01*
X0232138Y0204506D02*
X0212775Y0204506D01*
X0212775Y0207705D02*
X0231326Y0207705D01*
X0231327Y0210903D02*
X0212775Y0210903D01*
X0212775Y0214102D02*
X0232142Y0214102D01*
X0233952Y0217300D02*
X0212775Y0217300D01*
X0212775Y0220499D02*
X0237514Y0220499D01*
D17*
X0225100Y0215500D03*
X0247600Y0188000D03*
X0222600Y0160500D03*
X0250100Y0148000D03*
X0227600Y0133000D03*
X0250100Y0113000D03*
X0227600Y0085500D03*
X0210100Y0100500D03*
X0192600Y0090500D03*
X0175100Y0080500D03*
X0195100Y0068000D03*
X0182600Y0050500D03*
X0187600Y0030500D03*
X0205100Y0043000D03*
X0212600Y0030500D03*
X0230100Y0033000D03*
X0250100Y0035500D03*
X0227600Y0008000D03*
X0205100Y0008000D03*
X0172600Y0010500D03*
X0155100Y0043000D03*
X0155100Y0068000D03*
X0152600Y0093000D03*
X0175100Y0103000D03*
X0152600Y0123000D03*
X0145100Y0135500D03*
X0152600Y0145500D03*
X0170100Y0128000D03*
X0192600Y0138000D03*
X0145100Y0185500D03*
X0135100Y0200500D03*
X0125100Y0185500D03*
X0115100Y0200500D03*
X0105100Y0185500D03*
X0077600Y0185500D03*
X0065100Y0185500D03*
X0075100Y0200500D03*
X0085100Y0215500D03*
X0065100Y0218000D03*
X0025100Y0193000D03*
X0010100Y0185500D03*
X0025100Y0173000D03*
X0010100Y0155500D03*
X0025100Y0143000D03*
X0010100Y0125500D03*
X0025100Y0110500D03*
X0010100Y0093000D03*
X0025100Y0075500D03*
X0010100Y0058000D03*
X0032600Y0050500D03*
X0012600Y0035500D03*
X0035100Y0010500D03*
X0067600Y0083000D03*
X0080100Y0088000D03*
X0090100Y0105500D03*
X0100100Y0095500D03*
X0107600Y0123000D03*
X0117600Y0135500D03*
X0105100Y0145500D03*
X0090100Y0125500D03*
X0070100Y0138000D03*
X0130100Y0145500D03*
X0130100Y0215500D03*
X0145100Y0218000D03*
X0107600Y0218000D03*
X0250100Y0068000D03*
X0217600Y0063000D03*
X0130100Y0010500D03*
X0120100Y0058000D03*
D18*
X0115100Y0053000D02*
X0115100Y0006000D01*
X0052600Y0006000D01*
X0052600Y0045500D01*
X0032600Y0065500D01*
X0032600Y0220472D01*
X0055238Y0220472D01*
X0055238Y0178000D01*
X0085302Y0178000D01*
X0085327Y0177986D01*
X0087888Y0177299D01*
X0090540Y0177299D01*
X0093101Y0177986D01*
X0093126Y0178000D01*
X0152600Y0178000D01*
X0152600Y0220472D01*
X0207600Y0220472D01*
X0207600Y0153000D01*
X0055238Y0153787D01*
X0055238Y0083000D01*
X0085100Y0053000D01*
X0115100Y0053000D01*
X0115100Y0050982D02*
X0047118Y0050982D01*
X0051116Y0046984D02*
X0083908Y0046984D01*
X0083710Y0046859D02*
X0082877Y0046194D01*
X0082122Y0045440D01*
X0081457Y0044606D01*
X0080890Y0043703D01*
X0080427Y0042742D01*
X0080075Y0041735D01*
X0079838Y0040696D01*
X0079718Y0039636D01*
X0079718Y0032772D01*
X0089049Y0032772D01*
X0089049Y0048598D01*
X0088681Y0048598D01*
X0087621Y0048479D01*
X0086581Y0048242D01*
X0085574Y0047889D01*
X0084614Y0047427D01*
X0083710Y0046859D01*
X0080544Y0042985D02*
X0052600Y0042985D01*
X0052600Y0038987D02*
X0079718Y0038987D01*
X0079718Y0034988D02*
X0052600Y0034988D01*
X0052600Y0030990D02*
X0079718Y0030990D01*
X0079718Y0032441D02*
X0079718Y0025577D01*
X0079838Y0024517D01*
X0080075Y0023477D01*
X0080427Y0022471D01*
X0080890Y0021510D01*
X0081457Y0020606D01*
X0082122Y0019773D01*
X0082877Y0019018D01*
X0083710Y0018353D01*
X0084614Y0017786D01*
X0085574Y0017323D01*
X0086581Y0016971D01*
X0087621Y0016734D01*
X0088681Y0016614D01*
X0089049Y0016614D01*
X0089049Y0032441D01*
X0089380Y0032441D01*
X0089380Y0016614D01*
X0089747Y0016614D01*
X0090744Y0016727D01*
X0090884Y0015666D01*
X0091166Y0014613D01*
X0091583Y0013606D01*
X0092128Y0012662D01*
X0092792Y0011797D01*
X0093562Y0011026D01*
X0094427Y0010363D01*
X0095371Y0009818D01*
X0096378Y0009401D01*
X0097431Y0009119D01*
X0098512Y0008976D01*
X0099057Y0008976D01*
X0099602Y0008976D01*
X0100682Y0009119D01*
X0101735Y0009401D01*
X0102742Y0009818D01*
X0103686Y0010363D01*
X0104551Y0011026D01*
X0105322Y0011797D01*
X0105985Y0012662D01*
X0106530Y0013606D01*
X0106947Y0014613D01*
X0107229Y0015666D01*
X0107372Y0016746D01*
X0107372Y0022606D01*
X0099057Y0022606D01*
X0099057Y0022606D01*
X0099057Y0008976D01*
X0099057Y0022606D01*
X0099057Y0022606D01*
X0107372Y0022606D01*
X0107372Y0028466D01*
X0107229Y0029547D01*
X0106947Y0030600D01*
X0106530Y0031607D01*
X0105985Y0032551D01*
X0105322Y0033415D01*
X0104551Y0034186D01*
X0103686Y0034850D01*
X0102742Y0035395D01*
X0101735Y0035812D01*
X0100682Y0036094D01*
X0099602Y0036236D01*
X0099057Y0036236D01*
X0099057Y0022606D01*
X0099057Y0022606D01*
X0099057Y0036236D01*
X0098710Y0036236D01*
X0098710Y0039636D01*
X0098591Y0040696D01*
X0098353Y0041735D01*
X0098001Y0042742D01*
X0097538Y0043703D01*
X0096971Y0044606D01*
X0096306Y0045440D01*
X0095552Y0046194D01*
X0094718Y0046859D01*
X0093815Y0047427D01*
X0092854Y0047889D01*
X0091847Y0048242D01*
X0090807Y0048479D01*
X0089747Y0048598D01*
X0089380Y0048598D01*
X0089380Y0032772D01*
X0089049Y0032772D01*
X0089049Y0032441D01*
X0079718Y0032441D01*
X0079718Y0026991D02*
X0052600Y0026991D01*
X0052600Y0022993D02*
X0080244Y0022993D01*
X0082907Y0018994D02*
X0052600Y0018994D01*
X0052600Y0014996D02*
X0091064Y0014996D01*
X0089380Y0018994D02*
X0089049Y0018994D01*
X0089049Y0022993D02*
X0089380Y0022993D01*
X0089380Y0026991D02*
X0089049Y0026991D01*
X0089049Y0030990D02*
X0089380Y0030990D01*
X0089380Y0034988D02*
X0089049Y0034988D01*
X0089049Y0038987D02*
X0089380Y0038987D01*
X0089380Y0042985D02*
X0089049Y0042985D01*
X0089049Y0046984D02*
X0089380Y0046984D01*
X0094520Y0046984D02*
X0115100Y0046984D01*
X0115100Y0042985D02*
X0097884Y0042985D01*
X0098710Y0038987D02*
X0115100Y0038987D01*
X0115100Y0034988D02*
X0103446Y0034988D01*
X0099057Y0034988D02*
X0099057Y0034988D01*
X0099057Y0030990D02*
X0099057Y0030990D01*
X0099057Y0026991D02*
X0099057Y0026991D01*
X0099057Y0022993D02*
X0099057Y0022993D01*
X0099057Y0018994D02*
X0099057Y0018994D01*
X0099057Y0014996D02*
X0099057Y0014996D01*
X0099057Y0010997D02*
X0099057Y0010997D01*
X0093601Y0010997D02*
X0052600Y0010997D01*
X0052600Y0006999D02*
X0115100Y0006999D01*
X0115100Y0010997D02*
X0104513Y0010997D01*
X0107050Y0014996D02*
X0115100Y0014996D01*
X0115100Y0018994D02*
X0107372Y0018994D01*
X0107372Y0022993D02*
X0115100Y0022993D01*
X0115100Y0026991D02*
X0107372Y0026991D01*
X0106786Y0030990D02*
X0115100Y0030990D01*
X0083128Y0054981D02*
X0043119Y0054981D01*
X0039121Y0058979D02*
X0079148Y0058979D01*
X0075168Y0062978D02*
X0035122Y0062978D01*
X0032600Y0066976D02*
X0071188Y0066976D01*
X0067208Y0070975D02*
X0032600Y0070975D01*
X0032600Y0074973D02*
X0063228Y0074973D01*
X0059248Y0078972D02*
X0032600Y0078972D01*
X0032600Y0082970D02*
X0055267Y0082970D01*
X0055238Y0086969D02*
X0032600Y0086969D01*
X0032600Y0090967D02*
X0055238Y0090967D01*
X0055238Y0094966D02*
X0032600Y0094966D01*
X0032600Y0098964D02*
X0055238Y0098964D01*
X0055238Y0102963D02*
X0032600Y0102963D01*
X0032600Y0106961D02*
X0055238Y0106961D01*
X0055238Y0110960D02*
X0032600Y0110960D01*
X0032600Y0114958D02*
X0055238Y0114958D01*
X0055238Y0118957D02*
X0032600Y0118957D01*
X0032600Y0122955D02*
X0055238Y0122955D01*
X0055238Y0126954D02*
X0032600Y0126954D01*
X0032600Y0130952D02*
X0055238Y0130952D01*
X0055238Y0134951D02*
X0032600Y0134951D01*
X0032600Y0138949D02*
X0055238Y0138949D01*
X0055238Y0142948D02*
X0032600Y0142948D01*
X0032600Y0146946D02*
X0055238Y0146946D01*
X0055238Y0150945D02*
X0032600Y0150945D01*
X0032600Y0154943D02*
X0207600Y0154943D01*
X0207600Y0158942D02*
X0032600Y0158942D01*
X0032600Y0162940D02*
X0207600Y0162940D01*
X0207600Y0166939D02*
X0032600Y0166939D01*
X0032600Y0170937D02*
X0207600Y0170937D01*
X0207600Y0174936D02*
X0032600Y0174936D01*
X0032600Y0178934D02*
X0055238Y0178934D01*
X0055238Y0182933D02*
X0032600Y0182933D01*
X0032600Y0186932D02*
X0055238Y0186932D01*
X0055238Y0190930D02*
X0032600Y0190930D01*
X0032600Y0194929D02*
X0055238Y0194929D01*
X0055238Y0198927D02*
X0032600Y0198927D01*
X0032600Y0202926D02*
X0040710Y0202926D01*
X0040730Y0202825D02*
X0040956Y0202279D01*
X0041285Y0201788D01*
X0041703Y0201370D01*
X0042194Y0201041D01*
X0042740Y0200815D01*
X0043319Y0200700D01*
X0047915Y0200700D01*
X0052510Y0200700D01*
X0053090Y0200815D01*
X0053636Y0201041D01*
X0054127Y0201370D01*
X0054545Y0201788D01*
X0054874Y0202279D01*
X0055100Y0202825D01*
X0055215Y0203405D01*
X0055215Y0208000D01*
X0055215Y0212595D01*
X0055100Y0213175D01*
X0054874Y0213721D01*
X0054545Y0214212D01*
X0054127Y0214630D01*
X0053636Y0214959D01*
X0053090Y0215185D01*
X0052510Y0215300D01*
X0047915Y0215300D01*
X0047915Y0208000D01*
X0055215Y0208000D01*
X0047915Y0208000D01*
X0047915Y0208000D01*
X0047915Y0208000D01*
X0047915Y0200700D01*
X0047915Y0208000D01*
X0047915Y0208000D01*
X0047915Y0215300D01*
X0043319Y0215300D01*
X0042740Y0215185D01*
X0042194Y0214959D01*
X0041703Y0214630D01*
X0041285Y0214212D01*
X0040956Y0213721D01*
X0040730Y0213175D01*
X0040615Y0212595D01*
X0040615Y0208000D01*
X0047915Y0208000D01*
X0047915Y0208000D01*
X0040615Y0208000D01*
X0040615Y0203405D01*
X0040730Y0202825D01*
X0040615Y0206924D02*
X0032600Y0206924D01*
X0032600Y0210923D02*
X0040615Y0210923D01*
X0042138Y0214921D02*
X0032600Y0214921D01*
X0032600Y0218920D02*
X0055238Y0218920D01*
X0055238Y0214921D02*
X0053692Y0214921D01*
X0055215Y0210923D02*
X0055238Y0210923D01*
X0055215Y0206924D02*
X0055238Y0206924D01*
X0055238Y0202926D02*
X0055120Y0202926D01*
X0047915Y0202926D02*
X0047915Y0202926D01*
X0047915Y0206924D02*
X0047915Y0206924D01*
X0047915Y0210923D02*
X0047915Y0210923D01*
X0047915Y0214921D02*
X0047915Y0214921D01*
X0152600Y0214921D02*
X0156030Y0214921D01*
X0155784Y0214675D02*
X0156555Y0215446D01*
X0157419Y0216110D01*
X0158363Y0216655D01*
X0159370Y0217072D01*
X0160423Y0217354D01*
X0161504Y0217496D01*
X0162049Y0217496D01*
X0162049Y0203866D01*
X0162049Y0190236D01*
X0162395Y0190236D01*
X0162395Y0186837D01*
X0162515Y0185777D01*
X0162752Y0184737D01*
X0163104Y0183730D01*
X0163567Y0182769D01*
X0164135Y0181866D01*
X0164800Y0181032D01*
X0165554Y0180278D01*
X0166388Y0179613D01*
X0167291Y0179046D01*
X0168252Y0178583D01*
X0169258Y0178231D01*
X0170298Y0177993D01*
X0171358Y0177874D01*
X0171726Y0177874D01*
X0171726Y0193701D01*
X0172057Y0193701D01*
X0172057Y0194031D01*
X0181387Y0194031D01*
X0181387Y0200895D01*
X0181268Y0201955D01*
X0181031Y0202995D01*
X0180678Y0204002D01*
X0180216Y0204963D01*
X0179648Y0205866D01*
X0178983Y0206700D01*
X0178229Y0207454D01*
X0177395Y0208119D01*
X0176492Y0208686D01*
X0175531Y0209149D01*
X0174524Y0209502D01*
X0173484Y0209739D01*
X0172425Y0209858D01*
X0172057Y0209858D01*
X0172057Y0194032D01*
X0171726Y0194032D01*
X0171726Y0209858D01*
X0171358Y0209858D01*
X0170361Y0209746D01*
X0170221Y0210807D01*
X0169939Y0211860D01*
X0169522Y0212867D01*
X0168977Y0213811D01*
X0168314Y0214675D01*
X0167543Y0215446D01*
X0166678Y0216110D01*
X0165734Y0216655D01*
X0164727Y0217072D01*
X0163674Y0217354D01*
X0162594Y0217496D01*
X0162049Y0217496D01*
X0162049Y0203866D01*
X0162049Y0203866D01*
X0162049Y0190236D01*
X0161504Y0190236D01*
X0160423Y0190378D01*
X0159370Y0190661D01*
X0158363Y0191078D01*
X0157419Y0191623D01*
X0156555Y0192286D01*
X0155784Y0193057D01*
X0155120Y0193922D01*
X0154575Y0194866D01*
X0154158Y0195873D01*
X0153876Y0196926D01*
X0153734Y0198006D01*
X0153734Y0203866D01*
X0162049Y0203866D01*
X0162049Y0203866D01*
X0162049Y0203866D01*
X0153734Y0203866D01*
X0153734Y0209726D01*
X0153876Y0210807D01*
X0154158Y0211860D01*
X0154575Y0212867D01*
X0155120Y0213811D01*
X0155784Y0214675D01*
X0153907Y0210923D02*
X0152600Y0210923D01*
X0152600Y0206924D02*
X0153734Y0206924D01*
X0153734Y0202926D02*
X0152600Y0202926D01*
X0152600Y0198927D02*
X0153734Y0198927D01*
X0154549Y0194929D02*
X0152600Y0194929D01*
X0152600Y0190930D02*
X0158720Y0190930D01*
X0162049Y0190930D02*
X0162049Y0190930D01*
X0162049Y0194929D02*
X0162049Y0194929D01*
X0162049Y0198927D02*
X0162049Y0198927D01*
X0162049Y0202926D02*
X0162049Y0202926D01*
X0162049Y0206924D02*
X0162049Y0206924D01*
X0162049Y0210923D02*
X0162049Y0210923D01*
X0162049Y0214921D02*
X0162049Y0214921D01*
X0168068Y0214921D02*
X0207600Y0214921D01*
X0207600Y0218920D02*
X0152600Y0218920D01*
X0170190Y0210923D02*
X0207600Y0210923D01*
X0207600Y0206924D02*
X0178759Y0206924D01*
X0181047Y0202926D02*
X0207600Y0202926D01*
X0207600Y0198927D02*
X0181387Y0198927D01*
X0181387Y0194929D02*
X0207600Y0194929D01*
X0207600Y0190930D02*
X0181387Y0190930D01*
X0181387Y0193701D02*
X0172057Y0193701D01*
X0172057Y0177874D01*
X0172425Y0177874D01*
X0173484Y0177993D01*
X0174524Y0178231D01*
X0175531Y0178583D01*
X0176492Y0179046D01*
X0177395Y0179613D01*
X0178229Y0180278D01*
X0178983Y0181032D01*
X0179648Y0181866D01*
X0180216Y0182769D01*
X0180678Y0183730D01*
X0181031Y0184737D01*
X0181268Y0185777D01*
X0181387Y0186837D01*
X0181387Y0193701D01*
X0181387Y0186932D02*
X0207600Y0186932D01*
X0207600Y0182933D02*
X0180294Y0182933D01*
X0176261Y0178934D02*
X0207600Y0178934D01*
X0172057Y0178934D02*
X0171726Y0178934D01*
X0171726Y0182933D02*
X0172057Y0182933D01*
X0167522Y0178934D02*
X0152600Y0178934D01*
X0152600Y0182933D02*
X0163488Y0182933D01*
X0162395Y0186932D02*
X0152600Y0186932D01*
X0171726Y0186932D02*
X0172057Y0186932D01*
X0172057Y0190930D02*
X0171726Y0190930D01*
X0171726Y0194929D02*
X0172057Y0194929D01*
X0172057Y0198927D02*
X0171726Y0198927D01*
X0171726Y0202926D02*
X0172057Y0202926D01*
X0172057Y0206924D02*
X0171726Y0206924D01*
D19*
X0055100Y0125500D02*
X0052600Y0125500D01*
D20*
X0055100Y0125500D03*
M02*
