G75*
%MOIN*%
%OFA0B0*%
%FSLAX25Y25*%
%IPPOS*%
%LPD*%
%AMOC8*
5,1,8,0,0,1.08239X$1,22.5*
%
%ADD10C,0.00000*%
%ADD11R,0.05512X0.03937*%
%ADD12R,0.05315X0.01772*%
%ADD13R,0.06693X0.07874*%
%ADD14R,0.04331X0.03937*%
%ADD15R,0.08661X0.07087*%
%ADD16C,0.01200*%
%ADD17R,0.03543X0.02756*%
%ADD18R,0.02756X0.03543*%
%ADD19C,0.12992*%
%ADD20C,0.10630*%
%ADD21R,0.13780X0.09843*%
%ADD22C,0.21000*%
%ADD23C,0.06000*%
%ADD24R,0.08600X0.08600*%
%ADD25C,0.02400*%
%ADD26C,0.01600*%
%ADD27C,0.03200*%
%ADD28C,0.01981*%
%ADD29C,0.04000*%
%ADD30C,0.03543*%
D10*
X0016773Y0003000D02*
X0244332Y0003000D01*
X0244674Y0003004D01*
X0245017Y0003017D01*
X0245359Y0003037D01*
X0245700Y0003066D01*
X0246040Y0003103D01*
X0246380Y0003149D01*
X0246718Y0003202D01*
X0247055Y0003264D01*
X0247390Y0003334D01*
X0247724Y0003412D01*
X0248055Y0003498D01*
X0248385Y0003592D01*
X0248712Y0003694D01*
X0249036Y0003803D01*
X0249358Y0003921D01*
X0249677Y0004046D01*
X0249992Y0004179D01*
X0250305Y0004320D01*
X0250613Y0004468D01*
X0250919Y0004623D01*
X0251220Y0004786D01*
X0251517Y0004956D01*
X0251810Y0005133D01*
X0252099Y0005318D01*
X0252383Y0005509D01*
X0252663Y0005707D01*
X0252937Y0005911D01*
X0253207Y0006123D01*
X0253471Y0006340D01*
X0253730Y0006564D01*
X0253984Y0006795D01*
X0254232Y0007031D01*
X0254474Y0007273D01*
X0254710Y0007521D01*
X0254941Y0007775D01*
X0255165Y0008034D01*
X0255382Y0008298D01*
X0255594Y0008568D01*
X0255798Y0008842D01*
X0255996Y0009122D01*
X0256187Y0009406D01*
X0256372Y0009695D01*
X0256549Y0009988D01*
X0256719Y0010285D01*
X0256882Y0010586D01*
X0257037Y0010892D01*
X0257185Y0011200D01*
X0257326Y0011513D01*
X0257459Y0011828D01*
X0257584Y0012147D01*
X0257702Y0012469D01*
X0257811Y0012793D01*
X0257913Y0013120D01*
X0258007Y0013450D01*
X0258093Y0013781D01*
X0258171Y0014115D01*
X0258241Y0014450D01*
X0258303Y0014787D01*
X0258356Y0015125D01*
X0258402Y0015465D01*
X0258439Y0015805D01*
X0258468Y0016146D01*
X0258488Y0016488D01*
X0258501Y0016831D01*
X0258505Y0017173D01*
X0258506Y0017173D02*
X0258506Y0209299D01*
X0258505Y0209299D02*
X0258501Y0209641D01*
X0258488Y0209984D01*
X0258468Y0210326D01*
X0258439Y0210667D01*
X0258402Y0211007D01*
X0258356Y0211347D01*
X0258303Y0211685D01*
X0258241Y0212022D01*
X0258171Y0212357D01*
X0258093Y0212691D01*
X0258007Y0213022D01*
X0257913Y0213352D01*
X0257811Y0213679D01*
X0257702Y0214003D01*
X0257584Y0214325D01*
X0257459Y0214644D01*
X0257326Y0214959D01*
X0257185Y0215272D01*
X0257037Y0215580D01*
X0256882Y0215886D01*
X0256719Y0216187D01*
X0256549Y0216484D01*
X0256372Y0216777D01*
X0256187Y0217066D01*
X0255996Y0217350D01*
X0255798Y0217630D01*
X0255594Y0217904D01*
X0255382Y0218174D01*
X0255165Y0218438D01*
X0254941Y0218697D01*
X0254710Y0218951D01*
X0254474Y0219199D01*
X0254232Y0219441D01*
X0253984Y0219677D01*
X0253730Y0219908D01*
X0253471Y0220132D01*
X0253207Y0220349D01*
X0252937Y0220561D01*
X0252663Y0220765D01*
X0252383Y0220963D01*
X0252099Y0221154D01*
X0251810Y0221339D01*
X0251517Y0221516D01*
X0251220Y0221686D01*
X0250919Y0221849D01*
X0250613Y0222004D01*
X0250305Y0222152D01*
X0249992Y0222293D01*
X0249677Y0222426D01*
X0249358Y0222551D01*
X0249036Y0222669D01*
X0248712Y0222778D01*
X0248385Y0222880D01*
X0248055Y0222974D01*
X0247724Y0223060D01*
X0247390Y0223138D01*
X0247055Y0223208D01*
X0246718Y0223270D01*
X0246380Y0223323D01*
X0246040Y0223369D01*
X0245700Y0223406D01*
X0245359Y0223435D01*
X0245017Y0223455D01*
X0244674Y0223468D01*
X0244332Y0223472D01*
X0016773Y0223472D01*
X0016431Y0223468D01*
X0016088Y0223455D01*
X0015746Y0223435D01*
X0015405Y0223406D01*
X0015065Y0223369D01*
X0014725Y0223323D01*
X0014387Y0223270D01*
X0014050Y0223208D01*
X0013715Y0223138D01*
X0013381Y0223060D01*
X0013050Y0222974D01*
X0012720Y0222880D01*
X0012393Y0222778D01*
X0012069Y0222669D01*
X0011747Y0222551D01*
X0011428Y0222426D01*
X0011113Y0222293D01*
X0010800Y0222152D01*
X0010492Y0222004D01*
X0010186Y0221849D01*
X0009885Y0221686D01*
X0009588Y0221516D01*
X0009295Y0221339D01*
X0009006Y0221154D01*
X0008722Y0220963D01*
X0008442Y0220765D01*
X0008168Y0220561D01*
X0007898Y0220349D01*
X0007634Y0220132D01*
X0007375Y0219908D01*
X0007121Y0219677D01*
X0006873Y0219441D01*
X0006631Y0219199D01*
X0006395Y0218951D01*
X0006164Y0218697D01*
X0005940Y0218438D01*
X0005723Y0218174D01*
X0005511Y0217904D01*
X0005307Y0217630D01*
X0005109Y0217350D01*
X0004918Y0217066D01*
X0004733Y0216777D01*
X0004556Y0216484D01*
X0004386Y0216187D01*
X0004223Y0215886D01*
X0004068Y0215580D01*
X0003920Y0215272D01*
X0003779Y0214959D01*
X0003646Y0214644D01*
X0003521Y0214325D01*
X0003403Y0214003D01*
X0003294Y0213679D01*
X0003192Y0213352D01*
X0003098Y0213022D01*
X0003012Y0212691D01*
X0002934Y0212357D01*
X0002864Y0212022D01*
X0002802Y0211685D01*
X0002749Y0211347D01*
X0002703Y0211007D01*
X0002666Y0210667D01*
X0002637Y0210326D01*
X0002617Y0209984D01*
X0002604Y0209641D01*
X0002600Y0209299D01*
X0002600Y0017173D01*
X0002604Y0016831D01*
X0002617Y0016488D01*
X0002637Y0016146D01*
X0002666Y0015805D01*
X0002703Y0015465D01*
X0002749Y0015125D01*
X0002802Y0014787D01*
X0002864Y0014450D01*
X0002934Y0014115D01*
X0003012Y0013781D01*
X0003098Y0013450D01*
X0003192Y0013120D01*
X0003294Y0012793D01*
X0003403Y0012469D01*
X0003521Y0012147D01*
X0003646Y0011828D01*
X0003779Y0011513D01*
X0003920Y0011200D01*
X0004068Y0010892D01*
X0004223Y0010586D01*
X0004386Y0010285D01*
X0004556Y0009988D01*
X0004733Y0009695D01*
X0004918Y0009406D01*
X0005109Y0009122D01*
X0005307Y0008842D01*
X0005511Y0008568D01*
X0005723Y0008298D01*
X0005940Y0008034D01*
X0006164Y0007775D01*
X0006395Y0007521D01*
X0006631Y0007273D01*
X0006873Y0007031D01*
X0007121Y0006795D01*
X0007375Y0006564D01*
X0007634Y0006340D01*
X0007898Y0006123D01*
X0008168Y0005911D01*
X0008442Y0005707D01*
X0008722Y0005509D01*
X0009006Y0005318D01*
X0009295Y0005133D01*
X0009588Y0004956D01*
X0009885Y0004786D01*
X0010186Y0004623D01*
X0010492Y0004468D01*
X0010800Y0004320D01*
X0011113Y0004179D01*
X0011428Y0004046D01*
X0011747Y0003921D01*
X0012069Y0003803D01*
X0012393Y0003694D01*
X0012720Y0003592D01*
X0013050Y0003498D01*
X0013381Y0003412D01*
X0013715Y0003334D01*
X0014050Y0003264D01*
X0014387Y0003202D01*
X0014725Y0003149D01*
X0015065Y0003103D01*
X0015405Y0003066D01*
X0015746Y0003037D01*
X0016088Y0003017D01*
X0016431Y0003004D01*
X0016773Y0003000D01*
X0088033Y0066031D02*
X0088033Y0088433D01*
X0088035Y0088499D01*
X0088040Y0088565D01*
X0088050Y0088631D01*
X0088063Y0088696D01*
X0088079Y0088760D01*
X0088099Y0088823D01*
X0088123Y0088885D01*
X0088150Y0088945D01*
X0088180Y0089004D01*
X0088214Y0089061D01*
X0088251Y0089116D01*
X0088291Y0089169D01*
X0088333Y0089220D01*
X0088379Y0089268D01*
X0088427Y0089314D01*
X0088478Y0089356D01*
X0088531Y0089396D01*
X0088586Y0089433D01*
X0088643Y0089467D01*
X0088702Y0089497D01*
X0088762Y0089524D01*
X0088824Y0089548D01*
X0088887Y0089568D01*
X0088951Y0089584D01*
X0089016Y0089597D01*
X0089082Y0089607D01*
X0089148Y0089612D01*
X0089214Y0089614D01*
X0145513Y0089614D01*
X0145579Y0089612D01*
X0145645Y0089607D01*
X0145711Y0089597D01*
X0145776Y0089584D01*
X0145840Y0089568D01*
X0145903Y0089548D01*
X0145965Y0089524D01*
X0146025Y0089497D01*
X0146084Y0089467D01*
X0146141Y0089433D01*
X0146196Y0089396D01*
X0146249Y0089356D01*
X0146300Y0089314D01*
X0146348Y0089268D01*
X0146394Y0089220D01*
X0146436Y0089169D01*
X0146476Y0089116D01*
X0146513Y0089061D01*
X0146547Y0089004D01*
X0146577Y0088945D01*
X0146604Y0088885D01*
X0146628Y0088823D01*
X0146648Y0088760D01*
X0146664Y0088696D01*
X0146677Y0088631D01*
X0146687Y0088565D01*
X0146692Y0088499D01*
X0146694Y0088433D01*
X0146694Y0065992D01*
X0146692Y0065926D01*
X0146687Y0065860D01*
X0146677Y0065794D01*
X0146664Y0065729D01*
X0146648Y0065665D01*
X0146628Y0065602D01*
X0146604Y0065540D01*
X0146577Y0065480D01*
X0146547Y0065421D01*
X0146513Y0065364D01*
X0146476Y0065309D01*
X0146436Y0065256D01*
X0146394Y0065205D01*
X0146348Y0065157D01*
X0146300Y0065111D01*
X0146249Y0065069D01*
X0146196Y0065029D01*
X0146141Y0064992D01*
X0146084Y0064958D01*
X0146025Y0064928D01*
X0145965Y0064901D01*
X0145903Y0064877D01*
X0145840Y0064857D01*
X0145776Y0064841D01*
X0145711Y0064828D01*
X0145645Y0064818D01*
X0145579Y0064813D01*
X0145513Y0064811D01*
X0089214Y0064811D01*
X0089148Y0064813D01*
X0089082Y0064818D01*
X0089016Y0064828D01*
X0088951Y0064841D01*
X0088887Y0064857D01*
X0088824Y0064877D01*
X0088762Y0064901D01*
X0088702Y0064928D01*
X0088643Y0064958D01*
X0088586Y0064992D01*
X0088531Y0065029D01*
X0088478Y0065069D01*
X0088427Y0065111D01*
X0088379Y0065157D01*
X0088333Y0065205D01*
X0088291Y0065256D01*
X0088251Y0065309D01*
X0088214Y0065364D01*
X0088180Y0065421D01*
X0088150Y0065480D01*
X0088123Y0065540D01*
X0088099Y0065602D01*
X0088079Y0065665D01*
X0088063Y0065729D01*
X0088050Y0065794D01*
X0088040Y0065860D01*
X0088035Y0065926D01*
X0088033Y0065992D01*
X0114411Y0097094D02*
X0146694Y0097094D01*
X0146694Y0129378D01*
X0114411Y0129378D01*
X0114411Y0097094D01*
X0088033Y0115205D02*
X0088035Y0115274D01*
X0088041Y0115342D01*
X0088051Y0115410D01*
X0088065Y0115477D01*
X0088083Y0115544D01*
X0088104Y0115609D01*
X0088130Y0115673D01*
X0088159Y0115735D01*
X0088191Y0115795D01*
X0088227Y0115854D01*
X0088267Y0115910D01*
X0088309Y0115964D01*
X0088355Y0116015D01*
X0088404Y0116064D01*
X0088455Y0116110D01*
X0088509Y0116152D01*
X0088565Y0116192D01*
X0088623Y0116228D01*
X0088684Y0116260D01*
X0088746Y0116289D01*
X0088810Y0116315D01*
X0088875Y0116336D01*
X0088942Y0116354D01*
X0089009Y0116368D01*
X0089077Y0116378D01*
X0089145Y0116384D01*
X0089214Y0116386D01*
X0089283Y0116384D01*
X0089351Y0116378D01*
X0089419Y0116368D01*
X0089486Y0116354D01*
X0089553Y0116336D01*
X0089618Y0116315D01*
X0089682Y0116289D01*
X0089744Y0116260D01*
X0089804Y0116228D01*
X0089863Y0116192D01*
X0089919Y0116152D01*
X0089973Y0116110D01*
X0090024Y0116064D01*
X0090073Y0116015D01*
X0090119Y0115964D01*
X0090161Y0115910D01*
X0090201Y0115854D01*
X0090237Y0115795D01*
X0090269Y0115735D01*
X0090298Y0115673D01*
X0090324Y0115609D01*
X0090345Y0115544D01*
X0090363Y0115477D01*
X0090377Y0115410D01*
X0090387Y0115342D01*
X0090393Y0115274D01*
X0090395Y0115205D01*
X0090393Y0115136D01*
X0090387Y0115068D01*
X0090377Y0115000D01*
X0090363Y0114933D01*
X0090345Y0114866D01*
X0090324Y0114801D01*
X0090298Y0114737D01*
X0090269Y0114675D01*
X0090237Y0114614D01*
X0090201Y0114556D01*
X0090161Y0114500D01*
X0090119Y0114446D01*
X0090073Y0114395D01*
X0090024Y0114346D01*
X0089973Y0114300D01*
X0089919Y0114258D01*
X0089863Y0114218D01*
X0089805Y0114182D01*
X0089744Y0114150D01*
X0089682Y0114121D01*
X0089618Y0114095D01*
X0089553Y0114074D01*
X0089486Y0114056D01*
X0089419Y0114042D01*
X0089351Y0114032D01*
X0089283Y0114026D01*
X0089214Y0114024D01*
X0089145Y0114026D01*
X0089077Y0114032D01*
X0089009Y0114042D01*
X0088942Y0114056D01*
X0088875Y0114074D01*
X0088810Y0114095D01*
X0088746Y0114121D01*
X0088684Y0114150D01*
X0088623Y0114182D01*
X0088565Y0114218D01*
X0088509Y0114258D01*
X0088455Y0114300D01*
X0088404Y0114346D01*
X0088355Y0114395D01*
X0088309Y0114446D01*
X0088267Y0114500D01*
X0088227Y0114556D01*
X0088191Y0114614D01*
X0088159Y0114675D01*
X0088130Y0114737D01*
X0088104Y0114801D01*
X0088083Y0114866D01*
X0088065Y0114933D01*
X0088051Y0115000D01*
X0088041Y0115068D01*
X0088035Y0115136D01*
X0088033Y0115205D01*
X0170710Y0115205D02*
X0170712Y0115274D01*
X0170718Y0115342D01*
X0170728Y0115410D01*
X0170742Y0115477D01*
X0170760Y0115544D01*
X0170781Y0115609D01*
X0170807Y0115673D01*
X0170836Y0115735D01*
X0170868Y0115795D01*
X0170904Y0115854D01*
X0170944Y0115910D01*
X0170986Y0115964D01*
X0171032Y0116015D01*
X0171081Y0116064D01*
X0171132Y0116110D01*
X0171186Y0116152D01*
X0171242Y0116192D01*
X0171300Y0116228D01*
X0171361Y0116260D01*
X0171423Y0116289D01*
X0171487Y0116315D01*
X0171552Y0116336D01*
X0171619Y0116354D01*
X0171686Y0116368D01*
X0171754Y0116378D01*
X0171822Y0116384D01*
X0171891Y0116386D01*
X0171960Y0116384D01*
X0172028Y0116378D01*
X0172096Y0116368D01*
X0172163Y0116354D01*
X0172230Y0116336D01*
X0172295Y0116315D01*
X0172359Y0116289D01*
X0172421Y0116260D01*
X0172481Y0116228D01*
X0172540Y0116192D01*
X0172596Y0116152D01*
X0172650Y0116110D01*
X0172701Y0116064D01*
X0172750Y0116015D01*
X0172796Y0115964D01*
X0172838Y0115910D01*
X0172878Y0115854D01*
X0172914Y0115795D01*
X0172946Y0115735D01*
X0172975Y0115673D01*
X0173001Y0115609D01*
X0173022Y0115544D01*
X0173040Y0115477D01*
X0173054Y0115410D01*
X0173064Y0115342D01*
X0173070Y0115274D01*
X0173072Y0115205D01*
X0173070Y0115136D01*
X0173064Y0115068D01*
X0173054Y0115000D01*
X0173040Y0114933D01*
X0173022Y0114866D01*
X0173001Y0114801D01*
X0172975Y0114737D01*
X0172946Y0114675D01*
X0172914Y0114614D01*
X0172878Y0114556D01*
X0172838Y0114500D01*
X0172796Y0114446D01*
X0172750Y0114395D01*
X0172701Y0114346D01*
X0172650Y0114300D01*
X0172596Y0114258D01*
X0172540Y0114218D01*
X0172482Y0114182D01*
X0172421Y0114150D01*
X0172359Y0114121D01*
X0172295Y0114095D01*
X0172230Y0114074D01*
X0172163Y0114056D01*
X0172096Y0114042D01*
X0172028Y0114032D01*
X0171960Y0114026D01*
X0171891Y0114024D01*
X0171822Y0114026D01*
X0171754Y0114032D01*
X0171686Y0114042D01*
X0171619Y0114056D01*
X0171552Y0114074D01*
X0171487Y0114095D01*
X0171423Y0114121D01*
X0171361Y0114150D01*
X0171300Y0114182D01*
X0171242Y0114218D01*
X0171186Y0114258D01*
X0171132Y0114300D01*
X0171081Y0114346D01*
X0171032Y0114395D01*
X0170986Y0114446D01*
X0170944Y0114500D01*
X0170904Y0114556D01*
X0170868Y0114614D01*
X0170836Y0114675D01*
X0170807Y0114737D01*
X0170781Y0114801D01*
X0170760Y0114866D01*
X0170742Y0114933D01*
X0170728Y0115000D01*
X0170718Y0115068D01*
X0170712Y0115136D01*
X0170710Y0115205D01*
X0170710Y0065992D02*
X0170712Y0066061D01*
X0170718Y0066129D01*
X0170728Y0066197D01*
X0170742Y0066264D01*
X0170760Y0066331D01*
X0170781Y0066396D01*
X0170807Y0066460D01*
X0170836Y0066522D01*
X0170868Y0066582D01*
X0170904Y0066641D01*
X0170944Y0066697D01*
X0170986Y0066751D01*
X0171032Y0066802D01*
X0171081Y0066851D01*
X0171132Y0066897D01*
X0171186Y0066939D01*
X0171242Y0066979D01*
X0171300Y0067015D01*
X0171361Y0067047D01*
X0171423Y0067076D01*
X0171487Y0067102D01*
X0171552Y0067123D01*
X0171619Y0067141D01*
X0171686Y0067155D01*
X0171754Y0067165D01*
X0171822Y0067171D01*
X0171891Y0067173D01*
X0171960Y0067171D01*
X0172028Y0067165D01*
X0172096Y0067155D01*
X0172163Y0067141D01*
X0172230Y0067123D01*
X0172295Y0067102D01*
X0172359Y0067076D01*
X0172421Y0067047D01*
X0172481Y0067015D01*
X0172540Y0066979D01*
X0172596Y0066939D01*
X0172650Y0066897D01*
X0172701Y0066851D01*
X0172750Y0066802D01*
X0172796Y0066751D01*
X0172838Y0066697D01*
X0172878Y0066641D01*
X0172914Y0066582D01*
X0172946Y0066522D01*
X0172975Y0066460D01*
X0173001Y0066396D01*
X0173022Y0066331D01*
X0173040Y0066264D01*
X0173054Y0066197D01*
X0173064Y0066129D01*
X0173070Y0066061D01*
X0173072Y0065992D01*
X0173070Y0065923D01*
X0173064Y0065855D01*
X0173054Y0065787D01*
X0173040Y0065720D01*
X0173022Y0065653D01*
X0173001Y0065588D01*
X0172975Y0065524D01*
X0172946Y0065462D01*
X0172914Y0065401D01*
X0172878Y0065343D01*
X0172838Y0065287D01*
X0172796Y0065233D01*
X0172750Y0065182D01*
X0172701Y0065133D01*
X0172650Y0065087D01*
X0172596Y0065045D01*
X0172540Y0065005D01*
X0172482Y0064969D01*
X0172421Y0064937D01*
X0172359Y0064908D01*
X0172295Y0064882D01*
X0172230Y0064861D01*
X0172163Y0064843D01*
X0172096Y0064829D01*
X0172028Y0064819D01*
X0171960Y0064813D01*
X0171891Y0064811D01*
X0171822Y0064813D01*
X0171754Y0064819D01*
X0171686Y0064829D01*
X0171619Y0064843D01*
X0171552Y0064861D01*
X0171487Y0064882D01*
X0171423Y0064908D01*
X0171361Y0064937D01*
X0171300Y0064969D01*
X0171242Y0065005D01*
X0171186Y0065045D01*
X0171132Y0065087D01*
X0171081Y0065133D01*
X0171032Y0065182D01*
X0170986Y0065233D01*
X0170944Y0065287D01*
X0170904Y0065343D01*
X0170868Y0065401D01*
X0170836Y0065462D01*
X0170807Y0065524D01*
X0170781Y0065588D01*
X0170760Y0065653D01*
X0170742Y0065720D01*
X0170728Y0065787D01*
X0170718Y0065855D01*
X0170712Y0065923D01*
X0170710Y0065992D01*
D11*
X0198269Y0058000D03*
X0206931Y0054260D03*
X0206931Y0061740D03*
D12*
X0200376Y0074161D03*
X0200376Y0076720D03*
X0200376Y0079280D03*
X0200376Y0081839D03*
X0184824Y0081839D03*
X0184824Y0079280D03*
X0184824Y0076720D03*
X0184824Y0074161D03*
D13*
X0192600Y0078000D03*
D14*
X0201025Y0110677D03*
X0201025Y0115795D03*
X0182128Y0115795D03*
X0182128Y0110677D03*
X0078978Y0110677D03*
X0078978Y0115795D03*
X0060080Y0115795D03*
X0060080Y0110677D03*
D15*
X0069529Y0113236D03*
X0191576Y0113236D03*
D16*
X0186576Y0113263D02*
X0196576Y0113263D01*
X0196576Y0112065D02*
X0186576Y0112065D01*
X0186576Y0110866D02*
X0196576Y0110866D01*
X0196576Y0109668D02*
X0186576Y0109668D01*
X0186576Y0108469D02*
X0196576Y0108469D01*
X0196576Y0107270D02*
X0186576Y0107270D01*
X0186576Y0106072D02*
X0196576Y0106072D01*
X0196576Y0104873D02*
X0186576Y0104873D01*
X0186576Y0103675D02*
X0196576Y0103675D01*
X0196576Y0102476D02*
X0186576Y0102476D01*
X0186576Y0101278D02*
X0196576Y0101278D01*
X0196576Y0100736D02*
X0186576Y0100736D01*
X0186576Y0125736D01*
X0196576Y0125736D01*
X0196576Y0100736D01*
X0196576Y0114462D02*
X0186576Y0114462D01*
X0186576Y0115660D02*
X0196576Y0115660D01*
X0196576Y0116859D02*
X0186576Y0116859D01*
X0186576Y0118057D02*
X0196576Y0118057D01*
X0196576Y0119256D02*
X0186576Y0119256D01*
X0186576Y0120454D02*
X0196576Y0120454D01*
X0196576Y0121653D02*
X0186576Y0121653D01*
X0186576Y0122851D02*
X0196576Y0122851D01*
X0196576Y0124050D02*
X0186576Y0124050D01*
X0186576Y0125248D02*
X0196576Y0125248D01*
X0074529Y0125248D02*
X0064529Y0125248D01*
X0064529Y0125736D02*
X0074529Y0125736D01*
X0074529Y0100736D01*
X0064529Y0100736D01*
X0064529Y0125736D01*
X0064529Y0124050D02*
X0074529Y0124050D01*
X0074529Y0122851D02*
X0064529Y0122851D01*
X0064529Y0121653D02*
X0074529Y0121653D01*
X0074529Y0120454D02*
X0064529Y0120454D01*
X0064529Y0119256D02*
X0074529Y0119256D01*
X0074529Y0118057D02*
X0064529Y0118057D01*
X0064529Y0116859D02*
X0074529Y0116859D01*
X0074529Y0115660D02*
X0064529Y0115660D01*
X0064529Y0114462D02*
X0074529Y0114462D01*
X0074529Y0113263D02*
X0064529Y0113263D01*
X0064529Y0112065D02*
X0074529Y0112065D01*
X0074529Y0110866D02*
X0064529Y0110866D01*
X0064529Y0109668D02*
X0074529Y0109668D01*
X0074529Y0108469D02*
X0064529Y0108469D01*
X0064529Y0107270D02*
X0074529Y0107270D01*
X0074529Y0106072D02*
X0064529Y0106072D01*
X0064529Y0104873D02*
X0074529Y0104873D01*
X0074529Y0103675D02*
X0064529Y0103675D01*
X0064529Y0102476D02*
X0074529Y0102476D01*
X0074529Y0101278D02*
X0064529Y0101278D01*
D17*
X0183486Y0092941D03*
X0183486Y0087823D03*
X0187600Y0060559D03*
X0187600Y0055441D03*
D18*
X0215041Y0053000D03*
X0220159Y0053000D03*
X0220159Y0043000D03*
X0215041Y0043000D03*
D19*
X0171891Y0039102D02*
X0171891Y0026110D01*
X0089214Y0026110D02*
X0089214Y0039102D01*
X0089214Y0187370D02*
X0089214Y0200362D01*
X0171891Y0200362D02*
X0171891Y0187370D01*
D20*
X0162049Y0198551D02*
X0162049Y0209181D01*
X0099057Y0209181D02*
X0099057Y0198551D01*
X0099057Y0027921D02*
X0099057Y0017291D01*
X0162049Y0017291D02*
X0162049Y0027921D01*
D21*
X0065395Y0033000D03*
X0039805Y0033000D03*
X0194805Y0193000D03*
X0220395Y0193000D03*
D22*
X0244332Y0209299D03*
X0244332Y0017173D03*
X0016773Y0017173D03*
X0016773Y0209299D03*
D23*
X0190100Y0021000D02*
X0190100Y0015000D01*
X0200100Y0015000D02*
X0200100Y0021000D01*
X0210100Y0021000D02*
X0210100Y0015000D01*
X0220100Y0015000D02*
X0220100Y0021000D01*
D24*
X0067600Y0208000D03*
X0047915Y0208000D03*
D25*
X0060080Y0115795D02*
X0060080Y0110677D01*
X0078978Y0110677D02*
X0078978Y0115795D01*
X0182128Y0115795D02*
X0182128Y0110677D01*
D26*
X0182876Y0113236D01*
X0191576Y0113236D01*
X0201025Y0110677D02*
X0201025Y0082488D01*
X0200376Y0081839D01*
X0184824Y0081839D02*
X0183486Y0083177D01*
X0183486Y0087823D01*
X0180809Y0088000D01*
X0170100Y0088000D01*
X0160100Y0098000D01*
X0160100Y0130500D01*
X0150100Y0140500D01*
X0112600Y0140500D01*
X0100100Y0128000D01*
X0100100Y0105500D01*
X0090100Y0095500D01*
X0065100Y0095500D01*
X0060080Y0100520D01*
X0060080Y0110677D01*
X0062639Y0113236D02*
X0069529Y0113236D01*
X0074450Y0113236D01*
X0078978Y0115795D02*
X0078978Y0129378D01*
X0102600Y0153000D01*
X0157600Y0153000D01*
X0182128Y0128472D01*
X0182128Y0115795D01*
X0201025Y0115795D02*
X0201025Y0110677D01*
X0184824Y0074161D02*
X0184824Y0062783D01*
X0187600Y0060559D01*
X0187600Y0055441D02*
X0195710Y0055441D01*
X0198269Y0058000D01*
X0206931Y0054260D02*
X0213781Y0054260D01*
X0215041Y0053000D01*
X0215041Y0043000D01*
X0220100Y0042941D02*
X0220159Y0043000D01*
X0220100Y0042941D02*
X0220100Y0018000D01*
X0062639Y0113236D02*
X0060080Y0115795D01*
X0060100Y0115795D01*
X0060100Y0115500D01*
X0060100Y0115795D02*
X0060100Y0120500D01*
X0055100Y0125500D01*
D27*
X0059525Y0127742D02*
X0061274Y0127742D01*
X0061329Y0127874D02*
X0060754Y0126487D01*
X0060754Y0125467D01*
X0060046Y0126175D01*
X0060046Y0126484D01*
X0059293Y0128302D01*
X0057902Y0129693D01*
X0056084Y0130446D01*
X0054116Y0130446D01*
X0052298Y0129693D01*
X0050907Y0128302D01*
X0050154Y0126484D01*
X0050154Y0124516D01*
X0050907Y0122698D01*
X0052298Y0121307D01*
X0054116Y0120554D01*
X0054425Y0120554D01*
X0055320Y0119659D01*
X0055223Y0119562D01*
X0054740Y0118395D01*
X0054740Y0108077D01*
X0055223Y0106910D01*
X0056106Y0106028D01*
X0056106Y0099729D01*
X0056711Y0098268D01*
X0057829Y0097150D01*
X0062848Y0092130D01*
X0064309Y0091525D01*
X0087008Y0091525D01*
X0086446Y0091201D01*
X0085433Y0089446D01*
X0085433Y0064979D01*
X0086446Y0063224D01*
X0086446Y0063224D01*
X0086446Y0063224D01*
X0088201Y0062211D01*
X0146527Y0062211D01*
X0148281Y0063224D01*
X0148281Y0063224D01*
X0148281Y0063224D01*
X0149294Y0064979D01*
X0149294Y0089446D01*
X0148281Y0091201D01*
X0146527Y0092214D01*
X0092435Y0092214D01*
X0093470Y0093248D01*
X0103470Y0103248D01*
X0104075Y0104709D01*
X0104075Y0126354D01*
X0114246Y0136525D01*
X0148454Y0136525D01*
X0156125Y0128854D01*
X0156125Y0097209D01*
X0156730Y0095748D01*
X0157848Y0094630D01*
X0167848Y0084630D01*
X0169309Y0084025D01*
X0179269Y0084025D01*
X0178992Y0083356D01*
X0178992Y0080321D01*
X0179475Y0079154D01*
X0179767Y0078863D01*
X0179767Y0072798D01*
X0180132Y0071916D01*
X0180807Y0071241D01*
X0181624Y0070903D01*
X0181624Y0063239D01*
X0181574Y0063066D01*
X0181624Y0062608D01*
X0181624Y0062147D01*
X0181694Y0061980D01*
X0181713Y0061800D01*
X0181935Y0061396D01*
X0182112Y0060971D01*
X0182239Y0060843D01*
X0182327Y0060684D01*
X0182686Y0060396D01*
X0183012Y0060071D01*
X0183179Y0060001D01*
X0183428Y0059801D01*
X0183428Y0058704D01*
X0183720Y0058000D01*
X0183428Y0057296D01*
X0183428Y0053586D01*
X0183794Y0052703D01*
X0184469Y0052028D01*
X0185351Y0051663D01*
X0189849Y0051663D01*
X0190731Y0052028D01*
X0190944Y0052241D01*
X0196347Y0052241D01*
X0197523Y0052728D01*
X0198426Y0053631D01*
X0201503Y0053631D01*
X0201775Y0053744D01*
X0201775Y0051814D01*
X0202140Y0050932D01*
X0202815Y0050257D01*
X0203697Y0049891D01*
X0210164Y0049891D01*
X0211046Y0050257D01*
X0211344Y0050555D01*
X0211628Y0049869D01*
X0211841Y0049656D01*
X0211841Y0046344D01*
X0211628Y0046131D01*
X0211263Y0045249D01*
X0211263Y0040751D01*
X0211628Y0039869D01*
X0212303Y0039194D01*
X0213186Y0038828D01*
X0216896Y0038828D01*
X0216900Y0038830D01*
X0216900Y0025437D01*
X0215522Y0024059D01*
X0215100Y0023040D01*
X0214678Y0024059D01*
X0213159Y0025578D01*
X0211174Y0026400D01*
X0209026Y0026400D01*
X0207041Y0025578D01*
X0205522Y0024059D01*
X0205100Y0023040D01*
X0204678Y0024059D01*
X0203159Y0025578D01*
X0201174Y0026400D01*
X0199026Y0026400D01*
X0197041Y0025578D01*
X0195522Y0024059D01*
X0195100Y0023040D01*
X0194678Y0024059D01*
X0193159Y0025578D01*
X0191174Y0026400D01*
X0189026Y0026400D01*
X0187041Y0025578D01*
X0185522Y0024059D01*
X0184700Y0022074D01*
X0184700Y0013926D01*
X0185522Y0011941D01*
X0187041Y0010422D01*
X0189026Y0009600D01*
X0191174Y0009600D01*
X0193159Y0010422D01*
X0194678Y0011941D01*
X0195100Y0012960D01*
X0195522Y0011941D01*
X0197041Y0010422D01*
X0199026Y0009600D01*
X0201174Y0009600D01*
X0203159Y0010422D01*
X0204678Y0011941D01*
X0205100Y0012960D01*
X0205522Y0011941D01*
X0207041Y0010422D01*
X0209026Y0009600D01*
X0211174Y0009600D01*
X0213159Y0010422D01*
X0214678Y0011941D01*
X0215100Y0012960D01*
X0215522Y0011941D01*
X0217041Y0010422D01*
X0219026Y0009600D01*
X0221174Y0009600D01*
X0223159Y0010422D01*
X0224678Y0011941D01*
X0225500Y0013926D01*
X0225500Y0022074D01*
X0224678Y0024059D01*
X0223300Y0025437D01*
X0223300Y0039597D01*
X0223572Y0039869D01*
X0223937Y0040751D01*
X0223937Y0045249D01*
X0223572Y0046131D01*
X0222896Y0046806D01*
X0222014Y0047172D01*
X0218304Y0047172D01*
X0218241Y0047146D01*
X0218241Y0048685D01*
X0218525Y0048628D01*
X0220159Y0048628D01*
X0220159Y0053000D01*
X0220159Y0057372D01*
X0218525Y0057372D01*
X0218023Y0057272D01*
X0217550Y0057076D01*
X0217388Y0056968D01*
X0216896Y0057172D01*
X0215113Y0057172D01*
X0214418Y0057460D01*
X0211774Y0057460D01*
X0211721Y0057588D01*
X0211450Y0057859D01*
X0211706Y0058114D01*
X0211991Y0058540D01*
X0212187Y0059013D01*
X0212287Y0059516D01*
X0212287Y0061740D01*
X0206931Y0061740D01*
X0206931Y0061740D01*
X0212287Y0061740D01*
X0212287Y0063965D01*
X0212187Y0064467D01*
X0211991Y0064940D01*
X0211706Y0065366D01*
X0211344Y0065728D01*
X0210918Y0066013D01*
X0210445Y0066209D01*
X0209943Y0066309D01*
X0206931Y0066309D01*
X0206931Y0061740D01*
X0206931Y0061740D01*
X0206931Y0066309D01*
X0203919Y0066309D01*
X0203416Y0066209D01*
X0202943Y0066013D01*
X0202517Y0065728D01*
X0202155Y0065366D01*
X0201871Y0064940D01*
X0201675Y0064467D01*
X0201575Y0063965D01*
X0201575Y0062339D01*
X0201503Y0062368D01*
X0195036Y0062368D01*
X0194154Y0062003D01*
X0193479Y0061328D01*
X0193113Y0060446D01*
X0193113Y0058641D01*
X0191746Y0058641D01*
X0191772Y0058704D01*
X0191772Y0062414D01*
X0191406Y0063296D01*
X0190731Y0063972D01*
X0189849Y0064337D01*
X0188024Y0064337D01*
X0188024Y0070903D01*
X0188841Y0071241D01*
X0189063Y0071463D01*
X0192527Y0071463D01*
X0192527Y0077927D01*
X0192673Y0077927D01*
X0192673Y0071463D01*
X0195854Y0071463D01*
X0196061Y0071256D01*
X0196487Y0070971D01*
X0196960Y0070776D01*
X0197462Y0070676D01*
X0200376Y0070676D01*
X0203289Y0070676D01*
X0203791Y0070776D01*
X0204265Y0070971D01*
X0204690Y0071256D01*
X0205053Y0071618D01*
X0205337Y0072044D01*
X0205533Y0072517D01*
X0205633Y0073020D01*
X0205633Y0074161D01*
X0204754Y0074161D01*
X0204754Y0074161D01*
X0205633Y0074161D01*
X0205633Y0075303D01*
X0205533Y0075806D01*
X0205433Y0076047D01*
X0205433Y0083202D01*
X0205068Y0084084D01*
X0204393Y0084759D01*
X0204225Y0084828D01*
X0204225Y0106539D01*
X0204550Y0106674D01*
X0205225Y0107349D01*
X0205591Y0108231D01*
X0205591Y0113123D01*
X0205544Y0113236D01*
X0205591Y0113349D01*
X0205591Y0118241D01*
X0205225Y0119123D01*
X0204550Y0119798D01*
X0203668Y0120164D01*
X0200351Y0120164D01*
X0200351Y0126487D01*
X0199776Y0127874D01*
X0198715Y0128936D01*
X0197327Y0129511D01*
X0186000Y0129511D01*
X0185497Y0130724D01*
X0184379Y0131842D01*
X0159852Y0156370D01*
X0158391Y0156975D01*
X0101809Y0156975D01*
X0100348Y0156370D01*
X0099230Y0155252D01*
X0075608Y0131629D01*
X0075003Y0130169D01*
X0075003Y0129511D01*
X0063778Y0129511D01*
X0062391Y0128936D01*
X0061329Y0127874D01*
X0052260Y0121345D02*
X0005200Y0121345D01*
X0005200Y0118146D02*
X0054740Y0118146D01*
X0054740Y0114948D02*
X0005200Y0114948D01*
X0005200Y0111749D02*
X0054740Y0111749D01*
X0054740Y0108551D02*
X0005200Y0108551D01*
X0005200Y0105352D02*
X0056106Y0105352D01*
X0056106Y0102154D02*
X0005200Y0102154D01*
X0005200Y0098955D02*
X0056426Y0098955D01*
X0059222Y0095757D02*
X0005200Y0095757D01*
X0005200Y0092558D02*
X0062420Y0092558D01*
X0078092Y0099475D02*
X0078304Y0099985D01*
X0078304Y0105534D01*
X0081775Y0105534D01*
X0082942Y0106017D01*
X0083835Y0106910D01*
X0084318Y0108077D01*
X0084318Y0118395D01*
X0083835Y0119562D01*
X0082953Y0120444D01*
X0082953Y0127732D01*
X0104246Y0149025D01*
X0155954Y0149025D01*
X0178153Y0126826D01*
X0178153Y0120444D01*
X0177271Y0119562D01*
X0176787Y0118395D01*
X0176787Y0108077D01*
X0177271Y0106910D01*
X0178164Y0106017D01*
X0179331Y0105534D01*
X0182802Y0105534D01*
X0182802Y0099985D01*
X0183376Y0098598D01*
X0184438Y0097536D01*
X0185826Y0096961D01*
X0197327Y0096961D01*
X0197825Y0097168D01*
X0197825Y0085124D01*
X0197241Y0085124D01*
X0196359Y0084759D01*
X0196137Y0084537D01*
X0192673Y0084537D01*
X0192673Y0078073D01*
X0192527Y0078073D01*
X0192527Y0084537D01*
X0190159Y0084537D01*
X0189280Y0085416D01*
X0188416Y0085774D01*
X0188432Y0085813D01*
X0188432Y0089832D01*
X0187949Y0090999D01*
X0187822Y0091127D01*
X0187857Y0091307D01*
X0187857Y0092941D01*
X0187857Y0094575D01*
X0187758Y0095077D01*
X0187562Y0095550D01*
X0187277Y0095976D01*
X0186915Y0096338D01*
X0186489Y0096623D01*
X0186016Y0096819D01*
X0185514Y0096919D01*
X0183486Y0096919D01*
X0183486Y0092941D01*
X0187857Y0092941D01*
X0183486Y0092941D01*
X0183486Y0092941D01*
X0183486Y0092941D01*
X0183486Y0096919D01*
X0181458Y0096919D01*
X0180956Y0096819D01*
X0180483Y0096623D01*
X0180057Y0096338D01*
X0179695Y0095976D01*
X0179410Y0095550D01*
X0179214Y0095077D01*
X0179114Y0094575D01*
X0179114Y0092941D01*
X0183486Y0092941D01*
X0183486Y0092941D01*
X0179114Y0092941D01*
X0179114Y0091975D01*
X0171746Y0091975D01*
X0164075Y0099646D01*
X0164075Y0131291D01*
X0163470Y0132752D01*
X0153470Y0142752D01*
X0152352Y0143870D01*
X0150891Y0144475D01*
X0111809Y0144475D01*
X0110348Y0143870D01*
X0097848Y0131370D01*
X0096730Y0130252D01*
X0096125Y0128791D01*
X0096125Y0107146D01*
X0088454Y0099475D01*
X0078092Y0099475D01*
X0078304Y0102154D02*
X0091133Y0102154D01*
X0094331Y0105352D02*
X0078304Y0105352D01*
X0084318Y0108551D02*
X0096125Y0108551D01*
X0096125Y0111749D02*
X0090753Y0111749D01*
X0091356Y0111999D02*
X0092420Y0113063D01*
X0092995Y0114453D01*
X0092995Y0115957D01*
X0092420Y0117347D01*
X0091356Y0118410D01*
X0089966Y0118986D01*
X0088462Y0118986D01*
X0087072Y0118410D01*
X0086009Y0117347D01*
X0085433Y0115957D01*
X0085433Y0114453D01*
X0086009Y0113063D01*
X0087072Y0111999D01*
X0088462Y0111424D01*
X0089966Y0111424D01*
X0091356Y0111999D01*
X0092995Y0114948D02*
X0096125Y0114948D01*
X0096125Y0118146D02*
X0091620Y0118146D01*
X0096125Y0121345D02*
X0082953Y0121345D01*
X0084318Y0118146D02*
X0086809Y0118146D01*
X0085433Y0114948D02*
X0084318Y0114948D01*
X0084318Y0111749D02*
X0087676Y0111749D01*
X0082953Y0124543D02*
X0096125Y0124543D01*
X0096125Y0127742D02*
X0082963Y0127742D01*
X0086162Y0130940D02*
X0097419Y0130940D01*
X0100618Y0134139D02*
X0089360Y0134139D01*
X0092559Y0137337D02*
X0103816Y0137337D01*
X0107015Y0140536D02*
X0095757Y0140536D01*
X0098956Y0143734D02*
X0110213Y0143734D01*
X0102154Y0146933D02*
X0158046Y0146933D01*
X0161244Y0143734D02*
X0152487Y0143734D01*
X0155685Y0140536D02*
X0164443Y0140536D01*
X0167641Y0137337D02*
X0158884Y0137337D01*
X0162082Y0134139D02*
X0170840Y0134139D01*
X0174038Y0130940D02*
X0164075Y0130940D01*
X0164075Y0127742D02*
X0177237Y0127742D01*
X0178153Y0124543D02*
X0164075Y0124543D01*
X0164075Y0121345D02*
X0178153Y0121345D01*
X0176787Y0118146D02*
X0174297Y0118146D01*
X0174033Y0118410D02*
X0172643Y0118986D01*
X0171139Y0118986D01*
X0169750Y0118410D01*
X0168686Y0117347D01*
X0168110Y0115957D01*
X0168110Y0114453D01*
X0168686Y0113063D01*
X0169750Y0111999D01*
X0171139Y0111424D01*
X0172643Y0111424D01*
X0174033Y0111999D01*
X0175097Y0113063D01*
X0175672Y0114453D01*
X0175672Y0115957D01*
X0175097Y0117347D01*
X0174033Y0118410D01*
X0175672Y0114948D02*
X0176787Y0114948D01*
X0176787Y0111749D02*
X0173430Y0111749D01*
X0170353Y0111749D02*
X0164075Y0111749D01*
X0164075Y0108551D02*
X0176787Y0108551D01*
X0182802Y0105352D02*
X0164075Y0105352D01*
X0164075Y0102154D02*
X0182802Y0102154D01*
X0183228Y0098955D02*
X0164766Y0098955D01*
X0167964Y0095757D02*
X0179548Y0095757D01*
X0179114Y0092558D02*
X0171163Y0092558D01*
X0166317Y0086161D02*
X0149294Y0086161D01*
X0149294Y0089360D02*
X0163119Y0089360D01*
X0159920Y0092558D02*
X0092780Y0092558D01*
X0095978Y0095757D02*
X0112151Y0095757D01*
X0112207Y0095622D02*
X0112938Y0094890D01*
X0113894Y0094494D01*
X0147212Y0094494D01*
X0148167Y0094890D01*
X0148899Y0095622D01*
X0149294Y0096577D01*
X0149294Y0129895D01*
X0148899Y0130851D01*
X0148167Y0131582D01*
X0147212Y0131978D01*
X0113894Y0131978D01*
X0112938Y0131582D01*
X0112207Y0130851D01*
X0111811Y0129895D01*
X0111811Y0128861D01*
X0111811Y0097612D01*
X0111811Y0096577D01*
X0112207Y0095622D01*
X0111811Y0098955D02*
X0099177Y0098955D01*
X0102375Y0102154D02*
X0111811Y0102154D01*
X0111811Y0105352D02*
X0104075Y0105352D01*
X0104075Y0108551D02*
X0111811Y0108551D01*
X0111811Y0111749D02*
X0104075Y0111749D01*
X0104075Y0114948D02*
X0111811Y0114948D01*
X0111811Y0118146D02*
X0104075Y0118146D01*
X0104075Y0121345D02*
X0111811Y0121345D01*
X0111811Y0124543D02*
X0104075Y0124543D01*
X0105463Y0127742D02*
X0111811Y0127742D01*
X0112297Y0130940D02*
X0108662Y0130940D01*
X0111860Y0134139D02*
X0150840Y0134139D01*
X0148809Y0130940D02*
X0154038Y0130940D01*
X0156125Y0127742D02*
X0149294Y0127742D01*
X0149294Y0124543D02*
X0156125Y0124543D01*
X0156125Y0121345D02*
X0149294Y0121345D01*
X0149294Y0118146D02*
X0156125Y0118146D01*
X0156125Y0114948D02*
X0149294Y0114948D01*
X0149294Y0111749D02*
X0156125Y0111749D01*
X0156125Y0108551D02*
X0149294Y0108551D01*
X0149294Y0105352D02*
X0156125Y0105352D01*
X0156125Y0102154D02*
X0149294Y0102154D01*
X0149294Y0098955D02*
X0156125Y0098955D01*
X0156727Y0095757D02*
X0148955Y0095757D01*
X0148281Y0091201D02*
X0148281Y0091201D01*
X0148281Y0091201D01*
X0149294Y0082963D02*
X0178992Y0082963D01*
X0179223Y0079764D02*
X0149294Y0079764D01*
X0149294Y0076566D02*
X0179767Y0076566D01*
X0179767Y0073367D02*
X0149294Y0073367D01*
X0149294Y0070169D02*
X0181624Y0070169D01*
X0181624Y0066970D02*
X0175579Y0066970D01*
X0175672Y0066744D02*
X0175097Y0068134D01*
X0174033Y0069198D01*
X0172643Y0069773D01*
X0171139Y0069773D01*
X0169750Y0069198D01*
X0168686Y0068134D01*
X0168110Y0066744D01*
X0168110Y0065240D01*
X0168686Y0063850D01*
X0169750Y0062787D01*
X0171139Y0062211D01*
X0172643Y0062211D01*
X0174033Y0062787D01*
X0175097Y0063850D01*
X0175672Y0065240D01*
X0175672Y0066744D01*
X0175018Y0063772D02*
X0181624Y0063772D01*
X0182465Y0060573D02*
X0005200Y0060573D01*
X0005200Y0057375D02*
X0183461Y0057375D01*
X0183428Y0054176D02*
X0005200Y0054176D01*
X0005200Y0050978D02*
X0202121Y0050978D01*
X0211263Y0044581D02*
X0179153Y0044581D01*
X0179471Y0044167D02*
X0178745Y0045113D01*
X0177902Y0045956D01*
X0176956Y0046682D01*
X0175923Y0047278D01*
X0174821Y0047734D01*
X0173670Y0048043D01*
X0172488Y0048198D01*
X0172457Y0048198D01*
X0172457Y0033172D01*
X0171326Y0033172D01*
X0171326Y0048198D01*
X0171295Y0048198D01*
X0170113Y0048043D01*
X0168961Y0047734D01*
X0167860Y0047278D01*
X0166827Y0046682D01*
X0165881Y0045956D01*
X0165038Y0045113D01*
X0164312Y0044167D01*
X0163716Y0043134D01*
X0163260Y0042032D01*
X0162951Y0040881D01*
X0162795Y0039699D01*
X0162795Y0035806D01*
X0162568Y0035836D01*
X0162049Y0035836D01*
X0162049Y0022606D01*
X0162049Y0009376D01*
X0162568Y0009376D01*
X0163596Y0009512D01*
X0164598Y0009780D01*
X0165557Y0010177D01*
X0166456Y0010696D01*
X0167279Y0011328D01*
X0168012Y0012061D01*
X0168644Y0012885D01*
X0169163Y0013783D01*
X0169560Y0014742D01*
X0169828Y0015744D01*
X0169964Y0016773D01*
X0169964Y0017210D01*
X0170113Y0017170D01*
X0171295Y0017014D01*
X0171326Y0017014D01*
X0171326Y0032041D01*
X0172457Y0032041D01*
X0172457Y0033172D01*
X0180987Y0033172D01*
X0180987Y0039699D01*
X0180832Y0040881D01*
X0180523Y0042032D01*
X0180067Y0043134D01*
X0179471Y0044167D01*
X0180697Y0041382D02*
X0211263Y0041382D01*
X0211841Y0047779D02*
X0174654Y0047779D01*
X0172457Y0047779D02*
X0171326Y0047779D01*
X0169129Y0047779D02*
X0093538Y0047779D01*
X0094692Y0047301D02*
X0091138Y0048773D01*
X0087291Y0048773D01*
X0083736Y0047301D01*
X0081016Y0044580D01*
X0079543Y0041026D01*
X0079543Y0038175D01*
X0075460Y0038175D01*
X0075460Y0038553D01*
X0074977Y0039720D01*
X0074083Y0040613D01*
X0072917Y0041096D01*
X0057874Y0041096D01*
X0056707Y0040613D01*
X0055814Y0039720D01*
X0055331Y0038553D01*
X0055331Y0027447D01*
X0055814Y0026280D01*
X0056707Y0025387D01*
X0057874Y0024904D01*
X0072917Y0024904D01*
X0074083Y0025387D01*
X0074977Y0026280D01*
X0075460Y0027447D01*
X0075460Y0027825D01*
X0079543Y0027825D01*
X0079543Y0024187D01*
X0081016Y0020632D01*
X0083736Y0017912D01*
X0087291Y0016439D01*
X0090567Y0016439D01*
X0090567Y0015603D01*
X0091859Y0012482D01*
X0094248Y0010094D01*
X0097368Y0008802D01*
X0100745Y0008802D01*
X0103866Y0010094D01*
X0106254Y0012482D01*
X0107546Y0015603D01*
X0107546Y0029610D01*
X0106254Y0032730D01*
X0103866Y0035119D01*
X0100745Y0036411D01*
X0098885Y0036411D01*
X0098885Y0041026D01*
X0097413Y0044580D01*
X0094692Y0047301D01*
X0097413Y0044581D02*
X0164630Y0044581D01*
X0163085Y0041382D02*
X0098738Y0041382D01*
X0098885Y0038184D02*
X0162795Y0038184D01*
X0162049Y0035836D02*
X0161530Y0035836D01*
X0160501Y0035701D01*
X0159499Y0035432D01*
X0158541Y0035035D01*
X0157642Y0034516D01*
X0156819Y0033885D01*
X0156085Y0033151D01*
X0155454Y0032328D01*
X0154935Y0031429D01*
X0154538Y0030471D01*
X0154269Y0029469D01*
X0154134Y0028440D01*
X0154134Y0022606D01*
X0154134Y0016773D01*
X0154269Y0015744D01*
X0154538Y0014742D01*
X0154935Y0013783D01*
X0155454Y0012885D01*
X0156085Y0012061D01*
X0156819Y0011328D01*
X0157642Y0010696D01*
X0158541Y0010177D01*
X0159499Y0009780D01*
X0160501Y0009512D01*
X0161530Y0009376D01*
X0162049Y0009376D01*
X0162049Y0022606D01*
X0162049Y0022606D01*
X0154134Y0022606D01*
X0162049Y0022606D01*
X0162049Y0022606D01*
X0162049Y0022606D01*
X0162049Y0035836D01*
X0162049Y0034985D02*
X0162049Y0034985D01*
X0162049Y0031787D02*
X0162049Y0031787D01*
X0162049Y0028588D02*
X0162049Y0028588D01*
X0162049Y0025390D02*
X0162049Y0025390D01*
X0162049Y0022191D02*
X0162049Y0022191D01*
X0162049Y0018993D02*
X0162049Y0018993D01*
X0162049Y0015794D02*
X0162049Y0015794D01*
X0162049Y0012596D02*
X0162049Y0012596D01*
X0162049Y0009397D02*
X0162049Y0009397D01*
X0162724Y0009397D02*
X0233773Y0009397D01*
X0233798Y0009360D02*
X0234614Y0008365D01*
X0235524Y0007455D01*
X0236519Y0006639D01*
X0237589Y0005923D01*
X0238195Y0005600D01*
X0022911Y0005600D01*
X0023516Y0005923D01*
X0024586Y0006639D01*
X0025581Y0007455D01*
X0026491Y0008365D01*
X0027308Y0009360D01*
X0028023Y0010430D01*
X0028630Y0011565D01*
X0029122Y0012755D01*
X0029496Y0013986D01*
X0029747Y0015249D01*
X0029823Y0016017D01*
X0017929Y0016017D01*
X0017929Y0018329D01*
X0015617Y0018329D01*
X0015617Y0030223D01*
X0014849Y0030147D01*
X0013586Y0029896D01*
X0012355Y0029522D01*
X0011165Y0029030D01*
X0010030Y0028423D01*
X0008960Y0027708D01*
X0007965Y0026891D01*
X0007055Y0025981D01*
X0006239Y0024986D01*
X0005523Y0023916D01*
X0005200Y0023311D01*
X0005200Y0203161D01*
X0005523Y0202556D01*
X0006239Y0201486D01*
X0007055Y0200491D01*
X0007965Y0199581D01*
X0008960Y0198765D01*
X0010030Y0198049D01*
X0011165Y0197443D01*
X0012355Y0196950D01*
X0013586Y0196576D01*
X0014849Y0196325D01*
X0015617Y0196250D01*
X0015617Y0208143D01*
X0017929Y0208143D01*
X0017929Y0196250D01*
X0018698Y0196325D01*
X0019960Y0196576D01*
X0021192Y0196950D01*
X0022381Y0197443D01*
X0023516Y0198049D01*
X0024586Y0198765D01*
X0025581Y0199581D01*
X0026491Y0200491D01*
X0027308Y0201486D01*
X0028023Y0202556D01*
X0028630Y0203691D01*
X0029122Y0204881D01*
X0029496Y0206112D01*
X0029747Y0207375D01*
X0029823Y0208143D01*
X0017929Y0208143D01*
X0017929Y0210455D01*
X0029823Y0210455D01*
X0029747Y0211224D01*
X0029496Y0212486D01*
X0029122Y0213718D01*
X0028630Y0214907D01*
X0028023Y0216042D01*
X0027308Y0217112D01*
X0026491Y0218107D01*
X0025581Y0219017D01*
X0024586Y0219834D01*
X0023516Y0220549D01*
X0022911Y0220872D01*
X0238195Y0220872D01*
X0237589Y0220549D01*
X0236519Y0219834D01*
X0235524Y0219017D01*
X0234614Y0218107D01*
X0233798Y0217112D01*
X0233082Y0216042D01*
X0232476Y0214907D01*
X0231983Y0213718D01*
X0231610Y0212486D01*
X0231358Y0211224D01*
X0231283Y0210455D01*
X0243176Y0210455D01*
X0243176Y0208143D01*
X0231283Y0208143D01*
X0231358Y0207375D01*
X0231610Y0206112D01*
X0231983Y0204881D01*
X0232476Y0203691D01*
X0233082Y0202556D01*
X0233798Y0201486D01*
X0234614Y0200491D01*
X0235524Y0199581D01*
X0236519Y0198765D01*
X0237589Y0198049D01*
X0238725Y0197443D01*
X0239914Y0196950D01*
X0241145Y0196576D01*
X0242408Y0196325D01*
X0243176Y0196250D01*
X0243176Y0208143D01*
X0245488Y0208143D01*
X0245488Y0196250D01*
X0246257Y0196325D01*
X0247519Y0196576D01*
X0248751Y0196950D01*
X0249940Y0197443D01*
X0251075Y0198049D01*
X0252145Y0198765D01*
X0253140Y0199581D01*
X0254050Y0200491D01*
X0254867Y0201486D01*
X0255582Y0202556D01*
X0255906Y0203161D01*
X0255906Y0023311D01*
X0255582Y0023916D01*
X0254867Y0024986D01*
X0254050Y0025981D01*
X0253140Y0026891D01*
X0252145Y0027708D01*
X0251075Y0028423D01*
X0249940Y0029030D01*
X0248751Y0029522D01*
X0247519Y0029896D01*
X0246257Y0030147D01*
X0245488Y0030223D01*
X0245488Y0018329D01*
X0243176Y0018329D01*
X0243176Y0016017D01*
X0231283Y0016017D01*
X0231358Y0015249D01*
X0231610Y0013986D01*
X0231983Y0012755D01*
X0232476Y0011565D01*
X0233082Y0010430D01*
X0233798Y0009360D01*
X0232049Y0012596D02*
X0224949Y0012596D01*
X0225500Y0015794D02*
X0231305Y0015794D01*
X0231283Y0018329D02*
X0243176Y0018329D01*
X0243176Y0030223D01*
X0242408Y0030147D01*
X0241145Y0029896D01*
X0239914Y0029522D01*
X0238725Y0029030D01*
X0237589Y0028423D01*
X0236519Y0027708D01*
X0235524Y0026891D01*
X0234614Y0025981D01*
X0233798Y0024986D01*
X0233082Y0023916D01*
X0232476Y0022781D01*
X0231983Y0021592D01*
X0231610Y0020360D01*
X0231358Y0019098D01*
X0231283Y0018329D01*
X0231348Y0018993D02*
X0225500Y0018993D01*
X0225452Y0022191D02*
X0232231Y0022191D01*
X0234129Y0025390D02*
X0223347Y0025390D01*
X0223300Y0028588D02*
X0237898Y0028588D01*
X0243176Y0028588D02*
X0245488Y0028588D01*
X0245488Y0025390D02*
X0243176Y0025390D01*
X0243176Y0022191D02*
X0245488Y0022191D01*
X0245488Y0018993D02*
X0243176Y0018993D01*
X0250766Y0028588D02*
X0255906Y0028588D01*
X0255906Y0025390D02*
X0254536Y0025390D01*
X0255906Y0031787D02*
X0223300Y0031787D01*
X0223300Y0034985D02*
X0255906Y0034985D01*
X0255906Y0038184D02*
X0223300Y0038184D01*
X0223937Y0041382D02*
X0255906Y0041382D01*
X0255906Y0044581D02*
X0223937Y0044581D01*
X0222295Y0048728D02*
X0221793Y0048628D01*
X0220159Y0048628D01*
X0220159Y0053000D01*
X0220159Y0053000D01*
X0220159Y0053000D01*
X0220159Y0057372D01*
X0221793Y0057372D01*
X0222295Y0057272D01*
X0222769Y0057076D01*
X0223194Y0056791D01*
X0223557Y0056429D01*
X0223841Y0056003D01*
X0224037Y0055530D01*
X0224137Y0055028D01*
X0224137Y0053000D01*
X0220159Y0053000D01*
X0220159Y0053000D01*
X0224137Y0053000D01*
X0224137Y0050972D01*
X0224037Y0050470D01*
X0223841Y0049997D01*
X0223557Y0049571D01*
X0223194Y0049209D01*
X0222769Y0048924D01*
X0222295Y0048728D01*
X0224137Y0050978D02*
X0255906Y0050978D01*
X0255906Y0054176D02*
X0224137Y0054176D01*
X0220159Y0054176D02*
X0220159Y0054176D01*
X0220159Y0050978D02*
X0220159Y0050978D01*
X0218241Y0047779D02*
X0255906Y0047779D01*
X0255906Y0057375D02*
X0214623Y0057375D01*
X0212287Y0060573D02*
X0255906Y0060573D01*
X0255906Y0063772D02*
X0212287Y0063772D01*
X0206931Y0063772D02*
X0206931Y0063772D01*
X0201575Y0063772D02*
X0190931Y0063772D01*
X0188024Y0066970D02*
X0255906Y0066970D01*
X0255906Y0070169D02*
X0188024Y0070169D01*
X0192527Y0073367D02*
X0192673Y0073367D01*
X0192673Y0076566D02*
X0192527Y0076566D01*
X0192527Y0079764D02*
X0192673Y0079764D01*
X0192673Y0082963D02*
X0192527Y0082963D01*
X0188432Y0086161D02*
X0197825Y0086161D01*
X0197825Y0089360D02*
X0188432Y0089360D01*
X0187857Y0092558D02*
X0197825Y0092558D01*
X0197825Y0095757D02*
X0187424Y0095757D01*
X0183486Y0095757D02*
X0183486Y0095757D01*
X0204225Y0095757D02*
X0255906Y0095757D01*
X0255906Y0098955D02*
X0204225Y0098955D01*
X0204225Y0102154D02*
X0255906Y0102154D01*
X0255906Y0105352D02*
X0204225Y0105352D01*
X0205591Y0108551D02*
X0255906Y0108551D01*
X0255906Y0111749D02*
X0205591Y0111749D01*
X0205591Y0114948D02*
X0255906Y0114948D01*
X0255906Y0118146D02*
X0205591Y0118146D01*
X0200351Y0121345D02*
X0255906Y0121345D01*
X0255906Y0124543D02*
X0200351Y0124543D01*
X0199831Y0127742D02*
X0255906Y0127742D01*
X0255906Y0130940D02*
X0185281Y0130940D01*
X0182082Y0134139D02*
X0255906Y0134139D01*
X0255906Y0137337D02*
X0178884Y0137337D01*
X0175685Y0140536D02*
X0255906Y0140536D01*
X0255906Y0143734D02*
X0172487Y0143734D01*
X0169288Y0146933D02*
X0255906Y0146933D01*
X0255906Y0150132D02*
X0166090Y0150132D01*
X0162891Y0153330D02*
X0255906Y0153330D01*
X0255906Y0156529D02*
X0159468Y0156529D01*
X0169968Y0177699D02*
X0173815Y0177699D01*
X0177369Y0179172D01*
X0180090Y0181892D01*
X0181562Y0185446D01*
X0181562Y0187825D01*
X0184740Y0187825D01*
X0184740Y0187447D01*
X0185223Y0186280D01*
X0186117Y0185387D01*
X0187283Y0184904D01*
X0202326Y0184904D01*
X0203493Y0185387D01*
X0204386Y0186280D01*
X0204869Y0187447D01*
X0204869Y0198553D01*
X0204386Y0199720D01*
X0203493Y0200613D01*
X0202326Y0201096D01*
X0187283Y0201096D01*
X0186117Y0200613D01*
X0185223Y0199720D01*
X0184740Y0198553D01*
X0184740Y0198175D01*
X0181562Y0198175D01*
X0181562Y0202286D01*
X0180090Y0205840D01*
X0177369Y0208561D01*
X0173815Y0210033D01*
X0170539Y0210033D01*
X0170539Y0210870D01*
X0169246Y0213990D01*
X0166858Y0216378D01*
X0163738Y0217671D01*
X0160360Y0217671D01*
X0157240Y0216378D01*
X0154852Y0213990D01*
X0153559Y0210870D01*
X0153559Y0196862D01*
X0154852Y0193742D01*
X0157240Y0191354D01*
X0160360Y0190061D01*
X0162220Y0190061D01*
X0162220Y0185446D01*
X0163693Y0181892D01*
X0166413Y0179172D01*
X0169968Y0177699D01*
X0167025Y0178918D02*
X0092578Y0178918D01*
X0092144Y0178738D02*
X0093246Y0179195D01*
X0094279Y0179791D01*
X0095224Y0180517D01*
X0096068Y0181360D01*
X0096793Y0182306D01*
X0097390Y0183338D01*
X0097846Y0184440D01*
X0098155Y0185592D01*
X0098310Y0186774D01*
X0098310Y0190666D01*
X0098538Y0190636D01*
X0099057Y0190636D01*
X0099575Y0190636D01*
X0100604Y0190772D01*
X0101606Y0191040D01*
X0102565Y0191437D01*
X0103463Y0191956D01*
X0104287Y0192588D01*
X0105020Y0193321D01*
X0105652Y0194144D01*
X0106171Y0195043D01*
X0106568Y0196002D01*
X0106836Y0197004D01*
X0106972Y0198032D01*
X0106972Y0203866D01*
X0099057Y0203866D01*
X0099057Y0203866D01*
X0106972Y0203866D01*
X0106972Y0209700D01*
X0106836Y0210729D01*
X0106568Y0211731D01*
X0106171Y0212689D01*
X0105652Y0213588D01*
X0105020Y0214411D01*
X0104287Y0215145D01*
X0103463Y0215776D01*
X0102565Y0216295D01*
X0101606Y0216692D01*
X0100604Y0216961D01*
X0099575Y0217096D01*
X0099057Y0217096D01*
X0099057Y0203866D01*
X0099057Y0190636D01*
X0099057Y0203866D01*
X0099057Y0203866D01*
X0099057Y0203866D01*
X0099057Y0217096D01*
X0098538Y0217096D01*
X0097509Y0216961D01*
X0096507Y0216692D01*
X0095548Y0216295D01*
X0094650Y0215776D01*
X0093827Y0215145D01*
X0093093Y0214411D01*
X0092462Y0213588D01*
X0091943Y0212689D01*
X0091546Y0211731D01*
X0091277Y0210729D01*
X0091142Y0209700D01*
X0091142Y0209263D01*
X0090993Y0209303D01*
X0089810Y0209458D01*
X0089780Y0209458D01*
X0089780Y0194432D01*
X0088649Y0194432D01*
X0088649Y0209458D01*
X0088618Y0209458D01*
X0087436Y0209303D01*
X0086284Y0208994D01*
X0085182Y0208538D01*
X0084150Y0207942D01*
X0083204Y0207216D01*
X0082361Y0206373D01*
X0081635Y0205427D01*
X0081039Y0204394D01*
X0080582Y0203292D01*
X0080274Y0202141D01*
X0080118Y0200958D01*
X0080118Y0194431D01*
X0088649Y0194431D01*
X0088649Y0193301D01*
X0089780Y0193301D01*
X0089780Y0178274D01*
X0089810Y0178274D01*
X0090993Y0178430D01*
X0092144Y0178738D01*
X0089780Y0178918D02*
X0088649Y0178918D01*
X0088649Y0178274D02*
X0088649Y0193301D01*
X0080118Y0193301D01*
X0080118Y0186774D01*
X0080274Y0185592D01*
X0080582Y0184440D01*
X0081039Y0183338D01*
X0081635Y0182306D01*
X0082361Y0181360D01*
X0083204Y0180517D01*
X0084150Y0179791D01*
X0085182Y0179195D01*
X0086284Y0178738D01*
X0087436Y0178430D01*
X0088618Y0178274D01*
X0088649Y0178274D01*
X0085850Y0178918D02*
X0005200Y0178918D01*
X0005200Y0182117D02*
X0081780Y0182117D01*
X0080348Y0185315D02*
X0005200Y0185315D01*
X0005200Y0188514D02*
X0080118Y0188514D01*
X0080118Y0191712D02*
X0005200Y0191712D01*
X0005200Y0194911D02*
X0080118Y0194911D01*
X0080118Y0198109D02*
X0023606Y0198109D01*
X0027161Y0201308D02*
X0041517Y0201308D01*
X0041817Y0201009D02*
X0040923Y0201902D01*
X0040440Y0203068D01*
X0040440Y0212932D01*
X0040923Y0214098D01*
X0041817Y0214991D01*
X0042983Y0215475D01*
X0052846Y0215475D01*
X0054013Y0214991D01*
X0054906Y0214098D01*
X0055390Y0212932D01*
X0055390Y0203068D01*
X0054906Y0201902D01*
X0054013Y0201009D01*
X0052846Y0200525D01*
X0042983Y0200525D01*
X0041817Y0201009D01*
X0040440Y0204506D02*
X0028967Y0204506D01*
X0029780Y0207705D02*
X0040440Y0207705D01*
X0040440Y0210903D02*
X0029779Y0210903D01*
X0028963Y0214102D02*
X0040927Y0214102D01*
X0027154Y0217300D02*
X0159465Y0217300D01*
X0164632Y0217300D02*
X0233952Y0217300D01*
X0237514Y0220499D02*
X0023591Y0220499D01*
X0017929Y0207705D02*
X0015617Y0207705D01*
X0015617Y0204506D02*
X0017929Y0204506D01*
X0017929Y0201308D02*
X0015617Y0201308D01*
X0015617Y0198109D02*
X0017929Y0198109D01*
X0009941Y0198109D02*
X0005200Y0198109D01*
X0005200Y0201308D02*
X0006385Y0201308D01*
X0005200Y0175720D02*
X0255906Y0175720D01*
X0255906Y0172521D02*
X0005200Y0172521D01*
X0005200Y0169323D02*
X0255906Y0169323D01*
X0255906Y0166124D02*
X0005200Y0166124D01*
X0005200Y0162926D02*
X0255906Y0162926D01*
X0255906Y0159727D02*
X0005200Y0159727D01*
X0005200Y0156529D02*
X0100732Y0156529D01*
X0097309Y0153330D02*
X0005200Y0153330D01*
X0005200Y0150132D02*
X0094110Y0150132D01*
X0090912Y0146933D02*
X0005200Y0146933D01*
X0005200Y0143734D02*
X0087713Y0143734D01*
X0084515Y0140536D02*
X0005200Y0140536D01*
X0005200Y0137337D02*
X0081316Y0137337D01*
X0078118Y0134139D02*
X0005200Y0134139D01*
X0005200Y0130940D02*
X0075323Y0130940D01*
X0050675Y0127742D02*
X0005200Y0127742D01*
X0005200Y0124543D02*
X0050154Y0124543D01*
X0086446Y0091201D02*
X0086446Y0091201D01*
X0086446Y0091201D01*
X0085433Y0089360D02*
X0005200Y0089360D01*
X0005200Y0086161D02*
X0085433Y0086161D01*
X0085433Y0082963D02*
X0005200Y0082963D01*
X0005200Y0079764D02*
X0085433Y0079764D01*
X0085433Y0076566D02*
X0005200Y0076566D01*
X0005200Y0073367D02*
X0085433Y0073367D01*
X0085433Y0070169D02*
X0005200Y0070169D01*
X0005200Y0066970D02*
X0085433Y0066970D01*
X0086130Y0063772D02*
X0005200Y0063772D01*
X0005200Y0047779D02*
X0084891Y0047779D01*
X0081016Y0044581D02*
X0005200Y0044581D01*
X0005200Y0041382D02*
X0079691Y0041382D01*
X0079543Y0038184D02*
X0075460Y0038184D01*
X0074086Y0025390D02*
X0079543Y0025390D01*
X0080370Y0022191D02*
X0028874Y0022191D01*
X0028630Y0022781D02*
X0029122Y0021592D01*
X0029496Y0020360D01*
X0029747Y0019098D01*
X0029823Y0018329D01*
X0017929Y0018329D01*
X0017929Y0030223D01*
X0018698Y0030147D01*
X0019960Y0029896D01*
X0021192Y0029522D01*
X0022381Y0029030D01*
X0023516Y0028423D01*
X0024586Y0027708D01*
X0025581Y0026891D01*
X0026491Y0025981D01*
X0027308Y0024986D01*
X0028023Y0023916D01*
X0028630Y0022781D01*
X0026977Y0025390D02*
X0056705Y0025390D01*
X0055331Y0028588D02*
X0049294Y0028588D01*
X0049294Y0027823D02*
X0049294Y0032139D01*
X0040665Y0032139D01*
X0040665Y0025479D01*
X0046951Y0025479D01*
X0047453Y0025579D01*
X0047926Y0025775D01*
X0048352Y0026059D01*
X0048714Y0026421D01*
X0048999Y0026847D01*
X0049195Y0027320D01*
X0049294Y0027823D01*
X0049294Y0031787D02*
X0055331Y0031787D01*
X0055331Y0034985D02*
X0049294Y0034985D01*
X0049294Y0033861D02*
X0049294Y0038177D01*
X0049195Y0038680D01*
X0048999Y0039153D01*
X0048714Y0039579D01*
X0048352Y0039941D01*
X0047926Y0040225D01*
X0047453Y0040421D01*
X0046951Y0040521D01*
X0040665Y0040521D01*
X0040665Y0033861D01*
X0038944Y0033861D01*
X0038944Y0040521D01*
X0032659Y0040521D01*
X0032157Y0040421D01*
X0031683Y0040225D01*
X0031258Y0039941D01*
X0030895Y0039579D01*
X0030611Y0039153D01*
X0030415Y0038680D01*
X0030315Y0038177D01*
X0030315Y0033861D01*
X0038944Y0033861D01*
X0038944Y0032139D01*
X0040665Y0032139D01*
X0040665Y0033861D01*
X0049294Y0033861D01*
X0049293Y0038184D02*
X0055331Y0038184D01*
X0040665Y0038184D02*
X0038944Y0038184D01*
X0038944Y0034985D02*
X0040665Y0034985D01*
X0040665Y0031787D02*
X0038944Y0031787D01*
X0038944Y0032139D02*
X0038944Y0025479D01*
X0032659Y0025479D01*
X0032157Y0025579D01*
X0031683Y0025775D01*
X0031258Y0026059D01*
X0030895Y0026421D01*
X0030611Y0026847D01*
X0030415Y0027320D01*
X0030315Y0027823D01*
X0030315Y0032139D01*
X0038944Y0032139D01*
X0038944Y0028588D02*
X0040665Y0028588D01*
X0030315Y0028588D02*
X0023207Y0028588D01*
X0017929Y0028588D02*
X0015617Y0028588D01*
X0015617Y0025390D02*
X0017929Y0025390D01*
X0017929Y0022191D02*
X0015617Y0022191D01*
X0015617Y0018993D02*
X0017929Y0018993D01*
X0010339Y0028588D02*
X0005200Y0028588D01*
X0005200Y0025390D02*
X0006569Y0025390D01*
X0005200Y0031787D02*
X0030315Y0031787D01*
X0030315Y0034985D02*
X0005200Y0034985D01*
X0005200Y0038184D02*
X0030316Y0038184D01*
X0029757Y0018993D02*
X0082655Y0018993D01*
X0090567Y0015794D02*
X0029801Y0015794D01*
X0029056Y0012596D02*
X0091812Y0012596D01*
X0095930Y0009397D02*
X0027333Y0009397D01*
X0023928Y0006199D02*
X0237178Y0006199D01*
X0215251Y0012596D02*
X0214949Y0012596D01*
X0205251Y0012596D02*
X0204949Y0012596D01*
X0195251Y0012596D02*
X0194949Y0012596D01*
X0185251Y0012596D02*
X0168422Y0012596D01*
X0169835Y0015794D02*
X0184700Y0015794D01*
X0184700Y0018993D02*
X0177557Y0018993D01*
X0177902Y0019257D02*
X0178745Y0020100D01*
X0179471Y0021046D01*
X0180067Y0022079D01*
X0180523Y0023180D01*
X0180832Y0024332D01*
X0180987Y0025514D01*
X0180987Y0032041D01*
X0172457Y0032041D01*
X0172457Y0017014D01*
X0172488Y0017014D01*
X0173670Y0017170D01*
X0174821Y0017478D01*
X0175923Y0017935D01*
X0176956Y0018531D01*
X0177902Y0019257D01*
X0180113Y0022191D02*
X0184748Y0022191D01*
X0186853Y0025390D02*
X0180971Y0025390D01*
X0180987Y0028588D02*
X0216900Y0028588D01*
X0216853Y0025390D02*
X0213347Y0025390D01*
X0206853Y0025390D02*
X0203347Y0025390D01*
X0196853Y0025390D02*
X0193347Y0025390D01*
X0180987Y0031787D02*
X0216900Y0031787D01*
X0216900Y0034985D02*
X0180987Y0034985D01*
X0180987Y0038184D02*
X0216900Y0038184D01*
X0193166Y0060573D02*
X0191772Y0060573D01*
X0200376Y0070676D02*
X0200376Y0073435D01*
X0200376Y0070676D01*
X0200376Y0073367D02*
X0200376Y0073367D01*
X0200376Y0073435D02*
X0200376Y0073435D01*
X0205633Y0073367D02*
X0255906Y0073367D01*
X0255906Y0076566D02*
X0205433Y0076566D01*
X0205433Y0079764D02*
X0255906Y0079764D01*
X0255906Y0082963D02*
X0205433Y0082963D01*
X0204225Y0086161D02*
X0255906Y0086161D01*
X0255906Y0089360D02*
X0204225Y0089360D01*
X0204225Y0092558D02*
X0255906Y0092558D01*
X0172457Y0044581D02*
X0171326Y0044581D01*
X0171326Y0041382D02*
X0172457Y0041382D01*
X0172457Y0038184D02*
X0171326Y0038184D01*
X0171326Y0034985D02*
X0172457Y0034985D01*
X0172457Y0031787D02*
X0171326Y0031787D01*
X0171326Y0028588D02*
X0172457Y0028588D01*
X0172457Y0025390D02*
X0171326Y0025390D01*
X0171326Y0022191D02*
X0172457Y0022191D01*
X0172457Y0018993D02*
X0171326Y0018993D01*
X0161373Y0009397D02*
X0102183Y0009397D01*
X0106301Y0012596D02*
X0155675Y0012596D01*
X0154263Y0015794D02*
X0107546Y0015794D01*
X0107546Y0018993D02*
X0154134Y0018993D01*
X0154134Y0022191D02*
X0107546Y0022191D01*
X0107546Y0025390D02*
X0154134Y0025390D01*
X0154153Y0028588D02*
X0107546Y0028588D01*
X0106645Y0031787D02*
X0155141Y0031787D01*
X0158454Y0034985D02*
X0103999Y0034985D01*
X0148597Y0063772D02*
X0168764Y0063772D01*
X0168204Y0066970D02*
X0149294Y0066970D01*
X0164075Y0114948D02*
X0168110Y0114948D01*
X0169486Y0118146D02*
X0164075Y0118146D01*
X0176758Y0178918D02*
X0255906Y0178918D01*
X0255906Y0182117D02*
X0180183Y0182117D01*
X0181508Y0185315D02*
X0186291Y0185315D01*
X0203319Y0185315D02*
X0255906Y0185315D01*
X0255906Y0188514D02*
X0229885Y0188514D01*
X0229885Y0187823D02*
X0229885Y0192139D01*
X0221256Y0192139D01*
X0221256Y0185479D01*
X0227541Y0185479D01*
X0228043Y0185579D01*
X0228517Y0185775D01*
X0228942Y0186059D01*
X0229305Y0186421D01*
X0229589Y0186847D01*
X0229785Y0187320D01*
X0229885Y0187823D01*
X0229885Y0191712D02*
X0255906Y0191712D01*
X0255906Y0194911D02*
X0229885Y0194911D01*
X0229885Y0193861D02*
X0229885Y0198177D01*
X0229785Y0198680D01*
X0229589Y0199153D01*
X0229305Y0199579D01*
X0228942Y0199941D01*
X0228517Y0200225D01*
X0228043Y0200421D01*
X0227541Y0200521D01*
X0221256Y0200521D01*
X0221256Y0193861D01*
X0219535Y0193861D01*
X0219535Y0200521D01*
X0213249Y0200521D01*
X0212747Y0200421D01*
X0212274Y0200225D01*
X0211848Y0199941D01*
X0211486Y0199579D01*
X0211201Y0199153D01*
X0211005Y0198680D01*
X0210906Y0198177D01*
X0210906Y0193861D01*
X0219535Y0193861D01*
X0219535Y0192139D01*
X0221256Y0192139D01*
X0221256Y0193861D01*
X0229885Y0193861D01*
X0229885Y0198109D02*
X0237500Y0198109D01*
X0233944Y0201308D02*
X0181562Y0201308D01*
X0180642Y0204506D02*
X0232138Y0204506D01*
X0231326Y0207705D02*
X0178225Y0207705D01*
X0170525Y0210903D02*
X0231327Y0210903D01*
X0232142Y0214102D02*
X0169134Y0214102D01*
X0154963Y0214102D02*
X0105258Y0214102D01*
X0106789Y0210903D02*
X0153573Y0210903D01*
X0153559Y0207705D02*
X0106972Y0207705D01*
X0106972Y0204506D02*
X0153559Y0204506D01*
X0153559Y0201308D02*
X0106972Y0201308D01*
X0106972Y0198109D02*
X0153559Y0198109D01*
X0154367Y0194911D02*
X0106094Y0194911D01*
X0103041Y0191712D02*
X0156881Y0191712D01*
X0162220Y0188514D02*
X0098310Y0188514D01*
X0099057Y0191712D02*
X0099057Y0191712D01*
X0099057Y0194911D02*
X0099057Y0194911D01*
X0099057Y0198109D02*
X0099057Y0198109D01*
X0099057Y0201308D02*
X0099057Y0201308D01*
X0099057Y0204506D02*
X0099057Y0204506D01*
X0099057Y0207705D02*
X0099057Y0207705D01*
X0099057Y0210903D02*
X0099057Y0210903D01*
X0099057Y0214102D02*
X0099057Y0214102D01*
X0092856Y0214102D02*
X0073775Y0214102D01*
X0073920Y0213957D02*
X0073557Y0214320D01*
X0073132Y0214604D01*
X0072658Y0214800D01*
X0072156Y0214900D01*
X0067600Y0214900D01*
X0067600Y0208000D01*
X0074500Y0208000D01*
X0074500Y0212556D01*
X0074400Y0213058D01*
X0074204Y0213532D01*
X0073920Y0213957D01*
X0074500Y0210903D02*
X0091324Y0210903D01*
X0089780Y0207705D02*
X0088649Y0207705D01*
X0088649Y0204506D02*
X0089780Y0204506D01*
X0089780Y0201308D02*
X0088649Y0201308D01*
X0088649Y0198109D02*
X0089780Y0198109D01*
X0089780Y0194911D02*
X0088649Y0194911D01*
X0088649Y0191712D02*
X0089780Y0191712D01*
X0089780Y0188514D02*
X0088649Y0188514D01*
X0088649Y0185315D02*
X0089780Y0185315D01*
X0089780Y0182117D02*
X0088649Y0182117D01*
X0096648Y0182117D02*
X0163600Y0182117D01*
X0162275Y0185315D02*
X0098080Y0185315D01*
X0080164Y0201308D02*
X0072919Y0201308D01*
X0073132Y0201396D02*
X0072658Y0201200D01*
X0072156Y0201100D01*
X0067600Y0201100D01*
X0067600Y0208000D01*
X0067600Y0208000D01*
X0067600Y0208000D01*
X0074500Y0208000D01*
X0074500Y0203444D01*
X0074400Y0202942D01*
X0074204Y0202468D01*
X0073920Y0202043D01*
X0073557Y0201680D01*
X0073132Y0201396D01*
X0074500Y0204506D02*
X0081103Y0204506D01*
X0083841Y0207705D02*
X0074500Y0207705D01*
X0067600Y0207705D02*
X0067600Y0207705D01*
X0067600Y0208000D02*
X0067600Y0208000D01*
X0067600Y0208000D01*
X0060700Y0208000D01*
X0060700Y0212556D01*
X0060800Y0213058D01*
X0060996Y0213532D01*
X0061280Y0213957D01*
X0061643Y0214320D01*
X0062068Y0214604D01*
X0062542Y0214800D01*
X0063044Y0214900D01*
X0067600Y0214900D01*
X0067600Y0208000D01*
X0067600Y0201100D01*
X0063044Y0201100D01*
X0062542Y0201200D01*
X0062068Y0201396D01*
X0061643Y0201680D01*
X0061280Y0202043D01*
X0060996Y0202468D01*
X0060800Y0202942D01*
X0060700Y0203444D01*
X0060700Y0208000D01*
X0067600Y0208000D01*
X0067600Y0210903D02*
X0067600Y0210903D01*
X0067600Y0214102D02*
X0067600Y0214102D01*
X0061425Y0214102D02*
X0054903Y0214102D01*
X0055390Y0210903D02*
X0060700Y0210903D01*
X0060700Y0207705D02*
X0055390Y0207705D01*
X0055390Y0204506D02*
X0060700Y0204506D01*
X0062281Y0201308D02*
X0054313Y0201308D01*
X0067600Y0201308D02*
X0067600Y0201308D01*
X0067600Y0204506D02*
X0067600Y0204506D01*
X0204869Y0198109D02*
X0210906Y0198109D01*
X0210906Y0194911D02*
X0204869Y0194911D01*
X0204869Y0191712D02*
X0210906Y0191712D01*
X0210906Y0192139D02*
X0210906Y0187823D01*
X0211005Y0187320D01*
X0211201Y0186847D01*
X0211486Y0186421D01*
X0211848Y0186059D01*
X0212274Y0185775D01*
X0212747Y0185579D01*
X0213249Y0185479D01*
X0219535Y0185479D01*
X0219535Y0192139D01*
X0210906Y0192139D01*
X0210906Y0188514D02*
X0204869Y0188514D01*
X0219535Y0188514D02*
X0221256Y0188514D01*
X0221256Y0191712D02*
X0219535Y0191712D01*
X0219535Y0194911D02*
X0221256Y0194911D01*
X0221256Y0198109D02*
X0219535Y0198109D01*
X0243176Y0198109D02*
X0245488Y0198109D01*
X0245488Y0201308D02*
X0243176Y0201308D01*
X0243176Y0204506D02*
X0245488Y0204506D01*
X0245488Y0207705D02*
X0243176Y0207705D01*
X0251165Y0198109D02*
X0255906Y0198109D01*
X0255906Y0201308D02*
X0254721Y0201308D01*
D28*
X0247600Y0188000D03*
X0225100Y0215500D03*
X0222600Y0160500D03*
X0250100Y0148000D03*
X0227600Y0133000D03*
X0250100Y0113000D03*
X0227600Y0085500D03*
X0210100Y0100500D03*
X0192600Y0090500D03*
X0175100Y0080500D03*
X0195100Y0068000D03*
X0182600Y0050500D03*
X0187600Y0030500D03*
X0205100Y0043000D03*
X0212600Y0030500D03*
X0230100Y0033000D03*
X0250100Y0035500D03*
X0227600Y0008000D03*
X0205100Y0008000D03*
X0172600Y0010500D03*
X0155100Y0043000D03*
X0155100Y0068000D03*
X0152600Y0093000D03*
X0175100Y0103000D03*
X0152600Y0123000D03*
X0145100Y0135500D03*
X0152600Y0145500D03*
X0170100Y0128000D03*
X0192600Y0138000D03*
X0145100Y0185500D03*
X0135100Y0200500D03*
X0125100Y0185500D03*
X0115100Y0200500D03*
X0105100Y0185500D03*
X0077600Y0185500D03*
X0065100Y0185500D03*
X0075100Y0200500D03*
X0085100Y0215500D03*
X0065100Y0218000D03*
X0025100Y0193000D03*
X0010100Y0185500D03*
X0025100Y0173000D03*
X0010100Y0155500D03*
X0025100Y0143000D03*
X0010100Y0125500D03*
X0025100Y0110500D03*
X0010100Y0093000D03*
X0025100Y0075500D03*
X0010100Y0058000D03*
X0032600Y0050500D03*
X0012600Y0035500D03*
X0035100Y0010500D03*
X0067600Y0083000D03*
X0080100Y0088000D03*
X0090100Y0105500D03*
X0100100Y0095500D03*
X0107600Y0123000D03*
X0117600Y0135500D03*
X0105100Y0145500D03*
X0090100Y0125500D03*
X0070100Y0138000D03*
X0130100Y0145500D03*
X0130100Y0215500D03*
X0145100Y0218000D03*
X0107600Y0218000D03*
X0250100Y0068000D03*
X0217600Y0063000D03*
X0130100Y0010500D03*
X0120100Y0058000D03*
D29*
X0089214Y0032606D02*
X0096261Y0022449D01*
X0099057Y0022606D01*
X0089214Y0032606D02*
X0085868Y0033000D01*
X0065395Y0033000D01*
X0171891Y0193866D02*
X0163939Y0203551D01*
X0162049Y0203866D01*
X0171891Y0193866D02*
X0174332Y0193000D01*
X0194805Y0193000D01*
D30*
X0055100Y0125500D03*
M02*
