G75*
%MOIN*%
%OFA0B0*%
%FSLAX25Y25*%
%IPPOS*%
%LPD*%
%AMOC8*
5,1,8,0,0,1.08239X$1,22.5*
%
%ADD10C,0.00000*%
%ADD11C,0.00800*%
%ADD12C,0.00500*%
%ADD13C,0.00400*%
%ADD14C,0.00300*%
%ADD15C,0.00200*%
%ADD16C,0.00600*%
%ADD17R,0.00039X0.01772*%
%ADD18R,0.00039X0.02480*%
%ADD19R,0.00039X0.03031*%
%ADD20R,0.00039X0.03504*%
%ADD21R,0.00039X0.03976*%
%ADD22R,0.00039X0.04291*%
%ADD23R,0.00039X0.04685*%
%ADD24R,0.00039X0.05000*%
%ADD25R,0.00039X0.05315*%
%ADD26R,0.00039X0.05551*%
%ADD27R,0.00039X0.05866*%
%ADD28R,0.00039X0.06102*%
%ADD29R,0.00039X0.06339*%
%ADD30R,0.00039X0.06575*%
%ADD31R,0.00039X0.06811*%
%ADD32R,0.00039X0.06969*%
%ADD33R,0.00039X0.07205*%
%ADD34R,0.00039X0.07441*%
%ADD35R,0.00039X0.07598*%
%ADD36R,0.00039X0.07756*%
%ADD37R,0.00039X0.07992*%
%ADD38R,0.00039X0.08150*%
%ADD39R,0.00039X0.08307*%
%ADD40R,0.00039X0.08465*%
%ADD41R,0.00039X0.08701*%
%ADD42R,0.00039X0.08858*%
%ADD43R,0.00039X0.09016*%
%ADD44R,0.00039X0.09173*%
%ADD45R,0.00039X0.04134*%
%ADD46R,0.00039X0.03937*%
%ADD47R,0.00039X0.04094*%
%ADD48R,0.00039X0.03898*%
%ADD49R,0.00039X0.04055*%
%ADD50R,0.00039X0.03858*%
%ADD51R,0.00039X0.04016*%
%ADD52R,0.00039X0.03819*%
%ADD53R,0.00039X0.04173*%
%ADD54R,0.00039X0.04213*%
%ADD55R,0.00039X0.04252*%
%ADD56R,0.00039X0.04331*%
%ADD57R,0.00039X0.04409*%
%ADD58R,0.00039X0.04449*%
%ADD59R,0.00039X0.04488*%
%ADD60R,0.00039X0.04370*%
%ADD61R,0.00039X0.04528*%
%ADD62R,0.00039X0.04567*%
%ADD63R,0.00039X0.04606*%
%ADD64R,0.00039X0.04646*%
%ADD65R,0.00039X0.04724*%
%ADD66R,0.00039X0.04764*%
%ADD67R,0.00039X0.04803*%
%ADD68R,0.00039X0.04843*%
%ADD69R,0.00039X0.04882*%
%ADD70R,0.00039X0.04921*%
%ADD71R,0.00039X0.04961*%
%ADD72R,0.00039X0.05039*%
%ADD73R,0.00039X0.05079*%
%ADD74R,0.00039X0.05118*%
%ADD75R,0.00039X0.05157*%
%ADD76R,0.00039X0.05197*%
%ADD77R,0.00039X0.05236*%
%ADD78R,0.00039X0.05276*%
%ADD79R,0.00039X0.05354*%
%ADD80R,0.00039X0.05394*%
%ADD81R,0.00039X0.05433*%
%ADD82R,0.00039X0.05472*%
%ADD83R,0.00039X0.05512*%
%ADD84R,0.00039X0.05591*%
%ADD85R,0.00039X0.05630*%
%ADD86R,0.00039X0.05669*%
%ADD87R,0.00039X0.05709*%
%ADD88R,0.00039X0.05748*%
%ADD89R,0.00039X0.05787*%
%ADD90R,0.00039X0.05827*%
%ADD91R,0.00039X0.05906*%
%ADD92R,0.00039X0.05945*%
%ADD93R,0.00039X0.05984*%
%ADD94R,0.00039X0.06024*%
%ADD95R,0.00039X0.06063*%
%ADD96R,0.00039X0.06142*%
%ADD97R,0.00039X0.06181*%
%ADD98R,0.00039X0.06220*%
%ADD99R,0.00039X0.06260*%
%ADD100R,0.00039X0.06299*%
%ADD101R,0.00039X0.06378*%
%ADD102R,0.00039X0.06457*%
%ADD103R,0.00039X0.06496*%
%ADD104R,0.00039X0.06535*%
%ADD105R,0.00039X0.06614*%
%ADD106R,0.00039X0.06693*%
%ADD107R,0.00039X0.06732*%
%ADD108R,0.00039X0.06654*%
%ADD109R,0.00039X0.02638*%
%ADD110R,0.00039X0.00551*%
%ADD111R,0.00039X0.06850*%
%ADD112R,0.00039X0.02402*%
%ADD113R,0.00039X0.02795*%
%ADD114R,0.00039X0.06890*%
%ADD115R,0.00039X0.02244*%
%ADD116R,0.00039X0.02677*%
%ADD117R,0.00039X0.02087*%
%ADD118R,0.00039X0.02559*%
%ADD119R,0.00039X0.07008*%
%ADD120R,0.00039X0.02008*%
%ADD121R,0.00039X0.02441*%
%ADD122R,0.00039X0.07087*%
%ADD123R,0.00039X0.01850*%
%ADD124R,0.00039X0.02362*%
%ADD125R,0.00039X0.07126*%
%ADD126R,0.00039X0.01811*%
%ADD127R,0.00039X0.02323*%
%ADD128R,0.00039X0.00197*%
%ADD129R,0.00039X0.00591*%
%ADD130R,0.00039X0.02283*%
%ADD131R,0.00039X0.01693*%
%ADD132R,0.00039X0.00118*%
%ADD133R,0.00039X0.02047*%
%ADD134R,0.00039X0.01654*%
%ADD135R,0.00039X0.02205*%
%ADD136R,0.00039X0.01929*%
%ADD137R,0.00039X0.01614*%
%ADD138R,0.00039X0.02165*%
%ADD139R,0.00039X0.01535*%
%ADD140R,0.00039X0.01732*%
%ADD141R,0.00039X0.01496*%
%ADD142R,0.00039X0.00157*%
%ADD143R,0.00039X0.01417*%
%ADD144R,0.00039X0.00236*%
%ADD145R,0.00039X0.01378*%
%ADD146R,0.00039X0.00276*%
%ADD147R,0.00039X0.01575*%
%ADD148R,0.00039X0.01339*%
%ADD149R,0.00039X0.00315*%
%ADD150R,0.00039X0.01299*%
%ADD151R,0.00039X0.00394*%
%ADD152R,0.00039X0.01457*%
%ADD153R,0.00039X0.01220*%
%ADD154R,0.00039X0.00472*%
%ADD155R,0.00039X0.00512*%
%ADD156R,0.00039X0.01181*%
%ADD157R,0.00039X0.01102*%
%ADD158R,0.00039X0.00669*%
%ADD159R,0.00039X0.01260*%
%ADD160R,0.00039X0.00709*%
%ADD161R,0.00039X0.00827*%
%ADD162R,0.00039X0.01063*%
%ADD163R,0.00039X0.00945*%
%ADD164R,0.00039X0.01024*%
%ADD165R,0.00039X0.01142*%
%ADD166R,0.00039X0.00984*%
%ADD167R,0.00039X0.00906*%
%ADD168R,0.00039X0.00866*%
%ADD169R,0.00039X0.00787*%
%ADD170R,0.00039X0.00748*%
%ADD171R,0.00039X0.00630*%
%ADD172R,0.00039X0.00433*%
%ADD173R,0.00039X0.00354*%
%ADD174R,0.00039X0.00079*%
%ADD175R,0.00039X0.01890*%
%ADD176R,0.00039X0.01969*%
%ADD177R,0.00039X0.02126*%
%ADD178R,0.00039X0.02598*%
%ADD179R,0.00039X0.02520*%
%ADD180R,0.00039X0.06417*%
%ADD181R,0.00039X0.09409*%
%ADD182R,0.00039X0.09331*%
D10*
X0016773Y0003000D02*
X0244332Y0003000D01*
X0244674Y0003004D01*
X0245017Y0003017D01*
X0245359Y0003037D01*
X0245700Y0003066D01*
X0246040Y0003103D01*
X0246380Y0003149D01*
X0246718Y0003202D01*
X0247055Y0003264D01*
X0247390Y0003334D01*
X0247724Y0003412D01*
X0248055Y0003498D01*
X0248385Y0003592D01*
X0248712Y0003694D01*
X0249036Y0003803D01*
X0249358Y0003921D01*
X0249677Y0004046D01*
X0249992Y0004179D01*
X0250305Y0004320D01*
X0250613Y0004468D01*
X0250919Y0004623D01*
X0251220Y0004786D01*
X0251517Y0004956D01*
X0251810Y0005133D01*
X0252099Y0005318D01*
X0252383Y0005509D01*
X0252663Y0005707D01*
X0252937Y0005911D01*
X0253207Y0006123D01*
X0253471Y0006340D01*
X0253730Y0006564D01*
X0253984Y0006795D01*
X0254232Y0007031D01*
X0254474Y0007273D01*
X0254710Y0007521D01*
X0254941Y0007775D01*
X0255165Y0008034D01*
X0255382Y0008298D01*
X0255594Y0008568D01*
X0255798Y0008842D01*
X0255996Y0009122D01*
X0256187Y0009406D01*
X0256372Y0009695D01*
X0256549Y0009988D01*
X0256719Y0010285D01*
X0256882Y0010586D01*
X0257037Y0010892D01*
X0257185Y0011200D01*
X0257326Y0011513D01*
X0257459Y0011828D01*
X0257584Y0012147D01*
X0257702Y0012469D01*
X0257811Y0012793D01*
X0257913Y0013120D01*
X0258007Y0013450D01*
X0258093Y0013781D01*
X0258171Y0014115D01*
X0258241Y0014450D01*
X0258303Y0014787D01*
X0258356Y0015125D01*
X0258402Y0015465D01*
X0258439Y0015805D01*
X0258468Y0016146D01*
X0258488Y0016488D01*
X0258501Y0016831D01*
X0258505Y0017173D01*
X0258506Y0017173D02*
X0258506Y0209299D01*
X0258505Y0209299D02*
X0258501Y0209641D01*
X0258488Y0209984D01*
X0258468Y0210326D01*
X0258439Y0210667D01*
X0258402Y0211007D01*
X0258356Y0211347D01*
X0258303Y0211685D01*
X0258241Y0212022D01*
X0258171Y0212357D01*
X0258093Y0212691D01*
X0258007Y0213022D01*
X0257913Y0213352D01*
X0257811Y0213679D01*
X0257702Y0214003D01*
X0257584Y0214325D01*
X0257459Y0214644D01*
X0257326Y0214959D01*
X0257185Y0215272D01*
X0257037Y0215580D01*
X0256882Y0215886D01*
X0256719Y0216187D01*
X0256549Y0216484D01*
X0256372Y0216777D01*
X0256187Y0217066D01*
X0255996Y0217350D01*
X0255798Y0217630D01*
X0255594Y0217904D01*
X0255382Y0218174D01*
X0255165Y0218438D01*
X0254941Y0218697D01*
X0254710Y0218951D01*
X0254474Y0219199D01*
X0254232Y0219441D01*
X0253984Y0219677D01*
X0253730Y0219908D01*
X0253471Y0220132D01*
X0253207Y0220349D01*
X0252937Y0220561D01*
X0252663Y0220765D01*
X0252383Y0220963D01*
X0252099Y0221154D01*
X0251810Y0221339D01*
X0251517Y0221516D01*
X0251220Y0221686D01*
X0250919Y0221849D01*
X0250613Y0222004D01*
X0250305Y0222152D01*
X0249992Y0222293D01*
X0249677Y0222426D01*
X0249358Y0222551D01*
X0249036Y0222669D01*
X0248712Y0222778D01*
X0248385Y0222880D01*
X0248055Y0222974D01*
X0247724Y0223060D01*
X0247390Y0223138D01*
X0247055Y0223208D01*
X0246718Y0223270D01*
X0246380Y0223323D01*
X0246040Y0223369D01*
X0245700Y0223406D01*
X0245359Y0223435D01*
X0245017Y0223455D01*
X0244674Y0223468D01*
X0244332Y0223472D01*
X0016773Y0223472D01*
X0016431Y0223468D01*
X0016088Y0223455D01*
X0015746Y0223435D01*
X0015405Y0223406D01*
X0015065Y0223369D01*
X0014725Y0223323D01*
X0014387Y0223270D01*
X0014050Y0223208D01*
X0013715Y0223138D01*
X0013381Y0223060D01*
X0013050Y0222974D01*
X0012720Y0222880D01*
X0012393Y0222778D01*
X0012069Y0222669D01*
X0011747Y0222551D01*
X0011428Y0222426D01*
X0011113Y0222293D01*
X0010800Y0222152D01*
X0010492Y0222004D01*
X0010186Y0221849D01*
X0009885Y0221686D01*
X0009588Y0221516D01*
X0009295Y0221339D01*
X0009006Y0221154D01*
X0008722Y0220963D01*
X0008442Y0220765D01*
X0008168Y0220561D01*
X0007898Y0220349D01*
X0007634Y0220132D01*
X0007375Y0219908D01*
X0007121Y0219677D01*
X0006873Y0219441D01*
X0006631Y0219199D01*
X0006395Y0218951D01*
X0006164Y0218697D01*
X0005940Y0218438D01*
X0005723Y0218174D01*
X0005511Y0217904D01*
X0005307Y0217630D01*
X0005109Y0217350D01*
X0004918Y0217066D01*
X0004733Y0216777D01*
X0004556Y0216484D01*
X0004386Y0216187D01*
X0004223Y0215886D01*
X0004068Y0215580D01*
X0003920Y0215272D01*
X0003779Y0214959D01*
X0003646Y0214644D01*
X0003521Y0214325D01*
X0003403Y0214003D01*
X0003294Y0213679D01*
X0003192Y0213352D01*
X0003098Y0213022D01*
X0003012Y0212691D01*
X0002934Y0212357D01*
X0002864Y0212022D01*
X0002802Y0211685D01*
X0002749Y0211347D01*
X0002703Y0211007D01*
X0002666Y0210667D01*
X0002637Y0210326D01*
X0002617Y0209984D01*
X0002604Y0209641D01*
X0002600Y0209299D01*
X0002600Y0017173D01*
X0002604Y0016831D01*
X0002617Y0016488D01*
X0002637Y0016146D01*
X0002666Y0015805D01*
X0002703Y0015465D01*
X0002749Y0015125D01*
X0002802Y0014787D01*
X0002864Y0014450D01*
X0002934Y0014115D01*
X0003012Y0013781D01*
X0003098Y0013450D01*
X0003192Y0013120D01*
X0003294Y0012793D01*
X0003403Y0012469D01*
X0003521Y0012147D01*
X0003646Y0011828D01*
X0003779Y0011513D01*
X0003920Y0011200D01*
X0004068Y0010892D01*
X0004223Y0010586D01*
X0004386Y0010285D01*
X0004556Y0009988D01*
X0004733Y0009695D01*
X0004918Y0009406D01*
X0005109Y0009122D01*
X0005307Y0008842D01*
X0005511Y0008568D01*
X0005723Y0008298D01*
X0005940Y0008034D01*
X0006164Y0007775D01*
X0006395Y0007521D01*
X0006631Y0007273D01*
X0006873Y0007031D01*
X0007121Y0006795D01*
X0007375Y0006564D01*
X0007634Y0006340D01*
X0007898Y0006123D01*
X0008168Y0005911D01*
X0008442Y0005707D01*
X0008722Y0005509D01*
X0009006Y0005318D01*
X0009295Y0005133D01*
X0009588Y0004956D01*
X0009885Y0004786D01*
X0010186Y0004623D01*
X0010492Y0004468D01*
X0010800Y0004320D01*
X0011113Y0004179D01*
X0011428Y0004046D01*
X0011747Y0003921D01*
X0012069Y0003803D01*
X0012393Y0003694D01*
X0012720Y0003592D01*
X0013050Y0003498D01*
X0013381Y0003412D01*
X0013715Y0003334D01*
X0014050Y0003264D01*
X0014387Y0003202D01*
X0014725Y0003149D01*
X0015065Y0003103D01*
X0015405Y0003066D01*
X0015746Y0003037D01*
X0016088Y0003017D01*
X0016431Y0003004D01*
X0016773Y0003000D01*
X0088033Y0066031D02*
X0088033Y0088433D01*
X0088035Y0088499D01*
X0088040Y0088565D01*
X0088050Y0088631D01*
X0088063Y0088696D01*
X0088079Y0088760D01*
X0088099Y0088823D01*
X0088123Y0088885D01*
X0088150Y0088945D01*
X0088180Y0089004D01*
X0088214Y0089061D01*
X0088251Y0089116D01*
X0088291Y0089169D01*
X0088333Y0089220D01*
X0088379Y0089268D01*
X0088427Y0089314D01*
X0088478Y0089356D01*
X0088531Y0089396D01*
X0088586Y0089433D01*
X0088643Y0089467D01*
X0088702Y0089497D01*
X0088762Y0089524D01*
X0088824Y0089548D01*
X0088887Y0089568D01*
X0088951Y0089584D01*
X0089016Y0089597D01*
X0089082Y0089607D01*
X0089148Y0089612D01*
X0089214Y0089614D01*
X0145513Y0089614D01*
X0145579Y0089612D01*
X0145645Y0089607D01*
X0145711Y0089597D01*
X0145776Y0089584D01*
X0145840Y0089568D01*
X0145903Y0089548D01*
X0145965Y0089524D01*
X0146025Y0089497D01*
X0146084Y0089467D01*
X0146141Y0089433D01*
X0146196Y0089396D01*
X0146249Y0089356D01*
X0146300Y0089314D01*
X0146348Y0089268D01*
X0146394Y0089220D01*
X0146436Y0089169D01*
X0146476Y0089116D01*
X0146513Y0089061D01*
X0146547Y0089004D01*
X0146577Y0088945D01*
X0146604Y0088885D01*
X0146628Y0088823D01*
X0146648Y0088760D01*
X0146664Y0088696D01*
X0146677Y0088631D01*
X0146687Y0088565D01*
X0146692Y0088499D01*
X0146694Y0088433D01*
X0146694Y0065992D01*
X0146692Y0065926D01*
X0146687Y0065860D01*
X0146677Y0065794D01*
X0146664Y0065729D01*
X0146648Y0065665D01*
X0146628Y0065602D01*
X0146604Y0065540D01*
X0146577Y0065480D01*
X0146547Y0065421D01*
X0146513Y0065364D01*
X0146476Y0065309D01*
X0146436Y0065256D01*
X0146394Y0065205D01*
X0146348Y0065157D01*
X0146300Y0065111D01*
X0146249Y0065069D01*
X0146196Y0065029D01*
X0146141Y0064992D01*
X0146084Y0064958D01*
X0146025Y0064928D01*
X0145965Y0064901D01*
X0145903Y0064877D01*
X0145840Y0064857D01*
X0145776Y0064841D01*
X0145711Y0064828D01*
X0145645Y0064818D01*
X0145579Y0064813D01*
X0145513Y0064811D01*
X0089214Y0064811D01*
X0089148Y0064813D01*
X0089082Y0064818D01*
X0089016Y0064828D01*
X0088951Y0064841D01*
X0088887Y0064857D01*
X0088824Y0064877D01*
X0088762Y0064901D01*
X0088702Y0064928D01*
X0088643Y0064958D01*
X0088586Y0064992D01*
X0088531Y0065029D01*
X0088478Y0065069D01*
X0088427Y0065111D01*
X0088379Y0065157D01*
X0088333Y0065205D01*
X0088291Y0065256D01*
X0088251Y0065309D01*
X0088214Y0065364D01*
X0088180Y0065421D01*
X0088150Y0065480D01*
X0088123Y0065540D01*
X0088099Y0065602D01*
X0088079Y0065665D01*
X0088063Y0065729D01*
X0088050Y0065794D01*
X0088040Y0065860D01*
X0088035Y0065926D01*
X0088033Y0065992D01*
X0114411Y0097094D02*
X0146694Y0097094D01*
X0146694Y0129378D01*
X0114411Y0129378D01*
X0114411Y0097094D01*
X0088033Y0115205D02*
X0088035Y0115274D01*
X0088041Y0115342D01*
X0088051Y0115410D01*
X0088065Y0115477D01*
X0088083Y0115544D01*
X0088104Y0115609D01*
X0088130Y0115673D01*
X0088159Y0115735D01*
X0088191Y0115795D01*
X0088227Y0115854D01*
X0088267Y0115910D01*
X0088309Y0115964D01*
X0088355Y0116015D01*
X0088404Y0116064D01*
X0088455Y0116110D01*
X0088509Y0116152D01*
X0088565Y0116192D01*
X0088623Y0116228D01*
X0088684Y0116260D01*
X0088746Y0116289D01*
X0088810Y0116315D01*
X0088875Y0116336D01*
X0088942Y0116354D01*
X0089009Y0116368D01*
X0089077Y0116378D01*
X0089145Y0116384D01*
X0089214Y0116386D01*
X0089283Y0116384D01*
X0089351Y0116378D01*
X0089419Y0116368D01*
X0089486Y0116354D01*
X0089553Y0116336D01*
X0089618Y0116315D01*
X0089682Y0116289D01*
X0089744Y0116260D01*
X0089804Y0116228D01*
X0089863Y0116192D01*
X0089919Y0116152D01*
X0089973Y0116110D01*
X0090024Y0116064D01*
X0090073Y0116015D01*
X0090119Y0115964D01*
X0090161Y0115910D01*
X0090201Y0115854D01*
X0090237Y0115795D01*
X0090269Y0115735D01*
X0090298Y0115673D01*
X0090324Y0115609D01*
X0090345Y0115544D01*
X0090363Y0115477D01*
X0090377Y0115410D01*
X0090387Y0115342D01*
X0090393Y0115274D01*
X0090395Y0115205D01*
X0090393Y0115136D01*
X0090387Y0115068D01*
X0090377Y0115000D01*
X0090363Y0114933D01*
X0090345Y0114866D01*
X0090324Y0114801D01*
X0090298Y0114737D01*
X0090269Y0114675D01*
X0090237Y0114614D01*
X0090201Y0114556D01*
X0090161Y0114500D01*
X0090119Y0114446D01*
X0090073Y0114395D01*
X0090024Y0114346D01*
X0089973Y0114300D01*
X0089919Y0114258D01*
X0089863Y0114218D01*
X0089805Y0114182D01*
X0089744Y0114150D01*
X0089682Y0114121D01*
X0089618Y0114095D01*
X0089553Y0114074D01*
X0089486Y0114056D01*
X0089419Y0114042D01*
X0089351Y0114032D01*
X0089283Y0114026D01*
X0089214Y0114024D01*
X0089145Y0114026D01*
X0089077Y0114032D01*
X0089009Y0114042D01*
X0088942Y0114056D01*
X0088875Y0114074D01*
X0088810Y0114095D01*
X0088746Y0114121D01*
X0088684Y0114150D01*
X0088623Y0114182D01*
X0088565Y0114218D01*
X0088509Y0114258D01*
X0088455Y0114300D01*
X0088404Y0114346D01*
X0088355Y0114395D01*
X0088309Y0114446D01*
X0088267Y0114500D01*
X0088227Y0114556D01*
X0088191Y0114614D01*
X0088159Y0114675D01*
X0088130Y0114737D01*
X0088104Y0114801D01*
X0088083Y0114866D01*
X0088065Y0114933D01*
X0088051Y0115000D01*
X0088041Y0115068D01*
X0088035Y0115136D01*
X0088033Y0115205D01*
X0170710Y0115205D02*
X0170712Y0115274D01*
X0170718Y0115342D01*
X0170728Y0115410D01*
X0170742Y0115477D01*
X0170760Y0115544D01*
X0170781Y0115609D01*
X0170807Y0115673D01*
X0170836Y0115735D01*
X0170868Y0115795D01*
X0170904Y0115854D01*
X0170944Y0115910D01*
X0170986Y0115964D01*
X0171032Y0116015D01*
X0171081Y0116064D01*
X0171132Y0116110D01*
X0171186Y0116152D01*
X0171242Y0116192D01*
X0171300Y0116228D01*
X0171361Y0116260D01*
X0171423Y0116289D01*
X0171487Y0116315D01*
X0171552Y0116336D01*
X0171619Y0116354D01*
X0171686Y0116368D01*
X0171754Y0116378D01*
X0171822Y0116384D01*
X0171891Y0116386D01*
X0171960Y0116384D01*
X0172028Y0116378D01*
X0172096Y0116368D01*
X0172163Y0116354D01*
X0172230Y0116336D01*
X0172295Y0116315D01*
X0172359Y0116289D01*
X0172421Y0116260D01*
X0172481Y0116228D01*
X0172540Y0116192D01*
X0172596Y0116152D01*
X0172650Y0116110D01*
X0172701Y0116064D01*
X0172750Y0116015D01*
X0172796Y0115964D01*
X0172838Y0115910D01*
X0172878Y0115854D01*
X0172914Y0115795D01*
X0172946Y0115735D01*
X0172975Y0115673D01*
X0173001Y0115609D01*
X0173022Y0115544D01*
X0173040Y0115477D01*
X0173054Y0115410D01*
X0173064Y0115342D01*
X0173070Y0115274D01*
X0173072Y0115205D01*
X0173070Y0115136D01*
X0173064Y0115068D01*
X0173054Y0115000D01*
X0173040Y0114933D01*
X0173022Y0114866D01*
X0173001Y0114801D01*
X0172975Y0114737D01*
X0172946Y0114675D01*
X0172914Y0114614D01*
X0172878Y0114556D01*
X0172838Y0114500D01*
X0172796Y0114446D01*
X0172750Y0114395D01*
X0172701Y0114346D01*
X0172650Y0114300D01*
X0172596Y0114258D01*
X0172540Y0114218D01*
X0172482Y0114182D01*
X0172421Y0114150D01*
X0172359Y0114121D01*
X0172295Y0114095D01*
X0172230Y0114074D01*
X0172163Y0114056D01*
X0172096Y0114042D01*
X0172028Y0114032D01*
X0171960Y0114026D01*
X0171891Y0114024D01*
X0171822Y0114026D01*
X0171754Y0114032D01*
X0171686Y0114042D01*
X0171619Y0114056D01*
X0171552Y0114074D01*
X0171487Y0114095D01*
X0171423Y0114121D01*
X0171361Y0114150D01*
X0171300Y0114182D01*
X0171242Y0114218D01*
X0171186Y0114258D01*
X0171132Y0114300D01*
X0171081Y0114346D01*
X0171032Y0114395D01*
X0170986Y0114446D01*
X0170944Y0114500D01*
X0170904Y0114556D01*
X0170868Y0114614D01*
X0170836Y0114675D01*
X0170807Y0114737D01*
X0170781Y0114801D01*
X0170760Y0114866D01*
X0170742Y0114933D01*
X0170728Y0115000D01*
X0170718Y0115068D01*
X0170712Y0115136D01*
X0170710Y0115205D01*
X0170710Y0065992D02*
X0170712Y0066061D01*
X0170718Y0066129D01*
X0170728Y0066197D01*
X0170742Y0066264D01*
X0170760Y0066331D01*
X0170781Y0066396D01*
X0170807Y0066460D01*
X0170836Y0066522D01*
X0170868Y0066582D01*
X0170904Y0066641D01*
X0170944Y0066697D01*
X0170986Y0066751D01*
X0171032Y0066802D01*
X0171081Y0066851D01*
X0171132Y0066897D01*
X0171186Y0066939D01*
X0171242Y0066979D01*
X0171300Y0067015D01*
X0171361Y0067047D01*
X0171423Y0067076D01*
X0171487Y0067102D01*
X0171552Y0067123D01*
X0171619Y0067141D01*
X0171686Y0067155D01*
X0171754Y0067165D01*
X0171822Y0067171D01*
X0171891Y0067173D01*
X0171960Y0067171D01*
X0172028Y0067165D01*
X0172096Y0067155D01*
X0172163Y0067141D01*
X0172230Y0067123D01*
X0172295Y0067102D01*
X0172359Y0067076D01*
X0172421Y0067047D01*
X0172481Y0067015D01*
X0172540Y0066979D01*
X0172596Y0066939D01*
X0172650Y0066897D01*
X0172701Y0066851D01*
X0172750Y0066802D01*
X0172796Y0066751D01*
X0172838Y0066697D01*
X0172878Y0066641D01*
X0172914Y0066582D01*
X0172946Y0066522D01*
X0172975Y0066460D01*
X0173001Y0066396D01*
X0173022Y0066331D01*
X0173040Y0066264D01*
X0173054Y0066197D01*
X0173064Y0066129D01*
X0173070Y0066061D01*
X0173072Y0065992D01*
X0173070Y0065923D01*
X0173064Y0065855D01*
X0173054Y0065787D01*
X0173040Y0065720D01*
X0173022Y0065653D01*
X0173001Y0065588D01*
X0172975Y0065524D01*
X0172946Y0065462D01*
X0172914Y0065401D01*
X0172878Y0065343D01*
X0172838Y0065287D01*
X0172796Y0065233D01*
X0172750Y0065182D01*
X0172701Y0065133D01*
X0172650Y0065087D01*
X0172596Y0065045D01*
X0172540Y0065005D01*
X0172482Y0064969D01*
X0172421Y0064937D01*
X0172359Y0064908D01*
X0172295Y0064882D01*
X0172230Y0064861D01*
X0172163Y0064843D01*
X0172096Y0064829D01*
X0172028Y0064819D01*
X0171960Y0064813D01*
X0171891Y0064811D01*
X0171822Y0064813D01*
X0171754Y0064819D01*
X0171686Y0064829D01*
X0171619Y0064843D01*
X0171552Y0064861D01*
X0171487Y0064882D01*
X0171423Y0064908D01*
X0171361Y0064937D01*
X0171300Y0064969D01*
X0171242Y0065005D01*
X0171186Y0065045D01*
X0171132Y0065087D01*
X0171081Y0065133D01*
X0171032Y0065182D01*
X0170986Y0065233D01*
X0170944Y0065287D01*
X0170904Y0065343D01*
X0170868Y0065401D01*
X0170836Y0065462D01*
X0170807Y0065524D01*
X0170781Y0065588D01*
X0170760Y0065653D01*
X0170742Y0065720D01*
X0170728Y0065787D01*
X0170718Y0065855D01*
X0170712Y0065923D01*
X0170710Y0065992D01*
D11*
X0215492Y0078935D02*
X0217027Y0077400D01*
X0223165Y0077400D01*
X0224700Y0078935D01*
X0224700Y0082004D01*
X0223165Y0083539D01*
X0217027Y0083539D01*
X0215492Y0082004D01*
X0215492Y0078935D01*
X0218561Y0086608D02*
X0218561Y0091212D01*
X0220096Y0092746D01*
X0223165Y0092746D01*
X0224700Y0091212D01*
X0224700Y0086608D01*
X0227769Y0086608D02*
X0218561Y0086608D01*
X0220096Y0095816D02*
X0218561Y0097350D01*
X0218561Y0100420D01*
X0220096Y0101954D01*
X0221631Y0101954D01*
X0221631Y0095816D01*
X0223165Y0095816D02*
X0220096Y0095816D01*
X0223165Y0095816D02*
X0224700Y0097350D01*
X0224700Y0100420D01*
X0224700Y0105024D02*
X0218561Y0105024D01*
X0218561Y0109628D01*
X0220096Y0111162D01*
X0224700Y0111162D01*
X0224700Y0114231D02*
X0224700Y0118835D01*
X0223165Y0120370D01*
X0221631Y0120370D01*
X0220096Y0118835D01*
X0220096Y0114231D01*
X0215492Y0114231D02*
X0215492Y0118835D01*
X0217027Y0120370D01*
X0218561Y0120370D01*
X0220096Y0118835D01*
X0224700Y0114231D02*
X0215492Y0114231D01*
X0215492Y0123439D02*
X0224700Y0123439D01*
X0224700Y0129578D01*
X0224700Y0132647D02*
X0221631Y0135716D01*
X0224700Y0138786D01*
X0215492Y0138786D01*
X0215492Y0132647D02*
X0224700Y0132647D01*
X0224135Y0176465D02*
X0194608Y0176465D01*
X0191065Y0180008D01*
X0191065Y0187094D01*
X0191065Y0198906D02*
X0191065Y0205992D01*
X0194608Y0209535D01*
X0224135Y0209535D01*
X0224135Y0198906D01*
X0224135Y0187094D02*
X0224135Y0176465D01*
X0221970Y0198512D02*
X0221832Y0198860D01*
X0221685Y0199204D01*
X0221530Y0199545D01*
X0221367Y0199882D01*
X0221195Y0200215D01*
X0221015Y0200544D01*
X0220828Y0200868D01*
X0220633Y0201188D01*
X0220429Y0201502D01*
X0220219Y0201812D01*
X0220001Y0202116D01*
X0219775Y0202415D01*
X0219542Y0202709D01*
X0219303Y0202997D01*
X0219056Y0203278D01*
X0218802Y0203554D01*
X0218542Y0203823D01*
X0218276Y0204087D01*
X0218003Y0204343D01*
X0217724Y0204593D01*
X0217439Y0204836D01*
X0217148Y0205072D01*
X0216851Y0205300D01*
X0216549Y0205522D01*
X0216242Y0205736D01*
X0215929Y0205942D01*
X0215612Y0206141D01*
X0215290Y0206332D01*
X0214963Y0206515D01*
X0214632Y0206691D01*
X0214297Y0206858D01*
X0213958Y0207016D01*
X0213615Y0207167D01*
X0213268Y0207309D01*
X0212919Y0207443D01*
X0212566Y0207568D01*
X0212210Y0207684D01*
X0211851Y0207792D01*
X0211490Y0207891D01*
X0211126Y0207982D01*
X0210761Y0208063D01*
X0210393Y0208135D01*
X0210024Y0208199D01*
X0209654Y0208253D01*
X0209282Y0208299D01*
X0208909Y0208335D01*
X0208536Y0208363D01*
X0208162Y0208381D01*
X0207787Y0208390D01*
X0207413Y0208390D01*
X0207038Y0208381D01*
X0206664Y0208363D01*
X0206291Y0208335D01*
X0205918Y0208299D01*
X0205546Y0208253D01*
X0205176Y0208199D01*
X0204807Y0208135D01*
X0204439Y0208063D01*
X0204074Y0207982D01*
X0203710Y0207891D01*
X0203349Y0207792D01*
X0202990Y0207684D01*
X0202634Y0207568D01*
X0202281Y0207443D01*
X0201932Y0207309D01*
X0201585Y0207167D01*
X0201242Y0207016D01*
X0200903Y0206858D01*
X0200568Y0206691D01*
X0200237Y0206515D01*
X0199910Y0206332D01*
X0199588Y0206141D01*
X0199271Y0205942D01*
X0198958Y0205736D01*
X0198651Y0205522D01*
X0198349Y0205300D01*
X0198052Y0205072D01*
X0197761Y0204836D01*
X0197476Y0204593D01*
X0197197Y0204343D01*
X0196924Y0204087D01*
X0196658Y0203823D01*
X0196398Y0203554D01*
X0196144Y0203278D01*
X0195897Y0202997D01*
X0195658Y0202709D01*
X0195425Y0202415D01*
X0195199Y0202116D01*
X0194981Y0201812D01*
X0194771Y0201502D01*
X0194567Y0201188D01*
X0194372Y0200868D01*
X0194185Y0200544D01*
X0194005Y0200215D01*
X0193833Y0199882D01*
X0193670Y0199545D01*
X0193515Y0199204D01*
X0193368Y0198860D01*
X0193230Y0198512D01*
X0180553Y0203768D02*
X0180553Y0223472D01*
X0080553Y0223768D01*
X0080553Y0203472D01*
X0010867Y0209299D02*
X0010869Y0209452D01*
X0010875Y0209606D01*
X0010885Y0209759D01*
X0010899Y0209911D01*
X0010917Y0210064D01*
X0010939Y0210215D01*
X0010964Y0210366D01*
X0010994Y0210517D01*
X0011028Y0210667D01*
X0011065Y0210815D01*
X0011106Y0210963D01*
X0011151Y0211109D01*
X0011200Y0211255D01*
X0011253Y0211399D01*
X0011309Y0211541D01*
X0011369Y0211682D01*
X0011433Y0211822D01*
X0011500Y0211960D01*
X0011571Y0212096D01*
X0011646Y0212230D01*
X0011723Y0212362D01*
X0011805Y0212492D01*
X0011889Y0212620D01*
X0011977Y0212746D01*
X0012068Y0212869D01*
X0012162Y0212990D01*
X0012260Y0213108D01*
X0012360Y0213224D01*
X0012464Y0213337D01*
X0012570Y0213448D01*
X0012679Y0213556D01*
X0012791Y0213661D01*
X0012905Y0213762D01*
X0013023Y0213861D01*
X0013142Y0213957D01*
X0013264Y0214050D01*
X0013389Y0214139D01*
X0013516Y0214226D01*
X0013645Y0214308D01*
X0013776Y0214388D01*
X0013909Y0214464D01*
X0014044Y0214537D01*
X0014181Y0214606D01*
X0014320Y0214671D01*
X0014460Y0214733D01*
X0014602Y0214791D01*
X0014745Y0214846D01*
X0014890Y0214897D01*
X0015036Y0214944D01*
X0015183Y0214987D01*
X0015331Y0215026D01*
X0015480Y0215062D01*
X0015630Y0215093D01*
X0015781Y0215121D01*
X0015932Y0215145D01*
X0016085Y0215165D01*
X0016237Y0215181D01*
X0016390Y0215193D01*
X0016543Y0215201D01*
X0016696Y0215205D01*
X0016850Y0215205D01*
X0017003Y0215201D01*
X0017156Y0215193D01*
X0017309Y0215181D01*
X0017461Y0215165D01*
X0017614Y0215145D01*
X0017765Y0215121D01*
X0017916Y0215093D01*
X0018066Y0215062D01*
X0018215Y0215026D01*
X0018363Y0214987D01*
X0018510Y0214944D01*
X0018656Y0214897D01*
X0018801Y0214846D01*
X0018944Y0214791D01*
X0019086Y0214733D01*
X0019226Y0214671D01*
X0019365Y0214606D01*
X0019502Y0214537D01*
X0019637Y0214464D01*
X0019770Y0214388D01*
X0019901Y0214308D01*
X0020030Y0214226D01*
X0020157Y0214139D01*
X0020282Y0214050D01*
X0020404Y0213957D01*
X0020523Y0213861D01*
X0020641Y0213762D01*
X0020755Y0213661D01*
X0020867Y0213556D01*
X0020976Y0213448D01*
X0021082Y0213337D01*
X0021186Y0213224D01*
X0021286Y0213108D01*
X0021384Y0212990D01*
X0021478Y0212869D01*
X0021569Y0212746D01*
X0021657Y0212620D01*
X0021741Y0212492D01*
X0021823Y0212362D01*
X0021900Y0212230D01*
X0021975Y0212096D01*
X0022046Y0211960D01*
X0022113Y0211822D01*
X0022177Y0211682D01*
X0022237Y0211541D01*
X0022293Y0211399D01*
X0022346Y0211255D01*
X0022395Y0211109D01*
X0022440Y0210963D01*
X0022481Y0210815D01*
X0022518Y0210667D01*
X0022552Y0210517D01*
X0022582Y0210366D01*
X0022607Y0210215D01*
X0022629Y0210064D01*
X0022647Y0209911D01*
X0022661Y0209759D01*
X0022671Y0209606D01*
X0022677Y0209452D01*
X0022679Y0209299D01*
X0022677Y0209146D01*
X0022671Y0208992D01*
X0022661Y0208839D01*
X0022647Y0208687D01*
X0022629Y0208534D01*
X0022607Y0208383D01*
X0022582Y0208232D01*
X0022552Y0208081D01*
X0022518Y0207931D01*
X0022481Y0207783D01*
X0022440Y0207635D01*
X0022395Y0207489D01*
X0022346Y0207343D01*
X0022293Y0207199D01*
X0022237Y0207057D01*
X0022177Y0206916D01*
X0022113Y0206776D01*
X0022046Y0206638D01*
X0021975Y0206502D01*
X0021900Y0206368D01*
X0021823Y0206236D01*
X0021741Y0206106D01*
X0021657Y0205978D01*
X0021569Y0205852D01*
X0021478Y0205729D01*
X0021384Y0205608D01*
X0021286Y0205490D01*
X0021186Y0205374D01*
X0021082Y0205261D01*
X0020976Y0205150D01*
X0020867Y0205042D01*
X0020755Y0204937D01*
X0020641Y0204836D01*
X0020523Y0204737D01*
X0020404Y0204641D01*
X0020282Y0204548D01*
X0020157Y0204459D01*
X0020030Y0204372D01*
X0019901Y0204290D01*
X0019770Y0204210D01*
X0019637Y0204134D01*
X0019502Y0204061D01*
X0019365Y0203992D01*
X0019226Y0203927D01*
X0019086Y0203865D01*
X0018944Y0203807D01*
X0018801Y0203752D01*
X0018656Y0203701D01*
X0018510Y0203654D01*
X0018363Y0203611D01*
X0018215Y0203572D01*
X0018066Y0203536D01*
X0017916Y0203505D01*
X0017765Y0203477D01*
X0017614Y0203453D01*
X0017461Y0203433D01*
X0017309Y0203417D01*
X0017156Y0203405D01*
X0017003Y0203397D01*
X0016850Y0203393D01*
X0016696Y0203393D01*
X0016543Y0203397D01*
X0016390Y0203405D01*
X0016237Y0203417D01*
X0016085Y0203433D01*
X0015932Y0203453D01*
X0015781Y0203477D01*
X0015630Y0203505D01*
X0015480Y0203536D01*
X0015331Y0203572D01*
X0015183Y0203611D01*
X0015036Y0203654D01*
X0014890Y0203701D01*
X0014745Y0203752D01*
X0014602Y0203807D01*
X0014460Y0203865D01*
X0014320Y0203927D01*
X0014181Y0203992D01*
X0014044Y0204061D01*
X0013909Y0204134D01*
X0013776Y0204210D01*
X0013645Y0204290D01*
X0013516Y0204372D01*
X0013389Y0204459D01*
X0013264Y0204548D01*
X0013142Y0204641D01*
X0013023Y0204737D01*
X0012905Y0204836D01*
X0012791Y0204937D01*
X0012679Y0205042D01*
X0012570Y0205150D01*
X0012464Y0205261D01*
X0012360Y0205374D01*
X0012260Y0205490D01*
X0012162Y0205608D01*
X0012068Y0205729D01*
X0011977Y0205852D01*
X0011889Y0205978D01*
X0011805Y0206106D01*
X0011723Y0206236D01*
X0011646Y0206368D01*
X0011571Y0206502D01*
X0011500Y0206638D01*
X0011433Y0206776D01*
X0011369Y0206916D01*
X0011309Y0207057D01*
X0011253Y0207199D01*
X0011200Y0207343D01*
X0011151Y0207489D01*
X0011106Y0207635D01*
X0011065Y0207783D01*
X0011028Y0207931D01*
X0010994Y0208081D01*
X0010964Y0208232D01*
X0010939Y0208383D01*
X0010917Y0208534D01*
X0010899Y0208687D01*
X0010885Y0208839D01*
X0010875Y0208992D01*
X0010869Y0209146D01*
X0010867Y0209299D01*
X0036065Y0049535D02*
X0065592Y0049535D01*
X0069135Y0045992D01*
X0069135Y0038906D01*
X0069135Y0027094D02*
X0069135Y0020008D01*
X0065592Y0016465D01*
X0036065Y0016465D01*
X0036065Y0027094D01*
X0036065Y0038906D02*
X0036065Y0049535D01*
X0038230Y0027488D02*
X0038368Y0027140D01*
X0038515Y0026796D01*
X0038670Y0026455D01*
X0038833Y0026118D01*
X0039005Y0025785D01*
X0039185Y0025456D01*
X0039372Y0025132D01*
X0039567Y0024812D01*
X0039771Y0024498D01*
X0039981Y0024188D01*
X0040199Y0023884D01*
X0040425Y0023585D01*
X0040658Y0023291D01*
X0040897Y0023003D01*
X0041144Y0022722D01*
X0041398Y0022446D01*
X0041658Y0022177D01*
X0041924Y0021913D01*
X0042197Y0021657D01*
X0042476Y0021407D01*
X0042761Y0021164D01*
X0043052Y0020928D01*
X0043349Y0020700D01*
X0043651Y0020478D01*
X0043958Y0020264D01*
X0044271Y0020058D01*
X0044588Y0019859D01*
X0044910Y0019668D01*
X0045237Y0019485D01*
X0045568Y0019309D01*
X0045903Y0019142D01*
X0046242Y0018984D01*
X0046585Y0018833D01*
X0046932Y0018691D01*
X0047281Y0018557D01*
X0047634Y0018432D01*
X0047990Y0018316D01*
X0048349Y0018208D01*
X0048710Y0018109D01*
X0049074Y0018018D01*
X0049439Y0017937D01*
X0049807Y0017865D01*
X0050176Y0017801D01*
X0050546Y0017747D01*
X0050918Y0017701D01*
X0051291Y0017665D01*
X0051664Y0017637D01*
X0052038Y0017619D01*
X0052413Y0017610D01*
X0052787Y0017610D01*
X0053162Y0017619D01*
X0053536Y0017637D01*
X0053909Y0017665D01*
X0054282Y0017701D01*
X0054654Y0017747D01*
X0055024Y0017801D01*
X0055393Y0017865D01*
X0055761Y0017937D01*
X0056126Y0018018D01*
X0056490Y0018109D01*
X0056851Y0018208D01*
X0057210Y0018316D01*
X0057566Y0018432D01*
X0057919Y0018557D01*
X0058268Y0018691D01*
X0058615Y0018833D01*
X0058958Y0018984D01*
X0059297Y0019142D01*
X0059632Y0019309D01*
X0059963Y0019485D01*
X0060290Y0019668D01*
X0060612Y0019859D01*
X0060929Y0020058D01*
X0061242Y0020264D01*
X0061549Y0020478D01*
X0061851Y0020700D01*
X0062148Y0020928D01*
X0062439Y0021164D01*
X0062724Y0021407D01*
X0063003Y0021657D01*
X0063276Y0021913D01*
X0063542Y0022177D01*
X0063802Y0022446D01*
X0064056Y0022722D01*
X0064303Y0023003D01*
X0064542Y0023291D01*
X0064775Y0023585D01*
X0065001Y0023884D01*
X0065219Y0024188D01*
X0065429Y0024498D01*
X0065633Y0024812D01*
X0065828Y0025132D01*
X0066015Y0025456D01*
X0066195Y0025785D01*
X0066367Y0026118D01*
X0066530Y0026455D01*
X0066685Y0026796D01*
X0066832Y0027140D01*
X0066970Y0027488D01*
X0080553Y0022705D02*
X0080553Y0003000D01*
X0180553Y0002705D01*
X0180553Y0023000D01*
X0238426Y0017173D02*
X0238428Y0017326D01*
X0238434Y0017480D01*
X0238444Y0017633D01*
X0238458Y0017785D01*
X0238476Y0017938D01*
X0238498Y0018089D01*
X0238523Y0018240D01*
X0238553Y0018391D01*
X0238587Y0018541D01*
X0238624Y0018689D01*
X0238665Y0018837D01*
X0238710Y0018983D01*
X0238759Y0019129D01*
X0238812Y0019273D01*
X0238868Y0019415D01*
X0238928Y0019556D01*
X0238992Y0019696D01*
X0239059Y0019834D01*
X0239130Y0019970D01*
X0239205Y0020104D01*
X0239282Y0020236D01*
X0239364Y0020366D01*
X0239448Y0020494D01*
X0239536Y0020620D01*
X0239627Y0020743D01*
X0239721Y0020864D01*
X0239819Y0020982D01*
X0239919Y0021098D01*
X0240023Y0021211D01*
X0240129Y0021322D01*
X0240238Y0021430D01*
X0240350Y0021535D01*
X0240464Y0021636D01*
X0240582Y0021735D01*
X0240701Y0021831D01*
X0240823Y0021924D01*
X0240948Y0022013D01*
X0241075Y0022100D01*
X0241204Y0022182D01*
X0241335Y0022262D01*
X0241468Y0022338D01*
X0241603Y0022411D01*
X0241740Y0022480D01*
X0241879Y0022545D01*
X0242019Y0022607D01*
X0242161Y0022665D01*
X0242304Y0022720D01*
X0242449Y0022771D01*
X0242595Y0022818D01*
X0242742Y0022861D01*
X0242890Y0022900D01*
X0243039Y0022936D01*
X0243189Y0022967D01*
X0243340Y0022995D01*
X0243491Y0023019D01*
X0243644Y0023039D01*
X0243796Y0023055D01*
X0243949Y0023067D01*
X0244102Y0023075D01*
X0244255Y0023079D01*
X0244409Y0023079D01*
X0244562Y0023075D01*
X0244715Y0023067D01*
X0244868Y0023055D01*
X0245020Y0023039D01*
X0245173Y0023019D01*
X0245324Y0022995D01*
X0245475Y0022967D01*
X0245625Y0022936D01*
X0245774Y0022900D01*
X0245922Y0022861D01*
X0246069Y0022818D01*
X0246215Y0022771D01*
X0246360Y0022720D01*
X0246503Y0022665D01*
X0246645Y0022607D01*
X0246785Y0022545D01*
X0246924Y0022480D01*
X0247061Y0022411D01*
X0247196Y0022338D01*
X0247329Y0022262D01*
X0247460Y0022182D01*
X0247589Y0022100D01*
X0247716Y0022013D01*
X0247841Y0021924D01*
X0247963Y0021831D01*
X0248082Y0021735D01*
X0248200Y0021636D01*
X0248314Y0021535D01*
X0248426Y0021430D01*
X0248535Y0021322D01*
X0248641Y0021211D01*
X0248745Y0021098D01*
X0248845Y0020982D01*
X0248943Y0020864D01*
X0249037Y0020743D01*
X0249128Y0020620D01*
X0249216Y0020494D01*
X0249300Y0020366D01*
X0249382Y0020236D01*
X0249459Y0020104D01*
X0249534Y0019970D01*
X0249605Y0019834D01*
X0249672Y0019696D01*
X0249736Y0019556D01*
X0249796Y0019415D01*
X0249852Y0019273D01*
X0249905Y0019129D01*
X0249954Y0018983D01*
X0249999Y0018837D01*
X0250040Y0018689D01*
X0250077Y0018541D01*
X0250111Y0018391D01*
X0250141Y0018240D01*
X0250166Y0018089D01*
X0250188Y0017938D01*
X0250206Y0017785D01*
X0250220Y0017633D01*
X0250230Y0017480D01*
X0250236Y0017326D01*
X0250238Y0017173D01*
X0250236Y0017020D01*
X0250230Y0016866D01*
X0250220Y0016713D01*
X0250206Y0016561D01*
X0250188Y0016408D01*
X0250166Y0016257D01*
X0250141Y0016106D01*
X0250111Y0015955D01*
X0250077Y0015805D01*
X0250040Y0015657D01*
X0249999Y0015509D01*
X0249954Y0015363D01*
X0249905Y0015217D01*
X0249852Y0015073D01*
X0249796Y0014931D01*
X0249736Y0014790D01*
X0249672Y0014650D01*
X0249605Y0014512D01*
X0249534Y0014376D01*
X0249459Y0014242D01*
X0249382Y0014110D01*
X0249300Y0013980D01*
X0249216Y0013852D01*
X0249128Y0013726D01*
X0249037Y0013603D01*
X0248943Y0013482D01*
X0248845Y0013364D01*
X0248745Y0013248D01*
X0248641Y0013135D01*
X0248535Y0013024D01*
X0248426Y0012916D01*
X0248314Y0012811D01*
X0248200Y0012710D01*
X0248082Y0012611D01*
X0247963Y0012515D01*
X0247841Y0012422D01*
X0247716Y0012333D01*
X0247589Y0012246D01*
X0247460Y0012164D01*
X0247329Y0012084D01*
X0247196Y0012008D01*
X0247061Y0011935D01*
X0246924Y0011866D01*
X0246785Y0011801D01*
X0246645Y0011739D01*
X0246503Y0011681D01*
X0246360Y0011626D01*
X0246215Y0011575D01*
X0246069Y0011528D01*
X0245922Y0011485D01*
X0245774Y0011446D01*
X0245625Y0011410D01*
X0245475Y0011379D01*
X0245324Y0011351D01*
X0245173Y0011327D01*
X0245020Y0011307D01*
X0244868Y0011291D01*
X0244715Y0011279D01*
X0244562Y0011271D01*
X0244409Y0011267D01*
X0244255Y0011267D01*
X0244102Y0011271D01*
X0243949Y0011279D01*
X0243796Y0011291D01*
X0243644Y0011307D01*
X0243491Y0011327D01*
X0243340Y0011351D01*
X0243189Y0011379D01*
X0243039Y0011410D01*
X0242890Y0011446D01*
X0242742Y0011485D01*
X0242595Y0011528D01*
X0242449Y0011575D01*
X0242304Y0011626D01*
X0242161Y0011681D01*
X0242019Y0011739D01*
X0241879Y0011801D01*
X0241740Y0011866D01*
X0241603Y0011935D01*
X0241468Y0012008D01*
X0241335Y0012084D01*
X0241204Y0012164D01*
X0241075Y0012246D01*
X0240948Y0012333D01*
X0240823Y0012422D01*
X0240701Y0012515D01*
X0240582Y0012611D01*
X0240464Y0012710D01*
X0240350Y0012811D01*
X0240238Y0012916D01*
X0240129Y0013024D01*
X0240023Y0013135D01*
X0239919Y0013248D01*
X0239819Y0013364D01*
X0239721Y0013482D01*
X0239627Y0013603D01*
X0239536Y0013726D01*
X0239448Y0013852D01*
X0239364Y0013980D01*
X0239282Y0014110D01*
X0239205Y0014242D01*
X0239130Y0014376D01*
X0239059Y0014512D01*
X0238992Y0014650D01*
X0238928Y0014790D01*
X0238868Y0014931D01*
X0238812Y0015073D01*
X0238759Y0015217D01*
X0238710Y0015363D01*
X0238665Y0015509D01*
X0238624Y0015657D01*
X0238587Y0015805D01*
X0238553Y0015955D01*
X0238523Y0016106D01*
X0238498Y0016257D01*
X0238476Y0016408D01*
X0238458Y0016561D01*
X0238444Y0016713D01*
X0238434Y0016866D01*
X0238428Y0017020D01*
X0238426Y0017173D01*
X0066970Y0038512D02*
X0066832Y0038860D01*
X0066685Y0039204D01*
X0066530Y0039545D01*
X0066367Y0039882D01*
X0066195Y0040215D01*
X0066015Y0040544D01*
X0065828Y0040868D01*
X0065633Y0041188D01*
X0065429Y0041502D01*
X0065219Y0041812D01*
X0065001Y0042116D01*
X0064775Y0042415D01*
X0064542Y0042709D01*
X0064303Y0042997D01*
X0064056Y0043278D01*
X0063802Y0043554D01*
X0063542Y0043823D01*
X0063276Y0044087D01*
X0063003Y0044343D01*
X0062724Y0044593D01*
X0062439Y0044836D01*
X0062148Y0045072D01*
X0061851Y0045300D01*
X0061549Y0045522D01*
X0061242Y0045736D01*
X0060929Y0045942D01*
X0060612Y0046141D01*
X0060290Y0046332D01*
X0059963Y0046515D01*
X0059632Y0046691D01*
X0059297Y0046858D01*
X0058958Y0047016D01*
X0058615Y0047167D01*
X0058268Y0047309D01*
X0057919Y0047443D01*
X0057566Y0047568D01*
X0057210Y0047684D01*
X0056851Y0047792D01*
X0056490Y0047891D01*
X0056126Y0047982D01*
X0055761Y0048063D01*
X0055393Y0048135D01*
X0055024Y0048199D01*
X0054654Y0048253D01*
X0054282Y0048299D01*
X0053909Y0048335D01*
X0053536Y0048363D01*
X0053162Y0048381D01*
X0052787Y0048390D01*
X0052413Y0048390D01*
X0052038Y0048381D01*
X0051664Y0048363D01*
X0051291Y0048335D01*
X0050918Y0048299D01*
X0050546Y0048253D01*
X0050176Y0048199D01*
X0049807Y0048135D01*
X0049439Y0048063D01*
X0049074Y0047982D01*
X0048710Y0047891D01*
X0048349Y0047792D01*
X0047990Y0047684D01*
X0047634Y0047568D01*
X0047281Y0047443D01*
X0046932Y0047309D01*
X0046585Y0047167D01*
X0046242Y0047016D01*
X0045903Y0046858D01*
X0045568Y0046691D01*
X0045237Y0046515D01*
X0044910Y0046332D01*
X0044588Y0046141D01*
X0044271Y0045942D01*
X0043958Y0045736D01*
X0043651Y0045522D01*
X0043349Y0045300D01*
X0043052Y0045072D01*
X0042761Y0044836D01*
X0042476Y0044593D01*
X0042197Y0044343D01*
X0041924Y0044087D01*
X0041658Y0043823D01*
X0041398Y0043554D01*
X0041144Y0043278D01*
X0040897Y0042997D01*
X0040658Y0042709D01*
X0040425Y0042415D01*
X0040199Y0042116D01*
X0039981Y0041812D01*
X0039771Y0041502D01*
X0039567Y0041188D01*
X0039372Y0040868D01*
X0039185Y0040544D01*
X0039005Y0040215D01*
X0038833Y0039882D01*
X0038670Y0039545D01*
X0038515Y0039204D01*
X0038368Y0038860D01*
X0038230Y0038512D01*
X0010867Y0017173D02*
X0010869Y0017326D01*
X0010875Y0017480D01*
X0010885Y0017633D01*
X0010899Y0017785D01*
X0010917Y0017938D01*
X0010939Y0018089D01*
X0010964Y0018240D01*
X0010994Y0018391D01*
X0011028Y0018541D01*
X0011065Y0018689D01*
X0011106Y0018837D01*
X0011151Y0018983D01*
X0011200Y0019129D01*
X0011253Y0019273D01*
X0011309Y0019415D01*
X0011369Y0019556D01*
X0011433Y0019696D01*
X0011500Y0019834D01*
X0011571Y0019970D01*
X0011646Y0020104D01*
X0011723Y0020236D01*
X0011805Y0020366D01*
X0011889Y0020494D01*
X0011977Y0020620D01*
X0012068Y0020743D01*
X0012162Y0020864D01*
X0012260Y0020982D01*
X0012360Y0021098D01*
X0012464Y0021211D01*
X0012570Y0021322D01*
X0012679Y0021430D01*
X0012791Y0021535D01*
X0012905Y0021636D01*
X0013023Y0021735D01*
X0013142Y0021831D01*
X0013264Y0021924D01*
X0013389Y0022013D01*
X0013516Y0022100D01*
X0013645Y0022182D01*
X0013776Y0022262D01*
X0013909Y0022338D01*
X0014044Y0022411D01*
X0014181Y0022480D01*
X0014320Y0022545D01*
X0014460Y0022607D01*
X0014602Y0022665D01*
X0014745Y0022720D01*
X0014890Y0022771D01*
X0015036Y0022818D01*
X0015183Y0022861D01*
X0015331Y0022900D01*
X0015480Y0022936D01*
X0015630Y0022967D01*
X0015781Y0022995D01*
X0015932Y0023019D01*
X0016085Y0023039D01*
X0016237Y0023055D01*
X0016390Y0023067D01*
X0016543Y0023075D01*
X0016696Y0023079D01*
X0016850Y0023079D01*
X0017003Y0023075D01*
X0017156Y0023067D01*
X0017309Y0023055D01*
X0017461Y0023039D01*
X0017614Y0023019D01*
X0017765Y0022995D01*
X0017916Y0022967D01*
X0018066Y0022936D01*
X0018215Y0022900D01*
X0018363Y0022861D01*
X0018510Y0022818D01*
X0018656Y0022771D01*
X0018801Y0022720D01*
X0018944Y0022665D01*
X0019086Y0022607D01*
X0019226Y0022545D01*
X0019365Y0022480D01*
X0019502Y0022411D01*
X0019637Y0022338D01*
X0019770Y0022262D01*
X0019901Y0022182D01*
X0020030Y0022100D01*
X0020157Y0022013D01*
X0020282Y0021924D01*
X0020404Y0021831D01*
X0020523Y0021735D01*
X0020641Y0021636D01*
X0020755Y0021535D01*
X0020867Y0021430D01*
X0020976Y0021322D01*
X0021082Y0021211D01*
X0021186Y0021098D01*
X0021286Y0020982D01*
X0021384Y0020864D01*
X0021478Y0020743D01*
X0021569Y0020620D01*
X0021657Y0020494D01*
X0021741Y0020366D01*
X0021823Y0020236D01*
X0021900Y0020104D01*
X0021975Y0019970D01*
X0022046Y0019834D01*
X0022113Y0019696D01*
X0022177Y0019556D01*
X0022237Y0019415D01*
X0022293Y0019273D01*
X0022346Y0019129D01*
X0022395Y0018983D01*
X0022440Y0018837D01*
X0022481Y0018689D01*
X0022518Y0018541D01*
X0022552Y0018391D01*
X0022582Y0018240D01*
X0022607Y0018089D01*
X0022629Y0017938D01*
X0022647Y0017785D01*
X0022661Y0017633D01*
X0022671Y0017480D01*
X0022677Y0017326D01*
X0022679Y0017173D01*
X0022677Y0017020D01*
X0022671Y0016866D01*
X0022661Y0016713D01*
X0022647Y0016561D01*
X0022629Y0016408D01*
X0022607Y0016257D01*
X0022582Y0016106D01*
X0022552Y0015955D01*
X0022518Y0015805D01*
X0022481Y0015657D01*
X0022440Y0015509D01*
X0022395Y0015363D01*
X0022346Y0015217D01*
X0022293Y0015073D01*
X0022237Y0014931D01*
X0022177Y0014790D01*
X0022113Y0014650D01*
X0022046Y0014512D01*
X0021975Y0014376D01*
X0021900Y0014242D01*
X0021823Y0014110D01*
X0021741Y0013980D01*
X0021657Y0013852D01*
X0021569Y0013726D01*
X0021478Y0013603D01*
X0021384Y0013482D01*
X0021286Y0013364D01*
X0021186Y0013248D01*
X0021082Y0013135D01*
X0020976Y0013024D01*
X0020867Y0012916D01*
X0020755Y0012811D01*
X0020641Y0012710D01*
X0020523Y0012611D01*
X0020404Y0012515D01*
X0020282Y0012422D01*
X0020157Y0012333D01*
X0020030Y0012246D01*
X0019901Y0012164D01*
X0019770Y0012084D01*
X0019637Y0012008D01*
X0019502Y0011935D01*
X0019365Y0011866D01*
X0019226Y0011801D01*
X0019086Y0011739D01*
X0018944Y0011681D01*
X0018801Y0011626D01*
X0018656Y0011575D01*
X0018510Y0011528D01*
X0018363Y0011485D01*
X0018215Y0011446D01*
X0018066Y0011410D01*
X0017916Y0011379D01*
X0017765Y0011351D01*
X0017614Y0011327D01*
X0017461Y0011307D01*
X0017309Y0011291D01*
X0017156Y0011279D01*
X0017003Y0011271D01*
X0016850Y0011267D01*
X0016696Y0011267D01*
X0016543Y0011271D01*
X0016390Y0011279D01*
X0016237Y0011291D01*
X0016085Y0011307D01*
X0015932Y0011327D01*
X0015781Y0011351D01*
X0015630Y0011379D01*
X0015480Y0011410D01*
X0015331Y0011446D01*
X0015183Y0011485D01*
X0015036Y0011528D01*
X0014890Y0011575D01*
X0014745Y0011626D01*
X0014602Y0011681D01*
X0014460Y0011739D01*
X0014320Y0011801D01*
X0014181Y0011866D01*
X0014044Y0011935D01*
X0013909Y0012008D01*
X0013776Y0012084D01*
X0013645Y0012164D01*
X0013516Y0012246D01*
X0013389Y0012333D01*
X0013264Y0012422D01*
X0013142Y0012515D01*
X0013023Y0012611D01*
X0012905Y0012710D01*
X0012791Y0012811D01*
X0012679Y0012916D01*
X0012570Y0013024D01*
X0012464Y0013135D01*
X0012360Y0013248D01*
X0012260Y0013364D01*
X0012162Y0013482D01*
X0012068Y0013603D01*
X0011977Y0013726D01*
X0011889Y0013852D01*
X0011805Y0013980D01*
X0011723Y0014110D01*
X0011646Y0014242D01*
X0011571Y0014376D01*
X0011500Y0014512D01*
X0011433Y0014650D01*
X0011369Y0014790D01*
X0011309Y0014931D01*
X0011253Y0015073D01*
X0011200Y0015217D01*
X0011151Y0015363D01*
X0011106Y0015509D01*
X0011065Y0015657D01*
X0011028Y0015805D01*
X0010994Y0015955D01*
X0010964Y0016106D01*
X0010939Y0016257D01*
X0010917Y0016408D01*
X0010899Y0016561D01*
X0010885Y0016713D01*
X0010875Y0016866D01*
X0010869Y0017020D01*
X0010867Y0017173D01*
X0193230Y0187488D02*
X0193368Y0187140D01*
X0193515Y0186796D01*
X0193670Y0186455D01*
X0193833Y0186118D01*
X0194005Y0185785D01*
X0194185Y0185456D01*
X0194372Y0185132D01*
X0194567Y0184812D01*
X0194771Y0184498D01*
X0194981Y0184188D01*
X0195199Y0183884D01*
X0195425Y0183585D01*
X0195658Y0183291D01*
X0195897Y0183003D01*
X0196144Y0182722D01*
X0196398Y0182446D01*
X0196658Y0182177D01*
X0196924Y0181913D01*
X0197197Y0181657D01*
X0197476Y0181407D01*
X0197761Y0181164D01*
X0198052Y0180928D01*
X0198349Y0180700D01*
X0198651Y0180478D01*
X0198958Y0180264D01*
X0199271Y0180058D01*
X0199588Y0179859D01*
X0199910Y0179668D01*
X0200237Y0179485D01*
X0200568Y0179309D01*
X0200903Y0179142D01*
X0201242Y0178984D01*
X0201585Y0178833D01*
X0201932Y0178691D01*
X0202281Y0178557D01*
X0202634Y0178432D01*
X0202990Y0178316D01*
X0203349Y0178208D01*
X0203710Y0178109D01*
X0204074Y0178018D01*
X0204439Y0177937D01*
X0204807Y0177865D01*
X0205176Y0177801D01*
X0205546Y0177747D01*
X0205918Y0177701D01*
X0206291Y0177665D01*
X0206664Y0177637D01*
X0207038Y0177619D01*
X0207413Y0177610D01*
X0207787Y0177610D01*
X0208162Y0177619D01*
X0208536Y0177637D01*
X0208909Y0177665D01*
X0209282Y0177701D01*
X0209654Y0177747D01*
X0210024Y0177801D01*
X0210393Y0177865D01*
X0210761Y0177937D01*
X0211126Y0178018D01*
X0211490Y0178109D01*
X0211851Y0178208D01*
X0212210Y0178316D01*
X0212566Y0178432D01*
X0212919Y0178557D01*
X0213268Y0178691D01*
X0213615Y0178833D01*
X0213958Y0178984D01*
X0214297Y0179142D01*
X0214632Y0179309D01*
X0214963Y0179485D01*
X0215290Y0179668D01*
X0215612Y0179859D01*
X0215929Y0180058D01*
X0216242Y0180264D01*
X0216549Y0180478D01*
X0216851Y0180700D01*
X0217148Y0180928D01*
X0217439Y0181164D01*
X0217724Y0181407D01*
X0218003Y0181657D01*
X0218276Y0181913D01*
X0218542Y0182177D01*
X0218802Y0182446D01*
X0219056Y0182722D01*
X0219303Y0183003D01*
X0219542Y0183291D01*
X0219775Y0183585D01*
X0220001Y0183884D01*
X0220219Y0184188D01*
X0220429Y0184498D01*
X0220633Y0184812D01*
X0220828Y0185132D01*
X0221015Y0185456D01*
X0221195Y0185785D01*
X0221367Y0186118D01*
X0221530Y0186455D01*
X0221685Y0186796D01*
X0221832Y0187140D01*
X0221970Y0187488D01*
X0238426Y0209299D02*
X0238428Y0209452D01*
X0238434Y0209606D01*
X0238444Y0209759D01*
X0238458Y0209911D01*
X0238476Y0210064D01*
X0238498Y0210215D01*
X0238523Y0210366D01*
X0238553Y0210517D01*
X0238587Y0210667D01*
X0238624Y0210815D01*
X0238665Y0210963D01*
X0238710Y0211109D01*
X0238759Y0211255D01*
X0238812Y0211399D01*
X0238868Y0211541D01*
X0238928Y0211682D01*
X0238992Y0211822D01*
X0239059Y0211960D01*
X0239130Y0212096D01*
X0239205Y0212230D01*
X0239282Y0212362D01*
X0239364Y0212492D01*
X0239448Y0212620D01*
X0239536Y0212746D01*
X0239627Y0212869D01*
X0239721Y0212990D01*
X0239819Y0213108D01*
X0239919Y0213224D01*
X0240023Y0213337D01*
X0240129Y0213448D01*
X0240238Y0213556D01*
X0240350Y0213661D01*
X0240464Y0213762D01*
X0240582Y0213861D01*
X0240701Y0213957D01*
X0240823Y0214050D01*
X0240948Y0214139D01*
X0241075Y0214226D01*
X0241204Y0214308D01*
X0241335Y0214388D01*
X0241468Y0214464D01*
X0241603Y0214537D01*
X0241740Y0214606D01*
X0241879Y0214671D01*
X0242019Y0214733D01*
X0242161Y0214791D01*
X0242304Y0214846D01*
X0242449Y0214897D01*
X0242595Y0214944D01*
X0242742Y0214987D01*
X0242890Y0215026D01*
X0243039Y0215062D01*
X0243189Y0215093D01*
X0243340Y0215121D01*
X0243491Y0215145D01*
X0243644Y0215165D01*
X0243796Y0215181D01*
X0243949Y0215193D01*
X0244102Y0215201D01*
X0244255Y0215205D01*
X0244409Y0215205D01*
X0244562Y0215201D01*
X0244715Y0215193D01*
X0244868Y0215181D01*
X0245020Y0215165D01*
X0245173Y0215145D01*
X0245324Y0215121D01*
X0245475Y0215093D01*
X0245625Y0215062D01*
X0245774Y0215026D01*
X0245922Y0214987D01*
X0246069Y0214944D01*
X0246215Y0214897D01*
X0246360Y0214846D01*
X0246503Y0214791D01*
X0246645Y0214733D01*
X0246785Y0214671D01*
X0246924Y0214606D01*
X0247061Y0214537D01*
X0247196Y0214464D01*
X0247329Y0214388D01*
X0247460Y0214308D01*
X0247589Y0214226D01*
X0247716Y0214139D01*
X0247841Y0214050D01*
X0247963Y0213957D01*
X0248082Y0213861D01*
X0248200Y0213762D01*
X0248314Y0213661D01*
X0248426Y0213556D01*
X0248535Y0213448D01*
X0248641Y0213337D01*
X0248745Y0213224D01*
X0248845Y0213108D01*
X0248943Y0212990D01*
X0249037Y0212869D01*
X0249128Y0212746D01*
X0249216Y0212620D01*
X0249300Y0212492D01*
X0249382Y0212362D01*
X0249459Y0212230D01*
X0249534Y0212096D01*
X0249605Y0211960D01*
X0249672Y0211822D01*
X0249736Y0211682D01*
X0249796Y0211541D01*
X0249852Y0211399D01*
X0249905Y0211255D01*
X0249954Y0211109D01*
X0249999Y0210963D01*
X0250040Y0210815D01*
X0250077Y0210667D01*
X0250111Y0210517D01*
X0250141Y0210366D01*
X0250166Y0210215D01*
X0250188Y0210064D01*
X0250206Y0209911D01*
X0250220Y0209759D01*
X0250230Y0209606D01*
X0250236Y0209452D01*
X0250238Y0209299D01*
X0250236Y0209146D01*
X0250230Y0208992D01*
X0250220Y0208839D01*
X0250206Y0208687D01*
X0250188Y0208534D01*
X0250166Y0208383D01*
X0250141Y0208232D01*
X0250111Y0208081D01*
X0250077Y0207931D01*
X0250040Y0207783D01*
X0249999Y0207635D01*
X0249954Y0207489D01*
X0249905Y0207343D01*
X0249852Y0207199D01*
X0249796Y0207057D01*
X0249736Y0206916D01*
X0249672Y0206776D01*
X0249605Y0206638D01*
X0249534Y0206502D01*
X0249459Y0206368D01*
X0249382Y0206236D01*
X0249300Y0206106D01*
X0249216Y0205978D01*
X0249128Y0205852D01*
X0249037Y0205729D01*
X0248943Y0205608D01*
X0248845Y0205490D01*
X0248745Y0205374D01*
X0248641Y0205261D01*
X0248535Y0205150D01*
X0248426Y0205042D01*
X0248314Y0204937D01*
X0248200Y0204836D01*
X0248082Y0204737D01*
X0247963Y0204641D01*
X0247841Y0204548D01*
X0247716Y0204459D01*
X0247589Y0204372D01*
X0247460Y0204290D01*
X0247329Y0204210D01*
X0247196Y0204134D01*
X0247061Y0204061D01*
X0246924Y0203992D01*
X0246785Y0203927D01*
X0246645Y0203865D01*
X0246503Y0203807D01*
X0246360Y0203752D01*
X0246215Y0203701D01*
X0246069Y0203654D01*
X0245922Y0203611D01*
X0245774Y0203572D01*
X0245625Y0203536D01*
X0245475Y0203505D01*
X0245324Y0203477D01*
X0245173Y0203453D01*
X0245020Y0203433D01*
X0244868Y0203417D01*
X0244715Y0203405D01*
X0244562Y0203397D01*
X0244409Y0203393D01*
X0244255Y0203393D01*
X0244102Y0203397D01*
X0243949Y0203405D01*
X0243796Y0203417D01*
X0243644Y0203433D01*
X0243491Y0203453D01*
X0243340Y0203477D01*
X0243189Y0203505D01*
X0243039Y0203536D01*
X0242890Y0203572D01*
X0242742Y0203611D01*
X0242595Y0203654D01*
X0242449Y0203701D01*
X0242304Y0203752D01*
X0242161Y0203807D01*
X0242019Y0203865D01*
X0241879Y0203927D01*
X0241740Y0203992D01*
X0241603Y0204061D01*
X0241468Y0204134D01*
X0241335Y0204210D01*
X0241204Y0204290D01*
X0241075Y0204372D01*
X0240948Y0204459D01*
X0240823Y0204548D01*
X0240701Y0204641D01*
X0240582Y0204737D01*
X0240464Y0204836D01*
X0240350Y0204937D01*
X0240238Y0205042D01*
X0240129Y0205150D01*
X0240023Y0205261D01*
X0239919Y0205374D01*
X0239819Y0205490D01*
X0239721Y0205608D01*
X0239627Y0205729D01*
X0239536Y0205852D01*
X0239448Y0205978D01*
X0239364Y0206106D01*
X0239282Y0206236D01*
X0239205Y0206368D01*
X0239130Y0206502D01*
X0239059Y0206638D01*
X0238992Y0206776D01*
X0238928Y0206916D01*
X0238868Y0207057D01*
X0238812Y0207199D01*
X0238759Y0207343D01*
X0238710Y0207489D01*
X0238665Y0207635D01*
X0238624Y0207783D01*
X0238587Y0207931D01*
X0238553Y0208081D01*
X0238523Y0208232D01*
X0238498Y0208383D01*
X0238476Y0208534D01*
X0238458Y0208687D01*
X0238444Y0208839D01*
X0238434Y0208992D01*
X0238428Y0209146D01*
X0238426Y0209299D01*
D12*
X0235850Y0144105D02*
X0229745Y0144105D01*
X0231780Y0144105D02*
X0231780Y0141052D01*
X0232797Y0140035D01*
X0234832Y0140035D01*
X0235850Y0141052D01*
X0235850Y0144105D01*
X0231780Y0138023D02*
X0231780Y0137005D01*
X0233815Y0134970D01*
X0233815Y0132963D02*
X0233815Y0129911D01*
X0234832Y0128893D01*
X0235850Y0129911D01*
X0235850Y0132963D01*
X0232797Y0132963D01*
X0231780Y0131946D01*
X0231780Y0129911D01*
X0232797Y0126886D02*
X0231780Y0125869D01*
X0231780Y0123834D01*
X0232797Y0122816D01*
X0234832Y0122816D01*
X0235850Y0123834D01*
X0235850Y0125869D01*
X0234832Y0126886D01*
X0232797Y0126886D01*
X0231780Y0120809D02*
X0232797Y0119791D01*
X0232797Y0116739D01*
X0229745Y0116739D02*
X0235850Y0116739D01*
X0235850Y0119791D01*
X0234832Y0120809D01*
X0233815Y0120809D01*
X0232797Y0119791D01*
X0231780Y0120809D02*
X0230762Y0120809D01*
X0229745Y0119791D01*
X0229745Y0116739D01*
X0231780Y0108650D02*
X0231780Y0107632D01*
X0233815Y0105597D01*
X0233815Y0103590D02*
X0233815Y0099520D01*
X0234832Y0099520D02*
X0232797Y0099520D01*
X0231780Y0100538D01*
X0231780Y0102573D01*
X0232797Y0103590D01*
X0233815Y0103590D01*
X0235850Y0102573D02*
X0235850Y0100538D01*
X0234832Y0099520D01*
X0231780Y0097513D02*
X0235850Y0095478D01*
X0231780Y0093443D01*
X0231780Y0090409D02*
X0235850Y0090409D01*
X0235850Y0089392D02*
X0235850Y0091427D01*
X0231780Y0090409D02*
X0231780Y0089392D01*
X0231780Y0087380D02*
X0231780Y0086362D01*
X0233815Y0084327D01*
X0235850Y0084327D02*
X0231780Y0084327D01*
X0230762Y0082320D02*
X0229745Y0081303D01*
X0229745Y0078250D01*
X0235850Y0078250D01*
X0235850Y0081303D01*
X0234832Y0082320D01*
X0230762Y0082320D01*
X0229745Y0090409D02*
X0228727Y0090409D01*
X0231780Y0105597D02*
X0235850Y0105597D01*
X0204608Y0106543D02*
X0204608Y0119929D01*
X0178545Y0119929D01*
X0178545Y0106543D01*
X0204608Y0106543D01*
X0205750Y0117961D02*
X0202600Y0121110D01*
X0202600Y0121504D01*
X0205356Y0121504D01*
X0205750Y0121110D01*
X0205750Y0117961D01*
X0205750Y0118156D02*
X0205554Y0118156D01*
X0205750Y0118655D02*
X0205056Y0118655D01*
X0204557Y0119153D02*
X0205750Y0119153D01*
X0205750Y0119652D02*
X0204059Y0119652D01*
X0203560Y0120150D02*
X0205750Y0120150D01*
X0205750Y0120649D02*
X0203062Y0120649D01*
X0202600Y0121147D02*
X0205713Y0121147D01*
X0231780Y0134970D02*
X0235850Y0134970D01*
X0184313Y0088000D02*
X0184315Y0088056D01*
X0184321Y0088111D01*
X0184331Y0088165D01*
X0184344Y0088219D01*
X0184362Y0088272D01*
X0184383Y0088323D01*
X0184407Y0088373D01*
X0184435Y0088421D01*
X0184467Y0088467D01*
X0184501Y0088511D01*
X0184539Y0088552D01*
X0184579Y0088590D01*
X0184622Y0088625D01*
X0184667Y0088657D01*
X0184715Y0088686D01*
X0184764Y0088712D01*
X0184815Y0088734D01*
X0184867Y0088752D01*
X0184921Y0088766D01*
X0184976Y0088777D01*
X0185031Y0088784D01*
X0185086Y0088787D01*
X0185142Y0088786D01*
X0185197Y0088781D01*
X0185252Y0088772D01*
X0185306Y0088760D01*
X0185359Y0088743D01*
X0185411Y0088723D01*
X0185461Y0088699D01*
X0185509Y0088672D01*
X0185556Y0088642D01*
X0185600Y0088608D01*
X0185642Y0088571D01*
X0185680Y0088531D01*
X0185717Y0088489D01*
X0185750Y0088444D01*
X0185779Y0088398D01*
X0185806Y0088349D01*
X0185828Y0088298D01*
X0185848Y0088246D01*
X0185863Y0088192D01*
X0185875Y0088138D01*
X0185883Y0088083D01*
X0185887Y0088028D01*
X0185887Y0087972D01*
X0185883Y0087917D01*
X0185875Y0087862D01*
X0185863Y0087808D01*
X0185848Y0087754D01*
X0185828Y0087702D01*
X0185806Y0087651D01*
X0185779Y0087602D01*
X0185750Y0087556D01*
X0185717Y0087511D01*
X0185680Y0087469D01*
X0185642Y0087429D01*
X0185600Y0087392D01*
X0185556Y0087358D01*
X0185509Y0087328D01*
X0185461Y0087301D01*
X0185411Y0087277D01*
X0185359Y0087257D01*
X0185306Y0087240D01*
X0185252Y0087228D01*
X0185197Y0087219D01*
X0185142Y0087214D01*
X0185086Y0087213D01*
X0185031Y0087216D01*
X0184976Y0087223D01*
X0184921Y0087234D01*
X0184867Y0087248D01*
X0184815Y0087266D01*
X0184764Y0087288D01*
X0184715Y0087314D01*
X0184667Y0087343D01*
X0184622Y0087375D01*
X0184579Y0087410D01*
X0184539Y0087448D01*
X0184501Y0087489D01*
X0184467Y0087533D01*
X0184435Y0087579D01*
X0184407Y0087627D01*
X0184383Y0087677D01*
X0184362Y0087728D01*
X0184344Y0087781D01*
X0184331Y0087835D01*
X0184321Y0087889D01*
X0184315Y0087944D01*
X0184313Y0088000D01*
X0185100Y0085500D02*
X0185100Y0083500D01*
X0185100Y0085500D02*
X0200100Y0085500D01*
X0200100Y0083500D01*
X0200100Y0072500D02*
X0200100Y0070500D01*
X0185100Y0070500D01*
X0185100Y0072500D01*
X0154175Y0023000D02*
X0106931Y0023000D01*
X0082561Y0106543D02*
X0056498Y0106543D01*
X0056498Y0119929D01*
X0082561Y0119929D01*
X0082561Y0106543D01*
X0083702Y0117961D02*
X0080553Y0121110D01*
X0080553Y0121504D01*
X0083309Y0121504D01*
X0083702Y0121110D01*
X0083702Y0117961D01*
X0083702Y0118156D02*
X0083507Y0118156D01*
X0083702Y0118655D02*
X0083008Y0118655D01*
X0082510Y0119153D02*
X0083702Y0119153D01*
X0083702Y0119652D02*
X0082011Y0119652D01*
X0081513Y0120150D02*
X0083702Y0120150D01*
X0083702Y0120649D02*
X0081014Y0120649D01*
X0080553Y0121147D02*
X0083665Y0121147D01*
X0077443Y0191858D02*
X0038072Y0191858D01*
X0038072Y0223748D01*
X0077443Y0223748D01*
X0077443Y0191858D01*
X0106931Y0203472D02*
X0154175Y0203472D01*
D13*
X0149472Y0207172D02*
X0148271Y0208373D01*
X0148871Y0208373D02*
X0147070Y0208373D01*
X0147070Y0207172D02*
X0147070Y0210776D01*
X0148871Y0210776D01*
X0149472Y0210175D01*
X0149472Y0208974D01*
X0148871Y0208373D01*
X0145789Y0207172D02*
X0145789Y0210776D01*
X0143386Y0210776D02*
X0143386Y0207172D01*
X0144587Y0208373D01*
X0145789Y0207172D01*
X0142105Y0208974D02*
X0141505Y0208373D01*
X0139703Y0208373D01*
X0139703Y0207172D02*
X0139703Y0210776D01*
X0141505Y0210776D01*
X0142105Y0210175D01*
X0142105Y0208974D01*
X0133871Y0199752D02*
X0132670Y0199752D01*
X0132070Y0199151D01*
X0130788Y0199151D02*
X0130188Y0199752D01*
X0128987Y0199752D01*
X0128386Y0199151D01*
X0128386Y0196749D01*
X0128987Y0196149D01*
X0130188Y0196149D01*
X0130788Y0196749D01*
X0132070Y0196149D02*
X0134472Y0198551D01*
X0134472Y0199151D01*
X0133871Y0199752D01*
X0134472Y0196149D02*
X0132070Y0196149D01*
X0127105Y0196749D02*
X0126505Y0196149D01*
X0125304Y0196149D01*
X0124703Y0196749D01*
X0125304Y0197950D02*
X0126505Y0197950D01*
X0127105Y0197350D01*
X0127105Y0196749D01*
X0125304Y0197950D02*
X0124703Y0198551D01*
X0124703Y0199151D01*
X0125304Y0199752D01*
X0126505Y0199752D01*
X0127105Y0199151D01*
X0123422Y0199752D02*
X0121020Y0199752D01*
X0121020Y0196149D01*
X0123422Y0196149D01*
X0122221Y0197950D02*
X0121020Y0197950D01*
X0118871Y0207172D02*
X0117070Y0207172D01*
X0117070Y0210776D01*
X0118871Y0210776D01*
X0119472Y0210175D01*
X0119472Y0207773D01*
X0118871Y0207172D01*
X0115789Y0207172D02*
X0115789Y0210776D01*
X0113386Y0210776D02*
X0115789Y0207172D01*
X0113386Y0207172D02*
X0113386Y0210776D01*
X0112105Y0210175D02*
X0111505Y0210776D01*
X0110304Y0210776D01*
X0109703Y0210175D01*
X0109703Y0207773D01*
X0110304Y0207172D01*
X0111505Y0207172D01*
X0112105Y0207773D01*
X0112105Y0208974D01*
X0110904Y0208974D01*
X0061726Y0222646D02*
X0058657Y0222646D01*
X0060191Y0222646D02*
X0060191Y0218043D01*
X0057122Y0218043D02*
X0057122Y0222646D01*
X0054053Y0222646D02*
X0057122Y0218043D01*
X0054053Y0218043D02*
X0054053Y0222646D01*
X0052518Y0221879D02*
X0051751Y0222646D01*
X0050216Y0222646D01*
X0049449Y0221879D01*
X0049449Y0218810D01*
X0050216Y0218043D01*
X0051751Y0218043D01*
X0052518Y0218810D01*
X0052518Y0221879D01*
X0047914Y0221879D02*
X0047914Y0220344D01*
X0047147Y0219577D01*
X0044845Y0219577D01*
X0044845Y0218043D02*
X0044845Y0222646D01*
X0047147Y0222646D01*
X0047914Y0221879D01*
X0046380Y0219577D02*
X0047914Y0218043D01*
X0043310Y0222646D02*
X0040241Y0222646D01*
X0040241Y0218043D01*
X0040241Y0220344D02*
X0041776Y0220344D01*
X0040300Y0189904D02*
X0040300Y0186435D01*
X0042035Y0184700D01*
X0043770Y0186435D01*
X0043770Y0189904D01*
X0045456Y0189037D02*
X0045456Y0185567D01*
X0046324Y0184700D01*
X0048059Y0184700D01*
X0048926Y0185567D01*
X0050613Y0185567D02*
X0051480Y0184700D01*
X0053215Y0184700D01*
X0054082Y0185567D01*
X0050613Y0185567D02*
X0050613Y0189037D01*
X0051480Y0189904D01*
X0053215Y0189904D01*
X0054082Y0189037D01*
X0048926Y0189037D02*
X0048059Y0189904D01*
X0046324Y0189904D01*
X0045456Y0189037D01*
X0063126Y0104772D02*
X0063126Y0101169D01*
X0065529Y0101169D01*
X0066810Y0101169D02*
X0069212Y0101169D01*
X0070493Y0101169D02*
X0072294Y0101169D01*
X0072895Y0101769D01*
X0072895Y0104171D01*
X0072294Y0104772D01*
X0070493Y0104772D01*
X0070493Y0101169D01*
X0068011Y0102970D02*
X0066810Y0102970D01*
X0066810Y0101169D02*
X0066810Y0104772D01*
X0069212Y0104772D01*
X0074176Y0103571D02*
X0075377Y0104772D01*
X0075377Y0101169D01*
X0074176Y0101169D02*
X0076578Y0101169D01*
X0123253Y0030327D02*
X0123253Y0026724D01*
X0125655Y0026724D01*
X0126936Y0027324D02*
X0127536Y0026724D01*
X0128737Y0026724D01*
X0129338Y0027324D01*
X0129338Y0027925D01*
X0128737Y0028525D01*
X0127536Y0028525D01*
X0126936Y0029126D01*
X0126936Y0029726D01*
X0127536Y0030327D01*
X0128737Y0030327D01*
X0129338Y0029726D01*
X0130619Y0029726D02*
X0130619Y0027324D01*
X0131220Y0026724D01*
X0132421Y0026724D01*
X0133021Y0027324D01*
X0134302Y0026724D02*
X0136704Y0026724D01*
X0135503Y0026724D02*
X0135503Y0030327D01*
X0134302Y0029126D01*
X0133021Y0029726D02*
X0132421Y0030327D01*
X0131220Y0030327D01*
X0130619Y0029726D01*
X0125655Y0030327D02*
X0123253Y0030327D01*
X0123253Y0028525D02*
X0124454Y0028525D01*
X0119921Y0019303D02*
X0120521Y0018703D01*
X0120521Y0017502D01*
X0119921Y0016901D01*
X0118119Y0016901D01*
X0118119Y0015700D02*
X0118119Y0019303D01*
X0119921Y0019303D01*
X0119320Y0016901D02*
X0120521Y0015700D01*
X0116838Y0015700D02*
X0116838Y0019303D01*
X0114436Y0019303D02*
X0114436Y0015700D01*
X0115637Y0016901D01*
X0116838Y0015700D01*
X0113155Y0017502D02*
X0112554Y0016901D01*
X0110753Y0016901D01*
X0110753Y0015700D02*
X0110753Y0019303D01*
X0112554Y0019303D01*
X0113155Y0018703D01*
X0113155Y0017502D01*
X0140753Y0018703D02*
X0140753Y0016301D01*
X0141353Y0015700D01*
X0142554Y0015700D01*
X0143155Y0016301D01*
X0143155Y0017502D01*
X0141954Y0017502D01*
X0143155Y0018703D02*
X0142554Y0019303D01*
X0141353Y0019303D01*
X0140753Y0018703D01*
X0144436Y0019303D02*
X0144436Y0015700D01*
X0146838Y0015700D02*
X0146838Y0019303D01*
X0148119Y0019303D02*
X0149921Y0019303D01*
X0150521Y0018703D01*
X0150521Y0016301D01*
X0149921Y0015700D01*
X0148119Y0015700D01*
X0148119Y0019303D01*
X0144436Y0019303D02*
X0146838Y0015700D01*
X0188401Y0065700D02*
X0187800Y0066301D01*
X0187800Y0069303D01*
X0190202Y0069303D02*
X0190202Y0066301D01*
X0189602Y0065700D01*
X0188401Y0065700D01*
X0191483Y0065700D02*
X0193885Y0065700D01*
X0192684Y0065700D02*
X0192684Y0069303D01*
X0191483Y0068102D01*
X0211573Y0065919D02*
X0212774Y0064718D01*
X0212173Y0063437D02*
X0214575Y0063437D01*
X0215176Y0062836D01*
X0215176Y0061635D01*
X0214575Y0061035D01*
X0212173Y0061035D01*
X0211573Y0061635D01*
X0211573Y0062836D01*
X0212173Y0063437D01*
X0213975Y0062236D02*
X0215176Y0063437D01*
X0215176Y0064718D02*
X0215176Y0067120D01*
X0215176Y0065919D02*
X0211573Y0065919D01*
X0240696Y0078200D02*
X0240696Y0080802D01*
X0241563Y0081670D01*
X0243298Y0081670D01*
X0244165Y0080802D01*
X0244165Y0078200D01*
X0244165Y0079935D02*
X0245900Y0081670D01*
X0245033Y0083356D02*
X0245900Y0084224D01*
X0245900Y0085959D01*
X0244165Y0086826D02*
X0244165Y0083356D01*
X0243298Y0083356D02*
X0242430Y0084224D01*
X0242430Y0085959D01*
X0243298Y0086826D01*
X0244165Y0086826D01*
X0242430Y0088513D02*
X0245900Y0090248D01*
X0242430Y0091982D01*
X0245033Y0093669D02*
X0245033Y0094537D01*
X0245900Y0094537D01*
X0245900Y0093669D01*
X0245033Y0093669D01*
X0245033Y0096247D02*
X0241563Y0096247D01*
X0240696Y0097115D01*
X0240696Y0098850D01*
X0241563Y0099717D01*
X0245033Y0096247D01*
X0245900Y0097115D01*
X0245900Y0098850D01*
X0245033Y0099717D01*
X0241563Y0099717D01*
X0245033Y0101404D02*
X0245033Y0102271D01*
X0245900Y0102271D01*
X0245900Y0101404D01*
X0245033Y0101404D01*
X0245900Y0103982D02*
X0245900Y0107452D01*
X0245900Y0105717D02*
X0240696Y0105717D01*
X0242430Y0103982D01*
X0243298Y0083356D02*
X0245033Y0083356D01*
X0245900Y0078200D02*
X0240696Y0078200D01*
X0198625Y0101169D02*
X0196223Y0101169D01*
X0198625Y0103571D01*
X0198625Y0104171D01*
X0198025Y0104772D01*
X0196824Y0104772D01*
X0196223Y0104171D01*
X0194942Y0104171D02*
X0194942Y0101769D01*
X0194342Y0101169D01*
X0192540Y0101169D01*
X0192540Y0104772D01*
X0194342Y0104772D01*
X0194942Y0104171D01*
X0191259Y0104772D02*
X0188857Y0104772D01*
X0188857Y0101169D01*
X0191259Y0101169D01*
X0190058Y0102970D02*
X0188857Y0102970D01*
X0187576Y0101169D02*
X0185174Y0101169D01*
X0185174Y0104772D01*
X0215752Y0010603D02*
X0216953Y0010603D01*
X0216352Y0010603D02*
X0216352Y0007601D01*
X0215752Y0007000D01*
X0215151Y0007000D01*
X0214551Y0007601D01*
X0218234Y0008201D02*
X0220035Y0008201D01*
X0220636Y0008802D01*
X0220636Y0010003D01*
X0220035Y0010603D01*
X0218234Y0010603D01*
X0218234Y0007000D01*
X0221917Y0007000D02*
X0224319Y0007000D01*
X0223118Y0007000D02*
X0223118Y0010603D01*
X0221917Y0009402D01*
D14*
X0225250Y0043150D02*
X0225250Y0046853D01*
X0227102Y0046853D01*
X0227719Y0046236D01*
X0227719Y0045002D01*
X0227102Y0044384D01*
X0225250Y0044384D01*
X0226484Y0044384D02*
X0227719Y0043150D01*
X0228933Y0043767D02*
X0229550Y0043150D01*
X0230785Y0043150D01*
X0231402Y0043767D01*
X0231402Y0044384D01*
X0230785Y0045002D01*
X0230168Y0045002D01*
X0230785Y0045002D02*
X0231402Y0045619D01*
X0231402Y0046236D01*
X0230785Y0046853D01*
X0229550Y0046853D01*
X0228933Y0046236D01*
X0229067Y0051650D02*
X0231536Y0054119D01*
X0231536Y0054736D01*
X0230918Y0055353D01*
X0229684Y0055353D01*
X0229067Y0054736D01*
X0227852Y0054736D02*
X0227852Y0053502D01*
X0227235Y0052884D01*
X0225384Y0052884D01*
X0225384Y0051650D02*
X0225384Y0055353D01*
X0227235Y0055353D01*
X0227852Y0054736D01*
X0226618Y0052884D02*
X0227852Y0051650D01*
X0229067Y0051650D02*
X0231536Y0051650D01*
X0190859Y0087661D02*
X0190242Y0087044D01*
X0187773Y0087044D01*
X0187156Y0087661D01*
X0187156Y0088895D01*
X0187773Y0089512D01*
X0188391Y0090727D02*
X0187156Y0091961D01*
X0190859Y0091961D01*
X0190859Y0090727D02*
X0190859Y0093195D01*
X0190242Y0089512D02*
X0190859Y0088895D01*
X0190859Y0087661D01*
X0182450Y0061802D02*
X0182450Y0059333D01*
X0182450Y0058119D02*
X0181216Y0056884D01*
X0181216Y0057502D02*
X0181216Y0055650D01*
X0182450Y0055650D02*
X0178747Y0055650D01*
X0178747Y0057502D01*
X0179364Y0058119D01*
X0180598Y0058119D01*
X0181216Y0057502D01*
X0179981Y0059333D02*
X0178747Y0060568D01*
X0182450Y0060568D01*
X0217891Y0171315D02*
X0219125Y0171315D01*
X0219742Y0171933D01*
X0220957Y0171933D02*
X0221574Y0171315D01*
X0222808Y0171315D01*
X0223425Y0171933D01*
X0223425Y0172550D01*
X0222808Y0173167D01*
X0222191Y0173167D01*
X0222808Y0173167D02*
X0223425Y0173784D01*
X0223425Y0174401D01*
X0222808Y0175019D01*
X0221574Y0175019D01*
X0220957Y0174401D01*
X0219742Y0174401D02*
X0219125Y0175019D01*
X0217891Y0175019D01*
X0217273Y0174401D01*
X0217273Y0171933D01*
X0217891Y0171315D01*
X0042012Y0054071D02*
X0041395Y0054688D01*
X0040161Y0054688D01*
X0039543Y0054071D01*
X0038329Y0054071D02*
X0037712Y0054688D01*
X0036477Y0054688D01*
X0035860Y0054071D01*
X0035860Y0051602D01*
X0036477Y0050985D01*
X0037712Y0050985D01*
X0038329Y0051602D01*
X0039543Y0050985D02*
X0042012Y0053453D01*
X0042012Y0054071D01*
X0042012Y0050985D02*
X0039543Y0050985D01*
D15*
X0016773Y0028673D02*
X0016773Y0027673D01*
X0016773Y0006673D02*
X0016773Y0005673D01*
X0016773Y0197799D02*
X0016773Y0198799D01*
X0016773Y0219799D02*
X0016773Y0220799D01*
X0244332Y0220799D02*
X0244332Y0219799D01*
X0244332Y0198799D02*
X0244332Y0197799D01*
X0244332Y0028673D02*
X0244332Y0027673D01*
X0244332Y0006673D02*
X0244332Y0005673D01*
D16*
X0232832Y0017173D02*
X0232835Y0017455D01*
X0232846Y0017737D01*
X0232863Y0018019D01*
X0232887Y0018300D01*
X0232918Y0018581D01*
X0232956Y0018860D01*
X0233001Y0019139D01*
X0233053Y0019417D01*
X0233111Y0019693D01*
X0233177Y0019967D01*
X0233249Y0020240D01*
X0233327Y0020511D01*
X0233412Y0020780D01*
X0233504Y0021047D01*
X0233603Y0021312D01*
X0233707Y0021574D01*
X0233819Y0021833D01*
X0233936Y0022090D01*
X0234060Y0022344D01*
X0234190Y0022594D01*
X0234326Y0022841D01*
X0234468Y0023085D01*
X0234616Y0023325D01*
X0234770Y0023562D01*
X0234930Y0023795D01*
X0235095Y0024024D01*
X0235266Y0024248D01*
X0235442Y0024469D01*
X0235624Y0024684D01*
X0235811Y0024896D01*
X0236003Y0025103D01*
X0236200Y0025305D01*
X0236402Y0025502D01*
X0236609Y0025694D01*
X0236821Y0025881D01*
X0237036Y0026063D01*
X0237257Y0026239D01*
X0237481Y0026410D01*
X0237710Y0026575D01*
X0237943Y0026735D01*
X0238180Y0026889D01*
X0238420Y0027037D01*
X0238664Y0027179D01*
X0238911Y0027315D01*
X0239161Y0027445D01*
X0239415Y0027569D01*
X0239672Y0027686D01*
X0239931Y0027798D01*
X0240193Y0027902D01*
X0240458Y0028001D01*
X0240725Y0028093D01*
X0240994Y0028178D01*
X0241265Y0028256D01*
X0241538Y0028328D01*
X0241812Y0028394D01*
X0242088Y0028452D01*
X0242366Y0028504D01*
X0242645Y0028549D01*
X0242924Y0028587D01*
X0243205Y0028618D01*
X0243486Y0028642D01*
X0243768Y0028659D01*
X0244050Y0028670D01*
X0244332Y0028673D01*
X0244614Y0028670D01*
X0244896Y0028659D01*
X0245178Y0028642D01*
X0245459Y0028618D01*
X0245740Y0028587D01*
X0246019Y0028549D01*
X0246298Y0028504D01*
X0246576Y0028452D01*
X0246852Y0028394D01*
X0247126Y0028328D01*
X0247399Y0028256D01*
X0247670Y0028178D01*
X0247939Y0028093D01*
X0248206Y0028001D01*
X0248471Y0027902D01*
X0248733Y0027798D01*
X0248992Y0027686D01*
X0249249Y0027569D01*
X0249503Y0027445D01*
X0249753Y0027315D01*
X0250000Y0027179D01*
X0250244Y0027037D01*
X0250484Y0026889D01*
X0250721Y0026735D01*
X0250954Y0026575D01*
X0251183Y0026410D01*
X0251407Y0026239D01*
X0251628Y0026063D01*
X0251843Y0025881D01*
X0252055Y0025694D01*
X0252262Y0025502D01*
X0252464Y0025305D01*
X0252661Y0025103D01*
X0252853Y0024896D01*
X0253040Y0024684D01*
X0253222Y0024469D01*
X0253398Y0024248D01*
X0253569Y0024024D01*
X0253734Y0023795D01*
X0253894Y0023562D01*
X0254048Y0023325D01*
X0254196Y0023085D01*
X0254338Y0022841D01*
X0254474Y0022594D01*
X0254604Y0022344D01*
X0254728Y0022090D01*
X0254845Y0021833D01*
X0254957Y0021574D01*
X0255061Y0021312D01*
X0255160Y0021047D01*
X0255252Y0020780D01*
X0255337Y0020511D01*
X0255415Y0020240D01*
X0255487Y0019967D01*
X0255553Y0019693D01*
X0255611Y0019417D01*
X0255663Y0019139D01*
X0255708Y0018860D01*
X0255746Y0018581D01*
X0255777Y0018300D01*
X0255801Y0018019D01*
X0255818Y0017737D01*
X0255829Y0017455D01*
X0255832Y0017173D01*
X0255829Y0016891D01*
X0255818Y0016609D01*
X0255801Y0016327D01*
X0255777Y0016046D01*
X0255746Y0015765D01*
X0255708Y0015486D01*
X0255663Y0015207D01*
X0255611Y0014929D01*
X0255553Y0014653D01*
X0255487Y0014379D01*
X0255415Y0014106D01*
X0255337Y0013835D01*
X0255252Y0013566D01*
X0255160Y0013299D01*
X0255061Y0013034D01*
X0254957Y0012772D01*
X0254845Y0012513D01*
X0254728Y0012256D01*
X0254604Y0012002D01*
X0254474Y0011752D01*
X0254338Y0011505D01*
X0254196Y0011261D01*
X0254048Y0011021D01*
X0253894Y0010784D01*
X0253734Y0010551D01*
X0253569Y0010322D01*
X0253398Y0010098D01*
X0253222Y0009877D01*
X0253040Y0009662D01*
X0252853Y0009450D01*
X0252661Y0009243D01*
X0252464Y0009041D01*
X0252262Y0008844D01*
X0252055Y0008652D01*
X0251843Y0008465D01*
X0251628Y0008283D01*
X0251407Y0008107D01*
X0251183Y0007936D01*
X0250954Y0007771D01*
X0250721Y0007611D01*
X0250484Y0007457D01*
X0250244Y0007309D01*
X0250000Y0007167D01*
X0249753Y0007031D01*
X0249503Y0006901D01*
X0249249Y0006777D01*
X0248992Y0006660D01*
X0248733Y0006548D01*
X0248471Y0006444D01*
X0248206Y0006345D01*
X0247939Y0006253D01*
X0247670Y0006168D01*
X0247399Y0006090D01*
X0247126Y0006018D01*
X0246852Y0005952D01*
X0246576Y0005894D01*
X0246298Y0005842D01*
X0246019Y0005797D01*
X0245740Y0005759D01*
X0245459Y0005728D01*
X0245178Y0005704D01*
X0244896Y0005687D01*
X0244614Y0005676D01*
X0244332Y0005673D01*
X0244050Y0005676D01*
X0243768Y0005687D01*
X0243486Y0005704D01*
X0243205Y0005728D01*
X0242924Y0005759D01*
X0242645Y0005797D01*
X0242366Y0005842D01*
X0242088Y0005894D01*
X0241812Y0005952D01*
X0241538Y0006018D01*
X0241265Y0006090D01*
X0240994Y0006168D01*
X0240725Y0006253D01*
X0240458Y0006345D01*
X0240193Y0006444D01*
X0239931Y0006548D01*
X0239672Y0006660D01*
X0239415Y0006777D01*
X0239161Y0006901D01*
X0238911Y0007031D01*
X0238664Y0007167D01*
X0238420Y0007309D01*
X0238180Y0007457D01*
X0237943Y0007611D01*
X0237710Y0007771D01*
X0237481Y0007936D01*
X0237257Y0008107D01*
X0237036Y0008283D01*
X0236821Y0008465D01*
X0236609Y0008652D01*
X0236402Y0008844D01*
X0236200Y0009041D01*
X0236003Y0009243D01*
X0235811Y0009450D01*
X0235624Y0009662D01*
X0235442Y0009877D01*
X0235266Y0010098D01*
X0235095Y0010322D01*
X0234930Y0010551D01*
X0234770Y0010784D01*
X0234616Y0011021D01*
X0234468Y0011261D01*
X0234326Y0011505D01*
X0234190Y0011752D01*
X0234060Y0012002D01*
X0233936Y0012256D01*
X0233819Y0012513D01*
X0233707Y0012772D01*
X0233603Y0013034D01*
X0233504Y0013299D01*
X0233412Y0013566D01*
X0233327Y0013835D01*
X0233249Y0014106D01*
X0233177Y0014379D01*
X0233111Y0014653D01*
X0233053Y0014929D01*
X0233001Y0015207D01*
X0232956Y0015486D01*
X0232918Y0015765D01*
X0232887Y0016046D01*
X0232863Y0016327D01*
X0232846Y0016609D01*
X0232835Y0016891D01*
X0232832Y0017173D01*
X0225100Y0015500D02*
X0222600Y0013000D01*
X0217600Y0013000D01*
X0215100Y0015500D01*
X0212600Y0013000D01*
X0207600Y0013000D01*
X0205100Y0015500D01*
X0205100Y0020500D01*
X0207600Y0023000D01*
X0212600Y0023000D01*
X0215100Y0020500D01*
X0217600Y0023000D01*
X0222600Y0023000D01*
X0225100Y0020500D01*
X0225100Y0015500D01*
X0215100Y0015500D02*
X0215100Y0020500D01*
X0205100Y0020500D02*
X0202600Y0023000D01*
X0197600Y0023000D01*
X0195100Y0020500D01*
X0192600Y0023000D01*
X0187600Y0023000D01*
X0185100Y0020500D01*
X0185100Y0015500D01*
X0187600Y0013000D01*
X0192600Y0013000D01*
X0195100Y0015500D01*
X0195100Y0020500D01*
X0195100Y0015500D02*
X0197600Y0013000D01*
X0202600Y0013000D01*
X0205100Y0015500D01*
X0005273Y0017173D02*
X0005276Y0017455D01*
X0005287Y0017737D01*
X0005304Y0018019D01*
X0005328Y0018300D01*
X0005359Y0018581D01*
X0005397Y0018860D01*
X0005442Y0019139D01*
X0005494Y0019417D01*
X0005552Y0019693D01*
X0005618Y0019967D01*
X0005690Y0020240D01*
X0005768Y0020511D01*
X0005853Y0020780D01*
X0005945Y0021047D01*
X0006044Y0021312D01*
X0006148Y0021574D01*
X0006260Y0021833D01*
X0006377Y0022090D01*
X0006501Y0022344D01*
X0006631Y0022594D01*
X0006767Y0022841D01*
X0006909Y0023085D01*
X0007057Y0023325D01*
X0007211Y0023562D01*
X0007371Y0023795D01*
X0007536Y0024024D01*
X0007707Y0024248D01*
X0007883Y0024469D01*
X0008065Y0024684D01*
X0008252Y0024896D01*
X0008444Y0025103D01*
X0008641Y0025305D01*
X0008843Y0025502D01*
X0009050Y0025694D01*
X0009262Y0025881D01*
X0009477Y0026063D01*
X0009698Y0026239D01*
X0009922Y0026410D01*
X0010151Y0026575D01*
X0010384Y0026735D01*
X0010621Y0026889D01*
X0010861Y0027037D01*
X0011105Y0027179D01*
X0011352Y0027315D01*
X0011602Y0027445D01*
X0011856Y0027569D01*
X0012113Y0027686D01*
X0012372Y0027798D01*
X0012634Y0027902D01*
X0012899Y0028001D01*
X0013166Y0028093D01*
X0013435Y0028178D01*
X0013706Y0028256D01*
X0013979Y0028328D01*
X0014253Y0028394D01*
X0014529Y0028452D01*
X0014807Y0028504D01*
X0015086Y0028549D01*
X0015365Y0028587D01*
X0015646Y0028618D01*
X0015927Y0028642D01*
X0016209Y0028659D01*
X0016491Y0028670D01*
X0016773Y0028673D01*
X0017055Y0028670D01*
X0017337Y0028659D01*
X0017619Y0028642D01*
X0017900Y0028618D01*
X0018181Y0028587D01*
X0018460Y0028549D01*
X0018739Y0028504D01*
X0019017Y0028452D01*
X0019293Y0028394D01*
X0019567Y0028328D01*
X0019840Y0028256D01*
X0020111Y0028178D01*
X0020380Y0028093D01*
X0020647Y0028001D01*
X0020912Y0027902D01*
X0021174Y0027798D01*
X0021433Y0027686D01*
X0021690Y0027569D01*
X0021944Y0027445D01*
X0022194Y0027315D01*
X0022441Y0027179D01*
X0022685Y0027037D01*
X0022925Y0026889D01*
X0023162Y0026735D01*
X0023395Y0026575D01*
X0023624Y0026410D01*
X0023848Y0026239D01*
X0024069Y0026063D01*
X0024284Y0025881D01*
X0024496Y0025694D01*
X0024703Y0025502D01*
X0024905Y0025305D01*
X0025102Y0025103D01*
X0025294Y0024896D01*
X0025481Y0024684D01*
X0025663Y0024469D01*
X0025839Y0024248D01*
X0026010Y0024024D01*
X0026175Y0023795D01*
X0026335Y0023562D01*
X0026489Y0023325D01*
X0026637Y0023085D01*
X0026779Y0022841D01*
X0026915Y0022594D01*
X0027045Y0022344D01*
X0027169Y0022090D01*
X0027286Y0021833D01*
X0027398Y0021574D01*
X0027502Y0021312D01*
X0027601Y0021047D01*
X0027693Y0020780D01*
X0027778Y0020511D01*
X0027856Y0020240D01*
X0027928Y0019967D01*
X0027994Y0019693D01*
X0028052Y0019417D01*
X0028104Y0019139D01*
X0028149Y0018860D01*
X0028187Y0018581D01*
X0028218Y0018300D01*
X0028242Y0018019D01*
X0028259Y0017737D01*
X0028270Y0017455D01*
X0028273Y0017173D01*
X0028270Y0016891D01*
X0028259Y0016609D01*
X0028242Y0016327D01*
X0028218Y0016046D01*
X0028187Y0015765D01*
X0028149Y0015486D01*
X0028104Y0015207D01*
X0028052Y0014929D01*
X0027994Y0014653D01*
X0027928Y0014379D01*
X0027856Y0014106D01*
X0027778Y0013835D01*
X0027693Y0013566D01*
X0027601Y0013299D01*
X0027502Y0013034D01*
X0027398Y0012772D01*
X0027286Y0012513D01*
X0027169Y0012256D01*
X0027045Y0012002D01*
X0026915Y0011752D01*
X0026779Y0011505D01*
X0026637Y0011261D01*
X0026489Y0011021D01*
X0026335Y0010784D01*
X0026175Y0010551D01*
X0026010Y0010322D01*
X0025839Y0010098D01*
X0025663Y0009877D01*
X0025481Y0009662D01*
X0025294Y0009450D01*
X0025102Y0009243D01*
X0024905Y0009041D01*
X0024703Y0008844D01*
X0024496Y0008652D01*
X0024284Y0008465D01*
X0024069Y0008283D01*
X0023848Y0008107D01*
X0023624Y0007936D01*
X0023395Y0007771D01*
X0023162Y0007611D01*
X0022925Y0007457D01*
X0022685Y0007309D01*
X0022441Y0007167D01*
X0022194Y0007031D01*
X0021944Y0006901D01*
X0021690Y0006777D01*
X0021433Y0006660D01*
X0021174Y0006548D01*
X0020912Y0006444D01*
X0020647Y0006345D01*
X0020380Y0006253D01*
X0020111Y0006168D01*
X0019840Y0006090D01*
X0019567Y0006018D01*
X0019293Y0005952D01*
X0019017Y0005894D01*
X0018739Y0005842D01*
X0018460Y0005797D01*
X0018181Y0005759D01*
X0017900Y0005728D01*
X0017619Y0005704D01*
X0017337Y0005687D01*
X0017055Y0005676D01*
X0016773Y0005673D01*
X0016491Y0005676D01*
X0016209Y0005687D01*
X0015927Y0005704D01*
X0015646Y0005728D01*
X0015365Y0005759D01*
X0015086Y0005797D01*
X0014807Y0005842D01*
X0014529Y0005894D01*
X0014253Y0005952D01*
X0013979Y0006018D01*
X0013706Y0006090D01*
X0013435Y0006168D01*
X0013166Y0006253D01*
X0012899Y0006345D01*
X0012634Y0006444D01*
X0012372Y0006548D01*
X0012113Y0006660D01*
X0011856Y0006777D01*
X0011602Y0006901D01*
X0011352Y0007031D01*
X0011105Y0007167D01*
X0010861Y0007309D01*
X0010621Y0007457D01*
X0010384Y0007611D01*
X0010151Y0007771D01*
X0009922Y0007936D01*
X0009698Y0008107D01*
X0009477Y0008283D01*
X0009262Y0008465D01*
X0009050Y0008652D01*
X0008843Y0008844D01*
X0008641Y0009041D01*
X0008444Y0009243D01*
X0008252Y0009450D01*
X0008065Y0009662D01*
X0007883Y0009877D01*
X0007707Y0010098D01*
X0007536Y0010322D01*
X0007371Y0010551D01*
X0007211Y0010784D01*
X0007057Y0011021D01*
X0006909Y0011261D01*
X0006767Y0011505D01*
X0006631Y0011752D01*
X0006501Y0012002D01*
X0006377Y0012256D01*
X0006260Y0012513D01*
X0006148Y0012772D01*
X0006044Y0013034D01*
X0005945Y0013299D01*
X0005853Y0013566D01*
X0005768Y0013835D01*
X0005690Y0014106D01*
X0005618Y0014379D01*
X0005552Y0014653D01*
X0005494Y0014929D01*
X0005442Y0015207D01*
X0005397Y0015486D01*
X0005359Y0015765D01*
X0005328Y0016046D01*
X0005304Y0016327D01*
X0005287Y0016609D01*
X0005276Y0016891D01*
X0005273Y0017173D01*
X0005273Y0209299D02*
X0005276Y0209581D01*
X0005287Y0209863D01*
X0005304Y0210145D01*
X0005328Y0210426D01*
X0005359Y0210707D01*
X0005397Y0210986D01*
X0005442Y0211265D01*
X0005494Y0211543D01*
X0005552Y0211819D01*
X0005618Y0212093D01*
X0005690Y0212366D01*
X0005768Y0212637D01*
X0005853Y0212906D01*
X0005945Y0213173D01*
X0006044Y0213438D01*
X0006148Y0213700D01*
X0006260Y0213959D01*
X0006377Y0214216D01*
X0006501Y0214470D01*
X0006631Y0214720D01*
X0006767Y0214967D01*
X0006909Y0215211D01*
X0007057Y0215451D01*
X0007211Y0215688D01*
X0007371Y0215921D01*
X0007536Y0216150D01*
X0007707Y0216374D01*
X0007883Y0216595D01*
X0008065Y0216810D01*
X0008252Y0217022D01*
X0008444Y0217229D01*
X0008641Y0217431D01*
X0008843Y0217628D01*
X0009050Y0217820D01*
X0009262Y0218007D01*
X0009477Y0218189D01*
X0009698Y0218365D01*
X0009922Y0218536D01*
X0010151Y0218701D01*
X0010384Y0218861D01*
X0010621Y0219015D01*
X0010861Y0219163D01*
X0011105Y0219305D01*
X0011352Y0219441D01*
X0011602Y0219571D01*
X0011856Y0219695D01*
X0012113Y0219812D01*
X0012372Y0219924D01*
X0012634Y0220028D01*
X0012899Y0220127D01*
X0013166Y0220219D01*
X0013435Y0220304D01*
X0013706Y0220382D01*
X0013979Y0220454D01*
X0014253Y0220520D01*
X0014529Y0220578D01*
X0014807Y0220630D01*
X0015086Y0220675D01*
X0015365Y0220713D01*
X0015646Y0220744D01*
X0015927Y0220768D01*
X0016209Y0220785D01*
X0016491Y0220796D01*
X0016773Y0220799D01*
X0017055Y0220796D01*
X0017337Y0220785D01*
X0017619Y0220768D01*
X0017900Y0220744D01*
X0018181Y0220713D01*
X0018460Y0220675D01*
X0018739Y0220630D01*
X0019017Y0220578D01*
X0019293Y0220520D01*
X0019567Y0220454D01*
X0019840Y0220382D01*
X0020111Y0220304D01*
X0020380Y0220219D01*
X0020647Y0220127D01*
X0020912Y0220028D01*
X0021174Y0219924D01*
X0021433Y0219812D01*
X0021690Y0219695D01*
X0021944Y0219571D01*
X0022194Y0219441D01*
X0022441Y0219305D01*
X0022685Y0219163D01*
X0022925Y0219015D01*
X0023162Y0218861D01*
X0023395Y0218701D01*
X0023624Y0218536D01*
X0023848Y0218365D01*
X0024069Y0218189D01*
X0024284Y0218007D01*
X0024496Y0217820D01*
X0024703Y0217628D01*
X0024905Y0217431D01*
X0025102Y0217229D01*
X0025294Y0217022D01*
X0025481Y0216810D01*
X0025663Y0216595D01*
X0025839Y0216374D01*
X0026010Y0216150D01*
X0026175Y0215921D01*
X0026335Y0215688D01*
X0026489Y0215451D01*
X0026637Y0215211D01*
X0026779Y0214967D01*
X0026915Y0214720D01*
X0027045Y0214470D01*
X0027169Y0214216D01*
X0027286Y0213959D01*
X0027398Y0213700D01*
X0027502Y0213438D01*
X0027601Y0213173D01*
X0027693Y0212906D01*
X0027778Y0212637D01*
X0027856Y0212366D01*
X0027928Y0212093D01*
X0027994Y0211819D01*
X0028052Y0211543D01*
X0028104Y0211265D01*
X0028149Y0210986D01*
X0028187Y0210707D01*
X0028218Y0210426D01*
X0028242Y0210145D01*
X0028259Y0209863D01*
X0028270Y0209581D01*
X0028273Y0209299D01*
X0028270Y0209017D01*
X0028259Y0208735D01*
X0028242Y0208453D01*
X0028218Y0208172D01*
X0028187Y0207891D01*
X0028149Y0207612D01*
X0028104Y0207333D01*
X0028052Y0207055D01*
X0027994Y0206779D01*
X0027928Y0206505D01*
X0027856Y0206232D01*
X0027778Y0205961D01*
X0027693Y0205692D01*
X0027601Y0205425D01*
X0027502Y0205160D01*
X0027398Y0204898D01*
X0027286Y0204639D01*
X0027169Y0204382D01*
X0027045Y0204128D01*
X0026915Y0203878D01*
X0026779Y0203631D01*
X0026637Y0203387D01*
X0026489Y0203147D01*
X0026335Y0202910D01*
X0026175Y0202677D01*
X0026010Y0202448D01*
X0025839Y0202224D01*
X0025663Y0202003D01*
X0025481Y0201788D01*
X0025294Y0201576D01*
X0025102Y0201369D01*
X0024905Y0201167D01*
X0024703Y0200970D01*
X0024496Y0200778D01*
X0024284Y0200591D01*
X0024069Y0200409D01*
X0023848Y0200233D01*
X0023624Y0200062D01*
X0023395Y0199897D01*
X0023162Y0199737D01*
X0022925Y0199583D01*
X0022685Y0199435D01*
X0022441Y0199293D01*
X0022194Y0199157D01*
X0021944Y0199027D01*
X0021690Y0198903D01*
X0021433Y0198786D01*
X0021174Y0198674D01*
X0020912Y0198570D01*
X0020647Y0198471D01*
X0020380Y0198379D01*
X0020111Y0198294D01*
X0019840Y0198216D01*
X0019567Y0198144D01*
X0019293Y0198078D01*
X0019017Y0198020D01*
X0018739Y0197968D01*
X0018460Y0197923D01*
X0018181Y0197885D01*
X0017900Y0197854D01*
X0017619Y0197830D01*
X0017337Y0197813D01*
X0017055Y0197802D01*
X0016773Y0197799D01*
X0016491Y0197802D01*
X0016209Y0197813D01*
X0015927Y0197830D01*
X0015646Y0197854D01*
X0015365Y0197885D01*
X0015086Y0197923D01*
X0014807Y0197968D01*
X0014529Y0198020D01*
X0014253Y0198078D01*
X0013979Y0198144D01*
X0013706Y0198216D01*
X0013435Y0198294D01*
X0013166Y0198379D01*
X0012899Y0198471D01*
X0012634Y0198570D01*
X0012372Y0198674D01*
X0012113Y0198786D01*
X0011856Y0198903D01*
X0011602Y0199027D01*
X0011352Y0199157D01*
X0011105Y0199293D01*
X0010861Y0199435D01*
X0010621Y0199583D01*
X0010384Y0199737D01*
X0010151Y0199897D01*
X0009922Y0200062D01*
X0009698Y0200233D01*
X0009477Y0200409D01*
X0009262Y0200591D01*
X0009050Y0200778D01*
X0008843Y0200970D01*
X0008641Y0201167D01*
X0008444Y0201369D01*
X0008252Y0201576D01*
X0008065Y0201788D01*
X0007883Y0202003D01*
X0007707Y0202224D01*
X0007536Y0202448D01*
X0007371Y0202677D01*
X0007211Y0202910D01*
X0007057Y0203147D01*
X0006909Y0203387D01*
X0006767Y0203631D01*
X0006631Y0203878D01*
X0006501Y0204128D01*
X0006377Y0204382D01*
X0006260Y0204639D01*
X0006148Y0204898D01*
X0006044Y0205160D01*
X0005945Y0205425D01*
X0005853Y0205692D01*
X0005768Y0205961D01*
X0005690Y0206232D01*
X0005618Y0206505D01*
X0005552Y0206779D01*
X0005494Y0207055D01*
X0005442Y0207333D01*
X0005397Y0207612D01*
X0005359Y0207891D01*
X0005328Y0208172D01*
X0005304Y0208453D01*
X0005287Y0208735D01*
X0005276Y0209017D01*
X0005273Y0209299D01*
X0232832Y0209299D02*
X0232835Y0209581D01*
X0232846Y0209863D01*
X0232863Y0210145D01*
X0232887Y0210426D01*
X0232918Y0210707D01*
X0232956Y0210986D01*
X0233001Y0211265D01*
X0233053Y0211543D01*
X0233111Y0211819D01*
X0233177Y0212093D01*
X0233249Y0212366D01*
X0233327Y0212637D01*
X0233412Y0212906D01*
X0233504Y0213173D01*
X0233603Y0213438D01*
X0233707Y0213700D01*
X0233819Y0213959D01*
X0233936Y0214216D01*
X0234060Y0214470D01*
X0234190Y0214720D01*
X0234326Y0214967D01*
X0234468Y0215211D01*
X0234616Y0215451D01*
X0234770Y0215688D01*
X0234930Y0215921D01*
X0235095Y0216150D01*
X0235266Y0216374D01*
X0235442Y0216595D01*
X0235624Y0216810D01*
X0235811Y0217022D01*
X0236003Y0217229D01*
X0236200Y0217431D01*
X0236402Y0217628D01*
X0236609Y0217820D01*
X0236821Y0218007D01*
X0237036Y0218189D01*
X0237257Y0218365D01*
X0237481Y0218536D01*
X0237710Y0218701D01*
X0237943Y0218861D01*
X0238180Y0219015D01*
X0238420Y0219163D01*
X0238664Y0219305D01*
X0238911Y0219441D01*
X0239161Y0219571D01*
X0239415Y0219695D01*
X0239672Y0219812D01*
X0239931Y0219924D01*
X0240193Y0220028D01*
X0240458Y0220127D01*
X0240725Y0220219D01*
X0240994Y0220304D01*
X0241265Y0220382D01*
X0241538Y0220454D01*
X0241812Y0220520D01*
X0242088Y0220578D01*
X0242366Y0220630D01*
X0242645Y0220675D01*
X0242924Y0220713D01*
X0243205Y0220744D01*
X0243486Y0220768D01*
X0243768Y0220785D01*
X0244050Y0220796D01*
X0244332Y0220799D01*
X0244614Y0220796D01*
X0244896Y0220785D01*
X0245178Y0220768D01*
X0245459Y0220744D01*
X0245740Y0220713D01*
X0246019Y0220675D01*
X0246298Y0220630D01*
X0246576Y0220578D01*
X0246852Y0220520D01*
X0247126Y0220454D01*
X0247399Y0220382D01*
X0247670Y0220304D01*
X0247939Y0220219D01*
X0248206Y0220127D01*
X0248471Y0220028D01*
X0248733Y0219924D01*
X0248992Y0219812D01*
X0249249Y0219695D01*
X0249503Y0219571D01*
X0249753Y0219441D01*
X0250000Y0219305D01*
X0250244Y0219163D01*
X0250484Y0219015D01*
X0250721Y0218861D01*
X0250954Y0218701D01*
X0251183Y0218536D01*
X0251407Y0218365D01*
X0251628Y0218189D01*
X0251843Y0218007D01*
X0252055Y0217820D01*
X0252262Y0217628D01*
X0252464Y0217431D01*
X0252661Y0217229D01*
X0252853Y0217022D01*
X0253040Y0216810D01*
X0253222Y0216595D01*
X0253398Y0216374D01*
X0253569Y0216150D01*
X0253734Y0215921D01*
X0253894Y0215688D01*
X0254048Y0215451D01*
X0254196Y0215211D01*
X0254338Y0214967D01*
X0254474Y0214720D01*
X0254604Y0214470D01*
X0254728Y0214216D01*
X0254845Y0213959D01*
X0254957Y0213700D01*
X0255061Y0213438D01*
X0255160Y0213173D01*
X0255252Y0212906D01*
X0255337Y0212637D01*
X0255415Y0212366D01*
X0255487Y0212093D01*
X0255553Y0211819D01*
X0255611Y0211543D01*
X0255663Y0211265D01*
X0255708Y0210986D01*
X0255746Y0210707D01*
X0255777Y0210426D01*
X0255801Y0210145D01*
X0255818Y0209863D01*
X0255829Y0209581D01*
X0255832Y0209299D01*
X0255829Y0209017D01*
X0255818Y0208735D01*
X0255801Y0208453D01*
X0255777Y0208172D01*
X0255746Y0207891D01*
X0255708Y0207612D01*
X0255663Y0207333D01*
X0255611Y0207055D01*
X0255553Y0206779D01*
X0255487Y0206505D01*
X0255415Y0206232D01*
X0255337Y0205961D01*
X0255252Y0205692D01*
X0255160Y0205425D01*
X0255061Y0205160D01*
X0254957Y0204898D01*
X0254845Y0204639D01*
X0254728Y0204382D01*
X0254604Y0204128D01*
X0254474Y0203878D01*
X0254338Y0203631D01*
X0254196Y0203387D01*
X0254048Y0203147D01*
X0253894Y0202910D01*
X0253734Y0202677D01*
X0253569Y0202448D01*
X0253398Y0202224D01*
X0253222Y0202003D01*
X0253040Y0201788D01*
X0252853Y0201576D01*
X0252661Y0201369D01*
X0252464Y0201167D01*
X0252262Y0200970D01*
X0252055Y0200778D01*
X0251843Y0200591D01*
X0251628Y0200409D01*
X0251407Y0200233D01*
X0251183Y0200062D01*
X0250954Y0199897D01*
X0250721Y0199737D01*
X0250484Y0199583D01*
X0250244Y0199435D01*
X0250000Y0199293D01*
X0249753Y0199157D01*
X0249503Y0199027D01*
X0249249Y0198903D01*
X0248992Y0198786D01*
X0248733Y0198674D01*
X0248471Y0198570D01*
X0248206Y0198471D01*
X0247939Y0198379D01*
X0247670Y0198294D01*
X0247399Y0198216D01*
X0247126Y0198144D01*
X0246852Y0198078D01*
X0246576Y0198020D01*
X0246298Y0197968D01*
X0246019Y0197923D01*
X0245740Y0197885D01*
X0245459Y0197854D01*
X0245178Y0197830D01*
X0244896Y0197813D01*
X0244614Y0197802D01*
X0244332Y0197799D01*
X0244050Y0197802D01*
X0243768Y0197813D01*
X0243486Y0197830D01*
X0243205Y0197854D01*
X0242924Y0197885D01*
X0242645Y0197923D01*
X0242366Y0197968D01*
X0242088Y0198020D01*
X0241812Y0198078D01*
X0241538Y0198144D01*
X0241265Y0198216D01*
X0240994Y0198294D01*
X0240725Y0198379D01*
X0240458Y0198471D01*
X0240193Y0198570D01*
X0239931Y0198674D01*
X0239672Y0198786D01*
X0239415Y0198903D01*
X0239161Y0199027D01*
X0238911Y0199157D01*
X0238664Y0199293D01*
X0238420Y0199435D01*
X0238180Y0199583D01*
X0237943Y0199737D01*
X0237710Y0199897D01*
X0237481Y0200062D01*
X0237257Y0200233D01*
X0237036Y0200409D01*
X0236821Y0200591D01*
X0236609Y0200778D01*
X0236402Y0200970D01*
X0236200Y0201167D01*
X0236003Y0201369D01*
X0235811Y0201576D01*
X0235624Y0201788D01*
X0235442Y0202003D01*
X0235266Y0202224D01*
X0235095Y0202448D01*
X0234930Y0202677D01*
X0234770Y0202910D01*
X0234616Y0203147D01*
X0234468Y0203387D01*
X0234326Y0203631D01*
X0234190Y0203878D01*
X0234060Y0204128D01*
X0233936Y0204382D01*
X0233819Y0204639D01*
X0233707Y0204898D01*
X0233603Y0205160D01*
X0233504Y0205425D01*
X0233412Y0205692D01*
X0233327Y0205961D01*
X0233249Y0206232D01*
X0233177Y0206505D01*
X0233111Y0206779D01*
X0233053Y0207055D01*
X0233001Y0207333D01*
X0232956Y0207612D01*
X0232918Y0207891D01*
X0232887Y0208172D01*
X0232863Y0208453D01*
X0232846Y0208735D01*
X0232835Y0209017D01*
X0232832Y0209299D01*
D17*
X0234769Y0175728D03*
X0241856Y0168839D03*
X0248903Y0167461D03*
X0234730Y0159232D03*
X0228903Y0167461D03*
D18*
X0228943Y0167461D03*
X0234533Y0175256D03*
X0248864Y0167461D03*
D19*
X0248824Y0167461D03*
X0243903Y0163917D03*
X0228982Y0167461D03*
D20*
X0229021Y0167461D03*
X0248785Y0167461D03*
D21*
X0248746Y0167461D03*
X0247565Y0170531D03*
X0247446Y0170728D03*
X0247761Y0164744D03*
X0247131Y0163681D03*
X0247092Y0163642D03*
X0247053Y0163602D03*
X0230478Y0163996D03*
X0230399Y0164114D03*
X0230360Y0164193D03*
X0229061Y0167461D03*
D22*
X0229100Y0167461D03*
X0230084Y0164823D03*
X0246462Y0163012D03*
X0246502Y0163051D03*
X0248706Y0167461D03*
X0247801Y0169980D03*
X0246777Y0171555D03*
X0246738Y0171594D03*
D23*
X0246187Y0172028D03*
X0246147Y0172067D03*
X0248667Y0167461D03*
X0245950Y0162657D03*
X0242407Y0167382D03*
X0231856Y0162657D03*
X0229139Y0167461D03*
X0231698Y0172106D03*
D24*
X0232131Y0172382D03*
X0232171Y0172421D03*
X0229179Y0167461D03*
X0232328Y0162382D03*
X0245557Y0162461D03*
X0245596Y0162461D03*
X0248628Y0167461D03*
X0245754Y0172303D03*
D25*
X0245399Y0172461D03*
X0248588Y0167461D03*
X0245202Y0162303D03*
X0232761Y0162185D03*
X0229218Y0167461D03*
X0232643Y0172657D03*
D26*
X0232958Y0172776D03*
X0229257Y0167461D03*
X0233076Y0162067D03*
X0244927Y0162224D03*
X0248549Y0167461D03*
X0245124Y0172579D03*
X0245084Y0172579D03*
D27*
X0248509Y0167461D03*
X0244612Y0162146D03*
X0233549Y0161909D03*
X0233509Y0161909D03*
X0229297Y0167461D03*
X0233391Y0172933D03*
X0233431Y0172933D03*
D28*
X0229336Y0167461D03*
X0233864Y0161831D03*
X0244376Y0162106D03*
X0248470Y0167461D03*
X0244533Y0172736D03*
D29*
X0248431Y0167461D03*
X0244179Y0162106D03*
X0234179Y0161791D03*
X0234139Y0161791D03*
X0229376Y0167461D03*
X0234061Y0173091D03*
X0234100Y0173091D03*
D30*
X0234415Y0173169D03*
X0229415Y0167461D03*
X0243982Y0162106D03*
X0248391Y0167461D03*
D31*
X0248352Y0167461D03*
X0243943Y0172736D03*
X0229454Y0167461D03*
D32*
X0229494Y0167461D03*
X0243824Y0172736D03*
X0248313Y0167461D03*
D33*
X0248273Y0167461D03*
X0229533Y0167461D03*
D34*
X0229572Y0167461D03*
X0248234Y0167461D03*
D35*
X0248194Y0167461D03*
X0229612Y0167461D03*
D36*
X0229651Y0167461D03*
X0248155Y0167461D03*
D37*
X0248116Y0167461D03*
X0229691Y0167461D03*
D38*
X0229730Y0167461D03*
X0248076Y0167461D03*
D39*
X0248037Y0167461D03*
X0229769Y0167461D03*
D40*
X0229809Y0167461D03*
X0247998Y0167461D03*
D41*
X0247958Y0167461D03*
X0229848Y0167461D03*
D42*
X0229887Y0167461D03*
X0247919Y0167461D03*
D43*
X0247880Y0167461D03*
X0229927Y0167461D03*
D44*
X0229966Y0167461D03*
X0247840Y0167461D03*
D45*
X0247761Y0170098D03*
X0247131Y0171161D03*
X0247092Y0171201D03*
X0247053Y0171240D03*
X0247801Y0164862D03*
X0246777Y0163287D03*
X0246738Y0163248D03*
X0230872Y0163524D03*
X0230163Y0164587D03*
X0230202Y0170413D03*
X0230596Y0171043D03*
X0230635Y0171083D03*
X0230675Y0171161D03*
X0230714Y0171201D03*
X0230754Y0171240D03*
D46*
X0247171Y0163740D03*
X0247210Y0163780D03*
X0247722Y0164646D03*
D47*
X0246817Y0163346D03*
X0247722Y0170197D03*
X0247210Y0171063D03*
X0247171Y0171102D03*
X0230557Y0170984D03*
X0230517Y0170945D03*
X0230439Y0170827D03*
X0230320Y0170630D03*
X0230242Y0170472D03*
X0230202Y0164488D03*
X0230793Y0163583D03*
X0230832Y0163543D03*
D48*
X0247250Y0163839D03*
X0247289Y0163878D03*
X0247683Y0164547D03*
D49*
X0246895Y0163406D03*
X0246856Y0163366D03*
X0247683Y0170295D03*
X0247368Y0170846D03*
X0247289Y0170965D03*
X0247250Y0171004D03*
X0230478Y0170886D03*
X0230399Y0170768D03*
X0230360Y0170689D03*
X0230281Y0170571D03*
X0230596Y0163839D03*
X0230675Y0163720D03*
X0230714Y0163681D03*
X0230754Y0163642D03*
D50*
X0247328Y0163937D03*
X0247368Y0163976D03*
X0247407Y0164055D03*
X0247486Y0164173D03*
X0247525Y0164252D03*
X0247604Y0164370D03*
X0247643Y0164449D03*
D51*
X0247013Y0163543D03*
X0246974Y0163504D03*
X0246935Y0163465D03*
X0247643Y0170394D03*
X0247604Y0170472D03*
X0247525Y0170591D03*
X0247486Y0170669D03*
X0247407Y0170787D03*
X0247328Y0170906D03*
X0230635Y0163780D03*
X0230557Y0163898D03*
X0230517Y0163937D03*
X0230439Y0164055D03*
X0230320Y0164252D03*
X0230281Y0164331D03*
X0230242Y0164409D03*
D52*
X0247446Y0164114D03*
X0247565Y0164311D03*
D53*
X0246698Y0163228D03*
X0246659Y0163189D03*
X0247013Y0171299D03*
X0246974Y0171339D03*
X0246935Y0171378D03*
X0230163Y0170315D03*
X0230124Y0164685D03*
X0230911Y0163465D03*
X0230950Y0163425D03*
X0230990Y0163386D03*
D54*
X0231029Y0163327D03*
X0230124Y0170217D03*
X0230793Y0171280D03*
X0230832Y0171319D03*
X0230872Y0171358D03*
X0246895Y0171437D03*
D55*
X0246856Y0171457D03*
X0246817Y0171496D03*
X0246620Y0163150D03*
X0246580Y0163110D03*
X0246541Y0163071D03*
X0231147Y0163228D03*
X0231108Y0163268D03*
X0231069Y0163307D03*
X0230911Y0171417D03*
X0230950Y0171457D03*
X0230990Y0171496D03*
D56*
X0231029Y0171535D03*
X0231069Y0171575D03*
X0231108Y0171614D03*
X0231147Y0171654D03*
X0230084Y0170079D03*
X0231187Y0163189D03*
X0231226Y0163150D03*
X0231265Y0163110D03*
X0246423Y0162992D03*
X0246698Y0171614D03*
X0246659Y0171654D03*
D57*
X0246620Y0171693D03*
X0246580Y0171732D03*
X0246541Y0171772D03*
X0242013Y0167520D03*
X0241974Y0167520D03*
X0246344Y0162913D03*
X0231226Y0171732D03*
X0231187Y0171693D03*
D58*
X0231265Y0171752D03*
X0231305Y0171791D03*
X0231344Y0171831D03*
X0231423Y0162972D03*
X0231462Y0162933D03*
X0242053Y0167500D03*
X0242092Y0167500D03*
X0246462Y0171831D03*
X0246502Y0171791D03*
X0246305Y0162894D03*
X0246265Y0162854D03*
D59*
X0246226Y0162835D03*
X0242131Y0167480D03*
X0246423Y0171850D03*
X0231383Y0171850D03*
X0231502Y0162913D03*
X0231541Y0162874D03*
D60*
X0231383Y0163012D03*
X0231344Y0163051D03*
X0231305Y0163091D03*
X0246383Y0162933D03*
D61*
X0246187Y0162815D03*
X0246147Y0162776D03*
X0242210Y0167461D03*
X0242171Y0167461D03*
X0246383Y0171909D03*
X0231423Y0171909D03*
X0231580Y0162854D03*
X0231620Y0162815D03*
D62*
X0231659Y0162795D03*
X0231462Y0171929D03*
X0231502Y0171969D03*
X0242250Y0167441D03*
X0246344Y0171929D03*
X0246108Y0162756D03*
D63*
X0246069Y0162736D03*
X0246029Y0162697D03*
X0242289Y0167421D03*
X0246305Y0171949D03*
X0246265Y0171988D03*
X0231580Y0172028D03*
X0231541Y0171988D03*
X0231698Y0162776D03*
X0231738Y0162736D03*
D64*
X0231777Y0162717D03*
X0231817Y0162677D03*
X0242328Y0167402D03*
X0242368Y0167402D03*
X0246226Y0172008D03*
X0245990Y0162677D03*
X0231659Y0172087D03*
X0231620Y0172047D03*
D65*
X0231738Y0172126D03*
X0231777Y0172165D03*
X0242446Y0167362D03*
X0242486Y0167323D03*
X0242525Y0167323D03*
X0246108Y0172087D03*
X0245911Y0162638D03*
X0231935Y0162598D03*
X0231895Y0162638D03*
D66*
X0231974Y0162579D03*
X0242565Y0167303D03*
X0242958Y0166909D03*
X0245872Y0162618D03*
X0245832Y0162579D03*
X0246069Y0172106D03*
X0246029Y0172146D03*
X0231817Y0172185D03*
D67*
X0231856Y0172205D03*
X0231895Y0172244D03*
X0242604Y0167283D03*
X0245793Y0162559D03*
X0245990Y0172165D03*
X0232053Y0162520D03*
X0232013Y0162559D03*
D68*
X0232092Y0162500D03*
X0242643Y0167264D03*
X0242919Y0166988D03*
X0245754Y0162539D03*
X0245950Y0172185D03*
X0231935Y0172264D03*
D69*
X0231974Y0172283D03*
X0232013Y0172323D03*
X0242683Y0167244D03*
X0242722Y0167205D03*
X0245714Y0162520D03*
X0245911Y0172205D03*
X0232131Y0162480D03*
D70*
X0232171Y0162461D03*
X0232210Y0162421D03*
X0232250Y0162421D03*
X0242761Y0167185D03*
X0242801Y0167146D03*
X0242840Y0167106D03*
X0242880Y0167067D03*
X0245675Y0162500D03*
X0245872Y0172224D03*
X0245832Y0172264D03*
X0232053Y0172343D03*
D71*
X0232092Y0172362D03*
X0232289Y0162402D03*
X0245635Y0162480D03*
X0245793Y0172283D03*
D72*
X0245714Y0172323D03*
X0245517Y0162441D03*
X0232368Y0162362D03*
X0232250Y0172441D03*
X0232210Y0172441D03*
D73*
X0232289Y0172461D03*
X0232328Y0172500D03*
X0232407Y0162343D03*
X0232446Y0162303D03*
X0245478Y0162421D03*
X0245675Y0172343D03*
D74*
X0245635Y0172362D03*
X0245439Y0162402D03*
X0232525Y0162283D03*
X0232486Y0162283D03*
X0232368Y0172520D03*
D75*
X0232407Y0172539D03*
X0232565Y0162264D03*
X0245399Y0162382D03*
X0245557Y0172382D03*
X0245596Y0172382D03*
D76*
X0245517Y0172402D03*
X0245360Y0162362D03*
X0232604Y0162244D03*
X0232446Y0172559D03*
D77*
X0232486Y0172579D03*
X0232525Y0172579D03*
X0232565Y0172618D03*
X0232643Y0162224D03*
X0245281Y0162343D03*
X0245320Y0162343D03*
X0245478Y0172421D03*
D78*
X0245439Y0172441D03*
X0245242Y0162323D03*
X0232722Y0162205D03*
X0232683Y0162205D03*
X0232604Y0172638D03*
D79*
X0232683Y0172677D03*
X0232722Y0172677D03*
X0245360Y0172480D03*
X0245163Y0162283D03*
X0232801Y0162165D03*
D80*
X0232840Y0162146D03*
X0232880Y0162146D03*
X0245084Y0162264D03*
X0245124Y0162264D03*
X0245281Y0172500D03*
X0245320Y0172500D03*
X0232761Y0172697D03*
D81*
X0232801Y0172717D03*
X0245242Y0172520D03*
X0245045Y0162244D03*
X0232919Y0162126D03*
D82*
X0232958Y0162106D03*
X0245006Y0162224D03*
X0245202Y0172539D03*
X0232880Y0172736D03*
X0232840Y0172736D03*
D83*
X0232919Y0172756D03*
X0245163Y0172559D03*
X0244966Y0162205D03*
X0233037Y0162087D03*
X0232998Y0162087D03*
D84*
X0233116Y0162047D03*
X0244887Y0162205D03*
X0245045Y0172598D03*
X0233037Y0172795D03*
X0232998Y0172795D03*
D85*
X0233076Y0172815D03*
X0245006Y0172618D03*
X0244848Y0162185D03*
X0233194Y0162028D03*
X0233155Y0162028D03*
D86*
X0233234Y0162008D03*
X0244769Y0162165D03*
X0244809Y0162165D03*
X0244966Y0172638D03*
X0233116Y0172835D03*
D87*
X0233155Y0172854D03*
X0233194Y0172854D03*
X0244927Y0172618D03*
X0233313Y0161988D03*
X0233273Y0161988D03*
D88*
X0233352Y0161969D03*
X0244730Y0162165D03*
X0244887Y0172638D03*
X0233234Y0172874D03*
D89*
X0233273Y0172894D03*
X0233313Y0172894D03*
X0244848Y0172657D03*
X0244691Y0162146D03*
X0233431Y0161949D03*
X0233391Y0161949D03*
D90*
X0233470Y0161929D03*
X0244651Y0162126D03*
X0244769Y0172677D03*
X0244809Y0172677D03*
X0233352Y0172913D03*
D91*
X0233470Y0172953D03*
X0244730Y0172677D03*
X0244572Y0162126D03*
X0233628Y0161890D03*
X0233588Y0161890D03*
D92*
X0244533Y0162106D03*
X0244691Y0172697D03*
X0233549Y0172972D03*
X0233509Y0172972D03*
D93*
X0233588Y0172992D03*
X0233628Y0172992D03*
X0244651Y0172717D03*
X0244494Y0162126D03*
X0233667Y0161890D03*
D94*
X0233706Y0161870D03*
X0233746Y0161870D03*
X0244454Y0162106D03*
X0244612Y0172697D03*
X0233667Y0173012D03*
D95*
X0233706Y0173031D03*
X0233746Y0173031D03*
X0244572Y0172717D03*
X0244415Y0162087D03*
X0233824Y0161850D03*
X0233785Y0161850D03*
D96*
X0233903Y0161811D03*
X0244336Y0162087D03*
X0244494Y0172717D03*
X0233824Y0173031D03*
X0233785Y0173031D03*
D97*
X0233864Y0173051D03*
X0244454Y0172736D03*
X0233943Y0161831D03*
D98*
X0233982Y0161811D03*
X0234021Y0161811D03*
X0244257Y0162087D03*
X0244297Y0162087D03*
X0244415Y0172756D03*
X0233943Y0173071D03*
X0233903Y0173071D03*
D99*
X0233982Y0173091D03*
X0234021Y0173091D03*
X0244376Y0172736D03*
X0234100Y0161791D03*
X0234061Y0161791D03*
D100*
X0244218Y0162087D03*
X0244336Y0172756D03*
D101*
X0244297Y0172756D03*
X0244257Y0172756D03*
X0234179Y0173110D03*
X0234139Y0173110D03*
X0234218Y0161772D03*
X0244139Y0162087D03*
D102*
X0244100Y0162087D03*
X0244061Y0162087D03*
X0234297Y0161772D03*
X0244218Y0172756D03*
D103*
X0244179Y0172736D03*
X0234297Y0173130D03*
X0234257Y0173130D03*
X0234336Y0161752D03*
D104*
X0244021Y0162087D03*
X0244139Y0172756D03*
X0234376Y0173150D03*
X0234336Y0173150D03*
D105*
X0234454Y0173150D03*
X0244061Y0172756D03*
X0244100Y0172756D03*
D106*
X0244021Y0172756D03*
D107*
X0243982Y0172736D03*
D108*
X0234494Y0173169D03*
X0243943Y0162106D03*
D109*
X0243903Y0160059D03*
D110*
X0243903Y0161890D03*
X0243864Y0161890D03*
X0243824Y0161890D03*
X0243785Y0161890D03*
X0243746Y0161890D03*
X0243706Y0161890D03*
X0243667Y0161890D03*
X0243628Y0161890D03*
X0243588Y0161890D03*
X0243549Y0161890D03*
X0243509Y0161890D03*
X0243470Y0161890D03*
X0243431Y0161890D03*
X0243391Y0161890D03*
X0243352Y0161890D03*
X0243313Y0161890D03*
X0243273Y0161890D03*
X0243234Y0161890D03*
X0243194Y0161890D03*
X0243155Y0161890D03*
X0242092Y0158228D03*
X0242013Y0158189D03*
X0241974Y0158189D03*
X0241935Y0158150D03*
X0236974Y0157874D03*
X0236935Y0157874D03*
X0236895Y0157913D03*
X0236856Y0157913D03*
X0236817Y0157913D03*
X0236738Y0157953D03*
X0235124Y0161890D03*
X0235084Y0161890D03*
X0235045Y0161890D03*
X0235006Y0161890D03*
X0234966Y0161890D03*
X0234927Y0161890D03*
X0234887Y0161890D03*
X0234848Y0161890D03*
X0234809Y0161890D03*
X0234769Y0161890D03*
X0234730Y0161890D03*
X0234691Y0161890D03*
X0234651Y0161890D03*
X0234612Y0161890D03*
X0234572Y0161890D03*
X0234533Y0161890D03*
X0234494Y0161890D03*
X0234454Y0161890D03*
X0234415Y0161890D03*
X0234376Y0161890D03*
X0235635Y0165118D03*
X0235675Y0165157D03*
X0239218Y0166260D03*
X0239257Y0166260D03*
X0239297Y0166260D03*
X0239336Y0166260D03*
X0236777Y0169449D03*
X0236738Y0169449D03*
X0236698Y0169449D03*
X0236659Y0169449D03*
X0236541Y0176929D03*
X0236502Y0176929D03*
X0236580Y0176969D03*
X0236620Y0176969D03*
X0236659Y0176969D03*
X0241777Y0176811D03*
X0241817Y0176811D03*
X0241856Y0176772D03*
D111*
X0243903Y0172756D03*
D112*
X0243864Y0159941D03*
X0234454Y0159665D03*
D113*
X0234376Y0159902D03*
X0243864Y0164075D03*
D114*
X0243864Y0172736D03*
D115*
X0243076Y0165492D03*
X0243628Y0164587D03*
X0243824Y0159823D03*
D116*
X0243824Y0164173D03*
D117*
X0243509Y0164783D03*
X0243470Y0164823D03*
X0243431Y0164902D03*
X0243155Y0165335D03*
X0243785Y0159744D03*
X0234572Y0159429D03*
D118*
X0243785Y0164272D03*
D119*
X0243785Y0172717D03*
D120*
X0243352Y0165020D03*
X0243746Y0159665D03*
X0234651Y0175531D03*
D121*
X0242998Y0165709D03*
X0243746Y0164370D03*
D122*
X0243746Y0172717D03*
D123*
X0243549Y0175453D03*
X0241895Y0168799D03*
X0241935Y0166280D03*
X0243706Y0159587D03*
X0234691Y0159272D03*
X0234533Y0164114D03*
D124*
X0243706Y0164449D03*
D125*
X0243706Y0172697D03*
D126*
X0234730Y0175669D03*
X0236029Y0161890D03*
X0236069Y0161890D03*
X0236108Y0161890D03*
X0236147Y0161890D03*
X0236187Y0161890D03*
X0236226Y0161890D03*
X0236265Y0161890D03*
X0236305Y0161890D03*
X0236344Y0161890D03*
X0236383Y0161890D03*
X0236423Y0161890D03*
X0236462Y0161890D03*
X0236502Y0161890D03*
X0236541Y0161890D03*
X0236580Y0161890D03*
X0236620Y0161890D03*
X0236659Y0161890D03*
X0236698Y0161890D03*
X0236738Y0161890D03*
X0236777Y0161890D03*
X0236817Y0161890D03*
X0236856Y0161890D03*
X0236895Y0161890D03*
X0236935Y0161890D03*
X0236974Y0161890D03*
X0237013Y0161890D03*
X0237053Y0161890D03*
X0237092Y0161890D03*
X0237131Y0161890D03*
X0237171Y0161890D03*
X0237210Y0161890D03*
X0237250Y0161890D03*
X0237289Y0161890D03*
X0237328Y0161890D03*
X0237368Y0161890D03*
X0237407Y0161890D03*
X0237446Y0161890D03*
X0237486Y0161890D03*
X0237525Y0161890D03*
X0237565Y0161890D03*
X0237604Y0161890D03*
X0237643Y0161890D03*
X0237683Y0161890D03*
X0237722Y0161890D03*
X0237761Y0161890D03*
X0237801Y0161890D03*
X0237840Y0161890D03*
X0237880Y0161890D03*
X0237919Y0161890D03*
X0237958Y0161890D03*
X0237998Y0161890D03*
X0238037Y0161890D03*
X0238076Y0161890D03*
X0238116Y0161890D03*
X0238155Y0161890D03*
X0238194Y0161890D03*
X0238234Y0161890D03*
X0238273Y0161890D03*
X0238313Y0161890D03*
X0238352Y0161890D03*
X0238391Y0161890D03*
X0238431Y0161890D03*
X0238470Y0161890D03*
X0238509Y0161890D03*
X0238549Y0161890D03*
X0238588Y0161890D03*
X0238628Y0161890D03*
X0238667Y0161890D03*
X0238706Y0161890D03*
X0238746Y0161890D03*
X0238785Y0161890D03*
X0238824Y0161890D03*
X0238864Y0161890D03*
X0238903Y0161890D03*
X0238943Y0161890D03*
X0238982Y0161890D03*
X0239021Y0161890D03*
X0239061Y0161890D03*
X0239100Y0161890D03*
X0239139Y0161890D03*
X0239179Y0161890D03*
X0239218Y0161890D03*
X0239257Y0161890D03*
X0239297Y0161890D03*
X0239336Y0161890D03*
X0239376Y0161890D03*
X0239415Y0161890D03*
X0239454Y0161890D03*
X0239494Y0161890D03*
X0239533Y0161890D03*
X0239572Y0161890D03*
X0239612Y0161890D03*
X0239651Y0161890D03*
X0239691Y0161890D03*
X0239730Y0161890D03*
X0239769Y0161890D03*
X0239809Y0161890D03*
X0239848Y0161890D03*
X0239887Y0161890D03*
X0239927Y0161890D03*
X0239966Y0161890D03*
X0240006Y0161890D03*
X0240045Y0161890D03*
X0240084Y0161890D03*
X0240124Y0161890D03*
X0240163Y0161890D03*
X0240202Y0161890D03*
X0240242Y0161890D03*
X0240281Y0161890D03*
X0240320Y0161890D03*
X0240360Y0161890D03*
X0240399Y0161890D03*
X0240439Y0161890D03*
X0240478Y0161890D03*
X0240517Y0161890D03*
X0240557Y0161890D03*
X0240596Y0161890D03*
X0240635Y0161890D03*
X0240675Y0161890D03*
X0240714Y0161890D03*
X0240754Y0161890D03*
X0240793Y0161890D03*
X0240832Y0161890D03*
X0240872Y0161890D03*
X0240911Y0161890D03*
X0240950Y0161890D03*
X0240990Y0161890D03*
X0241029Y0161890D03*
X0241069Y0161890D03*
X0241108Y0161890D03*
X0241147Y0161890D03*
X0241187Y0161890D03*
X0241226Y0161890D03*
X0241265Y0161890D03*
X0241305Y0161890D03*
X0241344Y0161890D03*
X0241383Y0161890D03*
X0241423Y0161890D03*
X0241462Y0161890D03*
X0241502Y0161890D03*
X0241541Y0161890D03*
X0241580Y0161890D03*
X0241620Y0161890D03*
X0241659Y0161890D03*
X0241698Y0161890D03*
X0241738Y0161890D03*
X0241777Y0161890D03*
X0241817Y0161890D03*
X0241856Y0161890D03*
X0241895Y0161890D03*
X0241935Y0161890D03*
X0241974Y0161890D03*
X0242013Y0161890D03*
X0243667Y0159528D03*
D127*
X0243667Y0164508D03*
D128*
X0243667Y0169193D03*
X0237486Y0165925D03*
X0237368Y0165886D03*
X0237250Y0165846D03*
X0237131Y0165807D03*
X0237013Y0165768D03*
X0236895Y0165728D03*
X0235714Y0169587D03*
X0235675Y0169587D03*
D129*
X0236817Y0169429D03*
X0236856Y0169429D03*
X0236895Y0169429D03*
X0239376Y0166280D03*
X0239415Y0166280D03*
X0239454Y0166280D03*
X0239494Y0166280D03*
X0235596Y0165098D03*
X0235281Y0173012D03*
X0235242Y0173012D03*
X0235202Y0173012D03*
X0235163Y0173012D03*
X0235124Y0173012D03*
X0235084Y0173012D03*
X0235045Y0173012D03*
X0235006Y0173012D03*
X0234966Y0173012D03*
X0234927Y0173012D03*
X0234887Y0173012D03*
X0234848Y0173012D03*
X0234809Y0173012D03*
X0234769Y0173012D03*
X0234730Y0173012D03*
X0234691Y0173012D03*
X0234651Y0173012D03*
X0234612Y0173012D03*
X0234572Y0173012D03*
X0234533Y0173012D03*
X0236383Y0176870D03*
X0236462Y0176909D03*
X0241895Y0176752D03*
X0241935Y0176752D03*
X0241974Y0176713D03*
X0242013Y0176713D03*
X0242958Y0173012D03*
X0242998Y0173012D03*
X0243037Y0173012D03*
X0243076Y0173012D03*
X0243116Y0173012D03*
X0243155Y0173012D03*
X0243194Y0173012D03*
X0243234Y0173012D03*
X0243273Y0173012D03*
X0243313Y0173012D03*
X0243352Y0173012D03*
X0243391Y0173012D03*
X0243431Y0173012D03*
X0243470Y0173012D03*
X0243509Y0173012D03*
X0243549Y0173012D03*
X0243588Y0173012D03*
X0243628Y0173012D03*
X0243667Y0173012D03*
X0243194Y0168760D03*
X0242210Y0158287D03*
X0242131Y0158248D03*
X0242053Y0158209D03*
X0236777Y0157933D03*
X0236698Y0157972D03*
X0236659Y0157972D03*
D130*
X0234494Y0159567D03*
X0234415Y0163858D03*
X0243037Y0165591D03*
X0243667Y0175157D03*
X0234572Y0175394D03*
D131*
X0234809Y0175768D03*
X0241777Y0168878D03*
X0243470Y0175571D03*
X0242525Y0161870D03*
X0242486Y0161870D03*
X0243628Y0159469D03*
X0235675Y0161870D03*
D132*
X0243509Y0168996D03*
X0243549Y0169035D03*
X0243588Y0169075D03*
X0243628Y0169114D03*
X0235517Y0169626D03*
X0235478Y0169626D03*
D133*
X0243194Y0165276D03*
X0243234Y0165197D03*
X0243273Y0165157D03*
X0243313Y0165079D03*
X0243391Y0164961D03*
X0243628Y0175276D03*
D134*
X0241738Y0168898D03*
X0241856Y0166220D03*
X0242565Y0161890D03*
X0242604Y0161890D03*
X0243588Y0159409D03*
X0235635Y0161890D03*
X0235596Y0161890D03*
X0234612Y0164252D03*
X0234809Y0159134D03*
X0234848Y0175827D03*
D135*
X0243588Y0164646D03*
D136*
X0241935Y0168760D03*
X0243588Y0175374D03*
X0234691Y0175610D03*
D137*
X0241659Y0168917D03*
X0241698Y0168917D03*
X0243431Y0175610D03*
X0242643Y0161870D03*
X0243549Y0159350D03*
X0235557Y0161870D03*
X0234848Y0159075D03*
D138*
X0234533Y0159508D03*
X0243549Y0164705D03*
X0243116Y0165413D03*
D139*
X0241777Y0166201D03*
X0241541Y0168957D03*
X0241502Y0168957D03*
X0241462Y0168957D03*
X0241423Y0168957D03*
X0242761Y0161870D03*
X0243509Y0159311D03*
X0235478Y0161870D03*
X0234887Y0159035D03*
X0234927Y0158996D03*
D140*
X0234769Y0159173D03*
X0235714Y0161890D03*
X0235754Y0161890D03*
X0235793Y0161890D03*
X0235832Y0161890D03*
X0235872Y0161890D03*
X0235911Y0161890D03*
X0235950Y0161890D03*
X0235990Y0161890D03*
X0234572Y0164173D03*
X0241895Y0166260D03*
X0241817Y0168858D03*
X0243509Y0175512D03*
X0242446Y0161890D03*
X0242407Y0161890D03*
X0242368Y0161890D03*
X0242328Y0161890D03*
X0242289Y0161890D03*
X0242250Y0161890D03*
X0242210Y0161890D03*
X0242171Y0161890D03*
X0242131Y0161890D03*
X0242092Y0161890D03*
X0242053Y0161890D03*
D141*
X0242801Y0161890D03*
X0243470Y0159252D03*
X0241738Y0166220D03*
X0241383Y0168976D03*
X0241344Y0168976D03*
X0241305Y0168976D03*
X0241265Y0168976D03*
X0241226Y0168976D03*
X0241187Y0168976D03*
X0241147Y0168976D03*
X0243352Y0175709D03*
X0234966Y0175945D03*
X0234691Y0164331D03*
X0235439Y0161890D03*
D142*
X0243470Y0168976D03*
X0235635Y0169606D03*
X0235596Y0169606D03*
X0235557Y0169606D03*
D143*
X0240202Y0169016D03*
X0240242Y0169016D03*
X0240281Y0169016D03*
X0240320Y0169016D03*
X0240360Y0169016D03*
X0240399Y0169016D03*
X0240439Y0169016D03*
X0240478Y0169016D03*
X0240517Y0169016D03*
X0240557Y0169016D03*
X0241659Y0166220D03*
X0242880Y0161890D03*
X0243431Y0159213D03*
X0235045Y0158898D03*
X0235006Y0158937D03*
X0235399Y0161890D03*
X0234730Y0164409D03*
X0235006Y0175984D03*
X0235045Y0176024D03*
D144*
X0235754Y0169606D03*
X0235793Y0169606D03*
X0237053Y0165787D03*
X0237092Y0165787D03*
X0237171Y0165827D03*
X0237210Y0165827D03*
X0237289Y0165866D03*
X0237328Y0165866D03*
X0237407Y0165906D03*
X0237446Y0165906D03*
X0237525Y0165945D03*
X0237565Y0165945D03*
X0237604Y0165945D03*
X0237643Y0165945D03*
X0237683Y0165984D03*
X0237722Y0165984D03*
X0237761Y0165984D03*
X0237840Y0166024D03*
X0237880Y0166024D03*
X0236974Y0165748D03*
X0236935Y0165748D03*
X0236856Y0165709D03*
X0236817Y0165709D03*
X0236777Y0165669D03*
X0236738Y0165669D03*
X0236659Y0165630D03*
X0236541Y0165591D03*
X0243431Y0168937D03*
D145*
X0242998Y0168524D03*
X0241620Y0166201D03*
X0240163Y0169035D03*
X0240124Y0169035D03*
X0240084Y0169035D03*
X0240045Y0169035D03*
X0240006Y0169035D03*
X0239966Y0169035D03*
X0239927Y0169035D03*
X0239927Y0173406D03*
X0239966Y0173406D03*
X0240006Y0173406D03*
X0240045Y0173406D03*
X0240084Y0173406D03*
X0240124Y0173406D03*
X0240163Y0173406D03*
X0240202Y0173406D03*
X0240242Y0173406D03*
X0240281Y0173406D03*
X0240320Y0173406D03*
X0240360Y0173406D03*
X0240399Y0173406D03*
X0240439Y0173406D03*
X0240478Y0173406D03*
X0240517Y0173406D03*
X0240557Y0173406D03*
X0240596Y0173406D03*
X0240635Y0173406D03*
X0240675Y0173406D03*
X0240714Y0173406D03*
X0240754Y0173406D03*
X0240793Y0173406D03*
X0240832Y0173406D03*
X0240872Y0173406D03*
X0240911Y0173406D03*
X0240950Y0173406D03*
X0240990Y0173406D03*
X0241029Y0173406D03*
X0241069Y0173406D03*
X0241108Y0173406D03*
X0241147Y0173406D03*
X0241187Y0173406D03*
X0241226Y0173406D03*
X0241265Y0173406D03*
X0241305Y0173406D03*
X0241344Y0173406D03*
X0241383Y0173406D03*
X0241423Y0173406D03*
X0241462Y0173406D03*
X0241502Y0173406D03*
X0241541Y0173406D03*
X0241580Y0173406D03*
X0241620Y0173406D03*
X0241659Y0173406D03*
X0241698Y0173406D03*
X0241738Y0173406D03*
X0241777Y0173406D03*
X0239887Y0173406D03*
X0239848Y0173406D03*
X0239809Y0173406D03*
X0239769Y0173406D03*
X0239730Y0173406D03*
X0239691Y0173406D03*
X0239651Y0173406D03*
X0239612Y0173406D03*
X0239572Y0173406D03*
X0239533Y0173406D03*
X0239494Y0173406D03*
X0239454Y0173406D03*
X0239415Y0173406D03*
X0239376Y0173406D03*
X0239336Y0173406D03*
X0239297Y0173406D03*
X0239257Y0173406D03*
X0239218Y0173406D03*
X0239179Y0173406D03*
X0239139Y0173406D03*
X0239100Y0173406D03*
X0239061Y0173406D03*
X0239021Y0173406D03*
X0238982Y0173406D03*
X0238943Y0173406D03*
X0238903Y0173406D03*
X0238864Y0173406D03*
X0238824Y0173406D03*
X0238785Y0173406D03*
X0238746Y0173406D03*
X0238706Y0173406D03*
X0238667Y0173406D03*
X0238628Y0173406D03*
X0238588Y0173406D03*
X0238549Y0173406D03*
X0238509Y0173406D03*
X0238470Y0173406D03*
X0238431Y0173406D03*
X0238391Y0173406D03*
X0238352Y0173406D03*
X0238313Y0173406D03*
X0238273Y0173406D03*
X0238234Y0173406D03*
X0238194Y0173406D03*
X0238155Y0173406D03*
X0238116Y0173406D03*
X0238076Y0173406D03*
X0238037Y0173406D03*
X0237998Y0173406D03*
X0237958Y0173406D03*
X0237919Y0173406D03*
X0237880Y0173406D03*
X0237840Y0173406D03*
X0237801Y0173406D03*
X0237761Y0173406D03*
X0237722Y0173406D03*
X0237683Y0173406D03*
X0237643Y0173406D03*
X0237604Y0173406D03*
X0237565Y0173406D03*
X0237525Y0173406D03*
X0237486Y0173406D03*
X0237446Y0173406D03*
X0237407Y0173406D03*
X0237368Y0173406D03*
X0237328Y0173406D03*
X0237289Y0173406D03*
X0237250Y0173406D03*
X0237210Y0173406D03*
X0237171Y0173406D03*
X0237131Y0173406D03*
X0237092Y0173406D03*
X0237053Y0173406D03*
X0237013Y0173406D03*
X0236974Y0173406D03*
X0236935Y0173406D03*
X0236895Y0173406D03*
X0236856Y0173406D03*
X0236817Y0173406D03*
X0236777Y0173406D03*
X0236738Y0173406D03*
X0236698Y0173406D03*
X0236659Y0173406D03*
X0236620Y0173406D03*
X0236580Y0173406D03*
X0236541Y0173406D03*
X0236502Y0173406D03*
X0236462Y0173406D03*
X0243234Y0175846D03*
X0243273Y0175807D03*
X0234769Y0164429D03*
X0243391Y0159154D03*
D146*
X0238155Y0166083D03*
X0238116Y0166083D03*
X0238076Y0166083D03*
X0238037Y0166043D03*
X0237998Y0166043D03*
X0237958Y0166043D03*
X0237919Y0166043D03*
X0237801Y0166004D03*
X0236698Y0165650D03*
X0236620Y0165610D03*
X0236580Y0165610D03*
X0236502Y0165571D03*
X0236423Y0165531D03*
X0236344Y0165492D03*
X0235911Y0169587D03*
X0235872Y0169587D03*
X0235832Y0169587D03*
X0243391Y0168917D03*
D147*
X0241620Y0168937D03*
X0241580Y0168937D03*
X0241817Y0166220D03*
X0242683Y0161890D03*
X0242722Y0161890D03*
X0235517Y0161890D03*
X0234651Y0164291D03*
X0234887Y0175866D03*
X0234927Y0175906D03*
X0243391Y0175669D03*
D148*
X0242289Y0173386D03*
X0242250Y0173386D03*
X0242210Y0173386D03*
X0242171Y0173386D03*
X0242131Y0173386D03*
X0242092Y0173386D03*
X0242053Y0173386D03*
X0242013Y0173386D03*
X0241974Y0173386D03*
X0241935Y0173386D03*
X0241895Y0173386D03*
X0241856Y0173386D03*
X0241817Y0173386D03*
X0239887Y0169055D03*
X0239848Y0169055D03*
X0239809Y0169055D03*
X0239769Y0169055D03*
X0239730Y0169055D03*
X0239691Y0169055D03*
X0241580Y0166220D03*
X0242919Y0161890D03*
X0243352Y0159134D03*
X0235124Y0158819D03*
X0235084Y0158858D03*
X0235360Y0161890D03*
X0236029Y0173386D03*
X0236069Y0173386D03*
X0236108Y0173386D03*
X0236147Y0173386D03*
X0236187Y0173386D03*
X0236226Y0173386D03*
X0236265Y0173386D03*
X0236305Y0173386D03*
X0236344Y0173386D03*
X0236383Y0173386D03*
X0236423Y0173386D03*
X0235084Y0176063D03*
X0235124Y0176102D03*
D149*
X0238352Y0177323D03*
X0238391Y0177323D03*
X0238431Y0177323D03*
X0238470Y0177323D03*
X0238509Y0177323D03*
X0238549Y0177323D03*
X0238588Y0177323D03*
X0238628Y0177323D03*
X0238667Y0177323D03*
X0238706Y0177323D03*
X0238746Y0177323D03*
X0238785Y0177323D03*
X0238824Y0177323D03*
X0238864Y0177323D03*
X0238903Y0177323D03*
X0238943Y0177323D03*
X0238982Y0177323D03*
X0239021Y0177323D03*
X0239061Y0177323D03*
X0239100Y0177323D03*
X0239139Y0177323D03*
X0239179Y0177323D03*
X0239218Y0177323D03*
X0239257Y0177323D03*
X0239297Y0177323D03*
X0239336Y0177323D03*
X0239376Y0177323D03*
X0239415Y0177323D03*
X0239454Y0177323D03*
X0239494Y0177323D03*
X0239533Y0177323D03*
X0239572Y0177323D03*
X0239612Y0177323D03*
X0239651Y0177323D03*
X0239691Y0177323D03*
X0239730Y0177323D03*
X0239769Y0177323D03*
X0239809Y0177283D03*
X0239848Y0177283D03*
X0239887Y0177283D03*
X0239927Y0177283D03*
X0239966Y0177283D03*
X0240006Y0177283D03*
X0240045Y0177283D03*
X0240084Y0177283D03*
X0240163Y0177244D03*
X0240202Y0177244D03*
X0240242Y0177244D03*
X0240281Y0177244D03*
X0240320Y0177244D03*
X0240439Y0177205D03*
X0240478Y0177205D03*
X0236029Y0169567D03*
X0235990Y0169567D03*
X0235950Y0169567D03*
X0236462Y0165551D03*
X0236383Y0165512D03*
X0236305Y0165472D03*
X0236265Y0165472D03*
X0236226Y0165433D03*
X0238194Y0166102D03*
X0238234Y0166102D03*
X0238273Y0166102D03*
X0238391Y0166142D03*
X0238431Y0166142D03*
X0243352Y0168898D03*
X0240439Y0157717D03*
X0240202Y0157677D03*
X0240163Y0157677D03*
X0239927Y0157638D03*
X0239887Y0157638D03*
X0239848Y0157638D03*
X0239809Y0157638D03*
D150*
X0235163Y0158799D03*
X0234809Y0164469D03*
X0239454Y0169075D03*
X0239494Y0169075D03*
X0239533Y0169075D03*
X0239572Y0169075D03*
X0239612Y0169075D03*
X0239651Y0169075D03*
X0241502Y0166201D03*
X0241541Y0166201D03*
X0242328Y0173366D03*
X0242368Y0173366D03*
X0242407Y0173366D03*
X0243194Y0175886D03*
X0235990Y0173366D03*
X0235950Y0173366D03*
X0235911Y0173366D03*
X0235872Y0173366D03*
X0243313Y0159075D03*
D151*
X0241305Y0157913D03*
X0241265Y0157913D03*
X0241187Y0157874D03*
X0241147Y0157874D03*
X0241108Y0157874D03*
X0241029Y0157835D03*
X0240990Y0157835D03*
X0240872Y0157795D03*
X0240832Y0157795D03*
X0238352Y0157638D03*
X0238313Y0157638D03*
X0238273Y0157638D03*
X0238234Y0157638D03*
X0238194Y0157638D03*
X0238155Y0157638D03*
X0238116Y0157638D03*
X0237998Y0157677D03*
X0237958Y0157677D03*
X0237919Y0157677D03*
X0237880Y0157677D03*
X0235990Y0165315D03*
X0236029Y0165354D03*
X0236069Y0165354D03*
X0238628Y0166181D03*
X0238667Y0166181D03*
X0238706Y0166181D03*
X0236265Y0169528D03*
X0236226Y0169528D03*
X0236187Y0169528D03*
X0243313Y0168858D03*
X0241147Y0177047D03*
X0241108Y0177047D03*
X0241069Y0177047D03*
X0241029Y0177087D03*
X0240990Y0177087D03*
X0240950Y0177087D03*
X0240872Y0177126D03*
X0240832Y0177126D03*
X0237801Y0177244D03*
X0237761Y0177244D03*
X0237722Y0177244D03*
X0237683Y0177244D03*
X0237604Y0177205D03*
X0237565Y0177205D03*
X0237525Y0177205D03*
X0237486Y0177205D03*
X0237368Y0177165D03*
X0237328Y0177165D03*
D152*
X0243313Y0175768D03*
X0241108Y0168996D03*
X0241069Y0168996D03*
X0241029Y0168996D03*
X0240990Y0168996D03*
X0240950Y0168996D03*
X0240911Y0168996D03*
X0240872Y0168996D03*
X0240832Y0168996D03*
X0240793Y0168996D03*
X0240754Y0168996D03*
X0240714Y0168996D03*
X0240675Y0168996D03*
X0240635Y0168996D03*
X0240596Y0168996D03*
X0241698Y0166201D03*
X0242840Y0161870D03*
X0234966Y0158957D03*
D153*
X0235242Y0158720D03*
X0243234Y0158996D03*
X0243273Y0159035D03*
X0241383Y0166240D03*
X0239218Y0169114D03*
X0239179Y0169114D03*
X0239139Y0169114D03*
X0239100Y0169114D03*
X0239061Y0169114D03*
X0235714Y0173327D03*
X0235675Y0173327D03*
X0235242Y0176201D03*
X0242525Y0173327D03*
X0242565Y0173327D03*
X0243116Y0175965D03*
D154*
X0241580Y0176890D03*
X0241502Y0176929D03*
X0241462Y0176929D03*
X0241383Y0176969D03*
X0237171Y0177126D03*
X0237053Y0177087D03*
X0237013Y0177087D03*
X0236974Y0177087D03*
X0236895Y0177047D03*
X0236856Y0177047D03*
X0236502Y0169488D03*
X0236462Y0169488D03*
X0236423Y0169488D03*
X0238903Y0166220D03*
X0238943Y0166220D03*
X0238982Y0166220D03*
X0239021Y0166220D03*
X0235832Y0165236D03*
X0235754Y0165197D03*
X0243273Y0168819D03*
X0241738Y0158071D03*
X0241698Y0158071D03*
X0241659Y0158031D03*
X0241620Y0158031D03*
X0241541Y0157992D03*
X0241502Y0157992D03*
X0237486Y0157756D03*
X0237446Y0157756D03*
X0237407Y0157756D03*
X0237328Y0157795D03*
X0237289Y0157795D03*
X0237250Y0157795D03*
X0237131Y0157835D03*
D155*
X0237092Y0157854D03*
X0237053Y0157854D03*
X0237013Y0157854D03*
X0237171Y0157815D03*
X0237210Y0157815D03*
X0241777Y0158091D03*
X0241817Y0158091D03*
X0241856Y0158130D03*
X0241895Y0158130D03*
X0239179Y0166240D03*
X0239139Y0166240D03*
X0239100Y0166240D03*
X0239061Y0166240D03*
X0235793Y0165217D03*
X0235714Y0165177D03*
X0236541Y0169469D03*
X0236580Y0169469D03*
X0236620Y0169469D03*
X0243234Y0168799D03*
X0241738Y0176831D03*
X0241698Y0176831D03*
X0241659Y0176870D03*
X0241620Y0176870D03*
X0241541Y0176909D03*
X0236935Y0177067D03*
X0236817Y0177028D03*
X0236777Y0177028D03*
X0236738Y0176988D03*
X0236698Y0176988D03*
D156*
X0235635Y0173307D03*
X0238903Y0169134D03*
X0238943Y0169134D03*
X0238982Y0169134D03*
X0239021Y0169134D03*
X0241344Y0166220D03*
X0242998Y0161890D03*
X0243194Y0158976D03*
X0235320Y0158661D03*
X0235281Y0158701D03*
X0235281Y0161890D03*
X0234887Y0164567D03*
X0242604Y0173307D03*
X0242643Y0173307D03*
X0243076Y0175984D03*
D157*
X0242998Y0176063D03*
X0242958Y0176102D03*
X0242722Y0173268D03*
X0243037Y0168583D03*
X0241187Y0166260D03*
X0241147Y0166260D03*
X0241108Y0166260D03*
X0238667Y0169173D03*
X0238628Y0169173D03*
X0238588Y0169173D03*
X0238549Y0169173D03*
X0235517Y0173268D03*
X0235360Y0176299D03*
X0234966Y0164646D03*
X0235242Y0161890D03*
X0235399Y0158622D03*
X0235439Y0158583D03*
X0243116Y0158898D03*
X0243155Y0158937D03*
X0243037Y0161890D03*
D158*
X0242407Y0158406D03*
X0242368Y0158366D03*
X0242328Y0158366D03*
X0242289Y0158327D03*
X0236462Y0158051D03*
X0236423Y0158051D03*
X0236383Y0158091D03*
X0236344Y0158091D03*
X0235439Y0164980D03*
X0235478Y0165020D03*
X0239730Y0166319D03*
X0239769Y0166319D03*
X0239809Y0166319D03*
X0239848Y0166319D03*
X0239887Y0166319D03*
X0237131Y0169390D03*
X0237092Y0169390D03*
X0237053Y0169390D03*
X0243155Y0168720D03*
X0242919Y0173051D03*
X0242250Y0176594D03*
X0242210Y0176594D03*
X0242171Y0176634D03*
X0236265Y0176831D03*
X0236187Y0176791D03*
X0236108Y0176752D03*
D159*
X0235202Y0176181D03*
X0235163Y0176142D03*
X0235754Y0173346D03*
X0235793Y0173346D03*
X0235832Y0173346D03*
X0239257Y0169094D03*
X0239297Y0169094D03*
X0239336Y0169094D03*
X0239376Y0169094D03*
X0239415Y0169094D03*
X0241423Y0166220D03*
X0241462Y0166220D03*
X0242958Y0161890D03*
X0235320Y0161890D03*
X0234848Y0164528D03*
X0235202Y0158740D03*
X0242446Y0173346D03*
X0242486Y0173346D03*
X0243155Y0175906D03*
D160*
X0242328Y0176535D03*
X0242289Y0176575D03*
X0236147Y0176772D03*
X0236069Y0176732D03*
X0237171Y0169370D03*
X0237210Y0169370D03*
X0237250Y0169370D03*
X0235399Y0164961D03*
X0242446Y0158425D03*
X0242525Y0158465D03*
X0243116Y0161890D03*
X0236305Y0158110D03*
X0236265Y0158110D03*
X0236226Y0158150D03*
D161*
X0235990Y0158248D03*
X0235950Y0158287D03*
X0235911Y0158287D03*
X0235202Y0164823D03*
X0235242Y0164862D03*
X0237565Y0169311D03*
X0237604Y0169311D03*
X0237643Y0169311D03*
X0240242Y0166319D03*
X0240281Y0166319D03*
X0240320Y0166319D03*
X0240360Y0166319D03*
X0240399Y0166319D03*
X0240439Y0166319D03*
X0243116Y0168681D03*
X0242880Y0173130D03*
X0242565Y0176398D03*
X0235872Y0176634D03*
X0235793Y0176594D03*
X0242722Y0158602D03*
X0242683Y0158563D03*
D162*
X0243076Y0158878D03*
X0235517Y0158524D03*
X0235478Y0158563D03*
X0235006Y0164665D03*
X0238391Y0169193D03*
X0238431Y0169193D03*
X0238470Y0169193D03*
X0238509Y0169193D03*
X0240990Y0166280D03*
X0241029Y0166280D03*
X0241069Y0166280D03*
X0242761Y0173248D03*
X0242919Y0176122D03*
X0235439Y0176358D03*
X0235399Y0176319D03*
X0235478Y0173248D03*
D163*
X0235399Y0173189D03*
X0235596Y0176457D03*
X0235635Y0176496D03*
X0242761Y0176260D03*
X0242801Y0176220D03*
X0243076Y0168622D03*
X0240793Y0166299D03*
X0240754Y0166299D03*
X0240714Y0166299D03*
X0240675Y0166299D03*
X0238076Y0169252D03*
X0238037Y0169252D03*
X0237998Y0169252D03*
X0237958Y0169252D03*
X0235124Y0164764D03*
X0235202Y0161890D03*
X0235675Y0158425D03*
X0235754Y0158386D03*
X0242880Y0158701D03*
X0242919Y0158740D03*
X0243076Y0161890D03*
D164*
X0243037Y0158819D03*
X0235557Y0158504D03*
X0240950Y0166299D03*
X0238352Y0169213D03*
X0238313Y0169213D03*
X0238273Y0169213D03*
X0235439Y0173228D03*
X0235478Y0176378D03*
X0235517Y0176417D03*
X0242880Y0176181D03*
D165*
X0243037Y0176043D03*
X0242683Y0173287D03*
X0238864Y0169154D03*
X0238824Y0169154D03*
X0238785Y0169154D03*
X0238746Y0169154D03*
X0238706Y0169154D03*
X0241226Y0166240D03*
X0241265Y0166240D03*
X0241305Y0166240D03*
X0234927Y0164587D03*
X0235360Y0158642D03*
X0235557Y0173287D03*
X0235596Y0173287D03*
X0235281Y0176240D03*
X0235320Y0176280D03*
D166*
X0235557Y0176437D03*
X0242801Y0173209D03*
X0242840Y0176201D03*
X0238234Y0169232D03*
X0238194Y0169232D03*
X0238155Y0169232D03*
X0238116Y0169232D03*
X0240832Y0166280D03*
X0240872Y0166280D03*
X0240911Y0166280D03*
X0235084Y0164744D03*
X0235045Y0164705D03*
X0235596Y0158484D03*
X0235635Y0158445D03*
X0242958Y0158760D03*
X0242998Y0158799D03*
D167*
X0242840Y0158681D03*
X0235793Y0158366D03*
X0235714Y0158406D03*
X0235163Y0164783D03*
X0237840Y0169272D03*
X0237880Y0169272D03*
X0237919Y0169272D03*
X0240557Y0166319D03*
X0240596Y0166319D03*
X0240635Y0166319D03*
X0242840Y0173169D03*
X0242722Y0176280D03*
X0242683Y0176319D03*
X0235675Y0176516D03*
D168*
X0235714Y0176535D03*
X0235754Y0176575D03*
X0235360Y0173150D03*
X0237683Y0169291D03*
X0237722Y0169291D03*
X0237761Y0169291D03*
X0237801Y0169291D03*
X0240478Y0166299D03*
X0240517Y0166299D03*
X0242801Y0158661D03*
X0242761Y0158622D03*
X0235872Y0158307D03*
X0235832Y0158346D03*
X0242643Y0176339D03*
X0242604Y0176378D03*
D169*
X0242525Y0176417D03*
X0242486Y0176457D03*
X0235911Y0176654D03*
X0235832Y0176614D03*
X0237446Y0169331D03*
X0237486Y0169331D03*
X0237525Y0169331D03*
X0240202Y0166339D03*
X0235281Y0164882D03*
X0235163Y0161890D03*
X0236029Y0158228D03*
X0236069Y0158228D03*
X0242604Y0158504D03*
X0242643Y0158543D03*
D170*
X0242565Y0158484D03*
X0242486Y0158445D03*
X0236187Y0158169D03*
X0236147Y0158169D03*
X0236108Y0158209D03*
X0235320Y0164902D03*
X0235360Y0164941D03*
X0239927Y0166319D03*
X0239966Y0166319D03*
X0240006Y0166319D03*
X0240045Y0166319D03*
X0240084Y0166319D03*
X0240124Y0166319D03*
X0240163Y0166319D03*
X0237407Y0169350D03*
X0237368Y0169350D03*
X0237328Y0169350D03*
X0237289Y0169350D03*
X0235320Y0173091D03*
X0235950Y0176673D03*
X0235990Y0176713D03*
X0236029Y0176713D03*
X0242368Y0176516D03*
X0242407Y0176476D03*
X0242446Y0176476D03*
D171*
X0242131Y0176654D03*
X0242092Y0176654D03*
X0242053Y0176693D03*
X0236423Y0176890D03*
X0236344Y0176850D03*
X0236305Y0176850D03*
X0236226Y0176811D03*
X0236935Y0169409D03*
X0236974Y0169409D03*
X0237013Y0169409D03*
X0239533Y0166299D03*
X0239572Y0166299D03*
X0239612Y0166299D03*
X0239651Y0166299D03*
X0239691Y0166299D03*
X0235557Y0165079D03*
X0235517Y0165039D03*
X0242171Y0158268D03*
X0242250Y0158307D03*
X0236620Y0157992D03*
X0236580Y0157992D03*
X0236541Y0158031D03*
X0236502Y0158031D03*
D172*
X0237368Y0157776D03*
X0237525Y0157736D03*
X0237565Y0157736D03*
X0237604Y0157736D03*
X0237643Y0157736D03*
X0237683Y0157697D03*
X0237722Y0157697D03*
X0237761Y0157697D03*
X0237801Y0157697D03*
X0237840Y0157697D03*
X0238037Y0157657D03*
X0238076Y0157657D03*
X0241226Y0157894D03*
X0241344Y0157933D03*
X0241383Y0157933D03*
X0241423Y0157972D03*
X0241462Y0157972D03*
X0241580Y0158012D03*
X0238864Y0166201D03*
X0238824Y0166201D03*
X0238785Y0166201D03*
X0238746Y0166201D03*
X0235950Y0165295D03*
X0235911Y0165295D03*
X0235872Y0165256D03*
X0236305Y0169508D03*
X0236344Y0169508D03*
X0236383Y0169508D03*
X0237092Y0177106D03*
X0237131Y0177106D03*
X0237210Y0177146D03*
X0237250Y0177146D03*
X0237289Y0177146D03*
X0237407Y0177185D03*
X0237446Y0177185D03*
X0241187Y0177028D03*
X0241226Y0177028D03*
X0241265Y0176988D03*
X0241305Y0176988D03*
X0241344Y0176988D03*
X0241423Y0176949D03*
D173*
X0240911Y0177106D03*
X0240793Y0177146D03*
X0240754Y0177146D03*
X0240714Y0177146D03*
X0240675Y0177146D03*
X0240635Y0177185D03*
X0240596Y0177185D03*
X0240557Y0177185D03*
X0240517Y0177185D03*
X0240399Y0177224D03*
X0240360Y0177224D03*
X0240124Y0177264D03*
X0238313Y0177303D03*
X0238273Y0177303D03*
X0238234Y0177303D03*
X0238194Y0177303D03*
X0238155Y0177303D03*
X0238116Y0177303D03*
X0238076Y0177303D03*
X0238037Y0177303D03*
X0237998Y0177264D03*
X0237958Y0177264D03*
X0237919Y0177264D03*
X0237880Y0177264D03*
X0237840Y0177264D03*
X0237643Y0177224D03*
X0236147Y0169547D03*
X0236108Y0169547D03*
X0236069Y0169547D03*
X0238313Y0166122D03*
X0238352Y0166122D03*
X0238470Y0166161D03*
X0238509Y0166161D03*
X0238549Y0166161D03*
X0238588Y0166161D03*
X0236187Y0165413D03*
X0236147Y0165413D03*
X0236108Y0165374D03*
X0238391Y0157618D03*
X0238431Y0157618D03*
X0238470Y0157618D03*
X0238509Y0157618D03*
X0238549Y0157618D03*
X0238588Y0157618D03*
X0238628Y0157618D03*
X0238667Y0157618D03*
X0238706Y0157618D03*
X0238746Y0157618D03*
X0238785Y0157618D03*
X0238824Y0157618D03*
X0238864Y0157618D03*
X0238903Y0157618D03*
X0238943Y0157618D03*
X0238982Y0157618D03*
X0239021Y0157618D03*
X0239061Y0157618D03*
X0239100Y0157618D03*
X0239139Y0157618D03*
X0239179Y0157618D03*
X0239218Y0157618D03*
X0239257Y0157618D03*
X0239297Y0157618D03*
X0239336Y0157618D03*
X0239376Y0157618D03*
X0239415Y0157618D03*
X0239454Y0157618D03*
X0239494Y0157618D03*
X0239533Y0157618D03*
X0239572Y0157618D03*
X0239612Y0157618D03*
X0239651Y0157618D03*
X0239691Y0157618D03*
X0239730Y0157618D03*
X0239769Y0157618D03*
X0239966Y0157657D03*
X0240006Y0157657D03*
X0240045Y0157657D03*
X0240084Y0157657D03*
X0240124Y0157657D03*
X0240242Y0157697D03*
X0240281Y0157697D03*
X0240320Y0157697D03*
X0240360Y0157697D03*
X0240399Y0157697D03*
X0240478Y0157736D03*
X0240517Y0157736D03*
X0240557Y0157736D03*
X0240596Y0157736D03*
X0240635Y0157736D03*
X0240675Y0157776D03*
X0240714Y0157776D03*
X0240754Y0157776D03*
X0240793Y0157776D03*
X0240911Y0157815D03*
X0240950Y0157815D03*
X0241069Y0157854D03*
D174*
X0235439Y0169606D03*
D175*
X0234651Y0159331D03*
D176*
X0234612Y0159370D03*
X0234494Y0164055D03*
D177*
X0234454Y0163976D03*
X0234612Y0175472D03*
D178*
X0234415Y0159764D03*
D179*
X0234376Y0163740D03*
D180*
X0234257Y0161752D03*
X0234218Y0173130D03*
D181*
X0230045Y0167461D03*
D182*
X0230006Y0167461D03*
M02*
