G75*
%MOIN*%
%OFA0B0*%
%FSLAX25Y25*%
%IPPOS*%
%LPD*%
%AMOC8*
5,1,8,0,0,1.08239X$1,22.5*
%
%ADD10C,0.00000*%
%ADD11C,0.03162*%
%ADD12C,0.13792*%
%ADD13C,0.11430*%
%ADD14C,0.21800*%
%ADD15C,0.06800*%
%ADD16R,0.09400X0.09400*%
D10*
X0016773Y0003000D02*
X0244332Y0003000D01*
X0244674Y0003004D01*
X0245017Y0003017D01*
X0245359Y0003037D01*
X0245700Y0003066D01*
X0246040Y0003103D01*
X0246380Y0003149D01*
X0246718Y0003202D01*
X0247055Y0003264D01*
X0247390Y0003334D01*
X0247724Y0003412D01*
X0248055Y0003498D01*
X0248385Y0003592D01*
X0248712Y0003694D01*
X0249036Y0003803D01*
X0249358Y0003921D01*
X0249677Y0004046D01*
X0249992Y0004179D01*
X0250305Y0004320D01*
X0250613Y0004468D01*
X0250919Y0004623D01*
X0251220Y0004786D01*
X0251517Y0004956D01*
X0251810Y0005133D01*
X0252099Y0005318D01*
X0252383Y0005509D01*
X0252663Y0005707D01*
X0252937Y0005911D01*
X0253207Y0006123D01*
X0253471Y0006340D01*
X0253730Y0006564D01*
X0253984Y0006795D01*
X0254232Y0007031D01*
X0254474Y0007273D01*
X0254710Y0007521D01*
X0254941Y0007775D01*
X0255165Y0008034D01*
X0255382Y0008298D01*
X0255594Y0008568D01*
X0255798Y0008842D01*
X0255996Y0009122D01*
X0256187Y0009406D01*
X0256372Y0009695D01*
X0256549Y0009988D01*
X0256719Y0010285D01*
X0256882Y0010586D01*
X0257037Y0010892D01*
X0257185Y0011200D01*
X0257326Y0011513D01*
X0257459Y0011828D01*
X0257584Y0012147D01*
X0257702Y0012469D01*
X0257811Y0012793D01*
X0257913Y0013120D01*
X0258007Y0013450D01*
X0258093Y0013781D01*
X0258171Y0014115D01*
X0258241Y0014450D01*
X0258303Y0014787D01*
X0258356Y0015125D01*
X0258402Y0015465D01*
X0258439Y0015805D01*
X0258468Y0016146D01*
X0258488Y0016488D01*
X0258501Y0016831D01*
X0258505Y0017173D01*
X0258506Y0017173D02*
X0258506Y0209299D01*
X0258505Y0209299D02*
X0258501Y0209641D01*
X0258488Y0209984D01*
X0258468Y0210326D01*
X0258439Y0210667D01*
X0258402Y0211007D01*
X0258356Y0211347D01*
X0258303Y0211685D01*
X0258241Y0212022D01*
X0258171Y0212357D01*
X0258093Y0212691D01*
X0258007Y0213022D01*
X0257913Y0213352D01*
X0257811Y0213679D01*
X0257702Y0214003D01*
X0257584Y0214325D01*
X0257459Y0214644D01*
X0257326Y0214959D01*
X0257185Y0215272D01*
X0257037Y0215580D01*
X0256882Y0215886D01*
X0256719Y0216187D01*
X0256549Y0216484D01*
X0256372Y0216777D01*
X0256187Y0217066D01*
X0255996Y0217350D01*
X0255798Y0217630D01*
X0255594Y0217904D01*
X0255382Y0218174D01*
X0255165Y0218438D01*
X0254941Y0218697D01*
X0254710Y0218951D01*
X0254474Y0219199D01*
X0254232Y0219441D01*
X0253984Y0219677D01*
X0253730Y0219908D01*
X0253471Y0220132D01*
X0253207Y0220349D01*
X0252937Y0220561D01*
X0252663Y0220765D01*
X0252383Y0220963D01*
X0252099Y0221154D01*
X0251810Y0221339D01*
X0251517Y0221516D01*
X0251220Y0221686D01*
X0250919Y0221849D01*
X0250613Y0222004D01*
X0250305Y0222152D01*
X0249992Y0222293D01*
X0249677Y0222426D01*
X0249358Y0222551D01*
X0249036Y0222669D01*
X0248712Y0222778D01*
X0248385Y0222880D01*
X0248055Y0222974D01*
X0247724Y0223060D01*
X0247390Y0223138D01*
X0247055Y0223208D01*
X0246718Y0223270D01*
X0246380Y0223323D01*
X0246040Y0223369D01*
X0245700Y0223406D01*
X0245359Y0223435D01*
X0245017Y0223455D01*
X0244674Y0223468D01*
X0244332Y0223472D01*
X0016773Y0223472D01*
X0016431Y0223468D01*
X0016088Y0223455D01*
X0015746Y0223435D01*
X0015405Y0223406D01*
X0015065Y0223369D01*
X0014725Y0223323D01*
X0014387Y0223270D01*
X0014050Y0223208D01*
X0013715Y0223138D01*
X0013381Y0223060D01*
X0013050Y0222974D01*
X0012720Y0222880D01*
X0012393Y0222778D01*
X0012069Y0222669D01*
X0011747Y0222551D01*
X0011428Y0222426D01*
X0011113Y0222293D01*
X0010800Y0222152D01*
X0010492Y0222004D01*
X0010186Y0221849D01*
X0009885Y0221686D01*
X0009588Y0221516D01*
X0009295Y0221339D01*
X0009006Y0221154D01*
X0008722Y0220963D01*
X0008442Y0220765D01*
X0008168Y0220561D01*
X0007898Y0220349D01*
X0007634Y0220132D01*
X0007375Y0219908D01*
X0007121Y0219677D01*
X0006873Y0219441D01*
X0006631Y0219199D01*
X0006395Y0218951D01*
X0006164Y0218697D01*
X0005940Y0218438D01*
X0005723Y0218174D01*
X0005511Y0217904D01*
X0005307Y0217630D01*
X0005109Y0217350D01*
X0004918Y0217066D01*
X0004733Y0216777D01*
X0004556Y0216484D01*
X0004386Y0216187D01*
X0004223Y0215886D01*
X0004068Y0215580D01*
X0003920Y0215272D01*
X0003779Y0214959D01*
X0003646Y0214644D01*
X0003521Y0214325D01*
X0003403Y0214003D01*
X0003294Y0213679D01*
X0003192Y0213352D01*
X0003098Y0213022D01*
X0003012Y0212691D01*
X0002934Y0212357D01*
X0002864Y0212022D01*
X0002802Y0211685D01*
X0002749Y0211347D01*
X0002703Y0211007D01*
X0002666Y0210667D01*
X0002637Y0210326D01*
X0002617Y0209984D01*
X0002604Y0209641D01*
X0002600Y0209299D01*
X0002600Y0017173D01*
X0002604Y0016831D01*
X0002617Y0016488D01*
X0002637Y0016146D01*
X0002666Y0015805D01*
X0002703Y0015465D01*
X0002749Y0015125D01*
X0002802Y0014787D01*
X0002864Y0014450D01*
X0002934Y0014115D01*
X0003012Y0013781D01*
X0003098Y0013450D01*
X0003192Y0013120D01*
X0003294Y0012793D01*
X0003403Y0012469D01*
X0003521Y0012147D01*
X0003646Y0011828D01*
X0003779Y0011513D01*
X0003920Y0011200D01*
X0004068Y0010892D01*
X0004223Y0010586D01*
X0004386Y0010285D01*
X0004556Y0009988D01*
X0004733Y0009695D01*
X0004918Y0009406D01*
X0005109Y0009122D01*
X0005307Y0008842D01*
X0005511Y0008568D01*
X0005723Y0008298D01*
X0005940Y0008034D01*
X0006164Y0007775D01*
X0006395Y0007521D01*
X0006631Y0007273D01*
X0006873Y0007031D01*
X0007121Y0006795D01*
X0007375Y0006564D01*
X0007634Y0006340D01*
X0007898Y0006123D01*
X0008168Y0005911D01*
X0008442Y0005707D01*
X0008722Y0005509D01*
X0009006Y0005318D01*
X0009295Y0005133D01*
X0009588Y0004956D01*
X0009885Y0004786D01*
X0010186Y0004623D01*
X0010492Y0004468D01*
X0010800Y0004320D01*
X0011113Y0004179D01*
X0011428Y0004046D01*
X0011747Y0003921D01*
X0012069Y0003803D01*
X0012393Y0003694D01*
X0012720Y0003592D01*
X0013050Y0003498D01*
X0013381Y0003412D01*
X0013715Y0003334D01*
X0014050Y0003264D01*
X0014387Y0003202D01*
X0014725Y0003149D01*
X0015065Y0003103D01*
X0015405Y0003066D01*
X0015746Y0003037D01*
X0016088Y0003017D01*
X0016431Y0003004D01*
X0016773Y0003000D01*
X0088033Y0066031D02*
X0088033Y0088433D01*
X0088035Y0088499D01*
X0088040Y0088565D01*
X0088050Y0088631D01*
X0088063Y0088696D01*
X0088079Y0088760D01*
X0088099Y0088823D01*
X0088123Y0088885D01*
X0088150Y0088945D01*
X0088180Y0089004D01*
X0088214Y0089061D01*
X0088251Y0089116D01*
X0088291Y0089169D01*
X0088333Y0089220D01*
X0088379Y0089268D01*
X0088427Y0089314D01*
X0088478Y0089356D01*
X0088531Y0089396D01*
X0088586Y0089433D01*
X0088643Y0089467D01*
X0088702Y0089497D01*
X0088762Y0089524D01*
X0088824Y0089548D01*
X0088887Y0089568D01*
X0088951Y0089584D01*
X0089016Y0089597D01*
X0089082Y0089607D01*
X0089148Y0089612D01*
X0089214Y0089614D01*
X0145513Y0089614D01*
X0145579Y0089612D01*
X0145645Y0089607D01*
X0145711Y0089597D01*
X0145776Y0089584D01*
X0145840Y0089568D01*
X0145903Y0089548D01*
X0145965Y0089524D01*
X0146025Y0089497D01*
X0146084Y0089467D01*
X0146141Y0089433D01*
X0146196Y0089396D01*
X0146249Y0089356D01*
X0146300Y0089314D01*
X0146348Y0089268D01*
X0146394Y0089220D01*
X0146436Y0089169D01*
X0146476Y0089116D01*
X0146513Y0089061D01*
X0146547Y0089004D01*
X0146577Y0088945D01*
X0146604Y0088885D01*
X0146628Y0088823D01*
X0146648Y0088760D01*
X0146664Y0088696D01*
X0146677Y0088631D01*
X0146687Y0088565D01*
X0146692Y0088499D01*
X0146694Y0088433D01*
X0146694Y0065992D01*
X0146692Y0065926D01*
X0146687Y0065860D01*
X0146677Y0065794D01*
X0146664Y0065729D01*
X0146648Y0065665D01*
X0146628Y0065602D01*
X0146604Y0065540D01*
X0146577Y0065480D01*
X0146547Y0065421D01*
X0146513Y0065364D01*
X0146476Y0065309D01*
X0146436Y0065256D01*
X0146394Y0065205D01*
X0146348Y0065157D01*
X0146300Y0065111D01*
X0146249Y0065069D01*
X0146196Y0065029D01*
X0146141Y0064992D01*
X0146084Y0064958D01*
X0146025Y0064928D01*
X0145965Y0064901D01*
X0145903Y0064877D01*
X0145840Y0064857D01*
X0145776Y0064841D01*
X0145711Y0064828D01*
X0145645Y0064818D01*
X0145579Y0064813D01*
X0145513Y0064811D01*
X0089214Y0064811D01*
X0089148Y0064813D01*
X0089082Y0064818D01*
X0089016Y0064828D01*
X0088951Y0064841D01*
X0088887Y0064857D01*
X0088824Y0064877D01*
X0088762Y0064901D01*
X0088702Y0064928D01*
X0088643Y0064958D01*
X0088586Y0064992D01*
X0088531Y0065029D01*
X0088478Y0065069D01*
X0088427Y0065111D01*
X0088379Y0065157D01*
X0088333Y0065205D01*
X0088291Y0065256D01*
X0088251Y0065309D01*
X0088214Y0065364D01*
X0088180Y0065421D01*
X0088150Y0065480D01*
X0088123Y0065540D01*
X0088099Y0065602D01*
X0088079Y0065665D01*
X0088063Y0065729D01*
X0088050Y0065794D01*
X0088040Y0065860D01*
X0088035Y0065926D01*
X0088033Y0065992D01*
X0114411Y0097094D02*
X0146694Y0097094D01*
X0146694Y0129378D01*
X0114411Y0129378D01*
X0114411Y0097094D01*
X0088033Y0115205D02*
X0088035Y0115274D01*
X0088041Y0115342D01*
X0088051Y0115410D01*
X0088065Y0115477D01*
X0088083Y0115544D01*
X0088104Y0115609D01*
X0088130Y0115673D01*
X0088159Y0115735D01*
X0088191Y0115795D01*
X0088227Y0115854D01*
X0088267Y0115910D01*
X0088309Y0115964D01*
X0088355Y0116015D01*
X0088404Y0116064D01*
X0088455Y0116110D01*
X0088509Y0116152D01*
X0088565Y0116192D01*
X0088623Y0116228D01*
X0088684Y0116260D01*
X0088746Y0116289D01*
X0088810Y0116315D01*
X0088875Y0116336D01*
X0088942Y0116354D01*
X0089009Y0116368D01*
X0089077Y0116378D01*
X0089145Y0116384D01*
X0089214Y0116386D01*
X0089283Y0116384D01*
X0089351Y0116378D01*
X0089419Y0116368D01*
X0089486Y0116354D01*
X0089553Y0116336D01*
X0089618Y0116315D01*
X0089682Y0116289D01*
X0089744Y0116260D01*
X0089804Y0116228D01*
X0089863Y0116192D01*
X0089919Y0116152D01*
X0089973Y0116110D01*
X0090024Y0116064D01*
X0090073Y0116015D01*
X0090119Y0115964D01*
X0090161Y0115910D01*
X0090201Y0115854D01*
X0090237Y0115795D01*
X0090269Y0115735D01*
X0090298Y0115673D01*
X0090324Y0115609D01*
X0090345Y0115544D01*
X0090363Y0115477D01*
X0090377Y0115410D01*
X0090387Y0115342D01*
X0090393Y0115274D01*
X0090395Y0115205D01*
X0090393Y0115136D01*
X0090387Y0115068D01*
X0090377Y0115000D01*
X0090363Y0114933D01*
X0090345Y0114866D01*
X0090324Y0114801D01*
X0090298Y0114737D01*
X0090269Y0114675D01*
X0090237Y0114614D01*
X0090201Y0114556D01*
X0090161Y0114500D01*
X0090119Y0114446D01*
X0090073Y0114395D01*
X0090024Y0114346D01*
X0089973Y0114300D01*
X0089919Y0114258D01*
X0089863Y0114218D01*
X0089805Y0114182D01*
X0089744Y0114150D01*
X0089682Y0114121D01*
X0089618Y0114095D01*
X0089553Y0114074D01*
X0089486Y0114056D01*
X0089419Y0114042D01*
X0089351Y0114032D01*
X0089283Y0114026D01*
X0089214Y0114024D01*
X0089145Y0114026D01*
X0089077Y0114032D01*
X0089009Y0114042D01*
X0088942Y0114056D01*
X0088875Y0114074D01*
X0088810Y0114095D01*
X0088746Y0114121D01*
X0088684Y0114150D01*
X0088623Y0114182D01*
X0088565Y0114218D01*
X0088509Y0114258D01*
X0088455Y0114300D01*
X0088404Y0114346D01*
X0088355Y0114395D01*
X0088309Y0114446D01*
X0088267Y0114500D01*
X0088227Y0114556D01*
X0088191Y0114614D01*
X0088159Y0114675D01*
X0088130Y0114737D01*
X0088104Y0114801D01*
X0088083Y0114866D01*
X0088065Y0114933D01*
X0088051Y0115000D01*
X0088041Y0115068D01*
X0088035Y0115136D01*
X0088033Y0115205D01*
X0170710Y0115205D02*
X0170712Y0115274D01*
X0170718Y0115342D01*
X0170728Y0115410D01*
X0170742Y0115477D01*
X0170760Y0115544D01*
X0170781Y0115609D01*
X0170807Y0115673D01*
X0170836Y0115735D01*
X0170868Y0115795D01*
X0170904Y0115854D01*
X0170944Y0115910D01*
X0170986Y0115964D01*
X0171032Y0116015D01*
X0171081Y0116064D01*
X0171132Y0116110D01*
X0171186Y0116152D01*
X0171242Y0116192D01*
X0171300Y0116228D01*
X0171361Y0116260D01*
X0171423Y0116289D01*
X0171487Y0116315D01*
X0171552Y0116336D01*
X0171619Y0116354D01*
X0171686Y0116368D01*
X0171754Y0116378D01*
X0171822Y0116384D01*
X0171891Y0116386D01*
X0171960Y0116384D01*
X0172028Y0116378D01*
X0172096Y0116368D01*
X0172163Y0116354D01*
X0172230Y0116336D01*
X0172295Y0116315D01*
X0172359Y0116289D01*
X0172421Y0116260D01*
X0172481Y0116228D01*
X0172540Y0116192D01*
X0172596Y0116152D01*
X0172650Y0116110D01*
X0172701Y0116064D01*
X0172750Y0116015D01*
X0172796Y0115964D01*
X0172838Y0115910D01*
X0172878Y0115854D01*
X0172914Y0115795D01*
X0172946Y0115735D01*
X0172975Y0115673D01*
X0173001Y0115609D01*
X0173022Y0115544D01*
X0173040Y0115477D01*
X0173054Y0115410D01*
X0173064Y0115342D01*
X0173070Y0115274D01*
X0173072Y0115205D01*
X0173070Y0115136D01*
X0173064Y0115068D01*
X0173054Y0115000D01*
X0173040Y0114933D01*
X0173022Y0114866D01*
X0173001Y0114801D01*
X0172975Y0114737D01*
X0172946Y0114675D01*
X0172914Y0114614D01*
X0172878Y0114556D01*
X0172838Y0114500D01*
X0172796Y0114446D01*
X0172750Y0114395D01*
X0172701Y0114346D01*
X0172650Y0114300D01*
X0172596Y0114258D01*
X0172540Y0114218D01*
X0172482Y0114182D01*
X0172421Y0114150D01*
X0172359Y0114121D01*
X0172295Y0114095D01*
X0172230Y0114074D01*
X0172163Y0114056D01*
X0172096Y0114042D01*
X0172028Y0114032D01*
X0171960Y0114026D01*
X0171891Y0114024D01*
X0171822Y0114026D01*
X0171754Y0114032D01*
X0171686Y0114042D01*
X0171619Y0114056D01*
X0171552Y0114074D01*
X0171487Y0114095D01*
X0171423Y0114121D01*
X0171361Y0114150D01*
X0171300Y0114182D01*
X0171242Y0114218D01*
X0171186Y0114258D01*
X0171132Y0114300D01*
X0171081Y0114346D01*
X0171032Y0114395D01*
X0170986Y0114446D01*
X0170944Y0114500D01*
X0170904Y0114556D01*
X0170868Y0114614D01*
X0170836Y0114675D01*
X0170807Y0114737D01*
X0170781Y0114801D01*
X0170760Y0114866D01*
X0170742Y0114933D01*
X0170728Y0115000D01*
X0170718Y0115068D01*
X0170712Y0115136D01*
X0170710Y0115205D01*
X0170710Y0065992D02*
X0170712Y0066061D01*
X0170718Y0066129D01*
X0170728Y0066197D01*
X0170742Y0066264D01*
X0170760Y0066331D01*
X0170781Y0066396D01*
X0170807Y0066460D01*
X0170836Y0066522D01*
X0170868Y0066582D01*
X0170904Y0066641D01*
X0170944Y0066697D01*
X0170986Y0066751D01*
X0171032Y0066802D01*
X0171081Y0066851D01*
X0171132Y0066897D01*
X0171186Y0066939D01*
X0171242Y0066979D01*
X0171300Y0067015D01*
X0171361Y0067047D01*
X0171423Y0067076D01*
X0171487Y0067102D01*
X0171552Y0067123D01*
X0171619Y0067141D01*
X0171686Y0067155D01*
X0171754Y0067165D01*
X0171822Y0067171D01*
X0171891Y0067173D01*
X0171960Y0067171D01*
X0172028Y0067165D01*
X0172096Y0067155D01*
X0172163Y0067141D01*
X0172230Y0067123D01*
X0172295Y0067102D01*
X0172359Y0067076D01*
X0172421Y0067047D01*
X0172481Y0067015D01*
X0172540Y0066979D01*
X0172596Y0066939D01*
X0172650Y0066897D01*
X0172701Y0066851D01*
X0172750Y0066802D01*
X0172796Y0066751D01*
X0172838Y0066697D01*
X0172878Y0066641D01*
X0172914Y0066582D01*
X0172946Y0066522D01*
X0172975Y0066460D01*
X0173001Y0066396D01*
X0173022Y0066331D01*
X0173040Y0066264D01*
X0173054Y0066197D01*
X0173064Y0066129D01*
X0173070Y0066061D01*
X0173072Y0065992D01*
X0173070Y0065923D01*
X0173064Y0065855D01*
X0173054Y0065787D01*
X0173040Y0065720D01*
X0173022Y0065653D01*
X0173001Y0065588D01*
X0172975Y0065524D01*
X0172946Y0065462D01*
X0172914Y0065401D01*
X0172878Y0065343D01*
X0172838Y0065287D01*
X0172796Y0065233D01*
X0172750Y0065182D01*
X0172701Y0065133D01*
X0172650Y0065087D01*
X0172596Y0065045D01*
X0172540Y0065005D01*
X0172482Y0064969D01*
X0172421Y0064937D01*
X0172359Y0064908D01*
X0172295Y0064882D01*
X0172230Y0064861D01*
X0172163Y0064843D01*
X0172096Y0064829D01*
X0172028Y0064819D01*
X0171960Y0064813D01*
X0171891Y0064811D01*
X0171822Y0064813D01*
X0171754Y0064819D01*
X0171686Y0064829D01*
X0171619Y0064843D01*
X0171552Y0064861D01*
X0171487Y0064882D01*
X0171423Y0064908D01*
X0171361Y0064937D01*
X0171300Y0064969D01*
X0171242Y0065005D01*
X0171186Y0065045D01*
X0171132Y0065087D01*
X0171081Y0065133D01*
X0171032Y0065182D01*
X0170986Y0065233D01*
X0170944Y0065287D01*
X0170904Y0065343D01*
X0170868Y0065401D01*
X0170836Y0065462D01*
X0170807Y0065524D01*
X0170781Y0065588D01*
X0170760Y0065653D01*
X0170742Y0065720D01*
X0170728Y0065787D01*
X0170718Y0065855D01*
X0170712Y0065923D01*
X0170710Y0065992D01*
D11*
X0171891Y0065992D03*
X0171891Y0115205D03*
X0089214Y0115205D03*
D12*
X0089214Y0187370D02*
X0089214Y0200362D01*
X0171891Y0200362D02*
X0171891Y0187370D01*
X0171891Y0039102D02*
X0171891Y0026110D01*
X0089214Y0026110D02*
X0089214Y0039102D01*
D13*
X0099057Y0027921D02*
X0099057Y0017291D01*
X0162049Y0017291D02*
X0162049Y0027921D01*
X0162049Y0198551D02*
X0162049Y0209181D01*
X0099057Y0209181D02*
X0099057Y0198551D01*
D14*
X0016773Y0209299D03*
X0016773Y0017173D03*
X0244332Y0017173D03*
X0244332Y0209299D03*
D15*
X0220100Y0021000D02*
X0220100Y0015000D01*
X0210100Y0015000D02*
X0210100Y0021000D01*
X0200100Y0021000D02*
X0200100Y0015000D01*
X0190100Y0015000D02*
X0190100Y0021000D01*
D16*
X0067600Y0208000D03*
X0047915Y0208000D03*
M02*
