%
M48
M72
T01C0.01181
T02C0.02362
T03C0.04000
T04C0.04724
T05C0.05906
T06C0.08661
T07C0.11024
%
T01
X35100Y10500
X12600Y35500
X32600Y50500
X10100Y58000
X25100Y75500
X10100Y93000
X25100Y110500
X10100Y125500
X25100Y143000
X10100Y155500
X25100Y173000
X10100Y185500
X25100Y193000
X65100Y185500
X77600Y185500
X75100Y200500
X85100Y215500
X65100Y218000
X105100Y185500
X115100Y200500
X125100Y185500
X135100Y200500
X145100Y185500
X130100Y215500
X145100Y218000
X107600Y218000
X105100Y145500
X117600Y135500
X107600Y123000
X90100Y125500
X70100Y138000
X90100Y105500
X100100Y95500
X80100Y88000
X67600Y83000
X120100Y58000
X155100Y68000
X175100Y80500
X192600Y90500
X175100Y103000
X152600Y93000
X152600Y123000
X145100Y135500
X152600Y145500
X170100Y128000
X192600Y138000
X222600Y160500
X250100Y148000
X227600Y133000
X250100Y113000
X227600Y85500
X210100Y100500
X195100Y68000
X182600Y50500
X187600Y30500
X205100Y43000
X212600Y30500
X230100Y33000
X250100Y35500
X227600Y8000
X205100Y8000
X172600Y10500
X155100Y43000
X130100Y10500
X217600Y63000
X250100Y68000
X130100Y145500
X225100Y215500
X247600Y188000
T02
X171891Y115205
X171891Y65992
X89214Y115205
X55100Y125500
T03
X190100Y18000
X200100Y18000
X210100Y18000
X220100Y18000
T04
X67600Y208000
X47915Y208000
T05
X99057Y203866
X162049Y203866
X162049Y22606
X99057Y22606
T06
X89214Y32606
X171891Y32606
X171891Y193866
X89214Y193866
T07
X16773Y17173
X16773Y209299
X244332Y209299
X244332Y17173
M30
